<svg width="25" height="24" viewBox="0 0 25 24" fill="none" xmlns="http://www.w3.org/2000/svg">
<g clip-path="url(#clip0_3013_15979)">
<path fill-rule="evenodd" clip-rule="evenodd" d="M22.9682 2.91999C22.841 2.40644 22.5943 1.93018 22.2482 1.52999C21.1482 0.259995 18.5782 -5.42402e-06 17.1282 0.209995C16.4387 0.282612 15.7768 0.520514 15.1988 0.903509C14.6209 1.2865 14.1438 1.80329 13.8082 2.40999C13.3082 3.30999 13.4582 9.92999 13.5682 11.09C13.5682 11.28 13.9682 14.17 13.9882 14.25C14.0042 14.3598 14.045 14.4645 14.1075 14.5562C14.1701 14.6479 14.2527 14.7241 14.3491 14.779C14.4455 14.834 14.5532 14.8663 14.6639 14.8733C14.7747 14.8804 14.8856 14.8622 14.9882 14.82C15.405 14.4926 15.7634 14.097 16.0482 13.65C16.5295 12.6346 16.9535 11.5929 17.3182 10.53C17.4682 10.18 17.1682 9.75999 17.8582 11.09C18.1719 11.986 18.6426 12.819 19.2482 13.55C19.7882 13.92 20.3082 13.64 20.5782 13.03C21.5782 10.15 19.9582 5.75999 20.3182 3.43999C20.3182 3.20999 20.8182 3.29999 20.8982 3.30999C21.3951 3.30768 21.89 3.375 22.3682 3.50999C22.9682 3.77999 23.0382 3.24999 22.9682 2.91999ZM20.5282 2.47999C20.3691 2.49943 20.2171 2.55681 20.0848 2.64731C19.9525 2.7378 19.8439 2.85876 19.7682 2.99999C18.9882 4.24999 20.7682 11.45 19.6382 12.77C19.4109 12.3206 19.2332 11.8478 19.1082 11.36C19.1082 11.36 17.9682 8.80999 17.9082 8.75999C17.6482 8.32999 17.0682 8.27999 16.7082 8.94999C16.2098 10.3889 15.6289 11.798 14.9682 13.17C14.9682 12.91 14.8182 12.63 14.6482 10.98C14.5982 10.51 14.1782 3.60999 14.5682 2.82999C14.8347 2.33179 15.2174 1.90527 15.684 1.58667C16.1506 1.26808 16.6872 1.06682 17.2482 0.999995C18.6067 0.800862 19.9939 0.991593 21.2482 1.54999C21.6433 1.79573 21.9674 2.14045 22.1882 2.54999C22.5582 3.19999 21.7582 2.31999 20.5482 2.47999H20.5282Z" fill="#998696"/>
<path fill-rule="evenodd" clip-rule="evenodd" d="M24.5682 8.30998C24.4382 7.11998 24.4182 3.80998 23.5682 3.18998C23.3082 2.98998 23.1482 3.78998 23.2582 4.01998C23.3682 4.24998 23.3182 4.10998 23.4482 4.91998C23.5782 5.72998 24.0082 11.7 23.9982 14.26C23.9982 15.26 23.7082 20.59 23.2782 21.39C20.6582 22.86 2.8082 23.39 2.3482 21.39C1.8282 19 1.4382 6.31998 1.9682 3.33998C1.96875 3.26972 1.94461 3.20149 1.9 3.1472C1.8554 3.09291 1.79315 3.05601 1.72411 3.04291C1.65508 3.02982 1.58364 3.04138 1.52225 3.07556C1.46086 3.10975 1.41342 3.1644 1.3882 3.22998C0.758204 6.22998 0.848204 19.08 1.3882 21.65C1.4982 22.18 2.0982 22.7 3.1382 23.04C7.6682 24.53 23.1382 23.87 24.2182 21.93C24.6182 21.21 24.6082 20.01 24.7882 18.24C25.0446 14.9309 24.9709 11.6045 24.5682 8.30998Z" fill="#7A387B"/>
<path fill-rule="evenodd" clip-rule="evenodd" d="M3.19821 3.07998C4.19821 3.07998 7.19821 3.21998 9.19821 3.15998C10.4782 3.15998 11.8382 2.98998 13.1982 2.92998C13.2778 2.92998 13.3541 2.89837 13.4103 2.84211C13.4666 2.78585 13.4982 2.70955 13.4982 2.62998C13.4982 2.55042 13.4666 2.47411 13.4103 2.41785C13.3541 2.36159 13.2778 2.32998 13.1982 2.32998C9.8755 1.92314 6.51399 1.95003 3.19821 2.40998C3.11929 2.42367 3.04773 2.46478 2.99616 2.52607C2.94459 2.58735 2.91631 2.66488 2.91631 2.74498C2.91631 2.82508 2.94459 2.90261 2.99616 2.9639C3.04773 3.02518 3.11929 3.0663 3.19821 3.07998Z" fill="#7A387B"/>
<path fill-rule="evenodd" clip-rule="evenodd" d="M4.39821 5.65997C4.47682 5.74447 4.572 5.81186 4.67781 5.85794C4.78362 5.90402 4.8978 5.92781 5.01321 5.92781C5.12862 5.92781 5.24279 5.90402 5.3486 5.85794C5.45441 5.81186 5.54959 5.74447 5.62821 5.65997C5.71532 5.49496 5.74201 5.30469 5.70366 5.12208C5.66531 4.93947 5.56434 4.776 5.41821 4.65997C4.65821 4.18997 3.71821 4.99997 4.39821 5.65997Z" fill="#7A387B"/>
<path fill-rule="evenodd" clip-rule="evenodd" d="M7.02821 5.37996C7.10511 5.46557 7.19917 5.53402 7.30426 5.58089C7.40936 5.62775 7.52314 5.65197 7.63821 5.65197C7.75328 5.65197 7.86706 5.62775 7.97216 5.58089C8.07725 5.53402 8.17131 5.46557 8.24821 5.37996C8.33452 5.2156 8.36175 5.02658 8.32534 4.84454C8.28893 4.6625 8.1911 4.49849 8.04821 4.37996C7.27821 3.90996 6.34821 4.68996 7.02821 5.37996Z" fill="#7A387B"/>
<path fill-rule="evenodd" clip-rule="evenodd" d="M9.8882 5.37996C9.96681 5.46446 10.062 5.53185 10.1678 5.57793C10.2736 5.62401 10.3878 5.6478 10.5032 5.6478C10.6186 5.6478 10.7328 5.62401 10.8386 5.57793C10.9444 5.53185 11.0396 5.46446 11.1182 5.37996C11.2034 5.21452 11.229 5.02479 11.1908 4.84267C11.1525 4.66056 11.0527 4.49716 10.9082 4.37996C10.1482 3.90996 9.2082 4.68996 9.8882 5.37996Z" fill="#7A387B"/>
<path fill-rule="evenodd" clip-rule="evenodd" d="M2.17821 7.85C5.1706 8.15223 8.18582 8.15223 11.1782 7.85C11.2684 7.85 11.3549 7.81417 11.4186 7.75041C11.4824 7.68665 11.5182 7.60017 11.5182 7.51C11.5182 7.41982 11.4824 7.33334 11.4186 7.26958C11.3549 7.20582 11.2684 7.17 11.1782 7.17C8.18695 6.82369 5.16459 6.84384 2.17821 7.23C2.09599 7.23 2.01714 7.26266 1.95901 7.32079C1.90087 7.37893 1.86821 7.45778 1.86821 7.54C1.86821 7.62221 1.90087 7.70106 1.95901 7.7592C2.01714 7.81734 2.09599 7.85 2.17821 7.85Z" fill="#7A387B"/>
</g>
<defs>
<clipPath id="clip0_3013_15979">
<rect width="24" height="24" fill="white" transform="translate(0.968201)"/>
</clipPath>
</defs>
</svg>
