<svg width="25" height="24" viewBox="0 0 25 24" fill="none" xmlns="http://www.w3.org/2000/svg">
<g clip-path="url(#clip0_3013_15946)">
<path d="M4.14821 7.07996L7.87821 7.19996H12.9982C14.7082 7.19996 16.4082 7.12996 18.1182 7.09996L21.4182 7.02996H23.1182C23.2094 7.03271 23.298 6.99976 23.3653 6.93812C23.4325 6.87648 23.473 6.79103 23.4782 6.69996C23.4795 6.6553 23.4721 6.61082 23.4562 6.56906C23.4403 6.5273 23.4164 6.48908 23.3857 6.45657C23.3551 6.42407 23.3183 6.39792 23.2776 6.37963C23.2368 6.36133 23.1929 6.35125 23.1482 6.34996L21.4182 6.22996L18.1182 6.11996C16.4082 6.11996 14.6982 6.01996 12.9982 6.01996C11.2982 6.01996 9.57821 6.07996 7.86821 6.12996L4.15821 6.27996C3.76057 6.26776 3.3626 6.28783 2.96821 6.33996C2.65821 6.33996 2.49821 7.01996 2.96821 7.02996L4.14821 7.07996Z" fill="#998696"/>
<path d="M24.8182 5.93998C24.8627 5.15276 24.8393 4.36317 24.7482 3.57998C24.6849 3.17346 24.5159 2.7907 24.2582 2.46998C24.0538 2.24043 23.7858 2.07683 23.4882 1.99998C23.1602 1.91733 22.8256 1.86379 22.4882 1.83998C21.9582 1.78998 21.4282 1.75998 20.8982 1.72998H18.5382C16.2082 1.72998 13.8882 1.61998 11.5382 1.59998C9.9782 1.59998 8.4182 1.59998 6.8682 1.66998L3.8682 1.88998C3.5382 1.88998 3.1582 1.88998 2.7982 1.95998C2.53396 2.00886 2.27336 2.07568 2.0182 2.15998C1.89055 2.19475 1.77682 2.26824 1.69265 2.37031C1.60849 2.47239 1.55802 2.59804 1.5482 2.72998C1.5082 3.35998 1.4582 3.99998 1.4182 4.71998C1.3282 6.29998 1.2782 7.87998 1.1882 9.46998C1.1282 10.42 1.0182 11.36 0.978203 12.31V13.56C0.978203 14.14 1.1182 18.56 1.2582 20.1C1.28085 20.497 1.35136 20.8899 1.4682 21.27C1.5064 21.3888 1.57959 21.4934 1.6782 21.57C1.84099 21.6926 2.02876 21.778 2.2282 21.82C2.55953 21.873 2.89327 21.9097 3.2282 21.93L4.4882 22L6.3682 22.13L9.3182 22.2C10.5182 22.2 11.7482 22.34 12.9682 22.39H14.5882C16.1782 22.39 19.7782 22.27 21.9782 22.09C22.5741 22.0556 23.1661 21.972 23.7482 21.84C23.9257 21.7891 24.083 21.6842 24.1982 21.54C24.3729 21.2879 24.4922 21.0016 24.5482 20.7C24.6165 20.1561 24.6465 19.6081 24.6382 19.06L24.9682 12.79L24.8182 5.93998ZM23.4882 19.05V20.35C23.4708 20.5083 23.4303 20.6633 23.3682 20.81C23.2482 20.81 23.0282 20.88 22.8082 20.9C21.9582 21.01 20.5982 21.09 19.1882 21.16C17.4282 21.24 15.5982 21.29 14.5882 21.33H13.5882C12.1882 21.33 10.7582 21.17 9.3782 21.18H6.4582L4.6182 21.09L3.3682 21H2.5582L2.3282 20.95C2.3282 20.89 2.2682 20.82 2.2482 20.74C2.15372 20.1336 2.0903 19.5228 2.0582 18.91C1.9682 17.42 1.8082 14 1.7782 13.51C1.7482 13.02 1.7782 12.45 1.7782 11.93C1.7782 11.12 1.8882 10.32 1.9182 9.49998C1.9482 8.67998 2.0382 5.33998 2.0682 4.74998C2.0982 4.15998 2.1282 3.41998 2.1782 2.74998C2.2282 2.74998 2.6982 2.59998 2.9082 2.57998C3.1182 2.55998 3.6282 2.57998 3.9082 2.57998L6.8582 2.39998H11.4882C13.8082 2.39998 16.1382 2.56998 18.4882 2.62998C19.2582 2.62998 20.0382 2.62998 20.8182 2.70998C21.3282 2.70998 21.8182 2.77998 22.3482 2.83998C22.5903 2.85634 22.8309 2.88976 23.0682 2.93998C23.2221 2.96309 23.3652 3.0329 23.4782 3.13998C23.6663 3.41805 23.7704 3.74435 23.7782 4.07998C23.8382 4.73998 23.7782 5.46998 23.7782 5.97998L23.8482 12.34V13.18L23.4882 19.05Z" fill="#7A387B"/>
<path d="M4.50821 3.7C4.30463 3.62745 4.08148 3.63234 3.88128 3.71375C3.68108 3.79516 3.51784 3.94739 3.42267 4.14143C3.32751 4.33547 3.30707 4.55774 3.36527 4.76588C3.42346 4.97401 3.55621 5.15346 3.73821 5.27C4.49821 5.69 5.96821 4.53 4.50821 3.7Z" fill="#7A387B"/>
<path d="M7.6682 3.76998C6.7582 3.33998 5.9682 4.59998 6.8382 5.13998C7.05821 5.20849 7.2924 5.21775 7.51714 5.16684C7.74187 5.11592 7.9492 5.00662 8.1182 4.84998C8.3282 4.60998 8.3082 4.09998 7.6682 3.76998Z" fill="#7A387B"/>
<path d="M9.5082 5C9.62957 5.09916 9.77254 5.16841 9.92559 5.20216C10.0786 5.23591 10.2375 5.23321 10.3893 5.19428C10.5411 5.15536 10.6817 5.08129 10.7996 4.97806C10.9175 4.87483 11.0095 4.74533 11.0682 4.6C11.0863 4.4644 11.0729 4.32646 11.0291 4.19688C10.9852 4.0673 10.9121 3.94957 10.8154 3.85284C10.7186 3.75611 10.6009 3.68298 10.4713 3.63913C10.3417 3.59528 10.2038 3.58189 10.0682 3.6C9.90042 3.58703 9.73287 3.62798 9.58999 3.71689C9.4471 3.80579 9.33633 3.938 9.27383 4.09425C9.21133 4.2505 9.20036 4.42263 9.24252 4.58555C9.28468 4.74847 9.37776 4.89367 9.5082 5Z" fill="#7A387B"/>
<path fill-rule="evenodd" clip-rule="evenodd" d="M9.1382 11.6C8.7882 9.59996 8.6782 9.59996 7.0282 9.69996C5.5482 9.77996 5.2982 9.55996 5.0282 10.84C4.9682 11.16 4.9482 11.69 4.8882 12.15C4.83924 12.4334 4.88492 12.7251 5.0182 12.98C5.4682 13.76 6.6382 13.74 7.4382 13.76C8.9082 13.8 9.2582 13 9.1382 11.6ZM8.0582 12.31C8.0582 12.61 8.0582 12.55 7.4582 12.63C5.2482 12.72 5.7582 12.75 5.8582 10.43C6.55632 10.5379 7.26178 10.5914 7.9682 10.59C8.08246 11.1558 8.11279 11.7353 8.0582 12.31Z" fill="#7A387B"/>
<path fill-rule="evenodd" clip-rule="evenodd" d="M8.8082 15.82C8.4982 15.16 7.6782 15.32 7.0282 15.36C5.5382 15.43 5.2982 15.22 5.0282 16.49C4.9682 16.81 4.9482 17.35 4.8882 17.81C4.83924 18.0934 4.88492 18.3851 5.0182 18.64C5.4682 19.41 6.6382 19.4 7.4382 19.42C9.5082 19.47 9.3582 17.77 8.8082 15.82ZM8.0582 18C8.0582 18.29 8.0582 18.23 7.4582 18.32C5.2582 18.4 5.7482 18.44 5.8582 16.12C6.55807 16.208 7.26282 16.2514 7.9682 16.25C8.08574 16.8255 8.11608 17.4154 8.0582 18Z" fill="#7A387B"/>
<path fill-rule="evenodd" clip-rule="evenodd" d="M15.3382 11.6C14.9882 9.59996 14.8782 9.59996 13.2282 9.69996C11.7482 9.77996 11.4982 9.55996 11.2282 10.84C11.1682 11.16 11.1382 11.69 11.0782 12.15C11.0323 12.4345 11.0815 12.7262 11.2182 12.98C11.6582 13.76 12.8282 13.74 13.6382 13.76C15.1082 13.8 15.4482 13 15.3382 11.6ZM14.2482 12.31C14.2482 12.61 14.2482 12.55 13.6582 12.63C11.4482 12.72 11.9482 12.75 12.0582 10.43C12.7563 10.5379 13.4618 10.5914 14.1682 10.59C14.2749 11.1568 14.3018 11.7357 14.2482 12.31Z" fill="#7A387B"/>
<path fill-rule="evenodd" clip-rule="evenodd" d="M14.9682 15.82C14.6582 15.16 13.8382 15.32 13.1982 15.36C11.7082 15.43 11.4682 15.22 11.1982 16.49C11.1382 16.81 11.1082 17.35 11.0482 17.81C11.0023 18.0945 11.0515 18.3862 11.1882 18.64C11.6282 19.41 12.7982 19.4 13.6082 19.42C15.7082 19.47 15.5482 17.77 14.9682 15.82ZM14.2482 18C14.2482 18.29 14.2482 18.23 13.6582 18.32C11.4482 18.4 11.9482 18.44 12.0582 16.12C12.7574 16.218 13.4622 16.2714 14.1682 16.28C14.2751 16.8468 14.3021 17.4257 14.2482 18Z" fill="#7A387B"/>
<path fill-rule="evenodd" clip-rule="evenodd" d="M21.5382 11.6C21.1782 9.59996 21.0682 9.59996 19.4182 9.69996C17.9382 9.77996 17.6882 9.55996 17.4182 10.84C17.3482 11.16 17.3282 11.69 17.2682 12.15C17.2192 12.4334 17.2649 12.7251 17.3982 12.98C17.8482 13.76 19.0182 13.74 19.8182 13.76C21.2982 13.8 21.6482 13 21.5382 11.6ZM20.4482 12.31C20.3982 12.61 20.4482 12.55 19.8482 12.63C17.6382 12.72 18.1482 12.75 18.2482 10.43C18.9463 10.5379 19.6518 10.5914 20.3582 10.59C20.4725 11.1558 20.5028 11.7353 20.4482 12.31Z" fill="#7A387B"/>
<path fill-rule="evenodd" clip-rule="evenodd" d="M21.1982 15.82C20.8882 15.16 20.0682 15.32 19.4182 15.36C17.9282 15.43 17.6882 15.22 17.4182 16.49C17.3482 16.81 17.3282 17.35 17.2682 17.81C17.2192 18.0934 17.2649 18.3851 17.3982 18.64C17.8482 19.41 19.0182 19.4 19.8182 19.42C21.8982 19.47 21.7482 17.77 21.1982 15.82ZM20.4482 18C20.3982 18.29 20.4482 18.23 19.8482 18.32C17.6482 18.4 18.1482 18.44 18.2482 16.12C18.9474 16.218 19.6522 16.2714 20.3582 16.28C20.4728 16.8457 20.5031 17.4253 20.4482 18Z" fill="#7A387B"/>
</g>
<defs>
<clipPath id="clip0_3013_15946">
<rect width="24" height="24" fill="white" transform="translate(0.968201)"/>
</clipPath>
</defs>
</svg>
