<svg width="25" height="24" viewBox="0 0 25 24" fill="none" xmlns="http://www.w3.org/2000/svg">
<g clip-path="url(#clip0_3013_15860)">
<path d="M7.8282 12.9999C7.84094 13.0689 7.87743 13.1312 7.93131 13.176C7.9852 13.2208 8.05309 13.2454 8.1232 13.2454C8.1933 13.2454 8.26119 13.2208 8.31508 13.176C8.36897 13.1312 8.40545 13.0689 8.4182 12.9999C8.45438 12.4032 8.61042 11.82 8.87699 11.2849C9.14356 10.7498 9.51521 10.274 9.96974 9.8857C10.4243 9.49744 10.9524 9.20473 11.5225 9.02506C12.0927 8.84538 12.6932 8.78242 13.2882 8.83994C14.1688 8.99974 14.9604 9.47668 15.5132 10.1806C16.066 10.8845 16.3417 11.7665 16.2882 12.6599C16.2797 12.7088 16.282 12.7589 16.295 12.8067C16.3079 12.8546 16.3311 12.899 16.363 12.937C16.395 12.9749 16.4348 13.0054 16.4797 13.0263C16.5247 13.0472 16.5736 13.058 16.6232 13.058C16.6728 13.058 16.7217 13.0472 16.7667 13.0263C16.8116 13.0054 16.8514 12.9749 16.8833 12.937C16.9153 12.899 16.9385 12.8546 16.9514 12.8067C16.9644 12.7589 16.9667 12.7088 16.9582 12.6599C17.0591 11.7375 16.8769 10.8062 16.4357 9.98986C15.9945 9.17352 15.3152 8.51084 14.4882 8.08994C15.4882 7.43994 16.6182 6.08994 16.3582 4.90994C16.2219 4.49006 15.9994 4.10327 15.7049 3.77437C15.4104 3.44546 15.0505 3.18169 14.6482 2.99994C12.8482 1.93994 13.0382 3.25994 13.5382 3.25994C13.8753 3.35604 14.1863 3.52695 14.4482 3.75994C15.0882 4.23994 15.7382 4.87994 15.3882 5.59994C15.3752 5.62874 15.3584 5.65565 15.3382 5.67994C15.2182 5.52994 14.8782 5.46994 14.5782 5.33994C13.8182 5.01994 13.8582 4.78994 13.7782 4.53994C13.2082 2.90994 11.3982 5.01994 10.1082 5.47994C10.0817 4.94772 10.2392 4.42258 10.5542 3.9928C10.8693 3.56302 11.3227 3.2548 11.8382 3.11994C11.8807 3.11948 11.9227 3.10998 11.9612 3.09208C11.9998 3.07418 12.0341 3.04828 12.0619 3.0161C12.0897 2.98392 12.1104 2.94619 12.1225 2.90543C12.1346 2.86467 12.1379 2.82179 12.1322 2.77965C12.1265 2.73751 12.1119 2.69706 12.0894 2.661C12.0668 2.62493 12.0369 2.59407 12.0015 2.57045C11.9661 2.54684 11.9262 2.53102 11.8842 2.52403C11.8423 2.51705 11.7993 2.51906 11.7582 2.52994C11.1483 2.64777 10.5864 2.94221 10.1424 3.37668C9.69838 3.81115 9.39182 4.3665 9.26078 4.97374C9.12975 5.58097 9.18002 6.21332 9.40534 6.79223C9.63067 7.37113 10.0211 7.87108 10.5282 8.22994C9.68983 8.70764 8.99625 9.40318 8.52094 10.2429C8.04562 11.0826 7.80626 12.0353 7.8282 12.9999ZM12.5782 5.33994C13.4782 4.85994 12.7882 5.51994 13.6482 5.86994C14.0725 6.03728 14.5159 6.15148 14.9682 6.20994C13.6982 7.90994 10.9682 8.27994 10.2182 6.14994C11.0466 6.01603 11.8452 5.73853 12.5782 5.32994V5.33994Z" fill="#998696"/>
<path d="M24.5982 5.47997C24.4682 4.31997 24.5282 1.97997 23.6882 1.32997C21.7682 -0.150029 17.5582 0.239971 14.8782 0.129971C11.3782 -2.92957e-05 7.7182 0.269971 4.2682 0.369971C4.17803 0.369971 4.09155 0.405792 4.02778 0.469554C3.96402 0.533317 3.9282 0.619797 3.9282 0.709971C3.9282 0.800144 3.96402 0.886625 4.02778 0.950387C4.09155 1.01415 4.17803 1.04997 4.2682 1.04997C7.7182 0.999971 11.3382 0.769971 14.8382 0.999971C17.3082 1.13997 21.5082 0.859971 23.0882 2.12997C23.4882 2.44997 23.4982 4.79997 23.5782 5.61997C23.9197 8.53195 23.9465 11.4722 23.6582 14.39C23.6102 15.3697 23.4594 16.3417 23.2082 17.29C20.7282 18.66 3.5482 19.62 2.5082 17.83C2.32126 17.2904 2.20365 16.7292 2.1582 16.16C2.5782 16.1 1.4882 16.22 6.7582 16.16C10.6582 16.29 16.4482 15.84 21.3882 16.09C21.7882 16.09 21.8182 15.44 21.3882 15.41C16.0382 14.85 12.0182 14.76 3.2382 15.5C2.83579 15.4613 2.43061 15.4613 2.0282 15.5C1.58825 11.9803 1.58825 8.41961 2.0282 4.89997C2.0282 4.38997 2.1182 3.89997 2.1882 3.35997C2.19647 2.73218 2.28041 2.10767 2.4382 1.49997C2.48153 1.4422 2.50256 1.37074 2.49745 1.2987C2.49233 1.22667 2.4614 1.1589 2.41033 1.10784C2.35927 1.05678 2.2915 1.02584 2.21947 1.02073C2.14743 1.01561 2.07597 1.03664 2.0182 1.07997C1.5982 1.49997 1.6782 2.82997 1.6082 3.29997C1.5382 3.76997 1.4682 4.29997 1.4082 4.86997C1.01583 7.67512 0.891934 10.5113 1.0382 13.34C1.0691 14.9972 1.29396 16.6451 1.7082 18.25C2.5182 19.72 7.6182 19.82 9.3482 19.84C8.7882 21.17 8.0882 22.39 8.7482 23.12C9.3 23.5257 9.97399 23.7303 10.6582 23.7C13.7782 23.95 14.0782 24.1 16.5882 23.38C16.7224 23.3184 16.8387 23.2236 16.9262 23.1047C17.0137 22.9857 17.0694 22.8464 17.0882 22.7C17.0643 21.6302 16.8369 20.5747 16.4182 19.59C18.5117 19.4509 20.5912 19.15 22.6382 18.69C24.0882 18.29 24.3282 17.9 24.5182 16.76C25.0944 13.024 25.1213 9.22378 24.5982 5.47997ZM16.1082 22.48C13.6682 22.96 13.1082 22.65 10.7082 22.59C8.9682 22.57 9.0682 22.85 9.9682 19.85C11.9682 19.85 13.9682 19.77 15.7982 19.63C16.0391 20.5701 16.1435 21.5401 16.1082 22.51V22.48Z" fill="#7A387B"/>
</g>
<defs>
<clipPath id="clip0_3013_15860">
<rect width="24" height="24" fill="white" transform="translate(0.968201)"/>
</clipPath>
</defs>
</svg>
