<svg width="25" height="24" viewBox="0 0 25 24" fill="none" xmlns="http://www.w3.org/2000/svg">
<g clip-path="url(#clip0_3013_15836)">
<path fill-rule="evenodd" clip-rule="evenodd" d="M10.1682 10.69L9.7482 10.63C9.7482 10.51 9.7982 10.39 9.8182 10.26C9.8382 10.13 9.8682 9.83001 9.8782 9.62001C9.8782 9.10001 9.8782 8.62001 9.8282 8.09001C9.84013 8.00249 9.81681 7.91381 9.76337 7.84349C9.70992 7.77316 9.63072 7.72695 9.5432 7.71501C9.45568 7.70308 9.367 7.7264 9.29668 7.77985C9.22635 7.8333 9.18013 7.91249 9.1682 8.00001C9.0082 8.49001 8.8182 8.95001 8.6882 9.46001C8.63286 9.67357 8.59276 9.89078 8.5682 10.11V10.44L8.2382 10.32C7.3682 9.83001 7.7582 10.18 8.1782 9.57001L9.2382 7.78001C9.29131 7.70926 9.31475 7.6206 9.30355 7.53284C9.29235 7.44508 9.24738 7.36515 9.1782 7.31001C9.11029 7.25636 9.02401 7.23153 8.93797 7.24089C8.85193 7.25024 8.773 7.29302 8.7182 7.36001L7.2582 8.85001C7.1082 9.01001 6.9382 9.16001 6.8082 9.31001C6.63431 9.49849 6.52259 9.73589 6.4882 9.99001C6.4882 10.35 6.5382 10.77 7.1782 11.14L7.8482 11.4L8.5282 11.5V12.3C8.52426 12.3486 8.52993 12.3975 8.54488 12.4439C8.55984 12.4903 8.58379 12.5333 8.61536 12.5704C8.64693 12.6076 8.68551 12.6381 8.72889 12.6604C8.77227 12.6826 8.81961 12.6961 8.8682 12.7C8.91679 12.704 8.96568 12.6983 9.01208 12.6833C9.05848 12.6684 9.10147 12.6444 9.13862 12.6129C9.17576 12.5813 9.20632 12.5427 9.22856 12.4993C9.25079 12.4559 9.26426 12.4086 9.2682 12.36C9.3382 12.05 9.4182 11.76 9.4882 11.46H10.0282C10.1275 11.4684 10.2261 11.4375 10.3027 11.3739C10.3794 11.3103 10.4281 11.2191 10.4382 11.12C10.4565 11.0274 10.4388 10.9313 10.3886 10.8514C10.3384 10.7715 10.2596 10.7137 10.1682 10.69Z" fill="#7A387B"/>
<path fill-rule="evenodd" clip-rule="evenodd" d="M19.0982 10.48H18.6782V10.11C18.6932 9.89357 18.6932 9.67639 18.6782 9.45998C18.6182 8.93998 18.5082 8.45998 18.4182 7.94998C18.4182 7.86246 18.3834 7.77852 18.3215 7.71663C18.2597 7.65474 18.1757 7.61998 18.0882 7.61998C18.0007 7.61998 17.9167 7.65474 17.8549 7.71663C17.793 7.77852 17.7582 7.86246 17.7582 7.94998C17.6682 8.45998 17.5382 8.94998 17.4782 9.46998C17.463 9.68638 17.463 9.90358 17.4782 10.12V10.45L17.1382 10.38C16.1982 10.01 16.6382 10.31 16.9782 9.63998L17.7982 7.72998C17.8216 7.6935 17.8373 7.65267 17.8444 7.60994C17.8515 7.56722 17.8499 7.52349 17.8396 7.48142C17.8293 7.43935 17.8106 7.3998 17.7845 7.36517C17.7585 7.33055 17.7258 7.30156 17.6882 7.27998C17.6132 7.23804 17.5251 7.22607 17.4416 7.24648C17.3581 7.26689 17.2854 7.31816 17.2382 7.38998L15.9682 8.99998C15.8382 9.17998 15.6882 9.34998 15.5782 9.51998C15.4378 9.73103 15.3582 9.97668 15.3482 10.23C15.3595 10.4727 15.448 10.7056 15.6009 10.8944C15.7538 11.0833 15.9631 11.2184 16.1982 11.28L16.8882 11.45H17.6082C17.6582 11.71 17.6982 11.97 17.7582 12.24C17.7582 12.3381 17.7972 12.4322 17.8666 12.5016C17.936 12.571 18.0301 12.61 18.1282 12.61C18.2263 12.61 18.3204 12.571 18.3898 12.5016C18.4592 12.4322 18.4982 12.3381 18.4982 12.24C18.4982 11.93 18.5582 11.62 18.5982 11.32L19.1282 11.22C19.1772 11.2201 19.2257 11.2101 19.2707 11.1908C19.3158 11.1715 19.3564 11.1431 19.3901 11.1076C19.4238 11.072 19.4499 11.0299 19.4668 10.9839C19.4836 10.9379 19.4909 10.8889 19.4882 10.84C19.4869 10.7905 19.4758 10.7418 19.4553 10.6967C19.4349 10.6516 19.4056 10.6111 19.3693 10.5776C19.3329 10.544 19.2902 10.5181 19.2436 10.5013C19.1971 10.4845 19.1476 10.4773 19.0982 10.48Z" fill="#7A387B"/>
<path fill-rule="evenodd" clip-rule="evenodd" d="M14.1582 8.54C13.4482 8.04 13.0482 8.18 12.3082 8.54C12.0194 8.69467 11.7644 8.90546 11.5582 9.16C11.2632 9.49898 11.0694 9.91396 10.9987 10.3577C10.9279 10.8014 10.9832 11.2561 11.1582 11.67C11.3058 11.9858 11.5449 12.25 11.8445 12.4283C12.144 12.6066 12.4902 12.6908 12.8382 12.67C13.2149 12.6466 13.5793 12.5267 13.8963 12.3218C14.2133 12.1169 14.4722 11.8339 14.6482 11.5C14.8197 11.1995 14.9285 10.8673 14.9681 10.5236C15.0076 10.1798 14.977 9.83161 14.8782 9.5C14.7421 9.11385 14.4908 8.77876 14.1582 8.54ZM13.6382 10.85C13.5547 10.9982 13.4364 11.1238 13.2936 11.2161C13.1507 11.3084 12.9876 11.3647 12.8182 11.38C12.6644 11.3998 12.5086 11.363 12.3799 11.2766C12.2511 11.1901 12.1581 11.0599 12.1182 10.91C12.0471 10.7082 12.0219 10.4931 12.0444 10.2803C12.0669 10.0676 12.1365 9.86249 12.2482 9.68C13.1082 8.34 13.8582 9.3 13.9482 9.73C13.9973 10.1297 13.8858 10.5325 13.6382 10.85Z" fill="#7A387B"/>
<path fill-rule="evenodd" clip-rule="evenodd" d="M22.6982 8.88C22.6178 8.67255 22.5208 8.4719 22.4082 8.28C22.3182 8.13 22.1982 7.99 22.0882 7.84C22.1513 7.84073 22.2134 7.82438 22.268 7.7927C22.3226 7.76101 22.3676 7.71516 22.3982 7.66C22.6365 7.1691 22.7719 6.63463 22.796 6.08947C22.8201 5.54431 22.7323 4.99999 22.5382 4.49C22.3664 3.96922 22.1059 3.48206 21.7682 3.05C21.3991 2.59849 20.9301 2.23902 20.3982 2C19.7597 1.75768 19.081 1.63891 18.3982 1.65C17.4706 1.66936 16.5521 1.83819 15.6782 2.15C15.6782 2.07 15.6082 1.98 15.5582 1.9C14.9676 1.17437 14.1894 0.62446 13.3082 0.309996C12.6665 0.0836105 11.9883 -0.0215087 11.3082 -4.22681e-06C10.6505 0.0330234 10.0054 0.192605 9.4082 0.469996C8.8114 0.738787 8.28242 1.13792 7.86017 1.63804C7.43792 2.13817 7.13313 2.72657 6.9682 3.36C6.50313 3.31049 6.03301 3.34093 5.5782 3.45C4.76501 3.75354 4.06615 4.30214 3.5782 5.02C3.40576 5.2846 3.29315 5.58365 3.24824 5.89627C3.20333 6.2089 3.22721 6.52755 3.3182 6.83C3.39056 7.04956 3.49868 7.25566 3.6382 7.44C3.7982 7.65 3.9782 7.84 4.1382 8.02C4.0182 8.12 3.8882 8.21 3.7782 8.32C3.66128 8.43606 3.56039 8.56722 3.4782 8.71C3.2183 9.10188 3.06822 9.55629 3.0436 10.0259C3.01898 10.4955 3.12071 10.9631 3.3382 11.38C4.04711 12.511 5.09793 13.3867 6.3382 13.88C6.92173 14.1618 7.53126 14.3862 8.1582 14.55C8.85365 14.7487 9.56201 14.899 10.2782 15L11.0882 15.11C12.2703 15.2391 13.4611 15.2692 14.6482 15.2L15.5182 15.13C16.8549 14.9781 18.164 14.6416 19.4082 14.13C20.7049 13.6607 21.8093 12.7744 22.5482 11.61C22.7713 11.1936 22.9004 10.7333 22.9263 10.2617C22.9522 9.78996 22.8744 9.31833 22.6982 8.88ZM21.4182 11.63C20.7412 12.3354 19.8992 12.8613 18.9682 13.16C17.7091 13.613 16.3932 13.889 15.0582 13.98C13.7079 14.0775 12.3512 14.0407 11.0082 13.87C10.2631 13.798 9.52208 13.6878 8.7882 13.54C8.07033 13.3995 7.36724 13.192 6.6882 12.92C5.65255 12.558 4.75232 11.8881 4.1082 11C3.94046 10.7115 3.85209 10.3837 3.85209 10.05C3.85209 9.71627 3.94046 9.3885 4.1082 9.1C4.17255 8.98807 4.24974 8.88403 4.3382 8.79L4.6582 8.5C4.84092 8.36369 5.03496 8.24325 5.2382 8.14C5.47541 8.03142 5.71923 7.9379 5.9682 7.86C6.05024 7.83059 6.11732 7.76992 6.15479 7.69123C6.19226 7.61254 6.19708 7.52223 6.1682 7.44C6.13683 7.35978 6.07535 7.295 5.99688 7.2595C5.9184 7.224 5.82916 7.22059 5.7482 7.25C5.482 7.32506 5.22136 7.41862 4.9682 7.53L4.6682 7.7C4.5382 7.5 4.3982 7.29 4.2782 7.07C4.22187 6.94286 4.1848 6.80805 4.1682 6.67C4.15623 6.48752 4.18203 6.30453 4.24397 6.13247C4.30591 5.96041 4.40267 5.80298 4.5282 5.67C4.91659 5.18494 5.4326 4.81785 6.0182 4.61C6.4521 4.42133 6.92859 4.35227 7.3982 4.41C7.60425 4.41275 7.80577 4.47082 7.98169 4.57813C8.1576 4.68544 8.30146 4.83805 8.3982 5.02C8.42818 5.11493 8.49422 5.1943 8.58211 5.24105C8.67 5.2878 8.77273 5.2982 8.8682 5.27C8.91445 5.25734 8.95771 5.23557 8.99544 5.20596C9.03316 5.17636 9.06459 5.13951 9.08788 5.09759C9.11117 5.05567 9.12584 5.00952 9.13105 4.96185C9.13626 4.91418 9.13189 4.86595 9.1182 4.82C9.04211 4.53637 8.89741 4.27583 8.69686 4.06133C8.49631 3.84683 8.24607 3.68496 7.9682 3.59C7.8582 3.59 7.7182 3.59 7.5982 3.51C7.80891 3.03718 8.11751 2.61444 8.50364 2.26969C8.88977 1.92493 9.34463 1.666 9.8382 1.51C10.3292 1.3339 10.8466 1.2426 11.3682 1.24C11.9087 1.20522 12.4509 1.26961 12.9682 1.43C13.5726 1.57226 14.1412 1.8378 14.6382 2.21C14.8637 2.38769 15.0483 2.61184 15.1794 2.86722C15.3105 3.1226 15.3852 3.40321 15.3982 3.69C15.4007 3.78733 15.4405 3.87998 15.5094 3.94882C15.5782 4.01767 15.6709 4.05747 15.7682 4.06C15.8168 4.06133 15.8652 4.05307 15.9106 4.03569C15.956 4.01832 15.9975 3.99217 16.0328 3.95874C16.0681 3.9253 16.0964 3.88525 16.1162 3.84085C16.136 3.79645 16.1469 3.74859 16.1482 3.7C16.1723 3.38649 16.1384 3.07122 16.0482 2.77C16.6809 2.65173 17.3253 2.6081 17.9682 2.64C18.6409 2.65718 19.3022 2.8174 19.9082 3.11C20.268 3.2776 20.5858 3.52361 20.8382 3.83C21.1162 4.12975 21.3517 4.46622 21.5382 4.83C21.736 5.20502 21.8573 5.61561 21.8951 6.03792C21.9329 6.46022 21.8863 6.88583 21.7582 7.29C21.7582 7.29 21.7582 7.36 21.7582 7.39C21.6996 7.35368 21.6321 7.33444 21.5632 7.33444C21.4943 7.33444 21.4268 7.35368 21.3682 7.39C21.3285 7.41763 21.295 7.4532 21.2697 7.49445C21.2444 7.53569 21.228 7.58173 21.2214 7.62965C21.2148 7.67757 21.2183 7.72634 21.2315 7.77287C21.2447 7.8194 21.2674 7.86269 21.2982 7.9C21.4382 8.1 21.5782 8.29 21.6982 8.48C21.8134 8.66905 21.9073 8.87028 21.9782 9.08C22.136 9.51444 22.1671 9.98475 22.0679 10.4362C21.9688 10.8876 21.7435 11.3016 21.4182 11.63Z" fill="#998696"/>
<path fill-rule="evenodd" clip-rule="evenodd" d="M14.0682 16.47C14.0427 16.565 14.0427 16.665 14.0682 16.76C14.1015 16.8679 14.1725 16.9601 14.2682 17.02C14.4467 17.1248 14.6384 17.2055 14.8382 17.26C15.6382 17.53 16.6582 17.05 15.9382 18.21C15.6749 18.6083 15.3735 18.98 15.0382 19.32C14.3182 20.17 13.5482 21.05 12.7282 21.86C12.3982 22.17 12.0482 22.44 11.7282 22.72C11.9382 22.32 12.1382 21.93 12.3382 21.52C12.5382 21.11 12.7682 20.6 12.9482 20.13C13.0851 19.7839 13.1889 19.4256 13.2582 19.06C13.3206 18.7254 13.293 18.3803 13.1782 18.06C13.1123 17.9397 13.0154 17.8391 12.8976 17.7688C12.7798 17.6985 12.6454 17.6609 12.5082 17.66H11.5782H9.8682C10.0082 17.47 10.1782 17.27 10.2082 17.21L10.6582 16.3L10.9182 15.84C11.1482 15.44 10.0882 15.44 9.9782 15.84L9.6882 16.23L9.3582 16.76C9.14074 17.0375 8.94037 17.3281 8.7582 17.63C8.66128 17.8176 8.62628 18.0312 8.6582 18.24C8.70317 18.396 8.80249 18.5308 8.9382 18.62C9.18806 18.7454 9.45383 18.8362 9.7282 18.89C9.98628 18.9348 10.2467 18.9648 10.5082 18.98H11.5982L12.1082 18.87C12.1131 18.9299 12.1131 18.9901 12.1082 19.05C12.0734 19.3003 12.0199 19.5477 11.9482 19.79C11.8282 20.25 11.6782 20.7 11.5182 21.14C11.2582 21.83 10.9682 22.51 10.7182 23.2C10.6182 23.43 11.0782 24.2 11.4882 23.95C12.352 23.4453 13.1657 22.8593 13.9182 22.2C14.6682 21.55 15.3782 20.85 16.0482 20.2C16.4492 19.8042 16.8048 19.3648 17.1082 18.89C17.3523 18.4968 17.4805 18.0428 17.4782 17.58C17.4703 17.4186 17.4235 17.2615 17.3416 17.1222C17.2597 16.9828 17.1453 16.8654 17.0082 16.78C16.4305 16.551 15.8189 16.4192 15.1982 16.39V16.07C15.2482 15.72 14.7582 15.67 14.4282 16.02C14.299 16.1623 14.1787 16.3126 14.0682 16.47Z" fill="#7A387B"/>
</g>
<defs>
<clipPath id="clip0_3013_15836">
<rect width="24" height="24" fill="white" transform="translate(0.968201)"/>
</clipPath>
</defs>
</svg>
