<svg width="25" height="24" viewBox="0 0 25 24" fill="none" xmlns="http://www.w3.org/2000/svg">
<g clip-path="url(#clip0_3013_15853)">
<path fill-rule="evenodd" clip-rule="evenodd" d="M11.2982 13.29C11.3229 13.4905 11.3901 13.6834 11.4953 13.8558C11.6005 14.0283 11.7412 14.1763 11.9082 14.29C12.2215 14.4997 12.5927 14.6057 12.9695 14.5932C13.3463 14.5806 13.7096 14.4501 14.0082 14.22C14.1654 14.0884 14.295 13.927 14.3894 13.7451C14.4838 13.5631 14.5412 13.3643 14.5582 13.16C14.5575 12.9438 14.5139 12.7299 14.4297 12.5307C14.3456 12.3316 14.2227 12.1512 14.0682 12C13.9022 11.8339 13.7037 11.7038 13.4852 11.6178C13.2667 11.5318 13.0329 11.4917 12.7982 11.5C12.5645 11.5068 12.3353 11.5661 12.1276 11.6734C11.9199 11.7807 11.739 11.9333 11.5982 12.12C11.3548 12.4585 11.2477 12.8761 11.2982 13.29ZM12.5482 12.84C12.6365 12.7621 12.7504 12.7194 12.8682 12.72C13.0023 12.7116 13.1345 12.7545 13.2382 12.84C13.3582 12.94 13.4782 13.04 13.4882 13.18C13.4996 13.2554 13.4957 13.3323 13.4768 13.4061C13.4579 13.48 13.4244 13.5493 13.3782 13.61C13.3309 13.6899 13.2648 13.757 13.1857 13.8055C13.1065 13.854 13.0167 13.8825 12.9241 13.8884C12.8314 13.8943 12.7387 13.8775 12.654 13.8394C12.5694 13.8014 12.4953 13.7432 12.4382 13.67C12.3941 13.6103 12.3625 13.5424 12.3453 13.4702C12.3281 13.398 12.3257 13.3231 12.3382 13.25C12.3628 13.0944 12.4364 12.9508 12.5482 12.84Z" fill="#7A387B"/>
<path fill-rule="evenodd" clip-rule="evenodd" d="M24.8582 12.05V10.34L24.7682 8.55998L24.6682 6.24997C24.6753 5.43777 24.6286 4.62599 24.5282 3.81997C24.4521 3.37411 24.2589 2.95651 23.9682 2.60997C23.822 2.46376 23.6388 2.36006 23.4382 2.30997C23.1082 2.21997 22.5682 2.17997 22.4382 2.13997C21.8471 2.00924 21.2496 1.90911 20.6482 1.83997C19.7682 1.73997 18.8682 1.68997 17.9882 1.65997C16.2482 1.59997 14.5182 1.55997 12.7982 1.58997C11.0782 1.61997 9.3382 1.70997 7.5982 1.89997L2.8982 2.66997C2.81843 2.68957 2.74845 2.73739 2.7012 2.80458C2.65395 2.87177 2.63262 2.95379 2.64116 3.03549C2.64969 3.11718 2.68751 3.19303 2.74763 3.249C2.80775 3.30497 2.8861 3.33729 2.9682 3.33997L7.6782 2.72997C9.0482 2.64997 10.4182 2.61997 11.7782 2.62997C13.8282 2.62997 15.8782 2.74997 17.9382 2.88997C18.7882 2.88997 19.6582 2.98997 20.5082 3.09997C21.0682 3.16997 21.6182 3.25997 22.1582 3.37997C22.6982 3.49997 23.1582 2.95997 23.3682 4.37997C23.4482 5.07997 23.4182 5.85997 23.4382 6.37997L23.5682 8.65997L23.7082 10.46L23.7982 12.12C23.9343 13.1675 23.9911 14.2239 23.9682 15.28C23.9425 15.9101 23.7106 16.5144 23.3082 17C22.7767 17.3102 22.1603 17.4433 21.5482 17.38C20.4282 17.43 19.1182 17.32 18.3282 17.29C18.2816 17.2727 18.2321 17.2649 18.1825 17.2672C18.1328 17.2694 18.0842 17.2817 18.0394 17.3031C17.9946 17.3246 17.9546 17.3548 17.9217 17.3921C17.8889 17.4294 17.8639 17.4728 17.8482 17.52C17.698 17.863 17.5277 18.1969 17.3382 18.52C17.1557 18.8391 16.9484 19.1434 16.7182 19.43L15.9182 20.28L15.1982 20.84L14.8082 21.05L14.6282 21.13C14.6334 21.0567 14.6334 20.9832 14.6282 20.91C14.6062 20.637 14.5628 20.3661 14.4982 20.1C14.3327 19.4677 14.2025 18.8267 14.1082 18.18C14.0582 17.86 14.0382 17.54 14.0182 17.23C14.0492 17.1965 14.0732 17.1571 14.0886 17.1141C14.1041 17.0712 14.1107 17.0256 14.1082 16.98C14.1082 16.29 13.3082 16.78 8.3082 16.64C7.12116 16.6149 5.93623 16.5281 4.7582 16.38L2.7582 16.03C2.63959 15.9717 2.5157 15.9248 2.3882 15.89V15.63V14.45V8.81997C2.3882 7.73997 2.2682 6.58997 2.3082 5.45997C2.27007 4.73738 2.31368 4.01278 2.4382 3.29997C2.45035 3.25795 2.45403 3.21393 2.44901 3.17048C2.444 3.12702 2.4304 3.085 2.409 3.04684C2.38759 3.00869 2.35882 2.97518 2.32435 2.94825C2.28988 2.92132 2.25039 2.90151 2.2082 2.88997C2.1247 2.86766 2.03583 2.87799 1.95967 2.91886C1.88351 2.95972 1.82577 3.02806 1.7982 3.10997C1.56977 3.85578 1.41897 4.62319 1.3482 5.39997C1.2482 6.54997 1.2482 7.71997 1.2082 8.80998C1.1682 9.89997 1.0582 11.06 0.968198 12.19V14.51C0.95723 15.0079 0.983973 15.506 1.0482 16C1.07529 16.3009 1.17853 16.59 1.3482 16.84C1.44783 16.9891 1.59637 17.0987 1.7682 17.15C1.98142 17.2114 2.1986 17.2582 2.4182 17.29L4.5782 17.6C5.7782 17.7 7.0182 17.71 8.2582 17.69C9.9382 17.69 11.6182 17.53 13.2582 17.41C13.2383 17.8064 13.2383 18.2036 13.2582 18.6C13.2582 19.18 13.3182 19.74 13.3682 20.31C13.3682 20.69 13.3682 21.04 13.4282 21.31C13.4538 21.5477 13.5324 21.7766 13.6582 21.98C13.9082 22.35 14.3582 22.64 15.3282 22.22L15.8982 21.9C16.0365 21.8113 16.167 21.7109 16.2882 21.6C16.4564 21.4549 16.6104 21.2942 16.7482 21.12L17.5182 20C17.7371 19.6439 17.9309 19.273 18.0982 18.89C18.2082 18.62 18.3082 18.34 18.3982 18.06C19.6375 18.1832 20.8828 18.2366 22.1282 18.22C22.7871 18.2457 23.4353 18.0484 23.9682 17.66C24.5507 17.0395 24.9036 16.2386 24.9682 15.39C25.024 14.2755 24.9872 13.1583 24.8582 12.05Z" fill="#998696"/>
<path fill-rule="evenodd" clip-rule="evenodd" d="M7.4982 7.52999C7.99689 7.08637 8.52112 6.67232 9.0682 6.28999C9.10575 6.2684 9.13853 6.23942 9.16455 6.20479C9.19057 6.17016 9.20928 6.13062 9.21957 6.08854C9.22985 6.04647 9.23149 6.00275 9.22438 5.96002C9.21727 5.9173 9.20156 5.87646 9.1782 5.83999C9.15743 5.80297 9.12951 5.77046 9.09605 5.74434C9.06259 5.71822 9.02428 5.69902 8.98333 5.68785C8.94238 5.67668 8.89962 5.67377 8.85754 5.67929C8.81545 5.68481 8.77489 5.69864 8.7382 5.71999C8.10788 6.01471 7.49668 6.3487 6.9082 6.71999C6.32075 7.10937 5.75954 7.53696 5.2282 7.99999C4.94142 8.22763 4.67077 8.47489 4.4182 8.73999C4.27827 8.89586 4.19083 9.09174 4.1682 9.29999C4.15011 9.47894 4.16824 9.65971 4.2215 9.83151C4.27476 10.0033 4.36206 10.1626 4.4782 10.3C4.83242 10.6966 5.24763 11.0342 5.7082 11.3C5.94384 11.4439 6.18758 11.5741 6.4382 11.69C6.6882 11.81 6.9382 11.92 7.1982 12.02L8.1982 12.34C8.5282 12.44 8.8582 12.52 9.1982 12.59C9.28896 12.5987 9.37982 12.5744 9.45419 12.5217C9.52856 12.4689 9.58148 12.3912 9.60331 12.3027C9.62514 12.2142 9.61441 12.1207 9.57308 12.0395C9.53176 11.9582 9.46259 11.8945 9.3782 11.86C9.0682 11.76 8.7782 11.65 8.4882 11.53L7.6282 11.12L6.3682 10.32C6.2382 10.22 6.0282 10.06 5.8182 9.87999C5.1182 9.28999 5.5682 9.45999 6.1182 8.93999C6.55023 8.4434 7.01102 7.9726 7.4982 7.52999Z" fill="#7A387B"/>
<path fill-rule="evenodd" clip-rule="evenodd" d="M19.9682 8.71997L19.3882 9.29997L18.0082 10.4L15.8582 11.92C15.7715 11.9685 15.7072 12.049 15.6792 12.1444C15.6511 12.2397 15.6616 12.3422 15.7082 12.43C15.7312 12.4739 15.7629 12.5127 15.8012 12.5442C15.8396 12.5756 15.8839 12.599 15.9314 12.613C15.979 12.627 16.0289 12.6313 16.0782 12.6256C16.1274 12.6199 16.1751 12.6044 16.2182 12.58L18.5682 11.26L20.1482 10.26L20.9682 9.56997L21.4782 8.87997C21.6133 8.67335 21.6852 8.43184 21.6852 8.18497C21.6852 7.93811 21.6133 7.69659 21.4782 7.48997C21.3057 7.23612 21.0571 7.04354 20.7682 6.93997C20.3882 6.78997 19.8882 6.71997 19.4882 6.59997L16.1682 5.70997C16.0847 5.68212 15.9935 5.6886 15.9147 5.72799C15.8359 5.76737 15.776 5.83643 15.7482 5.91997C15.7204 6.00351 15.7268 6.0947 15.7662 6.17346C15.8056 6.25223 15.8747 6.31212 15.9582 6.33997L19.0782 7.64997C20.6082 8.27997 20.5882 7.87997 19.9682 8.71997Z" fill="#7A387B"/>
<path fill-rule="evenodd" clip-rule="evenodd" d="M12.7082 10.83C12.8072 10.8223 12.8993 10.7761 12.9648 10.7013C13.0302 10.6266 13.0637 10.5292 13.0582 10.43C13.1082 9.76997 13.1882 9.07997 13.2682 8.35997C13.2682 8.06997 13.3282 7.76997 13.3482 7.47997C13.3682 7.18997 13.3482 6.88997 13.3482 6.59997C13.3482 5.88997 13.3482 5.19997 13.4382 4.59997C13.45 4.55794 13.4534 4.514 13.4483 4.47066C13.4431 4.42731 13.4295 4.3854 13.4081 4.34733C13.3868 4.30926 13.3581 4.27577 13.3238 4.24877C13.2895 4.22177 13.2502 4.20179 13.2082 4.18997C13.1662 4.17815 13.1222 4.17472 13.0789 4.17988C13.0355 4.18505 12.9936 4.1987 12.9556 4.22005C12.9175 4.24141 12.884 4.27006 12.857 4.30436C12.83 4.33866 12.81 4.37794 12.7982 4.41997C12.5112 5.09712 12.2902 5.80038 12.1382 6.51997C12.0862 6.8246 12.0495 7.13165 12.0282 7.43997V8.36997C12.0282 9.11997 12.1682 9.83997 12.2582 10.52C12.2666 10.5703 12.285 10.6184 12.3124 10.6614C12.3397 10.7044 12.3755 10.7415 12.4174 10.7704C12.4594 10.7993 12.5068 10.8195 12.5568 10.8297C12.6067 10.84 12.6582 10.8401 12.7082 10.83Z" fill="#7A387B"/>
</g>
<defs>
<clipPath id="clip0_3013_15853">
<rect width="24" height="24" fill="white" transform="translate(0.968201)"/>
</clipPath>
</defs>
</svg>
