<svg width="25" height="24" viewBox="0 0 25 24" fill="none" xmlns="http://www.w3.org/2000/svg">
<g clip-path="url(#clip0_3013_15843)">
<path fill-rule="evenodd" clip-rule="evenodd" d="M13.3382 18.73C13.4527 18.7056 13.5605 18.6569 13.6546 18.5873C13.7487 18.5176 13.8268 18.4287 13.8836 18.3264C13.9405 18.2241 13.9747 18.1108 13.9841 17.9941C13.9936 17.8775 13.9779 17.7601 13.9382 17.65C13.8705 17.5002 13.7608 17.3732 13.6223 17.2844C13.4839 17.1957 13.3226 17.149 13.1582 17.15C12.9528 17.1488 12.7543 17.2238 12.601 17.3605C12.4477 17.4972 12.3505 17.6859 12.3282 17.89C12.3309 18.0146 12.3602 18.137 12.4143 18.2492C12.4684 18.3614 12.5459 18.4607 12.6417 18.5403C12.7374 18.6199 12.8492 18.6781 12.9693 18.7108C13.0895 18.7436 13.2153 18.7501 13.3382 18.73Z" fill="#998696"/>
<path fill-rule="evenodd" clip-rule="evenodd" d="M5.8882 5.25002C5.68017 5.24882 5.4791 5.32486 5.32392 5.46342C5.16873 5.60197 5.07049 5.79318 5.0482 6.00002C5.05246 6.12269 5.08262 6.24307 5.13671 6.35325C5.1908 6.46343 5.26759 6.56092 5.36204 6.63931C5.45649 6.7177 5.56645 6.77522 5.68471 6.80809C5.80297 6.84096 5.92685 6.84843 6.0482 6.83002C6.16528 6.80958 6.27642 6.76363 6.37375 6.69542C6.47108 6.62722 6.55221 6.53843 6.61138 6.43536C6.67055 6.33229 6.70631 6.21746 6.71613 6.09902C6.72595 5.98058 6.70959 5.86143 6.6682 5.75002C6.60049 5.60015 6.49076 5.47315 6.35231 5.3844C6.21387 5.29565 6.05265 5.24897 5.8882 5.25002Z" fill="#7A387B"/>
<path fill-rule="evenodd" clip-rule="evenodd" d="M8.4782 5.25001C8.27126 5.24905 8.07141 5.32543 7.91787 5.46417C7.76432 5.60292 7.66815 5.79402 7.6482 6.00001C7.65246 6.12268 7.68262 6.24306 7.73671 6.35324C7.7908 6.46342 7.86759 6.56091 7.96204 6.6393C8.05648 6.7177 8.16645 6.77522 8.28471 6.80808C8.40297 6.84095 8.52685 6.84842 8.6482 6.83001C8.76437 6.8087 8.87439 6.76192 8.97034 6.69305C9.06629 6.62417 9.14581 6.53491 9.20317 6.43166C9.26053 6.32841 9.29431 6.21374 9.3021 6.09588C9.30989 5.97803 9.29148 5.85991 9.2482 5.75001C9.18119 5.6017 9.07301 5.47574 8.93651 5.38711C8.80002 5.29847 8.64095 5.25089 8.4782 5.25001Z" fill="#7A387B"/>
<path fill-rule="evenodd" clip-rule="evenodd" d="M12.8082 16.25C12.8503 16.2463 12.8912 16.2342 12.9286 16.2146C12.966 16.1949 12.9992 16.168 13.0261 16.1355C13.0531 16.1029 13.0734 16.0654 13.0857 16.025C13.0981 15.9846 13.1023 15.9421 13.0982 15.9C13.0982 15.12 13.2082 14.34 13.2182 13.55C13.2182 13.09 13.2182 12.63 13.1682 12.17C13.1284 11.484 13.1284 10.7961 13.1682 10.11C13.1767 10.0634 13.176 10.0156 13.1661 9.96924C13.1561 9.92291 13.1371 9.87898 13.1102 9.83998C13.0833 9.80098 13.0489 9.76767 13.0091 9.74194C12.9693 9.71622 12.9248 9.69858 12.8782 9.69004C12.8316 9.68151 12.7837 9.68224 12.7374 9.69219C12.6911 9.70215 12.6471 9.72113 12.6081 9.74806C12.5691 9.77499 12.5358 9.80934 12.5101 9.84914C12.4844 9.88894 12.4667 9.93343 12.4582 9.98004C12.2644 10.6706 12.1306 11.3765 12.0582 12.09V13C12.0616 13.3013 12.085 13.6019 12.1282 13.9C12.2182 14.6 12.3982 15.27 12.5382 15.9C12.5295 15.9819 12.5528 16.064 12.6031 16.1292C12.6533 16.1943 12.7268 16.2376 12.8082 16.25Z" fill="#998696"/>
<path fill-rule="evenodd" clip-rule="evenodd" d="M8.7682 19.53C8.67141 19.4877 8.571 19.4543 8.4682 19.43C8.36206 19.4151 8.25435 19.4151 8.1482 19.43C8.11167 19.4255 8.07473 19.4255 8.0382 19.43C8.04794 19.2935 8.04794 19.1565 8.0382 19.02C7.99037 18.8636 7.93361 18.71 7.8682 18.56H8.0282C8.10378 18.5494 8.17771 18.5293 8.2482 18.5C8.31454 18.4727 8.37816 18.4393 8.4382 18.4C9.1482 17.95 9.2182 17.9 9.1882 17.67C9.1582 17.44 9.0282 17.25 8.0882 17.31C7.99176 17.3108 7.89649 17.3312 7.8082 17.37C7.72135 17.3993 7.64016 17.4433 7.5682 17.5C7.51697 17.5426 7.47305 17.5933 7.4382 17.65C7.26412 17.4108 7.06276 17.1926 6.8382 17C7.15454 16.7152 7.37174 16.3368 7.4582 15.92C7.50567 15.632 7.48615 15.337 7.40118 15.0578C7.3162 14.7786 7.16805 14.5227 6.9682 14.31C6.84709 14.2031 6.71264 14.1124 6.5682 14.04C6.6004 14.0323 6.63091 14.0188 6.6582 14L6.7182 13.93V13.8C6.78843 13.7309 6.87413 13.6794 6.9682 13.65C7.01495 13.6601 7.06327 13.6605 7.11019 13.6512C7.1571 13.6419 7.20161 13.6231 7.24097 13.5959C7.28033 13.5687 7.3137 13.5338 7.33902 13.4932C7.36434 13.4526 7.38108 13.4073 7.3882 13.36C7.4582 12.93 6.7282 12.64 6.0482 12.93C5.9586 12.9758 5.8801 13.0407 5.8182 13.12C5.72164 13.2169 5.65261 13.3377 5.6182 13.47C5.6182 13.47 5.6182 13.56 5.6182 13.61C5.40366 13.5714 5.18619 13.5513 4.9682 13.55C4.8682 13.55 4.7782 13.55 4.6782 13.61C4.5782 13.67 4.6782 13.52 4.6782 13.48C4.64348 13.375 4.58535 13.2793 4.5082 13.2C4.4555 13.1419 4.39492 13.0914 4.3282 13.05C4.0382 12.91 3.1282 12.68 3.0382 13.2C3.02364 13.2953 3.04684 13.3925 3.10288 13.471C3.15891 13.5494 3.24334 13.6029 3.3382 13.62C3.4982 13.7 3.4982 13.87 3.5882 13.99C3.31683 14.1407 3.07603 14.3408 2.8782 14.58C2.68047 14.8133 2.55372 15.0983 2.51295 15.4014C2.47219 15.7044 2.51913 16.0128 2.6482 16.29C2.77202 16.5297 2.94305 16.7418 3.15099 16.9137C3.35894 17.0855 3.5995 17.2136 3.8582 17.29C4.01488 17.3377 4.17553 17.3711 4.3382 17.39C4.49137 17.4 4.64503 17.4 4.7982 17.39C4.86738 17.3661 4.92701 17.3205 4.9682 17.26C4.99262 17.3346 5.04139 17.3988 5.10668 17.4423C5.17196 17.4858 5.24998 17.5062 5.3282 17.5C5.57761 17.5003 5.82613 17.4701 6.0682 17.41C6.13681 17.3807 6.2036 17.3473 6.2682 17.31C6.6959 17.8306 6.94171 18.4768 6.9682 19.15C6.97509 19.4564 6.94146 19.7624 6.8682 20.06C6.79641 20.349 6.67457 20.6231 6.5082 20.87C6.32194 21.1362 6.09598 21.3723 5.8382 21.57C5.55026 21.7754 5.24967 21.9624 4.9382 22.13C4.56502 21.8128 4.22949 21.4538 3.9382 21.06C3.70367 20.7523 3.50881 20.4164 3.3582 20.06C3.19123 19.6835 3.12572 19.2697 3.1682 18.86C3.1682 18.86 3.1682 18.86 3.2282 18.79C3.23791 18.7405 3.23791 18.6895 3.2282 18.64C3.21374 18.5305 3.21374 18.4195 3.2282 18.31C3.27603 18.2262 3.2892 18.127 3.26491 18.0336C3.24063 17.9402 3.1808 17.8599 3.0982 17.81C3.01589 17.7627 2.91821 17.7498 2.82644 17.7741C2.73467 17.7985 2.65623 17.8581 2.6082 17.94C2.6082 18 2.5482 18.05 2.5182 18.1C2.48302 18.0744 2.44628 18.051 2.4082 18.03C2.31919 18.0111 2.22721 18.0111 2.1382 18.03C2.0455 18.0147 1.95091 18.0147 1.8582 18.03C0.988202 18.31 0.948202 18.58 0.988202 18.75C1.0282 18.92 0.928202 19.06 2.0982 19.21C2.04338 19.5176 2.04338 19.8324 2.0982 20.14C2.02552 20.1815 1.95833 20.2318 1.8982 20.29C1.1482 20.98 1.3682 21.2 1.4182 21.29C1.4682 21.38 1.6482 21.48 2.4182 21.29H2.5682C2.70394 21.4998 2.85786 21.6972 3.0282 21.88C3.07384 21.9065 3.11731 21.9366 3.1582 21.97C3.0694 22.0126 2.99093 22.0741 2.9282 22.15C2.86002 22.2212 2.80273 22.3021 2.7582 22.39C2.3182 23.23 2.4482 23.39 2.6082 23.54C2.7682 23.69 3.7982 23 3.8082 23C3.87006 22.9444 3.92391 22.8804 3.9682 22.81C4.01304 22.734 4.04991 22.6536 4.0782 22.57C4.34656 22.7182 4.62769 22.8421 4.9182 22.94C4.99519 22.9739 5.08242 22.9761 5.16102 22.9462C5.23962 22.9162 5.30327 22.8565 5.3382 22.78C5.3382 22.78 5.3382 22.78 5.3382 22.73C5.66576 22.6201 5.98353 22.483 6.2882 22.32C6.36991 22.4303 6.46019 22.5339 6.5582 22.63C6.62096 22.6791 6.68788 22.7226 6.7582 22.76L6.9782 22.83C7.7682 23.01 7.8882 23.02 7.9782 22.83C8.0682 22.64 8.2382 22.53 7.4582 21.83C7.39164 21.7679 7.31776 21.7142 7.2382 21.67L7.3382 21.59C7.60169 21.2991 7.80554 20.9594 7.9382 20.59C8.02181 20.6258 8.10896 20.6526 8.1982 20.67H8.4682C9.3482 20.67 9.4682 20.67 9.5782 20.44C9.6882 20.21 9.6682 20 8.7682 19.53ZM5.7682 16.68C5.61859 16.7286 5.46449 16.7621 5.3082 16.78C5.25248 16.7838 5.19835 16.8002 5.14985 16.8279C5.10136 16.8556 5.05977 16.8939 5.0282 16.94C5.0043 16.8831 4.96392 16.8345 4.91225 16.8007C4.86058 16.7668 4.79997 16.7492 4.7382 16.75L4.3782 16.7L4.0682 16.59C3.92526 16.5282 3.79649 16.4377 3.68986 16.3242C3.58323 16.2107 3.50098 16.0765 3.4482 15.93C3.4214 15.8134 3.4278 15.6917 3.46669 15.5786C3.50558 15.4654 3.57539 15.3655 3.6682 15.29C3.83244 15.1212 4.02994 14.9884 4.2482 14.9C4.47534 14.8021 4.72093 14.7544 4.9682 14.76C5.20725 14.7575 5.4457 14.7844 5.6782 14.84C5.87376 14.8812 6.05594 14.9706 6.2082 15.1C6.30545 15.1797 6.38309 15.2806 6.4351 15.3951C6.48712 15.5095 6.51213 15.6344 6.5082 15.76C6.50413 15.9018 6.46992 16.0412 6.40785 16.1688C6.34578 16.2963 6.25727 16.4093 6.1482 16.5C6.03868 16.585 5.91268 16.6463 5.7782 16.68H5.7682Z" fill="#7A387B"/>
<path fill-rule="evenodd" clip-rule="evenodd" d="M24.8882 2.91002C24.8282 2.84002 24.6682 2.58002 23.7782 3.15002C23.7048 3.19819 23.6376 3.25529 23.5782 3.32002C23.5821 3.28012 23.5821 3.23993 23.5782 3.20002C23.3501 2.86848 23.0576 2.58621 22.7182 2.37002C22.7182 2.37002 22.7182 2.37002 22.7182 2.32002C22.7715 2.24944 22.8152 2.1721 22.8482 2.09002C22.8826 2.00835 22.9127 1.92489 22.9382 1.84002C23.1882 0.950025 23.2082 0.840025 22.9982 0.700025C22.7882 0.560025 22.5882 0.530025 21.9282 1.30002C21.8569 1.37618 21.7994 1.46416 21.7582 1.56002C21.7057 1.65348 21.6686 1.75478 21.6482 1.86002C21.6531 1.89652 21.6531 1.93352 21.6482 1.97002C21.5217 1.91955 21.3912 1.87942 21.2582 1.85002C21.0973 1.85679 20.937 1.87349 20.7782 1.90002V1.74002C20.7882 1.66703 20.7882 1.59302 20.7782 1.52002C20.7689 1.44418 20.7487 1.37007 20.7182 1.30002C20.4782 0.500025 20.4482 0.420025 20.2182 0.390025C19.9882 0.360025 19.7682 0.390025 19.5882 1.39002C19.5729 1.48273 19.5729 1.57732 19.5882 1.67002C19.5928 1.76277 19.6131 1.85407 19.6482 1.94002C19.6482 2.01002 19.7282 2.05002 19.7582 2.11002C19.4609 2.20784 19.1782 2.34578 18.9182 2.52002C18.7259 2.14057 18.4177 1.83231 18.0382 1.64002C17.7777 1.52682 17.4952 1.47345 17.2114 1.48383C16.9276 1.49421 16.6497 1.56809 16.3982 1.70002C16.2669 1.78948 16.1461 1.89347 16.0382 2.01002C16.042 1.98014 16.042 1.94991 16.0382 1.92002V1.85002C16.0382 1.85002 15.9282 1.85002 15.9182 1.77002C15.8282 1.41002 15.9782 1.21002 15.6782 1.08002C15.3782 0.950025 14.8182 1.53002 14.9182 2.26002C14.9417 2.35648 14.9824 2.44793 15.0382 2.53002C15.1056 2.65208 15.2061 2.75261 15.3282 2.82002C15.3914 2.82469 15.455 2.82469 15.5182 2.82002C15.4053 3.0187 15.3083 3.22601 15.2282 3.44002C15.2182 3.53978 15.2182 3.64027 15.2282 3.74002H15.0982C14.986 3.75204 14.8773 3.78602 14.7782 3.84002C14.7071 3.87508 14.6428 3.92248 14.5882 3.98002C14.3782 4.21002 13.9282 4.98002 14.3982 5.25002C14.6882 5.39002 14.6282 5.19002 15.3082 4.93002C15.3826 5.23086 15.5114 5.51555 15.6882 5.77002C15.8628 6.02015 16.1052 6.21516 16.3869 6.33209C16.6686 6.44903 16.9778 6.48301 17.2782 6.43002C17.5419 6.37256 17.7913 6.26231 18.0113 6.10592C18.2312 5.94953 18.4173 5.75023 18.5582 5.52002C18.6422 5.38046 18.7125 5.23311 18.7682 5.08002C18.8265 4.93822 18.8701 4.79077 18.8982 4.64002C18.9115 4.59197 18.9129 4.54143 18.9025 4.49268C18.892 4.44394 18.87 4.39843 18.8382 4.36002C18.9175 4.35489 18.9929 4.32365 19.0526 4.2712C19.1123 4.21874 19.1529 4.14801 19.1682 4.07002C19.2315 3.82835 19.2651 3.57984 19.2682 3.33002C19.2721 3.25674 19.2721 3.18331 19.2682 3.11002C19.8406 2.89602 20.4639 2.85771 21.0582 3.00002C21.3573 3.06921 21.6439 3.18387 21.9082 3.34002C22.169 3.47668 22.4001 3.6636 22.5882 3.89002C22.8044 4.13549 22.9769 4.41623 23.0982 4.72002C23.2209 5.04706 23.3244 5.38096 23.4082 5.72002C23.0051 5.99705 22.5724 6.22846 22.1182 6.41002C21.7698 6.55002 21.4079 6.6539 21.0382 6.72002C20.623 6.77897 20.1996 6.73078 19.8082 6.58002C19.8082 6.58002 19.8082 6.58002 19.8082 6.52002C19.7688 6.51028 19.7276 6.51028 19.6882 6.52002C19.5713 6.47846 19.4577 6.42832 19.3482 6.37002C19.3155 6.33521 19.276 6.30747 19.2321 6.28851C19.1883 6.26955 19.141 6.25976 19.0932 6.25976C19.0454 6.25976 18.9981 6.26955 18.9543 6.28851C18.9104 6.30747 18.8709 6.33521 18.8382 6.37002C18.8046 6.40347 18.778 6.44321 18.7598 6.48697C18.7417 6.53073 18.7323 6.57764 18.7323 6.62502C18.7323 6.67241 18.7417 6.71932 18.7598 6.76308C18.778 6.80684 18.8046 6.84658 18.8382 6.88002C18.8773 6.92439 18.9209 6.9646 18.9682 7.00002C18.9682 7.00002 18.8882 7.00002 18.8582 7.10002C18.8057 7.17545 18.7683 7.26036 18.7482 7.35002C18.7336 7.43944 18.7336 7.53061 18.7482 7.62002C18.7482 8.54002 19.0382 8.62002 19.2182 8.62002C19.2182 8.62002 19.5082 8.76003 19.9482 7.62002C20.2386 7.73598 20.546 7.80355 20.8582 7.82002C20.8793 7.90308 20.9095 7.98356 20.9482 8.06003C21.4282 8.96002 21.6982 8.81002 21.7782 8.78002C21.8582 8.75002 22.0182 8.61003 22.0682 7.78003C22.073 7.72346 22.073 7.66659 22.0682 7.61002C22.3097 7.54806 22.5418 7.45388 22.7582 7.33002C22.8002 7.29919 22.8403 7.26579 22.8782 7.23002C22.9079 7.32107 22.9482 7.40833 22.9982 7.49002C23.0535 7.57302 23.1171 7.65009 23.1882 7.72002C23.8882 8.36002 24.1182 8.28002 24.2582 8.16002C24.3982 8.04002 23.9682 7.00002 23.9682 7.00002C23.9273 6.93267 23.8804 6.86908 23.8282 6.81002C23.7632 6.74743 23.693 6.69055 23.6182 6.64002C23.8342 6.41916 24.0284 6.17806 24.1982 5.92002C24.2551 5.85894 24.2868 5.77853 24.2868 5.69502C24.2868 5.61152 24.2551 5.53111 24.1982 5.47002H24.1382C24.1178 5.13292 24.0676 4.79829 23.9882 4.47002C24.1186 4.41826 24.2455 4.35814 24.3682 4.29002C24.4296 4.24194 24.4865 4.18839 24.5382 4.13002C24.584 4.06703 24.6242 4.0001 24.6582 3.93002C24.9682 3.21002 25.0382 3.09002 24.8882 2.91002ZM18.1682 4.50002C18.1361 4.6125 18.0891 4.72014 18.0282 4.82002C17.9801 4.92285 17.916 5.01736 17.8382 5.10002C17.743 5.22196 17.6237 5.32305 17.4878 5.39701C17.3519 5.47098 17.2023 5.51625 17.0482 5.53003C16.9287 5.52535 16.8128 5.48727 16.7139 5.4201C16.6149 5.35293 16.5367 5.25937 16.4882 5.15002C16.3679 4.94911 16.2898 4.72574 16.2589 4.4936C16.2279 4.26146 16.2447 4.02545 16.3082 3.80002C16.3624 3.56858 16.45 3.34625 16.5682 3.14002C16.658 2.95633 16.7963 2.8007 16.9682 2.69002C17.0708 2.61578 17.1892 2.56631 17.3141 2.54549C17.439 2.52467 17.5671 2.53307 17.6882 2.57002C17.823 2.60984 17.9479 2.67762 18.0547 2.76894C18.1615 2.86026 18.2479 2.97307 18.3082 3.10002C18.357 3.22148 18.3874 3.34957 18.3982 3.48002C18.4131 3.63634 18.4131 3.79371 18.3982 3.95002C18.3863 4.00511 18.3884 4.06227 18.4041 4.11639C18.4198 4.1705 18.4487 4.21986 18.4882 4.26002C18.4167 4.26255 18.3478 4.2869 18.2905 4.32981C18.2333 4.37272 18.1906 4.43212 18.1682 4.50002Z" fill="#998696"/>
<path fill-rule="evenodd" clip-rule="evenodd" d="M3.2582 12.77C3.30023 12.7687 3.34159 12.7592 3.37992 12.7419C3.41825 12.7246 3.4528 12.6999 3.48159 12.6693C3.51038 12.6386 3.53285 12.6026 3.54771 12.5633C3.56257 12.5239 3.56953 12.4821 3.5682 12.44C3.5682 11.34 3.7482 10.25 3.8182 9.15003V8.41003H8.3282C9.3282 8.41003 10.2582 8.32003 11.2282 8.28003C12.6782 8.21003 14.1182 8.14003 15.5682 8.19003C15.6155 8.19397 15.6631 8.18856 15.7083 8.17411C15.7534 8.15965 15.7953 8.13645 15.8315 8.1058C15.8678 8.07516 15.8976 8.03768 15.9193 7.99551C15.941 7.95334 15.9543 7.90731 15.9582 7.86003C15.9621 7.81275 15.9567 7.76516 15.9423 7.71998C15.9278 7.67479 15.9046 7.6329 15.874 7.59668C15.8433 7.56047 15.8059 7.53064 15.7637 7.50891C15.7215 7.48718 15.6755 7.47397 15.6282 7.47003C14.2024 7.27609 12.7668 7.16258 11.3282 7.13003H9.4882C8.8682 7.13003 8.2682 7.19003 7.6582 7.25003C6.3782 7.38003 5.1282 7.57003 3.8682 7.74003C3.9682 7.48003 3.9682 7.24003 3.9682 7.00003C4.03551 6.23461 4.16256 5.47564 4.3482 4.73003C4.3482 4.73003 4.3482 4.68003 4.3482 4.65003C4.659 4.59425 4.97292 4.55751 5.2882 4.54003H7.5682C8.1382 4.54003 8.7082 4.48003 9.2782 4.43003C9.8482 4.38003 10.3982 4.30003 10.9682 4.27003C11.5382 4.24003 11.9682 4.27003 12.4382 4.27003C12.5337 4.27799 12.6284 4.24769 12.7015 4.1858C12.7747 4.12391 12.8202 4.03551 12.8282 3.94003C12.8362 3.84455 12.8059 3.74982 12.744 3.67668C12.6821 3.60354 12.5937 3.55799 12.4982 3.55003C11.5055 3.3916 10.5032 3.30139 9.4982 3.28003C8.8282 3.28003 8.1582 3.34003 7.4982 3.38003C6.8382 3.42003 6.1782 3.57003 5.4982 3.70003C4.0882 4.00003 3.4382 3.92003 2.8082 7.27003C2.7382 7.68003 2.6882 8.08003 2.6582 8.49003C2.63322 8.89631 2.63322 9.30375 2.6582 9.71003C2.6582 10.65 2.8382 11.57 2.9582 12.51C2.97164 12.5808 3.00856 12.645 3.06301 12.6922C3.11745 12.7394 3.18623 12.7668 3.2582 12.77Z" fill="#7A387B"/>
<path fill-rule="evenodd" clip-rule="evenodd" d="M22.6882 11.76C22.6082 11.19 22.5182 10.62 22.3982 10.06C22.3934 10.0182 22.3801 9.97781 22.3591 9.94129C22.3381 9.90477 22.3099 9.87291 22.2763 9.84764C22.2426 9.82238 22.2041 9.80424 22.1632 9.79434C22.1222 9.78444 22.0797 9.78298 22.0382 9.79005C21.9549 9.80243 21.8798 9.84717 21.8292 9.91457C21.7787 9.98197 21.7568 10.0666 21.7682 10.15V11.39C21.7682 12.39 21.7682 13.39 21.6982 14.33C21.6982 15.05 21.7482 15.75 21.7882 16.44C21.8282 17.13 21.8682 17.83 21.8682 18.53C21.8682 19.23 21.8682 19.67 21.7982 20.25C21.7116 20.215 21.6148 20.215 21.5282 20.25C21.0943 20.3835 20.6491 20.4772 20.1982 20.53C19.4882 20.62 18.7782 20.63 18.0782 20.65L16.5082 20.71C15.7082 20.71 14.9182 20.76 14.1282 20.8C12.7882 20.88 11.4582 21 10.1282 21.16C10.0433 21.16 9.96194 21.1938 9.90193 21.2538C9.84191 21.3138 9.8082 21.3952 9.8082 21.48C9.8082 21.5649 9.84191 21.6463 9.90193 21.7063C9.96194 21.7663 10.0433 21.8 10.1282 21.8C11.7382 21.8 13.3182 21.97 14.9182 21.97C15.9981 21.9565 17.0764 21.8831 18.1482 21.75C18.8682 21.64 19.5982 21.55 20.3182 21.38C21.3182 21.16 22.4282 20.71 22.4782 20.38C22.7169 19.3837 22.8807 18.3709 22.9682 17.35C22.9682 16.84 23.0182 16.35 23.0182 15.81C23.0182 15.27 23.0182 14.81 22.9582 14.28C22.8582 13.44 22.7882 12.6 22.6882 11.76Z" fill="#7A387B"/>
</g>
<defs>
<clipPath id="clip0_3013_15843">
<rect width="24" height="24" fill="white" transform="translate(0.968201)"/>
</clipPath>
</defs>
</svg>
