<svg width="25" height="24" viewBox="0 0 25 24" fill="none" xmlns="http://www.w3.org/2000/svg">
<g clip-path="url(#clip0_3013_15832)">
<path fill-rule="evenodd" clip-rule="evenodd" d="M14.1782 15C14.2682 14.75 14.3482 14.49 14.4182 14.23C14.4882 13.97 14.5582 13.43 14.6082 13.03C15.4077 13.1068 16.2071 12.8831 16.8506 12.4023C17.494 11.9216 17.9352 11.2184 18.0882 10.43C18.3311 9.6581 18.3666 8.8359 18.1911 8.04599C18.0155 7.25608 17.6352 6.52629 17.0882 5.92996C16.7582 5.59996 16.2182 5.58996 15.7182 6.17996C15.3374 6.7068 15.0028 7.26554 14.7182 7.84996C14.3376 7.70801 13.9667 7.54097 13.6082 7.34996C13.68 7.20027 13.7435 7.0467 13.7982 6.88996C14.0382 6.22996 14.3682 5.50996 14.4282 5.24996C14.448 5.05702 14.3971 4.86344 14.2849 4.70525C14.1727 4.54705 14.0069 4.435 13.8182 4.38996C13.0964 4.20926 12.3357 4.26535 11.6482 4.54996C11.1239 4.78198 10.6528 5.11914 10.2641 5.54055C9.87536 5.96197 9.57724 6.45869 9.3882 6.99996C9.12621 7.54438 8.97861 8.13674 8.95453 8.74045C8.93045 9.34416 9.0304 9.94639 9.2482 10.51C9.54088 11.1267 10.0603 11.6067 10.6982 11.85C10.3482 12.5 9.9782 13.13 9.6982 13.85C9.4882 14.33 9.3182 14.85 9.1482 15.34C8.9782 15.83 8.9382 16.04 8.7482 16.61C8.5582 17.18 9.4482 17.27 9.7482 16.85C10.0482 16.43 10.0582 16.31 10.2682 15.85C10.4782 15.39 10.5482 15.23 10.6682 14.92C10.7991 14.5939 10.9093 14.2599 10.9982 13.92C11.2182 13.17 11.3582 12.41 11.5582 11.64C11.7582 10.87 10.1882 11.64 9.8682 9.72996C9.76746 8.92638 9.92135 8.11145 10.3082 7.39996C10.5097 6.8561 10.8722 6.38664 11.3475 6.05429C11.8228 5.72194 12.3882 5.54251 12.9682 5.53996C12.7414 6.01267 12.5476 6.5005 12.3882 6.99996C12.3047 7.30093 12.3047 7.61898 12.3882 7.91996C12.4498 8.09856 12.5791 8.24581 12.7482 8.32996C12.9399 8.43647 13.1368 8.53326 13.3382 8.61996C13.8893 8.90211 14.4845 9.08811 15.0982 9.16996C15.2485 9.13962 15.3897 9.07515 15.5111 8.98151C15.6325 8.88788 15.7307 8.7676 15.7982 8.62996C15.9482 8.34996 16.1882 7.82996 16.4382 7.38996C16.4944 7.29301 16.5653 7.20531 16.6482 7.12996C16.95 7.56105 17.1531 8.05339 17.243 8.57192C17.3329 9.09045 17.3074 9.62242 17.1682 10.13C16.3482 13.41 14.2982 11.42 14.0882 12.13C13.8782 12.84 13.5082 13.22 13.2482 13.8C13.1382 14.04 13.0482 14.29 12.9582 14.54C12.8682 14.79 12.7982 15.04 12.7282 15.3C12.5782 15.86 12.5482 16.05 12.4082 16.6C12.3382 16.96 13.2482 17.04 13.4082 16.65C13.5682 16.26 13.7082 16.11 13.8882 15.72C13.9682 15.49 14.0882 15.24 14.1782 15Z" fill="#7A387B"/>
<path fill-rule="evenodd" clip-rule="evenodd" d="M23.3482 5.55997C21.7848 3.40178 19.5692 1.80318 17.0282 0.999975C14.5147 0.122411 11.7985 0.00416318 9.2182 0.659975C6.81108 1.38153 4.68466 2.82708 3.1282 4.79997C2.31435 5.76778 1.71088 6.89441 1.35623 8.10817C1.00157 9.32193 0.903477 10.5962 1.0682 11.85C1.32266 13.1668 1.91841 14.3938 2.79586 15.4081C3.67332 16.4224 4.80171 17.1886 6.0682 17.63C8.26562 18.5056 10.6897 18.6356 12.9682 18C13.1144 18.65 13.298 19.2911 13.5182 19.92C13.7582 20.61 14.0182 21.31 14.2782 21.98C14.4582 22.43 14.6482 22.86 14.7982 23.29C14.8271 23.3865 14.8784 23.4749 14.9479 23.5479C15.0174 23.6209 15.1032 23.6764 15.1982 23.71C15.277 23.7447 15.3621 23.7626 15.4482 23.7626C15.5343 23.7626 15.6194 23.7447 15.6982 23.71C15.8295 23.6593 15.9438 23.5726 16.0282 23.46C16.1082 23.36 16.2082 23.1 16.2882 22.99L17.1182 21.61L19.2382 17.73C19.2811 17.7877 19.3399 17.8317 19.4073 17.8566C19.4748 17.8814 19.5481 17.8861 19.6182 17.87C20.8499 17.558 21.9735 16.9166 22.8684 16.0146C23.7633 15.1126 24.3959 13.9841 24.6982 12.75C24.9948 11.5242 25.0279 10.2495 24.7952 9.01003C24.5624 7.77057 24.0692 6.59463 23.3482 5.55997ZM23.7982 12.56C23.5524 13.6516 23.0138 14.6557 22.2404 15.4644C21.4669 16.2731 20.4878 16.8558 19.4082 17.15C19.3181 17.1807 19.2407 17.2405 19.1882 17.32C19.1882 17.32 19.1882 17.24 19.1082 17.22C19.0645 17.1933 19.0158 17.1758 18.9652 17.1684C18.9145 17.161 18.8629 17.164 18.8134 17.177C18.7639 17.1901 18.7175 17.2131 18.6771 17.2445C18.6367 17.2759 18.6031 17.3152 18.5782 17.36L16.0682 21L15.5782 21.73L15.4582 21.49C14.9682 20.49 14.3782 19.49 13.9282 18.49C13.8382 18.28 13.7682 18.06 13.6882 17.85C13.7725 17.8144 13.84 17.7481 13.8772 17.6645C13.9143 17.5809 13.9183 17.4864 13.8882 17.4C13.8547 17.3141 13.7886 17.2449 13.7043 17.2074C13.6201 17.17 13.5244 17.1673 13.4382 17.2H13.3882C13.0476 17.223 12.7115 17.2903 12.3882 17.4L11.8382 17.55C11.0085 17.6602 10.1679 17.6602 9.3382 17.55C8.34666 17.3974 7.37215 17.1496 6.4282 16.81C5.33066 16.4065 4.35892 15.7207 3.611 14.8217C2.86308 13.9228 2.36541 12.8426 2.1682 11.69C2.06368 10.5918 2.1874 9.48394 2.53159 8.43591C2.87577 7.38787 3.43298 6.42234 4.1682 5.59997C5.55937 3.86036 7.44589 2.58408 9.5782 1.93997C11.9062 1.33931 14.3585 1.42615 16.6382 2.18997C18.9463 2.87556 20.9772 4.27616 22.4382 6.18997C23.1011 7.0901 23.5651 8.1208 23.7996 9.21381C24.0341 10.3068 24.0336 11.4372 23.7982 12.53V12.56Z" fill="#998696"/>
</g>
<defs>
<clipPath id="clip0_3013_15832">
<rect width="24" height="24" fill="white" transform="translate(0.968201)"/>
</clipPath>
</defs>
</svg>
