<svg width="25" height="24" viewBox="0 0 25 24" fill="none" xmlns="http://www.w3.org/2000/svg">
<g clip-path="url(#clip0_3013_15825)">
<path fill-rule="evenodd" clip-rule="evenodd" d="M22.2583 10.43C22.1383 9.57997 22.1283 7.75997 21.3583 7.32997C20.1283 6.61997 4.96826 6.99997 3.19826 7.07997C3.12305 7.07992 3.05076 7.1091 2.99665 7.16134C2.94255 7.21358 2.91085 7.2848 2.90826 7.35997C2.96826 7.87997 3.76826 7.99997 13.9683 7.58997C16.2777 7.5896 18.5851 7.72651 20.8783 7.99997C21.2883 8.22997 21.5683 13.38 21.5683 13.88C21.5398 15.2307 21.3518 16.5733 21.0083 17.88C21.0083 17.88 20.8983 17.94 20.8083 17.96C18.3883 18.67 4.65826 19.25 2.49826 18.21C2.42826 18.21 2.36826 18.16 2.34826 18.12C1.86826 16.69 1.63826 9.42997 2.14826 7.72997C2.23826 7.42997 1.72826 7.29997 1.63826 7.59997C1.07826 9.33997 1.13826 16.77 1.63826 18.27C2.30826 20.36 17.6383 19.43 20.3983 18.94C21.7283 18.71 21.9583 18.43 22.1483 17.67C22.6644 15.2878 22.7018 12.8267 22.2583 10.43Z" fill="#998696"/>
<path fill-rule="evenodd" clip-rule="evenodd" d="M24.3983 8.32997C24.2883 7.47997 24.2683 5.64997 23.5083 5.22997C22.2783 4.51997 7.24826 4.16997 5.50826 4.63997C4.81826 4.81997 5.02826 5.10997 5.03826 5.25997C5.03826 5.76997 5.03826 5.25997 16.0983 5.48997C16.6283 5.48997 22.5583 5.62997 23.0083 5.89997C23.4583 6.16997 23.8683 11.34 23.8683 11.85C23.8729 12.9504 23.7725 14.0487 23.5683 15.13C23.3883 15.81 23.2783 16.22 23.4183 16.49C23.4531 16.5424 23.5064 16.5798 23.5676 16.5946C23.6288 16.6094 23.6933 16.6006 23.7483 16.57C24.1183 16.33 24.3483 15.34 24.4583 14.76C24.5984 14.0013 24.6687 13.2314 24.6683 12.46C24.6985 11.0781 24.6082 9.69617 24.3983 8.32997Z" fill="#7A387B"/>
<path d="M6.12826 15.91C6.85584 15.9462 7.58461 15.8686 8.28826 15.68C8.61826 15.43 8.47826 15.03 8.18826 15.03C7.46348 15.2534 6.68673 15.2429 5.96826 15C5.96826 15.08 6.07826 13.61 6.07826 13.53C6.39565 13.6557 6.73853 13.7037 7.07826 13.67C8.56826 13.49 8.45826 13.67 8.57826 13.5C8.60642 13.4738 8.62889 13.442 8.64425 13.4068C8.65961 13.3715 8.66754 13.3334 8.66754 13.295C8.66754 13.2565 8.65961 13.2184 8.64425 13.1832C8.62889 13.1479 8.60642 13.1162 8.57826 13.09C8.33826 12.74 7.41826 12.66 6.99826 12.68C6.75826 12.68 6.26826 12.8 5.99826 12.84C5.97611 12.3278 6.00964 11.8148 6.09826 11.31C6.84546 11.3059 7.59115 11.2424 8.32826 11.12C8.39722 11.1133 8.46071 11.0796 8.50478 11.0261C8.54886 10.9727 8.56989 10.9039 8.56326 10.835C8.55663 10.766 8.52288 10.7025 8.46943 10.6584C8.41598 10.6144 8.34722 10.5933 8.27826 10.6C7.6523 10.6421 7.02422 10.6421 6.39826 10.6C5.89826 10.6 5.29826 10.38 5.06826 11.71C4.97826 12.25 5.06826 13.03 4.99826 13.51C5.03826 14.69 4.71826 15.78 6.12826 15.91Z" fill="#7A387B"/>
<path d="M15.5883 15.91C16.3158 15.9452 17.0444 15.8676 17.7483 15.68C18.0783 15.43 17.9383 15.03 17.6483 15.03C16.9266 15.2632 16.1499 15.2632 15.4283 15.03C15.3683 15.11 15.5383 13.64 15.5383 13.56C15.8555 13.6865 16.1985 13.7345 16.5383 13.7C18.0383 13.52 17.9283 13.7 18.0483 13.53C18.0764 13.5038 18.0989 13.4721 18.1142 13.4368C18.1296 13.4015 18.1375 13.3635 18.1375 13.325C18.1375 13.2865 18.1296 13.2485 18.1142 13.2132C18.0989 13.1779 18.0764 13.1462 18.0483 13.12C17.8083 12.77 16.8883 12.69 16.4683 12.71C16.1323 12.7457 15.7985 12.7991 15.4683 12.87C15.4461 12.3579 15.4796 11.8449 15.5683 11.34C16.3154 11.3355 17.0611 11.272 17.7983 11.15C17.8672 11.142 17.9302 11.107 17.9733 11.0526C18.0165 10.9982 18.0362 10.9289 18.0283 10.86C18.0203 10.791 17.9853 10.7281 17.9309 10.6849C17.8765 10.6418 17.8072 10.622 17.7383 10.63C17.1156 10.6719 16.4909 10.6719 15.8683 10.63C15.3683 10.63 14.7683 10.41 14.5383 11.74C14.4483 12.28 14.5383 13.06 14.4683 13.54C14.4983 14.69 14.1783 15.78 15.5883 15.91Z" fill="#7A387B"/>
<path d="M9.90825 15.69C10.4603 15.1517 10.9562 14.5586 11.3883 13.92C11.9367 14.563 12.5352 15.1615 13.1783 15.71C13.4483 15.71 13.5383 15.57 13.5583 15.34C13.0947 14.5796 12.5625 13.8632 11.9683 13.2L12.4783 12.52L13.5483 11.17C13.5878 11.1055 13.6015 11.0284 13.5867 10.9543C13.5719 10.8801 13.5296 10.8143 13.4683 10.77C13.2183 10.58 13.1283 10.77 11.8483 11.88C11.6681 12.0666 11.5072 12.2709 11.3683 12.49C11.1083 12.17 11.2283 12.33 10.0083 10.8C9.95654 10.739 9.8827 10.701 9.803 10.6944C9.7233 10.6879 9.64425 10.7132 9.58325 10.765C9.52225 10.8167 9.4843 10.8905 9.47773 10.9702C9.47117 11.0499 9.49654 11.129 9.54825 11.19C9.84966 11.95 10.283 12.6507 10.8283 13.26C10.3276 13.9395 9.8828 14.6586 9.49825 15.41C9.49825 15.68 9.66825 15.73 9.90825 15.69Z" fill="#7A387B"/>
</g>
<defs>
<clipPath id="clip0_3013_15825">
<rect width="24" height="24" fill="white" transform="translate(0.968262)"/>
</clipPath>
</defs>
</svg>
