<svg width="25" height="24" viewBox="0 0 25 24" fill="none" xmlns="http://www.w3.org/2000/svg">
<g clip-path="url(#clip0_3013_15756)">
<path d="M19.4083 18.07C18.7583 18.2 18.2583 18.99 18.7983 19.53C18.9624 19.6848 19.1613 19.798 19.3783 19.86C21.0883 20.24 20.8883 17.77 19.4083 18.07Z" fill="#7A387B"/>
<path d="M24.8783 20.0001C24.3133 19.504 23.6885 19.0807 23.0183 18.7401C23.8783 18.1601 24.6183 17.87 24.6083 17.13C24.5228 16.3427 24.1698 15.6085 23.6083 15.0501C22.9183 14.5501 22.4483 14.9401 21.4683 15.5101C21.4683 14.6901 21.5683 14.0201 20.9083 13.6101C20.1911 13.2393 19.3812 13.0864 18.5783 13.1701C17.5283 13.4101 17.5783 14.3201 17.5783 15.5601L16.5183 15.0001C15.4083 14.4301 14.5883 15.5701 14.2583 16.7601C14.0283 17.6301 14.3583 17.9601 15.1283 18.4401C15.8983 18.9201 15.3983 18.5201 15.5383 19.3901C13.7383 20.6001 13.9883 20.3901 14.8483 22.1101C15.0721 22.4078 15.3422 22.6677 15.6483 22.88C15.8774 22.984 16.1312 23.0212 16.3806 22.9876C16.6299 22.954 16.8648 22.8509 17.0583 22.6901C17.8283 22.2201 17.7183 22.05 17.7283 22.4001C17.7383 22.7501 17.6683 23.4001 18.0183 23.6001C18.5883 23.9501 20.6383 24.08 21.0183 23.39C21.2283 23.0301 21.2483 23.0201 21.1883 22.4501C21.1816 22.3678 21.1426 22.2916 21.0798 22.2382C21.017 22.1847 20.9355 22.1584 20.8533 22.1651C20.771 22.1717 20.6948 22.2107 20.6414 22.2735C20.5879 22.3363 20.5616 22.4178 20.5683 22.5001C20.5683 22.9801 20.5683 22.8201 20.4583 23.0601C20.3483 23.3 18.8083 22.9501 18.5483 22.9101V21.39C18.5484 21.3155 18.5282 21.2424 18.4898 21.1785C18.4515 21.1146 18.3964 21.0623 18.3306 21.0274C18.2648 20.9924 18.1907 20.9761 18.1163 20.9801C18.0419 20.984 17.97 21.0082 17.9083 21.0501C17.4183 21.3701 16.6383 22.0501 16.1783 22.1101C15.7183 22.1701 15.4383 20.9001 15.3283 20.6901C15.8583 20.4601 15.3283 20.8001 16.4583 20.0701C16.5576 20.0051 16.6323 19.9088 16.6704 19.7963C16.7085 19.6839 16.7077 19.562 16.6683 19.4501C16.4483 18.7801 16.9283 18.4501 16.4783 18.0601C15.6183 17.3801 15.8683 17.5701 15.3683 17.2001C15.455 16.8161 15.622 16.4549 15.8583 16.1401C15.8583 16.0901 15.9283 16.0201 15.9883 16.0501C17.9883 17.3101 17.7183 17.2501 18.3983 16.9901C19.0783 16.7301 18.7683 14.4001 18.8683 14.3801C19.3602 14.3925 19.8454 14.4977 20.2983 14.6901C20.3583 16.9101 20.4883 16.9101 20.7283 17.0301C20.8146 17.0811 20.913 17.108 21.0133 17.108C21.1135 17.108 21.212 17.0811 21.2983 17.0301C23.0583 15.9201 22.9583 15.9601 23.0683 16.0301C23.1783 16.1001 23.3583 16.3401 23.6483 17.2101C22.3083 18.2101 22.1783 18.2101 22.1383 18.4901C22.0083 19.4901 21.8483 19.1901 24.1383 20.4901C24.0522 21.0633 23.7608 21.5857 23.3183 21.96C22.7106 21.6712 22.1256 21.3369 21.5683 20.9601C21.5302 20.9338 21.4873 20.9153 21.4421 20.9056C21.3968 20.8959 21.3501 20.8952 21.3046 20.9036C21.2591 20.9119 21.2157 20.9292 21.1769 20.9543C21.138 20.9794 21.1045 21.012 21.0783 21.0501C21.052 21.0881 21.0335 21.131 21.0238 21.1763C21.0141 21.2215 21.0134 21.2682 21.0218 21.3137C21.0301 21.3592 21.0474 21.4026 21.0725 21.4414C21.0976 21.4803 21.1302 21.5138 21.1683 21.5401C21.7622 21.9803 22.391 22.3716 23.0483 22.71C23.9683 23 25.2983 20.8401 24.8783 20.0001Z" fill="#7A387B"/>
<path fill-rule="evenodd" clip-rule="evenodd" d="M17.9683 7.00003C17.7383 2.70003 17.8683 3.00003 17.8683 3.00003C17.8683 1.22003 14.3283 -0.0699712 14.3283 0.900029C14.3282 0.988496 14.3627 1.0735 14.4243 1.13698C14.4859 1.20046 14.5698 1.23743 14.6583 1.24003C15.2189 1.29955 15.7537 1.50658 16.2083 1.84003C17.7983 2.94003 17.0183 3.97003 15.2083 4.56003C13.2083 5.22003 6.52826 5.56003 4.12826 4.48003C3.45797 4.25107 2.86314 3.84299 2.40826 3.30003C2.07826 2.71003 3.13826 2.17003 3.24826 2.10003C4.58214 1.40919 6.05647 1.03291 7.55826 1.00003C11.4583 0.720029 12.5583 1.36003 12.5583 0.720029C12.561 0.680614 12.5559 0.64105 12.5433 0.60361C12.5307 0.56617 12.5108 0.53159 12.4847 0.501857C12.4587 0.472123 12.4271 0.447822 12.3917 0.430347C12.3562 0.412873 12.3177 0.402569 12.2783 0.400029C9.77826 0.200029 6.17826 -0.159971 3.65826 0.810029C2.57826 1.23003 1.07826 2.00003 1.25826 3.25003C0.968264 5.11003 1.18826 7.77003 1.09826 8.90003C0.919203 11.7213 0.939253 14.5516 1.15826 17.37C1.2617 18.3414 1.71699 19.2413 2.43826 19.9C4.68826 21.79 9.80826 21.66 12.6383 20.9C12.7271 20.8801 12.8044 20.8258 12.8532 20.7489C12.9019 20.672 12.9182 20.5789 12.8983 20.49C12.8784 20.4012 12.824 20.3239 12.7471 20.2751C12.6702 20.2264 12.5771 20.2101 12.4883 20.23C10.058 20.7483 7.53605 20.6416 5.15826 19.92C4.43661 19.7722 3.75478 19.4722 3.15826 19.04C2.80034 18.7254 2.51951 18.3327 2.33745 17.8923C2.15539 17.4519 2.07698 16.9756 2.10826 16.5C1.96826 15.46 1.78826 5.36003 1.79826 4.31003C3.96826 6.60003 7.96826 6.30003 10.7683 6.20003C12.6583 6.11003 15.5583 5.81003 17.0183 4.58003C16.9526 6.70172 17.0127 8.82545 17.1983 10.94C17.1903 10.9833 17.1919 11.0278 17.203 11.0704C17.2141 11.113 17.2345 11.1526 17.2627 11.1865C17.2908 11.2203 17.3261 11.2475 17.3659 11.2662C17.4058 11.2849 17.4492 11.2946 17.4933 11.2946C17.5373 11.2946 17.5808 11.2849 17.6206 11.2662C17.6605 11.2475 17.6957 11.2203 17.7239 11.1865C17.752 11.1526 17.7724 11.113 17.7835 11.0704C17.7946 11.0278 17.7963 10.9833 17.7883 10.94C17.9875 9.63676 18.0478 8.31603 17.9683 7.00003Z" fill="#7A387B"/>
<path fill-rule="evenodd" clip-rule="evenodd" d="M10.3583 8.72006C7.96608 8.66913 5.58032 8.45194 3.21826 8.07006C2.59826 7.82006 2.09826 8.39006 2.94826 8.73006C5.12332 9.41483 7.39946 9.7226 9.67826 9.64006C12.0183 9.64006 14.5383 9.33006 16.3183 8.20006C16.7183 7.95006 16.7883 7.42006 15.9083 7.59006C14.1508 8.3289 12.2647 8.71293 10.3583 8.72006Z" fill="#998696"/>
<path fill-rule="evenodd" clip-rule="evenodd" d="M7.18827 13.71C9.14918 13.9875 11.146 13.865 13.0583 13.35C14.1001 13.0989 15.12 12.7645 16.1083 12.35C16.1849 12.3122 16.2445 12.247 16.2751 12.1672C16.3058 12.0875 16.3054 11.9991 16.2738 11.9197C16.2423 11.8403 16.1821 11.7757 16.1051 11.7387C16.0281 11.7017 15.94 11.695 15.8583 11.72C12.1883 13.15 5.73827 13.05 2.85827 11.72C2.29827 11.55 2.38827 12.18 2.85827 12.49C4.21642 13.154 5.68327 13.5673 7.18827 13.71Z" fill="#998696"/>
<path fill-rule="evenodd" clip-rule="evenodd" d="M7.26826 17.5701C9.08386 17.7218 10.9113 17.5006 12.6383 16.9201C12.6823 16.9095 12.7237 16.8905 12.7604 16.8639C12.797 16.8374 12.828 16.8039 12.8517 16.7654C12.8754 16.7268 12.8912 16.684 12.8984 16.6393C12.9055 16.5947 12.9038 16.549 12.8933 16.5051C12.8828 16.4611 12.8637 16.4196 12.8371 16.3829C12.8106 16.3463 12.7771 16.3153 12.7386 16.2916C12.7 16.2679 12.6572 16.2521 12.6126 16.2449C12.5679 16.2378 12.5223 16.2395 12.4783 16.2501C10.9062 16.5758 9.29121 16.64 7.69826 16.4401C4.56826 16.3201 5.69826 16.5401 2.92826 15.6201C2.42826 15.4901 2.29826 15.9801 2.92826 16.3701C4.25368 17.1222 5.74471 17.5345 7.26826 17.5701Z" fill="#998696"/>
</g>
<defs>
<clipPath id="clip0_3013_15756">
<rect width="24" height="24" fill="white" transform="translate(0.968262)"/>
</clipPath>
</defs>
</svg>
