<svg width="25" height="24" viewBox="0 0 25 24" fill="none" xmlns="http://www.w3.org/2000/svg">
<g clip-path="url(#clip0_3013_15764)">
<path fill-rule="evenodd" clip-rule="evenodd" d="M6.4282 10.39C8.47229 11.1447 10.6563 11.445 12.8282 11.27C14.4387 11.3207 16.0496 11.1831 17.6282 10.86C18.4063 10.7211 19.1605 10.4719 19.8682 10.12C19.9083 10.099 19.9438 10.0703 19.9727 10.0356C20.0017 10.0008 20.0235 9.96071 20.037 9.91753C20.0505 9.87436 20.0553 9.82895 20.0512 9.7839C20.0471 9.73886 20.0342 9.69506 20.0132 9.655C19.9922 9.61495 19.9635 9.57943 19.9288 9.55047C19.894 9.5215 19.8539 9.49966 19.8107 9.4862C19.7676 9.47274 19.7221 9.46791 19.6771 9.47199C19.6321 9.47608 19.5883 9.48899 19.5482 9.51C17.8082 10.38 13.5482 10.14 12.8282 10.12C11.2057 10.2299 9.57614 10.1629 7.9682 9.92C7.14257 9.83265 6.3467 9.5628 5.6382 9.13C5.1082 9.13 5.1082 9.62 5.6382 9.99C5.9682 10.18 5.7482 10.08 6.4282 10.39Z" fill="#998696"/>
<path fill-rule="evenodd" clip-rule="evenodd" d="M21.7882 5.99997C21.7882 5.9098 21.7524 5.82332 21.6886 5.75956C21.6249 5.6958 21.5384 5.65997 21.4482 5.65997C21.358 5.65997 21.2715 5.6958 21.2078 5.75956C21.144 5.82332 21.1082 5.9098 21.1082 5.99997C21.1882 13.4 21.2482 13.79 21.0082 14.76C20.9176 15.2563 20.7034 15.7217 20.3853 16.1132C20.0672 16.5048 19.6554 16.8097 19.1882 17C17.1775 17.8103 15.0439 18.2736 12.8782 18.37C11.432 18.4412 9.98325 18.2997 8.5782 17.95C7.60025 17.7597 6.65194 17.4402 5.7582 17C4.6282 16.27 4.8582 6.52997 4.8982 4.99997C6.26898 6.26448 8.03628 7.01382 9.8982 7.11997C12.8334 7.32162 15.7823 7.08571 18.6482 6.41997C20.7882 5.78997 22.7582 4.41997 21.4282 2.61997C21.0639 2.16344 20.6095 1.7867 20.0935 1.51318C19.5774 1.23965 19.0105 1.07518 18.4282 1.02997C18.3468 1.04389 18.2729 1.08615 18.2196 1.14929C18.1664 1.21243 18.1371 1.29237 18.1371 1.37497C18.1371 1.45758 18.1664 1.53752 18.2196 1.60066C18.2729 1.6638 18.3468 1.70606 18.4282 1.71997C18.886 1.76384 19.3301 1.89985 19.734 2.11983C20.1379 2.3398 20.493 2.63918 20.7782 2.99997C22.7782 5.99997 10.7182 6.83997 7.3382 5.22997C6.1182 4.65997 4.9082 3.99997 5.8382 2.99997C8.7082 0.999974 12.4282 1.29997 15.9682 1.40997C17.1482 1.48997 17.3982 1.57997 17.4682 1.24997C17.5382 0.919974 17.0982 0.849974 16.7282 0.809974C16.6082 0.809974 12.7282 0.489974 10.9382 0.549974C9.54932 0.56145 8.17147 0.797845 6.8582 1.24997C5.7182 1.71997 4.2282 2.47997 4.3682 3.82997C4.1182 4.50997 4.2982 8.29997 4.2482 9.02997C4.1982 9.75997 4.1682 11.14 4.1882 12.37C4.1882 14.96 4.1882 16.62 5.3882 17.76C6.22982 18.4262 7.23475 18.8544 8.2982 19C9.50491 19.3052 10.7436 19.4663 11.9882 19.48C11.8441 20.285 11.9025 21.1132 12.1582 21.89C12.2182 22.09 12.2582 22.02 12.0282 22.04L8.4182 22.43C8.34677 22.443 8.28217 22.4806 8.23565 22.5363C8.18913 22.5921 8.16365 22.6624 8.16365 22.735C8.16365 22.8076 8.18913 22.8779 8.23565 22.9336C8.28217 22.9893 8.34677 23.027 8.4182 23.04C11.3944 23.2679 14.3842 23.2545 17.3582 23C17.4396 22.9861 17.5135 22.9438 17.5668 22.8807C17.62 22.8175 17.6493 22.7376 17.6493 22.655C17.6493 22.5724 17.62 22.4924 17.5668 22.4293C17.5135 22.3662 17.4396 22.3239 17.3582 22.31C15.7282 22.22 14.6382 22.07 13.0482 22.07C12.9982 21.75 12.9782 22.07 13.1082 21.07C13.1157 20.657 13.0445 20.2463 12.8982 19.86C12.7782 19.46 12.7482 19.53 12.8982 19.53C15.2166 19.4077 17.4935 18.8656 19.6182 17.93C20.2198 17.6713 20.7487 17.2688 21.1585 16.758C21.5682 16.2471 21.8463 15.6434 21.9682 15C22.1782 13.8 22.0682 13 21.7882 5.99997Z" fill="#7A387B"/>
<path fill-rule="evenodd" clip-rule="evenodd" d="M15.5682 15.6C17.2407 15.4375 18.8528 14.8899 20.2782 14C20.3169 13.977 20.3508 13.9466 20.3778 13.9106C20.4048 13.8745 20.4244 13.8335 20.4355 13.7899C20.4467 13.7462 20.4491 13.7008 20.4427 13.6562C20.4363 13.6116 20.4212 13.5687 20.3982 13.53C20.3752 13.4913 20.3448 13.4574 20.3088 13.4304C20.2727 13.4034 20.2317 13.3838 20.1881 13.3727C20.1444 13.3615 20.099 13.3591 20.0544 13.3655C20.0098 13.3719 19.9669 13.387 19.9282 13.41C18.5637 14.1446 17.0471 14.5519 15.4982 14.6C10.4282 14.82 8.4982 14.45 5.6782 13.36C5.2082 13.25 5.1982 13.74 5.6782 14.08C9.3682 15.93 11.4782 15.93 15.5682 15.6Z" fill="#998696"/>
<path fill-rule="evenodd" clip-rule="evenodd" d="M6.2182 22.35C5.6182 22.35 4.3182 22.59 4.7782 22.99C6.3382 24.3 8.8282 22.49 6.2182 22.35Z" fill="#7A387B"/>
<path fill-rule="evenodd" clip-rule="evenodd" d="M2.5082 22.35C1.9082 22.35 0.6082 22.59 1.0682 22.99C2.6282 24.3 5.1182 22.49 2.5082 22.35Z" fill="#7A387B"/>
<path fill-rule="evenodd" clip-rule="evenodd" d="M23.8282 22.0699C23.2282 22.0699 21.9282 22.3099 22.3882 22.6999C23.9682 23.9999 26.4382 22.2099 23.8282 22.0699Z" fill="#7A387B"/>
<path fill-rule="evenodd" clip-rule="evenodd" d="M20.1182 22.0699C19.5182 22.0699 18.2182 22.3099 18.6782 22.6999C20.2382 23.9999 22.7282 22.2099 20.1182 22.0699Z" fill="#7A387B"/>
</g>
<defs>
<clipPath id="clip0_3013_15764">
<rect width="24" height="24" fill="white" transform="translate(0.968201)"/>
</clipPath>
</defs>
</svg>
