<svg width="25" height="24" viewBox="0 0 25 24" fill="none" xmlns="http://www.w3.org/2000/svg">
<g clip-path="url(#clip0_3013_15786)">
<path fill-rule="evenodd" clip-rule="evenodd" d="M13.9082 9.46002C14.3606 9.67632 14.8374 9.83748 15.3282 9.94002C16.7208 10.2402 18.1535 10.3078 19.5682 10.14C21.0073 9.97978 22.3952 9.5126 23.6382 8.77003C23.9374 8.57451 24.1882 8.31361 24.3719 8.00699C24.5555 7.70038 24.6671 7.35606 24.6982 7.00002C24.735 6.63819 24.6943 6.27268 24.5788 5.92781C24.4632 5.58295 24.2755 5.26667 24.0282 5.00002C23.7906 4.76062 23.5131 4.56437 23.2082 4.42002C22.9931 4.33825 22.7725 4.27142 22.5482 4.22002C22.502 3.53134 22.2705 2.86796 21.8782 2.30002C21.3992 1.62183 20.7366 1.0945 19.9682 0.780024C19.1703 0.461691 18.2933 0.398799 17.4582 0.600024C16.8327 0.758696 16.2512 1.05709 15.7576 1.47277C15.264 1.88846 14.871 2.41062 14.6082 3.00002C14.4304 3.43015 14.355 3.89576 14.3882 4.36002C14.01 4.51916 13.6705 4.75781 13.3927 5.05976C13.1149 5.36172 12.9053 5.71991 12.7782 6.11002C12.6052 6.54301 12.5376 7.01094 12.581 7.47519C12.6245 7.93944 12.7778 8.38669 13.0282 8.78002C13.2645 9.0722 13.5659 9.30506 13.9082 9.46002ZM13.5282 6.30002C13.6806 5.75352 14.0391 5.28747 14.5282 5.00002C14.6995 5.55059 15.0259 6.04013 15.4682 6.41002C15.5264 6.43658 15.5911 6.44511 15.6542 6.4345C15.7172 6.4239 15.7757 6.39465 15.8219 6.35053C15.8682 6.30641 15.9002 6.24944 15.9138 6.18697C15.9274 6.12449 15.922 6.05938 15.8982 6.00002C15.5466 5.67703 15.3125 5.24617 15.2328 4.7754C15.1531 4.30463 15.2324 3.82074 15.4582 3.40002C15.6976 2.9884 16.0238 2.63384 16.4141 2.36099C16.8044 2.08814 17.2494 1.90354 17.7182 1.82002C18.4308 1.62921 19.1875 1.69286 19.8582 2.00002C20.3191 2.24013 20.7192 2.58212 21.0282 3.00002C21.4167 3.49106 21.6281 4.09887 21.6281 4.72502C21.6281 5.35118 21.4167 5.95899 21.0282 6.45002C20.9912 6.48437 20.9618 6.52613 20.9419 6.57259C20.9221 6.61904 20.9122 6.66916 20.913 6.71967C20.9138 6.77017 20.9252 6.81995 20.9465 6.86576C20.9678 6.91157 20.9985 6.95238 21.0366 6.98554C21.0747 7.01871 21.1194 7.04348 21.1677 7.05826C21.216 7.07303 21.2669 7.07747 21.317 7.07129C21.3672 7.06511 21.4154 7.04845 21.4587 7.02239C21.502 6.99633 21.5393 6.96145 21.5682 6.92002C22.0705 6.3924 22.3956 5.72121 22.4982 5.00002L22.6782 5.06002C22.9574 5.18573 23.2063 5.36988 23.4082 5.60002C23.5557 5.77358 23.6641 5.97679 23.7262 6.1959C23.7883 6.41501 23.8026 6.6449 23.7682 6.87002C23.7412 7.07834 23.6655 7.27739 23.5474 7.45109C23.4293 7.6248 23.272 7.76831 23.0882 7.87002C21.9564 8.46821 20.7144 8.82892 19.4382 8.93003C18.1466 9.08594 16.8389 9.04886 15.5582 8.82002C15.147 8.76625 14.744 8.66214 14.3582 8.51003C14.1481 8.43215 13.9595 8.30531 13.8082 8.14002C13.6159 7.87899 13.4899 7.57512 13.4411 7.25458C13.3923 6.93404 13.4222 6.60645 13.5282 6.30002Z" fill="#7A387B"/>
<path fill-rule="evenodd" clip-rule="evenodd" d="M24.8482 20.68C24.8177 20.602 24.7718 20.5308 24.7135 20.4707C24.6551 20.4106 24.5853 20.3628 24.5082 20.33C24.3282 20.33 21.8482 20.02 21.1582 20H17.8382L15.7282 20.08C15.1582 20.08 12.8182 20.31 12.5582 20.34C12.2982 20.37 12.0282 21.45 12.0282 21.46C11.9914 21.7663 12.0583 22.0762 12.2182 22.34C12.3937 22.6437 12.6498 22.8929 12.9582 23.06C13.0382 23.13 16.9582 23.46 17.2082 23.48C18.0882 23.54 18.9882 23.48 19.8882 23.48L21.1182 23.37C22.0582 23.26 22.9882 23.13 23.9282 23C24.1782 23 23.9882 23 24.5882 22.35C24.6858 22.2502 24.7668 22.1354 24.8282 22.01C24.8909 21.8837 24.9347 21.749 24.9582 21.61C24.9846 21.2958 24.9472 20.9794 24.8482 20.68ZM23.8482 21.34C23.7782 21.46 23.7382 21.59 23.6782 21.72C23.6041 21.9187 23.5173 22.1125 23.4182 22.3H19.8982H17.2782C15.9882 22.3 14.7182 22.36 13.4182 22.4L13.3282 22.18C13.319 22.0635 13.319 21.9465 13.3282 21.83C13.3282 21.72 13.3282 21.61 13.2682 21.5C13.2082 21.39 13.1682 21.15 13.1282 20.98L17.9182 21.19C18.5482 21.19 19.1682 21.19 19.7782 21.14C20.7082 21.09 21.6182 21.01 22.5382 20.99H24.0782C23.9837 21.1006 23.8968 21.2176 23.8182 21.34H23.8482Z" fill="#7A387B"/>
<path fill-rule="evenodd" clip-rule="evenodd" d="M13.9082 18.94V17.26V16.32C13.9175 16.2116 13.9376 16.1044 13.9682 16C13.9682 16 13.9682 15.94 14.0182 15.92C14.1182 15.92 14.2782 15.92 14.3282 15.86C14.5426 15.7835 14.7635 15.7266 14.9882 15.69C15.3582 15.62 15.7482 15.59 16.1182 15.55C17.2953 15.3965 18.4811 15.3196 19.6682 15.32C20.4569 15.3212 21.2449 15.3679 22.0282 15.46C22.3782 15.46 22.7882 15.46 23.1882 15.56V16.83V17.63V18.43C23.1882 18.92 23.2482 19.06 23.2682 19.54C23.2854 19.6274 23.3287 19.7076 23.3924 19.7699C23.4561 19.8322 23.5372 19.8736 23.625 19.8888C23.7128 19.904 23.8031 19.8921 23.8841 19.8549C23.965 19.8176 24.0327 19.7566 24.0782 19.68C24.1782 19.16 24.2682 18.98 24.3282 18.45V17.61C24.3335 17.3288 24.3134 17.0476 24.2682 16.77C23.9082 14.22 23.5282 14.93 22.1182 14.62C21.0806 14.4089 20.0267 14.2885 18.9682 14.26C17.9371 14.2277 16.905 14.2611 15.8782 14.36C15.4782 14.41 15.0582 14.44 14.6482 14.53C14.3499 14.5862 14.0584 14.6733 13.7782 14.79C13.5886 14.8635 13.4075 14.9574 13.2382 15.07C13.0812 15.1682 12.9615 15.316 12.8982 15.49C12.8228 15.6949 12.7855 15.9118 12.7882 16.13C12.8284 16.5228 12.8885 16.9133 12.9682 17.3C13.0182 17.88 13.0882 18.45 13.1682 19.02C13.1682 19.35 13.1682 19.35 13.2782 19.68C13.3882 20.01 14.0682 19.98 14.0082 19.68C13.9581 19.4359 13.9247 19.1887 13.9082 18.94Z" fill="#998696"/>
<path fill-rule="evenodd" clip-rule="evenodd" d="M13.9682 15.9301C13.9618 15.9529 13.9618 15.9772 13.9682 16.0001V15.9301Z" fill="#7A387B"/>
<path fill-rule="evenodd" clip-rule="evenodd" d="M11.2082 4.56005C10.3689 4.39667 9.501 4.46583 8.6982 4.76005C8.34676 4.87921 8.011 5.04038 7.6982 5.24005C7.39333 5.45344 7.12056 5.70937 6.8882 6.00005C6.58686 6.32853 6.36091 6.71888 6.22618 7.1438C6.09145 7.56872 6.05119 8.01794 6.1082 8.46005C6.10946 8.50165 6.11908 8.54257 6.13648 8.58037C6.15389 8.61818 6.17874 8.65209 6.20953 8.68008C6.24033 8.70808 6.27645 8.72959 6.31573 8.74333C6.35502 8.75706 6.39667 8.76275 6.4382 8.76005C6.51956 8.75495 6.5959 8.719 6.65165 8.65953C6.70741 8.60006 6.73836 8.52156 6.7382 8.44005C6.8409 7.78241 7.20061 7.1925 7.7382 6.80005C7.95101 6.61664 8.17475 6.44633 8.4082 6.29005C8.64916 6.12547 8.89959 5.97521 9.1582 5.84005C9.77072 5.50055 10.4579 5.31843 11.1582 5.31005C11.205 5.31706 11.2527 5.31451 11.2985 5.30257C11.3442 5.29063 11.3871 5.26953 11.4245 5.24056C11.4619 5.21158 11.493 5.17533 11.516 5.134C11.539 5.09266 11.5533 5.04709 11.5582 5.00005C11.5702 4.94741 11.5702 4.89274 11.5582 4.8401C11.5462 4.78746 11.5225 4.73819 11.4889 4.69594C11.4553 4.65368 11.4126 4.61953 11.3641 4.59601C11.3155 4.57249 11.2622 4.5602 11.2082 4.56005Z" fill="#998696"/>
<path fill-rule="evenodd" clip-rule="evenodd" d="M10.3182 20.26H9.0382C8.78608 20.2493 8.53684 20.2021 8.2982 20.12C7.90913 20.0421 7.53892 19.8893 7.2082 19.67C6.88518 19.4933 6.60518 19.2475 6.3882 18.95C6.23271 18.6609 6.09251 18.3639 5.9682 18.06C5.9682 17.69 5.1782 17.8 5.2282 18.39C5.243 18.8218 5.37807 19.2409 5.6182 19.6C5.95027 20.1108 6.41763 20.5193 6.9682 20.78C7.31564 20.9502 7.6863 21.0681 8.0682 21.13C8.40029 21.1707 8.73611 21.1707 9.0682 21.13C9.5082 21.13 9.9382 21.01 10.3782 20.95C10.4259 20.9501 10.4731 20.9404 10.5169 20.9216C10.5607 20.9028 10.6003 20.8752 10.633 20.8406C10.6658 20.8059 10.6912 20.7649 10.7075 20.7201C10.7239 20.6753 10.7309 20.6277 10.7282 20.58C10.7233 20.5317 10.7087 20.4848 10.6852 20.4423C10.6617 20.3997 10.6298 20.3624 10.5915 20.3325C10.5532 20.3026 10.5092 20.2808 10.4623 20.2683C10.4153 20.2559 10.3663 20.253 10.3182 20.26Z" fill="#998696"/>
<path fill-rule="evenodd" clip-rule="evenodd" d="M6.7682 17.27C8.4182 17 10.0882 16.2 10.1082 15.9C10.2082 15.15 10.3082 14.42 10.3482 13.68V12.68C10.3473 12.3455 10.324 12.0114 10.2782 11.68C10.2782 11.34 10.1482 11.01 10.0782 10.68C10.1929 10.4298 10.2411 10.1543 10.2182 9.88002C10.1886 9.6272 10.1088 9.38285 9.98344 9.16132C9.85808 8.93979 9.6897 8.74555 9.4882 8.59002C9.20904 8.37715 8.88907 8.22398 8.5482 8.14002C8.09663 8.05114 7.6383 8.00096 7.1782 7.99002C7.08423 7.98161 6.99071 8.01043 6.91777 8.07028C6.84484 8.13013 6.79831 8.21622 6.7882 8.31002C6.78252 8.40499 6.81364 8.49849 6.87509 8.57111C6.93654 8.64374 7.0236 8.6899 7.1182 8.70002C7.52723 8.75964 7.92924 8.86014 8.3182 9.00002C8.55857 9.05528 8.78174 9.16859 8.9682 9.33002C9.10341 9.45761 9.20037 9.62037 9.2482 9.80002V10.34C9.18887 10.4493 9.10708 10.5447 9.0082 10.62C8.66715 10.8595 8.27202 11.0107 7.8582 11.06C7.15339 11.1667 6.43849 11.1902 5.7282 11.13C5.05348 11.1158 4.38254 11.0252 3.7282 10.86C3.34736 10.7869 2.99824 10.5983 2.7282 10.32C2.4282 9.96002 2.7282 9.66002 3.0982 9.41002C3.5765 9.08428 4.10772 8.84405 4.6682 8.70002H5.5382C5.57895 8.70415 5.62011 8.70018 5.6593 8.68831C5.6985 8.67645 5.73496 8.65694 5.76657 8.6309C5.79819 8.60487 5.82433 8.57283 5.84349 8.53663C5.86265 8.50043 5.87445 8.4608 5.8782 8.42002C5.89354 8.37383 5.89815 8.32474 5.89166 8.2765C5.88518 8.22826 5.86777 8.18214 5.84077 8.14164C5.81377 8.10114 5.77789 8.06733 5.73586 8.04279C5.69382 8.01825 5.64674 8.00362 5.5982 8.00002H4.5982C3.55593 8.11268 2.57765 8.558 1.8082 9.27002C1.61358 9.50032 1.50102 9.78877 1.4882 10.09C1.29146 10.6433 1.14095 11.2119 1.0382 11.79C0.993311 12.1215 0.969929 12.4555 0.968201 12.79C0.968201 13.11 0.968201 13.43 1.0182 13.79C1.09572 14.4662 1.21259 15.1374 1.3682 15.8C1.36331 15.8265 1.36331 15.8536 1.3682 15.88C1.3682 16.18 3.6682 16.98 4.2082 17.13C5.04846 17.314 5.91289 17.3613 6.7682 17.27ZM2.1782 11.33C2.50267 11.6112 2.87534 11.8315 3.2782 11.98C4.03617 12.1983 4.81955 12.316 5.6082 12.33C6.41463 12.3872 7.22508 12.3367 8.0182 12.18C8.41529 12.0826 8.796 11.9277 9.1482 11.72V12.15C9.1482 12.52 9.1482 12.89 9.1982 13.26C8.57244 13.4555 7.92336 13.5665 7.2682 13.59C6.7206 13.6016 6.17282 13.5783 5.6282 13.52C5.0582 13.52 4.4982 13.44 3.9482 13.35C3.52108 13.3101 3.09691 13.2433 2.6782 13.15C2.50571 13.1089 2.33548 13.0589 2.1682 13V12C2.1682 11.65 2.1882 11.55 2.1782 11.33ZM4.4182 16C3.63119 15.9153 2.85423 15.7545 2.0982 15.52C2.0982 14.93 2.0982 14.32 2.1482 13.71C2.2382 13.71 2.3082 13.81 2.3982 13.85C2.8265 14.0433 3.26753 14.207 3.7182 14.34C4.10834 14.4592 4.50586 14.5527 4.9082 14.62C5.51649 14.7166 6.13382 14.7435 6.7482 14.7C7.61353 14.6183 8.45703 14.3811 9.2382 14C9.2882 14.55 9.3482 15.1 9.3782 15.65H9.2982C8.45247 15.9296 7.56888 16.078 6.6782 16.09H5.5482L4.4182 16Z" fill="#7A387B"/>
</g>
<defs>
<clipPath id="clip0_3013_15786">
<rect width="24" height="24" fill="white" transform="translate(0.968201)"/>
</clipPath>
</defs>
</svg>
