<svg width="25" height="24" viewBox="0 0 25 24" fill="none" xmlns="http://www.w3.org/2000/svg">
<g clip-path="url(#clip0_3013_15795)">
<path fill-rule="evenodd" clip-rule="evenodd" d="M23.6182 14.58C23.0342 13.8913 22.2975 13.3485 21.4667 12.9947C20.6359 12.641 19.7339 12.4861 18.8327 12.5424C17.9315 12.5987 17.0559 12.8647 16.2756 13.3192C15.4953 13.7736 14.8319 14.4039 14.3382 15.16C12.6982 17.58 13.5482 21.16 15.1782 22.16C15.2445 22.2051 15.326 22.222 15.4048 22.207C15.4835 22.192 15.5531 22.1463 15.5982 22.08C15.6433 22.0137 15.6602 21.9322 15.6452 21.8534C15.6302 21.7747 15.5845 21.7051 15.5182 21.66C14.2182 20.75 13.6382 17.66 15.0982 15.66C15.5254 15.0643 16.0813 14.5725 16.7247 14.2212C17.368 13.8698 18.0822 13.6679 18.8143 13.6305C19.5464 13.593 20.2775 13.7209 20.9533 14.0048C21.6292 14.2886 22.2324 14.721 22.7182 15.27C25.1382 18.13 23.7182 22.45 19.4682 22.95C18.6923 23.0629 17.9012 23.0084 17.1482 22.79C17.062 22.7608 16.9678 22.7671 16.8862 22.8074C16.8046 22.8477 16.7424 22.9188 16.7132 23.005C16.684 23.0912 16.6903 23.1854 16.7306 23.267C16.7709 23.3486 16.842 23.4108 16.9282 23.44C17.7684 23.7179 18.6582 23.8134 19.5382 23.72C20.5842 23.6916 21.6009 23.368 22.4709 22.7867C23.3409 22.2053 24.0289 21.3898 24.4554 20.4343C24.8819 19.4788 25.0296 18.4222 24.8815 17.3864C24.7334 16.3505 24.2954 15.3777 23.6182 14.58Z" fill="#7A387B"/>
<path fill-rule="evenodd" clip-rule="evenodd" d="M17.8182 20.51C18.9582 20.57 20.3082 17.4 20.8182 16.37C20.9693 16.2114 21.0641 16.0077 21.0882 15.79C21.0818 15.7169 21.0532 15.6475 21.0063 15.5912C20.9594 15.5348 20.8964 15.4941 20.8257 15.4745C20.755 15.4549 20.68 15.4574 20.6107 15.4816C20.5415 15.5058 20.4813 15.5506 20.4382 15.61C20.1982 15.9 17.7282 19.5 17.7882 19.61C17.5882 19.61 16.5882 18.44 16.4382 18.35C16.2882 18.26 15.8582 18.52 16.0882 18.86C16.4682 19.43 17.1482 20.47 17.8182 20.51Z" fill="#7A387B"/>
<path fill-rule="evenodd" clip-rule="evenodd" d="M11.5982 17.52C11.6772 17.5015 11.7469 17.4555 11.7949 17.3901C11.8429 17.3248 11.866 17.2444 11.86 17.1636C11.8539 17.0827 11.8192 17.0067 11.762 16.9492C11.7049 16.8917 11.629 16.8565 11.5482 16.85C8.54475 17.0906 5.52787 16.5964 2.7582 15.41C2.2982 15.41 2.2182 15.9 2.7582 16.24C5.48031 17.6385 8.59119 18.089 11.5982 17.52Z" fill="#998696"/>
<path fill-rule="evenodd" clip-rule="evenodd" d="M4.5782 13.3C8.2882 13.97 11.8082 14.19 15.1882 12.78C15.2648 12.7422 15.3244 12.6769 15.3551 12.5972C15.3857 12.5174 15.3853 12.4291 15.3538 12.3497C15.3223 12.2703 15.262 12.2056 15.185 12.1686C15.108 12.1316 15.0199 12.125 14.9382 12.15C11.3682 13.48 4.9382 12.8 2.5382 11.79C2.1082 11.79 2.1182 12.31 2.5382 12.56C3.16878 12.926 3.8596 13.1766 4.5782 13.3Z" fill="#998696"/>
<path fill-rule="evenodd" clip-rule="evenodd" d="M10.6282 9.15997C8.6882 9.21997 4.2782 9.23997 2.5382 8.15997C2.1082 8.15997 1.8182 8.54997 2.5382 8.96997C3.8082 9.80997 6.5382 10.29 9.5382 10.31C12.0382 10.31 14.7582 10.1 16.7982 8.94997C17.1282 8.54997 16.9882 8.04997 16.6982 8.18997C14.7849 9.00588 12.7004 9.33898 10.6282 9.15997Z" fill="#998696"/>
<path fill-rule="evenodd" clip-rule="evenodd" d="M18.0682 3C18.0682 1.69 16.0082 0.579999 14.8182 0.599999C14.7694 0.59153 14.7193 0.593841 14.6714 0.606772C14.6236 0.619702 14.5791 0.642938 14.5412 0.674853C14.5033 0.706768 14.4728 0.746589 14.4519 0.791527C14.4309 0.836464 14.4201 0.885432 14.4201 0.934999C14.4201 0.984566 14.4309 1.03353 14.4519 1.07847C14.4728 1.12341 14.5033 1.16323 14.5412 1.19515C14.5791 1.22706 14.6236 1.2503 14.6714 1.26323C14.7193 1.27616 14.7694 1.27847 14.8182 1.27C15.6482 1.27 17.2682 2.18 17.2482 3.01C17.2482 3.55 16.7082 4.11 15.3582 4.54C13.8989 4.93679 12.3902 5.12201 10.8782 5.09C8.8782 5.09 5.9482 5.27 4.1482 4.45C3.48747 4.22847 2.89969 3.83086 2.4482 3.3C2.0182 2.55 3.8082 1.9 4.5982 1.56C7.0482 0.779999 9.8482 0.999999 12.4482 0.999999C12.5278 0.999999 12.6041 0.968392 12.6603 0.912131C12.7166 0.85587 12.7482 0.779564 12.7482 0.699999C12.7482 0.620434 12.7166 0.544128 12.6603 0.487867C12.6041 0.431606 12.5278 0.399999 12.4482 0.399999C8.9682 0.189999 5.8482 -0.140001 2.8482 1.21C1.9682 1.6 1.1582 2.33 1.2782 3.25C0.968204 5.21 1.2082 7.56 1.0982 8.8C0.912264 11.575 0.945701 14.3603 1.1982 17.13C1.30409 18.0846 1.77316 18.9618 2.5082 19.58C3.7482 20.58 7.5082 21.26 10.2482 21.1C10.3366 21.0948 10.4195 21.0554 10.4793 20.99C10.5391 20.9246 10.571 20.8385 10.5682 20.75C10.5682 20.03 8.9482 20.89 5.2182 19.68C4.49507 19.5313 3.81275 19.2277 3.2182 18.79C2.71469 18.4272 2.35948 17.8943 2.2182 17.29C1.5882 13.75 1.8282 5.34 1.8382 4.29C4.0682 6.54 8.0882 6.29 10.9082 6.15C15.3882 6 16.7982 4.87 17.1682 4.6C17.5382 4.33 17.3882 9.52 17.4482 9.95C17.4482 10.0296 17.4798 10.1059 17.5361 10.1621C17.5923 10.2184 17.6686 10.25 17.7482 10.25C17.8278 10.25 17.9041 10.2184 17.9603 10.1621C18.0166 10.1059 18.0482 10.0296 18.0482 9.95C18.4382 5.52 18.1682 7.93 18.0682 3Z" fill="#7A387B"/>
</g>
<defs>
<clipPath id="clip0_3013_15795">
<rect width="24" height="24" fill="white" transform="translate(0.968201)"/>
</clipPath>
</defs>
</svg>
