<svg width="25" height="24" viewBox="0 0 25 24" fill="none" xmlns="http://www.w3.org/2000/svg">
<g clip-path="url(#clip0_3013_15677)">
<path fill-rule="evenodd" clip-rule="evenodd" d="M9.2882 12.9C9.2762 12.8385 9.24321 12.7831 9.19486 12.7433C9.14652 12.7035 9.08583 12.6817 9.0232 12.6817C8.96057 12.6817 8.89988 12.7035 8.85154 12.7433C8.8032 12.7831 8.7702 12.8385 8.7582 12.9C8.73598 13.2549 8.83888 13.6063 9.049 13.8931C9.25912 14.18 9.56315 14.3841 9.9082 14.47C10.8082 14.64 11.2982 13.42 11.3082 12.47C11.2962 11.8545 11.2495 11.2402 11.1682 10.63C11.7082 10.63 11.8982 10.63 11.9882 10.44C12.0782 10.25 11.9882 10.15 11.6682 10.07C11.3876 10.0164 11.1036 9.98303 10.8182 9.96997C10.4794 9.97172 10.1426 10.0222 9.8182 10.12L9.1082 10.34C8.8682 10.45 8.8782 10.62 8.9182 10.7C9.1082 11.1 10.4482 10.7 10.5582 10.7C10.6564 11.2657 10.6564 11.8442 10.5582 12.41C10.3182 14.52 9.3282 13.5 9.2882 12.9Z" fill="#7A387B"/>
<path fill-rule="evenodd" clip-rule="evenodd" d="M14.6282 10.51C14.6282 10.51 14.7082 10.51 14.7082 10.59C14.7024 10.615 14.7016 10.6409 14.7061 10.6661C14.7105 10.6914 14.72 10.7155 14.7341 10.737C14.7481 10.7585 14.7663 10.7769 14.7876 10.7912C14.809 10.8055 14.833 10.8152 14.8582 10.82C15.0982 10.82 15.2182 10.43 14.8582 10.19C14.6175 10.0686 14.3498 10.0104 14.0804 10.0209C13.8111 10.0314 13.5488 10.1102 13.3182 10.25C13.1914 10.3083 13.0794 10.3944 12.9905 10.5018C12.9015 10.6093 12.8378 10.7354 12.8042 10.8708C12.7706 11.0062 12.7679 11.1475 12.7963 11.2841C12.8247 11.4207 12.8834 11.5492 12.9682 11.66C13.3482 12.18 14.4682 12.47 14.4982 12.84C14.5282 13.21 14.4082 13.6 14.1682 13.72C14.0101 13.7974 13.8344 13.8316 13.6588 13.8193C13.4832 13.807 13.314 13.7486 13.1682 13.65C13.1486 13.63 13.1253 13.6142 13.0996 13.6033C13.0738 13.5925 13.0461 13.5869 13.0182 13.5869C12.9903 13.5869 12.9626 13.5925 12.9368 13.6033C12.9111 13.6142 12.8878 13.63 12.8682 13.65C12.2782 14.15 15.1782 15.26 15.1882 12.83C15.1882 11.9 13.8582 11.63 13.5282 11.24C13.1982 10.85 14.1982 10.35 14.6282 10.51Z" fill="#7A387B"/>
<path fill-rule="evenodd" clip-rule="evenodd" d="M16.6782 5.61001C16.4572 5.61103 16.2365 5.59431 16.0182 5.56001C16.0782 5.34001 16.1682 5.08001 16.2582 4.80001C16.6882 3.38001 16.8982 1.89001 15.7582 0.930012C15.7053 0.888574 15.6389 0.868349 15.5718 0.87329C15.5048 0.87823 15.4421 0.907981 15.3958 0.956729C15.3496 1.00548 15.3232 1.06972 15.3218 1.1369C15.3203 1.20408 15.344 1.26937 15.3882 1.32001C16.5682 2.60001 15.1182 4.37001 14.9682 5.71001C14.8182 7.05001 18.0382 6.61001 19.1482 6.10001L20.8382 5.39001C20.9081 5.3534 20.9637 5.29422 20.9957 5.22208C21.0278 5.14994 21.0345 5.06908 21.0148 4.99263C20.9951 4.91618 20.9502 4.84863 20.8872 4.80095C20.8243 4.75328 20.7471 4.72828 20.6682 4.73001C18.5482 5.50001 18.4582 5.65001 16.6782 5.61001Z" fill="#7A387B"/>
<path fill-rule="evenodd" clip-rule="evenodd" d="M16.8482 0.06C15.4682 0 16.0982 0 6.9682 0C6.882 0 6.79934 0.034241 6.73839 0.0951903C6.67744 0.15614 6.6432 0.238805 6.6432 0.325C6.6432 0.411195 6.67744 0.49386 6.73839 0.55481C6.79934 0.615759 6.882 0.65 6.9682 0.65C15.4782 0.72 15.7282 0.65 16.7882 0.81C17.8482 0.97 20.5382 3.46 21.2182 4.51C21.3614 4.68332 21.4486 4.89604 21.4682 5.12C21.3682 6.66 20.7282 11.12 20.4682 12.2C20.2082 13.28 20.0182 14 19.8382 14.91C19.7682 15.27 19.3182 19.51 18.1882 20.06C16.5982 20.83 14.8182 20.32 13.1882 20.46C11.666 20.6069 10.1374 20.6769 8.6082 20.67C3.2082 20.48 3.4582 20.56 1.9982 19.86C3.3282 18.05 4.2182 13.86 4.6882 11.41C5.2182 8.71 5.0382 5.96 5.2482 3.24C5.2482 2.77 5.7182 0.24 4.9482 0.62C4.6382 0.76 4.7382 1.22 4.7382 1.43C4.7382 2.78 4.4082 8.02 4.3282 8.89C3.932 12.1569 3.09785 15.3556 1.8482 18.4C1.6882 18.7 1.4982 18.99 1.3182 19.27C1.17391 19.4397 1.059 19.6324 0.9782 19.84C0.963054 19.9955 0.996211 20.1519 1.07316 20.2879C1.1501 20.4239 1.26709 20.5329 1.4082 20.6C2.03265 20.9529 2.70697 21.2091 3.4082 21.36C6.67855 21.6828 9.97046 21.7263 13.2482 21.49C14.9382 21.34 16.8182 21.88 18.6582 20.98C20.3382 20.16 20.7182 15.73 20.8382 15.1C21.0082 14.19 21.2482 13.3 21.4282 12.4C21.6082 11.5 22.2182 6.9 22.3082 5.16C22.3882 3.65 18.2382 0.17 16.8482 0.06Z" fill="#7A387B"/>
<path fill-rule="evenodd" clip-rule="evenodd" d="M24.0582 5.81C23.9582 7.35 23.1182 13.52 22.8982 14.56C22.6782 15.6 22.4482 16.36 22.2682 17.27C22.1982 17.63 21.7482 21.87 20.6182 22.42C19.0282 23.18 17.2482 22.68 15.6182 22.82C14.6182 22.91 12.3782 23.07 11.0382 23.03C5.8882 22.84 5.8982 23.03 4.6382 22.46C3.9082 22.17 3.7282 22.87 4.1782 23.18C4.69401 23.4842 5.27155 23.6688 5.8682 23.72C9.1353 24.043 12.4242 24.0832 15.6982 23.84C17.3882 23.7 19.2682 24.24 21.1082 23.34C22.7882 22.52 23.1782 18.09 23.2882 17.46C23.4582 16.55 23.6982 15.66 23.8782 14.76C24.0582 13.86 24.8882 7.68 24.9682 6C25.0182 5.06 24.1682 4.92 24.0582 5.81Z" fill="#998696"/>
</g>
<defs>
<clipPath id="clip0_3013_15677">
<rect width="24" height="24" fill="white" transform="translate(0.968201)"/>
</clipPath>
</defs>
</svg>
