<svg width="25" height="24" viewBox="0 0 25 24" fill="none" xmlns="http://www.w3.org/2000/svg">
<g clip-path="url(#clip0_3013_15696)">
<path fill-rule="evenodd" clip-rule="evenodd" d="M6.3182 14.4C6.5082 14.69 6.8282 14.56 6.8282 14.32C6.8282 14.26 6.7182 14.26 6.8282 12.97V12.49C7.10745 12.569 7.40587 12.5441 7.6682 12.42C7.71034 13.0438 7.78712 13.6647 7.8982 14.28C7.93002 14.3158 7.9708 14.3425 8.01636 14.3574C8.06193 14.3723 8.11062 14.3747 8.15745 14.3645C8.20428 14.3544 8.24756 14.3319 8.28284 14.2995C8.31812 14.267 8.34413 14.2258 8.3582 14.18C8.43383 13.7678 8.46733 13.349 8.4582 12.93C8.49171 12.3854 8.46488 11.8387 8.3782 11.3C8.26782 10.9773 8.20385 10.6406 8.1882 10.3C8.21074 10.2483 8.21182 10.1897 8.19119 10.1372C8.17056 10.0847 8.12992 10.0425 8.0782 10.02C8.05259 10.0088 8.02503 10.0028 7.9971 10.0023C7.96917 10.0018 7.94142 10.0068 7.91542 10.017C7.86291 10.0376 7.82074 10.0783 7.7982 10.13C7.65115 10.6839 7.60041 11.2589 7.6482 11.83C6.7182 11.55 6.8282 11.92 6.8282 11.52C6.81188 11.0475 6.76512 10.5765 6.6882 10.11C6.5682 9.98998 6.4282 9.98998 6.3182 10.21C6.21175 10.6299 6.1415 11.0581 6.1082 11.49C5.93816 12.2337 5.93816 13.0062 6.1082 13.75C6.15071 13.9746 6.22126 14.193 6.3182 14.4Z" fill="#7A387B"/>
<path fill-rule="evenodd" clip-rule="evenodd" d="M11.6282 10.29C11.6282 9.88998 9.2082 10.04 9.0982 10.12C8.9882 10.2 8.9582 10.25 8.9782 10.32C8.96524 10.3589 8.96524 10.401 8.9782 10.44C9.34267 10.6061 9.7377 10.6946 10.1382 10.7V11.29C10.0408 12.0492 10.014 12.8158 10.0582 13.58C10.0582 13.72 9.9982 14.26 10.1882 14.42C10.2098 14.4436 10.236 14.4625 10.2653 14.4755C10.2946 14.4884 10.3262 14.4951 10.3582 14.4951C10.3902 14.4951 10.4218 14.4884 10.4511 14.4755C10.4804 14.4625 10.5066 14.4436 10.5282 14.42C10.6482 14.31 10.6782 13.68 10.6882 13.63C10.8839 12.8622 10.9213 12.0627 10.7982 11.28C10.7982 11.18 10.7982 10.77 10.7282 10.63C10.9182 10.63 11.2282 10.63 11.3482 10.56C11.4682 10.49 11.6382 10.36 11.6282 10.29Z" fill="#7A387B"/>
<path fill-rule="evenodd" clip-rule="evenodd" d="M15.2182 14.28C15.2808 13.8562 15.3109 13.4283 15.3082 13C15.4268 12.1418 15.4503 11.2733 15.3782 10.41C15.3578 10.3452 15.3247 10.2852 15.2808 10.2334C15.2369 10.1816 15.1831 10.139 15.1226 10.1083C15.062 10.0776 14.996 10.0592 14.9283 10.0544C14.8605 10.0495 14.7925 10.0582 14.7282 10.08C14.3624 10.2283 14.0467 10.4781 13.8182 10.8C13.7614 10.5811 13.6592 10.3767 13.5182 10.2C13.4399 10.1111 13.3404 10.0435 13.2289 10.0036C13.1174 9.9637 12.9976 9.95272 12.8807 9.9717C12.7638 9.99068 12.6536 10.039 12.5605 10.1122C12.4674 10.1853 12.3943 10.2809 12.3482 10.39C12.1955 10.8793 12.1114 11.3875 12.0982 11.9V13.9C12.2082 14.7 12.8082 14.28 12.5682 14C12.5439 13.036 12.6345 12.0725 12.8382 11.13C13.0782 10.26 13.0682 11.27 13.1182 11.5C13.1682 11.73 13.1982 12.29 13.6582 12.29C14.1182 12.29 14.0082 11.61 14.6582 10.99C14.6999 11.656 14.6999 12.324 14.6582 12.99C14.631 13.4295 14.631 13.8704 14.6582 14.31C14.6622 14.3842 14.6955 14.4539 14.7508 14.5036C14.8061 14.5533 14.8789 14.5789 14.9532 14.575C15.0275 14.571 15.0971 14.5377 15.1468 14.4824C15.1965 14.427 15.2222 14.3542 15.2182 14.28Z" fill="#7A387B"/>
<path fill-rule="evenodd" clip-rule="evenodd" d="M16.4282 10.29C16.4282 10.4 16.2082 12.5 16.1982 12.61C16.1922 13.0381 16.2426 13.4651 16.3482 13.88C16.5982 14.64 17.2382 14.66 18.0182 14.48C18.302 14.4669 18.5821 14.4095 18.8482 14.31C19.0082 14.15 18.9282 13.88 18.5582 13.84C18.1602 13.8898 17.7591 13.9098 17.3582 13.9C17.0382 13.85 17.1082 13.9 16.8682 10.66C16.8782 10.5703 16.8782 10.4797 16.8682 10.39C16.882 10.359 16.8888 10.3252 16.8881 10.2912C16.8873 10.2573 16.879 10.2239 16.8638 10.1935C16.8486 10.1631 16.8268 10.1364 16.8001 10.1154C16.7733 10.0944 16.7422 10.0797 16.7091 10.0721C16.6759 10.0646 16.6415 10.0645 16.6083 10.0719C16.5751 10.0792 16.544 10.0938 16.5171 10.1147C16.4903 10.1355 16.4684 10.162 16.453 10.1924C16.4376 10.2227 16.4291 10.256 16.4282 10.29Z" fill="#7A387B"/>
<path fill-rule="evenodd" clip-rule="evenodd" d="M16.6782 5.61001C16.4572 5.61103 16.2365 5.59431 16.0182 5.56001C16.0782 5.34001 16.1682 5.08001 16.2582 4.80001C16.6882 3.38001 16.8982 1.89001 15.7582 0.930012C15.7053 0.888574 15.6389 0.868349 15.5718 0.87329C15.5048 0.87823 15.4421 0.907981 15.3958 0.956729C15.3496 1.00548 15.3232 1.06972 15.3218 1.1369C15.3203 1.20408 15.344 1.26937 15.3882 1.32001C16.5682 2.60001 15.1182 4.37001 14.9682 5.71001C14.8182 7.05001 18.0382 6.61001 19.1482 6.10001L20.8382 5.39001C20.9081 5.3534 20.9637 5.29422 20.9957 5.22208C21.0278 5.14994 21.0345 5.06908 21.0148 4.99263C20.9951 4.91618 20.9502 4.84863 20.8872 4.80095C20.8243 4.75328 20.7471 4.72828 20.6682 4.73001C18.5482 5.50001 18.4582 5.65001 16.6782 5.61001Z" fill="#7A387B"/>
<path fill-rule="evenodd" clip-rule="evenodd" d="M16.8482 0.06C15.4682 0 16.0982 0 6.9682 0C6.882 0 6.79934 0.034241 6.73839 0.0951903C6.67744 0.15614 6.6432 0.238805 6.6432 0.325C6.6432 0.411195 6.67744 0.49386 6.73839 0.55481C6.79934 0.615759 6.882 0.65 6.9682 0.65C15.4782 0.72 15.7282 0.65 16.7882 0.81C17.8482 0.97 20.5382 3.46 21.2182 4.51C21.3614 4.68332 21.4486 4.89604 21.4682 5.12C21.3682 6.66 20.7282 11.12 20.4682 12.2C20.2082 13.28 20.0182 14 19.8382 14.91C19.7682 15.27 19.3182 19.51 18.1882 20.06C16.5982 20.83 14.8182 20.32 13.1882 20.46C11.666 20.6069 10.1374 20.6769 8.6082 20.67C3.2082 20.48 3.4582 20.56 1.9982 19.86C3.3282 18.05 4.2182 13.86 4.6882 11.41C5.2182 8.71 5.0382 5.96 5.2482 3.24C5.2482 2.77 5.7182 0.24 4.9482 0.62C4.6382 0.76 4.7382 1.22 4.7382 1.43C4.7382 2.78 4.4082 8.02 4.3282 8.89C3.932 12.1569 3.09785 15.3556 1.8482 18.4C1.6882 18.7 1.4982 18.99 1.3182 19.27C1.17391 19.4397 1.059 19.6324 0.9782 19.84C0.963054 19.9955 0.996211 20.1519 1.07316 20.2879C1.1501 20.4239 1.26709 20.5329 1.4082 20.6C2.03265 20.9529 2.70697 21.2091 3.4082 21.36C6.67855 21.6828 9.97046 21.7263 13.2482 21.49C14.9382 21.34 16.8182 21.88 18.6582 20.98C20.3382 20.16 20.7182 15.73 20.8382 15.1C21.0082 14.19 21.2482 13.3 21.4282 12.4C21.6082 11.5 22.2182 6.9 22.3082 5.16C22.3882 3.65 18.2382 0.17 16.8482 0.06Z" fill="#7A387B"/>
<path fill-rule="evenodd" clip-rule="evenodd" d="M24.0582 5.81C23.9582 7.35 23.1182 13.52 22.8982 14.56C22.6782 15.6 22.4482 16.36 22.2682 17.27C22.1982 17.63 21.7482 21.87 20.6182 22.42C19.0282 23.18 17.2482 22.68 15.6182 22.82C14.6182 22.91 12.3782 23.07 11.0382 23.03C5.8882 22.84 5.8982 23.03 4.6382 22.46C3.9082 22.17 3.7282 22.87 4.1782 23.18C4.69401 23.4842 5.27155 23.6688 5.8682 23.72C9.1353 24.043 12.4242 24.0832 15.6982 23.84C17.3882 23.7 19.2682 24.24 21.1082 23.34C22.7882 22.52 23.1782 18.09 23.2882 17.46C23.4582 16.55 23.6982 15.66 23.8782 14.76C24.0582 13.86 24.8882 7.68 24.9682 6C25.0182 5.06 24.1682 4.92 24.0582 5.81Z" fill="#998696"/>
</g>
<defs>
<clipPath id="clip0_3013_15696">
<rect width="24" height="24" fill="white" transform="translate(0.968201)"/>
</clipPath>
</defs>
</svg>
