<svg width="25" height="24" viewBox="0 0 25 24" fill="none" xmlns="http://www.w3.org/2000/svg">
<g clip-path="url(#clip0_3013_15734)">
<path fill-rule="evenodd" clip-rule="evenodd" d="M16.6782 5.61001C16.4572 5.61103 16.2365 5.59431 16.0182 5.56001C16.0782 5.34001 16.1682 5.08001 16.2582 4.80001C16.6882 3.38001 16.8982 1.89001 15.7582 0.930012C15.7053 0.888574 15.6389 0.868349 15.5718 0.87329C15.5048 0.87823 15.4421 0.907981 15.3958 0.956729C15.3496 1.00548 15.3232 1.06972 15.3218 1.1369C15.3203 1.20408 15.344 1.26937 15.3882 1.32001C16.5682 2.60001 15.1182 4.37001 14.9682 5.71001C14.8182 7.05001 18.0382 6.61001 19.1482 6.10001L20.8382 5.39001C20.9081 5.3534 20.9637 5.29422 20.9957 5.22208C21.0278 5.14994 21.0345 5.06908 21.0148 4.99263C20.9951 4.91618 20.9502 4.84863 20.8872 4.80095C20.8243 4.75328 20.7471 4.72828 20.6682 4.73001C18.5482 5.50001 18.4582 5.65001 16.6782 5.61001Z" fill="#7A387B"/>
<path fill-rule="evenodd" clip-rule="evenodd" d="M16.8482 0.06C15.4682 0 16.0982 0 6.9682 0C6.88201 0 6.79934 0.034241 6.73839 0.0951903C6.67744 0.15614 6.6432 0.238805 6.6432 0.325C6.6432 0.411195 6.67744 0.49386 6.73839 0.55481C6.79934 0.615759 6.88201 0.65 6.9682 0.65C15.4782 0.72 15.7282 0.65 16.7882 0.81C17.8482 0.97 20.5382 3.46 21.2182 4.51C21.3614 4.68332 21.4486 4.89604 21.4682 5.12C21.3682 6.66 20.7282 11.12 20.4682 12.2C20.2082 13.28 20.0182 14 19.8382 14.91C19.7682 15.27 19.3182 19.51 18.1882 20.06C16.5982 20.83 14.8182 20.32 13.1882 20.46C11.666 20.6069 10.1374 20.6769 8.6082 20.67C3.2082 20.48 3.4582 20.56 1.9982 19.86C3.3282 18.05 4.2182 13.86 4.6882 11.41C5.2182 8.71 5.0382 5.96 5.2482 3.24C5.2482 2.77 5.7182 0.24 4.9482 0.62C4.6382 0.76 4.7382 1.22 4.7382 1.43C4.7382 2.78 4.4082 8.02 4.3282 8.89C3.93201 12.1569 3.09785 15.3556 1.8482 18.4C1.6882 18.7 1.4982 18.99 1.3182 19.27C1.17392 19.4397 1.059 19.6324 0.978204 19.84C0.963058 19.9955 0.996215 20.1519 1.07316 20.2879C1.1501 20.4239 1.2671 20.5329 1.4082 20.6C2.03265 20.9529 2.70698 21.2091 3.4082 21.36C6.67856 21.6828 9.97047 21.7263 13.2482 21.49C14.9382 21.34 16.8182 21.88 18.6582 20.98C20.3382 20.16 20.7182 15.73 20.8382 15.1C21.0082 14.19 21.2482 13.3 21.4282 12.4C21.6082 11.5 22.2182 6.9 22.3082 5.16C22.3882 3.65 18.2382 0.17 16.8482 0.06Z" fill="#7A387B"/>
<path fill-rule="evenodd" clip-rule="evenodd" d="M24.0582 5.81C23.9582 7.35 23.1182 13.52 22.8982 14.56C22.6782 15.6 22.4482 16.36 22.2682 17.27C22.1982 17.63 21.7482 21.87 20.6182 22.42C19.0282 23.18 17.2482 22.68 15.6182 22.82C14.6182 22.91 12.3782 23.07 11.0382 23.03C5.88821 22.84 5.89821 23.03 4.63821 22.46C3.90821 22.17 3.72821 22.87 4.17821 23.18C4.69402 23.4842 5.27156 23.6688 5.86821 23.72C9.13531 24.043 12.4242 24.0832 15.6982 23.84C17.3882 23.7 19.2682 24.24 21.1082 23.34C22.7882 22.52 23.1782 18.09 23.2882 17.46C23.4582 16.55 23.6982 15.66 23.8782 14.76C24.0582 13.86 24.8882 7.68 24.9682 6C25.0182 5.06 24.1682 4.92 24.0582 5.81Z" fill="#998696"/>
<path fill-rule="evenodd" clip-rule="evenodd" d="M8.0882 13.86C8.02419 13.9255 7.98224 14.0094 7.9682 14.1C8.0382 14.53 10.5082 12.66 10.5782 12.61C10.7269 12.5113 10.853 12.3821 10.9481 12.231C11.0431 12.0799 11.105 11.9104 11.1296 11.7336C11.1542 11.5568 11.1409 11.3767 11.0907 11.2055C11.0404 11.0342 10.9544 10.8755 10.8382 10.74C10.0996 10.1725 9.28927 9.7051 8.4282 9.34998C7.8882 9.72998 9.4282 10.59 9.9382 11.03C10.9682 12 9.2782 12.05 8.0882 13.86Z" fill="#7A387B"/>
<path fill-rule="evenodd" clip-rule="evenodd" d="M15.9682 12C16.0398 12 16.1085 11.9715 16.1591 11.9209C16.2098 11.8703 16.2382 11.8016 16.2382 11.73C16.2382 11.6584 16.2098 11.5897 16.1591 11.5391C16.1085 11.4884 16.0398 11.46 15.9682 11.46C14.7967 11.1373 13.5597 11.1373 12.3882 11.46C12.3272 11.4666 12.2713 11.4972 12.2329 11.545C12.1945 11.5929 12.1766 11.654 12.1832 11.715C12.1898 11.776 12.2204 11.8319 12.2683 11.8703C12.3161 11.9088 12.3772 11.9266 12.4382 11.92C13.6023 12.1425 14.7953 12.1696 15.9682 12Z" fill="#7A387B"/>
</g>
<defs>
<clipPath id="clip0_3013_15734">
<rect width="24" height="24" fill="white" transform="translate(0.968201)"/>
</clipPath>
</defs>
</svg>
