<svg width="25" height="24" viewBox="0 0 25 24" fill="none" xmlns="http://www.w3.org/2000/svg">
<g clip-path="url(#clip0_3013_15648)">
<path fill-rule="evenodd" clip-rule="evenodd" d="M22.7682 10.15C22.4882 10.45 20.9882 12.15 20.7682 12.45C20.5482 12.75 20.2482 13.09 19.9982 13.45C19.4182 14.22 18.8782 15.02 18.3382 15.83C18.3093 15.8663 18.2881 15.908 18.2759 15.9528C18.2637 15.9975 18.2608 16.0442 18.2674 16.0901C18.274 16.136 18.2898 16.1801 18.314 16.2196C18.3382 16.2592 18.3703 16.2933 18.4082 16.32C18.4812 16.3768 18.5738 16.4024 18.6656 16.3911C18.7574 16.3799 18.841 16.3327 18.8982 16.26C19.5482 15.52 20.2482 14.83 20.8982 14.1C21.3382 13.61 22.8982 11.74 23.3182 11.24C23.7382 10.74 23.4282 9.44002 22.7682 10.15Z" fill="#998696"/>
<path fill-rule="evenodd" clip-rule="evenodd" d="M24.6682 7.31C24.6583 7.22427 24.6172 7.1452 24.5526 7.08799C24.488 7.03077 24.4045 6.99944 24.3182 7C24.2719 6.99862 24.2257 7.00672 24.1826 7.02382C24.1396 7.04092 24.1004 7.06665 24.0676 7.09943C24.0349 7.13221 24.0091 7.17135 23.992 7.21444C23.9749 7.25753 23.9668 7.30366 23.9682 7.35C23.9682 7.99 24.0382 10.57 24.0182 10.9C23.9983 11.3627 23.9141 11.8204 23.7682 12.26C23.6925 12.4567 23.5844 12.6392 23.4482 12.8C23.2082 13.1 22.9182 13.38 22.6682 13.64L20.5282 16C19.5282 17.11 18.6882 18.36 17.7082 19.48C17.4782 19.73 17.2182 19.95 16.9682 20.19C17.0245 19.6519 17.0512 19.1111 17.0482 18.57V17.8C17.0482 17.55 16.9782 17.29 16.9282 17.05C16.8282 16.56 16.6782 16.1 16.5482 15.62C17.4982 14.45 18.4982 13.33 19.4582 12.17C20.0682 11.45 20.6382 10.71 21.2282 9.98C22.1082 8.88 22.9682 7.76 23.8682 6.67C24.3782 6.1 24.1782 5.93 24.0682 5.85C23.6485 5.50077 23.1803 5.21444 22.6782 5C21.9691 4.69532 21.2368 4.44787 20.4882 4.26L15.2782 3C14.5206 2.81438 13.7472 2.70054 12.9682 2.66C12.3806 2.62652 11.7923 2.71154 11.2382 2.91C10.8785 3.07481 10.5422 3.28666 10.2382 3.54C9.7682 3.88 9.3782 4.28 8.9682 4.6C8.3582 5.15 7.7682 5.73 7.2182 6.33C6.3882 7.22 5.6082 8.15 4.8182 9.09C4.1782 9.84 3.4682 10.52 2.8782 11.29C2.61166 11.6365 2.37418 12.0044 2.1682 12.39C2.15346 12.4389 2.15346 12.4911 2.1682 12.54C2.00859 12.6712 1.87028 12.8264 1.7582 13C1.50446 13.3905 1.31536 13.8193 1.1982 14.27C0.865248 15.2423 0.865248 16.2977 1.1982 17.27C1.55504 18.2073 2.18135 19.0181 2.9982 19.6C3.71824 20.0998 4.53634 20.4406 5.3982 20.6C6.59858 20.7899 7.813 20.8769 9.0282 20.86C10.0882 20.86 11.4382 20.96 12.8082 21.06C14.1782 21.16 15.5082 21.28 16.5682 21.41C16.5682 21.41 17.9582 20.29 18.2282 20.03C19.2882 19.03 20.2282 17.84 21.2982 16.83C21.6182 16.53 21.9282 16.22 22.2182 15.9C22.6582 15.43 23.0682 14.9 23.4982 14.46C23.7934 14.1452 24.0673 13.8111 24.3182 13.46C24.5023 13.1869 24.6502 12.8911 24.7582 12.58C24.9093 12.0297 24.98 11.4605 24.9682 10.89C24.9682 9.68 24.7082 8.37 24.6682 7.31ZM3.7182 11.42C4.2782 10.82 4.9182 10.26 5.4882 9.65C6.3282 8.77 7.1582 7.91 8.0182 7.07C8.5782 6.52 9.1582 6 9.7782 5.48C10.1382 5.17 10.5082 4.79 10.9182 4.48C11.1444 4.29052 11.3929 4.12933 11.6582 4C12.057 3.86523 12.4778 3.80754 12.8982 3.83C13.6174 3.85208 14.3333 3.93572 15.0382 4.08L20.2882 5.08C20.9989 5.22759 21.6975 5.42815 22.3782 5.68C22.695 5.82084 22.9994 5.9881 23.2882 6.18C22.2882 7.18 21.3382 8.11 20.4082 9.13C20.0182 9.57 19.6282 10.02 19.2482 10.48C18.8682 10.94 18.4982 11.41 18.1582 11.89C15.3582 15.78 17.1582 15.25 13.8782 14.55C11.2382 14 8.6582 13 5.9682 12.59C5.3182 12.5 4.5382 12.25 3.7982 12.19C3.55012 12.1843 3.30212 12.2044 3.0582 12.25C3.26365 11.9621 3.48394 11.685 3.7182 11.42ZM12.8982 20.18C11.5382 20.03 10.1682 19.91 9.1082 19.84C7.95038 19.8132 6.79662 19.6928 5.6582 19.48C4.95978 19.3377 4.30101 19.0442 3.7282 18.62C3.09462 18.1732 2.61026 17.546 2.3382 16.82C2.09724 16.0962 2.09724 15.3138 2.3382 14.59C2.41595 14.3095 2.52322 14.0379 2.6582 13.78C2.73309 13.6046 2.8728 13.4649 3.0482 13.39C3.37819 13.3232 3.71821 13.3232 4.0482 13.39C4.6882 13.46 5.3382 13.62 5.8782 13.68C8.5482 13.95 11.1382 14.81 13.7782 15.26C14.4394 15.3823 15.1072 15.4658 15.7782 15.51C15.7382 16.1527 15.7382 16.7973 15.7782 17.44C15.8228 17.8196 15.8862 18.1967 15.9682 18.57C16.3882 21.26 17.1182 20.63 12.8982 20.18Z" fill="#7A387B"/>
<path fill-rule="evenodd" clip-rule="evenodd" d="M14.2082 16.35C13.1012 15.9536 11.9727 15.6198 10.8282 15.35C10.3327 15.2416 9.83208 15.1582 9.3282 15.1C8.82685 15.0415 8.32289 15.0081 7.8182 15C6.63969 14.9561 5.45954 15.0029 4.2882 15.14C4.24224 15.14 4.19673 15.1491 4.15426 15.1667C4.1118 15.1842 4.07322 15.21 4.04071 15.2425C4.00821 15.275 3.98243 15.3136 3.96484 15.3561C3.94725 15.3985 3.9382 15.444 3.9382 15.49C3.9382 15.536 3.94725 15.5815 3.96484 15.624C3.98243 15.6664 4.00821 15.705 4.04071 15.7375C4.07322 15.77 4.1118 15.7958 4.15426 15.8134C4.19673 15.831 4.24224 15.84 4.2882 15.84C5.2676 15.8575 6.2455 15.9243 7.2182 16.04C8.1182 16.13 9.0282 16.28 9.9282 16.39C11.3182 16.57 12.6882 16.71 14.0182 16.97C14.057 16.982 14.0978 16.9857 14.1381 16.9809C14.1784 16.9761 14.2172 16.963 14.2521 16.9422C14.287 16.9215 14.3171 16.8937 14.3405 16.8606C14.364 16.8274 14.3802 16.7898 14.3882 16.75C14.4027 16.7119 14.4095 16.6714 14.4083 16.6307C14.4071 16.5899 14.3978 16.5499 14.3811 16.5127C14.3644 16.4756 14.3405 16.4421 14.3108 16.4142C14.2812 16.3862 14.2463 16.3644 14.2082 16.35Z" fill="#998696"/>
<path fill-rule="evenodd" clip-rule="evenodd" d="M14.0182 18.53C12.9717 18.1789 11.9068 17.8851 10.8282 17.65C10.3682 17.56 9.89821 17.49 9.42821 17.43C8.95821 17.37 8.48821 17.34 8.00821 17.33C6.90479 17.2864 5.79981 17.3031 4.69821 17.38C4.65271 17.38 4.60766 17.3891 4.56575 17.4068C4.52383 17.4245 4.48589 17.4505 4.45419 17.4831C4.42248 17.5157 4.39765 17.5544 4.38116 17.5968C4.36468 17.6392 4.35687 17.6845 4.35821 17.73C4.35817 17.8211 4.39367 17.9087 4.45716 17.974C4.52065 18.0394 4.60713 18.0774 4.69821 18.08C5.30821 18.08 5.91821 18.18 6.54821 18.25C7.17821 18.32 7.75821 18.42 8.37821 18.49L10.1982 18.72C11.4582 18.85 12.6882 18.94 13.8782 19.13C13.9176 19.1406 13.9587 19.1433 13.9991 19.1379C14.0396 19.1326 14.0786 19.1193 14.1139 19.0989C14.1492 19.0785 14.1801 19.0512 14.2049 19.0188C14.2296 18.9864 14.2478 18.9494 14.2582 18.91C14.2736 18.8281 14.2574 18.7433 14.2129 18.6728C14.1684 18.6023 14.0988 18.5513 14.0182 18.53Z" fill="#998696"/>
<path fill-rule="evenodd" clip-rule="evenodd" d="M10.2582 7.77C10.4651 7.98826 10.6588 8.21867 10.8382 8.46C10.9575 8.61472 11.0645 8.77856 11.1582 8.95C11.1757 8.99284 11.2016 9.03179 11.2342 9.06457C11.2669 9.09736 11.3058 9.12334 11.3485 9.14101C11.3913 9.15868 11.4372 9.16769 11.4835 9.16752C11.5298 9.16734 11.5756 9.15799 11.6182 9.14C11.703 9.10254 11.7701 9.03381 11.8055 8.94812C11.8409 8.86243 11.8419 8.76639 11.8082 8.68C11.7258 8.40894 11.6221 8.14479 11.4982 7.89C11.3782 7.64 11.2482 7.41 11.1182 7.16L11.9082 6.92C12.0987 6.85944 12.2923 6.80937 12.4882 6.77C12.6827 6.73134 12.88 6.70794 13.0782 6.7C13.1189 6.70328 13.1599 6.69852 13.1987 6.68597C13.2376 6.67342 13.2736 6.65335 13.3047 6.62688C13.3358 6.60042 13.3614 6.56808 13.38 6.53173C13.3987 6.49537 13.4099 6.45571 13.4132 6.415C13.4165 6.37429 13.4117 6.33333 13.3992 6.29447C13.3866 6.2556 13.3665 6.21958 13.3401 6.18847C13.3136 6.15737 13.2813 6.13178 13.2449 6.11316C13.2086 6.09455 13.1689 6.08328 13.1282 6.08C12.9003 6.03756 12.6698 6.01083 12.4382 6H11.7482L10.6382 6.11L10.3082 6.16H10.1482C9.6382 6.23 9.6282 6.81 9.6282 6.82C9.65064 6.99168 9.71222 7.1559 9.8082 7.3C9.9682 7.45 10.1382 7.62 10.2582 7.77Z" fill="#7A387B"/>
<path fill-rule="evenodd" clip-rule="evenodd" d="M16.1882 7.39C16.1595 7.41796 16.1366 7.45139 16.1211 7.48831C16.1055 7.52524 16.0974 7.56492 16.0974 7.605C16.0974 7.64509 16.1055 7.68476 16.1211 7.72169C16.1366 7.75862 16.1595 7.79205 16.1882 7.82C16.4073 8.05054 16.6079 8.29797 16.7882 8.56C16.9188 8.75672 17.0325 8.96413 17.1282 9.18H17.0682C16.8281 9.21685 16.5909 9.27031 16.3582 9.34C15.8682 9.49 15.3582 9.7 14.9082 9.81C14.8169 9.82246 14.7343 9.87038 14.6781 9.94339C14.622 10.0164 14.5968 10.1086 14.6082 10.2C14.6207 10.292 14.6683 10.3756 14.7409 10.4334C14.8136 10.4911 14.9058 10.5186 14.9982 10.51L17.1482 10.32C17.3927 10.331 17.6376 10.3143 17.8782 10.27C18.0915 10.2261 18.2846 10.1137 18.4282 9.95C18.4878 9.87485 18.5303 9.7876 18.5528 9.69434C18.5752 9.60108 18.5771 9.50405 18.5582 9.41C18.4755 9.19682 18.3717 8.99246 18.2482 8.8C18.0702 8.55487 17.8693 8.32718 17.6482 8.12C17.3386 7.8309 17.004 7.56987 16.6482 7.34C16.6158 7.31073 16.5775 7.28864 16.536 7.27519C16.4944 7.26174 16.4504 7.25723 16.407 7.26195C16.3636 7.26667 16.3216 7.28052 16.2839 7.30259C16.2462 7.32465 16.2136 7.35444 16.1882 7.39Z" fill="#7A387B"/>
<path fill-rule="evenodd" clip-rule="evenodd" d="M11.4782 10.15C11.4134 10.2171 11.3772 10.3067 11.3772 10.4C11.3772 10.4932 11.4134 10.5829 11.4782 10.65C11.5099 10.6829 11.548 10.7092 11.5901 10.7271C11.6322 10.745 11.6774 10.7542 11.7232 10.7542C11.7689 10.7542 11.8142 10.745 11.8563 10.7271C11.8984 10.7092 11.9365 10.6829 11.9682 10.65L13.9682 9.20997C14.3082 8.89997 14.6582 8.59997 14.9682 8.26997C15.4382 7.77997 15.8482 7.26997 16.3282 6.73997C16.3753 6.72425 16.4179 6.69745 16.4525 6.66183C16.4871 6.6262 16.5126 6.58279 16.5269 6.53525C16.5412 6.48771 16.5439 6.43742 16.5347 6.38863C16.5255 6.33984 16.5048 6.29397 16.4742 6.25487C16.4436 6.21577 16.404 6.1846 16.3589 6.16396C16.3137 6.14333 16.2643 6.13385 16.2147 6.13631C16.1651 6.13877 16.1168 6.1531 16.0739 6.1781C16.031 6.2031 15.9948 6.23804 15.9682 6.27997C15.3734 6.63753 14.7992 7.02814 14.2482 7.44997C13.8882 7.72997 13.5682 8.04997 13.2482 8.33997L11.4782 10.15Z" fill="#7A387B"/>
</g>
<defs>
<clipPath id="clip0_3013_15648">
<rect width="24" height="24" fill="white" transform="translate(0.968201)"/>
</clipPath>
</defs>
</svg>
