<svg width="25" height="24" viewBox="0 0 25 24" fill="none" xmlns="http://www.w3.org/2000/svg">
<g clip-path="url(#clip0_3013_15620)">
<path d="M12.7382 13.43C12.895 13.4172 13.0425 13.3504 13.1555 13.2409C13.2686 13.1315 13.3402 12.9863 13.3582 12.83C13.441 10.4963 13.4043 8.15995 13.2482 5.83002C13.1282 5.57002 13.2482 5.57002 12.8882 5.35002C12.1682 4.90002 7.3082 3.39002 6.7382 4.00002C6.2382 5.29002 6.4582 10.77 6.5282 11C6.7882 11.83 11.6582 13.61 12.7382 13.43ZM7.1782 4.55002H7.5282C9.16287 4.8719 10.7609 5.35769 12.2982 6.00002C12.2982 6.24002 12.5482 6.12002 12.2982 12.3C10.5839 11.9534 8.92282 11.3817 7.3582 10.6C7.3482 10.54 7.1182 7.29002 7.1782 4.55002Z" fill="#998696"/>
<path d="M17.4682 4.10001C17.4682 4.18001 17.9182 9.74001 17.8682 10.1C17.8682 10.1 16.2282 11.17 15.9382 11.32C15.1082 11.77 14.1082 12.2 13.7482 12.32C13.5482 12.56 13.5182 13.02 14.0382 12.88C15.5297 12.4079 16.9598 11.76 18.2982 10.95C18.7914 11.0461 19.2788 11.1696 19.7582 11.32C21.5282 11.78 22.3482 11.61 22.5582 11.77C22.8582 12.1 24.0182 11.42 21.3382 10.55C20.5329 10.3174 19.696 10.2128 18.8582 10.24C18.9461 8.03434 18.802 5.82555 18.4282 3.65001C18.4124 3.55676 18.3785 3.46754 18.3282 3.38742C18.278 3.30731 18.2125 3.23787 18.1354 3.18308C18.0583 3.1283 17.9712 3.08923 17.879 3.06811C17.7869 3.04699 17.6914 3.04424 17.5982 3.06001C16.1781 3.44013 14.8278 4.0444 13.5982 4.85001C13.3582 5.13001 13.3982 5.49001 13.7382 5.52001C14.919 4.89631 16.1716 4.41943 17.4682 4.10001Z" fill="#7A387B"/>
<path d="M4.5082 12.39C5.08673 12.1715 5.6346 11.879 6.1382 11.52C6.20477 11.4946 6.26012 11.4464 6.29435 11.3839C6.32858 11.3214 6.33945 11.2488 6.32501 11.179C6.31058 11.1092 6.27178 11.0468 6.21556 11.0031C6.15935 10.9593 6.08939 10.9369 6.0182 10.94C4.0182 10.94 2.6882 12.22 2.9282 12.65C3.1682 13.08 3.7882 12.64 4.5082 12.39Z" fill="#7A387B"/>
<path d="M8.4282 3.52003C9.1182 3.19003 12.1482 2.20003 12.2282 2.18003C13.6478 2.26303 15.0588 2.45696 16.4482 2.76003C16.5012 2.81572 16.5742 2.84807 16.6511 2.84994C16.728 2.85182 16.8025 2.82307 16.8582 2.77003C16.9139 2.71698 16.9462 2.64399 16.9481 2.5671C16.95 2.49021 16.9212 2.41572 16.8682 2.36003C15.3453 1.58901 13.6739 1.15581 11.9682 1.09003C10.7548 1.498 9.58282 2.02035 8.4682 2.65003C8.0782 2.86003 7.4082 3.20003 7.5682 3.65003C7.7282 4.10003 8.2982 3.58003 8.4282 3.52003Z" fill="#7A387B"/>
<path d="M19.4882 21.4C19.5697 19.189 19.5196 16.9751 19.3382 14.77C19.3382 14.5 19.3382 14.5 18.9782 14.3C18.2482 13.92 13.3382 13.03 12.7782 13.64C12.7182 13.78 12.5982 13.41 12.5382 15.64C12.4582 18.71 12.5382 19.77 12.9082 20.32C13.6382 20.94 17.6982 22.66 18.8282 22.39C19.1182 22.34 19.5182 22.38 19.4882 21.4ZM18.3682 21.29C16.947 21.0053 15.5595 20.573 14.2282 20C13.9796 19.9209 13.7359 19.8274 13.4982 19.72C13.275 17.8788 13.1814 16.0243 13.2182 14.17C13.3082 13.81 17.8982 14.8 18.3982 15.09C18.5382 16.06 18.3882 20.92 18.3682 21.29Z" fill="#998696"/>
<path d="M11.1282 20.42C10.6782 20.62 10.1982 20.87 9.76819 21.1C9.10819 21.45 9.02819 21.5 8.76819 21.61C8.23819 21.95 7.96819 22.49 8.76819 22.49C9.95667 22.2006 11.082 21.6955 12.0882 21C12.7182 20.29 12.5782 19.71 12.0882 20L11.1282 20.42Z" fill="#7A387B"/>
<path d="M8.0282 21.5101C8.0582 20.0001 7.9682 16.0001 7.9682 15.4601C7.93088 15.2772 7.83939 15.1097 7.70563 14.9795C7.57187 14.8493 7.40203 14.7624 7.2182 14.7301C6.4382 14.6001 1.9682 12.9401 1.3382 13.5901L1.1982 14.0001C0.778197 14.4301 1.0382 20.2701 1.1382 20.5801C1.3582 21.2901 4.7282 22.4401 5.4382 22.6601C6.08634 22.8533 6.76273 22.9345 7.4382 22.9001C7.56605 22.8913 7.6874 22.8404 7.78329 22.7554C7.87917 22.6703 7.94419 22.5559 7.9682 22.4301C7.9682 22.2201 8.0282 21.5101 8.0282 21.5101ZM6.8882 21.8801C5.46606 21.5852 4.07856 21.1428 2.7482 20.5601C2.3782 20.4001 1.8582 20.2901 1.9682 20.1701C1.98063 20.047 1.98063 19.9231 1.9682 19.8001C1.9682 19.8001 1.4282 14.0001 2.1382 14.1101C3.77325 14.4397 5.37122 14.9322 6.9082 15.5801C6.9082 15.8201 7.1482 15.7201 6.8882 21.8801Z" fill="#998696"/>
<path d="M11.5582 14.12C11.5989 14.1036 11.636 14.0793 11.6673 14.0486C11.6986 14.0178 11.7236 13.9812 11.7408 13.9408C11.758 13.9004 11.767 13.8571 11.7674 13.8132C11.7679 13.7693 11.7596 13.7257 11.7432 13.685C11.7268 13.6443 11.7025 13.6072 11.6718 13.5759C11.641 13.5446 11.6044 13.5196 11.564 13.5024C11.5236 13.4853 11.4802 13.4762 11.4363 13.4758C11.3925 13.4754 11.3489 13.4836 11.3082 13.5C10.4563 13.6616 9.61735 13.8856 8.7982 14.17C8.56948 14.285 8.35473 14.426 8.1582 14.59C7.8282 15 8.0282 15.09 8.6182 15.18C9.66982 15.071 10.679 14.7072 11.5582 14.12Z" fill="#7A387B"/>
<path d="M24.5282 12.65C24.4986 12.4619 24.3958 12.2931 24.2421 12.1807C24.0884 12.0682 23.8964 12.0213 23.7082 12.05C22.2195 12.4888 20.8041 13.146 19.5082 14C19.0882 14.27 19.3382 14.81 19.8482 14.55C21.0306 13.9302 22.2783 13.4439 23.5682 13.1C23.5682 13.66 23.6282 12.97 23.8282 16.84C23.9682 19.44 24.0282 18.98 23.7682 19.19C22.64 20.0012 21.4178 20.6727 20.1282 21.19C19.5782 21.59 19.4982 22.05 20.1282 21.99C21.8582 21.3 24.7382 19.99 24.9382 19.37C25.0473 17.1218 24.9098 14.8683 24.5282 12.65Z" fill="#7A387B"/>
</g>
<defs>
<clipPath id="clip0_3013_15620">
<rect width="24" height="24" fill="white" transform="translate(0.968201)"/>
</clipPath>
</defs>
</svg>
