<svg width="25" height="24" viewBox="0 0 25 24" fill="none" xmlns="http://www.w3.org/2000/svg">
<g clip-path="url(#clip0_3013_15631)">
<path fill-rule="evenodd" clip-rule="evenodd" d="M24.8782 15.38C24.9381 14.9023 24.9681 14.4214 24.9682 13.94C24.9682 11.39 24.6482 11.52 23.9682 11.76C23.4095 11.9561 22.8732 12.2109 22.3682 12.52C22.0504 12.7229 21.7464 12.9468 21.4582 13.19C21.1482 13.46 20.8582 13.74 20.5582 14.01C19.6782 13.86 18.8082 13.69 17.9182 13.56C17.4882 13.5 17.0482 13.46 16.6082 13.42H14.3282C13.5682 13.42 12.5582 13.62 11.6682 13.73C12.0452 13.4514 12.4027 13.1474 12.7382 12.82C12.9867 12.5442 13.2141 12.2501 13.4182 11.94C14.8182 9.94 14.6482 10.61 14.6482 10.33C14.7182 9.74 14.7982 9.16 14.8282 8.56V7.8C14.8202 7.55212 14.7968 7.30498 14.7582 7.06C14.6782 6.47 14.5382 5.91 14.4282 5.32C14.431 5.23942 14.4022 5.16094 14.3481 5.10119C14.294 5.04145 14.2187 5.00515 14.1382 5C14.0546 5.0033 13.9757 5.03919 13.9182 5.1C13.8679 5.09785 13.8178 5.10657 13.7712 5.12555C13.7246 5.14453 13.6827 5.17334 13.6482 5.21C13.2682 5.51 12.8782 5.78 12.4982 6.09L12.0382 6.49C11.8906 6.62918 11.7504 6.77605 11.6182 6.93C11.4182 7.16 11.2482 7.39 11.0782 7.62C10.0782 7.62 9.01821 7.53 7.97821 7.5H6.55821C6.07821 7.5 5.61821 7.5 5.14821 7.56C4.30821 7.62 3.48821 7.72 2.65821 7.82C2.70121 7.77248 2.74129 7.72239 2.77821 7.67C2.85136 7.56595 2.91495 7.4555 2.96821 7.34C3.08821 7.07 3.13821 6.8 3.23821 6.52C3.26903 6.47941 3.29114 6.43288 3.30314 6.38334C3.31514 6.3338 3.31678 6.28232 3.30794 6.23211C3.29911 6.18191 3.28 6.13408 3.25181 6.09161C3.22362 6.04914 3.18696 6.01296 3.14413 5.98532C3.1013 5.95769 3.05322 5.9392 3.0029 5.93103C2.95259 5.92285 2.90113 5.92515 2.85175 5.9378C2.80237 5.95044 2.75614 5.97316 2.71595 6.00451C2.67576 6.03586 2.64249 6.07518 2.61821 6.12C2.39821 6.33 2.18821 6.51 1.98821 6.73C1.89943 6.8148 1.81594 6.90497 1.73821 7C1.68564 7.08336 1.63886 7.17023 1.59821 7.26C1.31378 7.99931 1.18115 8.78833 1.20821 9.58C1.13821 10.47 1.10821 11.37 1.06821 12.26C1.06821 12.5 0.968207 12.94 0.968207 13.31C0.963053 13.5465 1.00733 13.7816 1.09821 14C1.18304 14.1409 1.29525 14.2633 1.42821 14.36C1.25037 15.1083 1.14324 15.8717 1.10821 16.64C1.09497 17.1812 1.12171 17.7227 1.18821 18.26C1.52821 21.42 0.00820732 21.26 5.36821 21.26C6.12821 21.26 6.88821 21.26 7.63821 21.16C8.77821 21.09 9.90821 20.95 11.0382 20.87H11.1582C12.2082 20.95 13.2482 21.09 14.3082 21.14H16.6782L19.5182 20.87C19.6046 20.8556 19.6832 20.8111 19.7398 20.7442C19.7965 20.6774 19.8276 20.5926 19.8276 20.505C19.8276 20.4174 19.7965 20.3326 19.7398 20.2658C19.6832 20.1989 19.6046 20.1544 19.5182 20.14L16.6382 20.01C15.8582 20.01 15.0782 19.94 14.2982 19.95C13.5182 19.96 12.5782 20.04 11.7182 20.13C11.7982 19.53 11.8782 18.95 11.9182 18.35V17.48V16.61C11.8382 15.93 11.6882 15.27 11.5582 14.61L16.5582 14.77C21.5582 14.96 20.2782 14.51 20.2482 16.71C20.2469 17.1576 20.2702 17.605 20.3182 18.05C20.3682 18.71 20.4582 19.36 20.4482 20.05C20.4438 20.0966 20.4438 20.1434 20.4482 20.19C20.4482 20.19 20.3582 20.29 20.3182 20.35C20.2583 20.4116 20.2249 20.4941 20.2249 20.58C20.2249 20.6659 20.2583 20.7484 20.3182 20.81C20.3809 20.8676 20.463 20.8996 20.5482 20.8996C20.6334 20.8996 20.7155 20.8676 20.7782 20.81C21.2982 20.44 21.8382 20.12 22.3482 19.74C22.5682 19.58 22.7682 19.4 22.9782 19.22C23.1882 19.04 23.3682 18.85 23.5582 18.65C23.7482 18.45 23.9182 18.22 24.1082 18.01C24.8782 17.89 24.8682 15.52 24.8782 15.38ZM12.4182 7.81C12.5895 7.68718 12.7501 7.55002 12.8982 7.4C13.0486 7.25293 13.1889 7.09591 13.3182 6.93C13.4582 6.76 13.5782 6.57 13.7082 6.39C13.7082 6.63 13.6382 6.87 13.6282 7.11C13.6182 7.35 13.6282 7.61 13.6282 7.86C13.6282 8.11 13.6282 8.36 13.6982 8.61C13.6982 9.09 13.8282 9.61 13.8882 10.03H13.8082C13.3782 10.39 12.9682 10.74 12.5682 11.14C12.4082 11.3 12.2482 11.47 12.0982 11.65C11.9694 11.8067 11.8492 11.9703 11.7382 12.14C11.7382 11.89 11.8182 11.64 11.8382 11.39C11.8534 11.1436 11.8534 10.8964 11.8382 10.65C11.8364 10.4059 11.8197 10.1621 11.7882 9.92C11.7182 9.38 11.5882 8.86 11.4782 8.33C11.8008 8.17393 12.1146 8.00034 12.4182 7.81ZM5.16821 8.74H6.58821C7.06821 8.74 7.52821 8.74 8.00821 8.67C11.4682 8.45 10.7582 8 10.6282 10V10.73C10.6282 10.97 10.6282 11.21 10.6782 11.45C10.7382 12.01 10.8282 12.56 10.8782 13.12C10.8773 13.1701 10.8866 13.2199 10.9055 13.2663C10.9244 13.3127 10.9525 13.3548 10.9882 13.39V13.46C10.3782 13.46 9.75821 13.53 9.13821 13.55H4.07821C3.68192 13.5746 3.28449 13.5746 2.88821 13.55C2.71653 13.5354 2.5461 13.5087 2.37821 13.47C2.31821 13.47 2.22821 13.47 2.21821 13.41V12.24C2.16821 11.35 2.09821 10.47 2.08821 9.58V8.58C3.08821 8.62 4.11821 8.71 5.16821 8.74ZM10.8982 20.11C9.82821 20 8.76821 20 7.69821 20H6.26821C5.83821 20 5.32821 20 4.84821 20.07C3.98821 20.14 3.13821 20.24 2.28821 20.33C2.28821 19.54 2.36821 18.75 2.35821 17.95C2.35821 17.43 2.35821 16.9 2.29821 16.38C2.23821 15.86 2.21821 15.27 2.18821 14.73C2.81557 14.8364 3.45314 14.87 4.08821 14.83C5.53821 14.72 6.97821 14.65 8.41821 14.53C9.18821 14.46 9.95821 14.37 10.7182 14.26C10.7634 15.0293 10.7634 15.8007 10.7182 16.57V17.42C10.7182 17.7 10.7182 17.99 10.7682 18.28C10.7682 18.9 10.8982 19.5 10.9482 20.12L10.8982 20.11ZM22.7782 17.67C22.4266 17.9311 22.0926 18.2151 21.7782 18.52C21.6082 18.69 21.4682 18.88 21.3182 19.06C21.3682 18.69 21.4582 18.33 21.4782 17.96C21.4982 17.59 21.4782 17.38 21.4782 17.09C21.4698 16.809 21.4464 16.5286 21.4082 16.25C21.3382 15.7 21.2382 15.16 21.1582 14.62C21.5544 14.4644 21.936 14.2736 22.2982 14.05C22.608 13.841 22.9051 13.6139 23.1882 13.37L23.8282 12.84L23.7382 13.6C23.7382 13.9 23.7382 14.19 23.6782 14.49C23.6182 14.79 23.6782 15.08 23.6782 15.38C23.6782 15.89 23.6782 16.38 23.7582 16.91C23.4582 17.16 23.1082 17.41 22.7782 17.67Z" fill="#7A387B"/>
<path fill-rule="evenodd" clip-rule="evenodd" d="M15.0582 12.66C15.4987 12.7319 15.9496 12.7045 16.3782 12.58C17.1882 12.28 16.8582 11.58 16.1282 11.44C15.6666 11.336 15.1834 11.3924 14.7582 11.6C13.9682 12 14.4382 12.49 15.0582 12.66Z" fill="#998696"/>
<path fill-rule="evenodd" clip-rule="evenodd" d="M4.58821 5.79C5.02896 5.85583 5.47862 5.82857 5.90821 5.71C6.71821 5.41 6.38821 4.71 5.65821 4.56C5.1964 4.46067 4.7147 4.51692 4.28821 4.72C3.49821 5.11 3.96821 5.62 4.58821 5.79Z" fill="#998696"/>
<path fill-rule="evenodd" clip-rule="evenodd" d="M17.1282 10.91C17.5687 10.9818 18.0196 10.9545 18.4482 10.83C19.2482 10.53 18.9282 9.82999 18.1882 9.68999C17.7297 9.59142 17.2514 9.64769 16.8282 9.84999C16.0282 10.24 16.5082 10.75 17.1282 10.91Z" fill="#998696"/>
<path fill-rule="evenodd" clip-rule="evenodd" d="M6.65821 4.00004C7.09018 4.09067 7.53625 4.09067 7.96821 4.00004C8.76821 3.70004 8.44821 3.00004 7.70821 2.85004C7.25394 2.75063 6.77958 2.80333 6.35821 3.00004C5.55821 3.36004 6.03821 3.87004 6.65821 4.00004Z" fill="#998696"/>
<path fill-rule="evenodd" clip-rule="evenodd" d="M19.3582 12.66C19.7987 12.7319 20.2496 12.7045 20.6782 12.58C21.4782 12.28 21.1582 11.58 20.4282 11.44C19.9666 11.336 19.4834 11.3924 19.0582 11.6C18.2682 12 18.7382 12.49 19.3582 12.66Z" fill="#998696"/>
<path fill-rule="evenodd" clip-rule="evenodd" d="M8.88821 5.78999C9.32897 5.85582 9.77863 5.82857 10.2082 5.70999C11.0082 5.40999 10.6882 4.70999 9.94821 4.55999C9.48966 4.46141 9.01136 4.51768 8.58821 4.71999C7.79821 5.10999 8.26821 5.61999 8.88821 5.78999Z" fill="#998696"/>
<path fill-rule="evenodd" clip-rule="evenodd" d="M21.4282 10.91C21.8687 10.9819 22.3196 10.9545 22.7482 10.83C23.5482 10.53 23.2182 9.83 22.4882 9.69C22.0263 9.59218 21.5451 9.64838 21.1182 9.85001C20.3282 10.24 20.8082 10.75 21.4282 10.91Z" fill="#998696"/>
<path fill-rule="evenodd" clip-rule="evenodd" d="M10.9682 4.00002C11.4002 4.09064 11.8462 4.09064 12.2782 4.00002C13.0782 3.70002 12.7582 3.00002 12.0182 2.85002C11.5574 2.74908 11.0762 2.80176 10.6482 3.00002C9.85821 3.36002 10.3382 3.87002 10.9682 4.00002Z" fill="#998696"/>
</g>
<defs>
<clipPath id="clip0_3013_15631">
<rect width="24" height="24" fill="white" transform="translate(0.968201)"/>
</clipPath>
</defs>
</svg>
