<svg width="25" height="24" viewBox="0 0 25 24" fill="none" xmlns="http://www.w3.org/2000/svg">
<g clip-path="url(#clip0_3013_15605)">
<path fill-rule="evenodd" clip-rule="evenodd" d="M23.2382 12.68L22.9882 12.08C22.9424 11.9779 22.8655 11.893 22.7685 11.8373C22.6715 11.7816 22.5594 11.7581 22.4482 11.77C22.1282 11.82 21.7982 11.94 21.4482 11.97C21.3707 11.9719 21.2942 11.9524 21.2272 11.9136C21.1601 11.8748 21.1051 11.8181 21.0682 11.75C21.0296 11.6831 21.0093 11.6072 21.0093 11.53C21.0093 11.4527 21.0296 11.3769 21.0682 11.31C21.2 11.0659 21.3725 10.8461 21.5782 10.66C21.6582 10.58 21.8882 10.39 22.0182 10.24C22.1364 10.1146 22.2071 9.95192 22.2182 9.77998C22.228 9.65777 22.2109 9.53489 22.1682 9.41998C22.1682 9.28998 21.9982 9.10998 21.9782 9.02998L21.3882 7.81998C21.2897 7.62676 21.1795 7.43975 21.0582 7.25998C20.96 7.12851 20.8182 7.03633 20.6582 6.99998C20.5297 6.9718 20.3967 6.9718 20.2682 6.99998C20.1482 6.99998 19.9682 7.14998 19.8982 7.17998L18.9682 7.61998C18.8782 7.51998 18.7882 7.43998 18.7682 7.41998C18.5484 7.18573 18.2733 7.01038 17.9682 6.90998C17.6714 6.81486 17.3578 6.78418 17.0482 6.81998C16.5174 6.87786 16.0298 7.13959 15.6882 7.54998C15.5181 7.74807 15.3903 7.97895 15.3129 8.22835C15.2355 8.47774 15.2101 8.74036 15.2382 8.99998C15.2607 9.1433 15.2976 9.28401 15.3482 9.41998C15.3706 9.48503 15.3973 9.5485 15.4282 9.60998L15.0482 9.76998L14.4482 10.06C13.9282 10.51 14.1482 10.99 14.7082 10.77L15.3382 10.52C15.5182 10.46 15.7582 10.42 15.9682 10.35C16.0912 10.3075 16.2087 10.2504 16.3182 10.18C16.4026 10.1057 16.4602 10.0057 16.4819 9.89538C16.5036 9.78506 16.4882 9.67066 16.4382 9.56998C16.4382 9.50998 16.3282 9.35998 16.3282 9.34998L16.2082 8.90998C16.2064 8.6587 16.2992 8.41593 16.4682 8.22998C16.656 8.07413 16.8943 7.99233 17.1382 7.99998C17.2823 7.99606 17.4256 8.02335 17.5582 8.07998C17.6745 8.12804 17.7774 8.20352 17.8582 8.29998C17.8582 8.29998 18.0682 8.65998 18.1482 8.77998C18.2097 8.88279 18.2958 8.96865 18.3988 9.02976C18.5019 9.09088 18.6185 9.12532 18.7382 9.12998C18.859 9.10947 18.9745 9.06529 19.0782 8.99998L19.3982 8.80998L20.2882 8.45998L20.8382 9.53998L20.8882 9.68998L20.7182 9.80998C20.3576 10.189 20.0995 10.6536 19.9682 11.16C19.9219 11.3743 19.9249 11.5964 19.9769 11.8095C20.0288 12.0225 20.1284 12.221 20.2682 12.39C20.3877 12.5639 20.5453 12.7083 20.729 12.8123C20.9126 12.9162 21.1176 12.977 21.3282 12.99C21.6455 12.9767 21.9589 12.9161 22.2582 12.81C22.3382 12.93 22.4482 13.05 22.4482 13.06C22.6482 13.45 22.8782 13.84 23.0782 14.23C23.1282 14.34 23.1682 14.46 23.2182 14.57C23.0282 14.66 22.8482 14.76 22.6482 14.84C22.2382 15.01 21.8082 15.11 21.3882 15.25C20.9682 15.39 20.5282 15.59 20.1182 15.76L18.5982 16.69L17.5982 17.18C17.4895 17.229 17.4047 17.3193 17.3625 17.4309C17.3203 17.5425 17.3241 17.6662 17.3732 17.775C17.4223 17.8837 17.5125 17.9685 17.6241 18.0107C17.7357 18.0529 17.8595 18.049 17.9682 18C18.8708 17.7298 19.7531 17.3956 20.6082 17C20.8982 16.88 21.1982 16.77 21.4882 16.63C21.7782 16.49 22.0882 16.33 22.3682 16.17C22.6652 15.9781 22.9523 15.7711 23.2282 15.55L23.1682 16.66C23.1682 17.34 23.1682 17.53 22.3182 18.13C21.698 18.5062 21.0532 18.8403 20.3882 19.13C19.8282 19.43 19.2282 19.69 18.6382 19.94C18.3282 20.08 17.9982 20.21 17.6382 20.34C17.6382 20.09 17.7282 19.05 17.2782 19.05C16.8282 19.05 16.4982 19.3 16.6282 20.13C16.6782 20.46 16.7282 20.35 16.8382 20.67L14.3382 21.67C13.4182 22.06 12.5682 22.53 11.6582 22.9C11.2877 23.0535 10.9067 23.1805 10.5182 23.28C10.4187 23.3025 10.3323 23.3637 10.2779 23.4499C10.2235 23.5362 10.2057 23.6405 10.2282 23.74C10.2507 23.8394 10.3119 23.9259 10.3981 23.9802C10.4844 24.0346 10.5887 24.0525 10.6882 24.03C11.1234 23.9384 11.5513 23.8148 11.9682 23.66C12.9082 23.36 13.7982 22.96 14.7282 22.66C15.9882 22.22 17.2782 21.84 18.5082 21.35C19.3537 21.0083 20.1755 20.6108 20.9682 20.16C21.667 19.7932 22.3357 19.3719 22.9682 18.9C23.4011 18.5411 23.7436 18.0855 23.9682 17.57C24.024 17.4655 24.0516 17.3483 24.0482 17.23C24.0482 17.01 23.9482 16.7 23.9382 16.55C23.8682 13.51 24.7082 16.07 23.2382 12.68Z" fill="#7A387B"/>
<path fill-rule="evenodd" clip-rule="evenodd" d="M9.3982 23.18C8.83843 22.9335 8.36739 22.5217 8.0482 22C7.52924 21.1065 7.0812 20.1736 6.7082 19.21C6.4682 18.69 6.2482 18.16 6.0282 17.63C5.6682 16.83 4.5482 14 4.5182 13.91C4.2382 13.22 3.9082 12.54 3.6382 11.85C3.5282 11.57 3.4182 11.29 3.3182 11C3.2182 10.71 3.0682 10.18 2.9682 9.75998C2.89468 9.51004 2.8346 9.25634 2.7882 8.99998C2.72752 8.77949 2.72608 8.54689 2.78402 8.32567C2.84196 8.10444 2.95723 7.90241 3.1182 7.73997C3.2982 7.48997 3.4982 7.25998 3.6982 7.02998C3.7927 7.85379 3.93292 8.67172 4.1182 9.47997C4.3182 10.37 4.6482 11.06 4.9182 11.96C5.0182 12.28 5.0482 12.44 5.2282 12.91C5.29725 13.0096 5.39725 13.0835 5.51267 13.1205C5.62809 13.1574 5.75246 13.1551 5.86648 13.1141C5.98049 13.073 6.07775 12.9955 6.14317 12.8935C6.20858 12.7915 6.23847 12.6707 6.2282 12.55C6.0782 12.16 6.0382 12.03 5.9182 11.74C5.5082 10.74 5.1282 9.73997 4.8182 8.73997C4.6382 7.99998 4.4582 7.30998 4.3182 6.59998C4.3182 6.59998 4.3182 6.53998 4.2582 6.49998C5.4682 6.05998 6.6682 5.49998 7.8882 5.06998C8.42663 4.86726 8.97782 4.70023 9.5382 4.56998C9.90674 4.38983 10.2919 4.24583 10.6882 4.13998C10.7882 4.32998 10.9382 4.59998 11.0582 4.87998C11.1726 5.11762 11.2534 5.37004 11.2982 5.62998C11.2982 5.62998 11.2982 5.74998 11.2982 5.62998C11.2313 5.74587 11.1507 5.85331 11.0582 5.94998C10.8292 6.19188 10.6402 6.46867 10.4982 6.76998C10.421 6.94306 10.3811 7.13045 10.3811 7.31998C10.3811 7.5095 10.421 7.6969 10.4982 7.86998C10.6366 8.26852 10.8908 8.6167 11.2282 8.86998C11.5875 9.12562 12.0328 9.22978 12.4682 9.15998H12.6582C12.6524 9.19306 12.6524 9.22689 12.6582 9.25998L12.9882 10.09C13.2882 10.61 13.8482 10.14 13.7582 9.71998L13.5082 8.93997C13.4466 8.72278 13.3732 8.50913 13.2882 8.29998C13.2529 8.21984 13.1975 8.15014 13.1275 8.09759C13.0574 8.04505 12.975 8.01143 12.8882 7.99998C12.7928 7.97814 12.6936 7.97814 12.5982 7.99998C12.5182 7.99998 12.2282 8.06998 12.2382 8.16998C12.0998 8.1544 11.9701 8.09481 11.8682 7.99998C11.7277 7.86918 11.6242 7.7036 11.5682 7.51998C11.5502 7.48075 11.5409 7.43812 11.5409 7.39498C11.5409 7.35183 11.5502 7.3092 11.5682 7.26998C11.7162 7.05236 11.8909 6.85415 12.0882 6.67998C12.3068 6.44874 12.4648 6.16705 12.5482 5.85998C12.5847 5.5193 12.533 5.17496 12.3982 4.85998C12.2032 4.33641 11.9622 3.83111 11.6782 3.34998C11.5947 3.22122 11.4756 3.11955 11.3353 3.0574C11.195 2.99524 11.0396 2.97529 10.8882 2.99998C10.3171 3.1065 9.75275 3.24675 9.1982 3.41998C8.60881 3.61172 8.03399 3.84566 7.4782 4.11998C6.2082 4.68998 4.9682 5.40998 3.7382 5.99998L3.5182 6.14998C3.1882 6.48998 2.8282 6.83997 2.5182 7.21997C2.29162 7.48588 2.08758 7.77019 1.9082 8.06997C1.86036 8.17374 1.83319 8.28582 1.8282 8.39997C1.8282 8.61997 1.8782 8.93997 1.8782 9.06997C1.8782 9.37997 1.9382 9.67998 1.9982 9.98997C2.0582 10.3 2.1582 10.86 2.2482 11.3C2.34917 11.7415 2.47946 12.1758 2.6382 12.6C2.8582 13.2 3.1082 13.8 3.3382 14.4C3.7682 15.49 4.1882 16.58 4.6582 17.65C4.9882 18.37 5.3482 19.08 5.7282 19.77C6.18398 20.7519 6.71909 21.695 7.3282 22.59C7.7959 23.2366 8.45817 23.7166 9.2182 23.96C9.28971 23.9797 9.36556 23.9768 9.43536 23.9517C9.50517 23.9267 9.56554 23.8806 9.6082 23.82C9.66475 23.8763 9.73885 23.9116 9.8182 23.92C9.86842 23.9241 9.91895 23.9179 9.96669 23.9018C10.0144 23.8856 10.0584 23.8599 10.0958 23.8262C10.1333 23.7925 10.1634 23.7515 10.1845 23.7057C10.2055 23.6599 10.217 23.6103 10.2182 23.56C10.3304 23.11 10.4073 22.6519 10.4482 22.19C10.1782 21.67 9.8882 21.5 9.4482 21.88C9.34544 22.3057 9.32844 22.7476 9.3982 23.18Z" fill="#7A387B"/>
<path fill-rule="evenodd" clip-rule="evenodd" d="M12.5782 1.74996L12.8582 2.10996C12.9582 2.21996 13.0582 2.32997 13.1682 2.42997C14.1682 3.42997 14.1682 3.42996 14.4282 3.33996C14.8782 3.11996 14.2282 1.81996 14.1482 1.67996C14.059 1.5188 13.9479 1.37073 13.8182 1.23996C13.6992 1.10492 13.565 0.984113 13.4182 0.879965C12.1082 -0.120035 11.8782 0.219965 11.7882 0.359965C11.6982 0.499965 11.7482 0.719965 12.5782 1.74996Z" fill="#998696"/>
<path fill-rule="evenodd" clip-rule="evenodd" d="M16.4982 2.99997C16.6082 2.99997 16.8182 3.10997 17.3382 1.99997C17.3913 1.8952 17.4316 1.7844 17.4582 1.66997C17.4582 1.55997 17.4582 1.44997 17.5182 1.33997C17.6182 0.279973 17.6582 0.139973 17.3882 0.0199731C17.2782 0.0199731 16.9582 -0.200027 16.3882 1.01997C16.3254 1.13304 16.2783 1.25416 16.2482 1.37997C16.2105 1.50014 16.187 1.62433 16.1782 1.74997C16.1782 1.74997 16.1282 2.99997 16.4982 2.99997Z" fill="#998696"/>
<path fill-rule="evenodd" clip-rule="evenodd" d="M20.1982 3.99999C20.3482 3.92999 20.4882 3.84999 20.6282 3.76999L21.0582 3.49999C22.2282 2.72999 22.4582 2.67999 22.3282 2.31999C22.2682 2.16999 22.1782 1.84999 20.5282 2.39999C20.3421 2.46547 20.1615 2.54572 19.9882 2.63999C19.8149 2.7383 19.6509 2.8521 19.4982 2.97999C19.2582 3.19999 18.2882 4.21999 18.6482 4.55999C19.0082 4.89999 18.8782 4.68999 20.1982 3.99999Z" fill="#998696"/>
<path fill-rule="evenodd" clip-rule="evenodd" d="M16.9682 17.24L16.3982 15.76C16.5682 15.66 16.7582 15.58 16.7682 15.57C17.108 15.2852 17.3725 14.9212 17.5382 14.51C17.663 14.1921 17.6942 13.8451 17.6282 13.51C17.5928 13.3069 17.5159 13.1133 17.4024 12.9412C17.2888 12.7692 17.141 12.6224 16.9682 12.51C16.5267 12.2251 16.0004 12.1015 15.4782 12.16L14.8982 12.28L14.7682 12.12L14.1382 11C14.1382 11 13.9582 10.43 13.7882 10.38C13.3082 10.24 12.3982 11.09 12.0182 11.32C11.8702 11.4098 11.7166 11.49 11.5582 11.56C11.4682 11.56 11.0582 11.71 10.8982 11.79C10.7844 11.8556 10.6963 11.9578 10.6482 12.08C10.6312 12.1692 10.6312 12.2608 10.6482 12.35C10.6482 12.5 10.7782 12.8 10.7782 12.92C10.7938 13.1734 10.7493 13.427 10.6482 13.66C10.5714 13.8495 10.4296 14.0055 10.2482 14.1C10.1871 14.1341 10.1182 14.1521 10.0482 14.1521C9.97818 14.1521 9.90933 14.1341 9.8482 14.1C9.62981 13.9771 9.43645 13.8143 9.2782 13.62C9.12385 13.429 8.9568 13.2485 8.7782 13.08C8.61457 12.9526 8.41538 12.8792 8.2082 12.87C8.06611 12.8783 7.92531 12.9018 7.7882 12.94C7.4282 13.02 7.0582 13.21 6.7182 13.25H6.5882C6.2682 13.12 5.4082 13.7 5.5282 14.04C5.5282 14.11 6.5282 16.42 6.8782 17.24C7.1382 17.89 7.3982 18.53 7.6782 19.16C7.86854 19.6442 8.1099 20.1068 8.3982 20.54C8.57776 20.7611 8.79024 20.9534 9.0282 21.11C9.42011 21.3209 9.85405 21.442 10.2986 21.4645C10.7431 21.487 11.187 21.4103 11.5982 21.24C12.2826 21.0524 12.9513 20.8116 13.5982 20.52C14.2186 20.2186 14.8228 19.8848 15.4082 19.52C15.6582 19.37 16.1282 19.18 16.4882 18.95C16.4882 19.03 17.1782 18.54 17.2382 18.3C17.261 17.9271 17.1666 17.5565 16.9682 17.24ZM16.0382 14.72C16.0382 14.72 15.5882 15.02 15.4382 15.14C15.3346 15.2141 15.2554 15.3174 15.2109 15.4368C15.1664 15.5562 15.1585 15.6861 15.1882 15.81L15.7682 17.6L15.8682 17.78L15.6682 17.89C15.3282 18.08 14.9082 18.25 14.6682 18.38C14.1182 18.71 13.5582 19.02 12.9682 19.3C12.3962 19.5738 11.8046 19.8045 11.1982 19.99C10.9039 20.0906 10.5982 20.1544 10.2882 20.18C10.0214 20.2039 9.75285 20.1591 9.5082 20.05C9.34543 19.9629 9.20772 19.8355 9.1082 19.68C8.8903 19.3615 8.69643 19.0272 8.5282 18.68C8.1282 17.93 7.7582 17.17 7.3982 16.4C7.0382 15.63 6.8482 15.16 6.5782 14.53H6.7882C8.6282 14.05 7.9482 14.16 8.3182 14.53C8.64976 14.8966 9.06981 15.172 9.5382 15.33C9.73467 15.3924 9.94201 15.413 10.1469 15.3907C10.3519 15.3683 10.5498 15.3033 10.7282 15.2C11.0613 15.0132 11.3272 14.7263 11.4882 14.38C11.7087 13.9235 11.7921 13.4129 11.7282 12.91C11.7034 12.8183 11.659 12.733 11.5982 12.66C11.7382 12.59 11.8882 12.47 11.9282 12.45C12.1139 12.3496 12.2941 12.2394 12.4682 12.12C12.7782 11.9 13.0782 11.65 13.3982 11.43L13.9982 12.62C14.0553 12.7918 14.1325 12.9563 14.2282 13.11C14.3059 13.2079 14.4157 13.2752 14.5382 13.3C14.6741 13.3201 14.8123 13.3201 14.9482 13.3C15.1482 13.3 15.3782 13.2 15.5582 13.19C15.8052 13.1757 16.0512 13.2312 16.2682 13.35C16.3512 13.3881 16.4242 13.445 16.4815 13.5161C16.5387 13.5873 16.5787 13.6708 16.5982 13.76C16.6203 13.9407 16.5816 14.1237 16.4882 14.28C16.3654 14.4487 16.2169 14.5972 16.0482 14.72H16.0382Z" fill="#998696"/>
</g>
<defs>
<clipPath id="clip0_3013_15605">
<rect width="24" height="24" fill="white" transform="translate(0.968201)"/>
</clipPath>
</defs>
</svg>
