<svg width="25" height="24" viewBox="0 0 25 24" fill="none" xmlns="http://www.w3.org/2000/svg">
<g clip-path="url(#clip0_3013_15532)">
<path fill-rule="evenodd" clip-rule="evenodd" d="M24.5982 7.42001C24.4782 6.25001 24.5182 3.84001 23.6982 3.19001C21.7782 1.68001 17.5582 2.08001 14.8882 2.00001C11.4082 1.85001 7.6982 2.14001 4.2682 2.24001C4.18927 2.25369 4.11772 2.2948 4.06614 2.35609C4.01457 2.41738 3.98629 2.49491 3.98629 2.57501C3.98629 2.65511 4.01457 2.73263 4.06614 2.79392C4.11772 2.85521 4.18927 2.89632 4.2682 2.91001C7.7382 2.86001 11.3382 2.62001 14.8382 2.82001C17.3082 2.97001 21.4882 2.68001 23.0882 3.98001C23.4882 4.31001 23.4982 6.71001 23.5782 7.56001C23.9272 10.5485 23.954 13.5658 23.6582 16.56C23.6189 17.5735 23.468 18.5796 23.2082 19.56C20.7882 20.96 3.5282 21.94 2.4982 20.11C2.10987 18.5957 1.89185 17.0427 1.8482 15.48C1.63265 12.829 1.67284 10.1633 1.9682 7.52001C2.0482 7.52001 9.2982 7.85001 14.5482 7.76001C16.8782 7.76001 19.2282 7.63001 21.3082 7.55001C21.3957 7.55001 21.4797 7.51524 21.5415 7.45335C21.6034 7.39146 21.6382 7.30753 21.6382 7.22001C21.6382 7.13248 21.6034 7.04855 21.5415 6.98666C21.4797 6.92477 21.3957 6.89001 21.3082 6.89001C13.5982 6.73001 8.4182 6.46001 2.0082 6.94001C2.1182 5.56001 2.4882 3.02001 2.3882 2.94001C2.33212 2.88504 2.25672 2.85425 2.1782 2.85425C2.09967 2.85425 2.02427 2.88504 1.9682 2.94001C1.5982 3.35001 1.6782 4.71001 1.6082 5.19001C1.5382 5.67001 1.4682 6.26 1.4082 6.79001C1.01197 9.65185 0.891422 12.5451 1.0482 15.43C1.07402 17.1166 1.2955 18.7945 1.7082 20.43C3.1682 23.13 18.9482 21.89 22.6482 20.86C24.0982 20.46 24.3382 20.06 24.5182 18.91C25.0924 15.1034 25.1194 11.2342 24.5982 7.42001Z" fill="#7A387B"/>
<path fill-rule="evenodd" clip-rule="evenodd" d="M5.50819 5.25001C5.58801 5.08343 5.61069 4.89518 5.57273 4.7144C5.53477 4.53363 5.43828 4.37041 5.29819 4.25001C4.52819 3.84001 3.58819 4.64001 4.29819 5.35001C4.38245 5.42662 4.48158 5.48508 4.5894 5.52174C4.69723 5.5584 4.81144 5.57247 4.92494 5.56309C5.03843 5.55371 5.14879 5.52108 5.24913 5.46722C5.34947 5.41335 5.43766 5.33942 5.50819 5.25001Z" fill="#7A387B"/>
<path fill-rule="evenodd" clip-rule="evenodd" d="M8.13819 5.00001C8.27819 4.86001 8.32819 4.16001 7.93819 4.00001C7.16819 3.59001 6.22819 4.39001 6.93819 5.09001C7.02095 5.16695 7.11871 5.22595 7.22534 5.26332C7.33197 5.30069 7.44518 5.31562 7.55786 5.30716C7.67053 5.29871 7.78024 5.26707 7.88011 5.21421C7.97998 5.16136 8.06784 5.08843 8.13819 5.00001Z" fill="#7A387B"/>
<path fill-rule="evenodd" clip-rule="evenodd" d="M11.0182 5.00001C11.0998 4.83379 11.1234 4.64507 11.0853 4.46387C11.0473 4.28267 10.9497 4.11939 10.8082 4.00001C10.0382 3.59001 9.0982 4.39001 9.8082 5.09001C9.89112 5.1686 9.98953 5.22899 10.0971 5.26732C10.2048 5.30565 10.3192 5.32107 10.4331 5.3126C10.547 5.30412 10.6579 5.27194 10.7587 5.21811C10.8594 5.16428 10.9478 5.09 11.0182 5.00001Z" fill="#7A387B"/>
<path fill-rule="evenodd" clip-rule="evenodd" d="M6.7282 13.73C6.7282 13.81 6.9582 16.2 7.0382 16.29C7.08202 16.339 7.1381 16.3754 7.20067 16.3955C7.26324 16.4156 7.33003 16.4187 7.39419 16.4045C7.45834 16.3902 7.51755 16.3591 7.5657 16.3144C7.61386 16.2697 7.64924 16.2129 7.6682 16.15C7.6682 16.06 7.6682 16.15 7.8182 14.43C7.86489 13.6849 7.82799 12.9369 7.7082 12.2C7.56191 11.7567 7.47449 11.2961 7.4482 10.83C7.46525 10.7615 7.45763 10.6893 7.42667 10.6259C7.39572 10.5625 7.34341 10.512 7.27893 10.4833C7.21446 10.4547 7.14195 10.4497 7.07415 10.4692C7.00634 10.4887 6.94759 10.5315 6.9082 10.59C6.70728 11.3493 6.63961 12.1376 6.7082 12.92C5.4282 12.54 5.5882 13.05 5.5782 12.5C5.55553 11.8533 5.49207 11.2087 5.3882 10.57C5.2282 10.4 5.0282 10.4 4.8782 10.71C4.63353 11.8518 4.48965 13.013 4.4482 14.18C4.48814 14.9518 4.62935 15.715 4.8682 16.45C5.1282 16.85 5.5682 16.67 5.5682 16.35C5.5682 16.26 5.4082 16.26 5.5682 14.49C5.6282 13.31 5.3382 14.19 6.7282 13.73Z" fill="#998696"/>
<path fill-rule="evenodd" clip-rule="evenodd" d="M11.7582 11.18C12.0782 11.11 12.1682 10.9 12.1482 10.81C12.1482 10.26 8.82819 10.47 8.68819 10.57C8.54819 10.67 8.48819 10.75 8.50819 10.85C8.52819 10.95 8.50819 10.96 8.50819 11.01C9.00611 11.243 9.54846 11.3658 10.0982 11.37V12.19C9.94573 13.226 9.90216 14.275 9.96819 15.32C9.96819 15.52 9.87819 16.26 10.1382 16.48C10.2019 16.5435 10.2882 16.5792 10.3782 16.5792C10.4682 16.5792 10.5545 16.5435 10.6182 16.48C10.7434 16.1295 10.8142 15.7619 10.8282 15.39C11.0942 14.3341 11.1418 13.235 10.9682 12.16C10.9682 12.03 11.0182 11.46 10.8682 11.27C11.1663 11.2563 11.4634 11.2262 11.7582 11.18Z" fill="#998696"/>
<path fill-rule="evenodd" clip-rule="evenodd" d="M17.2982 11C17.2701 10.9117 17.2244 10.83 17.164 10.7598C17.1036 10.6895 17.0297 10.6321 16.9466 10.5911C16.8635 10.55 16.7731 10.5261 16.6806 10.5208C16.5881 10.5154 16.4954 10.5288 16.4082 10.56C15.9025 10.7636 15.4678 11.1113 15.1582 11.56C15.0792 11.2584 14.9397 10.976 14.7482 10.73C14.6355 10.6186 14.4979 10.5357 14.3467 10.4879C14.1956 10.4402 14.0353 10.429 13.8791 10.4554C13.7228 10.4818 13.5751 10.5449 13.448 10.6396C13.3209 10.7343 13.2182 10.8578 13.1482 11C12.929 11.6687 12.8111 12.3664 12.7982 13.07C12.7982 13.64 12.7982 15.71 12.8582 15.83C12.9982 16.92 13.8582 16.34 13.4882 15.96C13.4644 14.6299 13.5919 13.3013 13.8682 12C14.1882 10.82 14.1882 12.2 14.2582 12.51C14.3282 12.82 14.3682 13.59 14.9882 13.59C15.6082 13.59 15.4682 12.66 16.3882 11.81C16.4383 12.706 16.4383 13.604 16.3882 14.5C16.3514 15.1028 16.3514 15.7072 16.3882 16.31C16.3882 16.4002 16.424 16.4867 16.4878 16.5504C16.5515 16.6142 16.638 16.65 16.7282 16.65C16.8184 16.65 16.9049 16.6142 16.9686 16.5504C17.0324 16.4867 17.0682 16.4002 17.0682 16.31C17.1423 15.7363 17.179 15.1584 17.1782 14.58C17.346 13.3944 17.3862 12.1942 17.2982 11Z" fill="#998696"/>
<path fill-rule="evenodd" clip-rule="evenodd" d="M18.7382 10.8C18.6882 10.96 18.4382 13.8 18.4282 14C18.4162 14.587 18.4869 15.1727 18.6382 15.74C18.9682 16.74 19.8482 16.81 20.9282 16.56C21.3179 16.5436 21.7026 16.466 22.0682 16.33C22.2782 16.11 22.1682 15.74 21.6582 15.69C21.114 15.7541 20.5658 15.7775 20.0182 15.76C19.5782 15.69 19.6782 15.76 19.3482 11.32C19.3585 11.1969 19.3585 11.0731 19.3482 10.95C19.358 10.9099 19.3599 10.8683 19.3537 10.8276C19.3474 10.7868 19.3332 10.7477 19.3119 10.7124C19.2905 10.6771 19.2624 10.6463 19.2292 10.6219C19.196 10.5975 19.1582 10.5798 19.1182 10.57C19.0781 10.5601 19.0365 10.5583 18.9958 10.5645C18.955 10.5707 18.9158 10.5849 18.8806 10.6063C18.8453 10.6277 18.8145 10.6558 18.7901 10.689C18.7657 10.7222 18.748 10.7599 18.7382 10.8Z" fill="#998696"/>
</g>
<defs>
<clipPath id="clip0_3013_15532">
<rect width="24" height="24" fill="white" transform="translate(0.968201)"/>
</clipPath>
</defs>
</svg>
