<svg width="25" height="24" viewBox="0 0 25 24" fill="none" xmlns="http://www.w3.org/2000/svg">
<g clip-path="url(#clip0_3013_15558)">
<path fill-rule="evenodd" clip-rule="evenodd" d="M3.71821 10.15C3.71821 10.67 3.90821 11.15 3.96821 11.63C3.96548 11.6789 3.97278 11.7279 3.98965 11.7739C4.00652 11.8199 4.0326 11.862 4.06631 11.8976C4.10001 11.9331 4.14063 11.9615 4.18566 11.9808C4.23069 12.0001 4.2792 12.0101 4.32821 12.01C4.42733 12.0127 4.52361 11.9766 4.59647 11.9093C4.66934 11.8421 4.71303 11.749 4.71821 11.65L4.86821 10.51C5.99507 10.3484 7.13026 10.2516 8.26821 10.22C8.26821 10.63 8.36821 11.04 8.42821 11.45C8.42551 11.4986 8.43243 11.5472 8.44857 11.5932C8.46471 11.6391 8.48975 11.6814 8.52227 11.7176C8.55478 11.7538 8.59413 11.7833 8.63804 11.8043C8.68196 11.8253 8.72959 11.8374 8.77821 11.84C8.87836 11.8428 8.97577 11.807 9.05025 11.74C9.12472 11.673 9.17054 11.5799 9.17821 11.48C9.24821 11.04 9.33821 10.62 9.39821 10.19H10.3982C11.0982 10.19 11.7882 10.19 12.4782 10.25V11.14V11.85L11.7682 11.91C11.1482 12.01 10.5582 12.18 9.95821 12.3C9.86979 12.3051 9.78688 12.3446 9.72711 12.41C9.66735 12.4753 9.63545 12.5615 9.63821 12.65C9.64583 12.7366 9.68636 12.817 9.75147 12.8747C9.81657 12.9323 9.90129 12.9629 9.98821 12.96C10.6982 13.02 11.3782 13.12 12.1082 13.12H12.5482V13.26C12.5367 13.3578 12.5636 13.4563 12.6233 13.5346C12.683 13.613 12.7708 13.6651 12.8682 13.68C12.917 13.6885 12.9671 13.6868 13.0153 13.675C13.0634 13.6633 13.1086 13.6417 13.1481 13.6117C13.1875 13.5816 13.2203 13.5438 13.2444 13.5004C13.2685 13.4571 13.2834 13.4093 13.2882 13.36C13.293 13.2667 13.293 13.1732 13.2882 13.08C13.9082 13.08 14.4982 12.94 15.1082 12.95C15.1569 12.957 15.2064 12.9543 15.254 12.9419C15.3016 12.9296 15.3462 12.9079 15.3853 12.8781C15.4244 12.8483 15.4572 12.811 15.4817 12.7684C15.5063 12.7258 15.5221 12.6788 15.5282 12.63C15.5352 12.5813 15.5325 12.5318 15.5202 12.4842C15.5078 12.4366 15.4861 12.3919 15.4563 12.3528C15.4265 12.3137 15.3892 12.281 15.3466 12.2564C15.304 12.2319 15.257 12.2161 15.2082 12.21C14.6347 12.0591 14.0492 11.9587 13.4582 11.91C13.5285 11.58 13.5786 11.2461 13.6082 10.91V10.3H14.7182L16.6082 10.44C16.6082 10.77 16.6982 11.11 16.7682 11.44C16.7695 11.4894 16.7806 11.5382 16.8011 11.5832C16.8215 11.6283 16.8508 11.6688 16.8871 11.7024C16.9235 11.736 16.9662 11.7619 17.0128 11.7787C17.0593 11.7954 17.1088 11.8027 17.1582 11.8C17.2581 11.7923 17.3512 11.7465 17.4183 11.672C17.4853 11.5975 17.5211 11.5001 17.5182 11.4C17.5182 11.1 17.5882 10.81 17.6382 10.51C18.1382 10.51 18.6382 10.56 19.1482 10.62L21.2782 10.78C21.2782 11.12 21.3582 11.45 21.3782 11.78C21.3753 11.8801 21.4111 11.9775 21.4782 12.052C21.5452 12.1265 21.6383 12.1723 21.7382 12.18C21.7876 12.1827 21.8371 12.1754 21.8836 12.1587C21.9302 12.1419 21.9729 12.116 22.0093 12.0824C22.0457 12.0488 22.0749 12.0083 22.0953 11.9632C22.1158 11.9182 22.1269 11.8694 22.1282 11.82C22.2508 11.3321 22.3476 10.8381 22.4182 10.34C22.4381 10.1204 22.4381 9.89953 22.4182 9.67998C22.4694 9.45662 22.4995 9.22896 22.5082 8.99998C22.1482 7.05998 22.1182 7.21998 21.9482 7.17998C21.6252 7.10172 21.298 7.04163 20.9682 6.99998C20.2082 6.86998 19.4182 6.81998 18.6682 6.71998C17.236 6.51816 15.7939 6.39464 14.3482 6.34998C12.8866 6.32372 11.4246 6.37379 9.96821 6.49998C8.79821 6.63998 7.64821 6.69998 6.51821 6.85998C3.60821 7.24998 3.96821 7.49998 3.71821 9.10998C3.66815 9.45484 3.66815 9.80512 3.71821 10.15ZM20.5282 7.76998C20.8082 7.76998 21.0782 7.82998 21.3582 7.86998C21.3582 8.27998 21.3582 8.67998 21.3082 9.09998V9.70998V9.96998L19.3682 9.67998C18.8682 9.59998 18.3682 9.54998 17.8582 9.46998C17.8637 9.43352 17.8637 9.39644 17.8582 9.35998V8.73998C17.8582 8.36998 17.7782 8.01998 17.7282 7.65998H18.5382C19.1982 7.71998 19.8582 7.71998 20.5282 7.76998ZM16.9682 7.64998C16.8782 7.98998 16.7682 8.31998 16.7082 8.64998C16.6729 8.85487 16.6528 9.06211 16.6482 9.26998C16.0782 9.18998 15.5182 9.07998 14.9482 9.02998C14.5282 9.02998 14.1082 9.02998 13.6882 8.97998C13.6882 8.50998 13.5982 8.03998 13.5782 7.56998H14.3382C15.1782 7.58998 16.0582 7.61998 16.9682 7.64998ZM10.0982 7.64998C11.0082 7.58998 11.9182 7.64998 12.8282 7.64998C12.7282 8.08998 12.6482 8.53998 12.5882 8.98998H11.9282C11.1182 8.98998 10.3182 9.08998 9.50821 9.15998C9.51322 9.07338 9.51322 8.98657 9.50821 8.89998C9.50821 8.49998 9.41821 8.11998 9.36821 7.73998L10.0982 7.64998ZM6.63821 7.64998H8.63821C8.52377 8.00756 8.43028 8.37151 8.35821 8.73998V9.14998C7.24821 9.28998 6.14821 9.49998 5.05821 9.74998V8.99998C5.00467 8.63897 4.97461 8.27487 4.96821 7.90998C5.51008 7.80861 6.05785 7.7418 6.60821 7.70998L6.63821 7.64998Z" fill="#998696"/>
<path fill-rule="evenodd" clip-rule="evenodd" d="M23.9682 20C23.3097 19.7859 22.7312 19.3782 22.3082 18.83C21.938 18.2925 21.7456 17.6525 21.7582 17C21.7277 16.0211 21.5731 15.05 21.2982 14.11C21.1758 13.752 20.9707 13.4278 20.6997 13.1637C20.4287 12.8996 20.0993 12.7031 19.7382 12.59C19.6904 12.5668 19.6383 12.5538 19.5852 12.552C19.532 12.5502 19.4791 12.5595 19.4299 12.5794C19.3806 12.5993 19.336 12.6293 19.2991 12.6675C19.2621 12.7057 19.2336 12.7512 19.2153 12.8011C19.197 12.851 19.1894 12.9042 19.193 12.9572C19.1965 13.0102 19.2112 13.0619 19.236 13.1089C19.2607 13.156 19.2951 13.1973 19.3368 13.2302C19.3785 13.2631 19.4267 13.2869 19.4782 13.3C19.7026 13.4056 19.8986 13.5632 20.0499 13.7598C20.2012 13.9563 20.3035 14.186 20.3482 14.43C20.4535 14.9328 20.4939 15.447 20.4682 15.96V17.09C20.535 17.9969 20.9089 18.854 21.5282 19.52C22.149 20.1331 22.9532 20.5264 23.8182 20.64C23.8617 20.6544 23.9077 20.6596 23.9534 20.6553C23.999 20.6509 24.0432 20.6371 24.0832 20.6147C24.1232 20.5923 24.1581 20.5618 24.1856 20.5252C24.2132 20.4886 24.2328 20.4467 24.2433 20.402C24.2538 20.3574 24.2548 20.3111 24.2464 20.2661C24.2379 20.221 24.2202 20.1782 24.1944 20.1404C24.1685 20.1026 24.135 20.0706 24.0961 20.0464C24.0571 20.0222 24.0136 20.0064 23.9682 20Z" fill="#7A387B"/>
<path fill-rule="evenodd" clip-rule="evenodd" d="M10.2382 15.83C10.1925 15.8484 10.1511 15.876 10.1164 15.911C10.0818 15.9461 10.0548 15.9879 10.037 16.0338C10.0192 16.0797 10.011 16.1288 10.0129 16.1781C10.0148 16.2273 10.0268 16.2756 10.0482 16.32C10.1277 16.5335 10.1474 16.7646 10.1051 16.9884C10.0628 17.2122 9.96013 17.4203 9.8082 17.59C9.53264 17.8867 9.22775 18.1547 8.8982 18.39C8.53471 18.6917 8.19994 19.0265 7.8982 19.39C7.61612 19.8022 7.37498 20.2409 7.1782 20.7C6.9182 21.35 6.7482 22.02 6.5382 22.7C6.50777 22.7811 6.50946 22.8708 6.54291 22.9507C6.57636 23.0306 6.63906 23.0947 6.7182 23.13C6.78933 23.1603 6.86903 23.1638 6.94256 23.1399C7.01609 23.116 7.07848 23.0663 7.1182 23C7.3982 22.47 7.6582 22 7.9382 21.49C8.19762 21.0189 8.50599 20.5764 8.8582 20.17C9.12806 19.8636 9.41876 19.5763 9.7282 19.31C10.0884 18.9701 10.4012 18.5833 10.6582 18.16C10.8703 17.8427 10.9901 17.4727 11.0043 17.0913C11.0184 16.7099 10.9263 16.3321 10.7382 16C10.6914 15.9141 10.614 15.849 10.5214 15.8175C10.4287 15.786 10.3277 15.7905 10.2382 15.83Z" fill="#7A387B"/>
<path fill-rule="evenodd" clip-rule="evenodd" d="M17.3482 19.41C17.0465 19.0465 16.7117 18.7117 16.3482 18.41C16.0186 18.1747 15.7138 17.9067 15.4382 17.61C15.2863 17.4403 15.1836 17.2323 15.1413 17.0084C15.099 16.7846 15.1187 16.5535 15.1982 16.34C15.2195 16.2956 15.2316 16.2473 15.2335 16.1981C15.2354 16.1488 15.2272 16.0997 15.2094 16.0538C15.1916 16.0079 15.1646 15.9661 15.13 15.931C15.0953 15.896 15.0539 15.8684 15.0082 15.85C14.9163 15.812 14.8134 15.8105 14.7205 15.8458C14.6276 15.8811 14.5516 15.9506 14.5082 16.04C14.3241 16.3698 14.2342 16.7438 14.2483 17.1212C14.2624 17.4986 14.38 17.8649 14.5882 18.18C14.8452 18.6033 15.158 18.9901 15.5182 19.33C15.8276 19.5963 16.1183 19.8837 16.3882 20.19C16.7403 20.5988 17.0518 21.0409 17.3182 21.51C17.5882 22 17.8482 22.51 18.1282 23.02C18.1641 23.0968 18.2281 23.1569 18.3071 23.1877C18.3861 23.2186 18.4739 23.2179 18.5523 23.1857C18.6308 23.1536 18.6939 23.0925 18.7285 23.0151C18.7631 22.9376 18.7666 22.8499 18.7382 22.77C18.5282 22.06 18.3582 21.39 18.0982 20.77C17.8949 20.2925 17.6436 19.8368 17.3482 19.41Z" fill="#7A387B"/>
<path fill-rule="evenodd" clip-rule="evenodd" d="M7.21819 14.59C7.30819 14.42 7.37819 14.24 7.46819 14.08C7.52994 13.9178 7.61049 13.7634 7.70819 13.62C7.80155 13.4892 7.92503 13.3829 8.06819 13.31C8.11962 13.3078 8.17002 13.2948 8.21617 13.272C8.26231 13.2492 8.30319 13.217 8.33618 13.1775C8.36917 13.138 8.39356 13.092 8.40777 13.0425C8.42199 12.993 8.42572 12.9411 8.41873 12.8901C8.41175 12.8391 8.39419 12.7901 8.3672 12.7463C8.3402 12.7025 8.30435 12.6648 8.26195 12.6356C8.21954 12.6064 8.17152 12.5864 8.12093 12.5768C8.07035 12.5672 8.01833 12.5683 7.96819 12.58C7.67128 12.593 7.38162 12.6758 7.12273 12.8218C6.86384 12.9677 6.64302 13.1727 6.47819 13.42C6.28474 13.6722 6.14518 13.9616 6.06819 14.27C5.98298 14.7045 5.94941 15.1476 5.96819 15.59C5.95793 15.6321 5.95631 15.6758 5.96344 15.7185C5.97057 15.7612 5.9863 15.8021 6.00967 15.8385C6.03305 15.875 6.06358 15.9063 6.09942 15.9307C6.13527 15.955 6.17567 15.9718 6.21819 15.98C6.30301 15.9979 6.39146 15.9817 6.46443 15.9349C6.53741 15.8881 6.58905 15.8145 6.60819 15.73C6.73819 15.39 6.96819 15 7.21819 14.59Z" fill="#7A387B"/>
<path fill-rule="evenodd" clip-rule="evenodd" d="M18.7982 13.42C18.6312 13.1725 18.4086 12.9676 18.1481 12.8217C17.8876 12.6758 17.5965 12.593 17.2982 12.58C17.2503 12.5701 17.2009 12.5698 17.1528 12.5791C17.1048 12.5883 17.059 12.6069 17.0181 12.6339C16.9773 12.6608 16.9421 12.6955 16.9147 12.736C16.8873 12.7765 16.8681 12.8221 16.8582 12.87C16.8484 12.9179 16.8481 12.9673 16.8573 13.0154C16.8665 13.0634 16.8852 13.1092 16.9121 13.15C16.939 13.1909 16.9737 13.2261 17.0142 13.2535C17.0548 13.2809 17.1003 13.3001 17.1482 13.31C17.295 13.3816 17.422 13.488 17.5182 13.62C17.6159 13.7634 17.6965 13.9178 17.7582 14.08C17.8382 14.24 17.9182 14.42 18.0082 14.59C18.2382 15.02 18.4882 15.39 18.6482 15.73C18.6565 15.7725 18.6732 15.8129 18.6976 15.8488C18.7219 15.8846 18.7532 15.9151 18.7897 15.9385C18.8261 15.9619 18.867 15.9776 18.9097 15.9847C18.9524 15.9919 18.9961 15.9902 19.0382 15.98C19.1228 15.9608 19.1964 15.9092 19.2431 15.8362C19.2899 15.7632 19.3061 15.6748 19.2882 15.59C19.3149 15.1479 19.2846 14.7043 19.1982 14.27C19.1248 13.9621 18.9886 13.6728 18.7982 13.42Z" fill="#7A387B"/>
<path fill-rule="evenodd" clip-rule="evenodd" d="M9.32819 13.56C8.99853 13.6985 8.69435 13.8912 8.42819 14.13C8.31284 14.2288 8.21186 14.3432 8.12819 14.47C8.04179 14.5961 7.9744 14.7342 7.92819 14.88C7.84003 15.2059 7.7963 15.5423 7.79819 15.88C7.77246 15.9636 7.77993 16.0538 7.81904 16.1321C7.85815 16.2103 7.92589 16.2704 8.00819 16.3C8.09177 16.3257 8.18205 16.3182 8.26026 16.2791C8.33848 16.24 8.39862 16.1723 8.42819 16.09C8.62819 15.79 8.86819 15.59 9.06819 15.32C9.26819 15.05 9.24819 15.02 9.33819 14.87C9.46431 14.618 9.6115 14.3771 9.77819 14.15C9.85117 14.0875 9.89779 13.9998 9.90869 13.9044C9.9196 13.8089 9.89396 13.7129 9.83695 13.6356C9.77993 13.5584 9.69576 13.5055 9.60138 13.4878C9.50699 13.47 9.40938 13.4887 9.32819 13.54V13.56Z" fill="#7A387B"/>
<path fill-rule="evenodd" clip-rule="evenodd" d="M15.3682 13.65C15.3119 13.7302 15.2887 13.8292 15.3036 13.9261C15.3186 14.023 15.3703 14.1104 15.4482 14.17C15.6149 14.3972 15.7621 14.638 15.8882 14.89C15.9782 15.04 16.0582 15.2 16.1582 15.34C16.2582 15.48 16.5982 15.81 16.7982 16.11C16.8074 16.156 16.8264 16.1994 16.8538 16.2375C16.8811 16.2756 16.9163 16.3074 16.9569 16.3308C16.9976 16.3542 17.0427 16.3687 17.0894 16.3733C17.136 16.3779 17.1832 16.3725 17.2276 16.3574C17.272 16.3424 17.3127 16.3181 17.347 16.2861C17.3812 16.254 17.4083 16.2151 17.4263 16.1718C17.4444 16.1285 17.453 16.0819 17.4516 16.035C17.4502 15.9881 17.4388 15.9421 17.4182 15.9C17.4233 15.5628 17.383 15.2264 17.2982 14.9C17.2474 14.7561 17.1803 14.6186 17.0982 14.49C17.0114 14.3656 16.9108 14.2516 16.7982 14.15C16.5305 13.9132 16.2267 13.7208 15.8982 13.58C15.8184 13.5195 15.718 13.4929 15.6188 13.506C15.5196 13.5191 15.4295 13.5709 15.3682 13.65Z" fill="#7A387B"/>
<path fill-rule="evenodd" clip-rule="evenodd" d="M24.9082 11.83C24.9082 11.13 24.9782 10.36 24.9682 9.59999C24.977 8.2343 24.8294 6.87209 24.5282 5.53999C24.5368 5.49417 24.535 5.447 24.5229 5.40199C24.5108 5.35697 24.4887 5.31527 24.4582 5.27999C24.2582 4.64999 24.6282 5.08999 22.1882 4.72999L19.6282 4.38999C19.7102 3.94001 19.8514 3.50288 20.0482 3.08999C20.1684 2.81388 20.3193 2.55222 20.4982 2.30999C20.6211 2.10954 20.7909 1.94199 20.993 1.82179C21.1951 1.70158 21.4234 1.63233 21.6582 1.61999C21.7069 1.62701 21.7564 1.62428 21.804 1.61193C21.8516 1.59959 21.8962 1.57789 21.9353 1.5481C21.9744 1.5183 22.0072 1.48102 22.0317 1.43842C22.0563 1.39582 22.0721 1.34876 22.0782 1.29999C22.0852 1.25133 22.0825 1.20177 22.0701 1.15419C22.0578 1.1066 22.0361 1.06196 22.0063 1.02285C21.9765 0.983753 21.9392 0.95098 21.8966 0.92645C21.854 0.90192 21.807 0.886124 21.7582 0.879986C21.3698 0.773001 20.9596 0.774211 20.5718 0.883485C20.1841 0.99276 19.8336 1.20594 19.5582 1.49999C19.425 1.64364 19.3077 1.80122 19.2082 1.96999C19.0593 2.20702 18.9512 2.46727 18.8882 2.73999C18.7778 3.25076 18.7778 3.77921 18.8882 4.28999L18.3082 4.21999C17.2382 4.10999 16.1782 4.03999 15.1082 4.01999C13.5282 4.01999 11.9382 4.07999 10.3582 4.10999C8.5082 4.20999 6.6682 4.31999 4.8482 4.54999C1.3882 4.99999 1.6382 5.29999 1.5182 7.28999C1.4582 8.22999 1.2982 9.34999 1.2082 10.42C1.1282 11.09 1.0782 11.75 1.0482 12.32C1.0182 12.89 1.0482 13.32 1.0482 13.63C1.05995 14.2137 1.16807 14.7915 1.3682 15.34C1.46942 15.641 1.66602 15.9008 1.9282 16.08C2.06074 16.1549 2.20695 16.2025 2.3582 16.22H3.4382H3.5382C3.5382 16.48 3.5382 16.76 3.4682 16.98C3.46908 17.6369 3.26261 18.2773 2.8782 18.81C2.4581 19.3656 1.87924 19.7805 1.2182 20C1.17548 20.0093 1.13512 20.0272 1.0996 20.0526C1.06408 20.0781 1.03415 20.1106 1.01167 20.1481C0.989179 20.1855 0.974608 20.2272 0.968852 20.2706C0.963096 20.3139 0.966276 20.3579 0.978197 20.4C0.99945 20.4848 1.05352 20.5578 1.12852 20.6028C1.20353 20.6478 1.29333 20.6612 1.3782 20.64C2.2495 20.5127 3.05445 20.1014 3.6682 19.47C4.29172 18.7909 4.66555 17.9198 4.7282 17V15.87C4.70397 15.3574 4.7409 14.8438 4.8382 14.34C4.88318 14.0947 4.98666 13.864 5.13985 13.6673C5.29305 13.4705 5.49144 13.3137 5.7182 13.21C5.80287 13.1688 5.86925 13.0978 5.9045 13.0105C5.93974 12.9232 5.94133 12.8259 5.90896 12.7375C5.87659 12.6491 5.81257 12.5759 5.72929 12.532C5.64601 12.4881 5.54941 12.4767 5.4582 12.5C5.10413 12.6236 4.78444 12.8294 4.52541 13.1006C4.26639 13.3718 4.07542 13.7006 3.9682 14.06C3.78845 14.5529 3.67415 15.0673 3.6282 15.59C3.4482 15.59 3.0982 15.54 2.7882 15.51C2.68649 15.5071 2.58699 15.4797 2.4982 15.43C2.3656 15.2811 2.29106 15.0894 2.2882 14.89C2.23758 14.4815 2.23758 14.0684 2.2882 13.66C2.2882 13.1 2.3982 12.27 2.4682 11.33C2.5182 10.57 2.5382 9.73999 2.5482 8.93999C2.57866 7.89603 2.5117 6.85151 2.3482 5.81999C3.21424 5.64963 4.08885 5.52611 4.9682 5.44999C6.7782 5.31999 8.5982 5.32999 10.4182 5.34999C12.2382 5.36999 14.0882 5.23999 15.9282 5.24999H18.2682L22.1082 5.53999C22.4982 5.53999 22.9282 5.53999 23.3482 5.63999C23.5247 5.66446 23.6988 5.70462 23.8682 5.75999C23.8682 6.09999 23.9182 6.46999 23.9182 6.90999C23.9182 7.90999 23.7782 9.20999 23.7282 10.41C23.6482 11.84 23.6582 13.18 23.7282 13.98L23.8682 15.57C23.7708 15.67 23.6378 15.7275 23.4982 15.73C23.2599 15.767 23.0193 15.7871 22.7782 15.79C22.6893 15.8046 22.6084 15.8503 22.55 15.919C22.4917 15.9877 22.4596 16.0749 22.4596 16.165C22.4596 16.2551 22.4917 16.3423 22.55 16.411C22.6084 16.4797 22.6893 16.5254 22.7782 16.54C23.1664 16.5934 23.56 16.5934 23.9482 16.54C24.19 16.4885 24.408 16.3584 24.5682 16.17C24.6867 15.9941 24.759 15.7912 24.7782 15.58C24.8107 15.0638 24.8107 14.5461 24.7782 14.03C24.7782 13.48 24.8582 12.71 24.9082 11.83Z" fill="#7A387B"/>
<path fill-rule="evenodd" clip-rule="evenodd" d="M12.8282 16L12.4682 15.94C12.345 15.9303 12.2213 15.9303 12.0982 15.94C11.8782 15.99 10.9482 16.26 10.9682 16.6C10.9682 16.71 10.9682 16.9 12.0982 17.15H12.4282H12.7582C13.9082 17 13.9682 16.9 13.9682 16.68C13.9682 16.46 13.9682 16.25 12.8282 16Z" fill="#7A387B"/>
</g>
<defs>
<clipPath id="clip0_3013_15558">
<rect width="24" height="24" fill="white" transform="translate(0.968201)"/>
</clipPath>
</defs>
</svg>
