<svg width="25" height="24" viewBox="0 0 25 24" fill="none" xmlns="http://www.w3.org/2000/svg">
<g clip-path="url(#clip0_3013_15528)">
<path fill-rule="evenodd" clip-rule="evenodd" d="M23.9682 3.11999C23.4182 2.55999 20.9682 0.309995 20.1782 0.119995C19.3882 -0.070005 7.4282 -5.04497e-06 6.6182 -5.04497e-06C6.52538 -5.04497e-06 6.43635 0.0368699 6.37072 0.102508C6.30508 0.168145 6.2682 0.257169 6.2682 0.349995C6.2682 0.442821 6.30508 0.531845 6.37072 0.597482C6.43635 0.66312 6.52538 0.699995 6.6182 0.699995C7.3082 0.699995 19.2582 0.819995 19.9082 0.989995C21.0482 1.76861 22.1098 2.65611 23.0782 3.64C22.9782 3.74 23.1482 4.17999 23.1582 4.63999C23.2182 7.26999 23.0982 14.53 23.0582 16.05C21.9682 17 14.7782 22.8 13.3982 22.83C11.4782 22.89 3.9382 18.58 2.7382 17.15C2.6182 15.74 2.3782 4.91999 2.3782 4.64999C8.83333 5.00472 15.3031 5.00472 21.7582 4.64999C21.851 4.64999 21.9401 4.61312 22.0057 4.54748C22.0713 4.48184 22.1082 4.39282 22.1082 4.29999C22.1082 4.20717 22.0713 4.11814 22.0057 4.05251C21.9401 3.98687 21.851 3.95 21.7582 3.95C15.3486 3.62173 8.926 3.63842 2.5182 3.99999C2.92529 3.00406 3.45613 2.06333 4.0982 1.2C4.14327 1.13579 4.16231 1.05688 4.1515 0.979185C4.14069 0.901489 4.10083 0.830781 4.03994 0.781315C3.97906 0.731848 3.90169 0.707302 3.82343 0.712624C3.74516 0.717947 3.67183 0.752742 3.6182 0.809995C3.29856 1.18175 3.01087 1.57983 2.7582 1.99999C2.46319 2.63662 2.12922 3.25445 1.7582 3.84999C1.69411 3.9293 1.65885 4.02803 1.6582 4.12999C1.6582 4.47 1.6582 17.24 1.8582 17.58C3.0282 19.24 10.9682 24 13.4182 24C15.3182 24 23.3382 17.45 24.0482 16.72C24.1577 16.5917 24.218 16.4287 24.2182 16.26C24.2182 16.17 24.4082 3.59999 23.9682 3.11999Z" fill="#7A387B"/>
<path fill-rule="evenodd" clip-rule="evenodd" d="M10.0382 15.43C10.0382 15.11 9.1882 14.89 9.1882 15.43V17.58C9.19998 17.6684 9.24246 17.7498 9.3082 17.81C9.95325 18.454 10.7267 18.9548 11.5782 19.28C11.9682 19.45 12.7082 20.11 13.2482 19.85C14.2118 19.3215 15.1226 18.702 15.9682 18C16.3582 17.71 17.1182 17.39 17.3382 16.77C17.4938 15.9289 17.5207 15.0691 17.4182 14.22C17.4182 11.55 17.4682 11.85 17.4182 11.68C17.2782 10.78 15.8982 11.16 15.5082 11.14C14.2812 11.0334 13.0486 11.0067 11.8182 11.06C13.4371 10.064 14.9995 8.97899 16.4982 7.80999C16.7282 7.64999 17.0282 7.49999 17.0182 7.17999C16.9861 7.04613 16.909 6.92736 16.7998 6.8436C16.6905 6.75985 16.5558 6.71621 16.4182 6.71999L15.4782 6.78999C9.2482 6.90999 8.8382 6.47999 8.1882 6.86999C8.0382 6.94999 8.1882 7.37999 8.2682 7.51999C8.3482 7.65999 12.3782 7.62999 14.9482 7.67999C10.9482 10.68 8.8682 10.93 8.8682 11.8C8.86486 11.9364 8.90886 12.0697 8.99273 12.1772C9.0766 12.2848 9.19515 12.36 9.3282 12.39C9.4282 12.39 16.2382 12.27 16.3282 12.26C16.2582 13.72 16.5982 15.86 16.4082 16.46C16.3182 16.72 16.4082 16.34 13.0082 18.83C11.3382 18.09 10.8482 18.04 10.1682 17.42C10.1682 17.34 10.0482 15.52 10.0382 15.43Z" fill="#998696"/>
</g>
<defs>
<clipPath id="clip0_3013_15528">
<rect width="24" height="24" fill="white" transform="translate(0.968201)"/>
</clipPath>
</defs>
</svg>
