<svg width="25" height="24" viewBox="0 0 25 24" fill="none" xmlns="http://www.w3.org/2000/svg">
<g clip-path="url(#clip0_3013_15505)">
<path fill-rule="evenodd" clip-rule="evenodd" d="M24.5882 5.50001C24.4682 4.34001 24.5182 2.00001 23.6782 1.35001C21.7582 -0.129992 17.5282 0.260008 14.8682 0.150008C11.3582 7.689e-06 7.7282 0.280008 4.2582 0.370008C4.16803 0.370008 4.08155 0.405829 4.01779 0.469591C3.95402 0.533354 3.9182 0.619834 3.9182 0.710008C3.9182 0.800181 3.95402 0.886662 4.01779 0.950424C4.08155 1.01419 4.16803 1.05001 4.2582 1.05001C7.7482 1.00001 11.3482 0.780008 14.8282 1.00001C17.2682 1.14001 21.4882 0.870008 23.0782 2.14001C23.4782 2.46001 23.4882 4.81001 23.5682 5.63001C23.9131 8.53828 23.9432 11.4753 23.6582 14.39C23.6163 15.3671 23.4654 16.3364 23.2082 17.28C21.2082 18.39 8.2082 19.4 3.7682 18.35C2.3982 18.03 2.4482 17.95 2.2282 16.52C2.64306 16.4651 3.06335 16.4651 3.4782 16.52C11.2682 16.52 10.0982 16.52 13.8082 16.42C21.6282 16.17 21.6582 16.65 21.8082 16.32C21.8982 16.15 21.9282 15.88 21.7482 15.78C21.6982 15.78 21.0682 15.71 17.5382 15.46C12.8683 15.2398 8.18856 15.3702 3.5382 15.85C3.08994 15.8229 2.64006 15.8498 2.1982 15.93C1.84197 13.4939 1.71142 11.0301 1.8082 8.57001C1.9682 6.84001 1.9682 5.11001 2.2282 3.39001C2.21677 2.75748 2.28396 2.12598 2.4282 1.51001C2.45578 1.4798 2.47714 1.44446 2.49106 1.40601C2.50498 1.36755 2.51119 1.32672 2.50933 1.28587C2.50747 1.24501 2.49759 1.20492 2.48023 1.16788C2.46288 1.13084 2.43841 1.09759 2.4082 1.07001C2.378 1.04243 2.34266 1.02107 2.3042 1.00715C2.26574 0.993232 2.22492 0.987024 2.18406 0.988881C2.1432 0.990738 2.10311 1.00062 2.06607 1.01798C2.02904 1.03533 1.99578 1.0598 1.9682 1.09001C1.5982 1.50001 1.6782 2.83001 1.5982 3.30001C1.3382 5.00001 1.2782 6.77001 1.0782 8.49001C0.718202 11.69 1.3182 17.49 1.7282 18.23C2.5582 19.76 8.1082 19.82 9.8782 19.84C9.44805 20.7956 9.27566 21.8471 9.3782 22.89L7.4882 23.05C7.40864 23.05 7.33233 23.0816 7.27607 23.1379C7.21981 23.1941 7.1882 23.2704 7.1882 23.35C7.1882 23.4296 7.21981 23.5059 7.27607 23.5621C7.33233 23.6184 7.40864 23.65 7.4882 23.65C10.4173 23.9337 13.3661 23.9504 16.2982 23.7C16.3453 23.7272 16.3988 23.7415 16.4532 23.7415C16.5076 23.7415 16.5611 23.7272 16.6082 23.7L18.2982 23.52C18.3429 23.5167 18.3864 23.5047 18.4264 23.4846C18.4664 23.4644 18.502 23.4366 18.5313 23.4027C18.5605 23.3689 18.5828 23.3295 18.5969 23.287C18.6109 23.2445 18.6165 23.1997 18.6132 23.155C18.6099 23.1104 18.5979 23.0668 18.5778 23.0268C18.5576 22.9868 18.5298 22.9512 18.4959 22.9219C18.462 22.8927 18.4227 22.8704 18.3802 22.8563C18.3377 22.8423 18.2929 22.8367 18.2482 22.84H16.6782C16.604 21.7386 16.3366 20.6588 15.8882 19.65C17.2682 19.55 23.4082 19.09 24.1382 17.92C24.5384 16.8376 24.7481 15.694 24.7582 14.54C25.0588 11.5305 25.0017 8.49605 24.5882 5.50001ZM15.8082 22.79C13.1282 22.74 12.0682 22.72 10.0982 22.84C10.4806 21.8808 10.7166 20.8694 10.7982 19.84C12.1982 19.84 13.6482 19.77 15.0582 19.68C15.111 20.7545 15.3654 21.8095 15.8082 22.79Z" fill="#7A387B"/>
<path fill-rule="evenodd" clip-rule="evenodd" d="M6.3082 7.23C6.3082 7.09 6.4682 6.31 6.5282 5.44C6.55813 4.5918 6.49103 3.74296 6.3282 2.91C6.3282 2.73 5.8282 2.46 5.6982 3.02C5.3234 4.41242 5.29935 5.87601 5.6282 7.28C5.63483 7.37017 5.67701 7.45402 5.74546 7.51309C5.81391 7.57217 5.90303 7.60163 5.9932 7.595C6.08338 7.58837 6.16722 7.54619 6.2263 7.47774C6.28537 7.40929 6.31483 7.32017 6.3082 7.23Z" fill="#998696"/>
<path fill-rule="evenodd" clip-rule="evenodd" d="M10.2082 3.34002C10.2428 3.35878 10.2808 3.3703 10.32 3.3739C10.3592 3.37749 10.3987 3.37307 10.4361 3.36091C10.4735 3.34874 10.5081 3.3291 10.5377 3.30316C10.5673 3.27721 10.5913 3.24553 10.6082 3.21002C10.8182 2.81002 10.1582 2.58002 9.6982 2.75002C8.8182 3.07002 7.8882 5.31002 7.9682 6.44002C8.1382 8.49002 10.9682 8.33002 11.8682 6.12002C12.7682 3.91002 10.9982 2.62002 10.6482 3.28002C10.6272 3.31941 10.6141 3.36256 10.6098 3.407C10.6055 3.45144 10.6099 3.4963 10.6229 3.53901C10.6359 3.58173 10.6572 3.62146 10.6856 3.65595C10.7139 3.69044 10.7488 3.719 10.7882 3.74002C11.9582 4.40002 10.7882 7.05002 9.3582 6.74002C8.5782 6.52002 9.4882 3.00002 10.2082 3.34002Z" fill="#998696"/>
<path fill-rule="evenodd" clip-rule="evenodd" d="M14.1882 2.6C14.0482 2.39 13.6682 2.36 13.5582 2.82C13.5003 3.73317 13.517 4.64955 13.6082 5.56C13.6782 6.17 13.8082 6.75 13.8782 7.35C13.8782 7.44017 13.914 7.52665 13.9778 7.59042C14.0415 7.65418 14.128 7.69 14.2182 7.69C14.3084 7.69 14.3949 7.65418 14.4586 7.59042C14.5224 7.52665 14.5582 7.44017 14.5582 7.35C14.6471 6.73357 14.7005 6.11255 14.7182 5.49C14.7078 4.50347 14.5286 3.52601 14.1882 2.6Z" fill="#998696"/>
<path fill-rule="evenodd" clip-rule="evenodd" d="M17.5482 3.71001C17.8782 3.02001 18.0682 2.57001 18.7082 3.14001C18.767 3.18213 18.839 3.2016 18.911 3.19483C18.983 3.18806 19.0501 3.15551 19.1 3.10317C19.15 3.05083 19.1793 2.98222 19.1826 2.90998C19.1859 2.83774 19.1631 2.76673 19.1182 2.71001C18.1782 1.78001 17.4782 2.22001 16.8082 3.30001C15.9482 4.67001 15.2882 6.30001 16.4682 7.43001C18.0082 8.80001 20.1882 7.43001 20.6682 5.68001C20.8743 5.25925 20.9261 4.77949 20.8146 4.32442C20.7031 3.86936 20.4354 3.46788 20.0582 3.19001C19.9947 3.13068 19.9108 3.09794 19.8239 3.09852C19.7369 3.0991 19.6535 3.13296 19.5908 3.19314C19.5281 3.25332 19.4908 3.33525 19.4866 3.42208C19.4823 3.50891 19.5116 3.59406 19.5682 3.66001C20.1782 4.33001 20.1482 4.55001 19.8282 5.41001C19.0882 7.38001 15.5782 7.78001 17.5482 3.71001Z" fill="#998696"/>
<path fill-rule="evenodd" clip-rule="evenodd" d="M5.1982 14.27C7.5482 15.5 9.1982 11.4 7.5482 9.94C7.30897 9.73158 7.01442 9.59702 6.70026 9.55265C6.38609 9.50827 6.0658 9.55599 5.7782 9.69C4.5582 10.44 3.5082 13.38 5.1982 14.27ZM6.1982 10.27C6.4382 10.07 7.2782 10.27 7.3382 11.13C7.3982 11.99 6.6382 13.73 5.7082 13.22C5.0282 12.9 5.5882 10.81 6.2182 10.31L6.1982 10.27Z" fill="#998696"/>
<path fill-rule="evenodd" clip-rule="evenodd" d="M10.5182 9.24002C10.4844 9.20171 10.4429 9.17103 10.3963 9.15002C10.3498 9.129 10.2993 9.11813 10.2482 9.11813C10.1971 9.11813 10.1466 9.129 10.1001 9.15002C10.0535 9.17103 10.012 9.20171 9.9782 9.24002C9.8482 9.34002 9.8182 9.85002 9.7982 10.04C9.62398 10.9484 9.62398 11.8816 9.7982 12.79C9.7982 13.07 9.7982 14.09 10.3482 14.02C10.8982 13.95 10.7282 13.55 10.7982 11.94C10.8144 11.032 10.7204 10.1254 10.5182 9.24002Z" fill="#998696"/>
<path fill-rule="evenodd" clip-rule="evenodd" d="M12.5582 13.45C13.0182 14.51 14.5582 14.73 15.5582 13.45C16.7782 11.95 16.3682 9.88001 15.6782 10.21C15.5977 10.2489 15.5358 10.318 15.5059 10.4022C15.4759 10.4864 15.4804 10.579 15.5182 10.66C15.5953 10.979 15.5965 11.3116 15.5218 11.6311C15.4472 11.9506 15.2987 12.2482 15.0882 12.5C14.6282 13.15 13.8082 13.5 13.5982 12.87C13.4472 12.0973 13.4472 11.3027 13.5982 10.53C13.9082 9.45001 14.4382 9.85001 14.9582 10C14.9956 10.0125 15.0351 10.0175 15.0745 10.0147C15.1138 10.0119 15.1523 10.0014 15.1876 9.98371C15.2228 9.96606 15.2543 9.94164 15.2802 9.91184C15.306 9.88204 15.3257 9.84743 15.3382 9.81001C15.3507 9.77258 15.3557 9.73306 15.3529 9.69371C15.3501 9.65436 15.3395 9.61594 15.3219 9.58066C15.3043 9.54537 15.2798 9.5139 15.25 9.48806C15.2202 9.46221 15.1856 9.44248 15.1482 9.43001C14.7382 9.27001 14.5082 8.97001 13.8882 9.11001C12.3582 9.48001 12.1082 12.43 12.5582 13.45Z" fill="#998696"/>
<path fill-rule="evenodd" clip-rule="evenodd" d="M19.3082 11.56C19.1939 10.8804 19.0233 10.2114 18.7982 9.56C18.5882 9.46 18.4582 9.56 18.3482 9.78C18.3133 9.92459 18.2899 10.0717 18.2782 10.22C18.046 11.5138 18.1776 12.8466 18.6582 14.07C19.0682 14.41 19.4582 13.96 19.2182 13.65C19.2782 13.65 19.2182 13.47 19.2182 13.44C19.3138 12.8182 19.344 12.1881 19.3082 11.56Z" fill="#998696"/>
</g>
<defs>
<clipPath id="clip0_3013_15505">
<rect width="24" height="24" fill="white" transform="translate(0.968201)"/>
</clipPath>
</defs>
</svg>
