<svg width="25" height="24" viewBox="0 0 25 24" fill="none" xmlns="http://www.w3.org/2000/svg">
<g clip-path="url(#clip0_3013_15499)">
<path fill-rule="evenodd" clip-rule="evenodd" d="M8.75827 8.16C8.8111 8.1071 8.84304 8.03689 8.8482 7.96231C8.85336 7.88772 8.83139 7.81378 8.78633 7.75411C8.74128 7.69445 8.67618 7.65307 8.60303 7.63762C8.52988 7.62216 8.45361 7.63366 8.38827 7.67C7.05709 8.50897 5.86874 9.55553 4.86827 10.77C4.7519 10.9529 4.70889 11.1729 4.74783 11.3862C4.78676 11.5994 4.90478 11.7901 5.07827 11.92C5.54827 12.38 7.87827 14.38 8.51827 14.34C8.60938 14.34 8.69693 14.3045 8.76228 14.241C8.82764 14.1776 8.86566 14.0911 8.86827 14C8.86827 13.65 8.77826 14 7.73827 13C6.96827 12.29 6.22826 11.41 5.96826 11.18C6.84577 10.1261 7.77701 9.11808 8.75827 8.16Z" fill="#998696"/>
<path fill-rule="evenodd" clip-rule="evenodd" d="M12.2083 6.34C11.6783 8.68 10.2683 11.04 9.70827 15.13C9.7019 15.2148 9.72665 15.2991 9.7779 15.367C9.82914 15.4349 9.90337 15.4819 9.9867 15.499C10.07 15.5162 10.1568 15.5024 10.2307 15.4602C10.3046 15.4181 10.3606 15.3505 10.3883 15.27C11.1583 12.38 12.5083 10.63 12.8183 6.43C12.8215 6.35346 12.7962 6.27845 12.7474 6.21943C12.6985 6.1604 12.6296 6.12156 12.5538 6.11038C12.478 6.09919 12.4008 6.11647 12.337 6.15887C12.2731 6.20127 12.2273 6.2658 12.2083 6.34Z" fill="#998696"/>
<path fill-rule="evenodd" clip-rule="evenodd" d="M17.4983 11.24C17.5883 10.83 17.2883 10.44 16.9183 10.05C16.2083 9.29 14.9183 8.18 14.4583 7.81C14.43 7.78177 14.3965 7.75937 14.3596 7.74409C14.3227 7.72881 14.2832 7.72095 14.2433 7.72095C14.2033 7.72095 14.1638 7.72881 14.1269 7.74409C14.09 7.75937 14.0565 7.78177 14.0283 7.81C14 7.83824 13.9776 7.87176 13.9624 7.90865C13.9471 7.94554 13.9392 7.98507 13.9392 8.025C13.9392 8.06493 13.9471 8.10447 13.9624 8.14136C13.9776 8.17825 14 8.21177 14.0283 8.24C14.3783 8.66 16.0283 10.63 16.2883 11.1C15.4901 12.0415 14.6281 12.927 13.7083 13.75C13.5983 13.85 13.3183 13.99 13.2483 14.15C13.2185 14.2263 13.2149 14.3103 13.238 14.3889C13.2611 14.4674 13.3096 14.5361 13.376 14.5841C13.4423 14.6322 13.5227 14.6568 13.6045 14.6543C13.6864 14.6517 13.7651 14.6221 13.8283 14.57C14.5183 14.17 17.2183 12.31 17.4983 11.24Z" fill="#998696"/>
<path fill-rule="evenodd" clip-rule="evenodd" d="M22.6883 17.34L21.7983 16.6C20.1483 15.48 19.9683 15.32 19.7383 15.2C20.5469 13.8544 21.0183 12.3333 21.1123 10.7662C21.2064 9.19919 20.9202 7.63262 20.2783 6.2C19.5198 4.65298 18.379 3.3252 16.9638 2.34246C15.5486 1.35973 13.906 0.754569 12.1915 0.58432C10.477 0.414072 8.74741 0.684371 7.1666 1.36961C5.5858 2.05485 4.20612 3.13234 3.15826 4.5C-1.47174 10.29 1.37826 19.35 9.85826 20.69C10.9538 20.9117 12.0827 20.9117 13.1783 20.69C13.2698 20.6622 13.3465 20.5991 13.3915 20.5147C13.4365 20.4303 13.4461 20.3315 13.4183 20.24C13.3904 20.1485 13.3274 20.0718 13.243 20.0268C13.1586 19.9818 13.0598 19.9722 12.9683 20C11.9782 20.1993 10.9583 20.1993 9.96826 20C2.29826 18.56 -0.0317378 10.39 4.11826 5.28C5.05202 4.0803 6.27295 3.13516 7.66836 2.53182C9.06377 1.92848 10.5887 1.68639 12.1023 1.82789C13.616 1.96939 15.0696 2.48992 16.329 3.34144C17.5884 4.19296 18.613 5.34802 19.3083 6.7C21.5583 11.36 18.8083 16.84 15.0383 19.1C14.9939 19.1231 14.9547 19.1549 14.923 19.1935C14.8912 19.2321 14.8677 19.2768 14.8537 19.3248C14.8397 19.3727 14.8356 19.4231 14.8416 19.4727C14.8476 19.5223 14.8636 19.5702 14.8886 19.6135C14.9136 19.6568 14.9471 19.6945 14.9871 19.7245C15.0272 19.7544 15.0728 19.776 15.1214 19.7878C15.17 19.7996 15.2204 19.8015 15.2697 19.7933C15.319 19.7851 15.3662 19.7669 15.4083 19.74C17.0056 18.7742 18.3521 17.4448 19.3383 15.86C20.9883 16.93 23.3383 18.86 23.7683 20.72C23.8583 20.9869 23.8571 21.2761 23.7647 21.5422C23.6724 21.8084 23.4942 22.0362 23.2583 22.19C22.7083 22.6 20.7183 21.34 20.1783 20.9C18.8883 19.9 18.5483 19.59 18.0983 19.16C17.6483 18.73 17.5283 18.84 17.4783 19.03C17.4283 19.22 17.3283 19.27 17.5983 19.53C18.25 20.3487 18.9584 21.1206 19.7183 21.84C20.8683 22.84 22.7183 24.02 23.9583 23.14C26.0483 21.56 24.5983 19.12 22.6883 17.34Z" fill="#7A387B"/>
</g>
<defs>
<clipPath id="clip0_3013_15499">
<rect width="24" height="24" fill="white" transform="translate(0.968262)"/>
</clipPath>
</defs>
</svg>
