<svg width="25" height="24" viewBox="0 0 25 24" fill="none" xmlns="http://www.w3.org/2000/svg">
<g clip-path="url(#clip0_3013_15524)">
<path fill-rule="evenodd" clip-rule="evenodd" d="M24.9682 4.2C24.8682 3.83 24.8582 3.46 24.7582 3.08C24.7234 2.92212 24.6731 2.76805 24.6082 2.62C24.5457 2.45998 24.4687 2.306 24.3782 2.16C24.1637 1.80146 23.9123 1.46631 23.6282 1.16C23.5731 1.07733 23.4878 1.01952 23.3906 0.998959C23.2934 0.978399 23.1921 0.996719 23.1082 1.05C23.0668 1.07556 23.0308 1.10904 23.0024 1.14853C22.9739 1.18801 22.9535 1.23272 22.9424 1.2801C22.9312 1.32747 22.9295 1.37658 22.9374 1.42461C22.9453 1.47264 22.9625 1.51865 22.9882 1.56C23.108 1.91759 23.2082 2.28146 23.2882 2.65C23.3561 2.90233 23.45 3.14697 23.5682 3.38C23.6634 3.54029 23.7739 3.69099 23.8982 3.83L20.0382 3.5C18.0382 3.43 16.1182 3.35 14.1482 3.36C12.1782 3.37 10.2082 3.47 8.2582 3.56L1.8582 4.1C2.06208 3.83751 2.24593 3.56006 2.4082 3.27C2.54004 3.01846 2.65366 2.75779 2.7482 2.49C2.8882 2.08 2.9782 1.67 3.1382 1.26V1.17C5.5482 1.25 7.9782 1.4 10.4082 1.45H15.4082L22.0682 1.32C22.1226 1.32891 22.1782 1.32588 22.2313 1.31114C22.2844 1.29639 22.3337 1.27028 22.3757 1.23461C22.4177 1.19893 22.4514 1.15455 22.4745 1.10455C22.4977 1.05454 22.5096 1.0001 22.5096 0.944997C22.5096 0.889897 22.4977 0.835456 22.4745 0.785447C22.4514 0.735439 22.4177 0.69106 22.3757 0.655387C22.3337 0.619714 22.2844 0.5936 22.2313 0.578855C22.1782 0.564111 22.1226 0.561088 22.0682 0.569997L15.4682 0.269997C13.7982 0.269997 12.1182 0.189997 10.4682 0.209997C7.9682 0.229997 5.3982 0.379997 2.8882 0.489997C2.80243 0.492597 2.72104 0.52851 2.66129 0.590117C2.60155 0.651725 2.56816 0.734181 2.5682 0.819997C2.5682 0.819997 2.5082 0.819997 2.4982 0.869997C2.20147 1.2046 1.92753 1.55873 1.6782 1.93C1.57845 2.09121 1.48829 2.25817 1.4082 2.43C1.32471 2.61367 1.25777 2.80442 1.2082 3C1.10376 3.41497 1.02363 3.83569 0.968202 4.26C0.968202 4.26 0.858202 4 1.5482 7.66C1.9682 9.83 2.5982 12 2.9682 14.15L3.5482 17C3.59155 17.2767 3.65166 17.5506 3.7282 17.82C3.76521 17.9632 3.83352 18.0964 3.9282 18.21C4.17135 18.4845 4.44286 18.7326 4.7382 18.95C5.3582 19.42 6.0882 19.81 6.6782 20.22C7.7582 20.97 8.8782 21.78 10.0482 22.49C10.8308 22.9761 11.6499 23.4007 12.4982 23.76C12.4982 23.76 13.3882 23.76 13.4182 23.76C14.2665 23.4007 15.0856 22.9761 15.8682 22.49C17.0282 21.78 18.1582 20.97 19.2382 20.22C19.8282 19.81 20.5582 19.42 21.1782 18.95C21.4714 18.73 21.7427 18.4822 21.9882 18.21C22.0829 18.0964 22.1512 17.9632 22.1882 17.82C22.2647 17.5506 22.3249 17.2767 22.3682 17L22.9682 14.15C23.3582 11.97 23.9682 9.83 24.4082 7.66C24.4182 7.37 24.9682 4.22 24.9682 4.2ZM23.5382 7.47C22.9782 9.63 22.2182 11.73 21.7082 13.9L21.1382 16.72C21.1382 16.88 21.1982 17.57 20.9882 17.48C20.7472 17.7537 20.4754 17.9987 20.1782 18.21C19.6382 18.62 19.0682 18.98 18.5782 19.36C17.5782 20.15 16.4982 21.02 15.3782 21.78C12.7982 23.54 13.2182 23.61 10.5382 21.78C9.4182 21.02 8.3582 20.15 7.3382 19.36C6.8482 18.98 6.2782 18.62 5.7382 18.21C4.4282 17.21 4.8782 17.21 4.7382 16.73L4.2082 13.9C3.6982 11.73 2.9682 9.63 2.3782 7.47C2.14699 6.59507 1.96999 5.70672 1.8482 4.81L8.3082 4.71L20.0182 4.5L24.1282 4.63V4.71C23.9877 5.64111 23.7906 6.56281 23.5382 7.47Z" fill="#7A387B"/>
<path fill-rule="evenodd" clip-rule="evenodd" d="M17.5282 6.68001C16.5282 6.62001 15.5282 6.50001 14.5282 6.45001H13.2682H11.9782C10.9782 6.51001 9.9782 6.62001 8.9782 6.74001L8.9682 6.79001C8.92596 6.78141 8.8824 6.78172 8.84029 6.7909C8.79817 6.80009 8.75844 6.81796 8.72362 6.84337C8.6888 6.86877 8.65967 6.90116 8.63807 6.93847C8.61648 6.97577 8.6029 7.01717 8.5982 7.06001C8.402 7.58952 8.23836 8.13053 8.1082 8.68001C8.02143 9.15827 8.00124 9.64622 8.0482 10.13C8.2082 12.21 8.5882 12.13 8.7582 12.13C8.8099 12.129 8.86078 12.1169 8.90737 12.0944C8.95396 12.072 8.99517 12.0398 9.0282 12C9.4382 12 9.8482 11.94 10.2682 11.93H12.2682H14.2682L16.4682 12.04C16.1082 15.56 16.4682 14.96 15.9582 15.4C15.4482 15.84 15.1382 16.04 14.8382 16.31L12.9282 18.39L11.5082 17.58C11.0082 17.28 10.5082 16.98 10.0382 16.64L9.4282 16.24C9.25102 16.1725 9.09308 16.0627 8.9682 15.92C8.96278 15.8635 8.96278 15.8065 8.9682 15.75C8.9682 15.57 8.8882 15.38 8.8482 15.22L8.5282 13.46C8.5282 13.3725 8.49343 13.2886 8.43155 13.2267C8.36966 13.1648 8.28572 13.13 8.1982 13.13C8.11068 13.13 8.02674 13.1648 7.96486 13.2267C7.90297 13.2886 7.8682 13.3725 7.8682 13.46V15.35C7.85379 15.5898 7.85379 15.8302 7.8682 16.07C7.88343 16.2148 7.92052 16.3564 7.9782 16.49C8.1144 16.7483 8.29752 16.9789 8.5182 17.17C8.78808 17.3793 9.07209 17.5698 9.3682 17.74C9.8082 17.98 10.2582 18.2 10.7082 18.4C11.3882 18.69 12.0782 18.93 12.7582 19.19C12.8263 19.2161 12.9006 19.2215 12.9718 19.2055C13.043 19.1895 13.1078 19.1528 13.1582 19.1C13.2369 19.0894 13.3104 19.0545 13.3682 19L15.5282 17.23C15.8682 16.97 16.3682 16.7 16.7582 16.37C16.9651 16.1922 17.1468 15.987 17.2982 15.76C17.3762 15.615 17.4206 15.4544 17.4282 15.29C17.4282 15.03 17.3782 14.65 17.3782 14.48L17.1982 12.06C17.2687 12.0421 17.3325 12.0042 17.3822 11.9511C17.4318 11.8979 17.4651 11.8316 17.4782 11.76C17.4782 11.21 16.7782 11.27 14.3182 10.76C13.8272 10.6948 13.3333 10.6547 12.8382 10.64C12.3408 10.6298 11.8432 10.6499 11.3482 10.7C10.606 10.7888 9.87091 10.9292 9.1482 11.12C9.1482 10.77 9.2182 10.42 9.2482 10.06C9.2782 9.70001 9.3182 9.34001 9.3282 8.98001C9.3382 8.62001 9.3282 7.98001 9.3282 7.49001C10.2782 7.49001 11.2182 7.59001 12.1582 7.62001H14.1582C15.2982 7.62001 16.4282 7.41001 17.5582 7.28001C17.6457 7.28001 17.7297 7.24524 17.7915 7.18336C17.8534 7.12147 17.8882 7.03753 17.8882 6.95001C17.8882 6.86249 17.8534 6.77855 17.7915 6.71667C17.7297 6.65478 17.6457 6.62001 17.5582 6.62001L17.5282 6.68001Z" fill="#998696"/>
</g>
<defs>
<clipPath id="clip0_3013_15524">
<rect width="24" height="24" fill="white" transform="translate(0.968201)"/>
</clipPath>
</defs>
</svg>
