<svg width="25" height="24" viewBox="0 0 25 24" fill="none" xmlns="http://www.w3.org/2000/svg">
<g clip-path="url(#clip0_3013_15463)">
<path fill-rule="evenodd" clip-rule="evenodd" d="M1.78819 5.89999C2.71819 5.89999 2.78819 6.44999 4.78819 5.89999C4.8398 5.90868 4.89269 5.90601 4.94316 5.89218C4.99363 5.87834 5.04048 5.85367 5.08044 5.81987C5.12041 5.78608 5.15252 5.74398 5.17455 5.6965C5.19657 5.64903 5.20798 5.59732 5.20798 5.54499C5.20798 5.49265 5.19657 5.44094 5.17455 5.39347C5.15252 5.34599 5.12041 5.30389 5.08044 5.2701C5.04048 5.23631 4.99363 5.21163 4.94316 5.19779C4.89269 5.18396 4.8398 5.18129 4.78819 5.18999C4.58819 5.18999 4.13819 5.02999 3.67819 4.95999C3.76819 4.35999 3.89819 3.75999 3.94819 3.13999C3.99819 2.51999 3.94819 1.04999 3.35819 0.789986C3.26338 0.720944 3.14618 0.689845 3.02962 0.702796C2.91305 0.715748 2.80554 0.771815 2.72819 0.859986C1.87819 1.85999 1.85819 2.63999 2.23819 2.44999L2.76819 2.12999C2.73462 3.08719 2.75799 4.04555 2.83819 4.99999C2.4399 5.04926 2.0478 5.13975 1.66819 5.26999C1.54819 5.36999 1.45819 5.45999 1.47819 5.57999C1.47685 5.62153 1.48388 5.66292 1.49886 5.70169C1.51383 5.74046 1.53646 5.77583 1.56538 5.80568C1.5943 5.83554 1.62893 5.85927 1.66721 5.87547C1.70548 5.89167 1.74663 5.90001 1.78819 5.89999Z" fill="#7A387B"/>
<path fill-rule="evenodd" clip-rule="evenodd" d="M9.02819 5.72999C9.4066 5.89613 9.83257 5.91874 10.2264 5.79358C10.6203 5.66843 10.9551 5.40408 11.1682 5.04999C11.8782 3.84999 11.2582 1.27999 10.6082 0.819987C10.2282 0.349987 9.06819 0.739987 8.71819 1.04999C7.11819 2.45999 6.82819 5.11999 9.02819 5.72999ZM9.29819 1.61999C9.62819 1.24999 10.1282 1.17999 10.2982 1.61999C10.5702 2.45559 10.5911 3.35265 10.3582 4.19999C10.2282 4.56999 9.92819 4.73999 9.35819 4.57999C9.10835 4.52458 8.88926 4.3755 8.74602 4.16343C8.60278 3.95136 8.54629 3.69245 8.58819 3.43999C8.62462 2.77311 8.87341 2.13537 9.29819 1.61999Z" fill="#7A387B"/>
<path fill-rule="evenodd" clip-rule="evenodd" d="M17.1082 5.86999C19.8882 5.40999 18.7882 0.319985 17.0182 0.359985C16.7453 0.328582 16.4688 0.357047 16.208 0.443399C15.9472 0.529751 15.7084 0.671913 15.5082 0.859985C15.1158 1.35447 14.846 1.93481 14.7208 2.55355C14.5957 3.1723 14.6188 3.81187 14.7882 4.41999C14.9183 4.91118 15.2306 5.33441 15.6615 5.60372C16.0924 5.87304 16.6096 5.96824 17.1082 5.86999ZM16.1082 1.37999C16.5305 1.26523 16.9758 1.26523 17.3982 1.37999C17.9682 2.28999 17.9682 4.51999 16.9682 4.67999C15.5082 4.88999 15.3782 2.24999 16.0782 1.37999H16.1082Z" fill="#7A387B"/>
<path fill-rule="evenodd" clip-rule="evenodd" d="M21.2582 2.76999C21.6382 2.95999 21.6982 2.45999 22.2582 1.84999L22.4582 4.26999C22.4582 4.31999 22.4582 4.75999 22.5082 5.12999C22.1682 5.12999 21.3482 4.94999 21.1582 5.47999C21.1582 5.55999 21.1582 5.63999 21.2582 5.75999C21.8182 6.75999 23.6582 6.04999 23.7482 6.04999C23.7935 6.06444 23.8412 6.06982 23.8886 6.06582C23.936 6.06183 23.9821 6.04855 24.0244 6.02672C24.0666 6.0049 24.1042 5.97497 24.1348 5.93864C24.1655 5.90231 24.1887 5.8603 24.2032 5.81499C24.2176 5.76969 24.223 5.72198 24.219 5.67459C24.215 5.62721 24.2017 5.58107 24.1799 5.53882C24.1581 5.49657 24.1282 5.45903 24.0918 5.42835C24.0555 5.39766 24.0135 5.37444 23.9682 5.35999C23.7755 5.26862 23.5697 5.20789 23.3582 5.17999C23.5182 3.60999 23.7982 2.58999 23.3582 1.17999C23.1482 0.769991 22.9682 0.619991 22.6582 0.639991C22.4767 0.635944 22.2996 0.696155 22.1582 0.809991C21.7502 1.27076 21.4131 1.7898 21.1582 2.34999C21.1365 2.38393 21.1218 2.42189 21.1151 2.46162C21.1083 2.50135 21.1097 2.54203 21.119 2.58122C21.1283 2.62042 21.1455 2.65734 21.1694 2.68977C21.1933 2.7222 21.2235 2.74949 21.2582 2.76999Z" fill="#7A387B"/>
<path fill-rule="evenodd" clip-rule="evenodd" d="M2.5082 14.23C2.89456 14.2772 3.28618 14.207 3.63216 14.0287C3.97813 13.8504 4.26247 13.5721 4.4482 13.23C4.71186 12.8064 4.87112 12.3262 4.91284 11.8289C4.95457 11.3317 4.87757 10.8316 4.6882 10.37C4.67445 10.32 4.65006 10.2735 4.6167 10.2338C4.58333 10.1941 4.54178 10.1621 4.49488 10.1399C4.44799 10.1178 4.39686 10.106 4.34499 10.1054C4.29313 10.1049 4.24175 10.1155 4.19439 10.1366C4.14702 10.1578 4.10478 10.1889 4.07055 10.2279C4.03633 10.2668 4.01093 10.3127 3.9961 10.3624C3.98127 10.4122 3.97735 10.4645 3.98461 10.5158C3.99188 10.5672 4.01016 10.6164 4.0382 10.66C4.3582 11.53 3.7582 13.24 2.6682 13.05C1.8282 12.92 1.9682 9.88 2.9682 9.7C3.17819 9.7 3.3382 9.83 3.6082 9.87C3.68909 9.88857 3.77404 9.87424 3.84437 9.83016C3.91469 9.78609 3.96463 9.71589 3.9832 9.635C4.00176 9.55411 3.98743 9.46916 3.94336 9.39883C3.89929 9.3285 3.82909 9.27857 3.7482 9.26C3.4782 9.17 3.3882 9 2.9682 9C0.818195 9 0.028195 14 2.5082 14.23Z" fill="#7A387B"/>
<path fill-rule="evenodd" clip-rule="evenodd" d="M24.7282 13.67C24.4548 13.5293 24.1613 13.4315 23.8582 13.38C23.9482 12.23 24.2782 9.54998 23.3882 8.83998C23.2988 8.74429 23.1781 8.68365 23.0479 8.66899C22.9178 8.65432 22.7867 8.68659 22.6782 8.75998C22.489 8.90889 22.3381 9.1009 22.2382 9.31998C22.1482 9.47998 21.6882 10.08 21.9282 10.4C22.1682 10.72 22.4882 10.4 22.7382 10.17C23.0782 13.99 22.9582 12.42 22.9482 13.35H22.8582C22.5734 13.4204 22.2929 13.5072 22.0182 13.61C21.8182 13.74 21.7782 13.87 21.8082 13.95C21.8382 14.03 21.8082 14.1 21.9082 14.14C21.9288 14.1702 21.9577 14.1938 21.9914 14.208C22.0251 14.2222 22.0622 14.2263 22.0982 14.22C22.6382 14.3 22.8682 14.53 23.4682 14.49C24.0682 14.45 24.3482 14.31 24.4682 14.32C24.5544 14.3545 24.6507 14.3533 24.7361 14.3167C24.8214 14.2801 24.8887 14.2112 24.9232 14.125C24.9577 14.0388 24.9565 13.9424 24.9199 13.8571C24.8834 13.7718 24.8144 13.7045 24.7282 13.67Z" fill="#7A387B"/>
<path fill-rule="evenodd" clip-rule="evenodd" d="M24.2282 22.34L23.6082 22.2C23.6917 21.6299 23.7451 21.0557 23.7682 20.48C23.7682 19.79 23.6682 17.72 23.0082 17.48C22.3482 17.24 22.3582 17.57 21.5882 18.66C21.5265 18.7034 21.4821 18.7672 21.4628 18.8402C21.4436 18.9131 21.4508 18.9905 21.4831 19.0587C21.5154 19.1269 21.5707 19.1815 21.6394 19.2128C21.708 19.2442 21.7855 19.2502 21.8582 19.23C22.0894 19.1135 22.2938 18.95 22.4582 18.75C22.4582 19.13 22.4582 18.54 22.7682 22.07C22.5832 22.0346 22.3932 22.0346 22.2082 22.07C21.866 22.1995 21.5321 22.3498 21.2082 22.52C21.0582 22.65 21.0182 22.76 21.0382 22.81C21.0582 22.86 21.0382 23.11 21.2782 23.11C22.2738 23.2983 23.299 23.2607 24.2782 23C24.3407 22.9674 24.3923 22.9173 24.4265 22.8557C24.4608 22.7941 24.4762 22.7238 24.4709 22.6535C24.4656 22.5832 24.4397 22.5161 24.3966 22.4603C24.3534 22.4046 24.2949 22.3628 24.2282 22.34Z" fill="#7A387B"/>
<path d="M8.33819 13.45C9.06025 13.5108 9.78614 13.5108 10.5082 13.45L10.9582 13.37C12.5077 13.0201 13.9813 12.3934 15.3082 11.52C15.4382 11.43 15.9182 11.3 15.9382 11.11C16.587 11.9218 17.292 12.6871 18.0482 13.4C18.12 13.4511 18.2081 13.4741 18.2958 13.4646C18.3835 13.4551 18.4646 13.4137 18.5238 13.3484C18.583 13.283 18.6161 13.1982 18.617 13.11C18.6178 13.0218 18.5862 12.9364 18.5282 12.87C17.1282 11.55 16.7282 9.63997 15.5282 10.03C15.3182 10.1 15.6382 9.97997 12.5282 11.81C11.1474 12.5954 9.56106 12.9441 7.97819 12.81C7.91968 12.8334 7.86938 12.8736 7.83361 12.9254C7.79784 12.9773 7.77818 13.0386 7.77712 13.1016C7.77605 13.1647 7.79361 13.2266 7.8276 13.2797C7.8616 13.3327 7.9105 13.3746 7.96819 13.4H8.12819L8.33819 13.45Z" fill="#7A387B"/>
<path d="M6.45819 15.55C5.96819 11.45 8.96819 7.88997 14.1682 8.31997C14.2454 8.31783 14.3192 8.28784 14.376 8.23555C14.4328 8.18326 14.4688 8.11218 14.4773 8.03543C14.4859 7.95869 14.4664 7.88145 14.4224 7.81796C14.3785 7.75447 14.313 7.70901 14.2382 7.68997C9.96819 7.18997 7.31819 8.99997 6.18819 11.61C5.51073 12.8531 5.31832 14.3032 5.64819 15.68C5.84819 16.34 6.38819 16 6.45819 15.55Z" fill="#7A387B"/>
<path d="M19.9682 15.71C19.8392 15.1742 19.5369 14.6961 19.1082 14.35C18.7947 14.0847 18.4256 13.8933 18.0282 13.79C17.9398 13.7807 17.8512 13.8045 17.7793 13.8566C17.7074 13.9088 17.6573 13.9857 17.6387 14.0726C17.6201 14.1594 17.6343 14.2501 17.6785 14.3272C17.7227 14.4042 17.7938 14.4622 17.8782 14.49C19.8782 14.97 19.6682 19.31 16.0182 18.49C13.7282 17.98 14.1182 13.89 17.1782 14.12C17.2604 14.1279 17.3424 14.1029 17.4062 14.0504C17.4699 13.9979 17.5102 13.9222 17.5182 13.84C17.5261 13.7577 17.5011 13.6757 17.4486 13.612C17.3961 13.5482 17.3204 13.5079 17.2382 13.5C12.9182 12.96 12.2382 18.83 15.7582 19.67C16.2578 19.774 16.7704 19.801 17.2782 19.75C17.6205 19.6783 17.9553 19.5745 18.2782 19.44C18.9666 19.1316 19.5185 18.5822 19.8298 17.8951C20.1411 17.208 20.1903 16.4308 19.9682 15.71Z" fill="#998696"/>
<path d="M17.3682 20.12C16.4291 20.7221 15.3702 21.1127 14.2651 21.2646C13.1599 21.4166 12.035 21.3263 10.9682 21C10.2389 20.8892 9.55028 20.5931 8.9682 20.14C8.5382 19.75 6.7682 19.9 7.8882 20.8C8.69498 21.4762 9.64598 21.9585 10.6682 22.21C14.9382 23.15 17.2282 22.54 18.8082 20.36C19.0782 20 18.0582 19.61 17.3682 20.12Z" fill="#7A387B"/>
<path d="M8.82819 19.68C10.4282 19.83 11.5282 19.61 12.2382 18.89C13.7782 17.33 13.3382 14.25 11.1082 13.79C11.0183 13.7763 10.9266 13.7971 10.8515 13.8482C10.7763 13.8994 10.7233 13.977 10.703 14.0657C10.6828 14.1543 10.6968 14.2473 10.7423 14.326C10.7877 14.4047 10.8613 14.4633 10.9482 14.49C12.9482 14.97 12.7382 19.31 9.09819 18.49C6.79819 17.98 7.19819 13.89 10.2482 14.12C10.2946 14.1254 10.3416 14.1198 10.3855 14.1038C10.4294 14.0878 10.469 14.0618 10.501 14.0278C10.5331 13.9938 10.5567 13.9528 10.5701 13.908C10.5835 13.8633 10.5863 13.816 10.5782 13.77C10.5782 13.46 9.18819 13.46 8.29819 13.77C7.87073 13.9892 7.50007 14.3048 7.21546 14.6918C6.93085 15.0788 6.74007 15.5266 6.65819 16C6.54287 16.7511 6.65066 17.5196 6.96819 18.21C7.16209 18.5685 7.42703 18.8838 7.74682 19.1365C8.06661 19.3892 8.43455 19.5742 8.82819 19.68Z" fill="#998696"/>
<path d="M16.2082 8.47998C16.1167 8.46009 16.021 8.47736 15.9423 8.528C15.8635 8.57863 15.8081 8.65848 15.7882 8.74998C15.7683 8.84148 15.7856 8.93714 15.8362 9.0159C15.8868 9.09467 15.9667 9.15009 16.0582 9.16998C17.1557 9.45083 18.1253 10.0961 18.8082 11C19.5946 12.01 19.9857 13.2722 19.9082 14.55C19.9082 14.94 20.6382 15.44 20.7682 14.91C21.0309 13.8723 20.9822 12.7802 20.6282 11.77C20.2327 10.8905 19.6191 10.1266 18.8456 9.55082C18.072 8.97503 17.1642 8.60643 16.2082 8.47998Z" fill="#7A387B"/>
<path d="M8.47819 16.49C8.42955 16.5555 8.40781 16.6372 8.41741 16.7183C8.42702 16.7993 8.46724 16.8737 8.52984 16.9261C8.59245 16.9784 8.6727 17.0049 8.75419 17.0001C8.83568 16.9952 8.91223 16.9594 8.96819 16.9C9.14819 16.78 10.2882 16.48 10.6282 16.71C10.6946 16.768 10.78 16.7996 10.8682 16.7987C10.9564 16.7979 11.0412 16.7648 11.1066 16.7056C11.1719 16.6464 11.2133 16.5653 11.2228 16.4776C11.2323 16.3899 11.2093 16.3018 11.1582 16.23C11.0251 15.9726 10.8179 15.7609 10.5634 15.6224C10.3088 15.4839 10.0186 15.4248 9.73017 15.4528C9.44173 15.4807 9.16829 15.5945 8.94513 15.7794C8.72197 15.9643 8.55933 16.2118 8.47819 16.49Z" fill="#7A387B"/>
<path d="M15.9682 16.21C15.9159 16.2848 15.8939 16.3767 15.9068 16.4672C15.9197 16.5576 15.9665 16.6397 16.0377 16.6969C16.1089 16.7541 16.1992 16.7821 16.2902 16.7753C16.3813 16.7684 16.4664 16.7272 16.5282 16.66C17.0294 16.5482 17.5516 16.5758 18.0382 16.74C18.0985 16.7912 18.1757 16.8182 18.2548 16.8159C18.3339 16.8135 18.4093 16.7819 18.4665 16.7272C18.5236 16.6726 18.5585 16.5986 18.5644 16.5197C18.5703 16.4408 18.5467 16.3625 18.4982 16.3C18.4074 16.0423 18.2411 15.8179 18.0209 15.6561C17.8007 15.4943 17.5369 15.4026 17.2639 15.3929C16.9908 15.3831 16.7212 15.4559 16.49 15.6017C16.2589 15.7474 16.0771 15.9594 15.9682 16.21Z" fill="#7A387B"/>
<path d="M5.09819 22.7C4.66109 22.597 4.21626 22.5301 3.76819 22.5C3.94706 21.2643 3.96722 20.0108 3.82819 18.77C3.82819 18.53 3.75819 17.55 3.36819 17.24C3.13819 17.07 2.90819 16.99 2.67819 17.24C2.242 17.7594 2.01396 18.4221 2.03819 19.1C2.07162 19.1583 2.12207 19.205 2.18277 19.2339C2.24347 19.2627 2.31154 19.2724 2.37787 19.2615C2.4442 19.2506 2.50563 19.2197 2.55394 19.173C2.60225 19.1263 2.63513 19.0659 2.64819 19C3.09819 22.92 3.10819 22.47 2.91819 22.48C1.18819 22.59 0.918194 23.28 1.48819 23.4C2.6838 23.6975 3.9307 23.7249 5.13819 23.48C5.51819 23.47 5.70819 22.9 5.09819 22.7Z" fill="#7A387B"/>
</g>
<defs>
<clipPath id="clip0_3013_15463">
<rect width="24" height="24" fill="white" transform="translate(0.968201)"/>
</clipPath>
</defs>
</svg>
