<svg width="25" height="24" viewBox="0 0 25 24" fill="none" xmlns="http://www.w3.org/2000/svg">
<g clip-path="url(#clip0_3013_15490)">
<path fill-rule="evenodd" clip-rule="evenodd" d="M10.0782 20.53C9.88686 20.2651 9.66161 20.0264 9.40822 19.82C9.03812 19.5515 8.63039 19.3392 8.19822 19.19C8.28941 19.1331 8.37631 19.0696 8.45822 19C8.92366 18.6482 9.25142 18.1448 9.38474 17.5768C9.51806 17.0088 9.44854 16.4121 9.18822 15.89C8.94698 15.3362 8.52443 14.881 7.99009 14.5993C7.45575 14.3176 6.84144 14.2261 6.24822 14.34C5.71954 14.4592 5.22416 14.6949 4.79822 15.03C4.33006 15.3668 3.98012 15.8427 3.79822 16.39C3.67467 16.7994 3.65014 17.2323 3.72664 17.653C3.80314 18.0737 3.97847 18.4703 4.23822 18.81C4.38671 18.977 4.55847 19.1218 4.74822 19.24C4.52027 19.3006 4.29912 19.3844 4.08822 19.49C3.73092 19.7086 3.4159 19.9897 3.15822 20.32C2.92141 20.645 2.73903 21.0064 2.61822 21.39C2.38021 22.1594 2.40483 22.9861 2.68822 23.74C2.71355 23.8163 2.76673 23.8804 2.83715 23.9193C2.90758 23.9582 2.99007 23.9692 3.06822 23.95C3.14601 23.9267 3.21158 23.8739 3.25085 23.8029C3.29011 23.7318 3.29994 23.6482 3.27822 23.57C3.23017 23.0768 3.30222 22.5793 3.48822 22.12C3.61856 21.766 3.79329 21.43 4.00822 21.12C4.18179 20.8182 4.40882 20.5505 4.67822 20.33C4.84858 20.1891 5.03689 20.0714 5.23822 19.98C5.5853 19.8332 5.94299 19.7128 6.30822 19.62C6.35725 19.6083 6.40319 19.5862 6.44289 19.5551C6.48258 19.524 6.5151 19.4848 6.53822 19.44C6.61073 19.421 6.67352 19.3756 6.71424 19.3127C6.75496 19.2498 6.77064 19.1739 6.75822 19.1C6.74134 19.0209 6.69426 18.9516 6.62701 18.9068C6.55976 18.862 6.47767 18.8452 6.39822 18.86C6.13604 18.9099 5.8653 18.8889 5.61393 18.7993C5.36255 18.7096 5.13965 18.5545 4.96822 18.35C4.82449 18.1108 4.74038 17.8406 4.72297 17.5622C4.70557 17.2837 4.75538 17.0051 4.86822 16.75C5.00785 16.4484 5.22531 16.1896 5.49822 16C5.79742 15.7813 6.13747 15.6249 6.49822 15.54C6.84978 15.4626 7.21713 15.5052 7.5416 15.6611C7.86608 15.817 8.12894 16.0771 8.28822 16.4C8.4775 16.7267 8.54899 17.1085 8.49075 17.4816C8.43252 17.8546 8.24807 18.1965 7.96822 18.45C7.88056 18.5288 7.78309 18.5961 7.67822 18.65L7.31822 18.78C7.14822 18.78 6.96822 19.17 6.95822 19.18C6.93351 19.2688 6.94486 19.3638 6.9898 19.4443C7.03474 19.5248 7.10964 19.5844 7.19822 19.61C7.75157 19.8336 8.24973 20.1748 8.65822 20.61C8.82818 20.7823 8.98214 20.9698 9.11822 21.17C9.25684 21.3671 9.38052 21.5744 9.48822 21.79C9.76272 22.3126 9.88732 22.9009 9.84822 23.49C9.83968 23.5287 9.83886 23.5688 9.8458 23.6078C9.85274 23.6469 9.8673 23.6842 9.88866 23.7176C9.93179 23.7851 9.99998 23.8327 10.0782 23.85C10.1565 23.8672 10.2383 23.8527 10.3059 23.8095C10.3734 23.7664 10.421 23.6982 10.4382 23.62C10.7058 22.9054 10.7373 22.1238 10.5282 21.39C10.4259 21.0808 10.2739 20.7903 10.0782 20.53Z" fill="#7A387B"/>
<path fill-rule="evenodd" clip-rule="evenodd" d="M20.0382 20.53C19.8461 20.2625 19.6171 20.0235 19.3582 19.82C18.9917 19.5515 18.5873 19.3392 18.1582 19.19C18.2382 19.14 18.3382 19.1 18.4182 19.04C18.8821 18.687 19.2086 18.1836 19.3418 17.6161C19.475 17.0486 19.4066 16.4525 19.1482 15.93C18.9055 15.3773 18.4827 14.9233 17.9488 14.6418C17.4148 14.3603 16.8013 14.268 16.2082 14.38C15.6789 14.4972 15.183 14.7331 14.7582 15.07C14.291 15.4077 13.9413 15.8833 13.7582 16.43C13.636 16.8401 13.6131 17.2735 13.6914 17.6942C13.7696 18.115 13.9468 18.5111 14.2082 18.85C14.3531 19.0168 14.5216 19.1616 14.7082 19.28C14.4814 19.344 14.2605 19.4276 14.0482 19.53C13.696 19.7516 13.3847 20.0324 13.1282 20.36C12.8838 20.6803 12.7007 21.0431 12.5882 21.43C12.3447 22.1986 12.3694 23.0272 12.6582 23.78C12.6814 23.8578 12.7342 23.9233 12.8053 23.9626C12.8764 24.0019 12.96 24.0117 13.0382 23.99C13.116 23.9668 13.1816 23.9139 13.2208 23.8429C13.2601 23.7718 13.2699 23.6882 13.2482 23.61C13.1973 23.1167 13.2694 22.6185 13.4582 22.16C13.585 21.8063 13.7564 21.4703 13.9682 21.16C14.1483 20.8599 14.3783 20.5928 14.6482 20.37C14.8154 20.2248 15.0044 20.1067 15.2082 20.02C15.5519 19.8732 15.9062 19.7529 16.2682 19.66C16.3178 19.6496 16.3643 19.628 16.4042 19.5968C16.4441 19.5656 16.4762 19.5256 16.4982 19.48C16.572 19.4632 16.6363 19.4183 16.6774 19.3547C16.7185 19.2912 16.7331 19.2141 16.7182 19.14C16.711 19.1012 16.6962 19.0643 16.6747 19.0313C16.6532 18.9982 16.6254 18.9698 16.5929 18.9475C16.5604 18.9252 16.5238 18.9095 16.4853 18.9014C16.4467 18.8932 16.4069 18.8927 16.3682 18.9C16.0879 18.9546 15.7979 18.9281 15.5322 18.8236C15.2665 18.7191 15.0361 18.5409 14.8682 18.31C14.7245 18.0708 14.6404 17.8006 14.623 17.5222C14.6056 17.2437 14.6554 16.9652 14.7682 16.71C14.9099 16.3954 15.1389 16.1281 15.4282 15.94C15.7264 15.7196 16.0668 15.563 16.4282 15.48C16.7798 15.4026 17.1471 15.4452 17.4716 15.6011C17.7961 15.757 18.0589 16.0172 18.2182 16.34C18.4337 16.6641 18.5269 17.0544 18.4811 17.4409C18.4353 17.8275 18.2535 18.1852 17.9682 18.45C17.8822 18.5264 17.7884 18.5934 17.6882 18.65C17.4082 18.78 17.1082 18.75 16.9682 19.18C16.9435 19.2688 16.9548 19.3638 16.9998 19.4443C17.0447 19.5248 17.1196 19.5844 17.2082 19.61C17.7602 19.8361 18.2579 20.177 18.6682 20.61C18.8352 20.785 18.9889 20.9722 19.1282 21.17C19.2636 21.3673 19.3839 21.5746 19.4882 21.79C19.7662 22.3116 19.8942 22.9 19.8582 23.49C19.8479 23.5288 19.8458 23.5693 19.8519 23.609C19.8581 23.6487 19.8725 23.6867 19.8941 23.7205C19.9157 23.7544 19.9442 23.7833 19.9776 23.8056C20.011 23.8279 20.0486 23.843 20.0882 23.85C20.1663 23.8651 20.2471 23.8497 20.3141 23.8069C20.3811 23.7641 20.4291 23.6972 20.4482 23.62C20.7125 22.9043 20.7405 22.1228 20.5282 21.39C20.4136 21.0782 20.248 20.7875 20.0382 20.53Z" fill="#7A387B"/>
<path fill-rule="evenodd" clip-rule="evenodd" d="M7.58822 4.50997C7.19822 4.68997 6.82822 4.84997 6.46822 5.05997C6.21993 5.20717 5.9796 5.3674 5.74822 5.53997C5.60853 5.6456 5.47498 5.75912 5.34822 5.87997C5.23507 5.99389 5.16146 6.1411 5.13822 6.29997C5.11927 6.42821 5.13216 6.55914 5.17575 6.68121C5.21935 6.80329 5.29232 6.91276 5.38822 6.99997C5.67206 7.20818 5.97708 7.38583 6.29822 7.52997L7.04822 7.80997C7.13442 7.83782 7.22815 7.83029 7.30879 7.78903C7.38943 7.74777 7.45038 7.67617 7.47822 7.58997C7.50607 7.50378 7.49854 7.41005 7.45728 7.32941C7.41602 7.24877 7.34442 7.18782 7.25822 7.15997L6.76822 6.74997C6.76822 6.74997 6.54822 6.59997 6.38822 6.47997L6.52822 6.40997L7.96822 4.99997C8.01956 4.94841 8.05112 4.88044 8.05739 4.80795C8.06365 4.73547 8.04423 4.66308 8.0025 4.60348C7.96078 4.54387 7.89942 4.50084 7.82917 4.48192C7.75891 4.463 7.68424 4.46939 7.61822 4.49997L7.58822 4.50997Z" fill="#7A387B"/>
<path fill-rule="evenodd" clip-rule="evenodd" d="M10.6082 2.72998C10.2682 3.30998 9.8882 3.84998 9.6082 4.43998C9.4682 4.68998 9.3382 4.95998 9.2182 5.22998C9.0982 5.49998 8.9582 5.90998 8.8582 6.22998C8.6382 7.02998 8.4982 7.83998 8.2582 8.63998C8.23175 8.68329 8.21504 8.73183 8.20922 8.78225C8.2034 8.83266 8.20861 8.88374 8.2245 8.93193C8.24038 8.98013 8.26655 9.0243 8.30121 9.06138C8.33586 9.09845 8.37816 9.12755 8.42518 9.14665C8.47219 9.16575 8.5228 9.1744 8.57349 9.17199C8.62418 9.16959 8.67375 9.15619 8.71874 9.13272C8.76374 9.10926 8.8031 9.07629 8.83409 9.0361C8.86507 8.99591 8.88695 8.94946 8.8982 8.89998C9.1782 8.35998 9.4282 7.80998 9.6582 7.24998C9.8882 6.68998 10.0682 6.14998 10.2982 5.60998L11.1682 2.99998C11.1846 2.96329 11.1935 2.92369 11.1943 2.88352C11.1951 2.84334 11.1878 2.80342 11.1729 2.76611C11.1579 2.7288 11.1357 2.69487 11.1074 2.66633C11.0791 2.63779 11.0454 2.61523 11.0082 2.59998C10.9378 2.56487 10.8564 2.55883 10.7816 2.58314C10.7068 2.60746 10.6445 2.66019 10.6082 2.72998Z" fill="#7A387B"/>
<path fill-rule="evenodd" clip-rule="evenodd" d="M13.2482 7.15C13.3814 7.06312 13.5025 6.95887 13.6082 6.84C13.7077 6.73203 13.7918 6.6109 13.8582 6.48C13.8996 6.38251 13.915 6.27593 13.9027 6.17072C13.8904 6.06552 13.851 5.96532 13.7882 5.88C13.6173 5.66084 13.4111 5.4716 13.1782 5.32C12.6877 5.08136 12.1795 4.88077 11.6582 4.72C11.5877 4.67968 11.5043 4.66862 11.4257 4.68919C11.3472 4.70976 11.2799 4.76032 11.2382 4.83C11.2169 4.86454 11.2028 4.90305 11.1968 4.94319C11.1908 4.98333 11.193 5.02428 11.2033 5.06354C11.2136 5.10281 11.2317 5.13958 11.2566 5.17163C11.2815 5.20367 11.3127 5.23034 11.3482 5.25L12.2182 5.95L12.5882 6.26L12.2082 6.66L11.4982 7.23C11.4594 7.25432 11.4259 7.28623 11.3998 7.32381C11.3736 7.3614 11.3553 7.40387 11.346 7.4487C11.3366 7.49353 11.3365 7.53978 11.3454 7.58468C11.3544 7.62958 11.3724 7.6722 11.3982 7.71C11.4216 7.74847 11.4525 7.78175 11.4892 7.80781C11.5259 7.83386 11.5676 7.85214 11.6116 7.8615C11.6556 7.87087 11.7011 7.87113 11.7452 7.86227C11.7894 7.85342 11.8312 7.83563 11.8682 7.81L12.6882 7.45C12.8859 7.37213 13.0738 7.27145 13.2482 7.15Z" fill="#7A387B"/>
<path fill-rule="evenodd" clip-rule="evenodd" d="M15.5782 9.53998C16.5613 8.01173 16.9426 6.17314 16.6482 4.37998C16.4815 3.65326 16.1639 2.9697 15.716 2.37364C15.2681 1.77757 14.6999 1.28231 14.0482 0.919985C12.7697 0.179437 11.2852 -0.125875 9.81821 0.0499848C8.05629 0.199797 6.35734 0.776408 4.86821 1.72998C3.86935 2.44124 3.10932 3.43834 2.68821 4.58998C2.22462 5.83148 2.26047 7.20437 2.78821 8.41998C3.29796 9.61955 4.2404 10.5834 5.42821 11.12C5.7707 11.2671 6.1301 11.3713 6.49821 11.43C7.02464 11.5109 7.55575 11.5577 8.08821 11.57C8.39135 11.5852 8.69507 11.5852 8.99821 11.57H9.33821C9.40821 11.79 9.48821 12 9.53821 12.22C9.64821 12.69 9.73821 13.16 9.80821 13.64L9.96821 14.45L10.1082 14.93C10.0982 14.9626 10.0982 14.9974 10.1082 15.03C10.1425 15.0955 10.1899 15.1532 10.2474 15.1996C10.305 15.246 10.3714 15.2801 10.4427 15.2998C10.5139 15.3195 10.5884 15.3243 10.6616 15.314C10.7348 15.3038 10.8051 15.2785 10.8682 15.24C11.078 15.1247 11.2566 14.9599 11.3882 14.76C11.576 14.4422 11.7333 14.1074 11.8582 13.76L12.2282 12.6L12.6382 11.37C13.2378 11.3181 13.8166 11.1253 14.3275 10.8073C14.8384 10.4893 15.2669 10.055 15.5782 9.53998ZM11.4082 12.28L10.9182 13.28L10.8482 13.42C10.7082 13.02 10.5682 12.63 10.3982 12.24C10.2282 11.85 10.0882 11.56 9.90821 11.24C9.72821 10.92 9.90821 11.24 9.90821 11.18C9.90821 11.12 9.90821 11.18 9.84821 11.18C9.80972 11.1383 9.75947 11.1092 9.7041 11.0967C9.64874 11.0842 9.59089 11.0889 9.53821 11.11C9.34438 11.0971 9.15291 11.0602 8.96821 11C8.67821 11 8.38821 10.95 8.09821 10.93C7.59841 10.8996 7.10087 10.8395 6.60821 10.75C6.30094 10.6848 6.00227 10.5841 5.71821 10.45C4.75164 9.9495 4.00902 9.10334 3.63821 8.07998C3.25376 7.0873 3.2645 5.985 3.66821 4.99998C4.14253 3.81344 5.0356 2.84209 6.17821 2.26998C7.36983 1.69597 8.65233 1.33389 9.96821 1.19998C11.1895 1.03975 12.43 1.27453 13.5082 1.86998C14.0454 2.14336 14.519 2.52688 14.8981 2.99555C15.2771 3.46421 15.5532 4.00749 15.7082 4.58998C15.9566 5.88072 15.8067 7.21648 15.2782 8.41998C15.0785 9.00976 14.7197 9.53291 14.2415 9.9317C13.7633 10.3305 13.1843 10.5895 12.5682 10.68C12.482 10.6473 12.3863 10.65 12.3021 10.6875C12.2178 10.7249 12.1517 10.7941 12.1182 10.88L11.4082 12.28Z" fill="#998696"/>
<path fill-rule="evenodd" clip-rule="evenodd" d="M23.4182 6.37997C23.2313 5.62834 22.8909 4.92355 22.4182 4.30997C21.9516 3.69258 21.3277 3.21186 20.6117 2.91809C19.8957 2.62431 19.114 2.52826 18.3482 2.63997C18.3049 2.64198 18.2626 2.65334 18.2241 2.67328C18.1856 2.69322 18.1519 2.72126 18.1253 2.75547C18.0987 2.78968 18.0798 2.82926 18.0699 2.87147C18.0601 2.91367 18.0595 2.95752 18.0682 2.99997C18.0692 3.04082 18.0789 3.081 18.0965 3.11786C18.1141 3.15473 18.1393 3.18745 18.1705 3.21389C18.2016 3.24032 18.238 3.25988 18.2773 3.27127C18.3165 3.28266 18.3577 3.28562 18.3982 3.27997C19.0275 3.2681 19.649 3.42049 20.2014 3.72212C20.7538 4.02375 21.218 4.46418 21.5482 4.99997C21.8863 5.52108 22.1332 6.09597 22.2782 6.69997C22.4445 7.30179 22.4887 7.93081 22.4082 8.54997C22.3348 9.21114 22.0976 9.84356 21.7182 10.39C21.3446 10.9381 20.788 11.3351 20.1482 11.51C20.0603 11.5314 19.984 11.5861 19.9356 11.6626C19.8871 11.739 19.8701 11.8313 19.8882 11.92C19.8882 11.92 19.8882 11.98 19.9482 12.01C19.8704 11.9759 19.7828 11.9714 19.7018 11.9971C19.6209 12.0229 19.5521 12.0772 19.5082 12.15L18.9782 12.94L18.8882 13.04C18.8713 12.8197 18.831 12.6018 18.7682 12.39C18.7277 12.2019 18.6456 12.0252 18.5279 11.8729C18.4102 11.7207 18.26 11.5967 18.0882 11.51C17.9369 11.4455 17.7707 11.4247 17.6082 11.45C17.3782 11.45 17.0682 11.63 16.9182 11.65C16.6569 11.698 16.3932 11.7314 16.1282 11.75L14.8782 11.81C14.838 11.8073 14.7976 11.8127 14.7596 11.8259C14.7215 11.8392 14.6865 11.8599 14.6566 11.887C14.6267 11.9141 14.6026 11.9469 14.5857 11.9835C14.5688 12.0201 14.5595 12.0597 14.5582 12.1C14.5578 12.1799 14.5874 12.2571 14.6411 12.3163C14.6947 12.3755 14.7686 12.4125 14.8482 12.42L16.9782 12.67C17.8082 12.67 17.4282 11.74 17.9782 14.24C17.9782 14.34 18.4182 14.85 18.8582 14.46C19.0082 14.32 19.3782 13.92 19.3982 13.89L19.7082 13.4L20.1482 12.49C20.1801 12.439 20.1971 12.3801 20.1971 12.32C20.1971 12.2598 20.1801 12.2009 20.1482 12.15C20.2169 12.1692 20.2895 12.1692 20.3582 12.15C21.1877 11.9972 21.9357 11.5541 22.4682 10.9C23.0081 10.2619 23.3794 9.49861 23.5482 8.67997C23.6662 7.91265 23.6219 7.12911 23.4182 6.37997Z" fill="#7A387B"/>
</g>
<defs>
<clipPath id="clip0_3013_15490">
<rect width="24" height="24" fill="white" transform="translate(0.968201)"/>
</clipPath>
</defs>
</svg>
