<svg width="25" height="24" viewBox="0 0 25 24" fill="none" xmlns="http://www.w3.org/2000/svg">
<g clip-path="url(#clip0_3013_15570)">
<path fill-rule="evenodd" clip-rule="evenodd" d="M20.6695 17.3448C20.8705 15.9287 19.4631 14.8261 18.1362 15.3601C18.1133 15.3693 18.0907 15.3789 18.0682 15.389C17.1486 15.8281 16.3168 16.4312 15.6136 17.1688C15.1833 17.5306 13.7262 18.6161 13.6578 18.6455C12.8605 18.6375 12.0727 18.4713 11.3401 18.1565C11.3401 18.0587 11.4086 17.9707 11.5259 17.8142C12.7288 16.142 14.2934 15.5552 13.1884 13.9026C12.8349 13.4081 12.2025 13.1986 11.6237 13.3843C9.8439 13.6581 8.0739 15.4477 6.3821 16.1127C6.3038 16.1127 6.2256 16.1127 6.206 16.1616C5.9224 14.2057 4.1035 14.7338 3.4092 14.724C2.7149 14.7142 1.16 14.6067 1.4533 15.2814C1.5169 15.4394 1.695 15.5176 1.8543 15.4575C2.3586 15.3859 2.8715 15.4025 3.3701 15.5064C4.348 15.6139 5.0325 15.3401 5.1401 16.2105V21.9411C5.1401 22.6256 5.0814 22.8017 3.9959 22.919C3.3428 22.9671 2.6863 22.9376 2.0401 22.831C1.7729 22.7821 1.5529 23.0408 1.6441 23.2967C1.6865 23.4155 1.789 23.5026 1.913 23.5253C2.6001 23.6786 3.3017 23.7573 4.0057 23.76C4.9836 23.76 5.6682 23.6035 6.0105 22.7821L8.3086 22.2736C11.9464 23.2515 16.9241 23.408 20.1121 21.3837C21.3345 20.5915 22.684 19.6136 22.0093 18.313C21.7854 17.76 21.2648 17.3837 20.6695 17.3448ZM16.2199 18.0098C17.1979 17.3742 18.5181 16.054 19.2711 16.3376C19.7204 16.491 19.9789 16.9615 19.8676 17.4231C17.9704 17.8436 17.0512 18.2445 15.3594 18.4695C15.6723 18.313 15.9852 18.1467 16.2199 18.0098ZM19.4862 20.396C15.3203 23.2613 8.5042 21.4717 8.2401 21.5401C5.9811 22.1073 6.1767 22.1073 6.1865 22.0193C6.3284 20.3214 6.3513 18.6157 6.2549 16.9146C7.5556 16.8461 11.7997 13.306 12.4452 14.372C13.0907 15.438 11.9171 15.653 10.7142 17.2079C10.0982 18.0098 10.2448 18.5477 10.6165 18.9291C11.1615 19.3195 11.7917 19.5743 12.4549 19.6723C14.7531 20.2493 18.6647 18.9486 19.5155 18.7824C20.1903 18.6357 20.6695 18.3228 20.9629 18.8802C21.2563 19.4376 19.936 20.0928 19.4862 20.396Z" fill="#7A387B"/>
<path fill-rule="evenodd" clip-rule="evenodd" d="M11.8878 10.871C12.1588 10.871 12.3281 10.5776 12.1926 10.3429C12.1298 10.234 12.0135 10.1669 11.8878 10.1669C11.2423 10.1376 8.0739 7.5461 7.5849 7.1353C7.0959 6.7245 7.0959 7.0082 7.4382 6.6659C7.7805 6.3236 8.201 6.0499 8.3477 5.9227C9.5144 4.7993 10.7812 3.7845 12.1322 2.8912C12.343 2.7707 12.3444 2.4673 12.1347 2.3449C12.0374 2.2882 11.9171 2.2876 11.8193 2.3435C9.7435 3.3913 7.8244 4.7245 6.118 6.3041C5.8984 6.5799 5.8356 6.9491 5.9518 7.282C6.2158 7.8101 10.9099 10.9101 11.8878 10.871Z" fill="#7A387B"/>
<path fill-rule="evenodd" clip-rule="evenodd" d="M13.6871 12.1325C14.7726 8.6511 17.1196 5.6293 17.7748 0.6615C17.8584 0.4356 17.666 0.2039 17.4286 0.2445C17.2816 0.2697 17.1727 0.3951 17.1685 0.5442C16.3862 3.6735 13.9512 7.3896 13.0026 11.9565C12.9348 12.22 13.1777 12.458 13.4398 12.3849C13.5614 12.351 13.6557 12.2548 13.6871 12.1325Z" fill="#998696"/>
<path fill-rule="evenodd" clip-rule="evenodd" d="M19.6133 2.55869C19.4251 2.40809 19.1445 2.51769 19.1082 2.75599C19.0914 2.86659 19.1348 2.97779 19.2222 3.04759C19.6427 3.41919 22.9383 6.34319 23.2316 6.81259C22.1657 8.11329 18.166 10.5287 18.1856 10.6167C17.9195 10.699 17.8422 11.0385 18.0465 11.2278C18.1261 11.3016 18.2346 11.3357 18.342 11.3208C18.7136 11.2622 24.0238 8.38709 24.4932 6.97889C24.7768 6.07919 22.7427 4.80789 19.6133 2.55869Z" fill="#7A387B"/>
</g>
<defs>
<clipPath id="clip0_3013_15570">
<rect width="24" height="24" fill="white" transform="translate(0.968201)"/>
</clipPath>
</defs>
</svg>
