<svg width="25" height="24" viewBox="0 0 25 24" fill="none" xmlns="http://www.w3.org/2000/svg">
<g clip-path="url(#clip0_3013_15429)">
<path fill-rule="evenodd" clip-rule="evenodd" d="M3.5982 2.16C4.55799 1.96468 5.53043 1.83769 6.5082 1.78C7.9882 1.68 9.5082 1.69 10.9582 1.71C12.4082 1.73 13.6382 1.71 14.9582 1.71C15.8582 1.71 16.7482 1.71 17.6382 1.78C19.0682 1.84 20.5082 1.96 21.9582 2.11V5.39C21.9582 6.08 22.0182 6.76 22.0582 7.45C22.1082 8.45 22.1782 9.52 22.1782 10.56C22.1694 10.613 22.1722 10.6673 22.1865 10.719C22.2008 10.7708 22.2262 10.8189 22.2609 10.8599C22.2957 10.9008 22.3389 10.9338 22.3877 10.9563C22.4364 10.9789 22.4895 10.9906 22.5432 10.9906C22.5969 10.9906 22.65 10.9789 22.6987 10.9563C22.7475 10.9338 22.7907 10.9008 22.8254 10.8599C22.8602 10.8189 22.8856 10.7708 22.8999 10.719C22.9142 10.6673 22.917 10.613 22.9082 10.56C23.0482 9.56 23.1682 8.56 23.2082 7.48C23.2332 7.03702 23.2332 6.59298 23.2082 6.15C23.2082 5.71 23.1782 5.27 23.1182 4.83C22.9982 3.83 22.7782 2.83 22.5582 1.83C22.5212 1.73226 22.465 1.64295 22.3929 1.56737C22.3207 1.49178 22.2341 1.43147 22.1382 1.39C19.9256 0.987399 17.6921 0.710289 15.4482 0.559998C13.9682 0.469998 12.4582 0.469998 10.9682 0.499998C9.4782 0.529998 7.9682 0.679998 6.4182 0.899998C5.4058 1.04585 4.40375 1.25628 3.4182 1.53C3.33736 1.55342 3.26852 1.60684 3.22577 1.67933C3.18301 1.75183 3.16957 1.83792 3.1882 1.92C3.1973 1.96384 3.2155 2.00528 3.24163 2.04165C3.26775 2.07802 3.30122 2.1085 3.33986 2.13112C3.3785 2.15374 3.42147 2.168 3.46597 2.17297C3.51047 2.17795 3.55551 2.17353 3.5982 2.16Z" fill="#7A387B"/>
<path fill-rule="evenodd" clip-rule="evenodd" d="M24.9082 15.15C24.9102 14.5601 24.86 13.9711 24.7582 13.39C24.691 13.0414 24.5323 12.717 24.2982 12.45C24.0994 12.2637 23.8596 12.1267 23.5982 12.05C23.1622 11.9337 22.7174 11.8534 22.2682 11.81C21.5856 11.7647 20.9008 11.7647 20.2182 11.81C19.211 11.877 18.209 12.0073 17.2182 12.2C17.1546 12.213 17.0978 12.2485 17.0582 12.3C17.0376 12.2741 17.0119 12.2527 16.9826 12.2372C16.9534 12.2217 16.9212 12.2125 16.8882 12.21C16.8467 12.2044 16.8045 12.2074 16.7641 12.2186C16.7237 12.2298 16.6861 12.249 16.6533 12.2752C16.6206 12.3014 16.5936 12.3339 16.5738 12.3708C16.554 12.4077 16.5419 12.4483 16.5382 12.49C16.2113 14.4746 16.0208 16.4793 15.9682 18.49C15.9654 19.8464 16.0388 21.2019 16.1882 22.55C16.2024 22.6514 16.2406 22.7479 16.2998 22.8314C16.359 22.9149 16.4373 22.983 16.5282 23.03C16.7062 23.1079 16.8901 23.1715 17.0782 23.22L18.3682 23.43C19.5156 23.54 20.6708 23.54 21.8182 23.43C22.6016 23.3505 23.3695 23.1585 24.0982 22.86C24.1441 22.8446 24.1862 22.8198 24.222 22.7873C24.2578 22.7548 24.2865 22.7152 24.3062 22.671C24.326 22.6269 24.3363 22.5791 24.3367 22.5307C24.337 22.4824 24.3273 22.4344 24.3082 22.39C24.3968 22.3912 24.4828 22.3605 24.5507 22.3037C24.6186 22.2468 24.6638 22.1674 24.6782 22.08C24.8455 20.9337 24.9424 19.7782 24.9682 18.62C24.9682 17.46 24.9682 16.29 24.9082 15.15ZM21.7482 22.57C20.6559 22.5837 19.5646 22.4966 18.4882 22.31L17.4182 22.08H17.3582C17.2682 21.24 17.2282 20.38 17.1882 19.51C17.1482 18.64 17.0782 17.51 17.0782 16.51C17.0782 15.24 17.0782 13.99 17.1682 12.77C17.2182 12.77 17.2582 12.82 17.3082 12.77C18.1153 12.6842 18.9266 12.6441 19.7382 12.65C20.5308 12.6525 21.3213 12.7329 22.0982 12.89C22.436 12.9414 22.77 13.0149 23.0982 13.11C23.2297 13.1325 23.3534 13.1875 23.4582 13.27C23.5635 13.4383 23.6222 13.6316 23.6282 13.83C23.6982 14.33 23.6982 14.89 23.7382 15.21C23.8682 16.54 23.9782 17.91 24.0182 19.28C24.0182 20.19 24.0182 21.09 23.9682 21.98C23.9644 22.0502 23.9818 22.1199 24.0182 22.18C23.9693 22.1653 23.9171 22.1653 23.8682 22.18C23.1854 22.4169 22.4706 22.5484 21.7482 22.57Z" fill="#7A387B"/>
<path fill-rule="evenodd" clip-rule="evenodd" d="M4.7782 7.06998C4.76843 7.15303 4.76843 7.23694 4.7782 7.31998C4.77256 7.40656 4.77256 7.49341 4.7782 7.57998C5.0182 8.49998 5.1882 8.52998 5.3582 8.52998C5.5282 8.52998 5.7082 8.52998 5.9382 7.52998C5.94866 7.44698 5.94866 7.36299 5.9382 7.27998C5.95299 7.19731 5.95299 7.11266 5.9382 7.02998C5.6682 6.02998 5.3882 6.11998 5.3682 6.11998C5.0982 6.13998 4.8082 6.99998 4.7782 7.06998Z" fill="#998696"/>
<path fill-rule="evenodd" clip-rule="evenodd" d="M19.3782 7.57999C19.3886 7.49363 19.3886 7.40635 19.3782 7.31999C19.3928 7.23729 19.3928 7.15269 19.3782 7.06999C19.3782 6.96999 19.0582 6.13999 18.7682 6.15999C18.7682 6.15999 18.4782 6.05999 18.2082 7.06999C18.1984 7.15304 18.1984 7.23694 18.2082 7.31999C18.1977 7.40299 18.1977 7.48698 18.2082 7.56999C18.4382 8.49999 18.6082 8.56999 18.7782 8.56999C18.9482 8.56999 19.1382 8.49999 19.3782 7.57999Z" fill="#998696"/>
<path fill-rule="evenodd" clip-rule="evenodd" d="M6.7282 9.83999L5.7282 9.34999C5.6959 9.27476 5.63599 9.21477 5.5608 9.18237C5.48562 9.14997 5.40087 9.14763 5.32401 9.17581C5.24714 9.20399 5.184 9.26057 5.14758 9.33389C5.11115 9.40721 5.10422 9.49171 5.1282 9.56999C5.11659 9.71468 5.13454 9.86021 5.18096 9.99775C5.22738 10.1353 5.30129 10.2619 5.3982 10.37C5.47378 10.4676 5.57383 10.5435 5.6882 10.59C5.79019 10.644 5.9029 10.6748 6.0182 10.68C6.26326 10.6942 6.50858 10.6567 6.7382 10.57C6.83633 10.57 6.93045 10.531 6.99983 10.4616C7.06922 10.3922 7.1082 10.2981 7.1082 10.2C7.10828 10.151 7.09835 10.1025 7.07902 10.0574C7.05969 10.0124 7.03137 9.97179 6.99579 9.93809C6.96022 9.90438 6.91813 9.8783 6.87212 9.86143C6.82611 9.84456 6.77714 9.83727 6.7282 9.83999Z" fill="#998696"/>
<path fill-rule="evenodd" clip-rule="evenodd" d="M17.4382 10.57C17.6678 10.6568 17.9131 10.6942 18.1582 10.68C18.2737 10.6762 18.3867 10.6454 18.4882 10.59C18.607 10.5465 18.711 10.4702 18.7882 10.37C18.9801 10.1493 19.0771 9.86182 19.0582 9.57C19.0874 9.48911 19.0832 9.39994 19.0466 9.32212C19.0101 9.24429 18.9441 9.18418 18.8632 9.155C18.7823 9.12583 18.6931 9.12998 18.6153 9.16655C18.5375 9.20312 18.4774 9.26911 18.4482 9.35L17.4482 9.84C17.3518 9.83997 17.2592 9.87757 17.19 9.94481C17.1209 10.0121 17.0808 10.1036 17.0782 10.2C17.0806 10.2957 17.119 10.3869 17.1857 10.4555C17.2525 10.5241 17.3426 10.565 17.4382 10.57Z" fill="#998696"/>
<path fill-rule="evenodd" clip-rule="evenodd" d="M5.9682 3.65001C5.85289 3.65522 5.74018 3.68596 5.6382 3.74001C5.53358 3.80335 5.44739 3.89299 5.3882 4.00001C5.1282 4.32001 4.9682 5.00001 5.3082 5.17001C5.34622 5.1863 5.38711 5.19482 5.42847 5.19506C5.46983 5.1953 5.51082 5.18727 5.54903 5.17142C5.58724 5.15558 5.62189 5.13225 5.65094 5.10282C5.67999 5.07338 5.70286 5.03842 5.7182 5.00001L6.7182 4.51001C6.76631 4.51134 6.8142 4.50302 6.85904 4.48553C6.90388 4.46804 6.94475 4.44173 6.97925 4.40817C7.01374 4.3746 7.04116 4.33447 7.05987 4.29012C7.07858 4.24578 7.08822 4.19814 7.0882 4.15001C7.0982 3.66001 6.1982 3.64001 5.9682 3.65001Z" fill="#998696"/>
<path fill-rule="evenodd" clip-rule="evenodd" d="M17.4382 4.49001C17.4382 4.49001 18.4382 4.97001 18.4382 4.98001C18.4674 5.0609 18.5275 5.12689 18.6053 5.16346C18.6831 5.20003 18.7723 5.20418 18.8532 5.17501C18.9341 5.14584 19.0001 5.08572 19.0366 5.0079C19.0732 4.93007 19.0774 4.8409 19.0482 4.76001C19.0671 4.46819 18.9701 4.1807 18.7782 3.96001C18.701 3.85983 18.597 3.78355 18.4782 3.74001C18.3767 3.68465 18.2637 3.65383 18.1482 3.65001C17.9031 3.63577 17.6578 3.67325 17.4282 3.76001C17.3309 3.76254 17.2382 3.80233 17.1694 3.87118C17.1005 3.94003 17.0607 4.03268 17.0582 4.13001C17.0595 4.1786 17.0704 4.22647 17.0902 4.27086C17.11 4.31526 17.1383 4.35532 17.1736 4.38875C17.2089 4.42218 17.2504 4.44833 17.2958 4.46571C17.3412 4.48308 17.3896 4.49134 17.4382 4.49001Z" fill="#998696"/>
<path fill-rule="evenodd" clip-rule="evenodd" d="M15.0782 3.56001C14.872 3.53981 14.6644 3.53981 14.4582 3.56001C14.4582 3.56001 13.0782 3.76001 13.0982 4.19001C13.0982 4.31001 13.0482 4.50001 14.3082 4.75001C14.4378 4.76479 14.5686 4.76479 14.6982 4.75001H15.0882C16.4582 4.53001 16.3682 4.24001 16.3682 4.12001C16.3682 4.00001 16.2482 3.74001 15.0782 3.56001Z" fill="#998696"/>
<path fill-rule="evenodd" clip-rule="evenodd" d="M11.8282 4.1C11.8282 3.86 11.7182 3.74 10.5482 3.56C10.342 3.54006 10.1344 3.54006 9.9282 3.56C9.9282 3.56 8.5482 3.76 8.5682 4.19C8.5682 4.31 8.5682 4.5 9.7782 4.75C9.90778 4.76479 10.0386 4.76479 10.1682 4.75H10.5582C11.9682 4.51 11.8382 4.22 11.8282 4.1Z" fill="#998696"/>
<path fill-rule="evenodd" clip-rule="evenodd" d="M16.1082 10.13C16.1082 9.89999 15.9982 9.76999 14.8282 9.59999C14.6223 9.57507 14.4141 9.57507 14.2082 9.59999C14.2082 9.59999 12.8182 9.78999 12.8482 10.23C12.8482 10.34 12.7982 10.53 14.0582 10.78C14.1878 10.7948 14.3186 10.7948 14.4482 10.78H14.8382C16.2082 10.54 16.1182 10.26 16.1082 10.13Z" fill="#998696"/>
<path fill-rule="evenodd" clip-rule="evenodd" d="M11.5782 10.13C11.5782 9.9 11.4682 9.77 10.2882 9.6C10.0856 9.5751 9.88077 9.5751 9.6782 9.6C9.6782 9.6 8.2882 9.79 8.3082 10.23C8.3082 10.34 8.3082 10.53 9.5282 10.78C9.65444 10.7947 9.78196 10.7947 9.9082 10.78C10.0413 10.7903 10.1751 10.7903 10.3082 10.78C11.6682 10.54 11.5882 10.26 11.5782 10.13Z" fill="#998696"/>
<path fill-rule="evenodd" clip-rule="evenodd" d="M19.5782 14.64C19.2797 14.5217 18.9587 14.4705 18.6382 14.49C18.4487 14.5095 18.2719 14.5944 18.1382 14.73C17.9936 14.8801 17.8994 15.0716 17.8689 15.2778C17.8384 15.484 17.8732 15.6945 17.9682 15.88C17.9682 15.9229 17.9768 15.9653 17.9935 16.0048C18.0102 16.0443 18.0347 16.08 18.0654 16.1099C18.0962 16.1397 18.1327 16.1631 18.1727 16.1786C18.2127 16.1941 18.2553 16.2014 18.2982 16.2C18.7882 16.2 18.1282 15.83 19.6282 15.37C19.721 15.3625 19.8076 15.3202 19.8706 15.2516C19.9337 15.183 19.9685 15.0932 19.9682 15C19.97 14.9496 19.9609 14.8995 19.9415 14.853C19.9221 14.8065 19.8928 14.7647 19.8558 14.7305C19.8188 14.6963 19.7748 14.6705 19.7269 14.6549C19.679 14.6393 19.6283 14.6342 19.5782 14.64Z" fill="#7A387B"/>
<path fill-rule="evenodd" clip-rule="evenodd" d="M22.6882 14.64C22.4849 14.5142 22.2462 14.458 22.0082 14.48C21.7417 14.537 21.4807 14.6173 21.2282 14.72C21.1862 14.7173 21.144 14.7229 21.1041 14.7365C21.0643 14.7502 21.0275 14.7715 20.9959 14.7994C20.9643 14.8273 20.9385 14.8611 20.92 14.899C20.9016 14.9368 20.8907 14.9779 20.8882 15.02C20.8855 15.062 20.8911 15.1042 20.9047 15.1441C20.9184 15.1839 20.9397 15.2207 20.9676 15.2523C20.9955 15.2839 21.0293 15.3097 21.0672 15.3281C21.105 15.3466 21.1461 15.3575 21.1882 15.36C22.4582 15.9 22.4082 15.66 22.5282 15.9C22.5342 15.9472 22.5498 15.9926 22.5739 16.0335C22.5981 16.0745 22.6303 16.1101 22.6687 16.1381C22.7071 16.1662 22.7507 16.1862 22.7971 16.1968C22.8434 16.2074 22.8914 16.2085 22.9382 16.2C23.0329 16.1851 23.1182 16.1341 23.176 16.0576C23.2338 15.9811 23.2597 15.8852 23.2482 15.79C23.2879 15.5638 23.2552 15.3307 23.1546 15.1242C23.0541 14.9177 22.8908 14.7482 22.6882 14.64Z" fill="#7A387B"/>
<path fill-rule="evenodd" clip-rule="evenodd" d="M18.3282 19.1C18.4667 19.1828 18.6272 19.2212 18.7882 19.21C19.0431 19.1831 19.2945 19.1295 19.5382 19.05C19.6246 19.0356 19.7032 18.9911 19.7598 18.9242C19.8165 18.8574 19.8476 18.7726 19.8476 18.685C19.8476 18.5974 19.8165 18.5126 19.7598 18.4458C19.7032 18.3789 19.6246 18.3344 19.5382 18.32C19.0482 18.17 18.8182 18.32 18.6682 17.74C18.6738 17.6979 18.671 17.6552 18.6599 17.6142C18.6488 17.5732 18.6296 17.5349 18.6036 17.5014C18.5775 17.4679 18.5451 17.4399 18.5081 17.419C18.4711 17.3982 18.4304 17.3849 18.3882 17.38C18.3022 17.3716 18.2163 17.3972 18.1489 17.4514C18.0816 17.5057 18.0383 17.5841 18.0282 17.67C17.9682 17.78 17.9282 17.89 17.8682 18.02C17.8082 18.15 17.8682 18.24 17.8082 18.36C17.8176 18.5195 17.8712 18.6732 17.9631 18.8039C18.0549 18.9346 18.1813 19.0371 18.3282 19.1Z" fill="#7A387B"/>
<path fill-rule="evenodd" clip-rule="evenodd" d="M21.1282 19.07C21.3559 19.1819 21.5936 19.2723 21.8382 19.34C22.0406 19.3791 22.2502 19.3546 22.4382 19.27C22.8882 19.07 23.2282 18.76 23.1182 18.2C23.1238 18.1527 23.1199 18.1047 23.1067 18.0589C23.0936 18.0131 23.0715 17.9703 23.0418 17.9331C23.012 17.8959 22.9751 17.865 22.9333 17.8421C22.8915 17.8193 22.8456 17.805 22.7982 17.8C22.4282 17.8 22.7982 18.09 21.8582 18.3C21.6091 18.323 21.3618 18.3631 21.1182 18.42C21.0418 18.4334 20.9725 18.4734 20.9227 18.5328C20.8728 18.5923 20.8454 18.6674 20.8454 18.745C20.8454 18.8226 20.8728 18.8977 20.9227 18.9571C20.9725 19.0166 21.0418 19.0565 21.1182 19.07H21.1282Z" fill="#7A387B"/>
<path fill-rule="evenodd" clip-rule="evenodd" d="M15.0282 15C13.5182 14.87 12.0282 14.73 10.4782 14.66C9.8282 14.66 9.1882 14.6 8.5282 14.59H6.5782C5.0982 14.59 3.6282 14.74 2.1382 14.82V12.09C2.1382 11.35 2.1382 10.6 2.2182 9.86C2.2982 9.12 2.3082 8.37 2.3682 7.62C2.49347 5.87816 2.74074 4.14725 3.1082 2.44C3.1328 2.34852 3.12036 2.25103 3.07356 2.16866C3.02676 2.0863 2.94938 2.0257 2.8582 2C2.81223 1.98799 2.76434 1.9852 2.71729 1.99179C2.67024 1.99837 2.62496 2.01421 2.58406 2.03838C2.54316 2.06255 2.50744 2.09457 2.47898 2.13261C2.45051 2.17065 2.42985 2.21394 2.4182 2.26C1.89156 3.97735 1.49708 5.73247 1.2382 7.51C1.1282 8.27 1.0582 9 0.9682 9.8C0.928202 10.5695 0.928202 11.3405 0.9682 12.11C0.9682 12.24 1.2682 17.83 1.9682 17.8C2.4282 17.8 2.8982 17.8 3.3582 17.87C4.4682 17.96 5.5682 18.13 6.6582 18.25C7.2982 18.25 7.9382 18.31 8.5882 18.34L7.7182 20C7.60057 20.2164 7.49702 20.4402 7.4082 20.67C7.35518 20.7956 7.34506 20.9353 7.37941 21.0672C7.41376 21.1992 7.49066 21.3162 7.5982 21.4C7.85604 21.5758 8.14983 21.692 8.4582 21.74C9.00226 21.8054 9.55055 21.8288 10.0982 21.81H14.2782C14.4682 21.81 15.0082 21.36 14.9482 21.11C14.9691 20.777 14.9691 20.443 14.9482 20.11C14.936 19.9742 14.9092 19.8401 14.8682 19.71C14.8287 19.5762 14.7785 19.4458 14.7182 19.32C14.5735 19.0222 14.4029 18.7378 14.2082 18.47C14.1925 18.4253 14.1681 18.3842 14.1365 18.3489C14.1049 18.3136 14.0666 18.285 14.0239 18.2645C13.9811 18.2441 13.9348 18.2323 13.8875 18.2298C13.8402 18.2273 13.7928 18.2342 13.7482 18.25C13.6572 18.2838 13.5831 18.352 13.542 18.44C13.5008 18.5279 13.4959 18.6285 13.5282 18.72C13.5782 19.04 13.5782 19.33 13.6182 19.65C13.6269 19.7822 13.6504 19.913 13.6882 20.04C13.7181 20.1677 13.7617 20.2917 13.8182 20.41C13.9236 20.63 14.0474 20.8408 14.1882 21.04C13.3982 20.92 12.5982 20.81 11.7982 20.72C11.2382 20.66 10.6682 20.62 10.1082 20.58H8.8282H8.6882C8.68287 20.5168 8.68287 20.4532 8.6882 20.39L9.3082 18.39H9.8882C11.5382 18.39 13.1782 18.3 14.8282 18.16C14.9146 18.1456 14.9932 18.1011 15.0498 18.0342C15.1065 17.9674 15.1376 17.8826 15.1376 17.795C15.1376 17.7074 15.1065 17.6226 15.0498 17.5558C14.9932 17.4889 14.9146 17.4444 14.8282 17.43C14.0182 17.43 13.2082 17.43 12.3982 17.36C11.5882 17.29 10.4982 17.23 9.5582 17.18C8.6182 17.13 7.6582 17.1 6.6982 17.06C5.7382 17.02 4.7982 17.06 3.8482 17.06C3.3182 17.06 2.8482 17.06 2.2782 17.15C2.2282 16.6 2.2082 16.05 2.1882 15.5C3.6582 15.6 5.1082 15.72 6.5782 15.79C7.2282 15.79 7.8782 15.79 8.5782 15.84H10.4582C11.9682 15.84 13.4582 15.77 14.9982 15.76C15.0846 15.7456 15.1632 15.7011 15.2198 15.6342C15.2765 15.5674 15.3076 15.4826 15.3076 15.395C15.3076 15.3074 15.2765 15.2226 15.2198 15.1558C15.1632 15.0889 15.0846 15.0444 14.9982 15.03L15.0282 15Z" fill="#7A387B"/>
</g>
<defs>
<clipPath id="clip0_3013_15429">
<rect width="24" height="24" fill="white" transform="translate(0.968201)"/>
</clipPath>
</defs>
</svg>
