<svg width="25" height="24" viewBox="0 0 25 24" fill="none" xmlns="http://www.w3.org/2000/svg">
<g clip-path="url(#clip0_3013_15456)">
<path fill-rule="evenodd" clip-rule="evenodd" d="M9.43569 11.9098C9.39009 11.5144 9.30499 11.1246 9.18149 10.7463C9.08259 10.4351 8.90399 10.1553 8.66329 9.93469C8.48509 9.77619 8.26989 9.6652 8.03749 9.612C7.65699 9.541 7.27079 9.505 6.88369 9.5045C6.55809 9.4828 6.23149 9.4828 5.90589 9.5045C4.76189 9.5827 3.64719 9.876 2.48369 9.8662C2.31989 9.8606 2.18129 9.9862 2.17079 10.1498C2.16029 10.3134 2.17079 10.1498 2.10229 10.1498C1.93989 10.1267 1.79009 10.2412 1.76989 10.404C1.68189 10.8929 1.60369 11.3818 1.54499 11.9C1.45699 12.6431 1.37879 13.396 1.30059 14.1392C1.30059 14.5498 1.22229 14.9605 1.21259 15.3712C1.20289 15.7819 1.21259 16.2023 1.21259 16.6227L1.29079 18.1578V18.9792V19.6832C1.28509 19.8925 1.34679 20.0982 1.46679 20.2699C1.62869 20.494 1.86999 20.6478 2.14139 20.7001L2.61079 20.7685L3.21699 20.8174H4.27299L5.83739 20.7685H8.17429C8.35969 20.7741 8.51579 20.631 8.52629 20.4458C8.53759 20.2601 8.38979 20.1033 8.20369 20.1036L5.85699 19.9081L4.28279 19.8396L3.30499 19.7712L2.80629 19.7125L2.49339 19.6441C2.49719 19.5855 2.49719 19.5267 2.49339 19.4681C2.50429 19.2955 2.50429 19.1224 2.49339 18.9499V18.0992L2.38589 16.5347C2.38589 16.1436 2.32719 15.7525 2.30769 15.3614C2.28819 14.9703 2.30769 14.5792 2.30769 14.1783V11.9489C2.30769 11.4503 2.30769 10.9712 2.39569 10.4725V10.4138C2.39569 10.3551 2.46409 10.4627 2.50319 10.4627C3.52669 10.5099 4.55199 10.4935 5.57349 10.4138C5.98209 10.4027 6.39089 10.4256 6.79569 10.4823C6.99129 10.4823 7.25529 10.5311 7.50949 10.58C7.65749 10.589 7.79989 10.6399 7.92009 10.7267C8.04849 10.8744 8.13619 11.053 8.17439 11.2449C8.23579 11.5125 8.28149 11.7835 8.31129 12.0565L8.43839 13.6503V16.0947V19.6636C8.43289 19.8472 8.57739 20.0005 8.76099 20.0058C8.93549 20.0059 9.07839 19.8673 9.08369 19.6929L9.38679 16.1534L9.54329 13.6307V12.78C9.52249 12.4883 9.48659 12.1978 9.43569 11.9098Z" fill="#7A387B"/>
<path fill-rule="evenodd" clip-rule="evenodd" d="M24.7282 16.0263V11.8218V9.61201C24.7282 9.12311 24.6793 8.63421 24.65 8.13561C24.3469 3.35421 24.3664 3.56931 21.2766 3.47161C19.9566 3.47161 18.6268 3.53021 17.3068 3.53021L9.68009 3.21731C8.46749 3.13441 7.24929 3.20011 6.05259 3.41291C5.46169 3.53061 4.92779 3.84411 4.53699 4.30271C4.41059 4.46431 4.32959 4.65671 4.30229 4.86001C4.27029 5.18521 4.27029 5.51271 4.30229 5.83781L4.40989 8.89831C4.42469 9.05581 4.55479 9.17761 4.71299 9.18181C4.87509 9.17651 5.00209 9.04071 4.99659 8.87871V7.35341C5.05369 7.37201 5.11539 7.37201 5.17259 7.35341C7.03929 7.15041 8.91779 7.07531 10.7948 7.12851H12.8873L16.0259 7.18711L23.6917 7.40221C23.6917 8.18451 23.6917 8.97651 23.6233 9.75871C23.5549 10.5409 23.6233 11.1471 23.6233 11.8316V13.5231C23.682 14.8236 23.7895 16.124 23.8384 17.4343V18.3241C22.8606 18.3925 21.9513 18.4512 21.0224 18.4609C20.0935 18.4706 19.3113 18.4609 18.4508 18.4609H15.9282C14.6766 18.4609 13.4446 18.6565 12.2028 18.6467C11.6822 18.6429 11.1625 18.6004 10.6481 18.5196C10.4906 18.4938 10.3389 18.5907 10.2961 18.7445C10.266 18.906 10.3701 19.0622 10.5308 19.0965C11.2443 19.2833 11.9748 19.398 12.7113 19.4387C13.7673 19.5072 14.8428 19.4876 15.9086 19.5561C16.7886 19.5561 17.6588 19.6049 18.5193 19.5561C19.106 19.5561 19.6731 19.5561 20.2597 19.4681C25.3149 19.1356 24.6109 19.1747 24.7282 16.0263ZM17.2091 6.15071C15.6837 6.05291 14.1779 5.98451 12.6526 6.01381C10.1145 6.06341 7.58689 6.3548 5.10409 6.88401C5.08149 6.87951 5.05829 6.87951 5.03569 6.88401V5.90621V5.13381C5.05449 5.03431 5.10209 4.94251 5.17259 4.86981C5.59619 4.50331 6.13779 4.30201 6.69789 4.30271C7.67589 4.24701 8.65689 4.26991 9.63129 4.37111C11.1566 4.42001 12.6917 4.51781 14.2171 4.54711H17.2971C18.6073 4.47871 19.9273 4.31241 21.2082 4.29291C22.005 4.27051 22.8018 4.33611 23.5842 4.48851C24.3666 4.64091 23.5842 4.48851 23.5842 4.54711C23.6429 5.26091 23.6722 5.99421 23.682 6.71781C21.5602 6.53201 19.3895 6.28761 17.2091 6.15071Z" fill="#7A387B"/>
<path fill-rule="evenodd" clip-rule="evenodd" d="M5.68099 11.9196C5.70389 11.7356 5.57199 11.5684 5.38769 11.548L4.58589 11.4698H4.02859L3.62769 11.5382C3.25179 11.6289 2.95539 11.9177 2.85519 12.2911C2.78589 12.492 2.76579 12.7066 2.79649 12.9169C2.79649 13.0636 2.85519 13.2102 2.86499 13.3569L3.06049 14.4618C3.06049 14.6876 3.30499 14.8287 3.50049 14.7158C3.59129 14.6634 3.64719 14.5666 3.64719 14.4618L3.82319 13.4058C3.82319 13.1809 3.82319 12.9365 3.91119 12.7214C3.91119 12.7214 3.91119 12.6138 3.97969 12.5942L4.25339 12.4671L4.63479 12.3498L5.30939 12.2325C5.50049 12.2554 5.67099 12.1118 5.68099 11.9196Z" fill="#7A387B"/>
<path fill-rule="evenodd" clip-rule="evenodd" d="M5.04549 18.8618L5.84719 18.9498H6.40459L6.80549 18.8618C7.18069 18.7639 7.47519 18.4731 7.57789 18.0992C7.64279 17.8973 7.66279 17.6838 7.63659 17.4734C7.63659 17.3267 7.57789 17.1801 7.55839 17.0334L7.37259 15.9285C7.41429 15.6989 7.19189 15.5103 6.97219 15.5889C6.83259 15.6389 6.74959 15.7826 6.77609 15.9285L6.60009 17.0041C6.60009 17.2289 6.60009 17.4734 6.51209 17.6885C6.51209 17.7374 6.51209 17.7961 6.45349 17.8254L6.15029 17.9427L5.76899 18.0601L5.17259 18.1774C4.91659 18.1473 4.72409 18.4055 4.82599 18.6422C4.87329 18.752 4.97559 18.8283 5.09429 18.8423L5.04549 18.8618Z" fill="#7A387B"/>
<path fill-rule="evenodd" clip-rule="evenodd" d="M10.7166 11.1765L11.0393 9.4262C12.017 10.404 13.1024 11.3818 14.2659 12.3596C14.7646 12.7703 15.2437 13.1614 15.8011 13.5427C16.3585 13.924 16.8473 14.2858 17.3851 14.6378C18.5291 15.3907 19.6633 16.0458 20.7584 16.6618H20.6606H19.9175L18.8615 16.7987C18.6018 16.8431 18.4876 17.1519 18.6558 17.3546C18.708 17.4175 18.781 17.4596 18.8615 17.4734L19.8882 17.5614L20.5922 17.669H21.1691C21.3306 17.6431 21.4883 17.5972 21.6384 17.5321C21.7831 17.4553 21.9097 17.3487 22.01 17.2192C22.0721 17.1323 22.1123 17.0316 22.1273 16.9259C22.1462 16.7634 22.1462 16.5994 22.1273 16.437L21.9806 15.2441L21.7949 14.061C21.7794 13.8985 21.6345 13.7799 21.4722 13.797C21.3112 13.8072 21.1912 13.9494 21.2082 14.1098L21.1104 15.2441L21.0517 15.997C20.5433 15.6352 20.074 15.2832 19.4873 14.8921C18.9006 14.501 18.1477 13.9143 17.4633 13.357C16.7789 12.7997 16.0944 12.3792 15.4099 11.8512C14.0508 10.8734 12.7113 9.9543 11.4988 9.0352C11.5639 9.0392 11.6293 9.0392 11.6944 9.0352C12.3495 9.0352 13.0535 9.1036 13.5424 9.1134C13.7983 9.1435 13.9908 8.8853 13.889 8.6486C13.8417 8.5387 13.7394 8.4625 13.6206 8.4485C12.8947 8.2149 12.1482 8.0512 11.3913 7.9596C10.9656 7.943 10.5453 8.0592 10.1886 8.2921C10.0516 8.3872 9.96239 8.5369 9.94409 8.7027C9.93189 8.8916 9.93189 9.081 9.94409 9.2698L10.0908 11.1765C10.0901 11.3385 10.2131 11.4742 10.3744 11.4894C10.5633 11.522 10.7322 11.3676 10.7166 11.1765Z" fill="#998696"/>
</g>
<defs>
<clipPath id="clip0_3013_15456">
<rect width="24" height="24" fill="white" transform="translate(0.968201)"/>
</clipPath>
</defs>
</svg>
