<svg width="25" height="24" viewBox="0 0 25 24" fill="none" xmlns="http://www.w3.org/2000/svg">
<g clip-path="url(#clip0_3013_15385)">
<path d="M24.6982 3.73C24.7138 3.47978 24.6692 3.22946 24.5682 3C24.5122 2.88646 24.4272 2.7897 24.3219 2.71947C24.2166 2.64924 24.0946 2.60803 23.9682 2.6C23.695 2.59183 23.4259 2.6687 23.1982 2.82C22.7624 3.14276 22.2302 3.30843 21.6882 3.29C21.5112 3.28515 21.3387 3.23339 21.1882 3.14C20.8982 2.90706 20.6541 2.62221 20.4682 2.3C20.2781 2.05203 20.0045 1.88147 19.6982 1.82C19.5708 1.79422 19.4392 1.79699 19.313 1.82811C19.1868 1.85923 19.069 1.91794 18.9682 2C18.6974 2.30244 18.3881 2.56804 18.0482 2.79C17.8019 2.90565 17.5293 2.95395 17.2582 2.93C16.5209 2.84859 15.8245 2.54917 15.2582 2.07C15.1854 2.01341 15.1007 1.97407 15.0105 1.95493C14.9203 1.93579 14.8269 1.93735 14.7374 1.95948C14.6479 1.98162 14.5646 2.02376 14.4937 2.08274C14.4228 2.14172 14.3662 2.216 14.3282 2.3C14.1695 2.61613 14.0551 2.95263 13.9882 3.3C13.9454 3.79886 13.9387 4.30017 13.9682 4.8C13.9682 5.19 13.8582 6.8 13.8782 8.28C13.8518 9.0678 13.8818 9.85649 13.9682 10.64C14.1947 11.3467 14.6221 11.9722 15.1982 12.44C16.0014 13.1356 16.9467 13.6475 17.9682 13.94C18.0036 13.9522 18.0412 13.9569 18.0785 13.9538C18.1158 13.9507 18.1521 13.9399 18.185 13.922C18.2179 13.9042 18.2468 13.8796 18.2697 13.85C18.2926 13.8204 18.3092 13.7863 18.3182 13.75C18.3372 13.6784 18.3281 13.6023 18.2928 13.5372C18.2575 13.4722 18.1986 13.4231 18.1282 13.4C17.3623 13.1611 16.6446 12.7887 16.0082 12.3C15.383 11.8738 14.9184 11.2508 14.6882 10.53C14.6462 9.78392 14.6462 9.03607 14.6882 8.29C14.6882 6.78 14.8782 5.29 14.9082 4.85C14.9251 4.40404 14.9719 3.95971 15.0482 3.52C15.0784 3.34265 15.1253 3.16854 15.1882 3C15.7581 3.49924 16.4469 3.84359 17.1882 4C17.6424 4.03189 18.0971 3.94577 18.5082 3.75C18.8043 3.60143 19.0717 3.40169 19.2982 3.16C19.3744 3.07496 19.4445 2.98474 19.5082 2.89C19.6482 2.94 19.6982 3.11 19.7982 3.26C20.0088 3.57407 20.2768 3.8455 20.5882 4.06C20.8922 4.24122 21.235 4.34749 21.5882 4.37C22.0244 4.39735 22.4612 4.3291 22.8682 4.17C23.1128 4.06634 23.35 3.94606 23.5782 3.81C23.6325 4.03308 23.666 4.26073 23.6782 4.49C23.6782 5.01 23.6782 5.49 23.6182 5.69C23.5582 5.89 23.3982 7.55 23.1582 9.13C23.0282 9.99 22.8882 10.81 22.7582 11.34C22.3528 11.9927 21.7605 12.5083 21.0582 12.82C20.3363 13.187 19.5466 13.4014 18.7382 13.45C18.6962 13.4513 18.6548 13.4609 18.6165 13.4781C18.5782 13.4954 18.5436 13.5201 18.5148 13.5508C18.486 13.5814 18.4636 13.6174 18.4487 13.6568C18.4338 13.6961 18.4269 13.738 18.4282 13.78C18.4333 13.864 18.4703 13.9429 18.5317 14.0005C18.593 14.0581 18.674 14.0902 18.7582 14.09C19.6617 14.0577 20.5494 13.8434 21.3682 13.46C22.2322 13.0879 22.964 12.4642 23.4682 11.67V11.59C23.6282 11.05 23.7982 10.18 23.9682 9.27C24.2582 7.67 24.5182 5.96 24.5382 5.79C24.6331 5.10719 24.6865 4.41926 24.6982 3.73Z" fill="#7A387B"/>
<path d="M1.7582 4.22C1.52558 4.44561 1.36455 4.73473 1.29519 5.05128C1.22584 5.36782 1.25123 5.69779 1.3682 6C1.38134 6.03398 1.40123 6.06496 1.42666 6.09105C1.45209 6.11715 1.48254 6.13783 1.51618 6.15184C1.54981 6.16586 1.58594 6.17292 1.62238 6.1726C1.65881 6.17229 1.69481 6.1646 1.7282 6.15C1.76312 6.13812 1.79511 6.11894 1.82205 6.09374C1.84899 6.06855 1.87027 6.0379 1.88445 6.00385C1.89864 5.9698 1.90542 5.93312 1.90434 5.89625C1.90326 5.85938 1.89435 5.82316 1.8782 5.79C1.84528 5.65401 1.84348 5.51235 1.87291 5.37557C1.90234 5.23879 1.96226 5.11041 2.0482 5C2.15798 4.83606 2.29695 4.69369 2.4582 4.58C2.7582 4.11 2.7682 3.76 2.1882 3.82C2.02982 3.93619 1.88552 4.07042 1.7582 4.22Z" fill="#7A387B"/>
<path d="M20.1082 17.91C20.1582 18.29 19.9582 18.44 19.8182 18.84C19.6195 19.2651 19.2902 19.6154 18.8782 19.84C18.2009 20.2366 17.4793 20.5521 16.7282 20.78L13.0582 22C12.0012 22.448 10.8873 22.7475 9.74821 22.89C9.03714 22.9411 8.32478 22.8103 7.67821 22.51C7.59972 22.4472 7.53504 22.3689 7.48821 22.28C7.37821 22.11 7.29821 21.91 7.21821 21.76C6.98821 21.32 6.77821 20.87 6.56821 20.41C6.35821 19.95 6.16821 19.49 5.98821 19.03C5.06821 16.74 3.98821 14.22 3.18821 11.68C2.62273 10.0493 2.21421 8.36835 1.96821 6.66001C1.96586 6.62263 1.95576 6.58615 1.93855 6.55288C1.92134 6.51961 1.89739 6.49029 1.86824 6.46678C1.83908 6.44327 1.80535 6.42608 1.76919 6.41631C1.73304 6.40653 1.69524 6.40439 1.65821 6.41001C1.62083 6.41236 1.58435 6.42246 1.55108 6.43968C1.51781 6.45689 1.48849 6.48083 1.46498 6.50999C1.44147 6.53914 1.42428 6.57287 1.4145 6.60903C1.40473 6.64519 1.40259 6.68298 1.40821 6.72001C1.57218 8.48494 1.90708 10.2298 2.40821 11.93C3.13821 14.52 4.12821 17.09 4.95821 19.43C5.14821 19.92 5.33821 20.43 5.54821 20.88C5.75821 21.33 5.97821 21.82 6.21821 22.28C6.34725 22.5829 6.50815 22.8712 6.69821 23.14C6.82735 23.2989 6.99168 23.4256 7.17821 23.51C7.99707 23.911 8.91 24.0804 9.81821 24C11.0561 23.838 12.2648 23.5013 13.4082 23L17.0182 21.65C17.8281 21.3695 18.6032 20.9971 19.3282 20.54C19.848 20.1852 20.2597 19.6938 20.5182 19.12C20.627 18.9255 20.6963 18.7114 20.7221 18.49C20.7478 18.2686 20.7295 18.0443 20.6682 17.83C20.6082 17.52 20.2082 17.6 20.1082 17.91Z" fill="#7A387B"/>
<path d="M19.6082 15.23C19.5859 15.1944 19.5567 15.1637 19.5222 15.1397C19.4876 15.1158 19.4486 15.0991 19.4075 15.0907C19.3663 15.0823 19.3239 15.0823 19.2828 15.0908C19.2416 15.0993 19.2027 15.116 19.1682 15.14C19.1323 15.1632 19.1014 15.1934 19.0773 15.2288C19.0532 15.2642 19.0365 15.304 19.0281 15.346C19.0197 15.388 19.0198 15.4312 19.0284 15.4731C19.037 15.515 19.054 15.5548 19.0782 15.59C19.3241 15.957 19.4972 16.3677 19.5882 16.8C19.0526 17.2324 18.4473 17.5706 17.7982 17.8C16.9082 18.13 16.0182 18.43 15.1282 18.74L12.7482 19.66C11.9682 19.97 11.1982 20.29 10.3982 20.52C9.84456 20.6889 9.27987 20.8192 8.7082 20.91C8.0082 19.38 7.3982 17.79 6.8482 16.18C6.4182 14.9 6.0282 13.6 5.6482 12.31C5.2682 11.02 4.8582 9.68001 4.5182 8.38001C4.2282 7.38001 3.8582 6.31001 3.5882 5.26001C3.4682 4.82001 3.3682 4.39001 3.2882 4.00001C3.5682 3.83001 3.8782 3.67001 4.2082 3.51001L4.6282 3.33001L5.3382 4.27001C5.4182 4.38001 5.5082 4.55001 5.5982 4.68001C5.65793 4.77149 5.73225 4.85257 5.8182 4.92001C5.96557 4.99718 6.13376 5.02521 6.2982 5.00001C6.63439 4.98256 6.96872 4.9391 7.2982 4.87001C7.61624 4.83274 7.93065 4.76919 8.2382 4.68001C8.9082 4.50001 9.5582 4.23001 10.2382 4.06001C10.5372 4.00246 10.8314 3.92223 11.1182 3.82001C11.2819 3.76334 11.4225 3.65441 11.5182 3.51001C11.5983 3.36379 11.6525 3.20476 11.6782 3.04001C11.6782 2.79001 11.6782 2.48001 11.7282 2.30001C11.7689 1.98988 11.829 1.68261 11.9082 1.38001C11.9082 1.22001 12.0082 1.07001 12.0582 0.920012C12.4182 0.840012 12.7782 0.770012 13.1182 0.720012C13.299 0.67669 13.4874 0.67669 13.6682 0.720012C13.7604 0.757096 13.8418 0.816872 13.9047 0.893792C13.9676 0.970713 14.0101 1.06229 14.0282 1.16001C14.0282 1.16001 14.1482 1.29001 14.3182 1.26001C14.3806 1.24771 14.4375 1.2159 14.4806 1.16916C14.5237 1.12243 14.5509 1.06319 14.5582 1.00001V0.890012C14.4815 0.6498 14.331 0.439864 14.1282 0.290012C13.7935 0.0470682 13.3778 -0.0568634 12.9682 1.21268e-05C11.335 0.147203 9.71839 0.441735 8.1382 0.880012C7.07327 1.16964 6.03327 1.54417 5.0282 2.00001C4.0282 2.47001 2.6382 2.89001 2.7682 4.28001C2.8182 4.66001 2.8782 5.03001 2.9482 5.40001C3.1582 6.47001 3.4282 7.53001 3.6382 8.59001C3.8282 9.48001 4.0182 10.38 4.2482 11.27C4.5882 12.59 4.9982 13.91 5.4582 15.2C6.21574 17.316 7.12476 19.3747 8.1782 21.36C8.20976 21.4107 8.2541 21.4521 8.30676 21.4802C8.35942 21.5083 8.41855 21.522 8.4782 21.52C9.67805 21.4537 10.8695 21.2796 12.0382 21C12.5182 20.87 12.9882 20.72 13.4682 20.55C14.1482 20.31 14.8282 20.01 15.4682 19.74C16.3382 19.35 17.2182 18.98 18.0782 18.57C18.6482 18.3 19.3782 17.73 19.9382 17.41C20.7282 16.88 20.0282 15.83 19.6082 15.23ZM5.9682 2.76001C6.7982 2.44001 7.6982 2.14001 8.6082 1.86001C9.5182 1.58001 10.3982 1.34001 11.2482 1.13001C11.2482 1.13001 11.0182 1.83001 10.9282 2.13001L10.7682 2.87001C9.9682 3.07001 6.3882 4.17001 6.3882 4.17001C6.2382 4.21001 5.2482 3.00001 5.2482 3.00001L5.9682 2.76001Z" fill="#998696"/>
<path d="M18.9682 11.48C19.2062 11.3744 19.4129 11.2091 19.5682 11C19.8377 10.6549 20.0817 10.2906 20.2982 9.91001C20.8182 9.02001 21.2282 8.07001 21.8082 7.22001C22.0321 6.85735 22.2972 6.52179 22.5982 6.22001C22.6288 6.19104 22.6531 6.15615 22.6697 6.11747C22.6864 6.07879 22.695 6.03712 22.695 5.99501C22.695 5.9529 22.6864 5.91123 22.6697 5.87255C22.6531 5.83387 22.6288 5.79898 22.5982 5.77001C22.5383 5.71077 22.4575 5.67755 22.3732 5.67755C22.289 5.67755 22.2081 5.71077 22.1482 5.77001C21.6536 6.15282 21.2159 6.604 20.8482 7.11001C20.3082 7.82001 19.8482 8.60001 19.3582 9.33001C19.2482 9.51001 19.0782 9.80001 18.8982 10.07C18.8431 10.1718 18.7795 10.2688 18.7082 10.36C18.6482 10.26 16.8982 8.46001 16.8982 8.46001C16.873 8.43369 16.8427 8.41275 16.8092 8.39844C16.7757 8.38413 16.7396 8.37676 16.7032 8.37676C16.6668 8.37676 16.6307 8.38413 16.5972 8.39844C16.5637 8.41275 16.5334 8.43369 16.5082 8.46001C16.4816 8.48608 16.4605 8.5172 16.446 8.55154C16.4316 8.58588 16.4242 8.62276 16.4242 8.66001C16.4242 8.69726 16.4316 8.73414 16.446 8.76848C16.4605 8.80282 16.4816 8.83394 16.5082 8.86001L17.9082 10.76C17.9082 10.76 18.2082 11.18 18.3282 11.32C18.4022 11.4137 18.5051 11.4802 18.6209 11.5091C18.7367 11.538 18.8588 11.5278 18.9682 11.48Z" fill="#7A387B"/>
</g>
<defs>
<clipPath id="clip0_3013_15385">
<rect width="24" height="24" fill="white" transform="translate(0.968201)"/>
</clipPath>
</defs>
</svg>
