<svg width="25" height="24" viewBox="0 0 25 24" fill="none" xmlns="http://www.w3.org/2000/svg">
<g clip-path="url(#clip0_3013_15366)">
<path fill-rule="evenodd" clip-rule="evenodd" d="M24.4282 2.17C22.9682 -0.269997 7.7882 -1.07 2.0782 2C1.99333 2.04376 1.92932 2.11945 1.90025 2.2104C1.88586 2.25544 1.88047 2.30287 1.88441 2.34998C1.88835 2.3971 1.90153 2.44298 1.9232 2.485C1.94486 2.52703 1.9746 2.56437 2.0107 2.5949C2.0468 2.62543 2.08856 2.64856 2.13359 2.66295C2.22455 2.69202 2.32333 2.68376 2.4082 2.64C8.31819 -0.359997 22.4082 1.25 23.4082 2.71C23.5882 4.57 22.5482 12.96 22.1882 14.54C21.6282 16.98 16.6482 21.29 14.2982 22.54C13.3482 23.02 13.1882 23.1 11.7282 22.2C8.9582 20.51 3.72819 15.71 3.6282 14.51C3.6582 14.29 1.8082 4.68 1.9682 4C1.99172 3.95746 2.00524 3.91011 2.00773 3.86156C2.01022 3.81301 2.00162 3.76452 1.98257 3.71979C1.96353 3.67506 1.93454 3.63526 1.89781 3.60341C1.86108 3.57156 1.81758 3.54849 1.77061 3.53596C1.72363 3.52344 1.67442 3.52178 1.62671 3.53111C1.579 3.54045 1.53404 3.56053 1.49525 3.58984C1.45646 3.61915 1.42486 3.65691 1.40284 3.70025C1.38083 3.7436 1.36898 3.79139 1.3682 3.84C1.1182 4.72 2.7882 14.2 2.8182 14.54C2.9682 16.4 10.9682 24 13.3582 24C15.7482 24 22.6882 18 23.4282 14.79C23.7182 13.48 25.0682 3.26 24.4282 2.17Z" fill="#7A387B"/>
<path d="M20.5782 5.17C20.0282 4.68 19.3782 4.81 16.5082 4.85C13.4282 4.85 10.3282 4.85 7.2482 5.05C5.4282 5.17 5.7782 7 5.9082 8.28C6.0382 9.56 6.2082 13.28 6.2882 14.04C6.2882 14.24 6.9482 14.34 6.9382 14.13C6.9382 13.49 6.9382 12.87 6.8582 12.24C7.7782 12.31 8.7082 12.35 9.6282 12.36C9.7082 13.97 9.7182 14.05 9.7282 14.36C9.16275 14.3511 8.59836 14.3077 8.0382 14.23C7.95171 14.2077 7.86146 14.204 7.77344 14.2192C7.68542 14.2344 7.60164 14.2682 7.52766 14.3182C7.45368 14.3683 7.39119 14.4335 7.34434 14.5096C7.29749 14.5856 7.26735 14.6708 7.25592 14.7594C7.24449 14.848 7.25203 14.938 7.27804 15.0234C7.30405 15.1089 7.34793 15.1878 7.40678 15.255C7.46563 15.3223 7.53809 15.3762 7.61937 15.4132C7.70065 15.4503 7.78888 15.4696 7.8782 15.47C9.7082 15.67 10.3882 15.47 16.5582 15.02C19.7782 14.76 20.1982 14.76 20.5582 14.18C20.8082 13.76 20.8082 13.53 20.9582 9.51C21.0582 6.32 21.1982 5.74 20.5782 5.17ZM13.4582 11.39C13.3382 9.87 13.4582 10.47 13.2682 9.09C19.0382 9.09 18.9682 9.16 19.6582 9.09V10.74C17.9682 10.93 17.3082 11.18 13.4582 11.39ZM19.6482 6.52V8.04C18.8882 8.04 18.3182 8.04 16.6482 8.09C16.6482 7.26 16.6482 8.09 16.5682 6.19C20.0882 6.24 19.6282 6.08 19.6482 6.52ZM15.6482 6.18C15.5182 8 15.5782 7.4 15.5382 8.09L10.5382 8.14C10.5382 8.14 10.5382 8 10.4582 6.09L15.6482 6.18ZM9.7782 6.07C9.6982 7.94 9.6982 7.79 9.6982 8.16C8.6982 8.16 7.6482 8.16 6.6182 8.25C6.4182 5.52 6.1282 6 9.7782 6.07ZM6.6782 9C8.6782 9.07 10.5582 9.07 12.5282 9.07C12.5282 9.28 12.4782 10.13 12.5282 11.4C10.6282 11.48 8.7282 11.49 6.8282 11.51C6.7782 10.33 6.7782 10.44 6.6782 9ZM10.3782 14.33C10.3782 13.91 10.3782 14.33 10.2282 12.33C12.6682 12.33 14.4282 12.19 16.2282 12.03C16.1672 12.6514 16.1438 13.2758 16.1582 13.9C11.0182 14.31 11.4782 14.33 10.3782 14.35V14.33ZM17.2382 13.85C17.2494 13.2323 17.2227 12.6144 17.1582 12C17.9982 11.92 18.8582 11.85 19.6982 11.71C19.7482 14.14 20.1582 13.68 17.2382 13.87V13.85Z" fill="#998696"/>
</g>
<defs>
<clipPath id="clip0_3013_15366">
<rect width="24" height="24" fill="white" transform="translate(0.968201)"/>
</clipPath>
</defs>
</svg>
