<svg width="25" height="24" viewBox="0 0 25 24" fill="none" xmlns="http://www.w3.org/2000/svg">
<g clip-path="url(#clip0_3013_15422)">
<path fill-rule="evenodd" clip-rule="evenodd" d="M4.1982 8.73C4.1982 8.82017 4.23402 8.90665 4.29778 8.97042C4.36154 9.03418 4.44802 9.07 4.5382 9.07C4.62837 9.07 4.71485 9.03418 4.77861 8.97042C4.84238 8.90665 4.8782 8.82017 4.8782 8.73C5.15784 7.13056 5.14089 5.49331 4.8282 3.9C9.8282 1.9 19.2582 2.9 21.0482 4.24C21.0768 4.34149 21.0968 4.44518 21.1082 4.55C21.3982 8.86 21.0582 9.37 21.5882 9.37C21.6678 9.37 21.7441 9.33839 21.8003 9.28213C21.8566 9.22587 21.8882 9.14957 21.8882 9.07C21.9682 4.31 22.1082 4 21.8382 3.7C20.2382 2.01 15.5182 1.65 13.1782 1.7C8.5882 1.67 4.3882 3 4.2382 3.56C4.05295 4.25125 3.96213 4.96439 3.9682 5.68C3.95382 6.70149 4.03079 7.72222 4.1982 8.73Z" fill="#7A387B"/>
<path fill-rule="evenodd" clip-rule="evenodd" d="M20.2482 16.71C20.3049 16.643 20.3334 16.5567 20.328 16.4692C20.3225 16.3816 20.2834 16.2996 20.2188 16.2402C20.1543 16.1808 20.0692 16.1487 19.9815 16.1505C19.8938 16.1523 19.8102 16.188 19.7482 16.25C18.3782 17.66 14.5182 20.41 13.1482 20.57C12.2447 20.1793 11.3891 19.6861 10.5982 19.1C6.3982 16.2 6.5082 15.67 6.1482 16.1C6.09323 16.1561 6.06244 16.2315 6.06244 16.31C6.06244 16.3885 6.09323 16.4639 6.1482 16.52C7.3482 17.67 11.6582 21.97 13.2882 21.75C14.4288 21.4032 15.4963 20.8508 16.4382 20.12C17.8278 19.1245 19.1053 17.9811 20.2482 16.71Z" fill="#7A387B"/>
<path fill-rule="evenodd" clip-rule="evenodd" d="M2.7382 15.67C3.3182 16.59 4.5882 15.67 5.1082 15.51C7.1082 14.95 9.5482 13.9 11.6182 14.09C12.7882 14.2 12.6182 14.61 12.8082 15.09C13.0666 15.517 13.4428 15.8602 13.8916 16.0784C14.3405 16.2967 14.8428 16.3805 15.3382 16.32C16.4182 16.32 18.5982 15.62 20.6382 15.46C21.1882 15.46 21.7282 15.27 22.2682 15.19C23.2682 15.04 23.1382 15.27 23.6982 15.19C24.6182 15.19 24.3982 13.98 24.3982 13.53C24.3982 11.77 24.9482 9.59001 22.3082 9.53001C20.7589 9.63399 19.2186 9.84449 17.6982 10.16C16.0482 10.58 15.8182 10.69 15.5682 10.51C15.3182 10.33 15.0482 9.51001 14.2282 9.08001C12.1984 8.25416 9.93698 8.19727 7.8682 8.92001C6.42269 9.3076 5.02927 9.86833 3.7182 10.59C2.3982 11.38 1.7182 11.66 1.8882 12.07C1.97151 13.3086 2.2587 14.525 2.7382 15.67ZM13.8082 9.93001C14.5282 10.3 14.5182 11.73 16.0982 11.6C16.7382 11.6 17.3282 11.31 17.9082 11.21C24.1482 10.31 23.2482 10.21 23.2382 13.54C23.2382 13.6 23.1882 13.8 23.1682 13.98C22.2826 13.9838 21.4004 14.0878 20.5382 14.29C17.0782 14.58 15.3582 15.75 14.0682 14.98C13.5682 14.68 13.6782 14.38 13.4682 13.98C12.0582 11.41 3.7182 15.34 3.4082 15.27C2.94304 14.2367 2.66214 13.1301 2.5782 12C2.6782 11.94 9.3382 7.65001 13.8082 9.93001Z" fill="#998696"/>
<path fill-rule="evenodd" clip-rule="evenodd" d="M7.4882 19.17C6.9582 19.66 5.3982 21.25 4.5382 21.3C4.53208 21.2469 4.53208 21.1932 4.5382 21.14C5.6282 19 5.4482 19.5 5.5382 19.24C5.58726 19.1281 5.60326 19.0045 5.58432 18.8838C5.56538 18.7631 5.51228 18.6504 5.43131 18.5589C5.35034 18.4674 5.24486 18.401 5.12736 18.3675C5.00985 18.334 4.88523 18.3349 4.7682 18.37C4.06554 18.7104 3.29866 18.8979 2.5182 18.92C3.44748 18.3263 4.20035 17.494 4.6982 16.51C4.73798 16.4411 4.74874 16.3591 4.72811 16.2822C4.70748 16.2053 4.65716 16.1398 4.5882 16.1C4.51924 16.0602 4.43731 16.0495 4.36042 16.0701C4.28353 16.0907 4.21798 16.1411 4.1782 16.21C3.85536 16.729 3.44613 17.189 2.9682 17.57C2.39152 17.9645 1.7903 18.3219 1.1682 18.64C0.518199 19.16 1.4882 20.41 3.8982 19.89C3.4982 20.78 2.9682 22 3.9682 22.25C5.1682 22.54 6.1982 21.41 7.1082 20.58C7.5282 20.2 8.3882 19.44 8.0282 19.09C7.94012 19.0496 7.84219 19.0356 7.74632 19.0498C7.65045 19.064 7.56077 19.1058 7.4882 19.17Z" fill="#998696"/>
<path fill-rule="evenodd" clip-rule="evenodd" d="M24.7682 18.72C24.6782 18.65 24.3282 18.46 24.5082 18.58C23.3569 18.1449 22.3802 17.3439 21.7282 16.3C21.7085 16.2659 21.6823 16.2359 21.651 16.2119C21.6197 16.1879 21.5841 16.1703 21.546 16.1601C21.5079 16.1499 21.4682 16.1473 21.4291 16.1524C21.39 16.1575 21.3523 16.1703 21.3182 16.19C21.2841 16.2097 21.2541 16.2359 21.2301 16.2672C21.2061 16.2985 21.1885 16.3342 21.1783 16.3722C21.1681 16.4103 21.1655 16.45 21.1706 16.4891C21.1757 16.5282 21.1885 16.5659 21.2082 16.6C21.6945 17.5767 22.4334 18.4054 23.3482 19C22.5829 18.9771 21.8306 18.7967 21.1382 18.47C20.9856 18.4242 20.8213 18.438 20.6784 18.5085C20.5356 18.579 20.4247 18.701 20.3682 18.85C20.2282 19.29 20.5082 19.61 20.7082 19.92L21.3882 21.23C21.5482 21.59 21.0482 21.38 20.7482 21.23C19.5382 20.59 19.1482 19.71 18.7482 20.17C18.687 20.2349 18.653 20.3208 18.653 20.41C18.653 20.4992 18.687 20.5851 18.7482 20.65C19.304 21.2178 19.925 21.7179 20.5982 22.14C21.2482 22.46 22.1282 22.51 22.3882 21.83C22.4368 21.1915 22.2904 20.5534 21.9682 20C24.4182 20.54 25.4382 19.27 24.7682 18.72Z" fill="#998696"/>
</g>
<defs>
<clipPath id="clip0_3013_15422">
<rect width="24" height="24" fill="white" transform="translate(0.968201)"/>
</clipPath>
</defs>
</svg>
