<svg width="25" height="24" viewBox="0 0 25 24" fill="none" xmlns="http://www.w3.org/2000/svg">
<g clip-path="url(#clip0_3013_15359)">
<path d="M11.6282 20.21C11.3429 19.53 10.8715 18.9442 10.2682 18.52C9.92302 18.2798 9.55038 18.0818 9.15821 17.93C9.62463 17.4838 9.94996 16.9107 10.0939 16.2814C10.2379 15.6522 10.1942 14.9946 9.96821 14.39C9.65578 13.4898 9.0046 12.747 8.15307 12.3193C7.30155 11.8917 6.31683 11.813 5.40821 12.1C4.81294 12.2843 4.27851 12.626 3.86135 13.0889C3.4442 13.5518 3.1598 14.1188 3.03821 14.73C2.88674 15.3194 2.89293 15.9382 3.05617 16.5245C3.2194 17.1107 3.53393 17.6437 3.96821 18.07L4.03821 18.13C3.78608 18.2352 3.54208 18.3588 3.30821 18.5C3.0148 18.6896 2.74317 18.9109 2.49821 19.16C2.24828 19.4177 2.0239 19.699 1.82821 20C1.41767 20.6643 1.12661 21.3953 0.968206 22.16C0.94626 22.2422 0.956891 22.3297 0.997881 22.4042C1.03887 22.4787 1.10705 22.5345 1.18821 22.56C1.2691 22.585 1.35662 22.577 1.43159 22.5376C1.50657 22.4983 1.56289 22.4308 1.58821 22.35C1.85174 21.7045 2.2089 21.1014 2.64821 20.56C2.82821 20.34 3.02821 20.13 3.23821 19.92C3.44821 19.71 3.63821 19.53 3.86821 19.34C4.18442 19.071 4.51852 18.8238 4.86821 18.6C4.95553 18.6327 5.04602 18.6561 5.13821 18.67C5.76964 18.7854 6.41677 18.7854 7.04821 18.67C7.09838 18.6612 7.14562 18.6402 7.18573 18.6088C7.22585 18.5774 7.25761 18.5366 7.27821 18.49C7.26511 18.5323 7.26511 18.5777 7.27821 18.62C7.30942 18.6977 7.36983 18.76 7.44648 18.7937C7.52312 18.8273 7.6099 18.8296 7.68821 18.8C7.93138 18.7122 8.16574 18.6017 8.38821 18.47C8.79674 18.7288 9.18157 19.0233 9.53821 19.35C9.75115 19.5508 9.95153 19.7646 10.1382 19.99C10.3283 20.2151 10.4989 20.456 10.6482 20.71C11.0035 21.345 11.2917 22.0153 11.5082 22.71C11.5129 22.7549 11.5271 22.7984 11.5498 22.8374C11.5726 22.8765 11.6033 22.9103 11.64 22.9366C11.6767 22.9629 11.7186 22.9812 11.7629 22.9901C11.8072 22.9991 11.8529 22.9986 11.8969 22.9886C11.941 22.9787 11.9825 22.9595 12.0186 22.9324C12.0547 22.9053 12.0847 22.8708 12.1065 22.8312C12.1284 22.7917 12.1416 22.748 12.1454 22.7029C12.1491 22.6579 12.1432 22.6126 12.1282 22.57C12.0731 21.7638 11.9048 20.9693 11.6282 20.21ZM7.52821 18.21C7.4847 18.227 7.44578 18.254 7.41453 18.2887C7.38328 18.3234 7.36057 18.365 7.34821 18.41V18.36C7.34331 18.3231 7.3311 18.2875 7.31229 18.2553C7.29347 18.2232 7.26843 18.1951 7.23863 18.1728C7.20883 18.1504 7.17487 18.1342 7.13874 18.1252C7.1026 18.1161 7.06503 18.1144 7.02821 18.12C3.14821 18.51 3.96821 15.26 3.96821 15C4.06258 14.5742 4.26759 14.1808 4.56255 13.8595C4.85751 13.5382 5.23199 13.3004 5.64821 13.17C6.30554 12.9462 7.02369 12.9833 7.65449 13.2736C8.28529 13.5638 8.78059 14.0852 9.03821 14.73C9.16859 15.0547 9.23288 15.4021 9.22733 15.7519C9.22178 16.1017 9.14649 16.4469 9.00587 16.7672C8.86525 17.0876 8.66213 17.3766 8.4084 17.6175C8.15467 17.8584 7.85543 18.0462 7.52821 18.17V18.21Z" fill="#7A387B"/>
<path d="M24.3082 7.48001L24.0582 7.31001C24.3146 6.72598 24.4928 6.11067 24.5882 5.48001C24.702 4.63959 24.5916 3.78401 24.2682 3.00001C24.0195 2.49954 23.6546 2.0659 23.204 1.73534C22.7535 1.40479 22.2302 1.18694 21.6782 1.10001C21.1237 1.00099 20.5533 1.04046 20.0178 1.21492C19.4822 1.38937 18.998 1.69341 18.6082 2.10001C18.2703 2.48731 18.009 2.93524 17.8382 3.42001C17.6141 4.07171 17.4436 4.74059 17.3282 5.42001L16.6682 5.30001H16.5982C16.5439 5.28586 16.4866 5.28777 16.4334 5.30552C16.3801 5.32327 16.3332 5.3561 16.2982 5.40001C15.9107 5.86531 15.5754 6.37167 15.2982 6.91001C15.012 7.43595 14.7615 7.98051 14.5482 8.54001C14.2057 9.19012 13.9405 9.87815 13.7582 10.59C13.6851 10.9686 13.7198 11.3601 13.8582 11.72C14.003 12.0545 14.2259 12.3494 14.5082 12.58C14.884 12.8768 15.2977 13.1223 15.7382 13.31C16.4886 13.6632 17.2641 13.9607 18.0582 14.2C18.8515 14.438 19.66 14.6218 20.4782 14.75C20.9165 14.8329 21.3623 14.8698 21.8082 14.86C22.1556 14.8495 22.4967 14.7642 22.8082 14.61C23.2399 14.3922 23.5904 14.0417 23.8082 13.61C24.0473 13.0551 24.2347 12.4793 24.3682 11.89C24.7106 10.9342 24.9127 9.9338 24.9682 8.92001C24.9703 8.64631 24.9123 8.37549 24.7982 8.12668C24.6842 7.87786 24.5169 7.65711 24.3082 7.48001ZM18.5382 3.69001C18.71 3.31253 18.9547 2.97269 19.2582 2.69001C19.5611 2.43064 19.9209 2.24653 20.3085 2.15268C20.696 2.05884 21.1002 2.05792 21.4882 2.15001C21.8804 2.20772 22.254 2.35501 22.58 2.58046C22.9061 2.80591 23.1758 3.10346 23.3682 3.45001C23.6765 4.04432 23.8149 4.71213 23.7682 5.38001C23.7322 5.93159 23.6246 6.47615 23.4482 7.00001C23.1865 6.90165 22.9194 6.81818 22.6482 6.75001L20.9682 6.35001C20.0982 6.13001 19.2582 5.88001 18.4082 5.67001L17.8482 5.55001C18.03 4.91319 18.2607 4.29135 18.5382 3.69001ZM23.9682 9.30001C23.827 10.0741 23.6161 10.8339 23.3382 11.57C23.2245 12.0861 23.0569 12.5889 22.8382 13.07C22.723 13.3116 22.5385 13.5135 22.3082 13.65C22.1245 13.7272 21.9275 13.7679 21.7282 13.77C21.3565 13.7793 20.9848 13.7525 20.6182 13.69C19.8458 13.5681 19.0811 13.4011 18.3282 13.19C17.57 12.9868 16.8252 12.7363 16.0982 12.44C15.7426 12.2963 15.4065 12.1082 15.0982 11.88C14.9164 11.7466 14.769 11.5717 14.6682 11.37C14.563 11.0724 14.563 10.7477 14.6682 10.45C14.8372 9.88594 15.0375 9.33175 15.2682 8.79001C15.4554 8.24697 15.6758 7.71597 15.9282 7.20001C16.1128 6.78153 16.3336 6.37999 16.5882 6.00001C17.1582 6.11001 17.7182 6.25001 18.2482 6.40001C19.0982 6.64001 19.9282 6.92001 20.7982 7.17001L22.4082 7.65001C22.7048 7.73391 22.9954 7.83748 23.2782 7.96001C23.4397 8.03764 23.5908 8.13506 23.7282 8.25001C23.8494 8.39301 23.9345 8.56303 23.9762 8.74575C24.018 8.92848 24.0152 9.11857 23.9682 9.30001Z" fill="#7A387B"/>
<path d="M19.6882 9.00001C18.6882 8.69001 17.2882 9.52001 18.1782 10.52C19.3582 11.87 21.8482 9.71001 19.6882 9.00001Z" fill="#7A387B"/>
<path d="M12.5882 5.57002C11.6613 5.36222 10.6934 5.43533 9.8082 5.78002C9.43315 5.92419 9.07171 6.10156 8.7282 6.31002C8.39261 6.52651 8.08088 6.77791 7.7982 7.06002C7.12243 7.71977 6.65038 8.55974 6.4382 9.48002C6.43661 9.54268 6.45537 9.60418 6.49167 9.65528C6.52797 9.70639 6.57985 9.74436 6.63954 9.76351C6.69923 9.78265 6.76351 9.78194 6.82277 9.76148C6.88202 9.74102 6.93305 9.70191 6.9682 9.65002C7.30425 8.925 7.82072 8.29835 8.4682 7.83002C8.73233 7.61322 9.00952 7.41284 9.2982 7.23002C9.58345 7.04082 9.88075 6.87046 10.1882 6.72002C10.8843 6.34549 11.6685 6.16583 12.4582 6.20002C12.5402 6.21112 12.6233 6.19002 12.6901 6.14116C12.7569 6.0923 12.8021 6.01947 12.8164 5.93795C12.8306 5.85643 12.8127 5.77257 12.7664 5.70397C12.7202 5.63537 12.6491 5.58736 12.5682 5.57002H12.5882Z" fill="#998696"/>
<path d="M19.2382 15C19.1627 14.9885 19.0856 15.0072 19.0238 15.0521C18.9621 15.0971 18.9205 15.1646 18.9082 15.24C18.6492 16.0605 18.2198 16.817 17.6482 17.46C17.4236 17.7463 17.1797 18.0169 16.9182 18.27C16.6685 18.5282 16.4012 18.7688 16.1182 18.99C15.4751 19.5229 14.6813 19.8411 13.8482 19.9C13.7623 19.8972 13.6788 19.9281 13.6153 19.986C13.5518 20.0439 13.5134 20.1242 13.5082 20.21C13.5055 20.252 13.5111 20.2942 13.5247 20.3341C13.5384 20.3739 13.5597 20.4107 13.5876 20.4423C13.6155 20.4739 13.6493 20.4997 13.6872 20.5181C13.725 20.5366 13.7661 20.5475 13.8082 20.55C14.8213 20.6341 15.8338 20.381 16.6882 19.83C17.0511 19.6103 17.3868 19.3485 17.6882 19.05C17.9885 18.745 18.2566 18.4099 18.4882 18.05C19.0378 17.2308 19.381 16.2907 19.4882 15.31C19.4917 15.2367 19.4681 15.1647 19.4221 15.1075C19.376 15.0504 19.3106 15.0121 19.2382 15Z" fill="#998696"/>
</g>
<defs>
<clipPath id="clip0_3013_15359">
<rect width="24" height="24" fill="white" transform="translate(0.968201)"/>
</clipPath>
</defs>
</svg>
