<svg width="25" height="24" viewBox="0 0 25 24" fill="none" xmlns="http://www.w3.org/2000/svg">
<g clip-path="url(#clip0_3013_15370)">
<path fill-rule="evenodd" clip-rule="evenodd" d="M23.8582 2.71999C20.3582 -1.11001 7.8582 -0.590015 2.3382 2.35998C2.25333 2.40375 2.18932 2.47943 2.16025 2.57038C2.13118 2.66134 2.13944 2.76012 2.1832 2.84499C2.22696 2.92985 2.30264 2.99386 2.3936 3.02293C2.48455 3.052 2.58333 3.04375 2.6682 2.99998C8.1182 0.209985 20.0682 0.0699852 23.0582 3.43999C23.5982 4.05999 22.6582 12.44 22.1382 14.68C21.6182 16.92 17.1382 20.88 14.9182 22.21C13.4582 23.09 13.2882 23.06 11.8582 22.21C9.1382 20.55 4.0282 15.83 3.8582 14.66C3.8582 14.49 2.0282 5.04998 2.1982 4.37998C2.20462 4.30485 2.1843 4.22986 2.14082 4.16824C2.09734 4.10663 2.03349 4.06235 1.96055 4.04321C1.8876 4.02408 1.81025 4.03132 1.74212 4.06367C1.674 4.09601 1.61948 4.15137 1.5882 4.21998C1.3982 5.06998 3.0482 14.37 3.0682 14.7C3.1982 16.53 11.0682 24.02 13.4282 24C15.7882 23.98 22.5982 18.09 23.3182 15C23.6682 13.38 25.0182 3.99998 23.8582 2.71999Z" fill="#7A387B"/>
<path fill-rule="evenodd" clip-rule="evenodd" d="M12.0782 12.08C13.5182 12.92 16.0082 11.59 15.2382 10.01C15.2024 9.92115 15.1328 9.85016 15.0446 9.81265C14.9565 9.77515 14.857 9.77419 14.7682 9.80999C14.6793 9.8458 14.6084 9.91543 14.5709 10.0036C14.5333 10.0917 14.5324 10.1911 14.5682 10.28C14.8282 11.06 13.3182 11.53 12.7382 11.09C12.558 10.9035 12.4572 10.6543 12.4572 10.395C12.4572 10.1357 12.558 9.88646 12.7382 9.69999C12.9752 9.5304 13.2536 9.42788 13.544 9.40324C13.8343 9.37861 14.126 9.43276 14.3882 9.55999C14.4583 9.5749 14.5313 9.56584 14.5957 9.53429C14.66 9.50274 14.7119 9.45051 14.743 9.38597C14.7741 9.32143 14.7827 9.24831 14.7673 9.17833C14.7519 9.10835 14.7135 9.04555 14.6582 8.99999C11.8582 7.40999 10.1082 10.76 12.0782 12.08Z" fill="#998696"/>
<path fill-rule="evenodd" clip-rule="evenodd" d="M8.0682 13.69C8.1882 13.88 8.7382 14.69 8.8282 14.8C8.98786 14.9244 9.17877 15.0024 9.37991 15.0254C9.58105 15.0483 9.78462 15.0153 9.9682 14.93C10.3178 14.7662 10.6524 14.5721 10.9682 14.35C11.1465 14.4499 11.3301 14.5401 11.5182 14.62C11.5182 15.41 11.3482 16.27 11.9882 16.62C12.4713 16.8222 12.997 16.9013 13.5182 16.85C13.7582 16.85 14.7482 16.74 14.8582 16.71C15.0294 16.6457 15.1811 16.5383 15.2985 16.3981C15.4159 16.2579 15.495 16.0898 15.5282 15.91C15.5983 15.4728 15.5983 15.0272 15.5282 14.59C15.6682 14.52 15.7382 14.49 15.8882 14.4C16.3079 14.6987 16.8038 14.8721 17.3182 14.9C18.4082 14.78 18.7782 13.5 19.1682 12.83C19.2313 12.7254 19.2603 12.6038 19.2514 12.482C19.2424 12.3602 19.1959 12.2442 19.1182 12.15C17.5882 10.36 17.6882 11.26 17.6482 10.37C17.9682 10.14 18.7682 9.72997 18.9682 9.22997C19.3582 8.22997 18.4282 7.35997 18.0282 6.68997C17.9782 6.60578 17.9031 6.53932 17.8134 6.49987C17.7238 6.46043 17.6241 6.44998 17.5282 6.46997C17.1561 6.55285 16.7888 6.65634 16.4282 6.77997C15.2782 7.16997 16.0282 7.17997 15.1082 6.82997C14.9682 5.99997 15.1982 4.92997 13.9682 4.73997C13.393 4.72041 12.8172 4.75389 12.2482 4.83997C12.1767 4.84249 12.1077 4.86685 12.0505 4.90975C11.9933 4.95266 11.9506 5.01207 11.9282 5.07997C11.7665 5.63197 11.656 6.1977 11.5982 6.76997C11.38 6.83974 11.1716 6.9372 10.9782 7.05997C9.7882 6.26997 9.3482 5.72997 8.3082 7.46997C8.1982 7.65997 7.7482 8.52997 7.7182 8.63997C7.4882 9.44997 8.7182 9.96997 9.1382 10.22C9.12326 10.4731 9.12326 10.7269 9.1382 10.98C7.7082 11.7 6.9682 11.87 8.0682 13.69ZM9.8182 11.69C9.90241 11.644 9.97054 11.5734 10.0134 11.4876C10.0563 11.4018 10.072 11.3049 10.0582 11.21C9.8182 9.64997 10.5482 9.98997 9.1982 9.26997C9.0682 9.19997 8.6182 9.00997 8.5182 8.82997C8.75835 8.21036 9.09594 7.63309 9.5182 7.11997C9.9982 7.23997 10.7382 8.11997 11.1282 7.81997C11.6682 7.40997 12.1882 7.42997 12.1982 7.06997C12.1891 6.54584 12.2738 6.02431 12.4482 5.52997C14.5782 5.35997 14.1482 5.43997 14.2982 7.21997C14.3064 7.3002 14.337 7.37649 14.3865 7.44015C14.4361 7.50381 14.5025 7.55226 14.5782 7.57997C16.2682 8.45997 15.1082 8.01997 17.3782 7.49997C17.5782 7.79997 18.1482 8.49997 18.0082 8.87997C16.3182 10.01 16.5482 9.57997 16.5482 11.14C16.5482 11.66 16.8782 11.47 17.9482 12.66C17.8282 12.91 17.4482 13.73 17.1682 13.76C15.1682 12.76 16.1682 13.17 14.6982 13.66C13.9982 13.89 14.3982 14.78 14.3682 15.57C14.0705 15.6778 13.7544 15.7254 13.4382 15.71C13.1894 15.7451 12.937 15.7451 12.6882 15.71V14.3C12.691 14.1745 12.6524 14.0516 12.5783 13.9504C12.5041 13.8491 12.3987 13.7752 12.2782 13.74C11.2782 13.46 11.1482 12.98 10.6782 13.29C9.3182 14.17 9.5782 14.09 9.3782 13.82C9.0394 13.4057 8.7693 12.9398 8.5782 12.44C8.97065 12.1511 9.38527 11.8936 9.8182 11.67V11.69Z" fill="#998696"/>
</g>
<defs>
<clipPath id="clip0_3013_15370">
<rect width="24" height="24" fill="white" transform="translate(0.968201)"/>
</clipPath>
</defs>
</svg>
