<svg width="25" height="24" viewBox="0 0 25 24" fill="none" xmlns="http://www.w3.org/2000/svg">
<g clip-path="url(#clip0_3013_15352)">
<path fill-rule="evenodd" clip-rule="evenodd" d="M13.2442 15.591C12.9672 14.928 11.1272 15.536 10.3702 17.296C9.93606 18.262 9.79596 19.3345 9.96739 20.3796C10.1388 21.4248 10.6142 22.3963 11.3342 23.173C11.7145 23.4484 12.1542 23.6304 12.6178 23.7044C13.0814 23.7783 13.556 23.7421 14.003 23.5987C14.4501 23.4553 14.8571 23.2087 15.1912 22.8789C15.5253 22.549 15.7771 22.1452 15.9262 21.7C16.1383 20.7781 16.1645 19.8231 16.0033 18.891C15.8421 17.9588 15.4966 17.0681 14.9872 16.271C14.5722 15.812 13.6332 15.282 13.2442 15.591ZM13.1082 16.086C12.6991 16.161 12.3202 16.352 12.0165 16.6362C11.7128 16.9204 11.4972 17.2858 11.3952 17.689C11.1235 18.423 11.0476 19.2151 11.1751 19.9873C11.3025 20.7596 11.629 21.4853 12.1222 22.093C12.3363 22.2431 12.5823 22.3415 12.8409 22.3805C13.0995 22.4194 13.3636 22.3978 13.6124 22.3173C13.8612 22.2369 14.088 22.0998 14.2748 21.9168C14.4617 21.7339 14.6035 21.5101 14.6892 21.263C15.0202 20.38 15.0642 16.771 13.4262 16.357C13.3543 16.343 13.2873 16.3108 13.2316 16.2633C13.1759 16.2158 13.1334 16.1547 13.1082 16.086Z" fill="#7A387B"/>
<path fill-rule="evenodd" clip-rule="evenodd" d="M13.9872 0.337009C13.7872 -0.120991 12.5562 -0.0529909 11.9092 0.191009C10.3172 1.16215 9.05876 2.59504 8.3012 4.29901C5.1092 10.206 4.5212 13.517 11.0472 14.033C13.5312 14.21 16.0272 13.955 18.4242 13.279C18.9976 13.1074 19.4881 12.7313 19.8024 12.2219C20.1167 11.7125 20.233 11.1055 20.1292 10.516C19.8972 8.66801 15.5922 -0.527991 13.9872 0.337009ZM13.7872 0.873009C13.7016 0.915405 13.6036 0.925352 13.5112 0.901009C10.3542 0.250009 7.2422 9.22001 7.2882 10.718C7.3702 13.547 16.0462 12.823 17.9172 12.06C18.6072 11.784 18.9312 11.464 18.8472 10.651C18.4393 9.10492 17.8845 7.6014 17.1902 6.16101C14.4702 0.142009 14.0312 1.52601 13.7882 0.874009L13.7872 0.873009Z" fill="#FF7262"/>
<path fill-rule="evenodd" clip-rule="evenodd" d="M13.4282 9.17899C13.1782 8.47699 10.9422 9.00699 11.5142 10.712C11.6013 10.9754 11.7658 11.2066 11.9861 11.3752C12.2065 11.5438 12.4726 11.6422 12.7496 11.6574C13.0267 11.6726 13.302 11.604 13.5395 11.4605C13.777 11.317 13.9658 11.1053 14.0812 10.853C14.4872 9.87799 13.8432 9.18699 13.4292 9.17899H13.4282Z" fill="#FF7262"/>
<path fill-rule="evenodd" clip-rule="evenodd" d="M13.3072 8.04901C14.4842 2.61701 11.3072 -0.240989 12.4782 8.01901C12.4743 8.07454 12.4817 8.13027 12.4998 8.18289C12.5179 8.23552 12.5465 8.28396 12.5837 8.32534C12.6209 8.36672 12.6661 8.40018 12.7165 8.42375C12.7669 8.44731 12.8216 8.46049 12.8772 8.46251C12.9328 8.46452 12.9883 8.45532 13.0403 8.43546C13.0923 8.41561 13.1397 8.38549 13.1799 8.34691C13.22 8.30834 13.2519 8.26208 13.2738 8.2109C13.2957 8.15972 13.307 8.10467 13.3072 8.04901Z" fill="#FF7262"/>
<path fill-rule="evenodd" clip-rule="evenodd" d="M20.8862 21.432C21.1292 23.472 21.1162 24.052 21.6402 23.997C22.1652 23.941 21.9692 23.582 21.9162 21.289C22.7462 21.156 23.6742 21.181 23.6082 20.595C23.5412 20.01 22.7952 20.239 21.8982 20.297C21.8562 18.034 21.8642 18.087 21.7512 16.058C21.5852 13.55 16.4132 19.393 17.0712 20.802C17.5212 21.728 19.8532 21.546 20.8862 21.432ZM20.7642 20.355C20.6542 19.25 20.6152 18.62 20.5272 17.429C19.8243 18.0959 19.2215 18.8608 18.7372 19.7C18.2772 20.595 18.2472 20.214 19.0132 20.294C19.5942 20.354 20.1802 20.372 20.7642 20.347V20.355Z" fill="#7A387B"/>
<path fill-rule="evenodd" clip-rule="evenodd" d="M6.3192 21.07C6.5402 22.952 6.5242 23.833 7.0902 23.78C7.6572 23.728 7.4162 23.303 7.3672 20.999C8.2452 20.929 9.1272 20.977 9.0602 20.379C9.0022 19.866 8.5082 20.026 7.3472 20.012C7.3092 17.829 7.3112 17.846 7.2042 15.842C7.19635 15.7261 7.15834 15.6144 7.09395 15.5177C7.02955 15.4211 6.94101 15.343 6.83711 15.2911C6.7332 15.2393 6.61755 15.2155 6.50162 15.2221C6.38568 15.2288 6.2735 15.2656 6.1762 15.329C4.63307 16.7774 3.33997 18.4709 2.3492 20.341C2.32251 20.4388 2.31837 20.5413 2.33709 20.6409C2.35582 20.7405 2.39693 20.8345 2.45732 20.9159C2.5177 20.9973 2.59579 21.0639 2.68567 21.1107C2.77556 21.1575 2.87491 21.1832 2.9762 21.186C2.9762 21.186 4.7002 21.159 6.3192 21.07ZM6.2012 19.993C6.1042 18.984 6.0812 18.611 5.9882 17.346C5.29692 18.1711 4.65129 19.0334 4.0542 19.929C4.6562 19.951 5.4352 19.976 6.2012 19.993Z" fill="#7A387B"/>
</g>
<defs>
<clipPath id="clip0_3013_15352">
<rect width="24" height="24" fill="white" transform="translate(0.968201)"/>
</clipPath>
</defs>
</svg>
