<svg width="25" height="24" viewBox="0 0 25 24" fill="none" xmlns="http://www.w3.org/2000/svg">
<g clip-path="url(#clip0_3013_15348)">
<path fill-rule="evenodd" clip-rule="evenodd" d="M18.4896 0.237906C5.42233 -0.150256 4.3334 -0.150243 2.77554 0.902223C0.95196 2.13965 1.21244 3.98668 1.19942 5.96657C1.10303 20.0759 0.803477 23.5354 5.03939 23.6813C8.05351 23.8038 20.8081 24.5227 23.0147 23.2853C24.7549 22.3162 24.6715 20.2999 24.6871 17.5854C24.7783 0.917833 25.7683 0.456736 18.4896 0.237906ZM23.5018 2.69714C23.7974 5.99532 23.8262 9.31201 23.5878 12.6148C23.5591 22.2746 24.1792 22.6002 19.2998 22.6914C16.58 22.7513 13.8655 22.7695 11.1718 22.6679C1.70221 22.2719 2.64529 23.8168 2.47335 12.3413C2.47335 11.7186 2.32747 3.9163 2.54109 3.14258C2.93446 1.73582 4.33079 1.31903 5.78965 1.17054C6.39664 1.11323 20.4799 0.938701 22.0378 1.3972C22.379 1.46204 22.6966 1.61702 22.9577 1.84607C23.2189 2.07512 23.4139 2.36988 23.5226 2.69976L23.5018 2.69714Z" fill="#7A387B"/>
<path fill-rule="evenodd" clip-rule="evenodd" d="M5.35735 4.08045C6.28999 4.72912 6.96733 5.28136 8.16047 6.07332C9.35361 6.86527 9.33798 6.52667 8.23862 7.11543C5.30005 8.69934 5.04474 8.88946 5.25054 9.29847C5.45635 9.70747 5.61264 9.6215 8.28549 8.42315C11.62 6.93303 13.2509 7.08674 5.75073 3.40571C5.70643 3.37988 5.65745 3.36301 5.60663 3.3561C5.55582 3.3492 5.50414 3.35234 5.45455 3.36541C5.40495 3.37847 5.35846 3.40122 5.31764 3.43227C5.27683 3.46331 5.24251 3.50205 5.21668 3.54635C5.19085 3.59066 5.17398 3.63967 5.16707 3.69049C5.16016 3.7413 5.16335 3.79299 5.17641 3.84258C5.18947 3.89217 5.21218 3.93866 5.24323 3.97948C5.27428 4.0203 5.31305 4.05462 5.35735 4.08045Z" fill="#998696"/>
<path fill-rule="evenodd" clip-rule="evenodd" d="M17.4266 9.78816C17.4804 9.78713 17.5334 9.77555 17.5826 9.75405C17.6318 9.73255 17.6763 9.70157 17.7136 9.66286C17.7508 9.62416 17.7801 9.57852 17.7997 9.5285C17.8193 9.47849 17.8289 9.42512 17.8279 9.37141C17.8268 9.3177 17.8152 9.26465 17.7937 9.21542C17.7722 9.16619 17.7412 9.12174 17.7025 9.08448C17.6638 9.04723 17.6181 9.01791 17.5681 8.9983C17.5181 8.9787 17.4647 8.96913 17.411 8.97016C15.6904 8.69655 13.9358 8.71593 12.2216 9.02748C11.4922 9.00404 10.9712 10.7547 17.4266 9.78816Z" fill="#998696"/>
</g>
<defs>
<clipPath id="clip0_3013_15348">
<rect width="24" height="24" fill="white" transform="translate(0.968201)"/>
</clipPath>
</defs>
</svg>
