<svg width="25" height="24" viewBox="0 0 25 24" fill="none" xmlns="http://www.w3.org/2000/svg">
<g clip-path="url(#clip0_3013_15220)">
<path fill-rule="evenodd" clip-rule="evenodd" d="M24.5983 5.69999C24.4683 4.54999 24.5283 2.19999 23.6883 1.54999C21.7783 0.0699937 17.5883 0.469994 14.8783 0.349994C11.3583 0.209994 7.74826 0.489994 4.26826 0.589994C4.17809 0.589994 4.09161 0.625815 4.02784 0.689578C3.96408 0.75334 3.92826 0.83982 3.92826 0.929994C3.92826 1.02017 3.96408 1.10665 4.02784 1.17041C4.09161 1.23417 4.17809 1.26999 4.26826 1.26999C7.72826 1.21999 11.2683 0.989994 14.8183 1.18999C17.2783 1.32999 21.4883 1.04999 23.0683 2.31999C23.4683 2.63999 23.4783 4.98999 23.5583 5.80999C23.8948 8.72229 23.9216 11.662 23.6383 14.58C23.5909 15.5598 23.44 16.5319 23.1883 17.48C20.8683 18.78 3.57826 19.86 2.51826 18C2.2147 17.0258 2.03003 16.0185 1.96826 15C3.24826 14.74 5.15826 15.14 13.1483 14.88C19.0483 14.68 20.6683 14.88 21.5883 14.88C21.6483 14.88 21.8983 14.38 21.5883 14.23H21.5383H21.4583C15.9283 13.66 12.0883 13.81 3.30826 14.32C2.85958 14.2885 2.4087 14.3188 1.96826 14.41C1.6704 11.3286 1.70393 8.22421 2.06826 5.14999C2.06826 4.63999 2.15826 4.14999 2.22826 3.60999C2.22101 2.97379 2.29154 2.33909 2.43826 1.71999C2.78826 1.36999 1.94826 0.619994 1.72826 2.05999C1.64826 2.56999 1.64826 3.24999 1.60826 3.51999C1.52826 4.04999 1.46826 4.56999 1.41826 5.08999C1.01098 7.89375 0.887023 10.7314 1.04826 13.56C1.07389 15.2176 1.29884 16.8661 1.71826 18.47C2.50826 19.92 7.48826 20.03 9.21826 20.06C8.72271 20.8352 8.50093 21.7541 8.58826 22.67C7.81826 22.73 7.09826 22.8 6.43826 22.83C6.3587 22.83 6.28239 22.8616 6.22613 22.9179C6.16987 22.9741 6.13826 23.0504 6.13826 23.13C6.13826 23.2096 6.16987 23.2859 6.22613 23.3421C6.28239 23.3984 6.3587 23.43 6.43826 23.43C12.2683 23.63 10.2383 23.94 18.5283 23.3C18.6184 23.3 18.7049 23.2642 18.7687 23.2004C18.8324 23.1366 18.8683 23.0502 18.8683 22.96C18.8683 22.8698 18.8324 22.7833 18.7687 22.7196C18.7049 22.6558 18.6184 22.62 18.5283 22.62H16.6883C16.5538 21.6699 16.2845 20.7439 15.8883 19.87C18.1687 19.7247 20.4332 19.3902 22.6583 18.87C24.0983 18.48 24.3483 18.09 24.5383 16.95C25.0999 13.2225 25.1201 9.43332 24.5983 5.69999ZM15.8883 22.59C13.1583 22.53 11.7083 22.5 9.34826 22.59C9.76217 21.7935 10.0169 20.9239 10.0983 20.03C11.7683 20.03 13.3683 19.97 14.8983 19.88C15.0145 20.8477 15.3534 21.7752 15.8883 22.59Z" fill="#7A387B"/>
<path fill-rule="evenodd" clip-rule="evenodd" d="M12.8983 15.9C12.0483 15.45 11.0083 16.32 11.7683 17.09C11.8606 17.1792 11.9706 17.2481 12.0911 17.2922C12.2117 17.3363 12.3401 17.3548 12.4682 17.3463C12.5963 17.3378 12.7212 17.3026 12.8349 17.243C12.9485 17.1833 13.0485 17.1006 13.1283 17C13.2223 16.8181 13.2507 16.6095 13.2088 16.4091C13.1669 16.2087 13.0572 16.0289 12.8983 15.9Z" fill="#7A387B"/>
<path fill-rule="evenodd" clip-rule="evenodd" d="M3.58826 7.38998C3.89826 10.92 3.81826 11.03 4.22826 11.45C4.28181 11.5315 4.35385 11.5993 4.43853 11.6478C4.5232 11.6962 4.61812 11.724 4.71556 11.7289C4.81301 11.7338 4.91022 11.7156 4.99931 11.6758C5.0884 11.636 5.16684 11.5758 5.22826 11.5C5.59483 10.7577 5.82193 9.95435 5.89826 9.12998C6.75826 10.34 7.18826 11.07 7.60826 11.27C7.71236 11.3316 7.83048 11.3657 7.95142 11.3689C8.07237 11.372 8.19212 11.3443 8.29931 11.2882C8.4065 11.2321 8.49758 11.1495 8.5639 11.0483C8.63022 10.9471 8.66959 10.8307 8.67826 10.71C8.71127 10.3274 8.71127 9.94261 8.67826 9.55998C8.75826 5.82998 8.87826 4.48998 8.37826 4.66998C7.96826 4.50998 7.96826 5.51998 7.96826 6.49998C7.96826 6.41998 7.68826 9.28998 7.75826 9.91998C7.75826 9.91998 6.63826 7.42998 6.51826 7.19998C6.46858 7.08903 6.38786 6.99481 6.28583 6.9287C6.18381 6.8626 6.06483 6.82742 5.94326 6.82742C5.82169 6.82742 5.70271 6.8626 5.60069 6.9287C5.49866 6.99481 5.41794 7.08903 5.36826 7.19998C5.05587 7.97821 4.82139 8.78549 4.66826 9.60998L4.27826 7.25998C4.04826 6.23998 3.96826 5.48998 3.96826 5.42998C3.75826 4.86998 3.28826 4.81998 3.36826 5.65998C3.40826 5.99998 3.56826 7.19998 3.58826 7.38998Z" fill="#998696"/>
<path fill-rule="evenodd" clip-rule="evenodd" d="M12.9683 7.19998C12.9186 7.08903 12.8379 6.99481 12.7358 6.9287C12.6338 6.8626 12.5148 6.82742 12.3933 6.82742C12.2717 6.82742 12.1527 6.8626 12.0507 6.9287C11.9487 6.99481 11.8679 7.08903 11.8183 7.19998C11.5206 7.98156 11.293 8.78807 11.1383 9.60998L10.7483 7.25998C10.5183 6.25998 10.4683 5.48998 10.4383 5.42998C10.2383 4.86998 9.76826 4.81998 9.84826 5.65998C9.84826 5.98998 10.0283 7.19998 10.0583 7.38998C10.3683 10.92 10.2883 11.03 10.6983 11.45C10.7518 11.5315 10.8239 11.5993 10.9085 11.6478C10.9932 11.6962 11.0881 11.724 11.1856 11.7289C11.283 11.7338 11.3802 11.7156 11.4693 11.6758C11.5584 11.636 11.6368 11.5758 11.6983 11.5C12.0568 10.7546 12.2835 9.95275 12.3683 9.12998C13.2283 10.34 13.6583 11.07 14.0683 11.27C14.1726 11.334 14.2917 11.37 14.4141 11.3744C14.5364 11.3788 14.6578 11.3516 14.7665 11.2952C14.8752 11.2388 14.9675 11.1553 15.0344 11.0528C15.1012 10.9503 15.1405 10.8322 15.1483 10.71C15.1813 10.3274 15.1813 9.94261 15.1483 9.55998C15.2283 5.82998 15.3383 4.48998 14.8483 4.66998C14.4283 4.50998 14.5083 5.51998 14.4683 6.49998C14.4683 6.41998 14.1883 9.28998 14.2583 9.91998C14.2183 9.91998 13.0983 7.42998 12.9683 7.19998Z" fill="#998696"/>
<path fill-rule="evenodd" clip-rule="evenodd" d="M19.4383 7.19998C19.3886 7.08903 19.3079 6.99481 19.2058 6.9287C19.1038 6.8626 18.9848 6.82742 18.8633 6.82742C18.7417 6.82742 18.6227 6.8626 18.5207 6.9287C18.4187 6.99481 18.3379 7.08903 18.2883 7.19998C17.9906 7.98156 17.763 8.78807 17.6083 9.60998L17.2183 7.25998C16.9883 6.25998 16.9383 5.48998 16.9083 5.42998C16.7083 4.86998 16.2383 4.81998 16.3183 5.65998C16.3183 5.98998 16.4983 7.19998 16.5283 7.38998C16.8383 10.92 16.7583 11.03 17.1583 11.45C17.2131 11.5298 17.2857 11.5959 17.3703 11.6431C17.4548 11.6903 17.5492 11.7174 17.6459 11.7222C17.7426 11.7271 17.8392 11.7095 17.928 11.671C18.0169 11.6324 18.0957 11.5739 18.1583 11.5C18.5168 10.7546 18.7435 9.95275 18.8283 9.12998C19.6883 10.34 20.1183 11.07 20.5283 11.27C20.6326 11.334 20.7517 11.37 20.8741 11.3744C20.9964 11.3788 21.1178 11.3516 21.2265 11.2952C21.3352 11.2388 21.4275 11.1553 21.4944 11.0528C21.5612 10.9503 21.6005 10.8322 21.6083 10.71C21.6413 10.3274 21.6413 9.94261 21.6083 9.55998C21.6883 5.82998 21.7983 4.48998 21.3083 4.66998C20.8883 4.50998 20.9683 5.51998 20.9283 6.49998C20.9283 6.41998 20.6483 9.28998 20.7183 9.91998C20.6883 9.91998 19.5583 7.42998 19.4383 7.19998Z" fill="#998696"/>
</g>
<defs>
<clipPath id="clip0_3013_15220">
<rect width="24" height="24" fill="white" transform="translate(0.968262)"/>
</clipPath>
</defs>
</svg>
