<svg width="25" height="24" viewBox="0 0 25 24" fill="none" xmlns="http://www.w3.org/2000/svg">
<g clip-path="url(#clip0_3013_15255)">
<path d="M4.89821 3.90999C5.09929 3.90029 5.28955 3.81604 5.4319 3.67369C5.57426 3.53134 5.6585 3.34108 5.66821 3.13999C5.65536 2.92425 5.55985 2.72176 5.40155 2.57463C5.24324 2.42749 5.03431 2.34704 4.81821 2.34999C4.71388 2.35625 4.61188 2.38342 4.51825 2.42987C4.42463 2.47632 4.3413 2.54112 4.2732 2.6204C4.20511 2.69969 4.15364 2.79185 4.12186 2.89142C4.09008 2.99098 4.07864 3.09592 4.08821 3.19999C4.09456 3.29987 4.12058 3.39751 4.16477 3.48731C4.20896 3.57711 4.27045 3.65729 4.34571 3.72326C4.42097 3.78923 4.50852 3.83969 4.60333 3.87173C4.69815 3.90378 4.79835 3.91678 4.89821 3.90999Z" fill="#7A387B"/>
<path d="M8.76821 3.13998C8.75607 2.93271 8.6676 2.73728 8.51987 2.5914C8.37214 2.44551 8.17561 2.35951 7.96821 2.34998C7.86388 2.35624 7.76188 2.3834 7.66825 2.42985C7.57463 2.4763 7.4913 2.5411 7.4232 2.62038C7.35511 2.69967 7.30365 2.79183 7.27187 2.8914C7.24009 2.99096 7.22864 3.0959 7.23821 3.19998C7.25045 3.38768 7.33187 3.56417 7.46671 3.69532C7.60155 3.82647 7.78024 3.90295 7.96821 3.90998C8.17382 3.90534 8.37018 3.82361 8.51836 3.68098C8.66654 3.53836 8.75572 3.34526 8.76821 3.13998Z" fill="#7A387B"/>
<path d="M11.7382 3.13999C11.7304 2.92425 11.6378 2.7203 11.4805 2.5724C11.3233 2.4245 11.114 2.34458 10.8982 2.34999C10.7939 2.35625 10.6919 2.38341 10.5983 2.42987C10.5046 2.47632 10.4213 2.54111 10.3532 2.6204C10.2851 2.69969 10.2336 2.79185 10.2019 2.89141C10.1701 2.99098 10.1586 3.09591 10.1682 3.19999C10.1811 3.39987 10.2724 3.58659 10.4222 3.71955C10.572 3.85251 10.7682 3.92095 10.9682 3.90999C11.1693 3.90028 11.3596 3.81604 11.5019 3.67369C11.6443 3.53133 11.7285 3.34107 11.7382 3.13999Z" fill="#7A387B"/>
<path d="M23.3882 4.99998C22.7282 4.99998 22.0582 4.99998 21.3882 4.93998C19.8182 4.83998 18.2582 4.65998 16.6982 4.55998C15.3182 4.47998 13.9282 4.41998 12.5282 4.42998C11.1282 4.43998 9.7582 4.49998 8.3782 4.56998C6.9982 4.63998 5.5182 4.72998 4.0982 4.99998C3.45825 5.10812 2.82412 5.2483 2.1982 5.41998C2.22038 4.35531 2.31057 3.29315 2.4682 2.23998C2.48323 2.15666 2.46566 2.07075 2.41913 2.00003C2.3726 1.9293 2.30066 1.87916 2.2182 1.85998C2.13489 1.84495 2.04898 1.86252 1.97825 1.90905C1.90752 1.95558 1.85738 2.02752 1.8382 2.10998C1.37974 4.56135 1.12554 7.04655 1.0782 9.53998C1.0782 10.54 0.998203 11.66 0.978203 12.73C0.958203 13.8 0.978203 14.88 0.978203 15.91C1.008 18.1458 1.15152 20.3787 1.4082 22.6C1.41781 22.9113 1.5 23.216 1.6482 23.49C1.67427 23.5166 1.70539 23.5377 1.73973 23.5522C1.77408 23.5666 1.81095 23.574 1.8482 23.574C1.88545 23.574 1.92233 23.5666 1.95667 23.5522C1.99102 23.5377 2.02213 23.5166 2.0482 23.49C2.08956 23.4372 2.11204 23.372 2.11204 23.305C2.11204 23.2379 2.08956 23.1728 2.0482 23.12C1.9482 23.12 1.9882 22.82 1.9682 22.53C1.8782 21.34 1.9682 18.81 1.9682 15.9C1.9682 14.48 1.9682 12.96 2.0282 11.46V8.45998C2.0282 7.45998 2.0282 6.74998 2.0882 5.96998C2.74776 5.81818 3.41554 5.70465 4.0882 5.62998C5.4982 5.47998 6.9282 5.45998 8.3082 5.44998C9.6882 5.43998 11.0582 5.44998 12.4382 5.44998H16.5582C18.1182 5.44998 19.6882 5.57998 21.2582 5.59998H23.2582C23.2998 5.6 23.3409 5.59166 23.3792 5.57546C23.4175 5.55926 23.4521 5.53553 23.481 5.50568C23.5099 5.47582 23.5326 5.44046 23.5475 5.40168C23.5625 5.36291 23.5695 5.32152 23.5682 5.27998C23.5668 5.22129 23.5492 5.16412 23.5175 5.11473C23.4857 5.06535 23.441 5.02565 23.3882 4.99998Z" fill="#7A387B"/>
<path d="M24.9682 17.68C24.9682 12.6 24.7682 6.19999 24.8082 5.22999C24.852 4.56169 24.8184 3.89058 24.7082 3.22999C24.6162 2.74176 24.4293 2.27631 24.1582 1.85999C23.739 1.32784 23.1364 0.971249 22.4682 0.859988C21.1805 0.672687 19.8788 0.59907 18.5782 0.639988C16.9682 0.559988 15.3282 0.479988 13.7082 0.449988C12.0882 0.419988 10.4682 0.409988 8.83821 0.459988C7.54387 0.460728 6.25101 0.547586 4.96821 0.719988C4.10586 0.832949 3.25995 1.04778 2.44821 1.35999C2.37694 1.38696 2.31916 1.4409 2.28735 1.51013C2.25554 1.57937 2.25225 1.65835 2.27821 1.72999C2.29143 1.76522 2.31161 1.79742 2.33756 1.82467C2.36351 1.85192 2.39468 1.87366 2.42921 1.88859C2.46375 1.90353 2.50094 1.91135 2.53857 1.91159C2.57619 1.91183 2.61348 1.90448 2.64821 1.88999C3.42692 1.61379 4.23609 1.43248 5.05821 1.34999C6.3075 1.2268 7.56338 1.18338 8.81821 1.21999C10.1182 1.21999 11.4082 1.21999 12.6882 1.31999C14.6282 1.39999 16.5382 1.52999 18.4882 1.68999C19.2582 1.74999 20.5782 1.59999 21.7082 1.74999C21.9957 1.75257 22.2794 1.81529 22.5412 1.93413C22.803 2.05296 23.037 2.22528 23.2282 2.43999C23.4241 2.74374 23.5567 3.08384 23.6182 3.43999C23.7212 4.02735 23.7547 4.62479 23.7182 5.21999C23.7182 6.21999 24.0082 12.61 24.1682 17.71C24.2382 19.92 24.2782 21.89 24.2482 23.04C24.2503 23.1235 24.2831 23.2032 24.3403 23.2641C24.3975 23.325 24.475 23.3626 24.5582 23.37C24.6002 23.3713 24.6421 23.3644 24.6814 23.3495C24.7208 23.3346 24.7568 23.3122 24.7875 23.2834C24.8181 23.2546 24.8428 23.22 24.8601 23.1817C24.8773 23.1434 24.8869 23.102 24.8882 23.06C24.9682 21.88 24.9682 19.91 24.9682 17.68Z" fill="#7A387B"/>
<path d="M16.3382 9.94H18.1182C18.3682 9.94 18.6282 9.94 18.8782 9.88L19.6282 9.79C20.2282 9.71 20.8082 9.61 21.3882 9.56C21.4731 9.56 21.5545 9.52628 21.6145 9.46627C21.6745 9.40626 21.7082 9.32487 21.7082 9.24C21.7082 9.15513 21.6745 9.07374 21.6145 9.01373C21.5545 8.95371 21.4731 8.92 21.3882 8.92C20.7776 8.8424 20.1635 8.79568 19.5482 8.78H18.7682C18.5058 8.79701 18.2451 8.83378 17.9882 8.89C17.3876 9.02096 16.7964 9.19133 16.2182 9.4C16.1821 9.40717 16.1477 9.4214 16.1171 9.44188C16.0864 9.46235 16.0601 9.48868 16.0397 9.51933C16.0193 9.54999 16.0051 9.58438 15.998 9.62053C15.9908 9.65668 15.9909 9.69388 15.9982 9.73C16.0064 9.76628 16.0218 9.80057 16.0434 9.83084C16.065 9.86112 16.0925 9.88679 16.1241 9.90634C16.1558 9.92589 16.191 9.93894 16.2278 9.94472C16.2645 9.9505 16.3021 9.94889 16.3382 9.94Z" fill="#7A387B"/>
<path d="M21.5782 17.5C20.9709 17.4228 20.3602 17.376 19.7482 17.36H18.9582C18.6957 17.3763 18.4349 17.4131 18.1782 17.47C17.5776 17.6009 16.9864 17.7713 16.4082 17.98C16.3721 17.9872 16.3377 18.0014 16.3071 18.0219C16.2764 18.0423 16.2501 18.0687 16.2297 18.0993C16.2093 18.13 16.1951 18.1644 16.188 18.2005C16.1808 18.2367 16.1809 18.2739 16.1882 18.31C16.1925 18.3475 16.205 18.3836 16.2247 18.4158C16.2444 18.448 16.2709 18.4755 16.3023 18.4964C16.3337 18.5173 16.3692 18.5312 16.4065 18.537C16.4438 18.5428 16.4819 18.5404 16.5182 18.53H18.2982C18.5582 18.53 18.8082 18.53 19.0582 18.47C19.3082 18.41 19.5582 18.42 19.8082 18.38C20.4082 18.3 20.9882 18.2 21.5682 18.15C21.654 18.15 21.7365 18.1166 21.7981 18.0569C21.8597 17.9972 21.8956 17.9158 21.8982 17.83C21.8995 17.7871 21.8923 17.7444 21.8768 17.7045C21.8613 17.6645 21.8379 17.628 21.8081 17.5972C21.7782 17.5664 21.7425 17.542 21.703 17.5253C21.6635 17.5086 21.6211 17.5 21.5782 17.5Z" fill="#7A387B"/>
<path d="M18.0782 12.61C18.3282 12.61 18.5682 12.61 18.8182 12.55C19.0682 12.49 19.3182 12.49 19.5582 12.45C20.1482 12.36 20.7282 12.23 21.3082 12.12C21.3922 12.1099 21.4691 12.068 21.5231 12.0029C21.577 11.9377 21.6039 11.8544 21.5982 11.77C21.5858 11.6852 21.5418 11.6082 21.4751 11.5544C21.4083 11.5006 21.3237 11.474 21.2382 11.48H19.4682H18.7182C18.4629 11.5012 18.2091 11.5379 17.9582 11.59C17.372 11.7215 16.7942 11.8885 16.2282 12.09C16.1546 12.1046 16.0896 12.1471 16.0467 12.2086C16.0038 12.2701 15.9864 12.3459 15.9982 12.42C16.0041 12.4568 16.0175 12.4919 16.0376 12.5233C16.0577 12.5547 16.0841 12.5815 16.1151 12.6022C16.1461 12.6228 16.181 12.6369 16.2177 12.6434C16.2544 12.6499 16.292 12.6487 16.3282 12.64C16.9082 12.61 17.4982 12.63 18.0782 12.61Z" fill="#7A387B"/>
<path d="M21.4282 20.11H19.6582H18.8882C18.6363 20.132 18.3858 20.1687 18.1382 20.22C17.5487 20.3515 16.9676 20.5184 16.3982 20.72C16.3621 20.7279 16.3279 20.7428 16.2975 20.7639C16.2672 20.785 16.2413 20.8119 16.2213 20.843C16.2014 20.8741 16.1877 20.9088 16.1812 20.9452C16.1746 20.9816 16.1753 21.0189 16.1832 21.055C16.1911 21.0911 16.206 21.1253 16.2271 21.1557C16.2482 21.186 16.2751 21.2119 16.3062 21.2319C16.3373 21.2518 16.372 21.2655 16.4084 21.272C16.4448 21.2786 16.4821 21.2779 16.5182 21.27H18.2582C18.5082 21.27 18.7482 21.27 18.9982 21.21C19.2482 21.15 19.4982 21.15 19.7482 21.11C20.3282 21.02 20.8982 20.89 21.4782 20.78C21.5203 20.7762 21.5612 20.7642 21.5986 20.7445C21.636 20.7248 21.6692 20.698 21.6961 20.6654C21.7231 20.6329 21.7434 20.5953 21.7557 20.5549C21.7681 20.5145 21.7723 20.4721 21.7682 20.43C21.7698 20.3858 21.762 20.3418 21.7452 20.3009C21.7284 20.2599 21.7031 20.2231 21.6709 20.1928C21.6387 20.1625 21.6004 20.1394 21.5585 20.1251C21.5166 20.1108 21.4722 20.1057 21.4282 20.11Z" fill="#7A387B"/>
<path d="M4.65821 14.25C4.69977 14.25 4.74092 14.2417 4.77919 14.2255C4.81747 14.2093 4.8521 14.1855 4.88102 14.1557C4.90994 14.1258 4.93256 14.0905 4.94754 14.0517C4.96252 14.0129 4.96955 13.9715 4.96821 13.93C5.02821 13.51 5.09821 13.12 5.14821 12.7C5.1585 12.5268 5.1585 12.3532 5.14821 12.18V11.67C5.14821 11.25 5.04821 10.86 5.01821 10.45C5.02694 10.376 5.00689 10.3016 4.96221 10.242C4.91753 10.1824 4.85164 10.1423 4.77821 10.13C4.74063 10.1244 4.70231 10.1265 4.66558 10.1362C4.62884 10.1458 4.59446 10.1629 4.56453 10.1863C4.53459 10.2097 4.50973 10.2389 4.49145 10.2722C4.47317 10.3055 4.46186 10.3422 4.45821 10.38C4.30996 10.7829 4.19622 11.1978 4.11821 11.62C4.10332 11.7997 4.10332 11.9803 4.11821 12.16C4.10826 12.3398 4.10826 12.5201 4.11821 12.7C4.16821 13.12 4.23821 13.52 4.31821 13.94C4.318 13.9833 4.3269 14.0263 4.34432 14.066C4.36174 14.1057 4.3873 14.1413 4.41934 14.1705C4.45138 14.1997 4.4892 14.2219 4.53034 14.2356C4.57149 14.2493 4.61505 14.2542 4.65821 14.25Z" fill="#998696"/>
<path d="M5.0682 19.08C5.1182 18.67 5.1882 18.28 5.2482 17.86V17.34C5.2582 17.1701 5.2582 16.9998 5.2482 16.83C5.2482 16.41 5.1682 16.01 5.1582 15.6C5.16962 15.5315 5.15692 15.4611 5.12227 15.401C5.08762 15.3408 5.03317 15.2945 4.9682 15.27C4.89425 15.2612 4.81978 15.2813 4.7602 15.326C4.70063 15.3707 4.66053 15.4365 4.6482 15.51C4.49148 15.9135 4.36448 16.3279 4.2682 16.75C4.25295 16.933 4.25295 17.117 4.2682 17.3C4.25829 17.4832 4.25829 17.6668 4.2682 17.85C4.2682 18.28 4.3882 18.69 4.4682 19.11C4.47337 19.1957 4.51178 19.2761 4.57527 19.334C4.63876 19.3919 4.72233 19.4227 4.8082 19.42C4.88587 19.4054 4.95541 19.3626 5.00341 19.2998C5.05142 19.2371 5.0745 19.1588 5.0682 19.08Z" fill="#998696"/>
<path d="M13.5282 16.15C13.5282 16.0651 13.4945 15.9837 13.4345 15.9237C13.3745 15.8637 13.2931 15.83 13.2082 15.83C13.1232 15.835 13.0432 15.8716 12.984 15.9327C12.9247 15.9938 12.8906 16.0749 12.8882 16.16C12.8382 16.52 12.7682 16.86 12.7382 17.22V17.67V18.12C12.7982 18.47 12.9182 18.79 12.9882 19.12C12.9854 19.1571 12.9904 19.1944 13.0027 19.2295C13.015 19.2646 13.0345 19.2967 13.0599 19.324C13.0852 19.3512 13.1159 19.3729 13.15 19.3877C13.1842 19.4025 13.221 19.4101 13.2582 19.41C13.3318 19.4102 13.4027 19.3824 13.4565 19.3322C13.5104 19.2821 13.5431 19.2134 13.5482 19.14C13.6407 18.7875 13.7141 18.4303 13.7682 18.07C13.7831 17.917 13.7831 17.763 13.7682 17.61C13.7664 17.4587 13.7496 17.308 13.7182 17.16C13.6882 16.83 13.5982 16.5 13.5282 16.15Z" fill="#998696"/>
<path d="M12.7182 10.61C12.7182 11 12.6182 11.39 12.5882 11.79V12.29C12.5783 12.4598 12.5783 12.6301 12.5882 12.8C12.6642 13.2047 12.761 13.6052 12.8782 14C12.8833 14.0751 12.9175 14.1453 12.9735 14.1957C13.0295 14.2461 13.1029 14.2728 13.1782 14.27C13.2159 14.2687 13.2529 14.2599 13.2871 14.244C13.3212 14.2281 13.3518 14.2055 13.3771 14.1774C13.4023 14.1494 13.4216 14.1166 13.4338 14.081C13.446 14.0453 13.4509 14.0076 13.4482 13.97C13.4482 13.57 13.5982 13.19 13.6382 12.79V12.28C13.653 12.1103 13.653 11.9397 13.6382 11.77C13.5833 11.3654 13.5031 10.9646 13.3982 10.57C13.3957 10.527 13.3846 10.485 13.3655 10.4464C13.3464 10.4079 13.3197 10.3736 13.287 10.3456C13.2543 10.3176 13.2163 10.2964 13.1753 10.2834C13.1343 10.2705 13.091 10.2659 13.0482 10.27C13.004 10.27 12.9603 10.2788 12.9196 10.296C12.8789 10.3132 12.842 10.3384 12.8112 10.3701C12.7805 10.4019 12.7564 10.4394 12.7404 10.4806C12.7244 10.5218 12.7169 10.5658 12.7182 10.61Z" fill="#998696"/>
<path d="M12.1982 8.83L12.3882 9.15C12.3984 9.18544 12.4157 9.21844 12.4391 9.24694C12.4625 9.27544 12.4915 9.29884 12.5243 9.31571C12.5571 9.33257 12.593 9.34254 12.6298 9.345C12.6666 9.34745 12.7035 9.34235 12.7382 9.33C12.7752 9.32399 12.8107 9.3106 12.8425 9.29062C12.8742 9.27065 12.9016 9.24449 12.9231 9.21371C12.9446 9.18293 12.9596 9.14814 12.9673 9.11143C12.9751 9.07472 12.9754 9.03682 12.9682 9C12.9514 8.80485 12.9213 8.61106 12.8782 8.42C12.8427 8.30713 12.7922 8.19951 12.7282 8.1C12.5253 7.82624 12.2307 7.63458 11.8982 7.56C11.7065 7.52444 11.5099 7.52444 11.3182 7.56C10.9182 7.56 10.5182 7.71 10.1982 7.72C10.1561 7.7144 10.1134 7.71723 10.0724 7.72833C10.0314 7.73942 9.99308 7.75855 9.95957 7.78461C9.92607 7.81067 9.89809 7.84313 9.87725 7.88011C9.85641 7.91709 9.84314 7.95784 9.83821 8C9.82957 8.08451 9.85385 8.16909 9.90601 8.23615C9.95816 8.3032 10.0342 8.34756 10.1182 8.36L12.1182 8.75C12.1472 8.77421 12.174 8.80098 12.1982 8.83Z" fill="#998696"/>
<path d="M13.4182 20.27C13.343 20.2699 13.2707 20.2991 13.2166 20.3513C13.1625 20.4036 13.1308 20.4748 13.1282 20.55C13.0926 20.8562 13.0392 21.16 12.9682 21.46C12.921 21.6923 12.8102 21.9069 12.6482 22.08C12.5624 22.1798 12.4521 22.2556 12.3282 22.3C12.1492 22.3753 11.9655 22.4387 11.7782 22.49C11.3388 22.5827 10.8948 22.6528 10.4482 22.7C10.4021 22.6917 10.3548 22.6937 10.3096 22.7057C10.2644 22.7178 10.2223 22.7396 10.1865 22.7696C10.1506 22.7996 10.1217 22.8372 10.1019 22.8796C10.0821 22.922 10.0719 22.9682 10.0719 23.015C10.0719 23.0618 10.0821 23.108 10.1019 23.1504C10.1217 23.1928 10.1506 23.2303 10.1865 23.2604C10.2223 23.2904 10.2644 23.3122 10.3096 23.3242C10.3548 23.3363 10.4021 23.3382 10.4482 23.33C11.1459 23.4561 11.8605 23.4561 12.5582 23.33C12.9569 23.2421 13.3114 23.0152 13.5582 22.69C13.7214 22.4018 13.8171 22.0804 13.8382 21.75C13.841 21.3445 13.8075 20.9395 13.7382 20.54C13.7372 20.5004 13.7278 20.4615 13.7107 20.4259C13.6936 20.3902 13.6691 20.3586 13.6389 20.3331C13.6086 20.3076 13.5733 20.2888 13.5353 20.2779C13.4973 20.267 13.4574 20.2643 13.4182 20.27Z" fill="#998696"/>
<path d="M8.3882 7.75C7.9518 7.61892 7.50759 7.51538 7.0582 7.44C6.72217 7.40792 6.38311 7.43843 6.0582 7.53C5.74878 7.60599 5.46561 7.76408 5.23856 7.98761C5.01152 8.21114 4.84901 8.49181 4.7682 8.8C4.75248 8.84061 4.74522 8.88401 4.74685 8.92753C4.74849 8.97105 4.75899 9.01377 4.77771 9.05309C4.79644 9.09241 4.82299 9.12749 4.85574 9.15619C4.8885 9.18489 4.92677 9.20661 4.9682 9.22C5.04907 9.24162 5.13519 9.2307 5.20809 9.18958C5.281 9.14845 5.33489 9.08039 5.3582 9C5.43239 8.88552 5.52921 8.78743 5.64271 8.71176C5.75621 8.63609 5.884 8.58445 6.0182 8.56C6.14961 8.52878 6.28342 8.50871 6.4182 8.5C6.6282 8.5 6.8582 8.5 7.0882 8.44L8.3682 8.31C8.40847 8.31168 8.44863 8.30464 8.48592 8.28937C8.52322 8.2741 8.55678 8.25096 8.58432 8.22153C8.61185 8.19209 8.63271 8.15707 8.64546 8.11883C8.65821 8.0806 8.66256 8.04007 8.6582 8C8.65315 7.93191 8.62248 7.86827 8.57239 7.82188C8.52229 7.7755 8.45648 7.74981 8.3882 7.75Z" fill="#998696"/>
<path d="M8.3482 22.67C7.8682 22.67 7.1582 22.61 6.4982 22.5C6.29604 22.4807 6.0975 22.4335 5.9082 22.36C5.80112 22.3303 5.69973 22.283 5.6082 22.22C5.50802 22.0948 5.43943 21.9473 5.4082 21.79C5.34973 21.5462 5.30631 21.2991 5.2782 21.05C5.27141 20.97 5.23657 20.8951 5.17984 20.8384C5.12311 20.7816 5.04814 20.7468 4.9682 20.74C4.92617 20.7413 4.88481 20.7508 4.84648 20.7681C4.80815 20.7854 4.7736 20.8101 4.74481 20.8407C4.71602 20.8714 4.69355 20.9074 4.67869 20.9467C4.66383 20.9861 4.65687 21.028 4.6582 21.07C4.61816 21.4656 4.61816 21.8643 4.6582 22.26C4.68703 22.5099 4.78777 22.7462 4.9482 22.94C5.34138 23.3202 5.86158 23.5411 6.4082 23.56C7.08517 23.5257 7.75609 23.415 8.4082 23.23C8.48246 23.23 8.55368 23.2005 8.60619 23.148C8.6587 23.0955 8.6882 23.0243 8.6882 22.95C8.6882 22.8757 8.6587 22.8045 8.60619 22.752C8.55368 22.6995 8.48246 22.67 8.4082 22.67H8.3482Z" fill="#998696"/>
</g>
<defs>
<clipPath id="clip0_3013_15255">
<rect width="24" height="24" fill="white" transform="translate(0.968201)"/>
</clipPath>
</defs>
</svg>
