<svg width="25" height="24" viewBox="0 0 25 24" fill="none" xmlns="http://www.w3.org/2000/svg">
<g clip-path="url(#clip0_3013_15235)">
<path fill-rule="evenodd" clip-rule="evenodd" d="M24.8782 9.19999C24.6982 8.61999 23.4982 8.59999 22.6682 8.55999C22.8281 7.76524 22.9283 6.95967 22.9682 6.14999L24.4382 6.04999C24.531 6.04999 24.6201 6.01311 24.6857 5.94747C24.7513 5.88184 24.7882 5.79281 24.7882 5.69999C24.7882 5.60716 24.7513 5.51814 24.6857 5.4525C24.6201 5.38686 24.531 5.34999 24.4382 5.34999L22.9682 5.25999C22.9682 4.47999 22.8682 3.98999 22.7582 3.07999C22.7582 2.98716 22.7213 2.89814 22.6557 2.8325C22.59 2.76686 22.501 2.72999 22.4082 2.72999C22.3154 2.72999 22.2264 2.76686 22.1607 2.8325C22.0951 2.89814 22.0582 2.98716 22.0582 3.07999C22.0582 3.73999 21.8982 4.42999 21.8382 5.18999C20.7859 5.12443 19.7305 5.12443 18.6782 5.18999C18.6182 3.97999 18.5482 3.65999 18.4582 2.52999C18.4441 2.44606 18.4007 2.36985 18.3357 2.31489C18.2707 2.25993 18.1883 2.22978 18.1032 2.22978C18.0181 2.22978 17.9357 2.25993 17.8707 2.31489C17.8058 2.36985 17.7623 2.44606 17.7482 2.52999C17.5982 4.01999 17.5582 4.23999 17.5282 5.26999C16.5882 5.35999 15.6482 5.47999 14.6882 5.59999C14.6882 4.53999 14.7982 2.59999 14.0982 2.27999C11.8282 1.11999 4.5182 1.27999 2.0982 1.84999C1.70575 1.89544 1.34675 2.0929 1.0982 2.39999C0.7082 3.19999 1.0982 21.07 2.2582 21.83C4.0482 23.01 20.5682 22.53 23.0982 22.27C23.6282 22.22 24.2782 22.18 24.4282 21.87C24.4501 21.8289 24.4634 21.7838 24.4672 21.7374C24.4709 21.691 24.4651 21.6444 24.4501 21.6003C24.4351 21.5562 24.4112 21.5157 24.3799 21.4813C24.3487 21.4468 24.3106 21.4191 24.2682 21.4C24.0082 21.27 23.1682 21.55 22.8182 21.58C16.6416 21.8826 10.4518 21.7823 4.2882 21.28C2.5682 21.06 2.9682 21.14 2.8382 20.6C2.3982 18.13 2.1882 9.83999 2.1482 7.17999C2.8782 7.24999 12.3882 7.02999 12.7582 6.89999C12.8347 6.87967 12.9021 6.83399 12.9494 6.77042C12.9966 6.70685 13.0209 6.62914 13.0182 6.54999C13.0182 6.01999 12.2782 6.25999 11.7182 6.17999L8.3982 5.99999C4.5682 5.76999 3.8382 6.49999 2.1482 6.53999V3.06999C4.4005 2.68903 6.68494 2.5316 8.9682 2.59999C10.4879 2.56133 12.0039 2.76729 13.4582 3.20999C13.647 4.84967 13.6872 6.50307 13.5782 8.14999C13.5782 8.61999 13.4882 9.03999 13.8782 9.27999C14.8782 9.88999 22.1582 9.05999 24.1482 9.53999C24.2382 10.46 24.3682 17.17 24.2182 19.69C24.2182 19.7722 24.2509 19.8511 24.309 19.9092C24.3671 19.9673 24.446 20 24.5282 20C24.6104 20 24.6893 19.9673 24.7474 19.9092C24.8055 19.8511 24.8382 19.7722 24.8382 19.69C24.9682 17.57 25.0282 9.66999 24.8782 9.19999ZM14.5482 8.40999C14.5482 8.15999 14.6382 6.51999 14.6482 6.27999L17.5082 6.35999C17.5572 7.09498 17.6507 7.82632 17.7882 8.54999C16.7062 8.60482 15.6214 8.55794 14.5482 8.40999ZM18.4782 8.53999C18.5582 7.61999 18.6182 7.28999 18.6582 6.35999C19.4082 6.35999 19.6582 6.35999 21.7682 6.22999C21.7681 7.00431 21.8351 7.77719 21.9682 8.53999C20.8982 8.51999 19.6582 8.52999 18.4782 8.53999Z" fill="#7A387B"/>
<path fill-rule="evenodd" clip-rule="evenodd" d="M4.5082 5.09C5.1682 4.81 4.8582 3.55 4.0582 3.64C3.9408 3.64811 3.82676 3.68267 3.72462 3.74111C3.62248 3.79955 3.53488 3.88034 3.46839 3.97743C3.4019 4.07452 3.35824 4.1854 3.34068 4.30176C3.32313 4.41812 3.33212 4.53694 3.367 4.64933C3.40188 4.76172 3.46174 4.86476 3.54209 4.95074C3.62244 5.03671 3.72121 5.10339 3.83098 5.14578C3.94076 5.18817 4.05871 5.20517 4.17598 5.19551C4.29326 5.18585 4.40684 5.14978 4.5082 5.09Z" fill="#7A387B"/>
<path fill-rule="evenodd" clip-rule="evenodd" d="M7.5482 5.09C8.1982 4.81 7.8882 3.55 7.0882 3.64C6.9663 3.64409 6.84701 3.67635 6.73966 3.73425C6.63232 3.79216 6.53984 3.87413 6.46947 3.97374C6.3991 4.07336 6.35275 4.18792 6.33405 4.30844C6.31535 4.42897 6.32481 4.55218 6.3617 4.66844C6.39858 4.7847 6.46187 4.89083 6.54663 4.97854C6.63139 5.06624 6.7353 5.13313 6.85023 5.17396C6.96515 5.2148 7.08798 5.22846 7.20907 5.2139C7.33016 5.19933 7.44624 5.15692 7.5482 5.09Z" fill="#7A387B"/>
<path fill-rule="evenodd" clip-rule="evenodd" d="M13.4482 16.62C13.4482 15.25 13.3982 14.19 13.2682 12.84C13.0882 11.02 13.1882 11.04 11.1282 10.91C9.17189 10.762 7.20892 10.722 5.2482 10.79C4.7182 10.91 4.8782 11.79 5.4082 11.67C5.9382 11.55 10.4082 12.03 11.4082 12.16C10.3342 12.9282 9.19291 13.5976 7.9982 14.16C7.3282 13.8 6.9982 13.66 6.5982 13.42C4.5082 11.8 3.3682 10.75 3.2882 11.57C3.1782 12.83 2.9082 17.5 3.3982 18.66C3.5382 19.02 3.9482 19.04 4.2882 19.08C7.01686 19.3389 9.76511 19.3121 12.4882 19C12.7721 18.9769 13.0357 18.8437 13.2226 18.6288C13.4095 18.4139 13.5048 18.1343 13.4882 17.85C13.5382 17.44 13.4482 16.75 13.4482 16.62ZM12.5082 12.35C12.5082 12.5 12.4482 12 12.5082 16.35C12.4829 16.7229 12.4829 17.0971 12.5082 17.47C11.8882 17 10.2582 15.54 9.4082 15C10.5447 14.2449 11.5856 13.3551 12.5082 12.35ZM5.9682 14.55C6.8082 15.2 6.7882 14.95 6.4482 15.21C6.4482 15.21 4.1182 17.68 4.0082 17.81C3.87802 16.0524 3.87802 14.2876 4.0082 12.53C4.1782 12.7 3.9682 12.5 5.9682 14.55ZM4.7282 18.29C7.3882 16.42 7.5782 16.15 8.0182 15.88C9.23314 16.4828 10.4148 17.1504 11.5582 17.88C9.8382 18 6.2982 18.3 4.7282 18.29Z" fill="#998696"/>
<path fill-rule="evenodd" clip-rule="evenodd" d="M21.5282 16.36C20.2304 15.9796 18.8797 15.8107 17.5282 15.86C16.9282 15.94 15.5282 16.13 15.3682 16.18C15.2884 16.2075 15.2217 16.2636 15.1811 16.3376C15.1404 16.4115 15.1287 16.4979 15.1482 16.58C15.2682 16.99 16.0582 16.85 16.1482 16.85C20.8582 17.33 18.4082 16.85 21.5382 17.06C21.9082 17.06 21.9082 16.36 21.5282 16.36Z" fill="#7A387B"/>
<path fill-rule="evenodd" clip-rule="evenodd" d="M21.5282 12.26C20.2301 11.8814 18.8793 11.7159 17.5282 11.77C16.9282 11.85 15.5282 12.03 15.3682 12.08C15.2877 12.1095 15.2208 12.1675 15.1802 12.2431C15.1396 12.3187 15.1283 12.4066 15.1482 12.49C15.2682 12.9 16.0582 12.75 16.1482 12.76C20.8582 13.24 18.4082 12.76 21.5382 12.96C21.9082 13 21.9082 12.26 21.5282 12.26Z" fill="#7A387B"/>
</g>
<defs>
<clipPath id="clip0_3013_15235">
<rect width="24" height="24" fill="white" transform="translate(0.968201)"/>
</clipPath>
</defs>
</svg>
