<svg width="25" height="24" viewBox="0 0 25 24" fill="none" xmlns="http://www.w3.org/2000/svg">
<g clip-path="url(#clip0_3013_15988)">
<path fill-rule="evenodd" clip-rule="evenodd" d="M12.8682 18.14C12.2182 18.28 11.7282 19.06 12.2682 19.59C12.4273 19.7464 12.6234 19.86 12.8382 19.92C14.5282 20.29 14.3282 17.85 12.8682 18.14Z" fill="#7A387B"/>
<path fill-rule="evenodd" clip-rule="evenodd" d="M16.4382 18.85C17.2882 18.28 18.0182 17.99 18.0182 17.25C17.9239 16.474 17.5717 15.7521 17.0182 15.2C16.3282 14.7 15.8582 15.09 14.8982 15.65C14.8982 14.84 14.9982 14.18 14.3482 13.77C13.6331 13.404 12.8277 13.2512 12.0282 13.33C11.0282 13.57 11.0282 14.47 11.0282 15.7L9.96821 15.05C8.87821 14.49 8.06822 15.62 7.73822 16.8C7.50822 17.66 7.83822 17.98 8.59822 18.46C9.35822 18.94 8.86822 18.55 9.00822 19.41C7.22822 20.6 7.46822 20.41 8.32822 22.09C8.54404 22.3879 8.80759 22.648 9.10822 22.86C9.33611 22.9619 9.58793 22.9981 9.83529 22.9645C10.0827 22.9309 10.3157 22.8289 10.5082 22.67C11.2682 22.2 11.1682 22.03 11.1682 22.38C11.1682 22.73 11.1082 23.38 11.4682 23.57C12.0282 23.92 14.0482 24.04 14.4682 23.36C14.6782 23 14.6982 23 14.6382 22.43C14.6316 22.3478 14.5926 22.2716 14.5297 22.2181C14.4669 22.1647 14.3854 22.1384 14.3032 22.145C14.221 22.1516 14.1448 22.1907 14.0913 22.2535C14.0379 22.3163 14.0116 22.3978 14.0182 22.48C14.0182 22.96 14.0182 22.8 13.9182 23.03C13.8182 23.26 12.2782 22.92 12.0282 22.89V21.38C12.0287 21.3065 12.009 21.2344 11.9712 21.1714C11.9333 21.1084 11.8789 21.057 11.8138 21.0229C11.7487 20.9888 11.6755 20.9733 11.6022 20.9781C11.5289 20.9829 11.4583 21.0078 11.3982 21.05C10.9082 21.36 10.1382 22.05 9.68822 22.1C9.23822 22.15 8.96822 20.9 8.80822 20.69C9.32822 20.46 8.80821 20.79 9.91821 20.08C10.0199 20.0196 10.0975 19.9258 10.1376 19.8145C10.1778 19.7032 10.178 19.5814 10.1382 19.47C9.91822 18.8 10.3882 18.47 9.94821 18.09C9.09821 17.41 9.33822 17.6 8.84822 17.23C8.93683 16.8498 9.10371 16.4922 9.33821 16.18C9.33821 16.18 9.40822 16.07 9.46822 16.1C11.4682 17.34 11.1682 17.28 11.8382 17.02C12.5082 16.76 12.2582 14.42 12.3082 14.45C12.7897 14.5068 13.2649 14.6072 13.7282 14.75C13.7882 16.96 13.9182 16.95 14.1582 17.06C14.2433 17.1092 14.3399 17.135 14.4382 17.135C14.5365 17.135 14.6331 17.1092 14.7182 17.06C16.4582 15.96 16.3582 16 16.4682 16.11C16.5782 16.22 16.7582 16.41 17.0482 17.28C15.7182 18.28 15.5882 18.28 15.5482 18.54C15.4182 19.54 15.2682 19.23 17.5482 20.54C17.4637 21.1058 17.1757 21.6214 16.7382 21.99C16.1349 21.7051 15.5563 21.3706 15.0082 20.99C14.9303 20.952 14.8413 20.9433 14.7576 20.9656C14.6738 20.9879 14.6009 21.0397 14.5522 21.1115C14.5036 21.1832 14.4825 21.2701 14.4928 21.3562C14.503 21.4423 14.544 21.5217 14.6082 21.58C15.2 22.0124 15.8253 22.3969 16.4782 22.73C17.3782 23.13 18.7182 20.96 18.2982 20.17C17.7408 19.6479 17.1151 19.2038 16.4382 18.85Z" fill="#7A387B"/>
<path fill-rule="evenodd" clip-rule="evenodd" d="M9.67822 3.77002C11.3 3.02232 13.1317 2.86319 14.8582 3.32002C15.7115 3.47603 16.5207 3.81518 17.2303 4.3141C17.9398 4.81302 18.5328 5.45986 18.9682 6.21002C19.425 6.90354 19.6265 7.73429 19.5382 8.56003C19.6082 8.87003 20.4582 9.00002 20.4582 8.47003V7.94002C20.3672 6.41084 19.686 4.97672 18.5582 3.94002C18.3718 3.76785 18.1747 3.60753 17.9682 3.46002C18.2782 3.09002 18.7482 2.40002 18.7882 2.34002C19.0991 1.76148 19.3376 1.14686 19.4982 0.510024C19.5038 0.421425 19.4744 0.334168 19.4165 0.266899C19.3586 0.199629 19.2767 0.157683 19.1882 0.150024C18.9882 0.150024 17.8682 1.66002 17.8182 1.74002C17.5807 2.14258 17.3766 2.564 17.2082 3.00002C15.9355 2.31203 14.5157 1.941 13.0691 1.91837C11.6225 1.89574 10.1918 2.22218 8.89822 2.87002C8.82822 2.72002 8.76822 2.55002 8.69822 2.38002C8.32822 1.55002 7.45822 0.310024 6.96822 0.340024C6.92406 0.335923 6.87953 0.340762 6.83729 0.354253C6.79505 0.367744 6.75596 0.389611 6.72236 0.418546C6.68876 0.447481 6.66133 0.482892 6.64172 0.522664C6.62211 0.562435 6.61071 0.605751 6.60822 0.650024C6.93131 1.4158 7.30203 2.16059 7.71822 2.88002C7.8281 3.0344 7.95196 3.17834 8.08822 3.31002C7.3219 3.80577 6.70078 4.4959 6.28822 5.31002C5.65417 6.40212 5.33245 7.64747 5.35822 8.91002C5.47822 9.33002 6.16822 9.45002 6.27822 9.03002C6.47822 6.17002 7.03822 4.79002 9.67822 3.77002Z" fill="#7A387B"/>
<path fill-rule="evenodd" clip-rule="evenodd" d="M24.9682 15.76C24.7382 12.43 24.0382 10.3 21.2582 9.49003C20.6642 9.32848 20.0402 9.31134 19.4382 9.44003C17.7362 9.78794 16.0053 9.97543 14.2682 10C12.6182 10 6.69821 9.38003 5.35821 9.58003C4.37475 9.6494 3.44383 10.05 2.71737 10.7166C1.99091 11.3831 1.51179 12.2762 1.35821 13.25C0.972889 15.1172 0.855043 17.0297 1.00821 18.93C1.02816 19.0105 1.0768 19.0809 1.14499 19.128C1.21319 19.1751 1.29623 19.1956 1.37853 19.1858C1.46082 19.176 1.53669 19.1364 1.59188 19.0746C1.64706 19.0128 1.67776 18.9329 1.67821 18.85C1.73961 17.0598 2.00124 15.2821 2.45821 13.55C2.55533 12.8241 2.88096 12.1479 3.38794 11.6194C3.89492 11.0908 4.55696 10.7373 5.27821 10.61C5.17928 13.3401 5.27619 16.0738 5.56821 18.79C5.58816 18.8705 5.6368 18.9409 5.70499 18.988C5.77319 19.0351 5.85623 19.0556 5.93853 19.0458C6.02082 19.036 6.09669 18.9964 6.15188 18.9346C6.20706 18.8728 6.23776 18.7929 6.23821 18.71C6.03315 15.9338 6.03315 13.1463 6.23821 10.37C9.10404 11.0788 12.0641 11.3286 15.0082 11.11C16.5704 11.0015 18.1162 10.7232 19.6182 10.28L19.9682 18.65C19.9602 18.6933 19.9618 18.7378 19.973 18.7804C19.9841 18.823 20.0044 18.8626 20.0326 18.8965C20.0608 18.9303 20.096 18.9575 20.1359 18.9762C20.1757 18.9949 20.2192 19.0046 20.2632 19.0046C20.3072 19.0046 20.3507 18.9949 20.3906 18.9762C20.4304 18.9575 20.4657 18.9303 20.4938 18.8965C20.522 18.8626 20.5423 18.823 20.5535 18.7804C20.5646 18.7378 20.5662 18.6933 20.5582 18.65V10.26C21.0696 10.3588 21.5542 10.5649 21.98 10.8649C22.4058 11.1648 22.7631 11.5517 23.0282 12C23.7556 14.0929 24.157 16.2852 24.2182 18.5C24.2066 18.5472 24.2053 18.5963 24.2143 18.644C24.2232 18.6918 24.2423 18.737 24.2703 18.7767C24.2982 18.8165 24.3343 18.8497 24.3762 18.8743C24.4181 18.8989 24.4648 18.9143 24.5131 18.9193C24.5614 18.9244 24.6102 18.919 24.6562 18.9036C24.7023 18.8882 24.7445 18.8631 24.7801 18.83C24.8156 18.7969 24.8437 18.7566 24.8623 18.7117C24.881 18.6669 24.8898 18.6186 24.8882 18.57C24.9966 17.6375 25.0233 16.6972 24.9682 15.76Z" fill="#998696"/>
<path fill-rule="evenodd" clip-rule="evenodd" d="M9.75822 6.14005C9.36142 6.42105 9.08058 6.83699 8.96822 7.31005C8.95313 7.3811 8.96432 7.45521 8.99974 7.51863C9.03515 7.58205 9.09237 7.63047 9.16077 7.6549C9.22917 7.67933 9.30412 7.67811 9.37169 7.65148C9.43927 7.62484 9.49488 7.57459 9.52822 7.51005C9.79591 7.25954 10.1437 7.11203 10.5099 7.09372C10.8761 7.07541 11.2369 7.18749 11.5282 7.41005C11.5783 7.47877 11.6524 7.52622 11.7358 7.54302C11.8191 7.55983 11.9058 7.54477 11.9786 7.50083C12.0514 7.45688 12.1051 7.38724 12.1291 7.30564C12.1531 7.22405 12.1457 7.13642 12.1082 7.06005C12.0204 6.84043 11.8886 6.64114 11.7207 6.47449C11.5529 6.30784 11.3527 6.17738 11.1324 6.09116C10.9122 6.00494 10.6766 5.96479 10.4403 5.9732C10.2039 5.98161 9.97177 6.0384 9.75822 6.14005Z" fill="#7A387B"/>
<path fill-rule="evenodd" clip-rule="evenodd" d="M14.4182 6C14.0157 6.28171 13.7309 6.70175 13.6182 7.18C13.6031 7.25105 13.6143 7.32517 13.6497 7.38859C13.6851 7.45201 13.7424 7.50042 13.8108 7.52486C13.8792 7.54929 13.9541 7.54807 14.0217 7.52143C14.0893 7.49479 14.1449 7.44454 14.1782 7.38C14.4456 7.12984 14.7926 6.98173 15.1582 6.96162C15.5239 6.94151 15.885 7.05067 16.1782 7.27C16.18 7.32659 16.1959 7.38183 16.2245 7.4307C16.2531 7.47958 16.2934 7.52054 16.3419 7.54988C16.3903 7.57921 16.4453 7.59599 16.5018 7.5987C16.5584 7.6014 16.6147 7.58993 16.6657 7.56534C16.7167 7.54076 16.7607 7.50382 16.7939 7.45789C16.827 7.41196 16.8481 7.35849 16.8553 7.30234C16.8625 7.24618 16.8555 7.18912 16.8351 7.13632C16.8147 7.08352 16.7814 7.03667 16.7382 7C16.6581 6.77714 16.533 6.57311 16.3708 6.40055C16.2085 6.22799 16.0126 6.09058 15.7951 5.99683C15.5776 5.90308 15.3432 5.85499 15.1063 5.85553C14.8695 5.85608 14.6353 5.90525 14.4182 6Z" fill="#7A387B"/>
</g>
<defs>
<clipPath id="clip0_3013_15988">
<rect width="24" height="24" fill="white" transform="translate(0.968201)"/>
</clipPath>
</defs>
</svg>
