<svg width="25" height="24" viewBox="0 0 25 24" fill="none" xmlns="http://www.w3.org/2000/svg">
<g clip-path="url(#clip0_3013_15997)">
<path fill-rule="evenodd" clip-rule="evenodd" d="M6.8582 4.61C6.63943 4.6061 6.42706 4.68384 6.26251 4.82806C6.09795 4.97227 5.99303 5.17261 5.9682 5.39C5.97214 5.52116 6.00409 5.64995 6.0619 5.76774C6.11972 5.88553 6.20206 5.98959 6.3034 6.07294C6.40474 6.15629 6.52274 6.21699 6.64948 6.25098C6.77621 6.28497 6.90875 6.29146 7.0382 6.27C7.15918 6.24462 7.27327 6.19345 7.37269 6.11999C7.47211 6.04653 7.55452 5.95249 7.61431 5.8443C7.6741 5.73611 7.70987 5.6163 7.71917 5.49303C7.72847 5.36976 7.71108 5.24594 7.6682 5.13C7.59626 4.97554 7.48195 4.84467 7.33856 4.75262C7.19517 4.66057 7.02859 4.61111 6.8582 4.61Z" fill="#7A387B"/>
<path fill-rule="evenodd" clip-rule="evenodd" d="M11.6882 4.61C11.4711 4.6086 11.2612 4.68746 11.0988 4.83144C10.9364 4.97542 10.8329 5.17435 10.8082 5.39C10.8121 5.52116 10.8441 5.64995 10.9019 5.76774C10.9597 5.88553 11.0421 5.9896 11.1434 6.07294C11.2447 6.15629 11.3627 6.21699 11.4895 6.25098C11.6162 6.28497 11.7487 6.29146 11.8782 6.27C11.9992 6.24462 12.1133 6.19345 12.2127 6.11999C12.3121 6.04653 12.3945 5.95249 12.4543 5.8443C12.5141 5.73611 12.5499 5.6163 12.5592 5.49303C12.5685 5.36977 12.5511 5.24594 12.5082 5.13C12.4355 4.974 12.3197 4.8421 12.1743 4.74994C12.029 4.65777 11.8603 4.60921 11.6882 4.61Z" fill="#7A387B"/>
<path fill-rule="evenodd" clip-rule="evenodd" d="M16.7782 18.22C16.7429 18.1843 16.7008 18.156 16.6545 18.1367C16.6081 18.1173 16.5584 18.1074 16.5082 18.1074C16.458 18.1074 16.4083 18.1173 16.3619 18.1367C16.3156 18.156 16.2735 18.1843 16.2382 18.22L15.1582 19.4C14.7082 19.05 14.2782 18.68 13.8282 18.29C13.5982 18.09 13.3582 17.9 13.1182 17.71L12.3782 17.15C11.7782 16.71 11.1782 16.29 10.6082 15.86C10.5733 15.8204 10.5305 15.7885 10.4825 15.7664C10.4346 15.7443 10.3826 15.7324 10.3298 15.7315C10.277 15.7306 10.2246 15.7407 10.176 15.7612C10.1273 15.7816 10.0834 15.812 10.0472 15.8504C10.0109 15.8887 9.98302 15.9342 9.96531 15.984C9.9476 16.0337 9.94044 16.0866 9.94431 16.1392C9.94817 16.1919 9.96295 16.2432 9.98773 16.2898C10.0125 16.3364 10.0467 16.3773 10.0882 16.41C10.5682 16.96 11.0882 17.53 11.5982 18.07C11.8298 18.2963 12.0735 18.5099 12.3282 18.71C12.579 18.9168 12.8429 19.1072 13.1182 19.28C13.5945 19.5507 14.089 19.7879 14.5982 19.99L14.2482 20.36C14.2025 20.4203 14.1398 20.4655 14.0682 20.49C13.8835 20.5069 13.6975 20.4759 13.5282 20.4C13.1466 20.2682 12.7756 20.1078 12.4182 19.92C11.8782 19.68 11.3482 19.38 10.8182 19.08C10.2882 18.78 9.8182 18.46 9.2882 18.08C8.63084 17.6036 8.02729 17.057 7.4882 16.45C7.43451 16.3793 7.35528 16.3323 7.26745 16.3193C7.17962 16.3062 7.09016 16.328 7.0182 16.38C6.94901 16.4351 6.90405 16.5151 6.89284 16.6028C6.88164 16.6906 6.90508 16.7792 6.9582 16.85C8.27318 18.2828 9.73825 19.5701 11.3282 20.69C11.9213 21.0543 12.5558 21.3464 13.2182 21.56C13.4091 21.5992 13.6033 21.6193 13.7982 21.62C14.1982 21.57 14.5782 21.49 14.5782 21.43C14.679 21.3867 14.7733 21.3295 14.8582 21.26C15.0376 21.0605 15.2046 20.8501 15.3582 20.63L16.8182 18.73C16.8785 18.6562 16.908 18.562 16.9005 18.467C16.8931 18.372 16.8493 18.2835 16.7782 18.22Z" fill="#998696"/>
<path fill-rule="evenodd" clip-rule="evenodd" d="M14.1382 22.08C13.5882 22.16 13.7182 22.49 13.6182 22.57H12.9382C12.4286 22.646 11.9132 22.6761 11.3982 22.66C11.1601 22.6607 10.9283 22.5835 10.7382 22.44C10.6633 22.3939 10.6068 22.3232 10.5782 22.24C10.5782 22.07 10.4982 21.88 10.4582 21.71C10.4327 21.2498 10.3314 20.7971 10.1582 20.37C10.054 20.2504 9.92464 20.1553 9.77946 20.0913C9.63428 20.0274 9.47679 19.9962 9.3182 20C8.83833 19.969 8.36079 19.9089 7.8882 19.82C7.41246 19.7404 6.94168 19.6336 6.4782 19.5C6.21163 19.4345 5.95078 19.3475 5.6982 19.24C5.4615 19.14 5.23397 19.0195 5.0182 18.88C4.69022 18.6696 4.37315 18.4426 4.0682 18.2C3.79695 17.9805 3.56089 17.7209 3.3682 17.43C3.24342 17.2389 3.1584 17.0246 3.1182 16.8C3.04739 16.3906 3.01724 15.9753 3.0282 15.56V12.65L2.9082 8C3.74047 8.32568 4.59209 8.59953 5.4582 8.82C5.90116 8.90493 6.34853 8.96502 6.7982 9C7.25238 9.06017 7.71005 9.09024 8.1682 9.09C9.23593 9.10525 10.3022 9.00466 11.3482 8.79C11.4016 8.78951 11.4544 8.77776 11.5029 8.75552C11.5515 8.73327 11.5949 8.70103 11.6301 8.6609C11.6654 8.62077 11.6918 8.57365 11.7077 8.52262C11.7235 8.47159 11.7284 8.41779 11.722 8.36474C11.7157 8.31169 11.6982 8.26058 11.6707 8.21474C11.6433 8.1689 11.6064 8.12937 11.5627 8.09873C11.5189 8.06808 11.4692 8.04701 11.4167 8.03689C11.3642 8.02677 11.3102 8.02783 11.2582 8.04C10.3949 8.08176 9.5298 8.0684 8.6682 8C7.8682 7.93 7.0782 7.8 6.2782 7.69C5.1182 7.53 3.9682 7.41 2.8382 7.2C2.8382 6.94 2.9082 6.68 2.9682 6.43C3.07592 6.01736 3.24443 5.62305 3.4682 5.26C3.97626 4.42982 4.70271 3.75525 5.5682 3.31C6.14542 3.01122 6.75647 2.78292 7.3882 2.63C8.18989 2.43328 9.01273 2.33588 9.8382 2.34C10.666 2.33148 11.4919 2.42212 12.2982 2.61C12.7978 2.74176 13.2809 2.92962 13.7382 3.17C14.429 3.56866 15.0967 4.00602 15.7382 4.48C15.8192 4.53941 15.9204 4.56435 16.0197 4.54936C16.119 4.53437 16.2084 4.48067 16.2682 4.4C16.2989 4.36041 16.3213 4.31498 16.334 4.26648C16.3466 4.21798 16.3493 4.16741 16.3418 4.11785C16.3343 4.06829 16.3169 4.02076 16.2905 3.97815C16.264 3.93555 16.2293 3.89875 16.1882 3.87C15.5525 3.32388 14.8846 2.8163 14.1882 2.35C14.3525 2.22991 14.5034 2.09245 14.6382 1.94C14.7433 1.80317 14.8338 1.65569 14.9082 1.5C15.4382 0.499999 15.3982 0.409999 15.2582 0.249999C15.1182 0.0899986 14.9682 -0.130001 13.9682 0.749999C13.8717 0.834486 13.7875 0.932106 13.7182 1.04C13.639 1.1384 13.5781 1.25015 13.5382 1.37C13.4721 1.56438 13.4285 1.76569 13.4082 1.97C13.1516 1.83279 12.8879 1.70928 12.6182 1.6C11.7324 1.30734 10.8103 1.13907 9.8782 1.1C8.93908 1.06154 7.99933 1.15922 7.0882 1.39C6.9082 1.44 6.7582 1.55 6.5782 1.6C6.56587 1.43391 6.5357 1.26963 6.4882 1.11C6.44146 0.994313 6.3774 0.886411 6.2982 0.789999C6.22844 0.682414 6.14433 0.584848 6.0482 0.499999C5.6582 0.179999 4.9082 -0.260001 4.6682 0.199999C4.5382 0.449999 4.6682 0.419999 5.1182 1.27C5.18491 1.40772 5.26531 1.53838 5.3582 1.66C5.45662 1.77573 5.57111 1.87676 5.6982 1.96C5.4582 2.07 5.1982 2.13 4.9682 2.26C3.97464 2.85794 3.17037 3.72461 2.6482 4.76C2.46321 5.12688 2.32866 5.51708 2.2482 5.92C1.8882 7.54 2.3482 5.64 1.8582 12.57C1.8082 13.07 1.7682 13.57 1.7582 14.07C1.7482 14.57 1.7582 15.07 1.7582 15.57C1.75387 16.0688 1.79066 16.5672 1.8682 17.06C1.9579 17.4346 2.11367 17.7901 2.3282 18.11C2.55475 18.4195 2.82027 18.6985 3.1182 18.94C3.35811 19.1183 3.60857 19.2819 3.8682 19.43C3.67721 19.9844 3.54646 20.5577 3.4782 21.14C3.43312 21.5488 3.43312 21.9612 3.4782 22.37C3.50404 22.5964 3.5475 22.8204 3.6082 23.04C3.67314 23.2189 3.77935 23.3799 3.9182 23.51C4.21865 23.7634 4.58099 23.9325 4.9682 24C5.41284 24.0601 5.86355 24.0601 6.3082 24C6.53548 23.9461 6.75663 23.869 6.9682 23.77C7.7982 23.51 8.1382 23.55 8.4682 22.42C8.52517 22.2861 8.56223 22.1446 8.5782 22C8.59365 21.8571 8.59365 21.7129 8.5782 21.57C8.49084 21.2687 8.38052 20.9745 8.2482 20.69C8.6082 20.69 8.9682 20.75 9.3182 20.75C9.36388 20.7538 9.40985 20.7477 9.45298 20.7322C9.49611 20.7166 9.53541 20.692 9.5682 20.66V21.85C9.55933 22.1276 9.57606 22.4055 9.6182 22.68C9.67734 22.931 9.8015 23.1621 9.9782 23.35C10.3442 23.7238 10.836 23.9483 11.3582 23.98C11.9716 23.9927 12.5838 23.922 13.1782 23.77C13.4399 23.7293 13.6976 23.6658 13.9482 23.58C14.1229 23.5222 14.2808 23.4227 14.4082 23.29C14.5664 23.0844 14.6635 22.8383 14.6882 22.58C14.6482 22.27 14.5382 22 14.1382 22.08ZM7.5482 20.7C7.45135 21.0291 7.37125 21.3628 7.3082 21.7C7.29322 21.8797 7.29322 22.0603 7.3082 22.24V22.77C7.13354 22.8353 6.95256 22.8822 6.7682 22.91C6.58518 22.9252 6.40122 22.9252 6.2182 22.91C5.91934 22.8884 5.62211 22.8483 5.3282 22.79C4.8582 22.68 4.6082 22.79 4.4782 20.86C4.45816 20.5036 4.45816 20.1464 4.4782 19.79C4.74361 19.9344 5.02138 20.0549 5.3082 20.15C5.60595 20.2498 5.90994 20.33 6.2182 20.39C6.6482 20.47 7.0982 20.53 7.5382 20.59C7.5682 20.65 7.5482 20.67 7.5482 20.7Z" fill="#7A387B"/>
<path fill-rule="evenodd" clip-rule="evenodd" d="M24.1082 8.75997C24.0129 8.59152 23.8951 8.43677 23.7582 8.29997L22.7582 7.23997C21.9682 6.56208 21.1365 5.93419 20.2682 5.35997C17.4182 3.50997 17.4382 3.07997 13.9682 6.71997C13.3982 7.32997 12.8482 7.96997 12.3282 8.62997C11.5582 9.62997 10.8582 10.63 10.0582 11.58C10.0188 11.6093 9.98628 11.6468 9.96279 11.69C9.9393 11.7331 9.92542 11.7808 9.92212 11.8298C9.91882 11.8788 9.92618 11.9279 9.94367 11.9738C9.96117 12.0196 9.9884 12.0612 10.0235 12.0955C10.0586 12.1299 10.1007 12.1562 10.1469 12.1728C10.1932 12.1893 10.2424 12.1956 10.2913 12.1913C10.3403 12.187 10.3876 12.1721 10.4303 12.1477C10.4729 12.1233 10.5097 12.09 10.5382 12.05C11.3282 11.36 12.0882 10.63 12.8282 9.86997C13.0982 9.58997 13.3682 9.30998 13.6282 9.01998C13.8882 8.72998 14.3882 8.15997 14.7682 7.71997C15.1482 7.27997 15.5782 6.71997 15.9982 6.28997C16.4861 6.91951 17.021 7.5112 17.5982 8.05998C18.0347 8.43859 18.4921 8.79247 18.9682 9.11997C19.6682 9.60997 20.3982 10.04 21.0882 10.53C21.1227 10.5654 21.1639 10.5935 21.2094 10.6127C21.2549 10.6319 21.3038 10.6418 21.3532 10.6418C21.4026 10.6418 21.4515 10.6319 21.497 10.6127C21.5425 10.5935 21.5837 10.5654 21.6182 10.53C21.6539 10.4946 21.6822 10.4526 21.7015 10.4062C21.7209 10.3599 21.7308 10.3102 21.7308 10.26C21.7308 10.2098 21.7209 10.16 21.7015 10.1137C21.6822 10.0674 21.6539 10.0253 21.6182 9.98997C20.9482 9.31997 20.2782 8.63997 19.5482 7.98997C19.1182 7.61997 18.6782 7.26997 18.2282 6.92997C17.7782 6.58997 17.1382 6.13997 16.6082 5.72997C16.922 5.37769 17.2559 5.04381 17.6082 4.72997C18.1482 5.07997 18.6882 5.44997 19.2082 5.84997C19.7282 6.24997 20.3082 6.77997 20.8482 7.24997C21.2082 7.56997 21.5682 7.87997 21.9182 8.24997L22.8582 9.18997L23.0082 9.27997C22.9655 9.5944 22.8601 9.89705 22.6982 10.17C22.1882 11.09 21.2982 11.96 20.8582 12.76C20.8246 12.8018 20.8002 12.8503 20.7867 12.9023C20.7732 12.9542 20.7709 13.0084 20.7798 13.0614C20.7888 13.1143 20.8089 13.1647 20.8388 13.2093C20.8686 13.2539 20.9076 13.2917 20.9531 13.3201C20.9986 13.3486 21.0497 13.3671 21.1028 13.3744C21.156 13.3817 21.2101 13.3776 21.2616 13.3625C21.3131 13.3474 21.3608 13.3215 21.4016 13.2866C21.4424 13.2517 21.4753 13.2085 21.4982 13.16C22.0282 12.41 23.0082 11.62 23.6182 10.74C23.9468 10.293 24.1567 9.77007 24.2282 9.21997C24.2399 9.05762 24.1977 8.89594 24.1082 8.75997Z" fill="#998696"/>
<path fill-rule="evenodd" clip-rule="evenodd" d="M8.82819 14.46L8.06819 14.79C7.55454 14.9348 7.016 14.9689 6.48819 14.89C5.63856 14.7154 4.8196 14.4155 4.05819 14C4.01368 13.9757 3.96477 13.9606 3.91432 13.9555C3.86388 13.9504 3.81293 13.9555 3.76447 13.9704C3.71601 13.9853 3.67103 14.0098 3.63217 14.0423C3.59331 14.0749 3.56135 14.1149 3.53819 14.16C3.51411 14.2038 3.49914 14.2519 3.49417 14.3016C3.48921 14.3513 3.49436 14.4015 3.50931 14.4492C3.52426 14.4968 3.5487 14.541 3.58116 14.5789C3.61362 14.6169 3.65343 14.6479 3.69819 14.67C4.4931 15.2045 5.36244 15.619 6.27819 15.9C6.94931 16.0668 7.64847 16.0873 8.32819 15.96C8.5708 15.9214 8.80874 15.8577 9.03819 15.77C9.20143 15.7076 9.35872 15.6306 9.50819 15.54C9.64798 15.4489 9.78161 15.3487 9.90819 15.24C10.0383 15.1118 10.1556 14.9711 10.2582 14.82C10.54 14.4734 10.6846 14.0353 10.6643 13.5891C10.644 13.1428 10.4603 12.7196 10.1482 12.4C9.35315 11.7447 8.38285 11.3378 7.35819 11.23C6.83819 11.15 6.35819 11.07 5.77819 11.02C5.41994 10.9735 5.05939 10.9468 4.69819 10.94C4.65455 10.9359 4.61052 10.9408 4.56884 10.9544C4.52716 10.968 4.48872 10.99 4.45591 11.0191C4.42309 11.0481 4.39659 11.0836 4.37806 11.1233C4.35954 11.1631 4.34937 11.2062 4.34819 11.25C4.34409 11.2942 4.34893 11.3387 4.36242 11.3809C4.37591 11.4232 4.39778 11.4623 4.42671 11.4959C4.45565 11.5295 4.49106 11.5569 4.53083 11.5765C4.5706 11.5961 4.61392 11.6075 4.65819 11.61C4.9946 11.6515 5.32845 11.7116 5.65819 11.79C6.16819 11.9 6.65819 12.04 7.16819 12.18C7.9202 12.3412 8.61263 12.7082 9.16819 13.24C9.27324 13.3645 9.33086 13.5221 9.33086 13.685C9.33086 13.8479 9.27324 14.0055 9.16819 14.13L8.82819 14.46Z" fill="#7A387B"/>
<path fill-rule="evenodd" clip-rule="evenodd" d="M20.2182 13.4C19.4094 13.2059 18.5617 13.2511 17.7782 13.53C17.6135 13.5973 17.456 13.6811 17.3082 13.78L17.0482 13.98C17.005 14.0011 16.9674 14.0319 16.9382 14.07C16.8907 14.1159 16.8549 14.1726 16.834 14.2353C16.8131 14.298 16.8077 14.3648 16.8182 14.43C16.6008 15.053 16.4663 15.7019 16.4182 16.36C16.3733 16.9256 16.4839 17.4928 16.7382 18C16.8997 18.2964 17.1571 18.5291 17.4682 18.66C17.8848 18.8259 18.3428 18.8574 18.7782 18.75C19.4033 18.5996 19.9724 18.2734 20.4182 17.81C20.8386 17.3777 21.1774 16.8729 21.4182 16.32C21.5371 16.0303 21.6242 15.7285 21.6782 15.42C21.7334 15.1663 21.7334 14.9037 21.6782 14.65C21.5698 14.3296 21.377 14.0443 21.12 13.8243C20.863 13.6044 20.5515 13.4578 20.2182 13.4ZM20.4582 15.35C20.3978 15.5238 20.3277 15.6941 20.2482 15.86C20.0684 16.2795 19.8181 16.665 19.5082 17C19.2378 17.2987 18.8926 17.5196 18.5082 17.64C18.3345 17.6981 18.1504 17.7186 17.9682 17.7C17.905 17.6948 17.8437 17.6761 17.7885 17.645C17.7333 17.6139 17.6854 17.5713 17.6482 17.52C17.4342 17.1954 17.3132 16.8185 17.2982 16.43C17.2756 15.8378 17.3362 15.2454 17.4782 14.67C17.5575 14.6077 17.6411 14.5509 17.7282 14.5C17.8311 14.4406 17.9424 14.3968 18.0582 14.37C18.5704 14.243 19.1059 14.243 19.6182 14.37C20.0382 14.47 20.4282 14.65 20.5082 15.05C20.5069 15.152 20.4901 15.2532 20.4582 15.35Z" fill="#7A387B"/>
</g>
<defs>
<clipPath id="clip0_3013_15997">
<rect width="24" height="24" fill="white" transform="translate(0.968201)"/>
</clipPath>
</defs>
</svg>
