<svg width="25" height="24" viewBox="0 0 25 24" fill="none" xmlns="http://www.w3.org/2000/svg">
<g clip-path="url(#clip0_3013_15934)">
<path fill-rule="evenodd" clip-rule="evenodd" d="M20.9682 4.44996C16.2382 4.44996 13.9682 3.90996 3.7682 4.44996C3.71725 4.45621 3.66865 4.47502 3.62676 4.50469C3.58487 4.53436 3.551 4.57397 3.5282 4.61996V4.82996C3.54416 4.89423 3.58163 4.9511 3.63439 4.99113C3.68714 5.03115 3.75201 5.05191 3.8182 5.04996C4.8182 5.04996 7.0582 5.19996 9.8182 5.27996C14.4882 5.41996 18.1382 5.14996 20.9982 5.07996C21.0507 5.09828 21.107 5.10342 21.162 5.09495C21.2169 5.08647 21.269 5.06463 21.3136 5.03134C21.3582 4.99804 21.3939 4.95432 21.4176 4.90401C21.4414 4.85369 21.4524 4.79832 21.4498 4.74274C21.4471 4.68717 21.4309 4.6331 21.4025 4.58526C21.374 4.53743 21.3343 4.4973 21.2868 4.4684C21.2392 4.4395 21.1853 4.4227 21.1298 4.41948C21.0742 4.41627 21.0188 4.42673 20.9682 4.44996Z" fill="#998696"/>
<path fill-rule="evenodd" clip-rule="evenodd" d="M2.7882 1.13998C2.80677 1.06174 2.79349 0.979329 2.7513 0.910878C2.7091 0.842427 2.64144 0.793542 2.5632 0.774977C2.48496 0.756412 2.40255 0.769687 2.3341 0.811883C2.26565 0.854079 2.21677 0.921738 2.1982 0.999977C1.5382 3.88998 1.4982 14.34 2.1382 17.11C2.17347 17.2412 2.23511 17.3638 2.31936 17.4704C2.40361 17.577 2.50869 17.6653 2.6282 17.73C4.0882 18.62 9.8782 18.56 12.0282 18.57C12.1184 18.57 12.2049 18.5342 12.2686 18.4704C12.3324 18.4066 12.3682 18.3202 12.3682 18.23C12.3682 18.1398 12.3324 18.0533 12.2686 17.9896C12.2049 17.9258 12.1184 17.89 12.0282 17.89C9.25814 17.8247 6.49845 17.527 3.7782 17C3.5182 16.92 3.3182 16.67 3.1982 16.72C2.8782 15.1 2.1382 5.44998 2.7882 1.13998Z" fill="#7A387B"/>
<path fill-rule="evenodd" clip-rule="evenodd" d="M3.8482 0.99997C6.5882 0.84997 17.2882 1.10997 20.3982 1.50997C21.5982 1.65997 21.4982 1.57997 21.6282 2.04997C22.1682 3.95997 22.4282 11.56 22.4782 13.54C22.4782 13.6195 22.5098 13.6958 22.5661 13.7521C22.6223 13.8084 22.6986 13.84 22.7782 13.84C22.8578 13.84 22.9341 13.8084 22.9903 13.7521C23.0466 13.6958 23.0782 13.6195 23.0782 13.54C23.0782 11.84 23.1782 7.21997 23.0782 5.53997C22.9882 4.30997 23.0782 1.59997 22.2682 0.89997C20.8182 -0.44003 5.8982 0.0899703 3.7982 0.26997C3.7014 0.276601 3.61119 0.321415 3.54743 0.394554C3.48367 0.467693 3.45157 0.563166 3.4582 0.65997C3.46483 0.756774 3.50965 0.84698 3.58279 0.910742C3.65593 0.974504 3.7514 1.0066 3.8482 0.99997Z" fill="#7A387B"/>
<path fill-rule="evenodd" clip-rule="evenodd" d="M4.9082 3.15995C5.0565 3.29151 5.25034 3.35992 5.44837 3.35058C5.6464 3.34124 5.83294 3.25489 5.9682 3.10995C6.05096 2.96493 6.07833 2.79482 6.04523 2.63117C6.01213 2.46751 5.92081 2.32141 5.7882 2.21995C5.1382 1.86995 4.3082 2.54995 4.9082 3.15995Z" fill="#7A387B"/>
<path fill-rule="evenodd" clip-rule="evenodd" d="M7.2582 2.91994C7.32917 2.99437 7.41451 3.05361 7.50905 3.09409C7.60359 3.13457 7.70536 3.15544 7.8082 3.15544C7.91104 3.15544 8.01281 3.13457 8.10735 3.09409C8.20189 3.05361 8.28723 2.99437 8.3582 2.91994C8.44855 2.77094 8.47918 2.59327 8.44394 2.42262C8.4087 2.25196 8.31019 2.10096 8.1682 1.99994C7.4882 1.62994 6.6482 2.30994 7.2582 2.91994Z" fill="#7A387B"/>
<path fill-rule="evenodd" clip-rule="evenodd" d="M9.8182 2.91994C9.88918 2.99437 9.97451 3.05361 10.0691 3.09409C10.1636 3.13457 10.2654 3.15544 10.3682 3.15544C10.471 3.15544 10.5728 3.13457 10.6674 3.09409C10.7619 3.05361 10.8472 2.99437 10.9182 2.91994C11.0086 2.77094 11.0392 2.59327 11.0039 2.42262C10.9687 2.25196 10.8702 2.10096 10.7282 1.99994C10.0482 1.62994 9.2082 2.30994 9.8182 2.91994Z" fill="#7A387B"/>
<path fill-rule="evenodd" clip-rule="evenodd" d="M22.0382 21.4999C22.2582 21.3699 22.4382 20.8699 20.5582 18.4999C19.9489 17.3562 19.2107 16.286 18.3582 15.3099C17.7282 14.5199 17.4382 13.8699 17.0382 14.3099C16.8182 14.5099 16.9182 14.4899 17.5882 15.8399C18.1601 16.9872 18.8869 18.0505 19.7482 18.9999C19.4882 18.5699 21.5082 21.8399 22.0382 21.4999Z" fill="#7A387B"/>
<path fill-rule="evenodd" clip-rule="evenodd" d="M24.1482 20.41C23.9443 19.8271 23.6795 19.2673 23.3582 18.74C23.1803 18.3345 22.9044 17.9796 22.5553 17.7073C22.2061 17.435 21.7948 17.2538 21.3582 17.18C21.31 17.1682 21.2598 17.1668 21.2111 17.1759C21.1623 17.185 21.116 17.2044 21.0753 17.2327C21.0345 17.261 21.0003 17.2977 20.9748 17.3403C20.9494 17.3829 20.9332 17.4304 20.9275 17.4797C20.9218 17.529 20.9266 17.5789 20.9417 17.6262C20.9567 17.6735 20.9817 17.717 21.0148 17.7539C21.048 17.7908 21.0886 17.8202 21.134 17.8403C21.1794 17.8603 21.2286 17.8704 21.2782 17.87C22.2782 18 22.9182 19.87 23.1282 20.7C23.3382 21.53 22.6282 22.84 21.6182 22.82C21.0082 22.82 18.6182 21.19 18.8482 19.63L19.1582 19.32C19.2086 19.255 19.2311 19.1727 19.2208 19.0911C19.2105 19.0095 19.1682 18.9354 19.1032 18.885C19.0382 18.8346 18.9559 18.8121 18.8743 18.8224C18.7927 18.8327 18.7186 18.875 18.6682 18.94C18.5182 19.13 18.2982 19.06 18.1882 19.49C17.6782 21.49 20.1882 23.95 21.6082 24C22.0309 23.978 22.4432 23.8605 22.8139 23.6563C23.1847 23.4521 23.5043 23.1665 23.7488 22.8209C23.9933 22.4754 24.1562 22.0789 24.2254 21.6613C24.2946 21.2437 24.2682 20.8159 24.1482 20.41Z" fill="#7A387B"/>
<path fill-rule="evenodd" clip-rule="evenodd" d="M16.5682 16.9C16.1398 16.5013 15.7992 16.0177 15.5682 15.48C15.243 14.6957 15.1027 13.8472 15.1582 13C15.2476 12.797 15.3769 12.6141 15.5385 12.4622C15.7002 12.3103 15.8908 12.1926 16.0989 12.1161C16.3071 12.0395 16.5286 12.0057 16.7501 12.0167C16.9716 12.0277 17.1886 12.0832 17.3882 12.18C18.0664 12.5093 18.6639 12.9839 19.1382 13.57C19.6182 14.13 19.6882 14.29 19.5582 15.23C19.4982 15.64 20.1182 15.82 20.4382 15.38C21.0582 14.52 19.3682 11.58 17.2882 10.98C16.8481 10.8402 16.3785 10.8221 15.929 10.9275C15.4795 11.0329 15.0668 11.258 14.7348 11.5787C14.4027 11.8995 14.1636 12.3042 14.0427 12.7498C13.9219 13.1954 13.9237 13.6654 14.0482 14.11C14.151 14.7789 14.3861 15.4205 14.7398 15.9974C15.0935 16.5744 15.5587 17.075 16.1082 17.47C16.4682 17.73 17.1682 18.08 17.5782 17.9C17.7182 17.76 18.1182 17.63 17.9482 17.3C17.6582 16.77 17.5382 17.75 16.5682 16.9Z" fill="#7A387B"/>
</g>
<defs>
<clipPath id="clip0_3013_15934">
<rect width="24" height="24" fill="white" transform="translate(0.968201)"/>
</clipPath>
</defs>
</svg>
