<svg width="25" height="24" viewBox="0 0 25 24" fill="none" xmlns="http://www.w3.org/2000/svg">
<g clip-path="url(#clip0_3013_15873)">
<path d="M5.22821 3.05998C5.10527 3.03465 4.97834 3.0359 4.85593 3.06367C4.73351 3.09144 4.61846 3.14507 4.51848 3.22097C4.41851 3.29687 4.33593 3.39328 4.27628 3.50373C4.21664 3.61417 4.18131 3.7361 4.17268 3.86132C4.16404 3.98655 4.1823 4.11217 4.22621 4.22976C4.27013 4.34735 4.33869 4.45418 4.4273 4.54309C4.51591 4.63199 4.62252 4.70091 4.73996 4.74522C4.8574 4.78953 4.98296 4.8082 5.10821 4.79998C6.12821 4.86998 6.58821 3.17998 5.22821 3.05998Z" fill="#7A387B"/>
<path d="M8.21819 3.00003C8.09554 2.97442 7.96884 2.97529 7.84656 3.00259C7.72427 3.02989 7.60923 3.08298 7.50912 3.15833C7.40901 3.23367 7.32614 3.32952 7.26606 3.43947C7.20598 3.54942 7.17008 3.67094 7.16074 3.79588C7.15141 3.92083 7.16886 4.04633 7.21193 4.16398C7.25501 4.28164 7.32271 4.38874 7.41051 4.47812C7.49832 4.56751 7.60419 4.63711 7.72106 4.68228C7.83793 4.72744 7.9631 4.74713 8.08819 4.74003C9.10819 4.82003 9.56819 3.12003 8.21819 3.00003Z" fill="#7A387B"/>
<path d="M11.2982 2.87997C11.1756 2.85436 11.0489 2.85523 10.9266 2.88253C10.8043 2.90983 10.6892 2.96293 10.5891 3.03827C10.489 3.11362 10.4062 3.20947 10.3461 3.31942C10.286 3.42937 10.2501 3.55088 10.2408 3.67582C10.2314 3.80077 10.2489 3.92627 10.292 4.04393C10.335 4.16158 10.4027 4.26868 10.4905 4.35807C10.5783 4.44745 10.6842 4.51705 10.8011 4.56222C10.9179 4.60739 11.0431 4.62708 11.1682 4.61997C12.1882 4.69997 12.6482 2.99997 11.2982 2.87997Z" fill="#7A387B"/>
<path d="M17.4182 21.24C17.2541 21.2099 17.0856 21.2147 16.9235 21.254C16.7613 21.2933 16.6093 21.3662 16.4772 21.468C16.3451 21.5699 16.2358 21.6983 16.1566 21.8451C16.0773 21.9919 16.0298 22.1537 16.0171 22.32C16.0044 22.4863 16.0269 22.6535 16.0829 22.8106C16.139 22.9677 16.2275 23.1112 16.3426 23.2319C16.4578 23.3526 16.597 23.4478 16.7513 23.5112C16.9056 23.5746 17.0715 23.6049 17.2382 23.6C18.6382 23.7 19.2482 21.39 17.4182 21.24Z" fill="#7A387B"/>
<path d="M9.4982 19.07C7.83027 19.1332 6.15998 19.0864 4.4982 18.93C3.75796 18.8742 3.03007 18.709 2.3382 18.44C2.1582 18.35 1.9982 18.3 1.9982 18.17C1.9982 16.39 2.1182 13.99 2.1282 11.55V1.63C2.13098 1.55737 2.1054 1.4865 2.05688 1.43238C2.00837 1.37827 1.9407 1.34514 1.8682 1.34C1.83141 1.33727 1.79445 1.34185 1.75943 1.35346C1.72441 1.36507 1.69204 1.38348 1.66416 1.40764C1.63628 1.4318 1.61345 1.46123 1.59698 1.49424C1.58052 1.52725 1.57074 1.56319 1.5682 1.6C1.4182 3 1.1582 7.32 1.0482 11.53C0.968201 14 0.968201 16.37 0.968201 18.15C0.968201 18.76 1.5782 19.3 2.6382 19.54C4.92419 19.8596 7.23924 19.9167 9.5382 19.71C9.58025 19.7074 9.62139 19.6966 9.65924 19.6781C9.6971 19.6597 9.73094 19.6339 9.75881 19.6023C9.78668 19.5707 9.80805 19.5339 9.82167 19.4941C9.83529 19.4542 9.84091 19.412 9.8382 19.37C9.83058 19.286 9.79111 19.2081 9.72788 19.1524C9.66466 19.0966 9.58247 19.0671 9.4982 19.07Z" fill="#7A387B"/>
<path d="M23.7282 4.14C23.7633 3.04835 23.4517 1.97363 22.8382 1.07C22.416 0.797043 21.9301 0.638526 21.4282 0.610002C19.8012 0.433495 18.1644 0.363345 16.5282 0.400002C11.6882 0.400002 5.25821 0.940002 2.41821 1.3C2.34337 1.31904 2.27794 1.36449 2.23399 1.42798C2.19004 1.49147 2.17052 1.56872 2.17905 1.64546C2.18758 1.72221 2.22357 1.79329 2.28039 1.84558C2.33721 1.89787 2.41102 1.92786 2.48821 1.93C4.94821 1.7 10.0782 1.53 14.4882 1.49C17.0482 1.49 19.3882 1.49 20.8682 1.6C21.2041 1.62638 21.538 1.67313 21.8682 1.74C21.9882 1.74 22.0682 1.74 22.1082 1.81C22.3075 2.02917 22.4424 2.29907 22.4982 2.59C22.7418 3.42846 22.8993 4.28958 22.9682 5.16C22.9682 5.5 23.0482 9.56 22.9682 10.92C22.9626 10.9927 22.9856 11.0647 23.0323 11.1208C23.079 11.1768 23.1457 11.2124 23.2182 11.22C23.293 11.2232 23.3663 11.1982 23.4236 11.1501C23.481 11.102 23.5183 11.0342 23.5282 10.96C23.7642 8.69479 23.831 6.41515 23.7282 4.14Z" fill="#7A387B"/>
<path d="M15.5782 6H10.6782C8.3382 6 5.8282 6.16 2.5082 6.34C2.44176 6.3525 2.38177 6.38782 2.33861 6.43986C2.29544 6.4919 2.27182 6.55739 2.27182 6.625C2.27182 6.69261 2.29544 6.7581 2.33861 6.81014C2.38177 6.86218 2.44176 6.8975 2.5082 6.91C5.4382 6.91 7.7382 7.01 9.8382 7.05H14.7282C16.5982 7.05 20.1682 6.92 21.7282 6.86C22.9382 6.86 22.3082 6.19 22.3082 6.19C20.8782 6.14 17.2382 6.05 15.5782 6Z" fill="#998696"/>
<path d="M14.7682 18.05C14.4236 18.1405 14.0887 18.2644 13.7682 18.42C13.6325 18.4926 13.5051 18.5798 13.3882 18.68C13.2664 18.7819 13.1588 18.8996 13.0682 19.03C12.8764 19.3379 12.7377 19.676 12.6582 20.03C12.6411 20.0628 12.6307 20.0987 12.6275 20.1355C12.6243 20.1724 12.6284 20.2095 12.6395 20.2448C12.6507 20.2801 12.6686 20.3129 12.6924 20.3412C12.7162 20.3695 12.7454 20.3929 12.7782 20.41C12.811 20.4271 12.8469 20.4375 12.8838 20.4407C12.9206 20.4439 12.9578 20.4398 12.9931 20.4287C13.0284 20.4175 13.0611 20.3996 13.0894 20.3758C13.1178 20.352 13.1411 20.3228 13.1582 20.29C13.3616 20.0777 13.5861 19.8867 13.8282 19.72L14.0982 19.49C14.3911 19.1791 14.7017 18.8853 15.0282 18.61C15.102 18.5697 15.157 18.5021 15.1813 18.4216C15.2057 18.3412 15.1974 18.2544 15.1582 18.18C15.1188 18.116 15.0582 18.0678 14.9869 18.0441C14.9155 18.0203 14.8381 18.0224 14.7682 18.05Z" fill="#7A387B"/>
<path d="M21.2382 19C21.1448 18.8719 21.0374 18.7545 20.9182 18.65C20.8004 18.551 20.6731 18.4639 20.5382 18.39C20.2162 18.2379 19.8816 18.1141 19.5382 18.02C19.4638 17.9808 19.377 17.9725 19.2966 17.9968C19.2161 18.0212 19.1484 18.0762 19.1082 18.15C19.0871 18.1859 19.0734 18.2257 19.068 18.267C19.0626 18.3084 19.0656 18.3503 19.0768 18.3905C19.088 18.4306 19.1072 18.4681 19.1332 18.5007C19.1592 18.5332 19.1915 18.5602 19.2282 18.58C19.5579 18.8553 19.8718 19.1491 20.1682 19.46C20.2539 19.5415 20.3441 19.6183 20.4382 19.69C20.6771 19.857 20.8982 20.048 21.0982 20.26C21.1342 20.3248 21.1937 20.3733 21.2643 20.3956C21.335 20.4179 21.4115 20.4123 21.4782 20.38C21.5447 20.3457 21.5954 20.287 21.6196 20.2161C21.6439 20.1453 21.6398 20.0679 21.6082 20C21.5411 19.6485 21.4161 19.3105 21.2382 19Z" fill="#7A387B"/>
<path d="M13.6282 16.35C13.9794 16.0646 14.3891 15.8597 14.8282 15.75C14.9114 15.7424 14.9882 15.7026 15.0424 15.639C15.0966 15.5755 15.1238 15.4933 15.1182 15.41C15.1158 15.3674 15.1047 15.3258 15.0854 15.2877C15.0662 15.2496 15.0393 15.2159 15.0065 15.1887C14.9736 15.1614 14.9355 15.1413 14.8945 15.1295C14.8535 15.1177 14.8105 15.1145 14.7682 15.12C14.0991 15.1226 13.4442 15.3132 12.8782 15.67C12.6421 15.8188 12.418 15.986 12.2082 16.17C12.0073 16.3538 11.8263 16.5583 11.6682 16.78C11.3037 17.2852 11.0015 17.8325 10.7682 18.41C10.7481 18.4414 10.7345 18.4765 10.7281 18.5133C10.7218 18.55 10.7228 18.5876 10.7312 18.624C10.7396 18.6603 10.7551 18.6946 10.7769 18.7248C10.7988 18.755 10.8264 18.7806 10.8582 18.8C10.9235 18.8371 11.0007 18.8474 11.0734 18.8287C11.1461 18.8101 11.2088 18.7639 11.2482 18.7C11.6828 18.1677 12.1611 17.6726 12.6782 17.22C12.9799 16.9141 13.297 16.6237 13.6282 16.35Z" fill="#7A387B"/>
<path d="M22.6782 16.78C22.5137 16.5604 22.3297 16.3562 22.1282 16.17C21.9247 15.9782 21.6999 15.8105 21.4582 15.67C20.8942 15.3086 20.238 15.1176 19.5682 15.12C19.5232 15.1091 19.4764 15.1081 19.431 15.1171C19.3855 15.126 19.3426 15.1447 19.3051 15.1719C19.2676 15.199 19.2365 15.234 19.2138 15.2744C19.1911 15.3148 19.1775 15.3596 19.1739 15.4057C19.1702 15.4519 19.1766 15.4982 19.1926 15.5417C19.2086 15.5851 19.2339 15.6246 19.2666 15.6573C19.2993 15.69 19.3388 15.7153 19.3822 15.7313C19.4256 15.7473 19.472 15.7537 19.5182 15.75C19.9548 15.8583 20.3615 16.0633 20.7082 16.35C21.061 16.6168 21.3951 16.9075 21.7082 17.22C22.2203 17.6779 22.6982 18.1725 23.1382 18.7C23.1572 18.7315 23.1823 18.759 23.2119 18.7808C23.2416 18.8027 23.2753 18.8184 23.311 18.8273C23.3468 18.8361 23.3839 18.8378 23.4203 18.8322C23.4567 18.8267 23.4917 18.8141 23.5232 18.795C23.5547 18.776 23.5822 18.7509 23.604 18.7213C23.6258 18.6916 23.6416 18.6579 23.6504 18.6222C23.6592 18.5864 23.6609 18.5493 23.6554 18.5129C23.6499 18.4765 23.6372 18.4415 23.6182 18.41C23.3723 17.8305 23.0566 17.2831 22.6782 16.78Z" fill="#7A387B"/>
<path d="M17.4882 11.05C17.4467 11.0487 17.4053 11.0557 17.3665 11.0707C17.3277 11.0857 17.2924 11.1083 17.2625 11.1372C17.2327 11.1661 17.2089 11.2008 17.1927 11.239C17.1765 11.2773 17.1682 11.3185 17.1682 11.36C17.0782 12.36 16.9782 13.36 16.9282 14.36C16.9282 14.78 16.8782 15.2 16.8782 15.63V16.9C16.8782 17.9 17.0282 18.9 17.1182 19.9C17.1182 19.9743 17.1477 20.0455 17.2002 20.098C17.2527 20.1505 17.3239 20.18 17.3982 20.18C17.4725 20.18 17.5437 20.1505 17.5962 20.098C17.6487 20.0455 17.6782 19.9743 17.6782 19.9C17.7482 18.9 17.8482 17.9 17.8982 16.95V15.69V14.42C17.8982 13.42 17.8082 12.42 17.7682 11.47C17.7835 11.4238 17.7882 11.3747 17.7817 11.3265C17.7752 11.2783 17.7578 11.2321 17.7308 11.1916C17.7038 11.1511 17.6679 11.1173 17.6259 11.0928C17.5838 11.0683 17.5367 11.0536 17.4882 11.05Z" fill="#7A387B"/>
<path d="M12.0782 14.35C12.4499 13.9841 12.8513 13.6496 13.2782 13.35C13.7338 13.0196 14.2405 12.7662 14.7782 12.6C14.8196 12.5915 14.8588 12.5749 14.8938 12.5512C14.9287 12.5274 14.9587 12.4971 14.9819 12.4618C15.0051 12.4265 15.0211 12.387 15.0291 12.3455C15.037 12.304 15.0367 12.2614 15.0282 12.22C15.0197 12.1786 15.0031 12.1394 14.9793 12.1044C14.9556 12.0695 14.9253 12.0395 14.89 12.0163C14.8547 11.9931 14.8152 11.9771 14.7737 11.9691C14.7322 11.9612 14.6896 11.9615 14.6482 11.97C13.8919 12.0569 13.1607 12.295 12.4982 12.67C12.2174 12.8394 11.95 13.0299 11.6982 13.24C11.4582 13.4537 11.2374 13.6879 11.0382 13.94C10.5981 14.5186 10.2036 15.1304 9.85819 15.77C9.81469 15.8298 9.79658 15.9043 9.80782 15.9774C9.81906 16.0504 9.85874 16.1161 9.91819 16.16C9.98034 16.2017 10.0558 16.2187 10.1298 16.2076C10.2038 16.1965 10.271 16.1581 10.3182 16.1C10.9082 15.43 11.5082 14.88 12.0782 14.35Z" fill="#7A387B"/>
<path d="M24.9082 15.76C24.5674 15.1168 24.1761 14.5015 23.7382 13.92C23.5363 13.6733 23.3157 13.4426 23.0782 13.23C22.8289 13.0167 22.5612 12.826 22.2782 12.66C21.6157 12.285 20.8845 12.0469 20.1282 11.96C20.0851 11.9443 20.0391 11.9381 19.9934 11.9417C19.9477 11.9453 19.9032 11.9587 19.8631 11.981C19.8231 12.0033 19.7882 12.0339 19.761 12.0708C19.7338 12.1078 19.7148 12.1501 19.7054 12.195C19.696 12.2399 19.6964 12.2863 19.7064 12.331C19.7165 12.3758 19.7361 12.4179 19.7639 12.4544C19.7917 12.4909 19.8269 12.521 19.8674 12.5427C19.9078 12.5644 19.9524 12.5771 19.9982 12.58C20.5316 12.7567 21.0368 13.0093 21.4982 13.33C21.9226 13.633 22.3237 13.9672 22.6982 14.33C23.2682 14.86 23.8682 15.41 24.4682 16.07C24.489 16.0991 24.5154 16.1238 24.5459 16.1426C24.5764 16.1614 24.6103 16.174 24.6456 16.1796C24.681 16.1851 24.7171 16.1836 24.7519 16.1751C24.7867 16.1666 24.8194 16.1513 24.8482 16.13C24.9041 16.0881 24.9417 16.0261 24.9529 15.9571C24.964 15.8881 24.948 15.8175 24.9082 15.76Z" fill="#7A387B"/>
</g>
<defs>
<clipPath id="clip0_3013_15873">
<rect width="24" height="24" fill="white" transform="translate(0.968201)"/>
</clipPath>
</defs>
</svg>
