<svg width="25" height="24" viewBox="0 0 25 24" fill="none" xmlns="http://www.w3.org/2000/svg">
<g clip-path="url(#clip0_3013_15969)">
<path fill-rule="evenodd" clip-rule="evenodd" d="M4.24821 1.1C4.25804 1.05996 4.2595 1.01832 4.25251 0.977681C4.24553 0.937045 4.23024 0.898285 4.2076 0.863821C4.18497 0.829357 4.15547 0.79993 4.12095 0.777375C4.08643 0.754821 4.04764 0.739624 4.00698 0.732734C3.96633 0.725844 3.92469 0.727408 3.88467 0.737328C3.84465 0.747249 3.8071 0.765313 3.77438 0.790393C3.74165 0.815473 3.71444 0.84703 3.69445 0.883095C3.67447 0.91916 3.66213 0.958957 3.65821 1C2.65821 5.63 3.23821 11.47 3.52821 14.75C3.53484 14.8402 3.57702 14.924 3.64547 14.9831C3.71392 15.0422 3.80304 15.0716 3.89321 15.065C3.98338 15.0584 4.06723 15.0162 4.1263 14.9477C4.18538 14.8793 4.21484 14.7902 4.20821 14.7C4.09821 12.43 3.96821 10.07 3.96821 6.28C3.97212 4.54966 4.06558 2.82068 4.24821 1.1Z" fill="#7A387B"/>
<path fill-rule="evenodd" clip-rule="evenodd" d="M21.5482 4.47002C16.1982 4.43002 4.96821 4.55002 4.96821 4.55002C4.48821 4.66002 4.47821 5.05002 4.96821 5.11002C4.96821 5.11002 8.96821 5.38002 12.9682 5.39002C16.5982 5.39002 18.9682 5.22002 21.5582 5.16002C21.6395 5.14497 21.7128 5.10165 21.7652 5.03774C21.8176 4.97382 21.8456 4.89343 21.8444 4.8108C21.8432 4.72816 21.8128 4.64862 21.7586 4.58625C21.7044 4.52388 21.6299 4.4827 21.5482 4.47002Z" fill="#998696"/>
<path fill-rule="evenodd" clip-rule="evenodd" d="M23.6882 0.77002C22.3382 -0.40998 7.05821 0.0600199 5.25821 0.22002C5.17339 0.232419 5.09639 0.276398 5.04262 0.343152C4.98884 0.409906 4.96227 0.494508 4.96821 0.58002C4.96821 1.25002 5.32821 0.58002 16.1582 0.98002C16.6782 0.98002 22.5782 1.27002 22.9682 1.62002C23.6382 2.21002 23.7882 16.07 23.3982 17.48C23.3182 17.42 23.1982 17.61 23.0282 17.67C21.1882 18.29 15.7382 18.26 13.7882 18.25C13.7086 18.25 13.6323 18.2816 13.5761 18.3379C13.5198 18.3941 13.4882 18.4705 13.4882 18.55C13.4882 18.6296 13.5198 18.7059 13.5761 18.7622C13.6323 18.8184 13.7086 18.85 13.7882 18.85C15.8682 18.93 22.1982 19.18 23.7882 18.35C24.0175 18.2401 24.1962 18.047 24.2882 17.81C24.8182 16.19 25.0682 2.00002 23.6882 0.77002Z" fill="#7A387B"/>
<path fill-rule="evenodd" clip-rule="evenodd" d="M7.4682 3.11C7.54918 2.96033 7.57453 2.78681 7.53975 2.62023C7.50497 2.45364 7.4123 2.30476 7.2782 2.2C6.5982 1.84 5.7582 2.53 6.3682 3.15C6.44113 3.22324 6.5284 3.28062 6.62455 3.31854C6.7207 3.35645 6.82365 3.37409 6.92694 3.37033C7.03023 3.36657 7.13163 3.34151 7.22477 3.29671C7.31791 3.25191 7.40079 3.18835 7.4682 3.11Z" fill="#7A387B"/>
<path fill-rule="evenodd" clip-rule="evenodd" d="M9.80821 2.86001C9.87564 2.71655 9.89455 2.55505 9.86208 2.39989C9.82961 2.24474 9.74751 2.10438 9.62821 2.00001C8.94821 1.65001 8.10821 2.34001 8.71821 3.00001C8.79683 3.06746 8.88873 3.11766 8.98797 3.14735C9.08722 3.17703 9.19159 3.18556 9.29434 3.17236C9.39708 3.15916 9.49591 3.12454 9.58443 3.07074C9.67295 3.01693 9.74919 2.94514 9.80821 2.86001Z" fill="#7A387B"/>
<path fill-rule="evenodd" clip-rule="evenodd" d="M12.3682 2.86001C12.4362 2.71585 12.4544 2.5532 12.42 2.39757C12.3857 2.24193 12.3006 2.10211 12.1782 2.00001C11.4982 1.65001 10.6582 2.34001 11.2682 3.00001C11.3477 3.06767 11.4404 3.11801 11.5404 3.14779C11.6405 3.17757 11.7456 3.18615 11.8491 3.17297C11.9527 3.1598 12.0523 3.12515 12.1417 3.07126C12.2311 3.01737 12.3082 2.94542 12.3682 2.86001Z" fill="#7A387B"/>
<path fill-rule="evenodd" clip-rule="evenodd" d="M11.5982 19.68C11.5048 19.5144 11.3561 19.387 11.1782 19.32C10.4982 19.09 3.17821 19.41 2.38821 19.46C2.29889 19.4651 2.21492 19.5042 2.15355 19.5693C2.09218 19.6344 2.05806 19.7205 2.05821 19.81C2.05821 19.91 2.05821 19.72 1.90821 19.63C1.06821 19.23 1.15821 22.83 1.40821 23.39C1.83821 24.34 9.4882 23.94 10.5882 23.81C11.1082 23.75 11.4482 23.67 11.6582 23.3C11.8494 22.8188 11.9543 22.3076 11.9682 21.79C11.9529 21.0719 11.8281 20.3604 11.5982 19.68ZM10.7582 22.33C10.7582 22.46 10.6082 22.61 10.6082 22.69C9.82821 22.69 4.85821 23.12 2.69821 23C2.06821 23 1.96821 23.32 1.96821 21.56C1.90547 20.9956 1.95647 20.4244 2.11821 19.88C2.13473 19.9567 2.17803 20.025 2.24034 20.0726C2.30264 20.1202 2.37988 20.1441 2.45821 20.14C3.53821 20.14 10.1282 20.14 10.7882 20.32C10.8726 20.9881 10.8625 21.6647 10.7582 22.33Z" fill="#998696"/>
<path fill-rule="evenodd" clip-rule="evenodd" d="M9.7282 15.66C9.30743 16.1763 8.93266 16.7284 8.6082 17.31C8.60816 17.4011 8.64366 17.4887 8.70715 17.554C8.77064 17.6194 8.85712 17.6574 8.9482 17.66C9.2082 17.66 9.2682 17.57 10.4682 16.23C11.5574 15.1389 12.5449 13.9506 13.4182 12.68C14.2182 11.59 14.3582 11.41 14.4182 11.39C14.6182 11.93 14.5882 12.16 15.1582 13.86C15.3082 14.47 15.6482 15.07 16.2282 14.86C16.8082 14.65 17.0082 13.56 17.1682 13.14C17.5482 12.14 18.3682 8.36003 18.1182 7.38003C18.0842 7.20614 17.9836 7.0524 17.8379 6.95154C17.6922 6.85068 17.5129 6.81067 17.3382 6.84003C15.3366 7.31041 13.3793 7.9528 11.4882 8.76003C9.1882 9.84003 9.4882 10.96 10.6982 11.14C11.0082 11.19 13.6982 11.14 13.7682 11.08C12.2591 12.4554 10.9045 13.9911 9.7282 15.66ZM13.7282 10.44C12.8882 10.37 11.5182 10.44 10.6582 10.3C10.8073 10.1574 10.9756 10.0362 11.1582 9.94003C13.0382 9.14752 14.9818 8.51527 16.9682 8.05003C16.8545 9.93492 16.5394 11.8022 16.0282 13.62C15.8982 14.05 15.9782 13.91 15.8882 13.62L15.5082 12.62C15.5082 12.62 15.1782 11.5 15.0082 11.1C14.8514 10.9083 14.6568 10.7508 14.4367 10.6372C14.2165 10.5237 13.9754 10.4566 13.7282 10.44Z" fill="#7A387B"/>
</g>
<defs>
<clipPath id="clip0_3013_15969">
<rect width="24" height="24" fill="white" transform="translate(0.968201)"/>
</clipPath>
</defs>
</svg>
