<svg width="25" height="24" viewBox="0 0 25 24" fill="none" xmlns="http://www.w3.org/2000/svg">
<g clip-path="url(#clip0_3013_15903)">
<path fill-rule="evenodd" clip-rule="evenodd" d="M24.6083 10.06C24.4983 9.06 24.5183 7.11 23.8283 6.59C23.2026 6.11965 22.4501 5.84793 21.6683 5.81C21.1183 5.91 21.3883 6.31 21.6683 6.53C22.2887 6.57273 22.8815 6.80289 23.3683 7.19C23.6583 7.43 23.7083 9.13 23.7283 9.56C23.0733 9.38334 22.3832 9.38334 21.7283 9.56C21.6432 9.58448 21.5669 9.63301 21.5087 9.69975C21.4506 9.76649 21.4129 9.8486 21.4002 9.93624C21.3875 10.0239 21.4004 10.1133 21.4373 10.1938C21.4742 10.2743 21.5336 10.3424 21.6083 10.39C22.3318 10.5537 23.0848 10.533 23.7983 10.33C23.9183 11.72 24.0083 13.15 23.9883 14.57C23.9394 16.349 23.7488 18.1213 23.4183 19.87C23.3583 19.87 23.2383 19.98 23.1083 20.02C20.3183 21 6.82826 22 5.96826 20.48C5.73826 19.55 5.73826 19.2 5.38826 19.25C5.31136 19.2646 5.24284 19.3078 5.19647 19.3709C5.1501 19.434 5.1293 19.5122 5.13826 19.59C5.17823 20.0038 5.27237 20.4107 5.41826 20.8C6.62826 23.05 23.2683 22.32 24.3483 20.57C24.6933 19.6453 24.8728 18.667 24.8783 17.68C25.0784 15.138 24.9878 12.5815 24.6083 10.06Z" fill="#998696"/>
<path fill-rule="evenodd" clip-rule="evenodd" d="M10.0683 6.82001C13.4883 6.82001 15.7083 6.65001 18.2083 6.58001C18.2571 6.58848 18.3072 6.58617 18.355 6.57324C18.4029 6.56031 18.4473 6.53708 18.4853 6.50516C18.5232 6.47325 18.5537 6.43342 18.5746 6.38849C18.5955 6.34355 18.6063 6.29458 18.6063 6.24501C18.6063 6.19545 18.5955 6.14648 18.5746 6.10154C18.5537 6.0566 18.5232 6.01678 18.4853 5.98487C18.4473 5.95295 18.4029 5.92972 18.355 5.91679C18.3072 5.90386 18.2571 5.90154 18.2083 5.91001C13.1327 5.60322 8.04301 5.6099 2.96826 5.93001C2.31826 5.93001 2.15826 6.61001 2.84826 6.55001C4.46826 6.58001 6.43826 6.81001 10.0683 6.82001Z" fill="#998696"/>
<path fill-rule="evenodd" clip-rule="evenodd" d="M20.2283 2.85003C18.7783 1.36003 15.0383 1.92003 12.7583 1.85003C9.80826 1.71003 6.72826 2.00003 3.80826 2.00003C3.71808 2.00003 3.6316 2.03585 3.56784 2.09961C3.50408 2.16337 3.46826 2.24985 3.46826 2.34003C3.46826 2.4302 3.50408 2.51668 3.56784 2.58044C3.6316 2.6442 3.71808 2.68003 3.80826 2.68003C6.72826 2.68003 9.74826 2.45003 12.7083 2.62003C14.7583 2.74003 18.3083 2.52003 19.6183 3.57003C19.9183 3.81003 19.9383 5.82003 19.9983 6.46003C20.2832 8.91074 20.3033 11.385 20.0583 13.84C20.014 14.6463 19.8935 15.4465 19.6983 16.23C17.6983 17.29 3.23826 18.23 2.37826 16.72C2.07393 15.5016 1.89632 14.255 1.84826 13C1.75504 9.69345 1.90545 6.38451 2.29826 3.10003C2.33264 3.07424 2.36109 3.04136 2.38166 3.00362C2.40223 2.96588 2.41446 2.92417 2.4175 2.88129C2.42055 2.83842 2.41435 2.79539 2.39932 2.75512C2.38429 2.71486 2.36078 2.67829 2.33039 2.64789C2.3 2.6175 2.26343 2.59399 2.22316 2.57896C2.18289 2.56394 2.13987 2.55773 2.09699 2.56078C2.05412 2.56383 2.0124 2.57605 1.97466 2.59663C1.93692 2.6172 1.90405 2.64564 1.87826 2.68003C1.50826 3.00003 1.57826 4.16003 1.51826 4.56003C1.06826 9.00003 0.808259 10.12 1.07826 13.84C1.11282 14.9797 1.28405 16.1111 1.58826 17.21C2.83826 19.49 16.0183 18.52 19.3183 17.62C20.6083 17.28 20.8183 16.89 20.9683 15.93C21.1183 14.97 21.3983 4.00003 20.2283 2.85003Z" fill="#7A387B"/>
<path fill-rule="evenodd" clip-rule="evenodd" d="M4.85826 4.62001C4.93357 4.47656 4.95679 4.31144 4.92397 4.15279C4.89114 3.99414 4.80431 3.85179 4.67826 3.75001C4.03826 3.41001 3.23826 4.07001 3.81826 4.66001C3.88742 4.729 3.97007 4.78298 4.06105 4.81856C4.15203 4.85415 4.24937 4.87058 4.34698 4.86683C4.4446 4.86307 4.54039 4.83921 4.62837 4.79674C4.71634 4.75427 4.7946 4.69411 4.85826 4.62001Z" fill="#7A387B"/>
<path fill-rule="evenodd" clip-rule="evenodd" d="M7.07826 4.38003C7.1569 4.23904 7.18199 4.07441 7.14891 3.9164C7.11584 3.75839 7.02684 3.61764 6.89826 3.52003C6.25826 3.18003 5.45826 3.84003 6.03826 4.43003C6.10809 4.49842 6.19128 4.55166 6.28264 4.58641C6.374 4.62116 6.47154 4.63668 6.56917 4.63199C6.6668 4.62729 6.76241 4.60249 6.85001 4.55913C6.93761 4.51578 7.01532 4.4548 7.07826 4.38003Z" fill="#7A387B"/>
<path fill-rule="evenodd" clip-rule="evenodd" d="M9.49826 4.38003C9.57796 4.24017 9.60465 4.07629 9.57343 3.91836C9.54222 3.76044 9.45518 3.61904 9.32826 3.52003C8.67826 3.18003 7.88826 3.84003 8.45826 4.43003C8.52809 4.49842 8.61128 4.55166 8.70264 4.58641C8.794 4.62116 8.89154 4.63668 8.98917 4.63199C9.0868 4.62729 9.18241 4.60249 9.27001 4.55913C9.35761 4.51578 9.43532 4.4548 9.49826 4.38003Z" fill="#7A387B"/>
</g>
<defs>
<clipPath id="clip0_3013_15903">
<rect width="24" height="24" fill="white" transform="translate(0.968262)"/>
</clipPath>
</defs>
</svg>
