<svg width="25" height="24" viewBox="0 0 25 24" fill="none" xmlns="http://www.w3.org/2000/svg">
<g clip-path="url(#clip0_3013_15922)">
<path fill-rule="evenodd" clip-rule="evenodd" d="M2.3182 1.13998C2.3279 1.06653 2.31007 0.992086 2.26815 0.930993C2.22624 0.869901 2.16319 0.826481 2.09117 0.809096C2.01915 0.791712 1.94324 0.801593 1.87807 0.836837C1.8129 0.87208 1.76308 0.930193 1.7382 0.999981C0.968201 4.21998 1.0582 14.57 1.7182 17.3C2.1482 19 7.1582 19.05 8.9682 19.06C9.04712 19.0463 9.11868 19.0052 9.17025 18.9439C9.22183 18.8826 9.25011 18.8051 9.25011 18.725C9.25011 18.6449 9.22183 18.5674 9.17025 18.5061C9.11868 18.4448 9.04712 18.4037 8.9682 18.39C7.5182 18.32 4.2682 18.1 2.9682 17.39C2.5882 17.18 2.5282 17.58 2.2982 11.56C2.2082 9.20998 2.1282 7.48998 2.1082 5.37998C2.1582 5.18998 2.1882 1.85998 2.3182 1.13998Z" fill="#7A387B"/>
<path fill-rule="evenodd" clip-rule="evenodd" d="M20.2582 4.46998C15.4882 4.46998 13.0082 3.92998 3.0382 4.46998C2.97625 4.47774 2.91845 4.50529 2.87341 4.54853C2.82837 4.59177 2.79848 4.64839 2.7882 4.70998V4.81998C2.80028 4.88704 2.83639 4.94739 2.88978 4.98973C2.94316 5.03207 3.01015 5.05349 3.0782 5.04998C6.3282 4.98998 7.1482 5.60998 20.2682 5.04998C20.3189 5.07639 20.3756 5.08916 20.4328 5.08704C20.4899 5.08492 20.5456 5.06799 20.5942 5.0379C20.6428 5.00781 20.6828 4.9656 20.7102 4.91541C20.7376 4.86521 20.7515 4.80876 20.7505 4.75158C20.7495 4.6944 20.7337 4.63846 20.7046 4.58924C20.6755 4.54002 20.6341 4.49921 20.5844 4.47081C20.5348 4.44242 20.4786 4.42741 20.4214 4.42727C20.3642 4.42712 20.308 4.44184 20.2582 4.46998Z" fill="#998696"/>
<path fill-rule="evenodd" clip-rule="evenodd" d="M3.3782 0.939977C6.1982 0.789977 20.5082 1.15998 21.0682 1.62998C21.4282 1.92998 21.6082 4.79998 21.7082 5.62998C21.8882 7.16998 22.0282 8.49998 22.1082 10.06C22.1209 10.1289 22.1574 10.1912 22.2113 10.236C22.2652 10.2809 22.3331 10.3054 22.4032 10.3054C22.4733 10.3054 22.5412 10.2809 22.5951 10.236C22.649 10.1912 22.6855 10.1289 22.6982 10.06C22.6982 8.63998 22.6082 6.96998 22.5082 5.56998C22.4082 4.16998 22.5082 1.56998 21.7582 0.889977C20.3282 -0.460023 5.5882 0.0699769 3.3282 0.269977C3.24924 0.288411 3.17946 0.334457 3.13147 0.39981C3.08347 0.465162 3.0604 0.545517 3.06644 0.626377C3.07247 0.707237 3.10721 0.783279 3.16437 0.840783C3.22154 0.898287 3.29738 0.933467 3.3782 0.939977Z" fill="#7A387B"/>
<path fill-rule="evenodd" clip-rule="evenodd" d="M4.4482 3.17995C4.51903 3.25282 4.60376 3.31076 4.69737 3.35031C4.79098 3.38987 4.89157 3.41025 4.9932 3.41025C5.09483 3.41025 5.19542 3.38987 5.28903 3.35031C5.38264 3.31076 5.46737 3.25282 5.5382 3.17995C5.62443 3.03243 5.65373 2.85847 5.62058 2.69085C5.58742 2.52323 5.4941 2.37352 5.3582 2.26995C4.6782 1.87995 3.8382 2.56995 4.4482 3.17995Z" fill="#7A387B"/>
<path fill-rule="evenodd" clip-rule="evenodd" d="M6.7882 2.93997C6.85917 3.01439 6.94451 3.07364 7.03905 3.11412C7.13359 3.1546 7.23536 3.17547 7.3382 3.17547C7.44104 3.17547 7.54281 3.1546 7.63735 3.11412C7.73189 3.07364 7.81723 3.01439 7.8882 2.93997C7.98081 2.78905 8.01369 2.60898 7.98039 2.43508C7.94709 2.26118 7.85001 2.10599 7.7082 1.99997C7.0182 1.62997 6.1782 2.31997 6.7882 2.93997Z" fill="#7A387B"/>
<path fill-rule="evenodd" clip-rule="evenodd" d="M9.3482 2.93997C9.41917 3.01439 9.50451 3.07364 9.59905 3.11412C9.69359 3.1546 9.79536 3.17547 9.8982 3.17547C10.001 3.17547 10.1028 3.1546 10.1974 3.11412C10.2919 3.07364 10.3772 3.01439 10.4482 2.93997C10.5431 2.78971 10.5774 2.60897 10.5439 2.4344C10.5105 2.25983 10.4119 2.10452 10.2682 1.99997C9.5782 1.62997 8.7382 2.31997 9.3482 2.93997Z" fill="#7A387B"/>
<path fill-rule="evenodd" clip-rule="evenodd" d="M24.5882 21.9C23.8235 20.5302 22.9472 19.2257 21.9682 18C25.1182 13 18.5082 7.84997 13.5482 11.66C12.5225 12.4079 11.8066 13.5058 11.5357 14.7459C11.2648 15.9861 11.4578 17.2825 12.0782 18.39C13.5782 20.82 16.5182 21.39 16.4682 20.56C16.4657 20.5219 16.4556 20.4846 16.4386 20.4504C16.4217 20.4162 16.3981 20.3856 16.3693 20.3605C16.3405 20.3355 16.307 20.3163 16.2708 20.3042C16.2346 20.2921 16.1963 20.2872 16.1582 20.29C14.7582 20.36 13.3682 19.07 12.7682 17.99C12.3117 17.0604 12.206 15.9973 12.4706 14.9961C12.7351 13.9949 13.3521 13.1227 14.2082 12.54C17.0882 10.42 20.9882 11.71 21.7282 14.54C22.3782 17.01 20.2782 19.42 18.1382 20.17C18.0547 20.1978 17.9856 20.2577 17.9462 20.3365C17.9068 20.4152 17.9004 20.5064 17.9282 20.59C17.956 20.6735 18.0159 20.7426 18.0947 20.7819C18.1735 20.8213 18.2647 20.8278 18.3482 20.8C18.7744 20.6635 19.1837 20.479 19.5682 20.25C19.9382 20.77 20.8882 22.07 20.9782 22.25C23.0382 25.2 25.3282 24 24.5882 21.9ZM23.5882 22.9C22.8482 23.28 20.7282 20.7 20.0582 19.95C20.5972 19.5787 21.0789 19.1307 21.4882 18.62C21.7982 19.06 24.1082 22.6 23.6082 22.86L23.5882 22.9Z" fill="#7A387B"/>
<path fill-rule="evenodd" clip-rule="evenodd" d="M13.0782 8.30995C13.9982 8.17995 15.0782 8.96995 16.3582 8.58995C17.0413 8.36737 17.7632 8.28905 18.4782 8.35995C18.3982 8.35995 19.3882 8.35995 19.3382 8.02995C19.2882 7.69995 18.2582 7.73995 17.8582 7.63995C17.6191 7.61015 17.3773 7.61015 17.1382 7.63995C16.0082 7.63995 16.1382 8.00995 14.8382 7.56995C12.3582 6.73995 12.4382 7.63995 11.6082 7.79995C10.7782 7.95995 9.4982 6.88995 8.5582 7.39995C8.0382 7.67995 7.6382 8.39995 8.1382 8.51995C8.6382 8.63995 8.3482 8.20995 8.8382 8.00995C9.3282 7.80995 10.8382 9.27995 12.1682 8.75995C12.4494 8.56885 12.7556 8.41743 13.0782 8.30995Z" fill="#7A387B"/>
<path fill-rule="evenodd" clip-rule="evenodd" d="M11.0282 11.34C8.9682 11.62 7.9682 10.79 6.2282 11C6.4082 11 4.1182 10.94 3.7982 11.62C3.77297 11.6627 3.75875 11.7111 3.7568 11.7607C3.75486 11.8103 3.76525 11.8596 3.78706 11.9042C3.80886 11.9488 3.84139 11.9873 3.88173 12.0162C3.92207 12.0452 3.96897 12.0636 4.0182 12.07C4.2582 12.07 3.8282 11.9 8.3882 12.25H8.9882C9.66637 12.2994 10.3474 12.2075 10.9882 11.98C11.0559 11.9607 11.1159 11.921 11.16 11.8662C11.2042 11.8115 11.2302 11.7443 11.2346 11.6741C11.239 11.6039 11.2215 11.5341 11.1845 11.4742C11.1476 11.4144 11.0929 11.3675 11.0282 11.34Z" fill="#7A387B"/>
<path fill-rule="evenodd" clip-rule="evenodd" d="M7.9682 15.47C8.05572 15.47 8.13966 15.4352 8.20155 15.3734C8.26343 15.3115 8.2982 15.2275 8.2982 15.14C8.2982 15.0525 8.26343 14.9685 8.20155 14.9067C8.13966 14.8448 8.05572 14.81 7.9682 14.81C6.70673 14.7451 5.44267 14.8698 4.2182 15.18C4.0182 15.37 4.0382 15.52 4.2182 15.62C4.3982 15.72 4.2882 15.71 4.3782 15.71C5.57882 15.8725 6.79989 15.7908 7.9682 15.47Z" fill="#7A387B"/>
</g>
<defs>
<clipPath id="clip0_3013_15922">
<rect width="24" height="24" fill="white" transform="translate(0.968201)"/>
</clipPath>
</defs>
</svg>
