<svg width="25" height="24" viewBox="0 0 25 24" fill="none" xmlns="http://www.w3.org/2000/svg">
<g clip-path="url(#clip0_3013_15911)">
<path fill-rule="evenodd" clip-rule="evenodd" d="M15.7982 7.67C15.7459 7.59813 15.6683 7.54884 15.581 7.53213C15.4937 7.51541 15.4033 7.53253 15.3282 7.58C14.9351 7.73095 14.5512 7.90458 14.1782 8.1C14.0139 8.19503 13.8568 8.30198 13.7082 8.42C13.5492 8.54277 13.4019 8.68002 13.2682 8.83C13.2002 8.92492 13.1557 9.03457 13.1382 9.15C13.1255 9.27279 13.1424 9.39686 13.1877 9.51172C13.2329 9.62659 13.3051 9.72889 13.3982 9.81C13.6494 9.99435 13.9212 10.1487 14.2082 10.27L14.8782 10.5C14.9737 10.5317 15.0778 10.5242 15.1678 10.4792C15.2578 10.4342 15.3263 10.3554 15.3582 10.26C15.3899 10.1645 15.3824 10.0604 15.3374 9.97039C15.2924 9.88041 15.2136 9.81194 15.1182 9.78L14.4682 9.47C14.4682 9.47 14.6382 9.41 14.5582 9.36L15.7082 8.13C15.7794 8.07951 15.8284 8.00361 15.8451 7.91798C15.8619 7.83236 15.8451 7.74358 15.7982 7.67Z" fill="#7A387B"/>
<path fill-rule="evenodd" clip-rule="evenodd" d="M18.3282 5.92C18.2889 5.90195 18.2464 5.89204 18.2032 5.89087C18.1601 5.88969 18.1171 5.89727 18.0769 5.91316C18.0367 5.92905 18.0002 5.9529 17.9695 5.9833C17.9387 6.01369 17.9145 6.04998 17.8982 6.09C17.5382 6.65 17.1482 7.16 16.8182 7.74C16.7382 7.89 16.6782 8.05 16.6082 8.2C16.4982 8.5 16.3782 8.79 16.2982 9.1C16.1182 9.79 16.0182 10.49 15.8282 11.18C15.7945 11.2731 15.7974 11.3755 15.8364 11.4665C15.8754 11.5575 15.9475 11.6302 16.0382 11.67C16.084 11.6894 16.1333 11.6993 16.1831 11.6991C16.2329 11.699 16.2821 11.6888 16.3279 11.6692C16.3736 11.6496 16.4149 11.621 16.4494 11.585C16.4838 11.5491 16.5106 11.5066 16.5282 11.46C16.7952 10.8067 17.0255 10.139 17.2182 9.46C17.3282 9.18 17.6782 8.9 17.7882 8.62L18.4982 6.32C18.5231 6.24404 18.5196 6.16163 18.4883 6.08806C18.4571 6.01449 18.4002 5.95477 18.3282 5.92Z" fill="#7A387B"/>
<path fill-rule="evenodd" clip-rule="evenodd" d="M20.2382 8.22999C19.8042 8.03064 19.3522 7.87325 18.8882 7.75999C18.8508 7.73766 18.8093 7.72293 18.7662 7.71662C18.7231 7.71032 18.6791 7.71257 18.6369 7.72325C18.5515 7.74482 18.4783 7.7994 18.4332 7.87499C18.3881 7.95057 18.3749 8.04097 18.3965 8.1263C18.418 8.21163 18.4726 8.2849 18.5482 8.32999L19.1482 8.83999C19.2582 8.93999 19.3582 9.05999 19.4582 9.16999L19.2782 9.37999L18.6682 9.89999C18.5855 9.95508 18.5277 10.0404 18.5072 10.1376C18.4866 10.2348 18.5049 10.3361 18.5582 10.42C18.6134 10.5023 18.6979 10.5606 18.7945 10.5829C18.891 10.6051 18.9925 10.5898 19.0782 10.54L19.7982 10.25C19.9734 10.1849 20.141 10.1011 20.2982 9.99999C20.4202 9.91774 20.5341 9.82398 20.6382 9.71999C20.724 9.60957 20.8009 9.49254 20.8682 9.36999C20.9138 9.266 20.9304 9.15163 20.9163 9.03897C20.9022 8.92631 20.858 8.81956 20.7882 8.72999C20.6377 8.53042 20.4512 8.36082 20.2382 8.22999Z" fill="#7A387B"/>
<path fill-rule="evenodd" clip-rule="evenodd" d="M24.5382 8.13001C24.744 7.54423 24.744 6.90579 24.5382 6.32001C24.2839 5.7289 23.8546 5.22985 23.3082 4.89001C23.0355 4.73119 22.7321 4.63232 22.4182 4.60001C22.0402 4.58767 21.6618 4.61111 21.2882 4.67001C20.9411 4.7045 20.6027 4.79926 20.2882 4.95001C20.2882 4.95001 20.2082 5.02001 20.1582 5.04001C20.0742 4.5198 19.8762 4.02462 19.5782 3.59001C19.2666 3.13516 18.8569 2.75613 18.3791 2.48093C17.9014 2.20572 17.368 2.04137 16.8182 2.00001C16.2274 1.97137 15.6374 2.07028 15.0882 2.29001C14.3394 2.61334 13.6602 3.07856 13.0882 3.66001C12.4712 4.27429 12.0412 5.05104 11.8482 5.90001C11.8331 6.10974 11.8331 6.32028 11.8482 6.53001C10.9804 7.05309 10.2878 7.82234 9.8582 8.74001C9.71506 9.09257 9.65074 9.47215 9.66974 9.85218C9.68874 10.2322 9.7906 10.6035 9.9682 10.94C10.0526 11.1124 10.1531 11.2764 10.2682 11.43C10.3739 11.5909 10.4944 11.7416 10.6282 11.88C10.869 12.1248 11.1299 12.3489 11.4082 12.55C11.6834 12.7499 11.9744 12.9271 12.2782 13.08C12.8627 13.3733 13.4805 13.5949 14.1182 13.74C15.0557 13.9313 16.0115 14.0185 16.9682 14C17.7983 14.0044 18.6275 13.9443 19.4482 13.82C20.2743 13.6835 21.0849 13.4658 21.8682 13.17C22.3467 12.991 22.8085 12.7701 23.2482 12.51C23.562 12.3239 23.851 12.0988 24.1082 11.84C24.5504 11.3469 24.848 10.7414 24.9682 10.09C25.0352 9.7513 25.0316 9.40242 24.9576 9.06517C24.8836 8.72792 24.7408 8.40957 24.5382 8.13001ZM24.0882 9.92001C23.9799 10.3931 23.7408 10.8262 23.3982 11.17C23.1919 11.3616 22.9596 11.5232 22.7082 11.65C22.3129 11.8584 21.8975 12.0259 21.4682 12.15C20.7425 12.3811 19.9954 12.5386 19.2382 12.62C18.4749 12.7093 17.7066 12.7494 16.9382 12.74C16.2087 12.7379 15.4802 12.6845 14.7582 12.58C14.0683 12.4836 13.3952 12.2917 12.7582 12.01C12.5034 11.896 12.2562 11.7657 12.0182 11.62C11.7804 11.4737 11.5561 11.3064 11.3482 11.12L10.8282 10.47C10.6713 10.1942 10.5888 9.88233 10.5888 9.56501C10.5888 9.24769 10.6713 8.93581 10.8282 8.66001C11.0815 8.18225 11.4204 7.75515 11.8282 7.40001C11.8989 7.74908 12.0202 8.08597 12.1882 8.40001C12.2082 8.43906 12.2358 8.47372 12.2694 8.50197C12.303 8.53021 12.3419 8.55148 12.3838 8.56451C12.4257 8.57755 12.4698 8.5821 12.5135 8.57789C12.5571 8.57368 12.5996 8.5608 12.6382 8.54001C12.7152 8.49762 12.7727 8.42709 12.7988 8.3432C12.8249 8.25931 12.8175 8.16857 12.7782 8.09001C12.5057 7.47757 12.4736 6.78505 12.6882 6.15001C12.8966 5.51854 13.2904 4.96447 13.8182 4.56001C14.2463 4.18792 14.7201 3.87203 15.2282 3.62001C15.6983 3.37898 16.2199 3.25546 16.7482 3.26001C17.1285 3.25157 17.5059 3.329 17.8521 3.48655C18.1984 3.64411 18.5047 3.87772 18.7482 4.17001C18.9958 4.48138 19.179 4.83888 19.2872 5.22173C19.3954 5.60457 19.4263 6.0051 19.3782 6.40001C19.3697 6.44809 19.371 6.49741 19.3822 6.54495C19.3933 6.59249 19.414 6.63727 19.443 6.67656C19.472 6.71585 19.5087 6.74882 19.5509 6.77348C19.593 6.79815 19.6397 6.81398 19.6882 6.82001C19.7873 6.83477 19.8883 6.8108 19.9702 6.75308C20.0522 6.69536 20.1087 6.60832 20.1282 6.51001C20.1643 6.29865 20.1811 6.08442 20.1782 5.87001C20.2984 5.79174 20.4256 5.72479 20.5582 5.67001C20.7943 5.61715 21.037 5.60029 21.2782 5.62001C21.5382 5.62001 21.7982 5.62001 22.0682 5.70001C22.2534 5.72513 22.429 5.79745 22.5782 5.91001C22.9126 6.12495 23.1796 6.43 23.3482 6.79001C23.5233 7.13556 23.5796 7.52924 23.5082 7.91001L23.3982 8.34001C23.3007 8.49557 23.1712 8.62853 23.0182 8.73001C22.8338 8.84635 22.6435 8.95315 22.4482 9.05001C22.4016 9.06761 22.3591 9.09443 22.3232 9.12885C22.2872 9.16328 22.2586 9.2046 22.239 9.25035C22.2194 9.29609 22.2092 9.34533 22.2091 9.3951C22.2089 9.44487 22.2188 9.49416 22.2382 9.54001C22.278 9.63067 22.3507 9.70281 22.4417 9.7418C22.5327 9.7808 22.6351 9.78373 22.7282 9.75001C23.0273 9.6533 23.3182 9.53292 23.5982 9.39001C23.7842 9.27884 23.9527 9.14066 24.0982 8.98001C24.1732 9.28928 24.1698 9.6124 24.0882 9.92001Z" fill="#7A387B"/>
<path fill-rule="evenodd" clip-rule="evenodd" d="M4.6082 12.59H5.6082C5.9282 12.59 6.0582 12.59 6.2882 12.54C7.20642 12.4591 8.12998 12.4591 9.0482 12.54C9.09767 12.5387 9.14638 12.5276 9.19146 12.5071C9.23654 12.4867 9.27706 12.4575 9.31062 12.4211C9.34419 12.3847 9.37012 12.342 9.38688 12.2954C9.40364 12.2489 9.41089 12.1994 9.4082 12.15C9.40564 12.1001 9.39325 12.0512 9.37175 12.006C9.35025 11.9609 9.32006 11.9204 9.2829 11.887C9.24574 11.8536 9.20235 11.8278 9.15521 11.8111C9.10808 11.7945 9.05812 11.7873 9.0082 11.79L5.6182 11.7C5.2782 11.7 4.9282 11.7 4.5582 11.75C4.1882 11.8 4.0782 11.81 3.8382 11.85C3.50201 11.853 3.16698 11.8898 2.8382 11.96C2.78009 12.0049 2.73304 12.0624 2.70066 12.1283C2.66829 12.1942 2.65145 12.2666 2.65145 12.34C2.65145 12.4134 2.66829 12.4858 2.70066 12.5517C2.73304 12.6176 2.78009 12.6752 2.8382 12.72C3.3182 13 4.1182 12.57 4.6082 12.59Z" fill="#998696"/>
<path fill-rule="evenodd" clip-rule="evenodd" d="M19.8382 18C19.7866 16.7828 19.6564 15.5703 19.4482 14.37C19.4346 14.3235 19.4117 14.2802 19.3809 14.2428C19.3502 14.2054 19.3122 14.1745 19.2693 14.1521C19.2263 14.1297 19.1793 14.1162 19.131 14.1124C19.0827 14.1086 19.0341 14.1146 18.9882 14.13C18.8914 14.1579 18.8097 14.223 18.7609 14.3112C18.7122 14.3993 18.7004 14.5032 18.7282 14.6C18.8794 15.7272 18.9596 16.8627 18.9682 18C19.0133 18.6965 18.9662 19.3958 18.8282 20.08C18.8282 20.08 18.8282 20.14 18.7782 20.16C18.7282 20.18 18.4882 20.21 18.3282 20.25C15.7863 20.6253 13.2169 20.7826 10.6482 20.72C8.0382 20.72 5.4282 20.64 3.7782 20.47C3.31959 20.4662 2.86429 20.392 2.4282 20.25C2.33386 20.1378 2.28091 19.9966 2.2782 19.85C2.26319 19.5602 2.26319 19.2698 2.2782 18.98C2.2782 18.56 2.2782 17.63 2.2082 16.54C2.1382 14.8 1.9882 10.84 1.9182 10.87C1.8626 10.503 1.93715 10.1281 2.12892 9.81033C2.3207 9.49254 2.61761 9.25185 2.9682 9.12998C4.1082 8.64998 5.7982 8.79998 6.9682 8.65998L8.7682 8.57998C8.81182 8.58554 8.85611 8.58206 8.89832 8.56974C8.94053 8.55742 8.97975 8.53653 9.01353 8.50838C9.04731 8.48023 9.07493 8.44542 9.09466 8.40613C9.11439 8.36683 9.1258 8.32389 9.1282 8.27998C9.13391 8.19295 9.10596 8.10705 9.05012 8.04004C8.99429 7.97304 8.91484 7.93006 8.8282 7.91998C8.8282 7.91998 8.4982 7.91998 7.8882 7.91998H6.8882C5.6082 8.00998 3.8282 7.82998 2.6082 8.28998C2.05943 8.47618 1.59401 8.85012 1.29398 9.3459C0.993955 9.84168 0.878581 10.4275 0.968199 11L1.0782 19C1.03666 19.5022 1.07036 20.0078 1.1782 20.5C1.26372 20.7902 1.43443 21.048 1.6682 21.24C2.41015 21.6009 3.22314 21.7922 4.0482 21.8C6.85105 21.987 9.6623 22.0138 12.4682 21.88C14.6007 21.8501 16.7247 21.6056 18.8082 21.15C18.9916 21.1144 19.1655 21.0408 19.3187 20.9341C19.472 20.8273 19.6013 20.6897 19.6982 20.53C19.8758 19.699 19.9231 18.8455 19.8382 18Z" fill="#7A387B"/>
<path d="M4.0382 9.85002C3.9533 9.82573 3.86403 9.82082 3.77697 9.83563C3.68992 9.85045 3.6073 9.88462 3.53521 9.93562C3.46312 9.98662 3.4034 10.0532 3.36045 10.1303C3.3175 10.2075 3.29241 10.2933 3.28705 10.3814C3.28168 10.4696 3.29617 10.5578 3.32945 10.6396C3.36272 10.7214 3.41393 10.7947 3.4793 10.854C3.54468 10.9134 3.62254 10.9573 3.70715 10.9826C3.79177 11.0079 3.88098 11.0138 3.9682 11C4.6482 11.07 4.9682 9.92002 4.0382 9.85002Z" fill="#7A387B"/>
<path d="M6.6782 9.81C6.60006 9.80475 6.52166 9.81493 6.44746 9.83998C6.37326 9.86503 6.30472 9.90445 6.24575 9.95598C6.18679 10.0075 6.13855 10.0702 6.1038 10.1403C6.06904 10.2105 6.04845 10.2869 6.0432 10.365C6.03795 10.4431 6.04813 10.5215 6.07318 10.5957C6.09823 10.6699 6.13765 10.7385 6.18919 10.7974C6.24072 10.8564 6.30337 10.9046 6.37355 10.9394C6.44372 10.9742 6.52006 10.9947 6.5982 11C7.2882 11 7.5982 9.89 6.6782 9.81Z" fill="#7A387B"/>
</g>
<defs>
<clipPath id="clip0_3013_15911">
<rect width="24" height="24" fill="white" transform="translate(0.968201)"/>
</clipPath>
</defs>
</svg>
