<svg width="25" height="24" viewBox="0 0 25 24" fill="none" xmlns="http://www.w3.org/2000/svg">
<g clip-path="url(#clip0_3013_15889)">
<path fill-rule="evenodd" clip-rule="evenodd" d="M11.126 16.961C9.17101 16.961 4.97741 16.8241 3.19831 16.091C2.93441 15.9834 2.72911 15.915 2.69981 15.7684C2.41631 14.566 1.86891 3.66672 2.27951 1.35002C2.32841 1.12802 2.11871 0.936321 1.90201 1.00492C1.80141 1.03682 1.72541 1.11992 1.70271 1.22292C1.10651 3.71562 1.00871 13.3735 1.63431 16.0225C1.71901 16.3292 1.91391 16.5938 2.18171 16.7655C3.82401 17.8505 9.16121 17.743 11.126 17.6257C11.3819 17.6243 11.5403 17.3464 11.4111 17.1256C11.3518 17.0242 11.2435 16.9616 11.126 16.961Z" fill="#7A387B"/>
<path fill-rule="evenodd" clip-rule="evenodd" d="M3.26682 1.22292C5.30982 1.13492 18.3792 1.36952 20.0508 1.87782C20.3538 2.19062 20.5396 4.81042 20.6178 5.42622C20.8035 6.82412 20.9306 8.00692 21.0088 9.43412C21.0075 9.65982 21.251 9.80232 21.4472 9.69062C21.5393 9.63812 21.5959 9.54012 21.5953 9.43412C21.5953 8.15352 21.5171 6.64812 21.4291 5.34802C21.3509 4.21412 21.4291 1.73122 20.696 1.07632C19.3079 -0.184684 5.38802 0.333316 3.22772 0.519116C2.95682 0.534116 2.80382 0.836816 2.95222 1.06392C3.02112 1.16932 3.14102 1.22992 3.26682 1.22292Z" fill="#7A387B"/>
<path fill-rule="evenodd" clip-rule="evenodd" d="M4.28342 3.17793C4.56962 3.46383 5.03332 3.46383 5.31962 3.17793C5.49372 2.88583 5.40252 2.50803 5.11432 2.32753C4.49842 2.01473 3.70672 2.64033 4.28342 3.17793Z" fill="#7A387B"/>
<path fill-rule="evenodd" clip-rule="evenodd" d="M6.50241 2.97259C6.79411 3.25449 7.25661 3.25449 7.54831 2.97259C7.70941 2.69439 7.63331 2.33939 7.37241 2.15149C6.72721 1.78979 5.92561 2.41549 6.50241 2.97259Z" fill="#7A387B"/>
<path fill-rule="evenodd" clip-rule="evenodd" d="M8.93641 2.97259C9.23901 3.26239 9.72131 3.24469 10.0019 2.93349C10.1629 2.65529 10.0869 2.30029 9.82591 2.11239C9.15141 1.78979 8.35971 2.41549 8.93641 2.97259Z" fill="#7A387B"/>
<path fill-rule="evenodd" clip-rule="evenodd" d="M2.73892 4.9961C3.97062 4.9961 7.08892 5.2503 10.8817 5.2503C14.303 5.2503 16.5317 5.0939 19.0342 5.0254C19.29 5.024 19.4484 4.7462 19.3193 4.5253C19.26 4.424 19.1516 4.3614 19.0342 4.3607C13.5894 4.3607 13.1104 3.8231 2.71942 4.3607C2.47482 4.3683 2.33012 4.6377 2.45892 4.8457C2.51872 4.9423 2.62542 4.9996 2.73892 4.9961Z" fill="#998696"/>
<path fill-rule="evenodd" clip-rule="evenodd" d="M23.8143 20.4018C23.0494 19.453 22.0332 18.7383 20.8817 18.3393C23.6188 16.6579 23.4232 11.7899 20.1095 11.1447C19.9284 11.1089 19.7529 11.2274 19.7184 11.4086C19.5914 11.9952 20.4907 11.6041 21.3607 12.7087C22.6901 14.4194 21.7419 18.74 17.2746 17.7039C13.8826 17.0098 14.2834 11.0274 18.9657 11.3304C19.1915 11.353 19.357 11.1228 19.2637 10.916C19.2204 10.82 19.1292 10.7544 19.0244 10.7439C15.8789 10.0519 13.1639 13.0245 14.1373 16.0945C14.4773 17.1667 15.2346 18.0568 16.2385 18.5641C14.0879 19.4243 12.3284 21.1741 12.6216 23.4517C12.6229 23.6774 12.8682 23.8171 13.063 23.7031C13.1524 23.6508 13.2075 23.5552 13.2081 23.4517C13.3157 22.0343 15.1632 20.2454 16.1994 19.4732C17.0791 18.9355 17.0596 18.9649 17.1769 18.8671C18.1738 19.101 19.216 19.0536 20.1876 18.7303C20.9474 19.2214 21.6607 19.7809 22.3186 20.4018C23.2251 21.156 23.8602 22.1858 24.127 23.3344C24.1283 23.5601 24.3736 23.6998 24.5684 23.5858C24.6578 23.5335 24.7129 23.4379 24.7135 23.3344C24.8029 22.2775 24.4808 21.2269 23.8143 20.4018Z" fill="#7A387B"/>
<path fill-rule="evenodd" clip-rule="evenodd" d="M17.9296 13.8231C17.225 14.2552 16.4097 14.4726 15.5835 14.4487C15.3578 14.4299 15.1963 14.6625 15.2929 14.8675C15.3377 14.9626 15.4299 15.0265 15.5347 15.0352C17.4897 15.3969 18.2619 15.0352 19.8748 13.9697C20.4809 14.566 21.0381 15.3676 21.3998 14.9473C21.529 14.8176 21.529 14.6078 21.3998 14.4781C20.5689 13.6081 20.4907 12.6305 19.6207 12.8847C19.0334 13.153 18.468 13.4668 17.9296 13.8231Z" fill="#7A387B"/>
<path fill-rule="evenodd" clip-rule="evenodd" d="M6.80542 7.22492C6.38782 6.57232 5.60582 6.25172 4.85042 6.42332C4.38792 6.57562 4.02522 6.93842 3.87282 7.40082C3.53302 8.39002 4.39142 9.37622 5.41802 9.17592C5.45392 9.16892 5.48962 9.16052 5.52482 9.15062C6.40792 8.96902 6.97952 8.10942 6.80542 7.22492ZM5.40752 8.06552C4.97742 8.20242 4.76242 7.87002 4.87972 7.55722C5.31962 6.43312 6.96182 7.60612 5.40752 8.06552Z" fill="#998696"/>
<path fill-rule="evenodd" clip-rule="evenodd" d="M16.7468 7.72343C16.6393 7.72343 13.8142 7.43013 13.6969 7.42043C13.0909 7.34223 12.9736 6.53083 11.302 7.42043C10.8426 7.66473 10.911 7.63543 10.3245 7.37153C10.0801 7.24443 9.53272 6.81433 9.07322 6.96093C8.61372 7.10753 8.62362 7.37153 8.51612 7.72343C8.51612 7.82113 8.27172 8.07533 8.46722 8.27083C8.61312 8.46243 8.91162 8.42423 9.00462 8.20203C9.01372 8.18013 9.02042 8.15733 9.02442 8.13403C9.07072 8.07303 9.10402 8.00313 9.12212 7.92873C9.12212 7.86023 9.29812 7.75273 9.31762 7.66473C10.0996 8.23173 10.5004 8.71073 11.3802 8.49563C11.7374 8.34123 12.1069 8.21703 12.4848 8.12423C12.5905 8.13293 12.6918 8.17003 12.778 8.23173C13.0291 8.38403 13.3084 8.48383 13.5992 8.52503H16.7859C17.2472 8.48793 17.703 8.39943 18.1446 8.26103C18.3865 8.15683 18.4248 7.82983 18.2136 7.67253C18.1461 7.62223 18.0623 7.59853 17.9785 7.60613C17.5716 7.67773 17.1598 7.71693 16.7468 7.72343Z" fill="#7A387B"/>
<path fill-rule="evenodd" clip-rule="evenodd" d="M13.0909 12.8652C13.0909 12.2004 11.8299 12.787 11.4193 12.8652C11.0087 12.9434 10.1094 11.8876 9.38611 12.1516C9.23861 12.22 9.11331 12.3284 9.02441 12.4644C8.85581 12.7748 8.72151 13.1025 8.62361 13.4419C8.52951 13.6488 8.69481 13.88 8.92101 13.858C9.02601 13.8478 9.11761 13.7823 9.16121 13.6863C9.29811 13.481 9.60111 13.2953 9.70861 13.1486C10.0633 13.4642 10.4746 13.7097 10.9208 13.872C11.996 14.0186 12.1231 13.3441 12.8758 13.2171C13.0229 13.1669 13.1133 13.0189 13.0909 12.8652Z" fill="#7A387B"/>
<path fill-rule="evenodd" clip-rule="evenodd" d="M3.8728 13.0118C3.7812 14.0681 4.8667 14.8279 5.8279 14.3803C6.2543 14.2105 6.5739 13.8473 6.6881 13.4028C7.0693 11.5162 4.0097 10.9981 3.8728 13.0118ZM5.8279 13.1486C5.6791 13.4182 5.3322 13.5038 5.0752 13.3344C4.8945 13.1335 4.8557 12.8424 4.9774 12.6012C5.0548 12.5208 5.1529 12.4633 5.2609 12.435C6.0234 12.2982 5.8963 13.0704 5.8572 13.1486H5.8279Z" fill="#998696"/>
</g>
<defs>
<clipPath id="clip0_3013_15889">
<rect width="24" height="24" fill="white" transform="translate(0.968201)"/>
</clipPath>
</defs>
</svg>
