<svg width="25" height="24" viewBox="0 0 25 24" fill="none" xmlns="http://www.w3.org/2000/svg">
<g clip-path="url(#clip0_3013_15960)">
<path d="M4.1482 7.07996L7.8782 7.19996H12.9982C14.7082 7.19996 16.4082 7.12996 18.1182 7.09996L21.4182 7.02996H23.1182C23.2094 7.03271 23.298 6.99976 23.3653 6.93812C23.4325 6.87648 23.473 6.79103 23.4782 6.69996C23.4795 6.6553 23.472 6.61082 23.4562 6.56906C23.4403 6.5273 23.4164 6.48908 23.3857 6.45657C23.3551 6.42407 23.3183 6.39792 23.2776 6.37963C23.2368 6.36133 23.1929 6.35125 23.1482 6.34996L21.4182 6.22996L18.1182 6.11996C16.4082 6.11996 14.6982 6.01996 12.9982 6.01996C11.2982 6.01996 9.5782 6.07996 7.8682 6.12996L4.1582 6.27996C3.76056 6.26776 3.36259 6.28783 2.9682 6.33996C2.6582 6.33996 2.4982 7.01996 2.9682 7.02996L4.1482 7.07996Z" fill="#998696"/>
<path d="M24.8182 5.93998C24.8627 5.15276 24.8392 4.36317 24.7482 3.57998C24.6848 3.17346 24.5159 2.7907 24.2582 2.46998C24.0538 2.24043 23.7858 2.07683 23.4882 1.99998C23.1602 1.91733 22.8256 1.86379 22.4882 1.83998C21.9582 1.78998 21.4282 1.75998 20.8982 1.72998H18.5382C16.2082 1.72998 13.8882 1.61998 11.5382 1.59998C9.9782 1.59998 8.41819 1.59998 6.8682 1.66998L3.8682 1.88998C3.5382 1.88998 3.1582 1.88998 2.7982 1.95998C2.53396 2.00886 2.27335 2.07568 2.0182 2.15998C1.89055 2.19475 1.77681 2.26824 1.69265 2.37031C1.60848 2.47239 1.55801 2.59804 1.5482 2.72998C1.5082 3.35998 1.4582 3.99998 1.4182 4.71998C1.3282 6.29998 1.2782 7.87998 1.1882 9.46998C1.1282 10.42 1.0182 11.36 0.978195 12.31V13.56C0.978195 14.14 1.1182 18.56 1.2582 20.1C1.28085 20.497 1.35136 20.8899 1.4682 21.27C1.50639 21.3888 1.57959 21.4934 1.6782 21.57C1.84098 21.6926 2.02875 21.778 2.2282 21.82C2.55953 21.873 2.89326 21.9097 3.2282 21.93L4.4882 22L6.3682 22.13L9.3182 22.2C10.5182 22.2 11.7482 22.34 12.9682 22.39H14.5882C16.1782 22.39 19.7782 22.27 21.9782 22.09C22.5741 22.0556 23.1661 21.972 23.7482 21.84C23.9257 21.7891 24.0829 21.6842 24.1982 21.54C24.3729 21.2879 24.4922 21.0016 24.5482 20.7C24.6164 20.1561 24.6465 19.6081 24.6382 19.06L24.9682 12.79L24.8182 5.93998ZM23.4882 19.05V20.35C23.4707 20.5083 23.4303 20.6633 23.3682 20.81C23.2482 20.81 23.0282 20.88 22.8082 20.9C21.9582 21.01 20.5982 21.09 19.1882 21.16C17.4282 21.24 15.5982 21.29 14.5882 21.33H13.5882C12.1882 21.33 10.7582 21.17 9.37819 21.18H6.45819L4.6182 21.09L3.3682 21H2.5582L2.3282 20.95C2.3282 20.89 2.2682 20.82 2.2482 20.74C2.15371 20.1336 2.09029 19.5228 2.0582 18.91C1.9682 17.42 1.8082 14 1.7782 13.51C1.7482 13.02 1.7782 12.45 1.7782 11.93C1.7782 11.12 1.8882 10.32 1.9182 9.49998C1.9482 8.67998 2.0382 5.33998 2.0682 4.74998C2.0982 4.15998 2.1282 3.41998 2.1782 2.74998C2.2282 2.74998 2.6982 2.59998 2.9082 2.57998C3.1182 2.55998 3.6282 2.57998 3.9082 2.57998L6.85819 2.39998H11.4882C13.8082 2.39998 16.1382 2.56998 18.4882 2.62998C19.2582 2.62998 20.0382 2.62998 20.8182 2.70998C21.3282 2.70998 21.8182 2.77998 22.3482 2.83998C22.5902 2.85634 22.8308 2.88976 23.0682 2.93998C23.2221 2.96309 23.3652 3.0329 23.4782 3.13998C23.6663 3.41805 23.7704 3.74435 23.7782 4.07998C23.8382 4.73998 23.7782 5.46998 23.7782 5.97998L23.8482 12.34V13.18L23.4882 19.05Z" fill="#7A387B"/>
<path d="M4.50819 3.7C4.30462 3.62745 4.08146 3.63234 3.88126 3.71375C3.68106 3.79516 3.51782 3.94739 3.42266 4.14143C3.32749 4.33547 3.30706 4.55774 3.36525 4.76588C3.42344 4.97401 3.55619 5.15346 3.73819 5.27C4.49819 5.69 5.96819 4.53 4.50819 3.7Z" fill="#7A387B"/>
<path d="M7.6682 3.76998C6.7582 3.33998 5.9682 4.59998 6.8382 5.13998C7.05821 5.20849 7.2924 5.21775 7.51713 5.16684C7.74187 5.11592 7.9492 5.00662 8.1182 4.84998C8.3282 4.60998 8.3082 4.09998 7.6682 3.76998Z" fill="#7A387B"/>
<path d="M9.50819 5C9.62955 5.09916 9.77253 5.16841 9.92558 5.20216C10.0786 5.23591 10.2375 5.23321 10.3893 5.19428C10.5411 5.15536 10.6816 5.08129 10.7996 4.97806C10.9175 4.87483 11.0095 4.74533 11.0682 4.6C11.0863 4.4644 11.0729 4.32646 11.0291 4.19688C10.9852 4.0673 10.9121 3.94957 10.8153 3.85284C10.7186 3.75611 10.6009 3.68298 10.4713 3.63913C10.3417 3.59528 10.2038 3.58189 10.0682 3.6C9.9004 3.58703 9.73286 3.62798 9.58997 3.71689C9.44708 3.80579 9.33632 3.938 9.27382 4.09425C9.21132 4.2505 9.20035 4.42263 9.24251 4.58555C9.28466 4.74847 9.37774 4.89367 9.50819 5Z" fill="#7A387B"/>
<path d="M22.9082 14.27C23.3182 13.51 22.2082 13.79 19.0582 14.06C19.0582 13.97 18.9282 13.81 18.8982 13.73C18.7582 13.3 18.4382 12.25 17.9982 12C16.8782 11.38 16.0782 14 15.5982 14.76C15.3882 13.83 15.3982 13.49 15.2782 13.02C15.1308 12.3298 14.7449 11.7137 14.1882 11.28C14.0627 11.2104 13.9238 11.1687 13.7808 11.1575C13.6378 11.1464 13.4941 11.1662 13.3594 11.2155C13.2247 11.2648 13.1022 11.3426 13.0002 11.4434C12.8982 11.5443 12.819 11.6659 12.7682 11.8C12.6482 12.03 12.7682 11.56 11.3982 16.71C11.3982 16.84 11.1782 17.12 11.0682 17.38C10.2882 15.15 10.9382 10.38 9.45819 9.90999C8.93819 9.74999 8.53819 10.17 8.19819 10.59C7.41819 11.59 7.44819 12.67 6.74819 13.47C6.34819 13.92 5.40819 13.84 3.22819 13.71C3.15569 13.7151 3.08803 13.7483 3.03951 13.8024C2.99099 13.8565 2.96541 13.9274 2.96819 14C2.96819 14.33 3.24819 14.29 4.25819 14.38C5.88819 14.38 6.87819 14.84 7.72819 13.38C7.72819 13.38 7.55819 13.38 9.25819 10.87C9.91819 12.16 8.96819 19.21 11.3782 18.87C12.2182 18.77 12.3282 17.69 12.5182 16.97L13.5182 13.1C13.5182 12.92 13.8182 12.58 13.8382 12.34C14.5982 13.62 14.2882 14.9 15.0082 15.71C15.08 15.8131 15.1758 15.8974 15.2872 15.9556C15.3986 16.0137 15.5225 16.0441 15.6482 16.0441C15.7739 16.0441 15.8977 16.0137 16.0092 15.9556C16.1206 15.8974 16.2163 15.8131 16.2882 15.71C16.6145 14.771 17.0263 13.8639 17.5182 13C17.5682 12.85 17.5182 12.68 17.7182 13C18.2982 14.38 18.2882 14.93 19.1782 14.86C19.5282 14.86 20.0982 14.75 20.2382 14.73C22.9682 14.41 22.8182 14.44 22.9082 14.27Z" fill="#7A387B"/>
</g>
<defs>
<clipPath id="clip0_3013_15960">
<rect width="24" height="24" fill="white" transform="translate(0.968201)"/>
</clipPath>
</defs>
</svg>
