<svg width="25" height="24" viewBox="0 0 25 24" fill="none" xmlns="http://www.w3.org/2000/svg">
<g clip-path="url(#clip0_3013_15868)">
<path d="M24.9682 18.61C24.7539 18.1136 24.4998 17.6353 24.2082 17.18C23.4793 16.0604 22.667 14.9974 21.7782 14C21.2682 13.4 21.4982 14.44 22.0782 11.6C22.6063 9.02419 22.9836 6.41976 23.2082 3.79999C23.2531 3.12685 23.1855 2.45091 23.0082 1.79999C22.926 1.60773 22.8029 1.43568 22.6475 1.2958C22.492 1.15592 22.308 1.05157 22.1082 0.989995C19.4382 -0.010005 6.24819 0.0499949 3.50819 1.74C3.33671 1.8324 3.18607 1.95909 3.06565 2.11221C2.94522 2.26532 2.85759 2.44157 2.80819 2.63C2.32819 4.85 4.23819 12.3 5.13819 14.23C4.39819 15 1.84819 17.61 1.24819 18.45C1.05546 18.7285 0.957302 19.0615 0.968195 19.4C0.968195 19.5 1.08819 22.02 1.13819 22.27C1.16482 22.4466 1.24511 22.6106 1.36819 22.74C2.48819 23.96 21.8482 23.74 23.4682 23.42C24.5282 23.18 24.4682 22.42 24.6282 21.42C24.6396 21.3339 24.6166 21.2467 24.5642 21.1775C24.5118 21.1082 24.4342 21.0624 24.3482 21.05C23.7782 20.97 24.0482 21.89 23.7482 22.41C23.5382 22.77 23.6782 22.7 14.6682 22.58C10.5682 22.52 2.20819 22.58 1.85819 22.23C1.71877 21.6974 1.64158 21.1504 1.62819 20.6C3.99819 21.6 20.1482 21.03 22.7182 20.93C22.8066 20.9274 22.8906 20.8904 22.9522 20.8269C23.0138 20.7635 23.0482 20.6785 23.0482 20.59C23.0482 20.07 23.3482 20.33 7.90819 20.04C5.38819 20 3.26819 20 2.27819 19.82C2.01819 19.82 1.89819 19.9 1.87819 19.38C1.85755 19.2242 1.88921 19.0659 1.96819 18.93C2.45819 18.17 4.50819 15.82 5.38819 14.84C5.75819 14.44 5.81819 14.34 5.65819 13.98C4.85819 12.15 3.13819 4.83999 3.65819 2.81999C4.05819 1.18999 18.0482 1.07999 21.3082 1.89999C22.2182 2.12999 21.8382 2.25 21.9882 2.18C22.1171 2.70291 22.1643 3.24263 22.1282 3.77999C21.8881 6.91737 21.4337 10.0346 20.7682 13.11C20.5782 13.11 20.1582 13.25 19.7682 13.27C16.3882 13.42 7.69819 13.43 6.50819 13.46C6.39192 13.4383 6.27174 13.4613 6.17165 13.5243C6.07156 13.5873 5.99891 13.6858 5.96819 13.8C5.96819 13.8875 6.00296 13.9715 6.06485 14.0333C6.12674 14.0952 6.21067 14.13 6.29819 14.13H11.1882C10.8034 14.5516 10.4923 15.035 10.2682 15.56C8.9782 15.61 7.92819 15.69 7.41819 15.73C7.48819 15.57 7.41819 15.73 7.94819 14.89C7.99196 14.8263 8.00864 14.7479 7.99457 14.672C7.98051 14.596 7.93685 14.5288 7.87319 14.485C7.80954 14.4412 7.73111 14.4246 7.65516 14.4386C7.57921 14.4527 7.51196 14.4963 7.46819 14.56C6.84675 15.358 6.29474 16.2078 5.81819 17.1C5.71806 17.253 5.67337 17.4357 5.69157 17.6177C5.70977 17.7996 5.78975 17.9698 5.91819 18.1C6.91819 18.82 17.4982 19 20.4682 18.33C21.6482 18.06 19.4682 15.33 19.0582 14.2C19.5582 14.2 20.5482 14.2 20.9882 14.11C21.4384 14.9746 21.9323 15.8157 22.4682 16.63C24.4182 19.75 23.8882 17.81 24.3682 20.04C24.3735 20.1196 24.4102 20.1938 24.4702 20.2463C24.5302 20.2988 24.6086 20.3253 24.6882 20.32C24.7678 20.3147 24.842 20.278 24.8945 20.218C24.947 20.158 24.9735 20.0796 24.9682 20V18.61ZM9.45819 17.61C9.00819 17.61 7.19819 17.56 6.73819 17.51C6.98594 17.1502 7.16246 16.7462 7.25819 16.32C7.33819 16.32 9.8082 16.51 9.8882 16.52C9.75819 16.75 9.54819 17.28 9.42819 17.62L9.45819 17.61ZM11.9682 14.18H14.6182C14.5291 14.6347 14.4822 15.0967 14.4782 15.56C13.6482 15.56 12.7582 15.5 11.4782 15.56C11.8182 14.6 11.8782 14.55 11.9682 14.18ZM10.2982 17.63C10.5476 17.3082 10.7812 16.9745 10.9982 16.63C12.1882 16.69 12.9982 16.71 14.6082 16.68C14.6082 16.79 14.8882 17.61 14.9082 17.68C13.0282 17.64 11.6782 17.65 10.2982 17.63ZM19.3582 16.33C19.5682 16.78 19.7582 17.21 19.8782 17.54C18.8782 17.63 16.8782 17.64 15.7682 17.64C15.7682 17.36 15.7082 17 15.6482 16.64C17.0182 16.59 18.2482 16.51 19.0982 16.49C19.1506 16.484 19.2011 16.4666 19.246 16.4389C19.2909 16.4113 19.3292 16.3741 19.3582 16.33ZM19.1182 15.81C19.0182 15.81 15.5982 15.62 15.4982 15.61C15.3982 15.02 15.2882 14.49 15.2182 14.2H18.3682C18.3782 14.27 18.7382 15 19.1182 15.81Z" fill="#7A387B"/>
<path d="M9.0882 9.05C10.0383 10.2573 11.2906 11.1922 12.7182 11.76C13.5515 11.6205 14.33 11.2537 14.9682 10.7C15.6325 10.1839 16.1667 9.51954 16.5282 8.76C16.6482 7.86 16.9082 5.07 16.8582 4.76C16.6382 3.28 14.2182 2.63 12.6982 2.65C12.0064 2.60607 11.3129 2.70307 10.6597 2.93513C10.0065 3.16718 9.40722 3.52946 8.8982 4C8.3982 4.59 8.6082 5.06 8.5782 5.73C8.49182 6.86112 8.66631 7.99697 9.0882 9.05ZM9.4682 5.77C9.4682 5.25 9.3682 4.87 9.6182 4.6C10.4905 3.91305 11.5786 3.5586 12.6882 3.6C13.7764 3.55851 14.8426 3.9139 15.6882 4.6C15.9682 4.91 15.8782 4.85 15.7482 8.52C15.4752 9.18231 15.0464 9.76892 14.4982 10.23C14.0025 10.7119 13.3769 11.0386 12.6982 11.17C11.5145 10.5722 10.4872 9.7058 9.6982 8.64C9.43764 7.70704 9.35955 6.73256 9.4682 5.77Z" fill="#998696"/>
<path d="M11.1282 7.08002C11.5206 7.17226 11.9179 7.24237 12.3182 7.29002C12.3182 7.52002 12.4582 8.13002 12.4982 8.36002C12.4982 8.43959 12.5298 8.5159 12.5861 8.57216C12.6423 8.62842 12.7186 8.66002 12.7982 8.66002C12.8778 8.66002 12.9541 8.62842 13.0103 8.57216C13.0666 8.5159 13.0982 8.43959 13.0982 8.36002C13.1582 7.96002 13.2182 7.73002 13.2682 7.29002C13.6582 7.29002 14.3482 7.12002 14.4482 7.10002C14.4915 7.10803 14.536 7.10641 14.5786 7.09528C14.6212 7.08415 14.6608 7.06379 14.6946 7.03564C14.7285 7.00748 14.7557 6.97223 14.7744 6.93237C14.7931 6.89252 14.8027 6.84904 14.8027 6.80502C14.8027 6.76101 14.7931 6.71753 14.7744 6.67768C14.7557 6.63782 14.7285 6.60257 14.6946 6.57441C14.6608 6.54626 14.6212 6.5259 14.5786 6.51477C14.536 6.50364 14.4915 6.50202 14.4482 6.51002C14.0547 6.43319 13.6575 6.37645 13.2582 6.34002C13.2582 6.02002 13.1382 5.72002 13.0882 5.41002C13.0882 5.34107 13.0608 5.27494 13.012 5.22618C12.9633 5.17742 12.8972 5.15002 12.8282 5.15002C12.7592 5.15002 12.6931 5.17742 12.6443 5.22618C12.5956 5.27494 12.5682 5.34107 12.5682 5.41002C12.4734 5.73893 12.3966 6.07276 12.3382 6.41002C11.9307 6.46313 11.5267 6.53993 11.1282 6.64002C11.0889 6.61525 11.0436 6.60147 10.9971 6.60013C10.9507 6.59879 10.9047 6.60993 10.864 6.6324C10.8233 6.65486 10.7894 6.68783 10.7657 6.72786C10.7421 6.7679 10.7296 6.81354 10.7296 6.86002C10.7296 6.90651 10.7421 6.95215 10.7657 6.99218C10.7894 7.03222 10.8233 7.06518 10.864 7.08765C10.9047 7.11012 10.9507 7.12126 10.9971 7.11992C11.0436 7.11857 11.0889 7.1048 11.1282 7.08002Z" fill="#998696"/>
</g>
<defs>
<clipPath id="clip0_3013_15868">
<rect width="24" height="24" fill="white" transform="translate(0.968201)"/>
</clipPath>
</defs>
</svg>
