<svg width="25" height="24" viewBox="0 0 25 24" fill="none" xmlns="http://www.w3.org/2000/svg">
<g clip-path="url(#clip0_3013_15864)">
<path fill-rule="evenodd" clip-rule="evenodd" d="M24.9682 5.48001L24.8682 3.81001C24.828 3.49903 24.7645 3.1915 24.6782 2.89001C24.6004 2.62722 24.4713 2.38249 24.2982 2.17001C24.012 1.93008 23.6666 1.77124 23.2982 1.71001C22.3068 1.52667 21.3048 1.40643 20.2982 1.35001C17.0482 1.13001 12.6682 1.16001 11.6482 1.18001C10.1582 1.24001 8.7182 1.33001 7.2682 1.44001C5.8182 1.55001 4.3882 1.70001 2.9082 1.89001C2.8314 1.90883 2.7639 1.9546 2.718 2.019C2.67211 2.08339 2.65086 2.16212 2.65813 2.24087C2.66539 2.31961 2.7007 2.39312 2.75761 2.44803C2.81452 2.50293 2.88925 2.53557 2.9682 2.54001C4.4382 2.42001 5.8682 2.33001 7.3082 2.27001C8.7482 2.21001 10.1782 2.20001 11.6482 2.21001C12.5382 2.21001 15.9782 2.33001 18.9782 2.52001C20.5182 2.62001 21.9782 2.73001 22.8182 2.89001C23.1182 2.89001 23.5182 2.89001 23.4582 3.05001C23.5177 3.14939 23.5615 3.25731 23.5882 3.37001C23.6482 3.59001 23.6782 3.81001 23.7182 4.01001L23.8482 5.50001L23.9182 7.67001L23.9682 11.39V13.83C23.9682 14.9 23.8482 15.96 23.7782 17.03C23.7618 16.9471 23.7167 16.8726 23.6509 16.8196C23.5851 16.7666 23.5027 16.7384 23.4182 16.74L14.0982 16.9C12.4582 16.95 10.8082 17.07 9.1682 17.1H7.0982L3.2782 17C3.04023 16.9865 2.8032 16.9598 2.5682 16.92C2.4582 16.92 2.3382 16.87 2.2782 16.78C2.19513 16.6129 2.16049 16.4258 2.1782 16.24C2.1782 15.78 2.2282 15.24 2.2282 14.95H2.3482C4.8982 14.95 7.4682 14.95 10.0582 14.89C11.3282 14.89 12.6082 14.89 13.8882 14.82C15.1682 14.75 16.4482 14.75 17.7282 14.74C19.0082 14.73 20.2882 14.74 21.5682 14.74C21.6168 14.7427 21.6655 14.7358 21.7114 14.7197C21.7573 14.7035 21.7996 14.6785 21.8358 14.646C21.8721 14.6134 21.9015 14.5741 21.9225 14.5302C21.9435 14.4863 21.9556 14.4386 21.9582 14.39C21.9623 14.3411 21.9564 14.2919 21.9408 14.2454C21.9251 14.1988 21.9002 14.156 21.8674 14.1195C21.8346 14.0829 21.7947 14.0535 21.7501 14.033C21.7056 14.0124 21.6573 14.0012 21.6082 14C19.3682 13.79 17.1182 13.64 14.8582 13.59H11.9482C10.9782 13.59 10.0082 13.59 9.0482 13.69C6.7882 13.82 4.5482 14.06 2.3182 14.28H2.2282V8.88001C2.20105 7.68537 2.24112 6.49015 2.3482 5.30001C2.41312 4.51654 2.57434 3.74405 2.8282 3.00001C2.85819 2.92031 2.8562 2.83209 2.82265 2.75382C2.78911 2.67554 2.7266 2.61327 2.6482 2.58001C2.56585 2.55021 2.47518 2.55333 2.39507 2.58872C2.31497 2.62412 2.25161 2.68906 2.2182 2.77001C1.91534 3.55583 1.70721 4.37494 1.5982 5.21001C1.44791 6.44125 1.36445 7.67974 1.3482 8.92001L1.0582 14.86C0.999958 15.3947 0.969917 15.9321 0.968201 16.47C0.980658 16.7974 1.07338 17.1168 1.2382 17.4C1.38591 17.632 1.59783 17.8162 1.8482 17.93C2.26406 18.0884 2.70342 18.1763 3.1482 18.19C3.5382 18.19 3.9382 18.26 4.3382 18.27C5.2282 18.27 6.1182 18.27 7.0182 18.33C7.9182 18.39 8.9382 18.33 9.8982 18.33L10.7982 18.26L9.5682 20.92C9.39547 21.2254 9.24508 21.5429 9.1182 21.87C9.06478 22.0324 9.06478 22.2076 9.1182 22.37C9.15415 22.4558 9.20867 22.5326 9.27783 22.5949C9.34699 22.6571 9.42908 22.7033 9.5182 22.73C9.66005 22.7641 9.80357 22.7908 9.9482 22.81C10.1479 22.825 10.3485 22.825 10.5482 22.81C10.8294 22.7981 11.1098 22.7714 11.3882 22.73C12.3802 22.5508 13.382 22.4306 14.3882 22.37C16.6782 22.24 17.1582 22.53 16.5982 20.43C16.5282 20.17 16.4682 19.92 16.3782 19.67C16.2882 19.42 16.1882 19.17 16.0782 18.94C15.8782 18.56 15.6582 18.22 15.4382 17.88L23.4382 17.46C23.5135 17.4555 23.5854 17.4268 23.643 17.3781C23.7007 17.3295 23.7411 17.2635 23.7582 17.19V17.51C23.7525 17.6076 23.7847 17.7037 23.848 17.7782C23.9113 17.8527 24.0009 17.8999 24.0982 17.91C24.1974 17.9155 24.2948 17.882 24.3696 17.8166C24.4443 17.7512 24.4905 17.6591 24.4982 17.56C24.6082 16.32 24.7482 15.1 24.8482 13.86C24.9082 13.03 24.9582 12.2 24.9782 11.36V5.48001H24.9682ZM15.0282 19.63C15.1482 20.02 15.2982 20.39 15.4482 20.77C15.5982 21.15 15.6682 21.32 15.7882 21.59C15.1458 21.4904 14.4979 21.4303 13.8482 21.41C12.9768 21.3969 12.1054 21.4337 11.2382 21.52H10.4982C10.5493 21.4461 10.596 21.3693 10.6382 21.29C10.8782 20.48 11.0782 19.67 11.3282 18.87C11.4082 18.62 11.4982 18.37 11.5882 18.13C12.4382 18.06 13.2882 17.98 14.1382 17.93H14.5882C14.7282 18.5 14.8482 19.06 15.0282 19.63Z" fill="#7A387B"/>
<path fill-rule="evenodd" clip-rule="evenodd" d="M7.65821 8.22002C7.52821 8.41002 7.39821 8.59002 7.28821 8.79002C7.17821 8.99002 6.90821 9.47002 6.71821 9.79002C6.58736 9.73231 6.44952 9.69197 6.30821 9.67002C5.98959 9.64206 5.66916 9.69719 5.37821 9.83002C5.13595 9.92333 4.91914 10.0725 4.74538 10.2654C4.57162 10.4582 4.44582 10.6894 4.37821 10.94C4.21821 11.67 4.52821 12.55 5.82821 12.5C7.44821 12.64 7.70821 11.75 7.76821 11.29C7.78469 11.091 7.75842 10.8908 7.69115 10.7028C7.62388 10.5148 7.51718 10.3434 7.37821 10.2C7.73756 9.93025 8.07221 9.62907 8.37821 9.30002C8.61417 9.01196 8.82495 8.70416 9.00821 8.38002C9.28821 7.90002 9.50821 7.38002 9.76821 6.91002C9.79233 6.85836 9.80483 6.80203 9.80483 6.74502C9.80483 6.688 9.79233 6.63168 9.76821 6.58002C10.005 6.63543 10.2514 6.63543 10.4882 6.58002C10.7586 6.94193 11.0633 7.27683 11.3982 7.58002C11.65 7.79011 11.9174 7.98066 12.1982 8.15002C12.4482 8.31002 12.7082 8.46002 12.9582 8.60002C12.7203 8.80272 12.5466 9.07026 12.4582 9.37002C12.3082 10.1 12.6182 10.98 13.9082 10.93C15.5282 11.07 15.7882 10.18 15.8482 9.72002C15.8706 9.48237 15.8255 9.24323 15.7182 9.03002C16.0382 8.86002 16.3682 8.69002 16.6682 8.49002C17.0365 8.24284 17.3724 7.95057 17.6682 7.62002C18.0307 7.2346 18.3649 6.82353 18.6682 6.39002C18.7006 6.35701 18.726 6.31793 18.7432 6.27502C18.7604 6.23211 18.7689 6.18623 18.7682 6.14002C18.8581 6.14557 18.9483 6.14557 19.0382 6.14002C20.6682 6.28002 20.9182 5.39002 20.9782 4.93002C20.9918 4.72417 20.9635 4.51771 20.8952 4.32305C20.8269 4.12839 20.72 3.94955 20.5808 3.79729C20.4416 3.64503 20.2731 3.52248 20.0853 3.43703C19.8975 3.35157 19.6944 3.30497 19.4882 3.30002C19.1669 3.28266 18.8457 3.33733 18.5482 3.46002C18.3085 3.5602 18.0942 3.7128 17.9212 3.90661C17.7481 4.10041 17.6207 4.33052 17.5482 4.58002C17.4734 4.85536 17.4975 5.14822 17.6162 5.40765C17.735 5.66709 17.9409 5.87669 18.1982 6.00002C17.7982 6.30002 17.3782 6.55002 16.9782 6.84002C16.5782 7.13002 16.4182 7.26002 16.1682 7.49002C15.8536 7.80405 15.5597 8.13808 15.2882 8.49002C15.0384 8.31664 14.7501 8.2068 14.4482 8.17002C14.261 8.17634 14.0757 8.21003 13.8982 8.27002C13.6354 7.93257 13.3479 7.61504 13.0382 7.32002C12.8875 7.17279 12.7272 7.03582 12.5582 6.91002C12.3979 6.7876 12.231 6.6741 12.0582 6.57002C11.7882 6.41002 11.5182 6.27002 11.2582 6.13002C11.41 5.93211 11.5067 5.69746 11.5382 5.45002C11.5518 5.24466 11.5235 5.03869 11.4551 4.84458C11.3867 4.65048 11.2796 4.47229 11.1403 4.32081C11.0009 4.16933 10.8323 4.04772 10.6446 3.96336C10.4569 3.879 10.254 3.83363 10.0482 3.83002C9.72908 3.81155 9.41017 3.86984 9.11821 4.00002C8.87482 4.0943 8.65727 4.24498 8.48343 4.43968C8.30959 4.63438 8.18442 4.86754 8.11821 5.12002C8.07052 5.27931 8.05763 5.44699 8.08041 5.6117C8.1032 5.77641 8.16113 5.93429 8.25028 6.07465C8.33942 6.21501 8.4577 6.33456 8.5971 6.42521C8.7365 6.51585 8.89375 6.57547 9.05821 6.60002C8.71821 6.96002 8.36821 7.31002 8.05821 7.70002C7.96821 7.86002 7.79821 8.00002 7.65821 8.22002ZM6.20821 11.73C6.14691 11.7249 6.08525 11.7339 6.02801 11.7564C5.97078 11.779 5.91951 11.8144 5.87821 11.86C5.52821 11.78 5.36821 11.61 5.36821 11.41C5.36821 11.21 5.48821 11.22 5.58821 11.13C5.67878 11.0535 5.78405 10.9962 5.89754 10.9618C6.01104 10.9274 6.13037 10.9166 6.24821 10.93C6.61821 10.93 6.84821 11.17 6.76821 11.4C6.72624 11.5105 6.64791 11.6033 6.54612 11.6633C6.44433 11.7233 6.32515 11.7468 6.20821 11.73ZM18.8982 4.86002C18.9877 4.7855 19.0917 4.73018 19.2035 4.69749C19.3153 4.66481 19.4326 4.65546 19.5482 4.67002C19.9182 4.67002 20.1482 4.90002 20.0682 5.14002C20.026 5.24971 19.9473 5.34148 19.8452 5.39978C19.7432 5.45809 19.6241 5.47937 19.5082 5.46002C19.4473 5.45329 19.3857 5.46268 19.3295 5.48725C19.2733 5.51182 19.2246 5.5507 19.1882 5.60002C18.8282 5.52002 18.6682 5.35002 18.6682 5.15002C18.6682 4.95002 18.7882 5.00002 18.8982 4.86002ZM14.8982 9.86002C14.8562 9.97046 14.7779 10.0633 14.6761 10.1233C14.5743 10.1833 14.4552 10.2068 14.3382 10.19C14.278 10.1788 14.2159 10.1851 14.1592 10.2081C14.1024 10.2312 14.0535 10.27 14.0182 10.32C13.6582 10.24 13.4982 10.07 13.4982 9.87002C13.4982 9.67002 13.6282 9.68002 13.7282 9.58002C13.9114 9.43351 14.145 9.36523 14.3782 9.39002C14.7582 9.41002 14.9682 9.66002 14.8982 9.89002V9.86002ZM9.32821 5.27002C9.41683 5.19729 9.51911 5.14301 9.62902 5.11038C9.73893 5.07775 9.85425 5.06743 9.96821 5.08002C10.3382 5.08002 10.5582 5.31002 10.4882 5.55002C10.4451 5.65047 10.372 5.73514 10.2789 5.79242C10.1858 5.84971 10.0773 5.87681 9.96821 5.87002C9.90369 5.86159 9.8381 5.86902 9.77711 5.89168C9.71612 5.91433 9.66157 5.95152 9.61821 6.00002C9.26821 5.92002 9.09821 5.76002 9.10821 5.56002C9.11821 5.36002 9.22821 5.36002 9.32821 5.27002Z" fill="#998696"/>
</g>
<defs>
<clipPath id="clip0_3013_15864">
<rect width="24" height="24" fill="white" transform="translate(0.968201)"/>
</clipPath>
</defs>
</svg>
