<svg width="25" height="24" viewBox="0 0 25 24" fill="none" xmlns="http://www.w3.org/2000/svg">
<g clip-path="url(#clip0_3013_15818)">
<path fill-rule="evenodd" clip-rule="evenodd" d="M22.2582 10.43C22.1382 9.57997 22.1282 7.75997 21.3582 7.32997C20.1282 6.61997 4.9682 6.99997 3.1982 7.07997C3.12299 7.07992 3.05071 7.1091 2.9966 7.16134C2.94249 7.21358 2.9108 7.2848 2.9082 7.35997C2.9682 7.87997 3.7682 7.99997 13.9682 7.58997C16.2776 7.5896 18.585 7.72651 20.8782 7.99997C21.2882 8.22997 21.5682 13.38 21.5682 13.88C21.5397 15.2307 21.3518 16.5733 21.0082 17.88C21.0082 17.88 20.8982 17.94 20.8082 17.96C18.3882 18.67 4.65821 19.25 2.4982 18.21C2.4282 18.21 2.3682 18.16 2.3482 18.12C1.8682 16.69 1.6382 9.42997 2.1482 7.72997C2.2382 7.42997 1.7282 7.29997 1.6382 7.59997C1.0782 9.33997 1.1382 16.77 1.6382 18.27C2.3082 20.36 17.6382 19.43 20.3982 18.94C21.7282 18.71 21.9582 18.43 22.1482 17.67C22.6643 15.2878 22.7017 12.8267 22.2582 10.43Z" fill="#998696"/>
<path fill-rule="evenodd" clip-rule="evenodd" d="M24.3982 8.32997C24.2882 7.47997 24.2682 5.64997 23.5082 5.22997C22.2782 4.51997 7.2482 4.16997 5.5082 4.63997C4.8182 4.81997 5.0282 5.10997 5.0382 5.25997C5.0382 5.76997 5.0382 5.25997 16.0982 5.48997C16.6282 5.48997 22.5582 5.62997 23.0082 5.89997C23.4582 6.16997 23.8682 11.34 23.8682 11.85C23.8729 12.9504 23.7724 14.0487 23.5682 15.13C23.3882 15.81 23.2782 16.22 23.4182 16.49C23.453 16.5424 23.5064 16.5798 23.5675 16.5946C23.6287 16.6094 23.6932 16.6006 23.7482 16.57C24.1182 16.33 24.3482 15.34 24.4582 14.76C24.5984 14.0013 24.6687 13.2314 24.6682 12.46C24.6985 11.0781 24.6081 9.69617 24.3982 8.32997Z" fill="#7A387B"/>
<path fill-rule="evenodd" clip-rule="evenodd" d="M4.4182 15.2C4.4182 15.59 5.3582 15.61 5.5682 15.64C6.49993 15.6989 7.43468 15.5905 8.3282 15.32C8.37288 15.3281 8.41879 15.3263 8.46269 15.3147C8.5066 15.3032 8.54743 15.2821 8.58229 15.253C8.61715 15.2239 8.64519 15.1875 8.66444 15.1464C8.68368 15.1052 8.69366 15.0604 8.69366 15.015C8.69366 14.9696 8.68368 14.9247 8.66444 14.8836C8.64519 14.8425 8.61715 14.8061 8.58229 14.777C8.54743 14.7479 8.5066 14.7268 8.46269 14.7152C8.41879 14.7036 8.37288 14.7019 8.3282 14.71C7.85801 14.6429 7.38295 14.6162 6.9082 14.63C7.11159 13.4789 7.11159 12.3011 6.9082 11.15L8.3482 11C8.9282 10.92 9.4282 9.58998 4.8282 10.46C4.7891 10.4523 4.74879 10.4535 4.71017 10.4632C4.67155 10.473 4.63557 10.4912 4.60482 10.5166C4.57407 10.5419 4.5493 10.5737 4.5323 10.6098C4.5153 10.6458 4.50648 10.6851 4.50648 10.725C4.50648 10.7648 4.5153 10.8042 4.5323 10.8402C4.5493 10.8762 4.57407 10.908 4.60482 10.9334C4.63557 10.9587 4.67155 10.9769 4.71017 10.9867C4.74879 10.9965 4.7891 10.9976 4.8282 10.99C5.24989 11.1006 5.68252 11.1643 6.1182 11.18C6.02455 12.3432 6.05472 13.5131 6.2082 14.67C4.6882 14.87 4.3482 14.86 4.4182 15.2Z" fill="#7A387B"/>
<path fill-rule="evenodd" clip-rule="evenodd" d="M18.0882 14.16C18.6082 12.64 17.9982 10.49 16.4582 10.16C15.7428 10.1597 15.0533 10.4276 14.5257 10.9108C13.9981 11.394 13.6707 12.0573 13.6082 12.77C13.1882 15.9 17.1282 17 18.0882 14.16ZM14.6982 13.07C14.8182 10.25 17.8282 10.38 17.2382 13.47C17.0882 14.33 16.5382 15.12 15.5482 14.75C15.2407 14.6034 14.9904 14.359 14.8366 14.055C14.6828 13.751 14.6341 13.4046 14.6982 13.07Z" fill="#7A387B"/>
<path fill-rule="evenodd" clip-rule="evenodd" d="M12.2482 10.55C12.3082 10.55 12.3582 10.55 12.3582 10.66C12.351 10.6936 12.3508 10.7283 12.3576 10.762C12.3645 10.7957 12.3781 10.8276 12.3979 10.8557C12.4176 10.8839 12.4429 10.9077 12.4722 10.9256C12.5015 10.9435 12.5342 10.9552 12.5682 10.96C12.9082 11.02 13.0782 10.45 12.6282 10.12C12.2884 9.9568 11.9136 9.87967 11.537 9.89537C11.1603 9.91106 10.7933 10.0191 10.4682 10.21C10.2938 10.2813 10.1382 10.3921 10.0137 10.5336C9.88929 10.6751 9.79931 10.8435 9.75087 11.0257C9.70243 11.2078 9.69684 11.3987 9.73455 11.5833C9.77226 11.768 9.85224 11.9414 9.96821 12.09C10.5082 12.77 12.0682 13.16 12.1082 13.66C12.1682 14.31 11.9782 14.66 11.6482 14.84C11.4252 14.9489 11.1774 14.997 10.9298 14.9794C10.6822 14.9619 10.4436 14.8793 10.2382 14.74C10.181 14.6873 10.106 14.658 10.0282 14.658C9.95041 14.658 9.87545 14.6873 9.81821 14.74C8.98821 15.42 13.0582 16.9 13.0682 13.65C13.0682 12.4 11.2082 12.05 10.7382 11.53C10.2682 11.01 11.6482 10.34 12.2482 10.55Z" fill="#7A387B"/>
</g>
<defs>
<clipPath id="clip0_3013_15818">
<rect width="24" height="24" fill="white" transform="translate(0.968201)"/>
</clipPath>
</defs>
</svg>
