<svg width="25" height="24" viewBox="0 0 25 24" fill="none" xmlns="http://www.w3.org/2000/svg">
<g clip-path="url(#clip0_3013_15813)">
<path fill-rule="evenodd" clip-rule="evenodd" d="M23.5682 4.60001C22.2843 4.27949 20.9594 4.15475 19.6382 4.23001H16.3182C15.3682 4.23001 14.4382 4.30001 13.5082 4.37001C12.5782 4.44001 11.6482 4.54001 10.7082 4.70001C10.6638 4.70487 10.6208 4.71871 10.5819 4.74068C10.5429 4.76266 10.5089 4.79231 10.4818 4.82785C10.4546 4.86339 10.435 4.90406 10.4241 4.94741C10.4132 4.99075 10.4112 5.03587 10.4182 5.08001C10.433 5.16752 10.4804 5.24615 10.551 5.29998C10.6215 5.35382 10.7099 5.37885 10.7982 5.37001C11.7182 5.26001 12.6382 5.21001 13.5482 5.19001C14.4582 5.17001 15.3782 5.19001 16.3082 5.19001L19.5782 5.35001C20.7566 5.30437 21.9354 5.42899 23.0782 5.72001C23.5482 5.92001 23.7782 6.31001 23.6082 7.05001C23.5282 7.43001 23.2382 10.25 22.8982 13.9C22.6782 16.28 22.8082 17.2 23.1182 16.9C23.4282 16.6 23.2382 16.32 23.5782 14.5C24.2382 10.93 24.7782 7.64001 24.8682 7.31001C25.0539 6.7782 25.0214 6.19449 24.7777 5.6866C24.5341 5.17872 24.0992 4.78802 23.5682 4.60001Z" fill="#998696"/>
<path fill-rule="evenodd" clip-rule="evenodd" d="M21.7682 11.4C21.6582 8.97002 20.7182 7.90002 19.4282 7.40002C17.7782 6.79002 15.3382 7.40002 12.9382 7.22002C12.5682 7.22002 10.5582 7.31002 9.6782 7.22002C9.53594 6.58534 9.35221 5.96066 9.1282 5.35002C8.90138 4.81366 8.53544 4.34761 8.0682 4.00002C7.41927 3.60422 6.6677 3.40937 5.9082 3.44002C4.4582 3.44002 2.7082 3.76002 1.6182 3.82002C1.58143 3.79247 1.53931 3.7729 1.49454 3.76257C1.44976 3.75224 1.40333 3.75137 1.3582 3.76002C1.31227 3.76952 1.26888 3.78871 1.23095 3.8163C1.19301 3.84389 1.16139 3.87925 1.1382 3.92002C1.08971 3.94398 1.04888 3.98103 1.02033 4.02697C0.991782 4.07292 0.976654 4.12593 0.976654 4.18002C0.976654 4.23411 0.991782 4.28713 1.02033 4.33307C1.04888 4.37902 1.08971 4.41606 1.1382 4.44002C1.3582 6.35002 1.7182 12.81 2.0682 16.77C2.1882 18.11 2.3182 19.16 2.4082 19.66C2.4279 19.851 2.48935 20.0354 2.5882 20.2C2.70279 20.3124 2.83893 20.4005 2.98845 20.459C3.13796 20.5174 3.29775 20.545 3.4582 20.54H6.8582C10.9382 20.54 19.1582 20.25 21.6182 20.16C21.8048 20.1497 21.9798 20.0662 22.1052 19.9276C22.2306 19.7891 22.2964 19.6067 22.2882 19.42C22.1382 17.44 21.7882 11.84 21.7682 11.4ZM8.3282 19.28H4.9682H3.6282V19.04C3.5282 18.37 3.4082 17.31 3.2582 16.04C2.9482 13.37 2.5282 9.82002 2.2582 7.22002C2.0382 6.06002 1.9682 5.12002 1.8282 4.50002C3.15772 4.3745 4.49283 4.31776 5.8282 4.33002C6.3914 4.31665 6.94554 4.47348 7.4182 4.78002C7.72422 5.04984 7.95506 5.39438 8.0882 5.78002C8.3382 6.46002 8.4182 7.23002 8.6082 7.92002C8.63868 8.00362 8.68651 8.07982 8.74856 8.14359C8.81061 8.20736 8.88547 8.25727 8.9682 8.29002C9.14959 8.37978 9.34645 8.43409 9.5482 8.45002C10.3982 8.56002 12.5482 8.50002 12.9182 8.52002C14.2382 8.59002 15.5782 8.45002 16.7782 8.40002C17.5474 8.33243 18.3224 8.40012 19.0682 8.60002C19.9982 8.92002 20.5882 9.73002 20.7282 11.47C20.7782 12.01 21.0882 14.9 21.2982 17.08C21.3882 18.08 21.4582 18.91 21.4682 19.28C19.1782 19.32 12.9682 19.3 8.3282 19.28Z" fill="#7A387B"/>
<path fill-rule="evenodd" clip-rule="evenodd" d="M14.6382 10.78C14.3365 10.5262 13.9997 10.3174 13.6382 10.16C13.2759 10.0012 12.8968 9.8838 12.5082 9.81C11.5788 9.68907 10.6343 9.84347 9.79173 10.2541C8.94919 10.6647 8.24563 11.3134 7.76819 12.12C7.50064 12.5047 7.31525 12.9404 7.22358 13.3999C7.1319 13.8595 7.13593 14.3329 7.23539 14.7909C7.33485 15.2488 7.52762 15.6813 7.80167 16.0613C8.07572 16.4414 8.42516 16.761 8.82819 17C9.06656 17.1634 9.32547 17.2945 9.59819 17.39C9.85926 17.4798 10.1267 17.55 10.3982 17.6C10.46 17.6075 10.5225 17.5963 10.5778 17.5677C10.6331 17.5392 10.6785 17.4947 10.7082 17.44H10.7782C10.8196 17.4171 10.8561 17.3862 10.8855 17.3491C10.915 17.312 10.9368 17.2695 10.9498 17.224C10.9628 17.1785 10.9667 17.1309 10.9613 17.0839C10.9559 17.0368 10.9412 16.9914 10.9182 16.95C10.6474 16.1664 10.5786 15.3272 10.7182 14.51L11.3282 14.56H12.4482C12.4482 14.77 12.4482 14.99 12.5082 15.2C12.5383 15.8447 12.4811 16.4906 12.3382 17.12C12.0333 17.209 11.715 17.2428 11.3982 17.22C11.3561 17.2081 11.3121 17.2049 11.2688 17.2107C11.2254 17.2164 11.1838 17.231 11.1463 17.2535C11.1088 17.276 11.0763 17.3059 11.0509 17.3414C11.0254 17.3769 11.0075 17.4173 10.9982 17.46C10.9894 17.5562 11.0176 17.6522 11.0771 17.7283C11.1365 17.8045 11.2227 17.8551 11.3182 17.87C12.1697 18.0341 13.0514 17.917 13.8306 17.5365C14.6097 17.1559 15.2441 16.5324 15.6382 15.76C16.129 14.9565 16.2986 13.9973 16.1133 13.0742C15.9279 12.151 15.4012 11.3318 14.6382 10.78ZM13.9082 11.71C14.4795 12.1174 14.8844 12.7176 15.0482 13.4C14.9924 13.386 14.934 13.386 14.8782 13.4C14.4397 13.4454 13.999 13.4654 13.5582 13.46C13.5582 13.21 13.4882 12.95 13.4282 12.7C13.3113 12.1928 13.1576 11.6948 12.9682 11.21L13.1482 11.27C13.4202 11.3818 13.6758 11.5298 13.9082 11.71ZM8.63819 12.71C9.07302 12.0736 9.68 11.5742 10.3882 11.27C10.1728 11.6636 9.99216 12.0751 9.84819 12.5C9.76954 12.7864 9.70612 13.0768 9.65819 13.37H8.30819C8.39149 13.1282 8.50221 12.8966 8.63819 12.68V12.71ZM9.24819 16.45C8.87184 16.1932 8.57248 15.8388 8.38222 15.4248C8.19196 15.0108 8.11797 14.5528 8.16819 14.1L9.56819 14.35V14.7C9.59201 15.4427 9.77263 16.172 10.0982 16.84L9.84819 16.76C9.63429 16.6732 9.43259 16.5589 9.24819 16.42V16.45ZM12.0782 13.39H10.8882C10.8882 13.22 10.8882 13.04 10.9582 12.88C11.0639 12.2376 11.2348 11.6077 11.4682 11C11.6641 10.9751 11.8623 10.9751 12.0582 11C12.1782 11.73 12.2582 12.51 12.3382 13.32L12.0782 13.39ZM14.7982 15.3C14.4477 15.9637 13.8891 16.4942 13.2082 16.81C13.4383 16.1659 13.5763 15.4926 13.6182 14.81V14.29C14.0882 14.21 14.5682 14.17 15.0182 14.05L15.0882 14C15.0909 14.44 14.9916 14.8747 14.7982 15.27V15.3Z" fill="#7A387B"/>
</g>
<defs>
<clipPath id="clip0_3013_15813">
<rect width="24" height="24" fill="white" transform="translate(0.968201)"/>
</clipPath>
</defs>
</svg>
