<svg width="25" height="24" viewBox="0 0 25 24" fill="none" xmlns="http://www.w3.org/2000/svg">
<g clip-path="url(#clip0_3013_15809)">
<path fill-rule="evenodd" clip-rule="evenodd" d="M22.9682 13.13C22.2282 12.84 21.6182 13.33 21.0982 13.93C21.1147 13.0942 20.9861 12.2619 20.7182 11.47C20.8482 11.34 20.9582 11.17 21.0682 11.07L22.3682 9.87002C22.5382 9.69002 23.6682 9.75002 24.0682 9.70002C24.1446 9.68656 24.2139 9.6466 24.2637 9.58717C24.3136 9.52773 24.341 9.45261 24.341 9.37502C24.341 9.29742 24.3136 9.2223 24.2637 9.16287C24.2139 9.10343 24.1446 9.06347 24.0682 9.05002C23.4082 8.98002 22.3982 8.54002 21.6882 9.05002C19.5682 10.78 21.1182 11.44 19.6382 9.34002C19.2582 8.80002 18.2782 7.80002 17.6382 7.81002C17.5618 7.82347 17.4925 7.86343 17.4427 7.92287C17.3928 7.9823 17.3654 8.05742 17.3654 8.13502C17.3654 8.21261 17.3928 8.28773 17.4427 8.34717C17.4925 8.4066 17.5618 8.44656 17.6382 8.46002C18.0182 8.46002 18.8582 9.39002 19.0882 9.74002C19.3149 10.0776 19.5154 10.4319 19.6882 10.8C20.2908 12.0414 20.4834 13.4421 20.2382 14.8C19.3882 19.96 16.4082 21.94 11.2982 21.23C10.1672 21.1729 9.06941 20.8287 8.1082 20.23C5.49821 18.23 5.1082 14.42 6.34821 11.42C6.38993 11.2095 6.47883 11.0112 6.6082 10.84C8.3882 7.37002 12.4882 6.20002 15.0582 7.30002C15.343 7.40661 15.5972 7.58178 15.7982 7.81002C15.8234 7.84317 15.8559 7.87005 15.8932 7.88856C15.9305 7.90706 15.9716 7.91669 16.0132 7.91669C16.0548 7.91669 16.0959 7.90706 16.1332 7.88856C16.1705 7.87005 16.203 7.84317 16.2282 7.81002C16.5882 7.70002 16.8782 7.20002 17.1082 6.75002C17.3194 6.30145 17.4578 5.82211 17.5182 5.33002C17.5182 5.20002 17.7082 4.91002 17.6882 4.76002C17.9731 4.81917 18.269 4.79586 18.5411 4.6928C18.8132 4.58975 19.0503 4.41124 19.2246 4.1782C19.3988 3.94516 19.503 3.66727 19.5249 3.37711C19.5468 3.08695 19.4855 2.79657 19.3482 2.54002C18.5882 0.910017 16.6382 1.78002 17.2582 2.47002C17.6482 2.98002 18.0682 1.65002 18.4282 2.89002C18.4653 2.99174 18.4782 3.10067 18.4661 3.20825C18.454 3.31583 18.417 3.41912 18.3582 3.51002C18.0982 3.89002 17.4282 3.76002 17.1882 3.51002C17.1037 3.13517 16.9727 2.77236 16.7982 2.43002C16.7623 2.40623 16.722 2.38993 16.6797 2.38208C16.6374 2.37423 16.594 2.37499 16.5519 2.38433C16.5099 2.39367 16.4702 2.41138 16.4352 2.43641C16.4002 2.46144 16.3706 2.49328 16.3482 2.53002C16.2774 2.79356 16.2613 3.0688 16.3008 3.3388C16.3404 3.60881 16.4348 3.86786 16.5782 4.10002C16.6889 4.22431 16.8169 4.33207 16.9582 4.42002C16.0182 5.77002 16.3182 6.55002 15.9582 7.11002C14.8382 6.11002 12.5582 6.11002 11.0882 6.39002C9.8182 6.68002 10.0882 6.99002 9.7782 6.22002C9.57599 5.51762 9.18924 4.88225 8.65821 4.38002C8.78371 4.27318 8.88875 4.14442 8.9682 4.00002C9.15531 3.48913 9.13375 2.92513 8.90821 2.43002C8.87837 2.39917 8.84263 2.37464 8.80311 2.35789C8.7636 2.34114 8.72112 2.3325 8.67821 2.3325C8.63529 2.3325 8.59281 2.34114 8.5533 2.35789C8.51378 2.37464 8.47804 2.39917 8.4482 2.43002C8.30821 2.54002 8.25821 3.57002 8.24821 3.58002C8.05821 3.84002 7.49821 4.06002 7.24821 3.76002C7.16581 3.66626 7.10744 3.55387 7.07813 3.43254C7.04882 3.31122 7.04944 3.18458 7.07995 3.06355C7.11045 2.94251 7.16992 2.83071 7.25324 2.73776C7.33655 2.64482 7.44121 2.57352 7.55821 2.53002C7.58309 2.57596 7.61992 2.61432 7.6648 2.64106C7.70969 2.66779 7.76096 2.6819 7.8132 2.6819C7.86545 2.6819 7.91672 2.66779 7.96161 2.64106C8.00649 2.61432 8.04332 2.57596 8.0682 2.53002C8.5282 1.73002 6.5082 1.26002 6.0682 3.01002C6.00061 3.26914 6.00361 3.54163 6.0769 3.7992C6.1502 4.05677 6.29111 4.29002 6.485 4.47473C6.6789 4.65944 6.91871 4.78888 7.17953 4.8496C7.44035 4.91031 7.71267 4.9001 7.9682 4.82002C8.23571 5.66906 8.69409 6.44558 9.3082 7.09002C7.67047 7.85709 6.35646 9.17818 5.59821 10.82C5.30678 10.105 4.83472 9.47786 4.2282 9.00002C3.5182 8.52002 2.5082 9.00002 1.8382 9.00002C1.79533 9 1.75288 9.00859 1.71339 9.0253C1.6739 9.042 1.63817 9.06647 1.60832 9.09725C1.57847 9.12803 1.55511 9.1645 1.53963 9.20448C1.52415 9.24447 1.51686 9.28716 1.5182 9.33002C1.5182 9.79002 2.0682 9.62002 3.0882 9.71002C3.5782 9.71002 3.2982 9.59002 4.8382 11.02C4.9882 11.16 5.05821 11.31 5.26821 11.5C4.99153 12.2316 4.80352 12.9937 4.7082 13.77C3.7782 12.77 3.2282 12.87 2.3682 13.36C1.1482 14.06 1.1382 14.03 1.1482 14.01C0.918205 14.18 0.848205 14.55 1.2882 14.65C1.7282 14.75 3.2182 14.02 3.4982 14.12C3.92524 14.2899 4.31315 14.5451 4.6382 14.87C4.63168 15.8921 4.80429 16.9075 5.1482 17.87C4.94499 17.6566 4.6895 17.5 4.40708 17.4158C4.12465 17.3316 3.82512 17.3227 3.5382 17.39C2.6982 17.69 2.3582 18.53 2.0082 19.12C2.0082 19.2 1.5582 19.78 1.5982 19.95C1.60646 19.9876 1.62211 20.0232 1.64424 20.0546C1.66637 20.0861 1.69455 20.1129 1.72712 20.1333C1.7597 20.1538 1.79602 20.1676 1.83398 20.1739C1.87193 20.1802 1.91076 20.1789 1.9482 20.17C2.2082 20.17 2.4882 19.7 2.5982 19.58C3.5082 18.68 3.6782 18.49 3.8882 18.43C4.0982 18.37 4.8882 18.84 5.6682 19C6.11806 19.7957 6.71937 20.4955 7.4382 21.06C8.55235 21.7747 9.8358 22.1818 11.1582 22.24C14.7082 22.68 17.9182 21.99 19.7382 18.92C20.3082 19.36 21.6282 18.26 22.0482 18.43C22.2782 18.49 22.4582 18.71 23.3382 19.58C23.4482 19.69 23.7382 20.14 23.9982 20.17C24.035 20.1788 24.0732 20.18 24.1105 20.1736C24.1479 20.1672 24.1835 20.1533 24.2153 20.1327C24.247 20.1122 24.2743 20.0854 24.2954 20.054C24.3166 20.0226 24.3311 19.9872 24.3382 19.95C24.0486 19.2729 23.6865 18.6292 23.2582 18.03C23.0738 17.748 22.8004 17.5357 22.4815 17.427C22.1626 17.3182 21.8165 17.3193 21.4982 17.43C21.1682 17.56 20.6382 17.72 20.2582 17.87C20.6261 16.9785 20.8814 16.0447 21.0182 15.09C21.1982 15.09 21.6682 14.42 22.4382 14.15C22.7282 14.04 24.2382 14.78 24.6482 14.68C24.8782 14.68 24.9782 14.52 24.9682 14.36C24.9682 14 23.0782 13.16 22.9682 13.13Z" fill="#7A387B"/>
<path fill-rule="evenodd" clip-rule="evenodd" d="M12.6382 11.67C12.6382 13.52 12.5682 14.95 12.6382 16.41C12.7082 18.05 12.9582 19.76 12.9082 20.19C12.9072 20.2579 12.9301 20.3241 12.9729 20.3768C13.0157 20.4296 13.0756 20.4657 13.1423 20.4788C13.2089 20.4919 13.2781 20.4812 13.3377 20.4485C13.3972 20.4158 13.4434 20.3633 13.4682 20.3C13.728 18.6804 13.8018 17.0364 13.6882 15.4C13.6182 14.4 13.3382 12.52 13.3082 11.67C15.3082 11.67 17.0082 11.62 18.5282 11.52L19.4282 11.44C19.6282 11.36 19.3482 10.67 18.6382 10.74C14.9763 10.4757 11.3001 10.4757 7.6382 10.74C6.9982 10.92 6.8182 11.39 7.4882 11.51C8.5182 11.57 10.4282 11.67 12.6382 11.67Z" fill="#998696"/>
</g>
<defs>
<clipPath id="clip0_3013_15809">
<rect width="24" height="24" fill="white" transform="translate(0.968201)"/>
</clipPath>
</defs>
</svg>
