<svg width="25" height="24" viewBox="0 0 25 24" fill="none" xmlns="http://www.w3.org/2000/svg">
<g clip-path="url(#clip0_3013_15773)">
<path fill-rule="evenodd" clip-rule="evenodd" d="M18.1982 6.74998C17.9908 6.55709 17.7665 6.38307 17.5282 6.22998C17.1411 5.97719 16.7247 5.77236 16.2882 5.61998C15.8574 5.47115 15.4162 5.35417 14.9682 5.26998C13.6408 5.04085 12.281 5.07825 10.9682 5.37998C9.71094 5.64909 8.5458 6.242 7.5882 7.09998H7.5182C7.47484 7.10253 7.4324 7.11361 7.39333 7.13259C7.35426 7.15158 7.31933 7.17809 7.29052 7.21061C7.26172 7.24313 7.23963 7.28101 7.2255 7.32209C7.21137 7.36316 7.20549 7.40662 7.2082 7.44998C7.2082 8.44998 7.0982 9.44998 7.0882 10.45V11.71C7.0882 12.13 7.1382 12.55 7.1782 12.97C7.2582 13.97 7.3882 14.97 7.4982 15.92V16C7.4982 16.03 7.4382 16 7.4182 16C7.38706 16.0307 7.36233 16.0673 7.34545 16.1076C7.32857 16.148 7.31988 16.1912 7.31988 16.235C7.31988 16.2787 7.32857 16.322 7.34545 16.3623C7.36233 16.4027 7.38706 16.4393 7.4182 16.47C7.73124 16.8029 8.09592 17.0832 8.4982 17.3C9.07965 17.6099 9.68901 17.8644 10.3182 18.06C10.9411 18.2502 11.5806 18.3808 12.2282 18.45C14.2012 18.6299 16.1774 18.1402 17.8382 17.06C17.8818 17.0353 17.9199 17.0019 17.9503 16.962C17.9806 16.9221 18.0025 16.8765 18.0147 16.8278C18.0268 16.7792 18.029 16.7286 18.021 16.6791C18.013 16.6297 17.995 16.5823 17.9682 16.54C18.0242 16.5053 18.0703 16.4566 18.1019 16.3988C18.1334 16.3409 18.1494 16.2759 18.1482 16.21C18.1482 15.16 18.2082 14.11 18.2582 13.05C18.2582 12.34 18.3282 11.64 18.3282 10.93C18.3282 9.83998 18.2482 8.74998 18.1882 7.67998C18.2124 7.64472 18.2391 7.6113 18.2682 7.57998C18.3502 7.45345 18.3878 7.30325 18.3752 7.15301C18.3625 7.00276 18.3002 6.86099 18.1982 6.74998ZM11.1382 6.30998C12.3404 6.12573 13.5671 6.18009 14.7482 6.46998C15.123 6.55092 15.4908 6.66126 15.8482 6.79998C16.2006 6.92537 16.5364 7.09327 16.8482 7.29998C16.693 7.43683 16.5217 7.55435 16.3382 7.64998C15.952 7.87005 15.5384 8.03817 15.1082 8.14998C13.9956 8.45531 12.837 8.55695 11.6882 8.44998C10.5319 8.37528 9.4042 8.05844 8.3782 7.51998C8.29725 7.49178 8.20915 7.49178 8.1282 7.51998C9.01941 6.88006 10.052 6.46495 11.1382 6.30998ZM11.6082 9.42998C12.8819 9.61773 14.1788 9.5771 15.4382 9.30998C16.0802 9.17121 16.695 8.92798 17.2582 8.58998L17.3982 8.47998C17.3082 9.12998 17.2082 9.76998 17.1482 10.42C17.1482 10.87 17.0882 11.32 17.0782 11.76C17.0732 11.8366 17.0732 11.9134 17.0782 11.99C15.9493 12.2142 14.7988 12.3115 13.6482 12.28C12.8682 12.28 12.0982 12.2 11.3282 12.11C10.3282 12.01 9.3782 11.87 8.3782 11.67V11.61C8.3782 11.19 8.3782 10.76 8.2982 10.34C8.2182 9.59998 8.0982 8.86998 7.9682 8.12998C9.07619 8.81535 10.3167 9.2584 11.6082 9.42998ZM12.7482 17.2C12.044 17.1887 11.3418 17.1218 10.6482 17C10.0736 16.9011 9.51069 16.7436 8.9682 16.53C8.70462 16.4157 8.45333 16.275 8.2182 16.11C8.28161 16.0381 8.3171 15.9458 8.3182 15.85C8.3182 14.85 8.4182 13.85 8.4382 12.85V12.46C9.30304 12.7997 10.1922 13.0738 11.0982 13.28C11.61 13.3783 12.1278 13.4418 12.6482 13.47C13.1739 13.5149 13.7025 13.5149 14.2282 13.47C15.22 13.3718 16.1967 13.157 17.1382 12.83C17.1332 12.9199 17.1332 13.01 17.1382 13.1C17.1922 14.1551 17.3023 15.2066 17.4682 16.25C17.4825 16.3027 17.51 16.3509 17.5482 16.39C16.7099 16.7985 15.806 17.0558 14.8782 17.15C14.1707 17.2238 13.4584 17.2406 12.7482 17.2Z" fill="#7A387B"/>
<path fill-rule="evenodd" clip-rule="evenodd" d="M19.0482 5.87998C19.3594 5.71929 19.66 5.53892 19.9482 5.33998C20.0663 5.23795 20.1735 5.12401 20.2682 4.99998C20.369 4.89566 20.4594 4.78179 20.5382 4.65998C20.7182 4.37998 20.8582 4.09998 21.0182 3.81998C21.1458 3.88926 21.2798 3.94618 21.4182 3.98998C21.4182 3.98998 23.0882 4.36998 23.8482 3.43998C24.1752 3.03093 24.3549 2.52366 24.3582 1.99998C24.3126 1.69428 24.1991 1.40268 24.026 1.14657C23.853 0.890468 23.6248 0.676366 23.3582 0.519982C22.89 0.173297 22.3207 -0.00945994 21.7382 -1.79008e-05C21.4051 0.0395598 21.0841 0.14911 20.7963 0.321449C20.5085 0.493787 20.2604 0.72502 20.0682 0.999982C19.8692 1.29549 19.7628 1.64368 19.7628 1.99998C19.7628 2.35628 19.8692 2.70447 20.0682 2.99998C20.1621 3.1157 20.2696 3.21977 20.3882 3.30998C20.1582 3.46998 19.9182 3.61998 19.6982 3.79998C19.5845 3.88853 19.4775 3.98547 19.3782 4.08998C19.2775 4.19081 19.1871 4.30135 19.1082 4.41998C18.9292 4.71119 18.7656 5.0116 18.6182 5.31998C18.5559 5.38231 18.5209 5.46684 18.5209 5.55498C18.5209 5.64312 18.5559 5.72766 18.6182 5.78998C18.6805 5.85231 18.7651 5.88732 18.8532 5.88732C18.9413 5.88732 19.0259 5.85231 19.0882 5.78998L19.0482 5.87998ZM21.0982 1.75998C21.1876 1.63127 21.3017 1.52165 21.4339 1.43752C21.5661 1.35339 21.7137 1.29644 21.8682 1.26998C22.1839 1.23673 22.5022 1.30317 22.7782 1.45998C22.9137 1.51835 23.0354 1.60462 23.1353 1.71317C23.2353 1.82172 23.3112 1.95011 23.3582 2.08998C23.4182 2.35998 23.2982 3.85998 21.6782 3.20998C21.3654 3.07414 21.1129 2.82878 20.9682 2.51998C20.9131 2.39449 20.896 2.25557 20.9191 2.12047C20.9422 1.98537 21.0045 1.86002 21.0982 1.75998Z" fill="#998696"/>
<path fill-rule="evenodd" clip-rule="evenodd" d="M6.6682 18C6.38961 18.1151 6.11901 18.2488 5.8582 18.4C5.75263 18.4724 5.65538 18.5562 5.5682 18.65C5.47849 18.7355 5.40108 18.8331 5.3382 18.94C5.1782 19.17 5.0582 19.41 4.9182 19.66C4.79144 19.5889 4.65731 19.5319 4.5182 19.49C4.5182 19.49 2.8482 19.1 2.0882 20C1.73991 20.4321 1.55887 20.9753 1.5782 21.53C1.62382 21.8357 1.73731 22.1273 1.91035 22.3834C2.0834 22.6395 2.3116 22.8536 2.5782 23.01C3.06678 23.3398 3.64956 23.5013 4.2382 23.47C4.56627 23.4239 4.88096 23.3092 5.16179 23.1335C5.44263 22.9578 5.68332 22.7249 5.8682 22.45C6.06854 22.155 6.17565 21.8066 6.17565 21.45C6.17565 21.0934 6.06854 20.745 5.8682 20.45C5.77243 20.3424 5.66881 20.2422 5.5582 20.15C5.76268 20.0433 5.95978 19.923 6.1482 19.79C6.35266 19.659 6.52936 19.4891 6.6682 19.29C6.8382 19.03 6.9282 18.78 7.0882 18.51C7.13387 18.449 7.15775 18.3745 7.15599 18.2983C7.15424 18.2222 7.12697 18.1488 7.07854 18.09C7.03012 18.0312 6.96334 17.9903 6.88894 17.974C6.81453 17.9577 6.73679 17.9668 6.6682 18ZM4.8382 21.74C4.75063 21.8713 4.63717 21.9834 4.50477 22.0694C4.37237 22.1554 4.22382 22.2134 4.0682 22.24C3.75275 22.2681 3.43604 22.202 3.1582 22.05C3.02269 21.9916 2.90099 21.9053 2.80106 21.7968C2.70112 21.6882 2.62519 21.5598 2.5782 21.42C2.5182 21.15 2.6382 19.65 4.2582 20.3C4.57275 20.4383 4.82546 20.6874 4.9682 21C5.02164 21.1224 5.0378 21.2579 5.01468 21.3896C4.99156 21.5212 4.93018 21.643 4.8382 21.74Z" fill="#998696"/>
<path fill-rule="evenodd" clip-rule="evenodd" d="M21.4182 20C21.2605 20.0479 21.1094 20.115 20.9682 20.2C20.9682 20.2 20.9682 20.13 20.9682 20.1C20.842 19.8328 20.7018 19.5724 20.5482 19.32C20.4838 19.2168 20.4102 19.1198 20.3282 19.03C20.2496 18.9315 20.1549 18.847 20.0482 18.78C19.7903 18.621 19.5231 18.4774 19.2482 18.35C19.2182 18.3176 19.1819 18.2917 19.1415 18.274C19.101 18.2563 19.0573 18.2472 19.0132 18.2472C18.9691 18.2472 18.9254 18.2563 18.885 18.274C18.8445 18.2917 18.8082 18.3176 18.7782 18.35C18.7471 18.3807 18.7223 18.4173 18.7055 18.4576C18.6886 18.498 18.6799 18.5413 18.6799 18.585C18.6799 18.6287 18.6886 18.672 18.7055 18.7124C18.7223 18.7527 18.7471 18.7893 18.7782 18.82C18.9282 19.09 19.0082 19.35 19.1782 19.61C19.2427 19.7099 19.3164 19.8036 19.3982 19.89C19.4869 19.9753 19.5804 20.0554 19.6782 20.13C19.9182 20.31 20.1582 20.44 20.4082 20.6C20.2876 20.7022 20.174 20.8125 20.0682 20.93C19.8692 21.2255 19.7628 21.5737 19.7628 21.93C19.7628 22.2863 19.8692 22.6345 20.0682 22.93C20.2604 23.205 20.5085 23.4362 20.7963 23.6085C21.0841 23.7809 21.4051 23.8904 21.7382 23.93C22.3273 23.9658 22.9115 23.8039 23.3982 23.47C23.6648 23.3136 23.893 23.0995 24.066 22.8434C24.2391 22.5873 24.3526 22.2957 24.3982 21.99C24.4158 21.4355 24.2349 20.893 23.8882 20.46C23.0882 19.59 21.4582 20 21.4182 20ZM22.7782 22.57C22.5022 22.7268 22.1839 22.7933 21.8682 22.76C21.7137 22.7335 21.5661 22.6766 21.4339 22.5925C21.3017 22.5083 21.1876 22.3987 21.0982 22.27C21.0012 22.1721 20.9352 22.0478 20.9085 21.9126C20.8818 21.7774 20.8956 21.6374 20.9482 21.51C21.0978 21.1976 21.3579 20.9518 21.6782 20.82C23.2982 20.17 23.4182 21.67 23.3582 21.94C23.3077 22.0743 23.2301 22.1969 23.1304 22.3001C23.0306 22.4033 22.9108 22.4849 22.7782 22.54V22.57Z" fill="#998696"/>
<path fill-rule="evenodd" clip-rule="evenodd" d="M4.5182 4.52995C4.67301 4.48275 4.82354 4.42253 4.9682 4.34995C5.1382 4.60995 5.2782 4.86995 5.4682 5.11995C5.54638 5.23011 5.63333 5.33378 5.7282 5.42995C5.80212 5.51891 5.88233 5.60246 5.9682 5.67995C6.24933 5.84703 6.54364 5.99084 6.8482 6.10995C6.91451 6.1683 7.00127 6.19792 7.08941 6.19229C7.17756 6.18667 7.25985 6.14626 7.3182 6.07995C7.37655 6.01365 7.40617 5.92688 7.40054 5.83874C7.39491 5.7506 7.35451 5.6683 7.2882 5.60995C7.1182 5.32995 6.9982 5.05995 6.7982 4.78995C6.71686 4.68864 6.63007 4.59183 6.5382 4.49995C6.44176 4.41142 6.33807 4.33114 6.2282 4.25995C6.0082 4.11995 5.7982 3.99995 5.5782 3.87995C5.69111 3.79035 5.79495 3.68987 5.8882 3.57995C6.08854 3.28494 6.19565 2.93656 6.19565 2.57995C6.19565 2.22335 6.08854 1.87496 5.8882 1.57995C5.70311 1.28687 5.45572 1.03815 5.16364 0.851494C4.87155 0.664834 4.54192 0.544809 4.1982 0.499953C3.60505 0.480357 3.02186 0.656016 2.5382 0.999953C2.2716 1.15634 2.0434 1.37044 1.87035 1.62654C1.69731 1.88265 1.58382 2.17425 1.5382 2.47995C1.53249 3.03632 1.72779 3.57606 2.0882 3.99995C2.8482 4.89995 4.4782 4.52995 4.5182 4.52995ZM3.1582 1.99995C3.43337 1.8403 3.75145 1.77039 4.0682 1.79995C4.22382 1.82651 4.37237 1.88456 4.50477 1.97053C4.63717 2.05651 4.75063 2.1686 4.8382 2.29995C4.92244 2.39322 4.97919 2.50801 5.00213 2.63158C5.02508 2.75515 5.01334 2.88266 4.9682 2.99995C4.8186 3.31233 4.55851 3.55817 4.2382 3.68995C4.1382 3.68995 3.0882 4.15995 2.6782 3.31995C2.56525 3.09079 2.52345 2.83307 2.5582 2.57995C2.61054 2.44577 2.69125 2.32448 2.79481 2.22437C2.89836 2.12427 3.02232 2.04772 3.1582 1.99995Z" fill="#998696"/>
</g>
<defs>
<clipPath id="clip0_3013_15773">
<rect width="24" height="24" fill="white" transform="translate(0.968201)"/>
</clipPath>
</defs>
</svg>
