<svg width="25" height="24" viewBox="0 0 25 24" fill="none" xmlns="http://www.w3.org/2000/svg">
<path fill-rule="evenodd" clip-rule="evenodd" d="M15.2282 19.84C17.0436 19.6318 18.7701 18.9412 20.2282 17.84C20.2651 17.815 20.2965 17.7828 20.3207 17.7454C20.3448 17.7079 20.3611 17.666 20.3685 17.6221C20.376 17.5782 20.3745 17.5332 20.3642 17.4899C20.3538 17.4465 20.3347 17.4058 20.3082 17.37C19.9782 16.89 19.7482 17.65 17.5982 18.37C16.8232 18.6301 16.0151 18.7783 15.1982 18.81C10.0682 19.11 8.11819 18.67 5.33819 17.32C5.04819 17.07 4.85819 17.65 5.39819 18.1C9.12819 20.32 11.3282 20.2 15.2282 19.84Z" fill="#998696"/>
<path fill-rule="evenodd" clip-rule="evenodd" d="M22.0282 6C22.0282 5.90983 21.9924 5.82335 21.9286 5.75958C21.8648 5.69582 21.7784 5.66 21.6882 5.66C21.598 5.66 21.5115 5.69582 21.4478 5.75958C21.384 5.82335 21.3482 5.90983 21.3482 6C21.3482 6 21.4282 13.07 21.4282 13.54C21.4282 14.6 21.6582 19.36 21.0382 20.07C19.2482 22.15 13.8782 23.87 8.1182 22.12C7.10861 21.8424 6.15458 21.3924 5.29819 20.79C4.29819 19.93 4.23819 5.79 4.29819 4.46C4.87796 5.06569 5.57109 5.55156 6.33819 5.89C8.62819 6.97 11.7082 6.75 14.2482 6.66C16.9782 6.54 22.0782 5.86 22.0282 3.14C22.0282 1.69 19.8282 0.42 18.5282 0.44C18.438 0.44 18.3515 0.475821 18.2878 0.539584C18.224 0.603346 18.1882 0.689826 18.1882 0.78C18.1882 0.870174 18.224 0.956654 18.2878 1.02042C18.3515 1.08418 18.438 1.12 18.5282 1.12C19.5282 1.12 21.2482 2.19 21.2382 3.12C21.2382 3.76 20.6482 4.42 19.1482 4.92C17.5481 5.38999 15.8856 5.61256 14.2182 5.58C12.0282 5.63 8.80819 5.78 6.81819 4.84C5.54819 4.25 4.21819 3.5 5.22819 2.53C6.1682 2 6.96819 1.11 10.6782 0.84C12.8316 0.748112 14.9886 0.781502 17.1382 0.94C17.1763 0.948746 17.2158 0.949684 17.2544 0.942757C17.2929 0.935829 17.3296 0.92118 17.3623 0.899692C17.395 0.878204 17.423 0.85032 17.4446 0.81772C17.4663 0.78512 17.4811 0.748478 17.4882 0.71C17.5682 0.34 17.0982 0.31 16.7182 0.27C16.6182 0.26 12.4882 0 10.6382 0C9.42552 0.018338 8.21973 0.186274 7.04819 0.5C5.69819 0.89 3.62819 1.84 3.74819 3.34C3.44819 5.57 3.74819 8.29 3.63819 9.77C3.49049 12.9289 3.51386 16.0936 3.70819 19.25C3.80143 20.3046 4.2867 21.2858 5.06819 22C5.87492 22.5963 6.80392 23.0062 7.7882 23.2C14.0582 25.12 19.7882 23.2 21.7882 20.71C22.7582 19.6 22.3382 15.72 22.0282 6Z" fill="#7A387B"/>
<path fill-rule="evenodd" clip-rule="evenodd" d="M18.7882 14.6C19.5266 14.4351 20.2132 14.0917 20.7882 13.6C21.2282 13.09 20.7882 12.76 20.4382 13C20.0882 13.24 20.3382 13.23 18.5482 13.78C14.1582 15.12 7.5482 14.45 5.1882 13.25C4.7782 12.97 4.6582 13.73 5.1882 13.99C7.8782 15.49 13.6382 16.49 18.7882 14.6Z" fill="#998696"/>
<path fill-rule="evenodd" clip-rule="evenodd" d="M8.68819 11C11.6339 11.3355 14.6132 11.231 17.5282 10.69C18.3561 10.5176 19.1501 10.2102 19.8782 9.78C19.9221 9.75972 19.9613 9.7303 19.9929 9.69369C20.0246 9.65708 20.0481 9.61413 20.0618 9.56772C20.0755 9.5213 20.0792 9.47249 20.0725 9.42455C20.0659 9.3766 20.0491 9.33063 20.0232 9.28971C19.9974 9.24878 19.9631 9.21385 19.9227 9.18724C19.8822 9.16064 19.8366 9.14297 19.7888 9.13542C19.741 9.12788 19.6921 9.13063 19.6454 9.14349C19.5988 9.15635 19.5554 9.17902 19.5182 9.21C17.6482 10.29 14.0582 10.07 12.5182 10.03C10.3982 10.03 7.23819 10.59 5.08819 8.91C4.65819 8.8 4.72819 9.36 5.01819 9.73C6.02819 10.62 7.32819 10.72 8.68819 11Z" fill="#998696"/>
</svg>
