<svg width="25" height="24" viewBox="0 0 25 24" fill="none" xmlns="http://www.w3.org/2000/svg">
<g clip-path="url(#clip0_3013_15780)">
<path fill-rule="evenodd" clip-rule="evenodd" d="M19.8982 17.7C19.9489 17.3743 19.9107 17.0409 19.7876 16.7351C19.6645 16.4293 19.4611 16.1624 19.1989 15.9627C18.9366 15.7629 18.6253 15.6377 18.2978 15.6003C17.9703 15.5628 17.6387 15.6146 17.3382 15.75C16.4485 16.1888 15.6455 16.7851 14.9682 17.51C14.5482 17.86 13.1082 18.92 13.0782 18.95C12.3161 18.945 11.5621 18.7922 10.8582 18.5C10.8582 18.5 10.8582 18.5 10.7982 18.5C10.7382 18.5 10.8682 18.32 10.9782 18.17C12.1682 16.52 13.6982 15.95 12.6182 14.28C12.4466 14.0424 12.2043 13.8652 11.9259 13.7736C11.6475 13.682 11.3473 13.6808 11.0682 13.77C9.2982 14.1 7.5782 15.87 5.8982 16.51C5.8282 16.51 5.7482 16.51 5.7282 16.56C5.4382 14.67 3.6582 15.16 2.9782 15.16C2.2982 15.16 0.738201 15 1.0182 15.67C1.04927 15.7451 1.1086 15.805 1.18342 15.8368C1.25824 15.8686 1.34255 15.8698 1.4182 15.84C1.91077 15.7719 2.41135 15.7889 2.8982 15.89C3.8182 15.99 4.5282 15.73 4.6382 16.58V22.21C4.6382 22.88 4.5782 23.06 3.5182 23.15C2.8669 23.1946 2.21262 23.1644 1.5682 23.06C1.48441 23.0566 1.40218 23.0834 1.33648 23.1355C1.27078 23.1876 1.22597 23.2616 1.21023 23.344C1.19448 23.4264 1.20883 23.5116 1.25067 23.5843C1.29251 23.657 1.35906 23.7122 1.4382 23.74C2.12678 23.9021 2.83087 23.9893 3.5382 24C4.5382 24 5.1682 23.85 5.5382 23L7.7982 22.5C11.3582 23.42 16.2582 23.62 19.3982 21.62C20.5882 20.85 21.9182 19.89 21.2582 18.62C21.1414 18.354 20.9517 18.1264 20.711 17.9636C20.4704 17.8008 20.1886 17.7094 19.8982 17.7ZM15.5282 18.35C16.5282 17.74 17.7882 16.41 18.5282 16.71C18.7431 16.7814 18.9232 16.9312 19.0326 17.1295C19.142 17.3279 19.1725 17.5601 19.1182 17.78C17.2582 18.18 16.3382 18.58 14.6782 18.78L15.5282 18.35ZM18.7382 20.7C14.4782 23.63 7.8882 21.56 7.7382 21.61L5.6682 22C5.9582 19.74 5.6682 17.44 5.7782 17.42C5.8882 17.4 6.1182 17.23 6.4382 17.09C8.2782 16.3 9.6382 15 10.8482 14.65C11.2682 14.53 11.6482 14.42 11.8482 14.71C12.4882 15.71 11.3382 15.97 10.1582 17.5C9.5482 18.28 9.6882 18.81 10.0582 19.18C10.5881 19.5711 11.2064 19.8253 11.8582 19.92C14.1082 20.48 17.9282 19.21 18.7982 19.04C19.4582 18.9 19.9282 18.59 20.2182 19.14C20.5082 19.69 19.1882 20.4 18.7382 20.7Z" fill="#7A387B"/>
<path fill-rule="evenodd" clip-rule="evenodd" d="M20.0382 11C21.2497 10.8578 22.4127 10.4405 23.4382 9.77998C23.506 9.72819 23.5526 9.65342 23.5691 9.56972C23.5857 9.48601 23.5711 9.39914 23.5281 9.32544C23.4851 9.25174 23.4167 9.19628 23.3357 9.16949C23.2547 9.1427 23.1667 9.14643 23.0882 9.17998C22.1272 9.69494 21.0582 9.97588 19.9682 9.99998C16.3782 10.14 15.2782 9.86998 13.5082 9.19998C12.8782 9.06998 12.8782 9.64998 13.3782 10.06C16.0782 11.44 17.3882 11.24 20.0382 11Z" fill="#998696"/>
<path fill-rule="evenodd" clip-rule="evenodd" d="M24.8782 9.06C24.5682 2.37 24.6082 2.9 24.5482 2.78C24.9682 1.55 23.1882 0.309997 22.0882 0.329997C22.0068 0.34391 21.9329 0.386174 21.8796 0.449312C21.8264 0.51245 21.7971 0.592393 21.7971 0.674998C21.7971 0.757602 21.8264 0.837545 21.8796 0.900683C21.9329 0.963821 22.0068 1.00608 22.0882 1.02C22.8482 1.02 24.2782 2.1 23.5782 2.74C22.5782 3.65 20.4782 3.74 19.1482 3.82C17.3582 3.92 14.3682 3.96 13.1482 2.6C13.0082 2.44 12.9782 2.25 13.2082 2.02C15.1682 0.599997 17.7682 0.789997 20.3282 0.839997C21.1582 0.889997 21.4182 0.969997 21.4882 0.649997C21.497 0.611242 21.4981 0.571119 21.4912 0.531961C21.4844 0.492803 21.4699 0.455389 21.4485 0.421894C21.4271 0.3884 21.3992 0.359491 21.3666 0.336848C21.3339 0.314206 21.2971 0.29828 21.2582 0.289997C19.0982 0.0499975 16.3582 -0.240003 14.2582 0.289997C13.6057 0.478957 12.9926 0.783818 12.4482 1.19C12.2211 1.36516 12.0533 1.60583 11.9675 1.87947C11.8816 2.15311 11.8819 2.44651 11.9682 2.72C11.8082 4.11 11.9682 5.61 11.8882 6.41C11.8382 7.05 11.8182 8.02 11.8282 8.97C11.8282 10.97 11.8282 12.2 12.6682 13.11C13.9782 14.53 19.1182 15.28 23.2082 13.27C25.3482 12.21 24.9682 10.65 24.8782 9.06ZM23.9682 10.9C23.9057 11.2203 23.7588 11.5181 23.5425 11.7625C23.3262 12.0069 23.0485 12.189 22.7382 12.29C21.2667 12.8815 19.7107 13.2359 18.1282 13.34C17.1187 13.3955 16.1067 13.2943 15.1282 13.04C14.4289 12.8637 13.7562 12.5946 13.1282 12.24C12.3582 11.7 12.5582 4.49 12.5482 3.57C13.5116 4.38185 14.7107 4.86218 15.9682 4.94C18.0768 5.08053 20.1945 4.89844 22.2482 4.4C22.847 4.23543 23.41 3.96075 23.9082 3.59C23.9682 11.5 24.0182 10.5 23.9682 10.9Z" fill="#7A387B"/>
<path fill-rule="evenodd" clip-rule="evenodd" d="M18.0882 7.94002C19.8206 8.007 21.546 7.68583 23.1382 7.00002C23.2191 6.95759 23.2798 6.88476 23.307 6.79755C23.3342 6.71035 23.3256 6.61591 23.2832 6.53502C23.2408 6.45413 23.1679 6.39341 23.0807 6.36622C22.9935 6.33902 22.8991 6.34759 22.8182 6.39002C21.9342 6.67905 21.008 6.81764 20.0782 6.80002C17.8042 6.75498 15.5358 6.55787 13.2882 6.21002C12.8082 6.21002 12.6382 7.01002 13.4982 7.21002C14.9517 7.80299 16.5224 8.05279 18.0882 7.94002Z" fill="#998696"/>
</g>
<defs>
<clipPath id="clip0_3013_15780">
<rect width="24" height="24" fill="white" transform="translate(0.968201)"/>
</clipPath>
</defs>
</svg>
