<svg width="25" height="24" viewBox="0 0 25 24" fill="none" xmlns="http://www.w3.org/2000/svg">
<g clip-path="url(#clip0_3013_15749)">
<path fill-rule="evenodd" clip-rule="evenodd" d="M22.4682 19.77C21.982 19.6967 21.4859 19.8051 21.0745 20.0744C20.6632 20.3437 20.3654 20.7551 20.2382 21.23C19.0665 20.4774 17.7527 19.9736 16.3782 19.75C16.6046 19.4413 16.7307 19.0706 16.7397 18.6879C16.7486 18.3052 16.6399 17.9289 16.4282 17.61C18.2982 16.35 18.1782 16.77 19.9582 15.11C20.1792 15.4221 20.4851 15.6643 20.8396 15.8079C21.1941 15.9514 21.5823 15.9903 21.9582 15.92C22.3115 15.849 22.64 15.6866 22.911 15.449C23.1819 15.2113 23.3857 14.9067 23.5021 14.5656C23.6185 14.2246 23.6434 13.8589 23.5742 13.5052C23.5051 13.1515 23.3444 12.8222 23.1082 12.55C22.8633 12.275 22.5452 12.0753 22.191 11.9744C21.8368 11.8734 21.4613 11.8754 21.1082 11.98C21.0132 11.9979 20.929 12.0523 20.8736 12.1314C20.8182 12.2106 20.796 12.3083 20.8116 12.4036C20.8273 12.499 20.8797 12.5844 20.9575 12.6417C21.0353 12.6989 21.1325 12.7234 21.2282 12.71C21.4934 12.6556 21.7693 12.7089 21.9953 12.8579C22.2213 13.007 22.3788 13.2398 22.4332 13.505C22.4876 13.7702 22.4343 14.0462 22.2852 14.2722C22.1362 14.4981 21.9034 14.6556 21.6382 14.71C21.4218 14.7717 21.1912 14.7623 20.9806 14.6831C20.7699 14.6039 20.5903 14.4591 20.4682 14.27C20.3182 14.01 20.1882 13.53 20.3482 13.27C20.379 13.2402 20.4036 13.2044 20.4203 13.1649C20.4371 13.1254 20.4457 13.0829 20.4457 13.04C20.4457 12.9971 20.4371 12.9546 20.4203 12.9151C20.4036 12.8756 20.379 12.8398 20.3482 12.81C19.9882 12.5 19.3482 13.15 19.5682 14.26C18.751 14.6078 17.9868 15.069 17.2982 15.63C16.7883 16.0687 16.3104 16.5432 15.8682 17.05C15.5282 16.81 15.1282 16.6 14.9382 16.98C14.916 17.0239 14.9029 17.0718 14.8995 17.1208C14.896 17.1699 14.9024 17.2191 14.9183 17.2657C14.9341 17.3122 14.959 17.3552 14.9916 17.392C15.0243 17.4288 15.0639 17.4587 15.1082 17.48C15.3522 17.5914 15.5419 17.7952 15.6357 18.0465C15.7295 18.2978 15.7196 18.576 15.6082 18.82C15.4968 19.064 15.293 19.2538 15.0417 19.3475C14.7904 19.4413 14.5122 19.4314 14.2682 19.32C14.0643 19.2434 13.8883 19.1069 13.7634 18.9284C13.6384 18.7499 13.5704 18.5378 13.5682 18.32C13.5682 18.02 13.7882 17.55 14.0582 17.47C14.143 17.4488 14.216 17.3947 14.261 17.3197C14.306 17.2447 14.3194 17.1549 14.2982 17.07C14.1782 16.55 13.0882 16.86 12.6682 18.12C12.5315 18.584 12.5676 19.0819 12.7699 19.5213C12.9721 19.9608 13.3268 20.312 13.7682 20.51C14.1023 20.6627 14.4711 20.7238 14.8366 20.6869C15.2022 20.65 15.5513 20.5164 15.8482 20.3C17.3182 21.23 17.1382 21.43 20.1882 22.06C20.3423 22.645 20.6948 23.1583 21.1854 23.5122C21.6761 23.8661 22.2744 24.0385 22.8782 24C23.4102 23.911 23.8887 23.6234 24.2169 23.1954C24.5452 22.7673 24.6988 22.2306 24.6468 21.6937C24.5948 21.1568 24.3409 20.6596 23.9366 20.3026C23.5322 19.9455 23.0074 19.7552 22.4682 19.77ZM23.2982 22C23.2182 22.75 22.8382 23 22.3782 23C22.0746 22.9767 21.7831 22.8714 21.5347 22.6953C21.2863 22.5191 21.0905 22.2788 20.9682 22C20.9625 21.8287 20.997 21.6584 21.0688 21.5027C21.1406 21.347 21.2479 21.2103 21.3819 21.1034C21.516 20.9966 21.6732 20.9225 21.841 20.8872C22.0087 20.8519 22.1824 20.8563 22.3482 20.9C22.6562 20.97 22.9396 21.122 23.1682 21.34C23.2427 21.4307 23.2936 21.5385 23.3163 21.6536C23.339 21.7688 23.3328 21.8878 23.2982 22Z" fill="#7A387B"/>
<path fill-rule="evenodd" clip-rule="evenodd" d="M17.7982 6.82C17.5682 2.51 17.6982 2.82 17.6982 2.82C17.6682 0.999998 14.2682 -0.240002 14.2682 0.719998C14.2669 0.764652 14.2743 0.809132 14.2902 0.850893C14.3061 0.892655 14.33 0.930881 14.3607 0.963385C14.3913 0.99589 14.4281 1.02204 14.4688 1.04033C14.5096 1.05862 14.5535 1.0687 14.5982 1.07C15.1405 1.12227 15.6571 1.3268 16.0882 1.66C17.6382 2.76 16.8682 3.79 15.0882 4.38C13.0882 5.04 6.66819 5.38 4.34819 4.3C3.72143 4.05715 3.16961 3.65364 2.74819 3.13C2.43819 2.54 3.45819 2 3.55819 1.93C4.8468 1.24006 6.27724 0.856788 7.73819 0.809998C11.5182 0.529998 12.5982 1.17 12.6282 0.529998C12.6309 0.490583 12.6258 0.451019 12.6132 0.413579C12.6006 0.376139 12.5807 0.341559 12.5547 0.311826C12.5287 0.282092 12.497 0.257791 12.4616 0.240316C12.4262 0.222842 12.3876 0.212538 12.3482 0.209998C9.88819 -1.98185e-06 6.39819 -0.330002 3.96819 0.639998C2.96819 1.06 1.46819 1.79 1.63819 3.09C1.39819 4.94 1.56819 7.61 1.48819 8.73C1.30913 11.5512 1.32918 14.3816 1.54819 17.2C1.63275 18.1681 2.07481 19.0701 2.78819 19.73C4.96819 21.62 9.96819 21.49 12.6682 20.72C12.7433 20.6871 12.8045 20.6288 12.841 20.5553C12.8775 20.4819 12.8871 20.3979 12.8681 20.3182C12.849 20.2384 12.8025 20.1678 12.7368 20.1188C12.671 20.0698 12.5901 20.0454 12.5082 20.05C10.1588 20.5731 7.71294 20.4662 5.41819 19.74C4.71141 19.5936 4.0456 19.2931 3.46819 18.86C3.12339 18.5374 2.85475 18.1421 2.68178 17.7028C2.50881 17.2634 2.43584 16.7911 2.46819 16.32C2.38819 15.32 2.16819 5.19 2.17819 4.14C4.30819 6.44 8.17819 6.14 10.8782 6.03C12.6982 5.95 15.5082 5.64 16.8782 4.41C16.8082 5.59 16.7982 11.24 16.9882 13.13C16.9882 13.1668 16.9954 13.2032 17.0095 13.2371C17.0236 13.2711 17.0442 13.302 17.0702 13.328C17.0962 13.354 17.1271 13.3746 17.161 13.3887C17.195 13.4028 17.2314 13.41 17.2682 13.41C17.305 13.41 17.3414 13.4028 17.3753 13.3887C17.4093 13.3746 17.4402 13.354 17.4662 13.328C17.4922 13.302 17.5128 13.2711 17.5269 13.2371C17.5409 13.2032 17.5482 13.1668 17.5482 13.13C17.7699 11.0344 17.8535 8.92654 17.7982 6.82Z" fill="#7A387B"/>
<path fill-rule="evenodd" clip-rule="evenodd" d="M10.4482 8.54999C8.1323 8.49851 5.82306 8.28129 3.53819 7.89999C2.92819 7.64999 2.44819 8.21999 3.27819 8.55999C5.3809 9.24526 7.58821 9.55333 9.79819 9.46999C12.0361 9.58227 14.2614 9.07352 16.2282 7.99999C16.6182 7.74999 16.6782 7.21999 15.8282 7.38999C14.1323 8.13819 12.3017 8.53289 10.4482 8.54999Z" fill="#998696"/>
<path fill-rule="evenodd" clip-rule="evenodd" d="M7.38818 13.54C9.28591 13.8172 11.2206 13.6946 13.0682 13.18C14.0935 12.9282 15.0968 12.5938 16.0682 12.18C16.4682 12 16.2282 11.38 15.8382 11.54C12.2282 13 5.96818 12.9 3.14818 11.54C2.60818 11.37 2.68818 12 3.14818 12.31C4.47234 12.9811 5.91046 13.3983 7.38818 13.54Z" fill="#998696"/>
<path fill-rule="evenodd" clip-rule="evenodd" d="M7.45819 17.4C9.22123 17.5519 10.9965 17.3304 12.6682 16.75C13.0782 16.63 12.9282 15.98 12.5082 16.09C10.9856 16.4068 9.4208 16.4676 7.87819 16.27C4.87819 16.15 5.96819 16.37 3.25819 15.45C2.77819 15.32 2.64819 15.81 3.25819 16.2C4.53353 16.9503 5.97898 17.3633 7.45819 17.4Z" fill="#998696"/>
</g>
<defs>
<clipPath id="clip0_3013_15749">
<rect width="24" height="24" fill="white" transform="translate(0.968201)"/>
</clipPath>
</defs>
</svg>
