<svg width="25" height="24" viewBox="0 0 25 24" fill="none" xmlns="http://www.w3.org/2000/svg">
<g clip-path="url(#clip0_3013_15725)">
<path fill-rule="evenodd" clip-rule="evenodd" d="M17.1882 10.17C17.222 10.1249 17.2434 10.0717 17.25 10.0157C17.2566 9.9597 17.2484 9.90296 17.2261 9.8512C17.2037 9.79944 17.1681 9.75449 17.1228 9.72092C17.0776 9.68734 17.0242 9.66631 16.9682 9.65998C16.7682 9.65998 16.3382 10.09 15.7682 10.66C15.4924 10.864 15.2408 11.0989 15.0182 11.36C14.8782 10.28 14.9582 9.44998 14.7682 9.35998C14.7306 9.34962 14.6912 9.34753 14.6527 9.35386C14.6142 9.36019 14.5775 9.37479 14.5452 9.39664C14.5129 9.4185 14.4857 9.4471 14.4655 9.48048C14.4453 9.51386 14.4326 9.55121 14.4282 9.58998C14.4282 9.77998 14.3282 10.84 14.3182 10.92C14.2507 11.6864 14.2708 12.4581 14.3782 13.22C14.3782 13.72 14.3782 13.73 14.5682 13.84C14.639 13.8472 14.71 13.829 14.7686 13.7887C14.8272 13.7484 14.8696 13.6886 14.8882 13.62C14.9834 13.2125 15.0436 12.7977 15.0682 12.38C15.1642 12.4184 15.2549 12.4688 15.3382 12.53C15.8546 12.9623 16.3991 13.3598 16.9682 13.72C17.0882 13.72 17.3082 13.59 17.1382 13.29C16.9636 12.9305 16.7117 12.6141 16.4005 12.3634C16.0894 12.1128 15.7266 11.934 15.3382 11.84C16.0129 11.3511 16.6331 10.7912 17.1882 10.17Z" fill="#7A387B"/>
<path fill-rule="evenodd" clip-rule="evenodd" d="M12.5182 12C13.4282 12.13 13.9382 11.2 13.6682 10.31C13.2682 8.97003 11.5082 9.14003 11.1082 10.71C10.9796 11.5938 10.9999 12.4929 11.1682 13.37C11.1682 13.58 11.2382 13.8 11.4082 13.82C11.8682 13.88 11.5382 13.1 11.6582 11.77C11.949 11.8305 12.2361 11.9072 12.5182 12ZM12.9682 10.56C13.1882 11.13 12.9682 11.5 12.5282 11.48C12.0882 11.46 11.9682 11.34 11.6982 11.33C11.9682 10 12.7882 10 12.9682 10.56Z" fill="#7A387B"/>
<path fill-rule="evenodd" clip-rule="evenodd" d="M9.2682 9.99999C9.0582 9.27999 8.2682 9.27999 7.7782 10.3C7.44116 11.4587 7.19705 12.6425 7.0482 13.84C7.08317 13.8602 7.12283 13.8708 7.1632 13.8708C7.20358 13.8708 7.24324 13.8602 7.2782 13.84C7.52836 13.543 7.72465 13.2046 7.8582 12.84C8.36199 12.9465 8.88438 12.9259 9.3782 12.78C9.43673 13.0136 9.48016 13.2508 9.5082 13.49C9.5582 13.78 10.0182 13.85 10.1382 13.43C10.079 12.8251 9.96861 12.2263 9.8082 11.64C9.66259 11.0826 9.48223 10.5349 9.2682 9.99999ZM8.0582 12.39C8.15944 11.7096 8.32347 11.0401 8.5482 10.39C8.7182 10.81 9.0382 11.66 9.2482 12.32C8.85169 12.247 8.44342 12.271 8.0582 12.39Z" fill="#7A387B"/>
<path fill-rule="evenodd" clip-rule="evenodd" d="M16.6782 5.61001C16.4572 5.61103 16.2365 5.59431 16.0182 5.56001C16.0782 5.34001 16.1682 5.08001 16.2582 4.80001C16.6882 3.38001 16.8982 1.89001 15.7582 0.930012C15.7053 0.888574 15.6389 0.868349 15.5718 0.87329C15.5048 0.87823 15.4421 0.907981 15.3958 0.956729C15.3496 1.00548 15.3232 1.06972 15.3218 1.1369C15.3203 1.20408 15.344 1.26937 15.3882 1.32001C16.5682 2.60001 15.1182 4.37001 14.9682 5.71001C14.8182 7.05001 18.0382 6.61001 19.1482 6.10001L20.8382 5.39001C20.9081 5.3534 20.9637 5.29422 20.9957 5.22208C21.0278 5.14994 21.0345 5.06908 21.0148 4.99263C20.9951 4.91618 20.9502 4.84863 20.8872 4.80095C20.8243 4.75328 20.7471 4.72828 20.6682 4.73001C18.5482 5.50001 18.4582 5.65001 16.6782 5.61001Z" fill="#7A387B"/>
<path fill-rule="evenodd" clip-rule="evenodd" d="M16.8482 0.06C15.4682 0 16.0982 0 6.9682 0C6.88201 0 6.79934 0.034241 6.73839 0.0951903C6.67744 0.15614 6.6432 0.238805 6.6432 0.325C6.6432 0.411195 6.67744 0.49386 6.73839 0.55481C6.79934 0.615759 6.88201 0.65 6.9682 0.65C15.4782 0.72 15.7282 0.65 16.7882 0.81C17.8482 0.97 20.5382 3.46 21.2182 4.51C21.3614 4.68332 21.4486 4.89604 21.4682 5.12C21.3682 6.66 20.7282 11.12 20.4682 12.2C20.2082 13.28 20.0182 14 19.8382 14.91C19.7682 15.27 19.3182 19.51 18.1882 20.06C16.5982 20.83 14.8182 20.32 13.1882 20.46C11.666 20.6069 10.1374 20.6769 8.6082 20.67C3.2082 20.48 3.4582 20.56 1.9982 19.86C3.3282 18.05 4.2182 13.86 4.6882 11.41C5.2182 8.71 5.0382 5.96 5.2482 3.24C5.2482 2.77 5.7182 0.24 4.9482 0.62C4.6382 0.76 4.7382 1.22 4.7382 1.43C4.7382 2.78 4.4082 8.02 4.3282 8.89C3.93201 12.1569 3.09785 15.3556 1.8482 18.4C1.6882 18.7 1.4982 18.99 1.3182 19.27C1.17392 19.4397 1.059 19.6324 0.978204 19.84C0.963058 19.9955 0.996215 20.1519 1.07316 20.2879C1.1501 20.4239 1.2671 20.5329 1.4082 20.6C2.03265 20.9529 2.70698 21.2091 3.4082 21.36C6.67856 21.6828 9.97047 21.7263 13.2482 21.49C14.9382 21.34 16.8182 21.88 18.6582 20.98C20.3382 20.16 20.7182 15.73 20.8382 15.1C21.0082 14.19 21.2482 13.3 21.4282 12.4C21.6082 11.5 22.2182 6.9 22.3082 5.16C22.3882 3.65 18.2382 0.17 16.8482 0.06Z" fill="#7A387B"/>
<path fill-rule="evenodd" clip-rule="evenodd" d="M24.0582 5.81C23.9582 7.35 23.1182 13.52 22.8982 14.56C22.6782 15.6 22.4482 16.36 22.2682 17.27C22.1982 17.63 21.7482 21.87 20.6182 22.42C19.0282 23.18 17.2482 22.68 15.6182 22.82C14.6182 22.91 12.3782 23.07 11.0382 23.03C5.88821 22.84 5.89821 23.03 4.63821 22.46C3.90821 22.17 3.72821 22.87 4.17821 23.18C4.69402 23.4842 5.27156 23.6688 5.86821 23.72C9.13531 24.043 12.4242 24.0832 15.6982 23.84C17.3882 23.7 19.2682 24.24 21.1082 23.34C22.7882 22.52 23.1782 18.09 23.2882 17.46C23.4582 16.55 23.6982 15.66 23.8782 14.76C24.0582 13.86 24.8882 7.68 24.9682 6C25.0182 5.06 24.1682 4.92 24.0582 5.81Z" fill="#998696"/>
</g>
<defs>
<clipPath id="clip0_3013_15725">
<rect width="24" height="24" fill="white" transform="translate(0.968201)"/>
</clipPath>
</defs>
</svg>
