<svg width="25" height="24" viewBox="0 0 25 24" fill="none" xmlns="http://www.w3.org/2000/svg">
<g clip-path="url(#clip0_3013_15686)">
<path fill-rule="evenodd" clip-rule="evenodd" d="M11.1882 9.44C10.9982 8.8 10.3382 8.8 9.8582 9.71C9.56216 10.7387 9.34487 11.7884 9.2082 12.85C9.24043 12.8675 9.27652 12.8767 9.3132 12.8767C9.34988 12.8767 9.38597 12.8675 9.4182 12.85C9.64979 12.601 9.83594 12.3133 9.9682 12C10.4154 12.095 10.8792 12.0778 11.3182 11.95C11.3806 12.1551 11.4208 12.3663 11.4382 12.58C11.4382 12.84 11.8882 12.89 11.9982 12.52C11.9436 11.9832 11.8466 11.4515 11.7082 10.93C11.6482 10.83 11.7582 11.21 11.1882 9.44ZM10.1082 11.56C10.2017 10.9711 10.349 10.392 10.5482 9.83C10.6782 10.16 10.9682 10.93 11.1682 11.54C10.8185 11.4606 10.4547 11.4674 10.1082 11.56Z" fill="#7A387B"/>
<path fill-rule="evenodd" clip-rule="evenodd" d="M17.0582 9.44C16.8682 8.8 16.2182 8.8 15.7382 9.71C15.4422 10.7387 15.2249 11.7884 15.0882 12.85C15.1204 12.8675 15.1565 12.8767 15.1932 12.8767C15.2299 12.8767 15.266 12.8675 15.2982 12.85C15.5206 12.5829 15.6933 12.2781 15.8082 11.95C16.2554 12.045 16.7192 12.0278 17.1582 11.9C17.2103 12.1075 17.2504 12.3179 17.2782 12.53C17.2782 12.79 17.7282 12.84 17.8382 12.47C17.7787 11.9339 17.6818 11.4026 17.5482 10.88C17.5282 10.83 17.6382 11.21 17.0582 9.44ZM15.9682 11.56C16.063 10.9723 16.2069 10.3937 16.3982 9.83C16.5482 10.21 16.8382 10.96 17.0182 11.54C16.6718 11.4606 16.3113 11.4675 15.9682 11.56Z" fill="#7A387B"/>
<path fill-rule="evenodd" clip-rule="evenodd" d="M14.4482 12C14.6558 11.0831 14.8094 10.1549 14.9082 9.21999C14.9082 9.10999 14.5782 8.97999 14.4182 9.29999C14.3582 9.42999 14.2482 10.44 14.2182 10.52L13.7082 11.75C13.3582 10.87 13.2982 10.66 13.1982 10.43C13.0199 10.0357 12.8196 9.65178 12.5982 9.27999C12.4182 9.02999 12.1582 9.09999 12.1382 9.27999C12.1182 9.45999 12.9682 12 12.9682 12.08C13.3182 13 14.1182 13.27 14.4482 12Z" fill="#7A387B"/>
<path fill-rule="evenodd" clip-rule="evenodd" d="M6.2182 9.59998C6.3882 9.96998 7.5982 9.59998 7.6982 9.59998C7.78147 10.1133 7.78147 10.6367 7.6982 11.15C7.4582 13.01 6.5582 12.08 6.5182 11.54C6.5182 11.4763 6.49291 11.4153 6.44791 11.3703C6.4029 11.3253 6.34185 11.3 6.2782 11.3C6.21455 11.3 6.1535 11.3253 6.10849 11.3703C6.06349 11.4153 6.0382 11.4763 6.0382 11.54C6.01653 11.8567 6.10392 12.1713 6.28585 12.4314C6.46778 12.6916 6.73328 12.8816 7.0382 12.97C7.8482 13.12 8.2882 11.97 8.2982 11.2C8.2982 10.81 8.1982 9.57998 8.1782 9.52998C8.6682 9.52998 8.8382 9.52998 8.9182 9.34998C8.9982 9.16998 8.9682 9.09998 8.6982 8.99998C8.45623 8.96586 8.21249 8.94583 7.9682 8.93998C7.66249 8.93611 7.35829 8.98343 7.0682 9.07998C6.859 9.15648 6.64525 9.21993 6.4282 9.26998C6.1682 9.37998 6.1782 9.52998 6.2182 9.59998Z" fill="#7A387B"/>
<path fill-rule="evenodd" clip-rule="evenodd" d="M16.6782 5.61001C16.4572 5.61103 16.2365 5.59431 16.0182 5.56001C16.0782 5.34001 16.1682 5.08001 16.2582 4.80001C16.6882 3.38001 16.8982 1.89001 15.7582 0.930012C15.7053 0.888574 15.6389 0.868349 15.5718 0.87329C15.5048 0.87823 15.4421 0.907981 15.3958 0.956729C15.3496 1.00548 15.3232 1.06972 15.3218 1.1369C15.3203 1.20408 15.344 1.26937 15.3882 1.32001C16.5682 2.60001 15.1182 4.37001 14.9682 5.71001C14.8182 7.05001 18.0382 6.61001 19.1482 6.10001L20.8382 5.39001C20.9081 5.3534 20.9637 5.29422 20.9957 5.22208C21.0278 5.14994 21.0345 5.06908 21.0148 4.99263C20.9951 4.91618 20.9502 4.84863 20.8872 4.80095C20.8243 4.75328 20.7471 4.72828 20.6682 4.73001C18.5482 5.50001 18.4582 5.65001 16.6782 5.61001Z" fill="#7A387B"/>
<path fill-rule="evenodd" clip-rule="evenodd" d="M16.8482 0.06C15.4682 0 16.0982 0 6.9682 0C6.882 0 6.79934 0.034241 6.73839 0.0951903C6.67744 0.15614 6.6432 0.238805 6.6432 0.325C6.6432 0.411195 6.67744 0.49386 6.73839 0.55481C6.79934 0.615759 6.882 0.65 6.9682 0.65C15.4782 0.72 15.7282 0.65 16.7882 0.81C17.8482 0.97 20.5382 3.46 21.2182 4.51C21.3614 4.68332 21.4486 4.89604 21.4682 5.12C21.3682 6.66 20.7282 11.12 20.4682 12.2C20.2082 13.28 20.0182 14 19.8382 14.91C19.7682 15.27 19.3182 19.51 18.1882 20.06C16.5982 20.83 14.8182 20.32 13.1882 20.46C11.666 20.6069 10.1374 20.6769 8.6082 20.67C3.2082 20.48 3.4582 20.56 1.9982 19.86C3.3282 18.05 4.2182 13.86 4.6882 11.41C5.2182 8.71 5.0382 5.96 5.2482 3.24C5.2482 2.77 5.7182 0.24 4.9482 0.62C4.6382 0.76 4.7382 1.22 4.7382 1.43C4.7382 2.78 4.4082 8.02 4.3282 8.89C3.932 12.1569 3.09785 15.3556 1.8482 18.4C1.6882 18.7 1.4982 18.99 1.3182 19.27C1.17391 19.4397 1.059 19.6324 0.9782 19.84C0.963054 19.9955 0.996211 20.1519 1.07316 20.2879C1.1501 20.4239 1.26709 20.5329 1.4082 20.6C2.03265 20.9529 2.70697 21.2091 3.4082 21.36C6.67855 21.6828 9.97046 21.7263 13.2482 21.49C14.9382 21.34 16.8182 21.88 18.6582 20.98C20.3382 20.16 20.7182 15.73 20.8382 15.1C21.0082 14.19 21.2482 13.3 21.4282 12.4C21.6082 11.5 22.2182 6.9 22.3082 5.16C22.3882 3.65 18.2382 0.17 16.8482 0.06Z" fill="#7A387B"/>
<path fill-rule="evenodd" clip-rule="evenodd" d="M24.0582 5.81C23.9582 7.35 23.1182 13.52 22.8982 14.56C22.6782 15.6 22.4482 16.36 22.2682 17.27C22.1982 17.63 21.7482 21.87 20.6182 22.42C19.0282 23.18 17.2482 22.68 15.6182 22.82C14.6182 22.91 12.3782 23.07 11.0382 23.03C5.8882 22.84 5.8982 23.03 4.6382 22.46C3.9082 22.17 3.7282 22.87 4.1782 23.18C4.69401 23.4842 5.27155 23.6688 5.8682 23.72C9.1353 24.043 12.4242 24.0832 15.6982 23.84C17.3882 23.7 19.2682 24.24 21.1082 23.34C22.7882 22.52 23.1782 18.09 23.2882 17.46C23.4582 16.55 23.6982 15.66 23.8782 14.76C24.0582 13.86 24.8882 7.68 24.9682 6C25.0182 5.06 24.1682 4.92 24.0582 5.81Z" fill="#998696"/>
</g>
<defs>
<clipPath id="clip0_3013_15686">
<rect width="24" height="24" fill="white" transform="translate(0.968201)"/>
</clipPath>
</defs>
</svg>
