<svg width="25" height="24" viewBox="0 0 25 24" fill="none" xmlns="http://www.w3.org/2000/svg">
<g clip-path="url(#clip0_3013_15667)">
<path fill-rule="evenodd" clip-rule="evenodd" d="M22.8783 19.16C22.3952 19.0919 21.904 19.2028 21.4969 19.4717C21.0899 19.7406 20.7952 20.149 20.6683 20.62C19.5055 19.8661 18.1972 19.3653 16.8283 19.15C17.0625 18.8428 17.1934 18.4693 17.2024 18.0831C17.2114 17.6969 17.0979 17.3177 16.8783 17C18.7383 15.75 18.6183 16.16 20.3883 14.52C20.6105 14.8303 20.917 15.0705 21.2714 15.2122C21.6258 15.354 22.0133 15.3914 22.3883 15.32C22.7439 15.2624 23.0773 15.1099 23.3534 14.8785C23.6295 14.6471 23.8379 14.3454 23.9568 14.0054C24.0756 13.6653 24.1004 13.2994 24.0285 12.9465C23.9565 12.5935 23.7906 12.2665 23.5483 12C23.3066 11.7358 22.9965 11.5436 22.6523 11.4448C22.3081 11.3459 21.9433 11.3443 21.5983 11.44C21.5033 11.4579 21.4191 11.5122 21.3637 11.5914C21.3083 11.6705 21.286 11.7682 21.3017 11.8636C21.3174 11.9589 21.3697 12.0444 21.4476 12.1016C21.5254 12.1589 21.6226 12.1834 21.7183 12.17C21.9835 12.1156 22.2594 12.1688 22.4854 12.3179C22.7114 12.467 22.8689 12.6998 22.9233 12.965C22.9776 13.2302 22.9244 13.5061 22.7753 13.7321C22.6262 13.9581 22.3935 14.1156 22.1283 14.17C21.91 14.2218 21.6811 14.2044 21.4732 14.1201C21.2654 14.0359 21.0889 13.8891 20.9683 13.7C20.8717 13.5541 20.8114 13.3872 20.7922 13.2133C20.7731 13.0394 20.7957 12.8634 20.8583 12.7C20.9181 12.6384 20.9516 12.5559 20.9516 12.47C20.9516 12.3841 20.9181 12.3016 20.8583 12.24C20.4983 11.94 19.8583 12.58 20.0783 13.68C19.2679 14.0291 18.5105 14.4903 17.8283 15.05C17.3126 15.4753 16.8372 15.9473 16.4083 16.46C16.0583 16.22 15.6683 16 15.4783 16.38C15.4362 16.4691 15.4305 16.571 15.4622 16.6643C15.4939 16.7576 15.5606 16.8349 15.6483 16.88C15.8909 16.9914 16.0794 17.1946 16.1722 17.445C16.2651 17.6953 16.2547 17.9723 16.1433 18.215C16.0319 18.4576 15.8286 18.6461 15.5783 18.739C15.3279 18.8318 15.0509 18.8214 14.8083 18.71C14.6057 18.6337 14.4316 18.4967 14.3098 18.3177C14.1881 18.1387 14.1247 17.9264 14.1283 17.71C14.1283 17.41 14.3383 16.96 14.5983 16.87C14.6828 16.8508 14.7564 16.7992 14.8032 16.7262C14.85 16.6532 14.8662 16.5648 14.8483 16.48C14.7283 15.96 13.6383 16.27 13.2283 17.48C13.1024 17.8876 13.1102 18.3249 13.2505 18.7278C13.3908 19.1307 13.6563 19.4782 14.0082 19.7194C14.3601 19.9607 14.7799 20.0832 15.2063 20.0689C15.6327 20.0546 16.0433 19.9043 16.3783 19.64C17.8483 20.57 17.6683 20.77 20.6883 21.39C20.8404 21.9671 21.185 22.475 21.6651 22.8296C22.1452 23.1842 22.7319 23.3642 23.3283 23.34C23.8154 23.2055 24.2388 22.9022 24.5229 22.4844C24.807 22.0665 24.9333 21.5612 24.8792 21.0588C24.8251 20.5564 24.5942 20.0895 24.2276 19.7417C23.8611 19.3939 23.3828 19.1877 22.8783 19.16ZM23.7083 21.33C23.6283 22.08 23.2483 22.33 22.7883 22.33C22.4771 22.3161 22.1761 22.215 21.9197 22.0381C21.6633 21.8613 21.4618 21.6159 21.3383 21.33C21.3342 21.1595 21.3698 20.9903 21.4423 20.8359C21.5149 20.6816 21.6223 20.5462 21.7561 20.4404C21.89 20.3347 22.0466 20.2616 22.2136 20.2268C22.3805 20.192 22.5533 20.1965 22.7183 20.24C23.0219 20.3083 23.3016 20.4568 23.5283 20.67C23.6106 20.7564 23.6702 20.862 23.7017 20.9772C23.7331 21.0924 23.7353 21.2137 23.7083 21.33Z" fill="#7A387B"/>
<path fill-rule="evenodd" clip-rule="evenodd" d="M11.3283 19.17C4.32826 18.99 4.23826 19.02 3.47826 18.87C3.0416 18.8337 2.62805 18.6585 2.29826 18.37C2.59866 17.9411 2.85338 17.4819 3.05826 17C5.44826 10.54 4.83826 6.99997 5.02826 3.73997C5.02826 4.05997 5.07826 1.57997 5.02826 1.49997C5.01301 1.4628 4.99044 1.42906 4.9619 1.40078C4.93337 1.37249 4.89944 1.35022 4.86213 1.3353C4.82482 1.32038 4.78489 1.3131 4.74472 1.3139C4.70455 1.31471 4.66494 1.32357 4.62826 1.33997C4.30826 1.47997 4.39826 1.95997 4.38826 2.11997C3.99826 9.37997 3.70826 10.76 2.68826 14.3C2.43939 15.2484 2.12188 16.1776 1.73826 17.08C1.42826 17.7 1.01826 18.2 0.96826 18.41C0.948561 18.5777 0.982455 18.7474 1.06509 18.8947C1.14772 19.042 1.27484 19.1593 1.42826 19.23C2.01013 19.5433 2.63788 19.7627 3.28826 19.88C4.13826 20.01 4.28826 19.97 11.3483 19.88C11.4424 19.8773 11.5317 19.8374 11.5964 19.7689C11.6611 19.7005 11.6959 19.6091 11.6933 19.515C11.6906 19.4208 11.6507 19.3316 11.5822 19.2669C11.5138 19.2022 11.4224 19.1673 11.3283 19.17Z" fill="#7A387B"/>
<path fill-rule="evenodd" clip-rule="evenodd" d="M14.2783 3.14996C14.5083 4.47996 12.4383 6.63996 14.5383 6.81996C15.5082 6.86304 16.4763 6.69943 17.3783 6.33996L18.5883 5.79996C18.8483 5.67996 18.8983 5.45996 18.7983 5.29996C18.5583 4.90996 17.6783 5.29996 17.0583 5.54996C16.286 5.71146 15.4961 5.77197 14.7083 5.72996C15.1906 4.6621 15.2827 3.45874 14.9683 2.32996C14.5683 1.99996 14.1283 2.28996 14.2783 3.14996Z" fill="#7A387B"/>
<path fill-rule="evenodd" clip-rule="evenodd" d="M15.3383 0.669984C14.2283 0.589984 14.9683 0.609984 6.46826 0.819984C6.37808 0.819984 6.2916 0.855805 6.22784 0.919568C6.16408 0.98333 6.12826 1.06981 6.12826 1.15998C6.12826 1.25016 6.16408 1.33664 6.22784 1.4004C6.2916 1.46416 6.37808 1.49998 6.46826 1.49998C6.46826 1.49998 15.0283 1.78998 15.2383 1.80998C16.1783 1.88998 19.3383 4.80998 19.3283 5.37998C19.3283 6.84998 19.0283 9.24998 18.8783 10.68C18.8676 10.7595 18.8891 10.8401 18.9378 10.9038C18.9866 10.9676 19.0587 11.0094 19.1383 11.02C19.2178 11.0306 19.2983 11.0092 19.3621 10.9604C19.4259 10.9116 19.4676 10.8395 19.4783 10.76C19.6683 9.53998 20.1583 7.06998 20.3083 5.43998C20.4583 3.80998 16.6783 0.789984 15.3383 0.669984Z" fill="#7A387B"/>
<path fill-rule="evenodd" clip-rule="evenodd" d="M20.6483 2.17997C21.6093 3.02291 22.2897 4.13946 22.5983 5.37997C22.5983 6.84997 22.1383 8.86997 21.9883 10.3C21.9776 10.3795 21.9991 10.4601 22.0478 10.5238C22.0966 10.5876 22.1687 10.6294 22.2483 10.64C22.3278 10.6506 22.4083 10.6291 22.4721 10.5804C22.5359 10.5316 22.5776 10.4595 22.5883 10.38C22.7783 9.15997 23.4283 7.06997 23.5883 5.43997C23.5494 4.63864 23.3206 3.85803 22.9207 3.16254C22.5208 2.46706 21.9613 1.87662 21.2883 1.43997C20.2983 0.929966 20.1783 1.89997 20.6483 2.17997Z" fill="#998696"/>
<path fill-rule="evenodd" clip-rule="evenodd" d="M9.55826 9.39996C9.55826 9.07996 9.35826 9.00996 9.06826 9.05996C8.82186 9.14548 8.58937 9.26678 8.37826 9.41996C7.57459 9.81148 6.88567 10.4039 6.37826 11.14C6.05826 11.76 6.78826 12.14 6.93826 12.32C7.52963 12.8358 8.1507 13.3167 8.79826 13.76C8.86308 13.8176 8.94745 13.8482 9.03412 13.8457C9.1208 13.8431 9.20322 13.8075 9.26454 13.7462C9.32585 13.6849 9.36142 13.6025 9.36397 13.5158C9.36652 13.4292 9.33586 13.3448 9.27826 13.28C8.96826 12.91 8.53826 12.52 8.15826 12.11C7.77826 11.7 7.94826 11.74 7.52826 11.46C8.70826 9.99996 9.60826 9.86996 9.55826 9.39996Z" fill="#7A387B"/>
<path fill-rule="evenodd" clip-rule="evenodd" d="M14.7583 10.09C14.0443 9.61641 13.2413 9.29317 12.3983 9.14001C12.3463 9.16978 12.3032 9.21274 12.2731 9.26454C12.2431 9.31634 12.2273 9.37514 12.2273 9.43501C12.2273 9.49488 12.2431 9.55369 12.2731 9.60549C12.3032 9.65729 12.3463 9.70025 12.3983 9.73001C12.9263 10.0112 13.4342 10.3286 13.9183 10.68C13.7083 11.01 12.9983 11.86 12.6283 12.3C12.2583 12.74 11.6283 12.96 11.9383 13.3C12.2483 13.64 12.8083 13.21 13.2283 12.87C14.2483 12.1 15.8183 11 14.7583 10.09Z" fill="#7A387B"/>
</g>
<defs>
<clipPath id="clip0_3013_15667">
<rect width="24" height="24" fill="white" transform="translate(0.968262)"/>
</clipPath>
</defs>
</svg>
