<svg width="25" height="24" viewBox="0 0 25 24" fill="none" xmlns="http://www.w3.org/2000/svg">
<g clip-path="url(#clip0_3013_15706)">
<path fill-rule="evenodd" clip-rule="evenodd" d="M10.3182 10.28C10.3982 10.51 10.7582 10.39 10.6682 10.16C10.3182 8.93998 7.1082 10.42 7.7782 12.74C7.87893 13.1783 8.14006 13.563 8.51021 13.8184C8.88036 14.0738 9.3327 14.1814 9.7782 14.12C10.0926 14.1146 10.3985 14.0172 10.6582 13.84C10.7727 13.7517 10.8738 13.6473 10.9582 13.53C10.978 13.4958 10.9882 13.457 10.9878 13.4176C10.9874 13.3781 10.9764 13.3395 10.9559 13.3057C10.9355 13.272 10.9063 13.2444 10.8716 13.2258C10.8368 13.2072 10.7976 13.1983 10.7582 13.2C10.5482 13.2 10.5682 13.47 10.1082 13.57C9.67822 13.6403 9.23734 13.5515 8.8682 13.32C8.62356 13.0829 8.45779 12.7763 8.39339 12.4417C8.32898 12.1072 8.36907 11.761 8.5082 11.45C8.9682 10.33 10.1782 9.93998 10.3182 10.28Z" fill="#7A387B"/>
<path fill-rule="evenodd" clip-rule="evenodd" d="M13.2382 10.22C13.3382 10.22 13.6082 10.29 13.6582 10.37C13.6875 10.3944 13.7235 10.4094 13.7615 10.4131C13.7994 10.4167 13.8376 10.4089 13.8711 10.3905C13.9045 10.3722 13.9317 10.3442 13.949 10.3102C13.9663 10.2762 13.973 10.2378 13.9682 10.2C13.8887 10.0859 13.7863 9.98954 13.6675 9.91723C13.5487 9.84491 13.4161 9.79817 13.2782 9.78C13.0935 9.74036 12.9024 9.74177 12.7183 9.78413C12.5342 9.82649 12.3617 9.90876 12.2129 10.0251C12.0641 10.1415 11.9426 10.2891 11.8572 10.4576C11.7717 10.626 11.7242 10.8112 11.7182 11C11.7682 12 13.2582 12.1 13.4282 12.76C13.5482 13.23 12.8182 13.76 12.4282 13.55C12.3818 13.5182 12.3246 13.5061 12.2693 13.5164C12.214 13.5267 12.165 13.5586 12.1332 13.605C12.1014 13.6514 12.0893 13.7086 12.0996 13.7639C12.1099 13.8192 12.1418 13.8682 12.1882 13.9C12.8982 14.43 14.1882 13.6 14.0282 12.63C13.8682 11.66 12.4482 11.41 12.3982 11C12.3482 10.59 12.8282 10.19 13.2382 10.22Z" fill="#7A387B"/>
<path fill-rule="evenodd" clip-rule="evenodd" d="M16.5482 10.47C16.5482 10.47 16.6282 10.47 16.6182 10.55C16.6094 10.599 16.6202 10.6495 16.6482 10.6907C16.6763 10.7318 16.7194 10.7603 16.7682 10.77C17.0082 10.77 17.1282 10.39 16.7682 10.15C16.532 10.0312 16.2696 9.97444 16.0055 9.98493C15.7413 9.99543 15.4842 10.0729 15.2582 10.21C15.1381 10.2731 15.0334 10.362 14.9516 10.4703C14.8699 10.5787 14.8131 10.7037 14.7854 10.8366C14.7577 10.9694 14.7597 11.1068 14.7913 11.2388C14.8229 11.3707 14.8833 11.4941 14.9682 11.6C15.3382 12.1 16.4382 12.39 16.4582 12.75C16.4782 13.11 16.3782 13.5 16.1382 13.62C15.9819 13.7039 15.8051 13.7418 15.6281 13.7294C15.4511 13.717 15.2813 13.6548 15.1382 13.55C15.0975 13.512 15.0439 13.4909 14.9882 13.4909C14.9325 13.4909 14.8789 13.512 14.8382 13.55C14.2582 14.05 17.1082 15.14 17.1182 12.75C17.1182 11.84 15.8082 11.58 15.4782 11.2C15.1482 10.82 16.1182 10.31 16.5482 10.47Z" fill="#7A387B"/>
<path fill-rule="evenodd" clip-rule="evenodd" d="M16.6782 5.61001C16.4572 5.61103 16.2365 5.59431 16.0182 5.56001C16.0782 5.34001 16.1682 5.08001 16.2582 4.80001C16.6882 3.38001 16.8982 1.89001 15.7582 0.930012C15.7053 0.888574 15.6389 0.868349 15.5718 0.87329C15.5048 0.87823 15.4421 0.907981 15.3958 0.956729C15.3496 1.00548 15.3232 1.06972 15.3218 1.1369C15.3203 1.20408 15.344 1.26937 15.3882 1.32001C16.5682 2.60001 15.1182 4.37001 14.9682 5.71001C14.8182 7.05001 18.0382 6.61001 19.1482 6.10001L20.8382 5.39001C20.9081 5.3534 20.9637 5.29422 20.9957 5.22208C21.0278 5.14994 21.0345 5.06908 21.0148 4.99263C20.9951 4.91618 20.9502 4.84863 20.8872 4.80095C20.8243 4.75328 20.7471 4.72828 20.6682 4.73001C18.5482 5.50001 18.4582 5.65001 16.6782 5.61001Z" fill="#7A387B"/>
<path fill-rule="evenodd" clip-rule="evenodd" d="M16.8482 0.06C15.4682 0 16.0982 0 6.9682 0C6.88201 0 6.79934 0.034241 6.73839 0.0951903C6.67744 0.15614 6.6432 0.238805 6.6432 0.325C6.6432 0.411195 6.67744 0.49386 6.73839 0.55481C6.79934 0.615759 6.88201 0.65 6.9682 0.65C15.4782 0.72 15.7282 0.65 16.7882 0.81C17.8482 0.97 20.5382 3.46 21.2182 4.51C21.3614 4.68332 21.4486 4.89604 21.4682 5.12C21.3682 6.66 20.7282 11.12 20.4682 12.2C20.2082 13.28 20.0182 14 19.8382 14.91C19.7682 15.27 19.3182 19.51 18.1882 20.06C16.5982 20.83 14.8182 20.32 13.1882 20.46C11.666 20.6069 10.1374 20.6769 8.6082 20.67C3.2082 20.48 3.4582 20.56 1.9982 19.86C3.3282 18.05 4.2182 13.86 4.6882 11.41C5.2182 8.71 5.0382 5.96 5.2482 3.24C5.2482 2.77 5.7182 0.24 4.9482 0.62C4.6382 0.76 4.7382 1.22 4.7382 1.43C4.7382 2.78 4.4082 8.02 4.3282 8.89C3.93201 12.1569 3.09785 15.3556 1.8482 18.4C1.6882 18.7 1.4982 18.99 1.3182 19.27C1.17392 19.4397 1.059 19.6324 0.978204 19.84C0.963058 19.9955 0.996215 20.1519 1.07316 20.2879C1.1501 20.4239 1.2671 20.5329 1.4082 20.6C2.03265 20.9529 2.70698 21.2091 3.4082 21.36C6.67856 21.6828 9.97047 21.7263 13.2482 21.49C14.9382 21.34 16.8182 21.88 18.6582 20.98C20.3382 20.16 20.7182 15.73 20.8382 15.1C21.0082 14.19 21.2482 13.3 21.4282 12.4C21.6082 11.5 22.2182 6.9 22.3082 5.16C22.3882 3.65 18.2382 0.17 16.8482 0.06Z" fill="#7A387B"/>
<path fill-rule="evenodd" clip-rule="evenodd" d="M24.0582 5.81C23.9582 7.35 23.1182 13.52 22.8982 14.56C22.6782 15.6 22.4482 16.36 22.2682 17.27C22.1982 17.63 21.7482 21.87 20.6182 22.42C19.0282 23.18 17.2482 22.68 15.6182 22.82C14.6182 22.91 12.3782 23.07 11.0382 23.03C5.8882 22.84 5.8982 23.03 4.6382 22.46C3.9082 22.17 3.7282 22.87 4.1782 23.18C4.69401 23.4842 5.27155 23.6688 5.8682 23.72C9.1353 24.043 12.4242 24.0832 15.6982 23.84C17.3882 23.7 19.2682 24.24 21.1082 23.34C22.7882 22.52 23.1782 18.09 23.2882 17.46C23.4582 16.55 23.6982 15.66 23.8782 14.76C24.0582 13.86 24.8882 7.68 24.9682 6C25.0182 5.06 24.1682 4.92 24.0582 5.81Z" fill="#998696"/>
</g>
<defs>
<clipPath id="clip0_3013_15706">
<rect width="24" height="24" fill="white" transform="translate(0.968201)"/>
</clipPath>
</defs>
</svg>
