<svg width="25" height="24" viewBox="0 0 25 24" fill="none" xmlns="http://www.w3.org/2000/svg">
<g clip-path="url(#clip0_3013_15657)">
<path fill-rule="evenodd" clip-rule="evenodd" d="M18.3382 21.29C18.4404 21.3907 18.5622 21.4694 18.696 21.5212C18.8298 21.573 18.9728 21.5968 19.1162 21.5912C19.2596 21.5855 19.4003 21.5506 19.5296 21.4885C19.6589 21.4264 19.7742 21.3384 19.8682 21.23C19.9721 21.0262 20.003 20.7929 19.9557 20.569C19.9083 20.3452 19.7857 20.1444 19.6082 20C18.6582 19.48 17.4882 20.44 18.3382 21.29Z" fill="#7A387B"/>
<path fill-rule="evenodd" clip-rule="evenodd" d="M24.9682 21.09C24.2857 18.7632 23.3184 16.5296 22.0882 14.44C21.7567 13.9289 21.382 13.4471 20.9682 13C20.8082 12.93 20.3282 12.93 20.5182 13.44C20.7682 14.19 20.7282 13.44 21.9882 15.88C22.6407 17.263 23.2052 18.6858 23.6782 20.14C23.8282 20.57 24.1382 21.39 23.9182 21.8C23.4682 22.66 22.1982 22.72 21.2182 22.75C19.0382 22.87 16.4182 22.89 14.4182 22C13.3182 21.52 14.1282 20.59 14.6082 19.48C15.3782 17.65 18.5282 12.15 19.6082 12.59C19.6778 12.6056 19.7506 12.596 19.8137 12.5628C19.8768 12.5295 19.926 12.4749 19.9524 12.4087C19.9789 12.3425 19.981 12.2691 19.9582 12.2015C19.9354 12.1339 19.8893 12.0767 19.8282 12.04C18.0782 11.27 14.4582 17.47 13.6882 19.04C13.1682 20.18 11.8282 22 13.9682 23C16.1082 24 18.7982 24 21.2882 23.84C22.7182 23.74 24.1782 23.53 24.8082 22.24C24.9796 21.8826 25.0355 21.4807 24.9682 21.09Z" fill="#7A387B"/>
<path fill-rule="evenodd" clip-rule="evenodd" d="M19.6282 16.53C19.5368 15.9889 19.4098 15.4544 19.2482 14.93C19.1682 14.8 18.8382 14.69 18.6982 15.12C18.6482 15.26 18.5382 15.9 18.5082 16.04C18.4786 16.2791 18.4786 16.5209 18.5082 16.76C18.5783 17.3542 18.7055 17.9402 18.8882 18.51C19.5382 18.84 19.7182 17.26 19.6282 16.53Z" fill="#7A387B"/>
<path fill-rule="evenodd" clip-rule="evenodd" d="M11.0482 18.16C4.18819 18 4.14819 18 3.40819 17.88C2.98464 17.8348 2.58422 17.6642 2.25819 17.39C2.5486 16.9562 2.78691 16.4896 2.96819 16C5.32819 9.77001 4.72819 6.36001 4.96819 3.14001C4.89819 3.46001 4.96819 1.00001 4.96819 1.00001C4.95647 0.957616 4.93557 0.918319 4.90697 0.884901C4.87837 0.851484 4.84277 0.824765 4.8027 0.806636C4.76262 0.788507 4.71905 0.779412 4.67507 0.779995C4.63109 0.780578 4.58777 0.790824 4.54819 0.810009C4.23819 0.940009 4.32819 1.42001 4.31819 1.57001C3.96819 8.63001 3.65819 10 2.66819 13.43C2.41834 14.3496 2.10766 15.2516 1.73819 16.13C1.41819 16.74 1.01819 17.22 0.978193 17.43C0.960539 17.5936 0.994415 17.7586 1.07509 17.9021C1.15576 18.0455 1.27921 18.1601 1.42819 18.23C1.99612 18.5305 2.60642 18.7429 3.23819 18.86C4.06819 18.99 4.23819 18.95 11.0782 18.86C11.171 18.856 11.2585 18.8153 11.3213 18.7469C11.3841 18.6784 11.4172 18.5878 11.4132 18.495C11.4092 18.4022 11.3685 18.3147 11.3001 18.2519C11.2316 18.1891 11.141 18.156 11.0482 18.16Z" fill="#7A387B"/>
<path fill-rule="evenodd" clip-rule="evenodd" d="M6.32819 1.00001L13.4882 1.21001C13.8001 1.69287 13.9667 2.25518 13.9682 2.83001C13.7782 4.12001 12.1582 5.97001 14.1982 6.14001C15.1435 6.18106 16.0869 6.02439 16.9682 5.68001L18.1482 5.15001C18.198 5.13716 18.244 5.11285 18.2828 5.07902C18.3215 5.0452 18.3517 5.00281 18.3712 4.95521C18.3906 4.90762 18.3986 4.85614 18.3946 4.80489C18.3907 4.75364 18.3747 4.70403 18.3482 4.66001C18.1182 4.28001 17.2682 4.66001 16.6582 4.91001C15.9091 5.06755 15.1424 5.12472 14.3782 5.08001C14.7682 3.73001 15.2082 2.70001 14.3082 1.22001H14.8882C15.7982 1.31001 18.8882 4.14001 18.8882 4.70001C18.8882 6.14001 18.5982 8.47001 18.4582 9.86001C18.4668 9.9152 18.4912 9.96672 18.5284 10.0084C18.5656 10.05 18.6141 10.0801 18.6679 10.0949C18.7218 10.1096 18.7788 10.1086 18.8321 10.0917C18.8853 10.0749 18.9326 10.0431 18.9682 10C19.1482 8.81001 19.6182 6.40001 19.7782 4.82001C19.9382 3.24001 16.2682 0.270014 14.9682 0.150014C13.8882 0.0800138 14.5682 0.150014 6.33819 0.300014C6.24536 0.298688 6.15581 0.334291 6.08924 0.398991C6.02266 0.463691 5.98452 0.552188 5.98319 0.645014C5.98186 0.73784 6.01747 0.82739 6.08217 0.893966C6.14687 0.960541 6.23536 0.998688 6.32819 1.00001Z" fill="#7A387B"/>
<path fill-rule="evenodd" clip-rule="evenodd" d="M9.46818 8.47999C9.46818 8.16999 9.26818 8.09999 8.97818 8.13999C8.73574 8.23182 8.50696 8.35631 8.29818 8.50999C7.49322 8.88566 6.80289 9.469 6.29818 10.2C5.97818 10.82 6.69818 11.2 6.84818 11.37C7.43937 11.883 8.06046 12.3605 8.70818 12.8C8.77417 12.847 8.8548 12.869 8.93552 12.8618C9.01625 12.8547 9.09177 12.8189 9.14847 12.761C9.20517 12.7031 9.23932 12.6268 9.24477 12.546C9.25022 12.4651 9.2266 12.385 9.17818 12.32C8.86818 11.96 8.44818 11.57 8.07818 11.16C7.70818 10.75 7.85818 10.8 7.44818 10.52C8.61818 8.99999 9.51818 8.99999 9.46818 8.47999Z" fill="#7A387B"/>
<path fill-rule="evenodd" clip-rule="evenodd" d="M14.6082 9.16998C13.9053 8.6981 13.1117 8.37796 12.2782 8.22998C12.226 8.25832 12.1824 8.30022 12.152 8.35126C12.1217 8.4023 12.1057 8.46059 12.1057 8.51998C12.1057 8.57937 12.1217 8.63766 12.152 8.6887C12.1824 8.73974 12.226 8.78164 12.2782 8.80998C12.8064 9.08524 13.3114 9.40295 13.7882 9.75998C13.5882 10.07 12.8782 10.92 12.5082 11.35C12.1382 11.78 11.5082 12.01 11.8282 12.35C12.1482 12.69 12.6882 12.27 13.1082 11.92C14.1082 11.15 15.6582 9.99998 14.6082 9.16998Z" fill="#7A387B"/>
<path fill-rule="evenodd" clip-rule="evenodd" d="M19.9682 0.999997C20.9074 1.85258 21.5692 2.96728 21.8682 4.2C21.8682 5.67 20.9582 9.63 20.8682 11.06C20.8576 11.1396 20.879 11.2201 20.9278 11.2838C20.9765 11.3476 21.0486 11.3894 21.1282 11.4C21.2077 11.4106 21.2883 11.3892 21.352 11.3404C21.4158 11.2917 21.4576 11.2196 21.4682 11.14C21.6482 9.92 22.7382 5.88 22.8982 4.26C22.857 3.45923 22.6272 2.67952 22.2275 1.98441C21.8278 1.2893 21.2695 0.698447 20.5982 0.259997C19.5682 -0.260003 19.4382 0.719997 19.9682 0.999997Z" fill="#998696"/>
</g>
<defs>
<clipPath id="clip0_3013_15657">
<rect width="24" height="24" fill="white" transform="translate(0.968201)"/>
</clipPath>
</defs>
</svg>
