<svg width="25" height="24" viewBox="0 0 25 24" fill="none" xmlns="http://www.w3.org/2000/svg">
<g clip-path="url(#clip0_3013_15742)">
<path fill-rule="evenodd" clip-rule="evenodd" d="M16.6782 5.61001C16.4572 5.61103 16.2365 5.59431 16.0182 5.56001C16.0782 5.34001 16.1682 5.08001 16.2582 4.80001C16.6882 3.38001 16.8982 1.89001 15.7582 0.930012C15.7053 0.888574 15.6389 0.868349 15.5718 0.87329C15.5048 0.87823 15.4421 0.907981 15.3958 0.956729C15.3496 1.00548 15.3232 1.06972 15.3218 1.1369C15.3203 1.20408 15.344 1.26937 15.3882 1.32001C16.5682 2.60001 15.1182 4.37001 14.9682 5.71001C14.8182 7.05001 18.0382 6.61001 19.1482 6.10001L20.8382 5.39001C20.9081 5.3534 20.9637 5.29422 20.9957 5.22208C21.0278 5.14994 21.0345 5.06908 21.0148 4.99263C20.9951 4.91618 20.9502 4.84863 20.8872 4.80095C20.8243 4.75328 20.7471 4.72828 20.6682 4.73001C18.5482 5.50001 18.4582 5.65001 16.6782 5.61001Z" fill="#7A387B"/>
<path fill-rule="evenodd" clip-rule="evenodd" d="M16.8482 0.06C15.4682 0 16.0982 0 6.96819 0C6.88199 0 6.79933 0.034241 6.73838 0.0951903C6.67743 0.15614 6.64319 0.238805 6.64319 0.325C6.64319 0.411195 6.67743 0.49386 6.73838 0.55481C6.79933 0.615759 6.88199 0.65 6.96819 0.65C15.4782 0.72 15.7282 0.65 16.7882 0.81C17.8482 0.97 20.5382 3.46 21.2182 4.51C21.3614 4.68332 21.4486 4.89604 21.4682 5.12C21.3682 6.66 20.7282 11.12 20.4682 12.2C20.2082 13.28 20.0182 14 19.8382 14.91C19.7682 15.27 19.3182 19.51 18.1882 20.06C16.5982 20.83 14.8182 20.32 13.1882 20.46C11.666 20.6069 10.1374 20.6769 8.60819 20.67C3.20819 20.48 3.45819 20.56 1.99819 19.86C3.32819 18.05 4.21819 13.86 4.68819 11.41C5.21819 8.71 5.03819 5.96 5.24819 3.24C5.24819 2.77 5.71819 0.24 4.94819 0.62C4.63819 0.76 4.73819 1.22 4.73819 1.43C4.73819 2.78 4.40819 8.02 4.32819 8.89C3.93199 12.1569 3.09784 15.3556 1.84819 18.4C1.68819 18.7 1.49819 18.99 1.31819 19.27C1.1739 19.4397 1.05899 19.6324 0.978189 19.84C0.963043 19.9955 0.9962 20.1519 1.07314 20.2879C1.15009 20.4239 1.26708 20.5329 1.40819 20.6C2.03264 20.9529 2.70696 21.2091 3.40819 21.36C6.67854 21.6828 9.97045 21.7263 13.2482 21.49C14.9382 21.34 16.8182 21.88 18.6582 20.98C20.3382 20.16 20.7182 15.73 20.8382 15.1C21.0082 14.19 21.2482 13.3 21.4282 12.4C21.6082 11.5 22.2182 6.9 22.3082 5.16C22.3882 3.65 18.2382 0.17 16.8482 0.06Z" fill="#7A387B"/>
<path fill-rule="evenodd" clip-rule="evenodd" d="M24.0582 5.81C23.9582 7.35 23.1182 13.52 22.8982 14.56C22.6782 15.6 22.4482 16.36 22.2682 17.27C22.1982 17.63 21.7482 21.87 20.6182 22.42C19.0282 23.18 17.2482 22.68 15.6182 22.82C14.6182 22.91 12.3782 23.07 11.0382 23.03C5.88819 22.84 5.8982 23.03 4.6382 22.46C3.9082 22.17 3.7282 22.87 4.1782 23.18C4.694 23.4842 5.27154 23.6688 5.8682 23.72C9.13529 24.043 12.4242 24.0832 15.6982 23.84C17.3882 23.7 19.2682 24.24 21.1082 23.34C22.7882 22.52 23.1782 18.09 23.2882 17.46C23.4582 16.55 23.6982 15.66 23.8782 14.76C24.0582 13.86 24.8882 7.68 24.9682 6C25.0182 5.06 24.1682 4.92 24.0582 5.81Z" fill="#998696"/>
<path fill-rule="evenodd" clip-rule="evenodd" d="M9.07818 11.6C10.5182 10.35 10.8682 10.4 10.6782 10.07C10.6398 10.0159 10.5822 9.97845 10.5171 9.96544C10.452 9.95242 10.3844 9.96478 10.3282 9.99998C9.32818 10.49 6.65818 11.89 7.00818 12.93C7.23818 13.6 10.1482 15.61 10.3482 15.61C10.4243 15.6075 10.4966 15.5761 10.5505 15.5223C10.6043 15.4684 10.6357 15.3961 10.6382 15.32C10.6382 15.11 10.4282 15.02 10.2682 14.88C9.71818 14.4 8.44818 13.22 8.14818 12.88C8.14818 12.88 8.04818 12.81 7.99818 12.76C8.32779 12.3461 8.68886 11.9583 9.07818 11.6Z" fill="#7A387B"/>
<path fill-rule="evenodd" clip-rule="evenodd" d="M13.4282 15.23C13.4282 15.3069 13.4587 15.3807 13.5131 15.4351C13.5675 15.4895 13.6413 15.52 13.7182 15.52C14.7666 14.9145 15.7487 14.2006 16.6482 13.39C16.9382 13.07 17.2282 12.79 17.0382 12.39C16.5382 11.39 14.7682 10.39 13.7382 9.93003C13.6812 9.90934 13.6187 9.90922 13.5617 9.9297C13.5046 9.95018 13.4565 9.98996 13.4256 10.0422C13.3948 10.0944 13.3831 10.1557 13.3927 10.2156C13.4023 10.2754 13.4326 10.3301 13.4782 10.37C14.4316 11.0249 15.3014 11.794 16.0682 12.66C15.7382 12.92 15.4482 13.39 13.7982 14.81C13.6382 14.93 13.4282 15 13.4282 15.23Z" fill="#7A387B"/>
</g>
<defs>
<clipPath id="clip0_3013_15742">
<rect width="24" height="24" fill="white" transform="translate(0.968201)"/>
</clipPath>
</defs>
</svg>
