<svg width="25" height="24" viewBox="0 0 25 24" fill="none" xmlns="http://www.w3.org/2000/svg">
<g clip-path="url(#clip0_3013_15716)">
<path fill-rule="evenodd" clip-rule="evenodd" d="M16.6782 5.61001C16.4572 5.61103 16.2365 5.59431 16.0182 5.56001C16.0782 5.34001 16.1682 5.08001 16.2582 4.80001C16.6882 3.38001 16.8982 1.89001 15.7582 0.930012C15.7053 0.888574 15.6389 0.868349 15.5718 0.87329C15.5048 0.87823 15.4421 0.907981 15.3958 0.956729C15.3496 1.00548 15.3232 1.06972 15.3218 1.1369C15.3203 1.20408 15.344 1.26937 15.3882 1.32001C16.5682 2.60001 15.1182 4.37001 14.9682 5.71001C14.8182 7.05001 18.0382 6.61001 19.1482 6.10001L20.8382 5.39001C20.9081 5.3534 20.9637 5.29422 20.9957 5.22208C21.0278 5.14994 21.0345 5.06908 21.0148 4.99263C20.9951 4.91618 20.9502 4.84863 20.8872 4.80095C20.8243 4.75328 20.7471 4.72828 20.6682 4.73001C18.5482 5.50001 18.4582 5.65001 16.6782 5.61001Z" fill="#7A387B"/>
<path fill-rule="evenodd" clip-rule="evenodd" d="M16.8482 0.06C15.4682 0 16.0982 0 6.9682 0C6.88201 0 6.79934 0.034241 6.73839 0.0951903C6.67744 0.15614 6.6432 0.238805 6.6432 0.325C6.6432 0.411195 6.67744 0.49386 6.73839 0.55481C6.79934 0.615759 6.88201 0.65 6.9682 0.65C15.4782 0.72 15.7282 0.65 16.7882 0.81C17.8482 0.97 20.5382 3.46 21.2182 4.51C21.3614 4.68332 21.4486 4.89604 21.4682 5.12C21.3682 6.66 20.7282 11.12 20.4682 12.2C20.2082 13.28 20.0182 14 19.8382 14.91C19.7682 15.27 19.3182 19.51 18.1882 20.06C16.5982 20.83 14.8182 20.32 13.1882 20.46C11.666 20.6069 10.1374 20.6769 8.6082 20.67C3.2082 20.48 3.4582 20.56 1.9982 19.86C3.3282 18.05 4.2182 13.86 4.6882 11.41C5.2182 8.71 5.0382 5.96 5.2482 3.24C5.2482 2.77 5.7182 0.24 4.9482 0.62C4.6382 0.76 4.7382 1.22 4.7382 1.43C4.7382 2.78 4.4082 8.02 4.3282 8.89C3.93201 12.1569 3.09785 15.3556 1.8482 18.4C1.6882 18.7 1.4982 18.99 1.3182 19.27C1.17392 19.4397 1.059 19.6324 0.978204 19.84C0.963058 19.9955 0.996215 20.1519 1.07316 20.2879C1.1501 20.4239 1.2671 20.5329 1.4082 20.6C2.03265 20.9529 2.70698 21.2091 3.4082 21.36C6.67856 21.6828 9.97047 21.7263 13.2482 21.49C14.9382 21.34 16.8182 21.88 18.6582 20.98C20.3382 20.16 20.7182 15.73 20.8382 15.1C21.0082 14.19 21.2482 13.3 21.4282 12.4C21.6082 11.5 22.2182 6.9 22.3082 5.16C22.3882 3.65 18.2382 0.17 16.8482 0.06Z" fill="#7A387B"/>
<path fill-rule="evenodd" clip-rule="evenodd" d="M24.0582 5.81C23.9582 7.35 23.1182 13.52 22.8982 14.56C22.6782 15.6 22.4482 16.36 22.2682 17.27C22.1982 17.63 21.7482 21.87 20.6182 22.42C19.0282 23.18 17.2482 22.68 15.6182 22.82C14.6182 22.91 12.3782 23.07 11.0382 23.03C5.88821 22.84 5.89821 23.03 4.63821 22.46C3.90821 22.17 3.72821 22.87 4.17821 23.18C4.69402 23.4842 5.27156 23.6688 5.86821 23.72C9.13531 24.043 12.4242 24.0832 15.6982 23.84C17.3882 23.7 19.2682 24.24 21.1082 23.34C22.7882 22.52 23.1782 18.09 23.2882 17.46C23.4582 16.55 23.6982 15.66 23.8782 14.76C24.0582 13.86 24.8882 7.68 24.9682 6C25.0182 5.06 24.1682 4.92 24.0582 5.81Z" fill="#998696"/>
<path fill-rule="evenodd" clip-rule="evenodd" d="M9.5882 8.99998C9.61895 9.03265 9.65895 9.05513 9.70284 9.06442C9.74674 9.07371 9.79242 9.06936 9.83377 9.05195C9.87511 9.03454 9.91015 9.00491 9.93418 8.96702C9.95821 8.92913 9.97008 8.88481 9.9682 8.83998C9.5582 7.43998 5.8482 9.13998 6.6182 11.84C6.73813 12.3567 7.04916 12.8089 7.4888 13.1057C7.92844 13.4025 8.46412 13.5219 8.9882 13.44C9.34597 13.4264 9.69262 13.312 9.9882 13.11C10.1195 13.0089 10.2371 12.8913 10.3382 12.76C10.3586 12.719 10.3681 12.6734 10.3661 12.6277C10.364 12.5819 10.3503 12.5375 10.3263 12.4985C10.3023 12.4595 10.2688 12.4272 10.2289 12.4047C10.189 12.3823 10.144 12.3703 10.0982 12.37C9.8582 12.37 9.8882 12.68 9.3582 12.8C8.87401 12.8664 8.3819 12.7602 7.9682 12.5C7.68439 12.2248 7.49192 11.8692 7.4168 11.4811C7.34169 11.093 7.38755 10.6912 7.5482 10.33C8.0682 8.99998 9.4282 8.58998 9.5882 8.99998Z" fill="#7A387B"/>
<path fill-rule="evenodd" clip-rule="evenodd" d="M11.6182 11.21C11.6182 11.37 11.6182 11.03 11.6882 12.54C11.6999 12.599 11.7318 12.6521 11.7783 12.6902C11.8248 12.7284 11.8831 12.7493 11.9432 12.7493C12.0034 12.7493 12.0616 12.7284 12.1081 12.6902C12.1546 12.6521 12.1865 12.599 12.1982 12.54C12.3216 12.0983 12.4053 11.6465 12.4482 11.19C12.8382 11.19 13.2282 11.13 13.6382 11.09C13.7045 11.09 13.7681 11.0637 13.815 11.0168C13.8619 10.9699 13.8882 10.9063 13.8882 10.84C13.8882 10.7737 13.8619 10.7101 13.815 10.6632C13.7681 10.6163 13.7045 10.59 13.6382 10.59C13.2182 10.52 12.8182 10.44 12.4282 10.39C12.3782 10.04 12.2982 9.69 12.2682 9.34C12.2682 9.28165 12.245 9.22569 12.2038 9.18443C12.1625 9.14317 12.1066 9.12 12.0482 9.12C11.9899 9.12 11.9339 9.14317 11.8926 9.18443C11.8514 9.22569 11.8282 9.28165 11.8282 9.34C11.747 9.66969 11.6836 10.0035 11.6382 10.34C11.2032 10.3515 10.7721 10.4256 10.3582 10.56C10.3066 10.5709 10.2604 10.5992 10.2272 10.6402C10.194 10.6812 10.1759 10.7323 10.1759 10.785C10.1759 10.8377 10.194 10.8888 10.2272 10.9298C10.2604 10.9707 10.3066 10.9991 10.3582 11.01C11.0282 11.08 10.8582 11.16 11.6182 11.21Z" fill="#7A387B"/>
<path fill-rule="evenodd" clip-rule="evenodd" d="M15.7982 11.21C15.7982 11.37 15.7982 11.03 15.8682 12.54C15.8682 12.6063 15.8945 12.6699 15.9414 12.7168C15.9883 12.7637 16.0519 12.79 16.1182 12.79C16.1845 12.79 16.2481 12.7637 16.295 12.7168C16.3419 12.6699 16.3682 12.6063 16.3682 12.54C16.497 12.0991 16.584 11.6471 16.6282 11.19C17.0182 11.19 17.3982 11.13 17.8182 11.09C17.8845 11.09 17.9481 11.0637 17.995 11.0168C18.0419 10.9699 18.0682 10.9063 18.0682 10.84C18.0682 10.7737 18.0419 10.7101 17.995 10.6632C17.9481 10.6163 17.8845 10.59 17.8182 10.59C17.3982 10.52 16.9982 10.44 16.5982 10.39C16.5982 10.04 16.4782 9.69 16.4482 9.34C16.4482 9.28165 16.425 9.22569 16.3838 9.18443C16.3425 9.14317 16.2865 9.12 16.2282 9.12C16.1699 9.12 16.1139 9.14317 16.0726 9.18443C16.0314 9.22569 16.0082 9.28165 16.0082 9.34C15.927 9.66969 15.8636 10.0035 15.8182 10.34C15.3832 10.3515 14.9521 10.4256 14.5382 10.56C14.4866 10.5709 14.4404 10.5992 14.4072 10.6402C14.374 10.6812 14.3559 10.7323 14.3559 10.785C14.3559 10.8377 14.374 10.8888 14.4072 10.9298C14.4404 10.9707 14.4866 10.9991 14.5382 11.01C15.1982 11.08 15.0282 11.16 15.7982 11.21Z" fill="#7A387B"/>
</g>
<defs>
<clipPath id="clip0_3013_15716">
<rect width="24" height="24" fill="white" transform="translate(0.968201)"/>
</clipPath>
</defs>
</svg>
