<svg width="25" height="24" viewBox="0 0 25 24" fill="none" xmlns="http://www.w3.org/2000/svg">
<g clip-path="url(#clip0_3013_15642)">
<path fill-rule="evenodd" clip-rule="evenodd" d="M24.2482 9.18002C24.1282 8.00002 22.9682 7.69002 21.7582 7.70002C18.0782 7.70002 17.1882 8.70002 15.6482 8.63002C15.7182 8.49002 15.6482 8.18002 15.6482 7.97002C15.7482 6.59002 14.5782 5.83002 13.2382 5.48002C11.5923 5.15623 9.91436 5.02534 8.2382 5.09002C6.84875 5.18345 5.46823 5.38067 4.1082 5.68002C4.20527 5.31765 4.25898 4.94505 4.2682 4.57002C4.60369 4.61917 4.94563 4.60064 5.27385 4.51554C5.60208 4.43044 5.90993 4.28048 6.17928 4.07451C6.44863 3.86854 6.67401 3.61073 6.84213 3.31627C7.01026 3.02181 7.11773 2.69667 7.1582 2.36002C7.1616 2.27623 7.1348 2.19399 7.08268 2.12829C7.03056 2.06259 6.95658 2.01779 6.87421 2.00205C6.79184 1.9863 6.70655 2.00065 6.63387 2.04249C6.56119 2.08433 6.50595 2.15088 6.4782 2.23002C5.8682 4.55002 2.8382 3.40002 3.1882 2.23002C3.3548 1.85569 3.6105 1.52783 3.93298 1.27508C4.25546 1.02233 4.63491 0.852359 5.0382 0.78002C5.9882 0.68002 6.0382 1.46002 6.4282 1.12002C6.48381 1.06226 6.51487 0.985198 6.51487 0.90502C6.51487 0.824841 6.48381 0.747781 6.4282 0.69002C5.2782 -0.83998 2.3382 0.42002 2.0282 2.12002C1.98726 2.62013 2.12009 3.11905 2.40429 3.5326C2.68849 3.94614 3.10664 4.24898 3.5882 4.39002C3.39796 5.20431 3.28414 6.03458 3.2482 6.87002C3.0482 8.24002 2.8882 8.25002 2.4282 12.34C1.9682 16.05 1.5982 23.81 1.6082 23.91C1.6182 24.01 2.1782 24.18 2.2382 23.74C3.6882 13 3.5182 12.53 3.8282 9.13002C3.9282 7.98002 4.0782 7.58002 4.0982 6.33002C6.5982 5.62002 12.6382 5.44002 14.4082 7.01002C15.1082 7.64002 14.4082 8.55002 14.7682 9.18002C15.3382 10.1 17.6882 9.30002 18.7682 9.07002C19.7554 8.87229 20.7619 8.78841 21.7682 8.82002C22.2282 8.82002 23.0782 8.82002 23.1182 9.29002C23.3082 11.19 23.1182 16.83 22.9782 18.76C22.9782 18.96 22.9082 19.15 22.8982 19.26C22.3827 19.4547 21.8549 19.615 21.3182 19.74C19.1062 20.6105 16.8203 21.2799 14.4882 21.74C13.5483 21.8645 12.5928 21.7006 11.7482 21.27C10.9482 20.77 11.5282 20.27 11.5182 19.54C11.5082 18.81 10.9782 18.47 10.3182 18.26C8.27374 17.7454 6.16319 17.5431 4.0582 17.66C3.96803 17.66 3.88155 17.6958 3.81778 17.7596C3.75402 17.8234 3.7182 17.9098 3.7182 18C3.7182 18.59 4.4182 18.21 7.0082 18.45C8.0372 18.5568 9.05673 18.7406 10.0582 19C10.2608 19.0596 10.4484 19.1619 10.6082 19.3C10.6324 19.3247 10.6505 19.3548 10.6609 19.3878C10.6714 19.4209 10.6739 19.4559 10.6682 19.49C10.6682 20.21 10.0082 20.97 11.0382 21.82C12.0801 22.505 13.3295 22.8024 14.5682 22.66C16.9907 22.2618 19.371 21.6391 21.6782 20.8C22.2982 20.58 23.3182 20.55 23.8982 19.91C24.4782 19.27 24.3782 10.45 24.2482 9.18002Z" fill="#7A387B"/>
<path fill-rule="evenodd" clip-rule="evenodd" d="M10.9682 10.8C10.9697 10.7478 10.9591 10.6959 10.9372 10.6484C10.9154 10.6009 10.8829 10.5591 10.8423 10.5262C10.8016 10.4933 10.754 10.4702 10.703 10.4587C10.652 10.4473 10.599 10.4477 10.5482 10.46C9.70607 10.7536 8.90335 11.15 8.15821 11.64C7.77821 11.86 7.23821 12.08 7.15821 12.64C6.98821 13.33 7.61821 13.64 7.96821 13.98C8.66059 14.6296 9.43359 15.1875 10.2682 15.64C10.3531 15.6811 10.4508 15.6868 10.5399 15.6559C10.629 15.625 10.7021 15.5599 10.7432 15.475C10.7843 15.3901 10.79 15.2924 10.7591 15.2033C10.7281 15.1143 10.6631 15.0411 10.5782 15C9.73008 14.3464 8.9465 13.613 8.23821 12.81C10.5282 11.3 10.9082 11.15 10.9682 10.8Z" fill="#998696"/>
<path fill-rule="evenodd" clip-rule="evenodd" d="M17.7282 17.42C18.8161 16.791 19.8235 16.0321 20.7282 15.16C20.8041 15.0615 20.8595 14.9488 20.891 14.8286C20.9226 14.7083 20.9298 14.5829 20.912 14.4599C20.8943 14.3368 20.8521 14.2185 20.7879 14.1121C20.7237 14.0056 20.6388 13.9131 20.5382 13.84C20.3582 13.69 18.4482 12.62 18.2782 12.54C18.1082 12.46 17.3682 12.1 17.1582 12.31C16.6682 12.79 17.6882 13.22 19.7582 14.61C19.0468 15.41 18.2635 16.1431 17.4182 16.8C17.3487 16.8479 17.2989 16.9193 17.2778 17.001C17.2568 17.0827 17.266 17.1693 17.3037 17.2447C17.3415 17.3202 17.4052 17.3795 17.4832 17.4117C17.5612 17.4439 17.6482 17.4469 17.7282 17.42Z" fill="#998696"/>
<path fill-rule="evenodd" clip-rule="evenodd" d="M12.1282 17.24C12.7982 16.37 13.4682 15.6 14.0582 14.74C15.0082 13.38 15.2082 12.36 16.0582 11.23C16.1112 11.1704 16.1384 11.0921 16.1337 11.0124C16.129 10.9327 16.0929 10.8581 16.0332 10.805C15.9735 10.752 15.8952 10.7248 15.8155 10.7295C15.7358 10.7342 15.6612 10.7704 15.6082 10.83C13.9782 12.32 12.6882 14.88 11.6082 16.83C11.584 16.8989 11.582 16.9736 11.6024 17.0436C11.6227 17.1137 11.6645 17.1756 11.7218 17.2208C11.779 17.266 11.849 17.2921 11.9219 17.2955C11.9948 17.299 12.0669 17.2796 12.1282 17.24Z" fill="#998696"/>
</g>
<defs>
<clipPath id="clip0_3013_15642">
<rect width="24" height="24" fill="white" transform="translate(0.968201)"/>
</clipPath>
</defs>
</svg>
