<svg width="25" height="24" viewBox="0 0 25 24" fill="none" xmlns="http://www.w3.org/2000/svg">
<g clip-path="url(#clip0_3013_15615)">
<path fill-rule="evenodd" clip-rule="evenodd" d="M16.9682 12.06C16.9682 11.67 16.7082 11.53 16.5982 11.33C16.3582 10.87 15.8282 10.44 15.9782 10.09C16.2182 9.56002 16.9782 9.45002 17.5482 9.59002C17.9481 9.77477 18.3589 9.93507 18.7782 10.07C19.1482 10.13 19.4382 9.76002 19.7782 9.35002C20.2501 8.82446 20.6107 8.20874 20.8382 7.54002C20.8463 7.42439 20.8184 7.30909 20.7582 7.21002C20.1434 6.56363 19.4396 6.00806 18.6682 5.56002C18.6682 5.56002 18.5282 5.42002 18.4282 5.35002C18.7121 4.81448 18.8565 4.21608 18.8482 3.61002C18.8014 3.16906 18.6324 2.74994 18.3601 2.39992C18.0879 2.04991 17.7232 1.7829 17.3074 1.62903C16.8915 1.47515 16.4409 1.44052 16.0064 1.52904C15.5719 1.61756 15.1707 1.82571 14.8482 2.13002C14.3382 2.70002 15.1882 3.00002 15.2582 2.51002L15.5782 2.26002C15.8545 2.11145 16.1656 2.03945 16.4791 2.05147C16.7926 2.0635 17.0972 2.15911 17.3613 2.32841C17.6255 2.4977 17.8396 2.73453 17.9814 3.01437C18.1233 3.29421 18.1878 3.60689 18.1682 3.92002C18.0855 4.37496 17.923 4.8117 17.6882 5.21002C17.2982 6.01002 18.1782 5.87002 19.9882 7.57002C19.6813 8.1326 19.2863 8.6424 18.8182 9.08002L17.8182 8.66002C17.3136 8.48098 16.7624 8.48282 16.2589 8.66523C15.7555 8.84764 15.331 9.19928 15.0582 9.66002C14.5982 10.66 15.3382 11.19 15.6782 11.84C15.8982 12.28 16.0282 11.98 15.6782 12.66C15.408 13.1932 15.0721 13.6904 14.6782 14.14C13.6782 13.82 8.1782 10.91 7.5182 9.80002C7.71344 9.07281 8.05357 8.39253 8.5182 7.80002C9.6482 8.40002 10.3282 8.91002 11.3582 8.32002C13.4582 7.10002 12.7782 4.70002 10.4082 4.32002C10.674 3.71001 11.0096 3.13283 11.4082 2.60002C11.6582 2.33002 12.6682 2.83002 12.9682 2.98002C13.0451 3.01848 13.1342 3.0248 13.2157 2.99761C13.2973 2.97042 13.3647 2.91193 13.4032 2.83502C13.4417 2.75811 13.448 2.66907 13.4208 2.58749C13.3936 2.50591 13.3351 2.43848 13.2582 2.40002C11.0282 1.20002 10.9682 1.84002 9.7382 4.00002C9.5782 4.28002 9.3782 4.59002 9.6082 4.87002C9.8382 5.15002 10.5282 5.08002 10.7882 5.17002C11.4882 5.42002 12.0682 6.11002 11.7082 6.76002C11.4682 7.18002 10.8782 7.70002 10.3882 7.63002C8.3882 6.78002 8.4982 6.13002 7.5882 7.46002C7.04806 8.14587 6.70262 8.96454 6.5882 9.83002C6.5882 11.62 14.3382 15.22 14.8382 15.24C15.7182 15.29 16.9682 12.62 16.9682 12.06Z" fill="#998696"/>
<path fill-rule="evenodd" clip-rule="evenodd" d="M9.6782 19.57C9.3582 18.18 9.9382 14.49 8.2982 14.52C6.8382 14.52 7.1182 15.71 6.5982 17.12C6.4582 17.51 6.4782 17.55 5.5982 16.74C5.42912 16.5695 5.2783 16.3818 5.1482 16.18C5.2282 15.79 5.0682 16.08 5.3682 13.58C5.4782 12.69 5.4382 11.65 4.6482 11.23C4.40102 11.0933 4.11603 11.0408 3.83637 11.0805C3.55671 11.1202 3.29758 11.2499 3.0982 11.45C2.98035 11.2818 2.81739 11.1503 2.62808 11.0707C2.43878 10.9911 2.23083 10.9666 2.0282 11C0.968201 11.12 0.968201 12.34 0.968201 13.37C1.0282 16.11 3.1682 19.05 5.2082 20.88L5.8282 22.46C5.9182 22.73 6.4982 22.41 6.3982 22.14L5.9682 20.47C5.9682 20.34 1.7382 16.99 1.7782 13.36C1.7782 12.95 1.7782 11.84 2.1582 11.8C2.7382 11.74 2.6282 12.26 3.4282 14.35C3.71524 15.1346 4.08041 15.8884 4.5182 16.6C4.96388 17.2528 5.57935 17.7714 6.2982 18.1C7.5482 18.33 7.3782 16.28 7.7582 15.7C7.8482 15.55 8.0182 15.48 8.2982 15.47C9.2982 15.47 8.5182 19.83 9.1782 20.12C9.4082 20.23 9.8682 19.91 9.7182 19.71C9.7382 19.69 9.6882 19.63 9.6782 19.57ZM3.3782 11.92C3.49574 11.7881 3.6582 11.7048 3.83387 11.6863C4.00953 11.6679 4.18579 11.7155 4.3282 11.82C4.7282 12.09 4.6382 13.07 4.5982 13.62C4.55186 14.1568 4.56864 14.6971 4.6482 15.23C4.16586 14.1502 3.74192 13.0453 3.3782 11.92Z" fill="#7A387B"/>
<path fill-rule="evenodd" clip-rule="evenodd" d="M16.2182 19.71C16.0682 19.91 16.5282 20.23 16.7582 20.12C17.4182 19.83 16.6682 15.43 17.6382 15.47C17.9182 15.47 18.0882 15.55 18.1782 15.7C18.5582 16.28 18.3882 18.33 19.6382 18.1C20.3571 17.7715 20.9725 17.2528 21.4182 16.6C21.8698 15.8901 22.2484 15.1362 22.5482 14.35C23.3482 12.26 23.2382 11.74 23.8182 11.8C24.2282 11.8 24.1982 12.95 24.1982 13.36C24.1982 16.99 20.0582 20.36 20.0082 20.47L19.5382 22.14C19.4382 22.41 20.0182 22.73 20.1082 22.46L20.7282 20.88C22.7282 19.05 24.9082 16.11 24.9682 13.37C24.9682 12.37 24.9682 11.12 23.9082 11C23.701 10.9606 23.4867 10.9821 23.2915 11.0619C23.0962 11.1418 22.9283 11.2766 22.8082 11.45C22.6088 11.25 22.3497 11.1203 22.07 11.0806C21.7904 11.0409 21.5054 11.0933 21.2582 11.23C20.4682 11.65 20.4282 12.69 20.5382 13.58C20.8482 16.18 20.6782 15.81 20.7582 16.18C20.6281 16.3819 20.4773 16.5695 20.3082 16.74C19.4582 17.55 19.4782 17.51 19.3082 17.12C18.7882 15.71 19.0682 14.54 17.6082 14.52C15.9582 14.52 16.5482 18.18 16.2282 19.57C16.2482 19.63 16.1982 19.69 16.2182 19.71ZM21.2882 15.23C21.3678 14.6972 21.3845 14.1568 21.3382 13.62C21.3382 13.07 21.2082 12.09 21.6082 11.82C21.7506 11.7155 21.9269 11.6679 22.1025 11.6864C22.2782 11.7049 22.4407 11.7882 22.5582 11.92C22.1945 13.0453 21.7705 14.1503 21.2882 15.23Z" fill="#7A387B"/>
</g>
<defs>
<clipPath id="clip0_3013_15615">
<rect width="24" height="24" fill="white" transform="translate(0.968201)"/>
</clipPath>
</defs>
</svg>
