<svg width="25" height="24" viewBox="0 0 25 24" fill="none" xmlns="http://www.w3.org/2000/svg">
<g clip-path="url(#clip0_3013_15597)">
<path fill-rule="evenodd" clip-rule="evenodd" d="M23.3882 13.0001C23.3882 12.5501 23.3882 12.2201 23.3382 12.0601C23.3274 11.8909 23.2574 11.731 23.1403 11.6084C23.0232 11.4859 22.8667 11.4085 22.6982 11.3901C22.0582 11.3901 21.2982 11.3301 20.6982 11.3901C20.3137 11.4098 19.9412 11.5305 19.6182 11.74C19.5447 11.7908 19.4839 11.8577 19.4405 11.9358C19.3972 12.0138 19.3724 12.1009 19.3682 12.19V14.0901C18.5557 14.2302 17.7274 14.2538 16.9082 14.16L16.6682 14.11C16.5975 13.0179 16.5975 11.9222 16.6682 10.8301C16.676 10.6262 16.6455 10.4227 16.5782 10.23C16.5308 10.1416 16.46 10.0678 16.3736 10.0167C16.2873 9.96559 16.1886 9.93908 16.0882 9.94005C15.8218 9.92428 15.5546 9.92428 15.2882 9.94005H7.5482C7.49616 9.93736 7.44411 9.94513 7.39512 9.9629C7.34613 9.98067 7.3012 10.0081 7.26298 10.0435C7.22476 10.0789 7.19402 10.1216 7.17259 10.1691C7.15116 10.2166 7.13947 10.268 7.1382 10.32V11.5401V13.0301C6.6682 13.0301 5.8182 13.1401 4.9982 13.1701C4.45884 13.2073 3.91756 13.2073 3.3782 13.1701C3.32786 13.1651 3.27703 13.1706 3.22887 13.186C3.18071 13.2015 3.13624 13.2267 3.0982 13.2601C3.0587 13.2919 3.02596 13.3312 3.00191 13.3759C2.97787 13.4205 2.96301 13.4696 2.9582 13.5201C2.8882 14.3701 2.8482 15.36 2.8182 16.31C2.7482 18.31 2.7582 20.1101 2.7582 20.4901C2.7582 20.6301 2.6882 21.7301 2.7582 22.38C2.75396 22.5919 2.79133 22.8026 2.8682 23.0001C2.95961 23.1073 3.07653 23.1898 3.2082 23.2401C3.64604 23.3652 4.09468 23.4489 4.5482 23.4901C8.67288 23.9275 12.8215 24.0979 16.9682 24.0001C18.8206 24.0233 20.6665 23.7774 22.4482 23.2701C22.6343 23.2046 22.803 23.0976 22.9416 22.9573C23.0802 22.8169 23.185 22.6469 23.2482 22.46C23.6082 21.05 23.4882 15.3601 23.3882 13.0001ZM21.1582 22.3C19.1228 22.6103 17.0671 22.7674 15.0082 22.7701C11.4924 22.8702 7.97373 22.7767 4.4682 22.4901C4.1482 22.4901 3.8482 22.3201 3.6782 22.3V20.4001C3.6782 20.0301 3.6182 18.1901 3.6782 16.2501C3.6782 15.4401 3.6782 14.6101 3.7382 13.8701H5.0782C8.5482 13.6701 7.9482 14.18 7.9482 10.73C10.5082 10.78 13.7482 10.8401 15.2582 10.8901H15.6882V11.0001C15.6882 11.5601 15.5782 12.4201 15.5782 13.2801C15.5769 13.7117 15.607 14.1428 15.6682 14.57C15.7014 14.7019 15.7703 14.8221 15.8673 14.9173C15.9644 15.0126 16.0858 15.0793 16.2182 15.11C16.97 15.2731 17.7398 15.337 18.5082 15.3001C19.0958 15.3215 19.6797 15.1978 20.2082 14.94C20.2987 14.8707 20.372 14.7814 20.4223 14.679C20.4726 14.5767 20.4986 14.4641 20.4982 14.3501L20.5482 12.6001C20.7245 12.584 20.9019 12.584 21.0782 12.6001H22.1882V13.0501C22.5082 24.0001 22.0982 22.0901 21.1582 22.2901V22.3Z" fill="#7A387B"/>
<path fill-rule="evenodd" clip-rule="evenodd" d="M14.0482 7.21002C14.0564 7.27396 14.0836 7.33395 14.1265 7.38213C14.1693 7.43031 14.2257 7.46443 14.2882 7.48002C14.2882 7.48002 14.2082 7.57002 14.2082 7.64002C14.1966 7.72729 14.2193 7.81566 14.2715 7.88653C14.3237 7.9574 14.4014 8.00526 14.4882 8.02002C14.8359 8.18439 15.1973 8.31822 15.5682 8.42002C15.7284 8.46018 15.893 8.48034 16.0582 8.48002C16.2214 8.49027 16.385 8.49027 16.5482 8.48002C16.8893 8.42658 17.2243 8.33949 17.5482 8.22002C17.5824 8.25842 17.6239 8.28968 17.6702 8.31199C17.7166 8.3343 17.7668 8.34723 17.8182 8.35002C17.8676 8.35411 17.9173 8.34822 17.9644 8.33271C18.0115 8.3172 18.055 8.29238 18.0923 8.25973C18.1296 8.22709 18.16 8.18727 18.1816 8.14266C18.2033 8.09804 18.2157 8.04954 18.2182 8.00002L18.3482 6.40002C18.3518 6.35677 18.3518 6.31328 18.3482 6.27002C18.5082 6.27002 18.6882 6.34002 18.8782 6.38002C19.2681 6.47248 19.6675 6.51946 20.0682 6.52002C20.3834 6.50473 20.6836 6.3811 20.9182 6.17002C21.0223 6.06546 21.0951 5.93382 21.1282 5.79002C21.1578 5.48407 21.1578 5.17597 21.1282 4.87002C21.142 4.39152 21.0882 3.91345 20.9682 3.45002C20.9313 3.27353 20.8544 3.10785 20.7434 2.9657C20.6325 2.82355 20.4904 2.70872 20.3282 2.63002C20.1098 2.53915 19.8747 2.49487 19.6382 2.50002C19.3027 2.51266 18.9685 2.54942 18.6382 2.61002H18.2782C18.1582 2.61002 18.1782 2.31002 18.1682 2.28002C18.0982 1.87002 18.1682 1.28002 18.1182 0.810024C17.9682 -0.00997639 18.0082 -0.189976 15.6382 0.0600236C15.1663 0.102228 14.7174 0.28316 14.3482 0.580024C14.1996 0.707709 14.0889 0.873744 14.0282 1.06002C13.9494 1.31707 13.8991 1.58199 13.8782 1.85002C13.813 2.28401 13.7729 2.72141 13.7582 3.16002V4.45002L13.8082 5.58002L14.0482 7.21002ZM14.8082 5.61002L14.9682 4.54002L15.1882 2.00002V1.45002C15.3664 1.25653 15.6007 1.12365 15.8582 1.07002C16.3665 0.981226 16.884 0.957703 17.3982 1.00002C17.3982 1.49002 17.2482 2.00002 17.2782 2.46002V3.15002C17.2881 3.24629 17.3228 3.33834 17.3789 3.41721C17.435 3.49607 17.5105 3.55906 17.5982 3.60002C17.7943 3.68975 18.0037 3.74716 18.2182 3.77002C18.6078 3.79507 18.9986 3.79507 19.3882 3.77002C20.1582 3.77002 19.7982 3.89002 19.7982 4.84002C19.7982 4.90002 19.8882 5.16002 19.8982 5.34002C19.7566 5.37121 19.6098 5.37121 19.4682 5.34002C19.1182 5.34002 18.7282 5.26002 18.3982 5.26002C18.1506 5.24324 17.9022 5.27727 17.6682 5.36002C17.5761 5.40206 17.4979 5.4696 17.443 5.55467C17.388 5.63974 17.3586 5.73876 17.3582 5.84002V6.35002V7.35002C17.0582 7.35002 16.7582 7.26002 16.4482 7.22002C16.2118 7.20514 15.9746 7.20514 15.7382 7.22002C15.3382 7.22002 14.9782 7.33002 14.5882 7.37002C14.6286 7.32279 14.65 7.26218 14.6482 7.20002L14.8082 5.61002Z" fill="#7A387B"/>
<path fill-rule="evenodd" clip-rule="evenodd" d="M7.9682 19.3C7.7182 19.13 7.4282 18.98 7.1582 18.8L6.9682 18.62C7.1982 18.46 7.4582 18.32 7.6482 18.2L10.6482 16.47C10.6889 16.4491 10.725 16.4201 10.7542 16.3848C10.7834 16.3496 10.8052 16.3088 10.8183 16.2649C10.8314 16.221 10.8355 16.1749 10.8303 16.1294C10.8251 16.0839 10.8108 16.0399 10.7882 16C10.7495 15.9221 10.6815 15.8625 10.5991 15.8344C10.5167 15.8063 10.4265 15.8119 10.3482 15.85C9.5782 16.13 8.7982 16.35 8.0382 16.64C7.69587 16.7692 7.36189 16.9195 7.0382 17.09C6.76116 17.2321 6.4939 17.3924 6.2382 17.57C6.02379 17.7194 5.83758 17.9056 5.6882 18.12C5.58935 18.2593 5.54651 18.4307 5.5682 18.6C5.65683 18.846 5.7852 19.0757 5.9482 19.28C6.09654 19.4292 6.2648 19.5571 6.4482 19.66C6.7782 19.85 7.1582 19.97 7.4482 20.13L8.7182 20.82C8.81235 20.8572 8.9174 20.8554 9.01023 20.8151C9.10306 20.7747 9.17607 20.6992 9.2132 20.605C9.25033 20.5109 9.24854 20.4059 9.20822 20.313C9.1679 20.2202 9.09235 20.1472 8.9982 20.11L7.9682 19.3Z" fill="#998696"/>
<path fill-rule="evenodd" clip-rule="evenodd" d="M14.0482 14.77C14.0914 14.6917 14.102 14.5994 14.0777 14.5133C14.0533 14.4272 13.996 14.3542 13.9182 14.31C13.8802 14.2888 13.8383 14.2754 13.795 14.2705C13.7518 14.2656 13.708 14.2693 13.6661 14.2813C13.6243 14.2934 13.5853 14.3137 13.5513 14.3409C13.5173 14.3681 13.4891 14.4018 13.4682 14.44L12.2382 16.65C11.9682 17.24 11.6382 17.81 11.3682 18.41C10.9832 19.3343 10.6494 20.2791 10.3682 21.24C10.3492 21.2866 10.3395 21.3366 10.3397 21.3869C10.34 21.4373 10.3501 21.4871 10.3696 21.5335C10.3891 21.5799 10.4176 21.6221 10.4534 21.6575C10.4892 21.6929 10.5316 21.721 10.5782 21.74C10.6248 21.7591 10.6747 21.7687 10.7251 21.7685C10.7754 21.7682 10.8253 21.7581 10.8717 21.7386C10.9181 21.7191 10.9603 21.6906 10.9957 21.6548C11.0311 21.6191 11.0592 21.5766 11.0782 21.53C11.5882 20.53 12.2382 19.53 12.7682 18.53C12.9982 18.08 13.1782 17.61 13.3782 17.14C13.5782 16.67 13.6682 16.01 13.8482 15.44C13.8969 15.2117 13.9638 14.9877 14.0482 14.77Z" fill="#998696"/>
<path fill-rule="evenodd" clip-rule="evenodd" d="M17.4482 18.05L15.3882 16.79C15.3515 16.766 15.3105 16.7495 15.2674 16.7415C15.2243 16.7336 15.1801 16.7342 15.1372 16.7436C15.0944 16.7529 15.0539 16.7706 15.018 16.7958C14.9821 16.8209 14.9516 16.8529 14.9282 16.89C14.8823 16.9648 14.8671 17.0544 14.8857 17.1401C14.9044 17.2258 14.9554 17.301 15.0282 17.35L16.6682 18.94L16.2482 19.21C15.6882 19.57 15.0982 19.9 14.5382 20.28C14.2854 20.4533 14.0448 20.6437 13.8182 20.85C13.7788 20.8809 13.7459 20.9192 13.7213 20.9628C13.6967 21.0064 13.6809 21.0544 13.6749 21.104C13.6689 21.1537 13.6727 21.2041 13.6861 21.2523C13.6995 21.3005 13.7223 21.3456 13.7532 21.385C13.7841 21.4244 13.8224 21.4573 13.866 21.4819C13.9096 21.5065 13.9576 21.5223 14.0072 21.5283C14.0569 21.5343 14.1073 21.5305 14.1555 21.5171C14.2037 21.5037 14.2488 21.4809 14.2882 21.45C14.5147 21.3023 14.7521 21.172 14.9982 21.06C15.5982 20.78 16.2482 20.56 16.8482 20.3C17.1724 20.1496 17.4835 19.9723 17.7782 19.77C17.963 19.6288 18.1134 19.4476 18.2182 19.24C18.2796 19.102 18.2932 18.9474 18.257 18.8007C18.2208 18.6541 18.1368 18.5236 18.0182 18.43C17.8363 18.2917 17.6459 18.1647 17.4482 18.05Z" fill="#998696"/>
<path fill-rule="evenodd" clip-rule="evenodd" d="M4.5482 8.63004C4.85436 8.65505 5.16204 8.65505 5.4682 8.63004C5.9282 8.63004 6.3682 8.50004 6.8182 8.47004C6.90517 8.4725 6.99035 8.44505 7.05951 8.39227C7.12867 8.33949 7.17763 8.26457 7.1982 8.18004C7.1982 8.18004 7.1982 8.23004 7.2882 8.23004C7.33761 8.23702 7.38792 8.23394 7.4361 8.22098C7.48428 8.20802 7.52935 8.18544 7.56859 8.15462C7.60782 8.12379 7.64042 8.08534 7.66441 8.04159C7.6884 7.99784 7.7033 7.94969 7.7082 7.90004C7.83539 7.18549 7.92219 6.46435 7.9682 5.74004C8.01839 5.23795 8.01839 4.73212 7.9682 4.23004C7.93622 3.86977 7.852 3.51606 7.7182 3.18004C7.59644 2.90426 7.41144 2.66103 7.1782 2.47004C7.03167 2.3639 6.86489 2.28901 6.6882 2.25004C6.3082 2.16004 5.6882 2.14004 5.5282 2.11004C4.93167 1.97383 4.31679 1.93667 3.7082 2.00004C3.50969 2.02358 3.31827 2.0882 3.1461 2.18978C2.97393 2.29136 2.8248 2.42767 2.7082 2.59004C2.59743 2.78953 2.51976 3.00567 2.4782 3.23004C2.45453 3.60633 2.45453 3.98374 2.4782 4.36004L2.5282 8.00004C2.5282 8.00004 2.2282 8.33004 4.5482 8.63004ZM3.5482 4.40004C3.5482 4.20004 3.5482 3.93004 3.6182 3.67004C3.62958 3.52065 3.67767 3.37638 3.7582 3.25004C3.7582 3.25004 3.8282 3.25004 3.8682 3.25004C3.99799 3.23954 4.12841 3.23954 4.2582 3.25004C4.6582 3.25004 5.0682 3.38004 5.3182 3.42004C5.9682 3.51004 6.5182 2.82004 6.8982 4.42004C6.98872 4.85448 7.03893 5.29636 7.0482 5.74004C7.0482 6.42004 7.0482 7.10004 6.9782 7.74004H6.8982C6.4382 7.60004 5.9682 7.49004 5.5382 7.42004L4.9682 7.37004C4.78184 7.35504 4.59457 7.35504 4.4082 7.37004C3.9982 7.37004 3.6282 7.48004 3.2282 7.50004C3.2282 7.06004 3.2282 6.62004 3.3182 6.17004C3.4082 5.72004 3.4382 5.00004 3.5282 4.40004H3.5482Z" fill="#7A387B"/>
</g>
<defs>
<clipPath id="clip0_3013_15597">
<rect width="24" height="24" fill="white" transform="translate(0.968201)"/>
</clipPath>
</defs>
</svg>
