<svg width="25" height="24" viewBox="0 0 25 24" fill="none" xmlns="http://www.w3.org/2000/svg">
<g clip-path="url(#clip0_3013_15576)">
<path fill-rule="evenodd" clip-rule="evenodd" d="M10.2383 13.3C11.0837 12.8283 11.8986 12.3039 12.6783 11.73C12.7208 11.6462 12.729 11.5492 12.701 11.4595C12.6729 11.3698 12.611 11.2946 12.5283 11.25C11.9383 10.87 11.3783 10.47 10.7783 10.09L10.0283 9.63C9.75827 9.48 9.50827 9.34 9.23827 9.22C8.63827 8.93 8.03827 8.7 7.44827 8.44C7.44827 8.32 7.53827 8.21 7.57827 8.08C7.61827 7.95 7.57827 7.9 7.57827 7.82V7.68C8.26983 7.67087 8.95792 7.58025 9.62827 7.41C10.2981 7.23625 10.9114 6.8917 11.4083 6.41C11.6988 6.15123 11.9257 5.82894 12.0714 5.46819C12.2171 5.10744 12.2776 4.71795 12.2483 4.33C12.2101 3.95343 12.0922 3.58928 11.9026 3.26171C11.7129 2.93414 11.4558 2.65064 11.1483 2.43C10.7037 2.1028 10.2017 1.86196 9.66827 1.72C9.14914 1.58591 8.61437 1.52201 8.07827 1.53C7.98279 1.53 7.89122 1.56793 7.82371 1.63544C7.75619 1.70296 7.71827 1.79453 7.71827 1.89C7.72079 1.98468 7.75953 2.07479 7.8265 2.14176C7.89348 2.20874 7.98358 2.24748 8.07827 2.25C8.54096 2.26246 8.99926 2.34333 9.43827 2.49C9.85886 2.62573 10.2517 2.83572 10.5983 3.11C10.7941 3.26458 10.9557 3.45818 11.0728 3.67853C11.1899 3.89889 11.2598 4.14117 11.2783 4.39C11.2769 4.62833 11.2224 4.86335 11.1185 5.07788C11.0147 5.29242 10.8643 5.48105 10.6783 5.63C10.286 5.96039 9.81925 6.19034 9.31827 6.3C8.48712 6.47571 7.6367 6.54294 6.78827 6.5C6.38733 6.51011 5.9862 6.49005 5.58826 6.44C5.19609 6.39947 4.80805 6.32587 4.42827 6.22C3.88948 6.09837 3.40913 5.79463 3.06826 5.36C2.91877 5.15711 2.83 4.91591 2.8123 4.66451C2.79459 4.41311 2.84868 4.16185 2.96827 3.94L3.29826 3.36C3.77333 2.91309 4.34468 2.58123 4.96827 2.39C5.61572 2.17581 6.28777 2.04476 6.96827 2C7.05313 2 7.13453 1.96629 7.19454 1.90628C7.25455 1.84627 7.28827 1.76487 7.28827 1.68C7.28827 1.59513 7.25455 1.51374 7.19454 1.45373C7.13453 1.39372 7.05313 1.36 6.96827 1.36C6.06267 1.35075 5.16139 1.48578 4.29826 1.76C3.69007 1.94813 3.12801 2.26152 2.64827 2.68C2.55382 2.78011 2.46692 2.88707 2.38827 3C2.27855 3.15174 2.18155 3.31229 2.09827 3.48C1.86844 3.86346 1.75378 4.30493 1.76797 4.75176C1.78215 5.19859 1.92458 5.6319 2.17827 6C2.66016 6.68469 3.36854 7.17702 4.17827 7.39C4.61705 7.51772 5.06505 7.61133 5.51827 7.67C5.82827 7.67 6.13826 7.67 6.45826 7.72V7.83C6.44844 7.91639 6.44844 8.00361 6.45826 8.09C6.49314 8.2414 6.5434 8.38883 6.60826 8.53C6.02826 8.7 5.44827 8.86 4.87827 9.09C4.59827 9.21 4.30826 9.35 4.02826 9.49C3.74827 9.63 3.48827 9.79 3.22827 9.96C2.59827 10.34 2.01827 10.75 1.39827 11.15C1.2535 11.3421 1.11994 11.5425 0.998265 11.75C0.979639 11.8321 0.993078 11.9182 1.03583 11.9907C1.07859 12.0632 1.14742 12.1166 1.22827 12.14C1.42526 12.2235 1.61295 12.3274 1.78827 12.45C2.25827 12.77 2.67827 13.18 3.12827 13.45C3.59118 13.7016 4.06869 13.9253 4.55826 14.12C5.19654 14.348 5.84766 14.5384 6.50827 14.69C6.50827 14.87 6.38827 15.04 6.34827 15.23C6.33332 15.3395 6.33332 15.4505 6.34827 15.56C6.33788 15.6731 6.33788 15.7869 6.34827 15.9C6.39166 16.1209 6.45183 16.3382 6.52826 16.55H2.52827C2.44504 16.5472 2.36401 16.577 2.3024 16.633C2.24078 16.6891 2.20342 16.7669 2.19827 16.85C2.20082 16.9318 2.23277 17.0099 2.28827 17.07C2.04827 17.62 1.82827 18.16 1.62827 18.73C1.49029 19.1464 1.37677 19.5704 1.28827 20C1.28827 20.2 1.08827 20.83 1.03827 21.25C1.02121 21.4355 1.04161 21.6225 1.09827 21.8C1.18531 21.9578 1.30545 22.0949 1.45044 22.2019C1.59542 22.3089 1.76184 22.3833 1.93827 22.42C2.72503 22.6004 3.53136 22.681 4.33826 22.66C6.56106 22.5965 8.77658 22.376 10.9683 22C11.4583 21.92 10.8683 22 11.7383 19.62C11.8283 19.35 11.9183 19.07 11.9983 18.79C12.0708 18.5275 12.1243 18.2602 12.1583 17.99C12.1731 17.7398 12.1285 17.4897 12.0283 17.26C11.9446 17.072 11.7901 16.9246 11.5983 16.85C11.3732 16.7715 11.1366 16.7309 10.8983 16.73L9.47827 16.56H8.60826L7.30827 16.61C7.30827 16.4 7.41826 16.2 7.45826 15.98C7.46865 15.8669 7.46865 15.7531 7.45826 15.64C7.46773 15.5235 7.46773 15.4065 7.45826 15.29C7.40377 15.1122 7.33694 14.9385 7.25827 14.77L8.80827 14.14C9.31826 13.82 9.78827 13.59 10.2383 13.3ZM9.38827 17.74L10.8583 17.85C10.9482 17.8556 11.0384 17.8556 11.1283 17.85V18C11.1172 18.1814 11.0938 18.3618 11.0583 18.54C11.004 18.8772 10.9305 19.2111 10.8383 19.54C10.6883 20.07 10.5083 20.59 10.3683 21.11C10.3537 21.1555 10.3537 21.2045 10.3683 21.25C9.63827 21.25 8.43826 21.34 7.12826 21.36H4.88827C4.15827 21.36 3.28827 21.36 2.71827 21.27H2.09827C1.76827 21.27 2.17827 20.27 2.19827 20.03C2.25159 19.5684 2.3351 19.1107 2.44827 18.66C2.56827 18.19 2.69827 17.73 2.84827 17.28C2.85335 17.2469 2.85335 17.2131 2.84827 17.18L6.67827 17.6L9.38827 17.74ZM7.18826 13.94L6.96827 14.08L3.66827 12.41C3.15827 12.21 2.66827 11.92 2.13827 11.72C2.08296 11.6963 2.02617 11.6763 1.96827 11.66C2.56827 11.43 3.16827 11.2 3.74827 10.94L4.59827 10.54C4.86827 10.4 5.13826 10.26 5.39826 10.1C5.96827 9.75 6.51826 9.37 7.10826 9C7.62826 9.41 8.10826 9.83 8.65827 10.2C8.90674 10.3697 9.16374 10.5266 9.42827 10.67C9.69827 10.82 9.96827 10.95 10.2383 11.07C10.5083 11.19 10.9383 11.36 11.2383 11.5C10.6883 11.74 10.1383 11.97 9.59827 12.26C9.05827 12.55 8.69827 12.8 8.24827 13.06C7.79827 13.32 7.56826 13.67 7.18826 13.94Z" fill="#7A387B"/>
<path fill-rule="evenodd" clip-rule="evenodd" d="M2.04826 21.18C2.04826 21.23 2.04826 21.25 2.10826 21.27C2.16826 21.29 2.07826 21.14 2.04826 21.18Z" fill="#7A387B"/>
<path d="M20.3683 7.44999V6.62999L20.2383 5.69999C20.1714 5.39423 20.0418 5.10569 19.8576 4.85264C19.6734 4.5996 19.4387 4.38757 19.1683 4.22999C18.4106 3.93925 17.5971 3.82304 16.7883 3.88999C15.8883 3.88999 14.9883 3.99999 14.0783 4.01999H12.9383C12.8552 4.01109 12.7719 4.03401 12.7051 4.08411C12.6383 4.13422 12.593 4.20779 12.5783 4.28999C12.5668 4.37346 12.5887 4.45807 12.6393 4.52547C12.6898 4.59286 12.7649 4.63761 12.8483 4.64999C13.3699 4.76001 13.8975 4.84014 14.4283 4.88999C15.2083 4.97999 15.9883 5.01999 16.7583 5.09999C17.3828 5.04315 18.0124 5.11462 18.6083 5.30999C18.9131 5.46945 19.143 5.74244 19.2483 6.06999L19.4283 6.72999C19.4283 6.95999 19.4283 7.19999 19.4783 7.43999V7.55999C19.3783 7.79999 20.2083 7.84999 20.3183 7.55999C20.3583 7.49999 20.3583 7.46999 20.3683 7.44999Z" fill="#998696"/>
<path d="M18.9683 15.85C18.9424 16.2361 18.8923 16.6202 18.8183 17C18.7749 17.2383 18.7114 17.4725 18.6283 17.7C18.5818 17.8701 18.4998 18.0284 18.3878 18.1645C18.2758 18.3007 18.1362 18.4116 17.9783 18.49C17.5938 18.6749 17.1747 18.7771 16.7483 18.79C15.8183 18.89 14.8783 18.91 13.9483 19C13.5354 19.0287 13.1247 19.0821 12.7183 19.16C12.6353 19.1746 12.5607 19.2196 12.509 19.2861C12.4572 19.3526 12.432 19.436 12.4383 19.52C12.4506 19.6033 12.4954 19.6784 12.5628 19.729C12.6302 19.7795 12.7148 19.8014 12.7983 19.79H13.9683C14.9183 19.79 15.8583 19.94 16.7983 19.96C17.5348 19.9742 18.2589 19.7688 18.8783 19.37C19.3173 19.0271 19.6246 18.5432 19.7483 18C19.8323 17.6384 19.8858 17.2705 19.9083 16.9C19.9283 16.5503 19.9283 16.1997 19.9083 15.85V15C19.9055 14.8949 19.8643 14.7946 19.7925 14.7178C19.7207 14.641 19.6233 14.5932 19.5187 14.5834C19.4141 14.5735 19.3095 14.6023 19.2246 14.6644C19.1398 14.7264 19.0806 14.8173 19.0583 14.92L18.9683 15.85Z" fill="#998696"/>
<path d="M24.9683 10.6C24.8083 8.25002 24.2983 8.42002 24.2583 8.42002H24.1883C23.0902 8.22272 21.9817 8.08916 20.8683 8.02002H18.5283C17.8283 8.02002 17.1583 8.09002 16.5283 8.16002C16.0528 8.2136 15.5816 8.30048 15.1183 8.42002C14.7562 8.9885 14.4925 9.61392 14.3383 10.27C14.2962 10.5013 14.2695 10.7352 14.2583 10.97C14.2433 11.2031 14.2433 11.4369 14.2583 11.67C14.3284 12.215 14.4661 12.7491 14.6683 13.26C14.6941 13.3522 14.7538 13.4311 14.8354 13.4812C14.9169 13.5313 15.0144 13.5487 15.1083 13.53C15.1564 13.516 15.201 13.4917 15.2389 13.4589C15.2769 13.4262 15.3073 13.3856 15.3283 13.34C15.3286 13.4045 15.3504 13.4671 15.3902 13.5178C15.4301 13.5685 15.4857 13.6045 15.5483 13.62C16.0079 13.7616 16.4801 13.8587 16.9583 13.91C17.6083 14 19.7483 14.08 20.1583 14.12H21.1583C22.2664 14.0967 23.372 14.0032 24.4683 13.84C24.6983 13.84 24.7383 14.01 24.9183 11.68C24.9624 11.3218 24.9792 10.9608 24.9683 10.6ZM20.6583 13H19.0183C18.2483 13 17.4483 13.15 16.6583 13.15C16.3239 13.1572 15.9894 13.1371 15.6583 13.09C15.5895 13.0754 15.5178 13.0854 15.4556 13.1183C15.3935 13.1512 15.3449 13.2049 15.3183 13.27C15.3183 13.27 15.3183 13.22 15.3183 13.18C15.298 12.9037 15.298 12.6263 15.3183 12.35C15.3183 12.07 15.3683 11.8 15.3883 11.52C15.4083 11.24 15.3883 10.97 15.3883 10.7V9.12002H16.1083C16.8883 9.12002 17.6583 9.25002 18.4683 9.31002H23.8383C23.8383 9.71002 23.7383 10.1 23.7083 10.5V11.19V11.89C23.7083 12.36 23.8183 12.82 23.8783 13.28C22.8583 13.14 21.7683 13 20.6583 13Z" fill="#7A387B"/>
</g>
<defs>
<clipPath id="clip0_3013_15576">
<rect width="24" height="24" fill="white" transform="translate(0.968262)"/>
</clipPath>
</defs>
</svg>
