<svg width="25" height="24" viewBox="0 0 25 24" fill="none" xmlns="http://www.w3.org/2000/svg">
<g clip-path="url(#clip0_3013_15551)">
<path fill-rule="evenodd" clip-rule="evenodd" d="M19.2682 22.75C18.6052 22.8385 17.937 22.882 17.2682 22.88C15.6682 22.88 14.0582 22.75 12.4782 22.76H8.37821L5.96821 22.74C5.5055 22.7256 5.04437 22.6788 4.58821 22.6C4.15159 22.5315 3.72719 22.4001 3.32821 22.21L2.83821 22C2.59698 21.3163 2.44898 20.6032 2.39821 19.88C2.29821 18.61 2.39821 17.28 2.31821 16.12C2.31821 15.37 2.25821 14.61 2.25821 13.85V11.59C2.31821 10.39 2.34821 9.15 2.43821 7.92C2.73821 7.92 3.02821 7.84 3.31821 7.82H5.40821C6.09821 7.82 6.74821 7.72 7.40821 7.67C8.06821 7.62 8.73821 7.53 9.40821 7.53C9.97384 7.5248 10.539 7.56493 11.0982 7.65C11.1965 7.66628 11.2974 7.64431 11.38 7.58859C11.4626 7.53287 11.5208 7.44763 11.5425 7.35037C11.5643 7.25312 11.548 7.15122 11.497 7.06561C11.446 6.97999 11.3641 6.91715 11.2682 6.89C10.2917 6.60744 9.28412 6.44622 8.26821 6.41H7.06821C6.45821 6.41 5.85821 6.51 5.27821 6.57C4.69821 6.63 3.87821 6.81 3.17821 6.97L2.49821 7.17C2.58066 6.21583 2.73781 5.2696 2.96821 4.34C2.98031 4.29666 2.98369 4.25135 2.97815 4.2067C2.97261 4.16204 2.95826 4.11893 2.93594 4.07987C2.91361 4.0408 2.88376 4.00655 2.8481 3.97911C2.81244 3.95167 2.77169 3.93157 2.72821 3.92C2.68487 3.9079 2.63956 3.90452 2.59491 3.91006C2.55025 3.9156 2.50714 3.92994 2.46808 3.95227C2.42901 3.97459 2.39476 4.00445 2.36732 4.04011C2.33987 4.07577 2.31978 4.11652 2.30821 4.16C1.70264 6.57312 1.35404 9.04353 1.26821 11.53C1.20821 12.3 1.15821 13.07 1.12821 13.85C1.09821 14.63 1.12821 15.39 1.12821 16.16C1.12821 17.34 1.04821 18.69 1.12821 20C1.17788 20.912 1.37371 21.8101 1.70821 22.66C1.78905 22.8324 1.91741 22.9781 2.07821 23.08C2.30528 23.2041 2.54287 23.3078 2.78821 23.39C3.19084 23.5775 3.61358 23.7185 4.04821 23.81C4.68081 23.9336 5.32366 23.9972 5.96821 24H8.46821L12.5482 23.81C14.1382 23.75 15.7482 23.81 17.3482 23.76C18.0486 23.7346 18.7467 23.6645 19.4382 23.55C19.5384 23.5328 19.6278 23.4772 19.6876 23.395C19.7474 23.3128 19.7727 23.2106 19.7582 23.11C19.7557 23.0517 19.7401 22.9947 19.7126 22.9432C19.6852 22.8918 19.6465 22.8471 19.5995 22.8126C19.5525 22.778 19.4983 22.7545 19.441 22.7436C19.3836 22.7328 19.3246 22.735 19.2682 22.75Z" fill="#7A387B"/>
<path fill-rule="evenodd" clip-rule="evenodd" d="M12.4382 14.31C12.5354 14.3197 12.6327 14.2936 12.7119 14.2365C12.7911 14.1794 12.8467 14.0952 12.8682 14C12.8766 13.8981 12.8446 13.797 12.7791 13.7184C12.7137 13.6398 12.62 13.5901 12.5182 13.58C11.4981 13.4048 10.4605 13.3544 9.42821 13.43C8.82258 13.4826 8.22121 13.5762 7.62821 13.71C6.73821 13.92 5.88821 14.21 5.03821 14.42C4.99344 14.425 4.9501 14.4388 4.9107 14.4606C4.87131 14.4824 4.83665 14.5119 4.80874 14.5473C4.78083 14.5826 4.76022 14.6232 4.74811 14.6665C4.736 14.7099 4.73264 14.7553 4.73821 14.8C4.75066 14.8913 4.79859 14.9739 4.8716 15.0301C4.9446 15.0863 5.03681 15.1114 5.12821 15.1C6.12821 15.1 7.12821 15.04 8.12821 14.92L8.77821 14.82C9.10854 15.6548 9.22873 16.5579 9.12821 17.45C9.07555 17.8754 8.93233 18.2846 8.70821 18.65C8.48754 19.0133 8.1865 19.3212 7.82821 19.55C7.66577 19.6706 7.49155 19.7745 7.30821 19.86C7.1555 19.9397 6.98938 19.9906 6.81821 20.01C6.6378 20.0094 6.45872 19.9789 6.28821 19.92C5.94692 19.7959 5.61304 19.6523 5.28821 19.49C5.19656 19.4444 5.09068 19.4367 4.9934 19.4685C4.89612 19.5003 4.81524 19.5691 4.76821 19.66C4.74428 19.7051 4.7297 19.7546 4.72532 19.8055C4.72094 19.8563 4.72687 19.9076 4.74273 19.9561C4.7586 20.0047 4.78409 20.0495 4.81768 20.088C4.85126 20.1264 4.89226 20.1577 4.93821 20.18C5.24821 20.37 5.55821 20.6 5.93821 20.77C6.20982 20.9093 6.50473 20.9974 6.80821 21.03C7.05363 21.0414 7.29943 21.0178 7.53821 20.96C7.85684 20.8732 8.16526 20.7525 8.45821 20.6C8.90412 20.3636 9.295 20.0356 9.60521 19.6375C9.91543 19.2394 10.138 18.7802 10.2582 18.29C10.4607 17.0469 10.2086 15.7724 9.54821 14.7L9.86821 14.65C10.7136 14.4637 11.5734 14.35 12.4382 14.31Z" fill="#998696"/>
<path fill-rule="evenodd" clip-rule="evenodd" d="M17.1182 19.51C16.5889 19.8636 15.9739 20.0674 15.3382 20.1C14.7036 20.1292 14.0773 19.9462 13.5582 19.58C13.4766 19.5279 13.3786 19.5081 13.2832 19.5243C13.1877 19.5404 13.1018 19.5915 13.0419 19.6676C12.982 19.7436 12.9526 19.8392 12.9593 19.9358C12.966 20.0324 13.0084 20.123 13.0782 20.19C13.7187 20.7095 14.5137 21.0015 15.3382 21.02C16.156 21.0508 16.9662 20.8534 17.6782 20.45C18.233 20.1475 18.6828 19.6837 18.9682 19.12C19.1762 18.6832 19.2189 18.1858 19.0882 17.72C19.0099 17.4433 18.8677 17.1887 18.6732 16.9769C18.4787 16.765 18.2373 16.6017 17.9682 16.5C17.1752 16.2731 16.3609 16.129 15.5382 16.07C15.0182 15.99 14.5382 15.86 14.5382 15.21C14.5382 15.1 14.6182 15.03 14.7082 14.96C14.8369 14.8585 14.9741 14.7682 15.1182 14.69C15.6167 14.4152 16.17 14.2547 16.7382 14.22C17.3084 14.191 17.8757 14.3189 18.3782 14.59C18.4162 14.6138 18.4586 14.6299 18.5029 14.6372C18.5471 14.6446 18.5924 14.6431 18.6361 14.6329C18.6798 14.6227 18.721 14.6039 18.7574 14.5776C18.7938 14.5514 18.8247 14.5182 18.8482 14.48C18.8937 14.4025 18.9077 14.3105 18.8872 14.223C18.8667 14.1355 18.8134 14.0593 18.7382 14.01C18.1429 13.6185 17.4504 13.4004 16.7382 13.38C16.0273 13.3482 15.3188 13.4817 14.6682 13.77C14.3338 13.9007 14.0256 14.0904 13.7582 14.33C13.635 14.451 13.5377 14.5959 13.4723 14.7558C13.407 14.9157 13.375 15.0873 13.3782 15.26C13.3646 15.5379 13.4122 15.8154 13.5176 16.0728C13.623 16.3303 13.7836 16.5615 13.9882 16.75C14.7497 17.2452 15.6399 17.506 16.5482 17.5C16.8896 17.5171 17.2265 17.5845 17.5482 17.7C17.6459 17.729 17.7355 17.7801 17.8101 17.8495C17.8848 17.9189 17.9423 18.0047 17.9782 18.1C18.0108 18.2184 18.0197 18.3422 18.0042 18.464C17.9888 18.5859 17.9494 18.7035 17.8882 18.81C17.6947 19.1045 17.4298 19.3453 17.1182 19.51Z" fill="#998696"/>
<path fill-rule="evenodd" clip-rule="evenodd" d="M14.7782 2.53001C14.1982 2.53001 13.8982 2.37001 13.4982 2.62001C13.246 2.9357 13.1053 3.326 13.0982 3.73001V3.94001C12.9682 4.47001 12.9682 5.00001 12.9682 5.54001L12.8382 7.00001V8.00001V9.00001C12.829 9.12651 12.829 9.25351 12.8382 9.38001C12.8787 9.52203 12.967 9.64568 13.0882 9.73001C13.1681 9.78757 13.2608 9.82492 13.3584 9.83885C13.4559 9.85278 13.5553 9.84289 13.6482 9.81001C13.9963 9.67924 14.3034 9.45838 14.5382 9.17001C14.9208 8.65851 15.2556 8.11287 15.5382 7.54001C15.552 7.46839 15.5721 7.39813 15.5982 7.33001L16.5982 8.63001C16.7482 8.83001 17.0982 9.38001 17.1582 9.44001C17.2518 9.5595 17.3879 9.6383 17.5382 9.66001C17.6493 9.68772 17.7663 9.6794 17.8724 9.63626C17.9784 9.59312 18.068 9.51739 18.1282 9.42001C18.2387 9.27229 18.3139 9.10127 18.3482 8.92001C18.4052 8.64019 18.4354 8.35557 18.4382 8.07001L18.2682 5.46001L18.0782 3.88001C18.0782 3.26001 17.9482 3.05001 17.7682 2.88001C17.4182 2.49001 15.8982 2.62001 14.7782 2.53001ZM17.3882 7.53001C17.2382 7.32001 17.1082 7.10001 16.9482 6.89001C16.7823 6.65887 16.6019 6.43843 16.4082 6.23001C16.2776 6.07406 16.1301 5.93318 15.9682 5.81001C15.8519 5.73151 15.7179 5.68338 15.5782 5.67001C15.4458 5.65714 15.3124 5.68229 15.1937 5.7425C15.0751 5.80272 14.976 5.89552 14.9082 6.01001C14.7378 6.28556 14.5875 6.57296 14.4582 6.87001C14.3282 7.12001 14.1482 7.49001 13.9482 7.87001L13.8382 7.00001V5.56001V4.21001V3.72001H14.7182L17.2682 3.80001L17.3682 5.50001L17.4182 7.00001L17.3882 7.53001Z" fill="#998696"/>
<path fill-rule="evenodd" clip-rule="evenodd" d="M24.8182 9.51C24.3482 -0.499996 24.7682 0.850004 17.0482 0.220004C15.5982 0.100004 14.0582 4.28315e-06 12.5582 4.28315e-06C10.0372 -0.074707 7.5162 0.150201 5.04821 0.670004C5.00629 0.679752 4.96685 0.698124 4.93242 0.723949C4.89799 0.749774 4.86931 0.782487 4.84821 0.820004C4.80683 0.847257 4.77135 0.882544 4.74386 0.923771C4.71638 0.964998 4.69745 1.01133 4.68821 1.06C4.56115 1.30663 4.46701 1.56887 4.40821 1.84C4.38854 1.94912 4.38854 2.06088 4.40821 2.17C4.40943 2.27852 4.42627 2.38629 4.45821 2.49C4.49714 2.66813 4.56111 2.83983 4.64821 3L3.82821 3.11C3.74047 3.12929 3.66351 3.18157 3.61325 3.25603C3.56299 3.33049 3.54328 3.42142 3.55821 3.51C3.56611 3.55474 3.58344 3.59728 3.60905 3.6348C3.63466 3.67232 3.66796 3.70396 3.70675 3.72761C3.74553 3.75125 3.78891 3.76638 3.83399 3.77196C3.87907 3.77755 3.92483 3.77347 3.96821 3.76L6.26821 3.66C7.73821 3.59 9.18821 3.66 10.6482 3.66C11.4282 3.66 11.5082 3.61 12.2882 3.66C12.8282 3.66 12.6982 2.41 12.1382 2.4H9.74821C8.55821 2.46 7.36821 2.59 6.18821 2.76L5.53821 2.85C5.61422 2.67477 5.66473 2.48956 5.68821 2.3C5.70803 2.15066 5.70803 1.99935 5.68821 1.85C5.64543 1.66376 5.59201 1.48013 5.52821 1.3C6.64901 1.15857 7.77888 1.10174 8.90821 1.13C9.81821 1.13 10.8182 1.21 11.9082 1.25L14.8582 1.36C18.3182 1.47 21.6682 1.62 23.1782 1.81C23.4282 3.71 23.5482 5.61 23.6082 7.51V9.78V13.19V21.19L23.2082 21.11C23.0817 21.1001 22.9547 21.1001 22.8282 21.11C22.7051 21.1001 22.5813 21.1001 22.4582 21.11C22.1582 21.16 21.9082 21.26 21.6282 21.33C21.6282 21.06 21.7182 20.78 21.7482 20.51C21.9082 19.07 21.9382 17.59 22.0082 16.22C22.0582 14.5 22.0982 12.79 22.0082 11.08C21.9082 8.51 21.6182 5.96 21.3382 3.4C21.3214 3.3162 21.2744 3.24146 21.2063 3.18988C21.1381 3.1383 21.0534 3.11344 20.9682 3.12C20.9082 3.12 20.8782 3.12 20.8382 3.18L18.7482 2.94C18.1482 2.87 18.3182 3.65 18.7482 3.82C19.5482 3.82 19.8782 3.93 20.6782 3.96C20.6782 4.86 20.6982 5.76 20.7382 6.66C20.5482 6.66 20.3582 6.55 20.1482 6.51C19.9884 6.4997 19.828 6.4997 19.6682 6.51C19.5086 6.49515 19.3479 6.49515 19.1882 6.51H19.0182C18.9395 6.58474 18.8769 6.6747 18.8341 6.77441C18.7913 6.87412 18.7692 6.98149 18.7692 7.09C18.7692 7.19851 18.7913 7.30589 18.8341 7.4056C18.8769 7.50531 18.9395 7.59527 19.0182 7.67H19.2182H19.6682C19.8214 7.68033 19.9751 7.68033 20.1282 7.67L20.7582 7.57V11.7V16.15C20.7582 17.6 20.8482 18.96 20.7582 20.39C20.7249 21.3106 20.5976 22.2253 20.3782 23.12C20.349 23.2195 20.3606 23.3264 20.4103 23.4174C20.46 23.5083 20.5438 23.5758 20.6432 23.605C20.7427 23.6342 20.8496 23.6226 20.9406 23.573C21.0316 23.5233 21.099 23.4395 21.1282 23.34C21.2682 22.9 21.3782 22.45 21.4782 21.99C21.7746 22.1267 22.0825 22.2371 22.3982 22.32C22.5314 22.3299 22.6651 22.3299 22.7982 22.32C22.9326 22.3132 23.0663 22.2965 23.1982 22.27C24.7082 21.96 24.5482 22.62 24.8282 14.34C24.8782 12.8 24.8982 11.15 24.8182 9.51Z" fill="#7A387B"/>
</g>
<defs>
<clipPath id="clip0_3013_15551">
<rect width="24" height="24" fill="white" transform="translate(0.968201)"/>
</clipPath>
</defs>
</svg>
