<svg width="25" height="24" viewBox="0 0 25 24" fill="none" xmlns="http://www.w3.org/2000/svg">
<g clip-path="url(#clip0_3013_15584)">
<path fill-rule="evenodd" clip-rule="evenodd" d="M24.9682 14.28C24.619 13.5713 24.1967 12.901 23.7082 12.28C23.3376 11.8206 22.8456 11.4742 22.2882 11.28C22.0127 11.2141 21.7238 11.2315 21.4582 11.33C21.0682 11.45 20.5982 11.68 20.1782 11.83C19.7582 11.98 19.5682 11.77 19.4082 11.56C19.0882 11.12 18.8382 10.56 18.5582 10.19C18.1487 9.62484 17.6013 9.17387 16.9682 8.88003C16.7624 8.80562 16.5426 8.77779 16.3247 8.79854C16.1068 8.81929 15.8963 8.8881 15.7082 9.00003C15.3603 9.188 15.0987 9.50338 14.9782 9.88003C14.8295 10.3674 14.8578 10.8916 15.0582 11.36C15.2235 11.7328 15.4316 12.0852 15.6782 12.41C16.2059 13.0228 16.7 13.6637 17.1582 14.33C17.2882 14.54 17.4282 14.75 17.5482 14.97C17.1658 14.7816 16.7632 14.6373 16.3482 14.54C16.0727 14.4902 15.7888 14.5179 15.5282 14.62C15.3533 14.6956 15.2012 14.8157 15.0871 14.9683C14.9731 15.121 14.901 15.3008 14.8782 15.49C14.859 16.0944 15.0228 16.6904 15.3482 17.2C15.6507 17.6456 16.0552 18.0125 16.5282 18.27C17.4682 18.79 18.5882 18.82 19.6982 19.27C19.7363 19.2968 19.7799 19.315 19.8258 19.3232C19.8716 19.3315 19.9188 19.3296 19.9639 19.3177C20.0089 19.3058 20.0509 19.2842 20.0867 19.2544C20.1226 19.2247 20.1515 19.1874 20.1715 19.1453C20.1914 19.1031 20.2019 19.0571 20.2023 19.0105C20.2026 18.9639 20.1927 18.9178 20.1734 18.8754C20.154 18.833 20.1256 18.7953 20.0902 18.765C20.0547 18.7347 20.0131 18.7125 19.9682 18.7C19.0582 18.24 18.1182 18.11 17.2982 17.7C16.7937 17.4774 16.3709 17.1035 16.0882 16.63C15.9788 16.437 15.9011 16.2277 15.8582 16.01C15.8491 15.8902 15.8491 15.7699 15.8582 15.65C15.8582 15.59 15.8582 15.52 15.9182 15.5C16.1588 15.4645 16.4041 15.5178 16.6082 15.65C16.9482 15.8 17.3082 15.99 17.6082 16.11C17.8415 16.1989 18.0886 16.2463 18.3382 16.25C18.4896 16.2502 18.6353 16.1922 18.7451 16.088C18.855 15.9837 18.9205 15.8412 18.9282 15.69C18.9275 15.4649 18.9041 15.2404 18.8582 15.02C18.8037 14.8012 18.7231 14.5897 18.6182 14.39C18.4882 14.14 18.3382 13.9 18.2082 13.66C17.7303 12.9642 17.2128 12.2964 16.6582 11.66C16.4686 11.4123 16.3075 11.1439 16.1782 10.86C16.1038 10.6939 16.0761 10.5107 16.0982 10.33C16.1035 10.271 16.1226 10.214 16.1538 10.1637C16.1851 10.1133 16.2277 10.071 16.2782 10.04C16.4582 9.93003 16.6482 10.04 16.8182 10.17C17.1098 10.3964 17.3719 10.6584 17.5982 10.95C17.8882 11.31 18.1682 11.85 18.4982 12.28C18.6715 12.509 18.8809 12.7083 19.1182 12.87C19.268 12.9576 19.4353 13.0111 19.6081 13.0267C19.781 13.0422 19.9552 13.0195 20.1182 12.96C20.5684 12.7985 21.0091 12.6115 21.4382 12.4C21.6682 12.3 21.8582 12.17 21.9982 12.21C22.4104 12.3292 22.781 12.5613 23.0682 12.88C23.5407 13.4299 23.9561 14.0263 24.3082 14.66C24.3642 14.7278 24.4425 14.7735 24.5292 14.7887C24.6158 14.804 24.705 14.788 24.7808 14.7434C24.8567 14.6989 24.9142 14.6288 24.943 14.5457C24.9718 14.4626 24.9701 14.372 24.9382 14.29L24.9682 14.28Z" fill="#7A387B"/>
<path fill-rule="evenodd" clip-rule="evenodd" d="M7.1082 8.24003C7.14461 8.21859 7.17626 8.18992 7.20119 8.1558C7.22612 8.12168 7.24381 8.08282 7.25317 8.04162C7.26254 8.00041 7.26338 7.95772 7.25565 7.91618C7.24791 7.87463 7.23177 7.83511 7.2082 7.80003C7.16108 7.72793 7.08763 7.67712 7.00355 7.65843C6.91947 7.63975 6.83142 7.65468 6.7582 7.70003L5.6982 8.40003C5.4682 8.57003 5.0482 8.77003 4.6982 9.01003C4.51483 9.15821 4.3591 9.33763 4.2382 9.54003C4.18825 9.64642 4.16235 9.7625 4.16235 9.88003C4.16235 9.99756 4.18825 10.1136 4.2382 10.22C4.39007 10.5194 4.59702 10.7874 4.8482 11.01C5.06212 11.1777 5.29345 11.3219 5.5382 11.44C6.0282 11.68 6.5382 11.83 7.0482 12.05C7.13014 12.082 7.22079 12.0837 7.30387 12.0548C7.38696 12.026 7.45706 11.9685 7.5016 11.8927C7.54614 11.8168 7.5622 11.7276 7.54692 11.641C7.53164 11.5544 7.486 11.476 7.4182 11.42C7.0482 11.15 6.6382 10.92 6.2582 10.66C6.04172 10.5105 5.84659 10.3322 5.6782 10.13C5.61823 10.0912 5.56139 10.0477 5.5082 10L6.3482 9.10003L7.1082 8.24003Z" fill="#7A387B"/>
<path fill-rule="evenodd" clip-rule="evenodd" d="M9.8482 6.60001C9.5182 7.24001 9.1482 7.85001 8.8482 8.50001C8.71534 8.7764 8.59848 9.0602 8.4982 9.35001C8.3882 9.63001 8.2982 9.93001 8.2082 10.22C8.0082 10.92 7.8682 11.63 7.7282 12.33C7.7126 12.4185 7.72972 12.5096 7.77635 12.5864C7.82299 12.6631 7.89595 12.7203 7.98164 12.7472C8.06734 12.7742 8.1599 12.769 8.24206 12.7327C8.32423 12.6964 8.39039 12.6315 8.4282 12.55C8.7082 11.88 9.0382 11.24 9.3282 10.55C9.5182 10.11 9.7082 9.66001 9.8582 9.20001C10.1182 8.41001 10.2682 7.62001 10.4682 6.82001C10.4951 6.73894 10.4905 6.65072 10.4552 6.5729C10.42 6.49507 10.3568 6.43336 10.2782 6.40001C10.2369 6.38416 10.1928 6.37678 10.1486 6.37831C10.1044 6.37984 10.0609 6.39024 10.0208 6.40889C9.98071 6.42755 9.94475 6.45409 9.9151 6.48692C9.88544 6.51975 9.86269 6.55821 9.8482 6.60001Z" fill="#7A387B"/>
<path fill-rule="evenodd" clip-rule="evenodd" d="M12.2182 10.06L11.7282 10.63L10.8582 11.5C10.7778 11.5548 10.7223 11.639 10.7036 11.7345C10.6849 11.8299 10.7045 11.9289 10.7582 12.01C10.7836 12.0503 10.8168 12.0851 10.8558 12.1124C10.8947 12.1398 10.9387 12.1591 10.9852 12.1694C11.0317 12.1796 11.0798 12.1805 11.1267 12.172C11.1735 12.1636 11.2182 12.1459 11.2582 12.12L12.3882 11.37L13.0482 10.87C13.2708 10.6716 13.4719 10.4504 13.6482 10.21C13.8107 10.0027 13.9205 9.75904 13.9682 9.49999C13.9713 9.40645 13.9541 9.31334 13.9178 9.22705C13.8816 9.14075 13.8271 9.0633 13.7582 8.99999C13.5964 8.8451 13.4188 8.70767 13.2282 8.58999C12.9051 8.39459 12.5713 8.21764 12.2282 8.05999C11.9026 7.90811 11.5687 7.77457 11.2282 7.65999C11.1498 7.62568 11.0611 7.62319 10.9808 7.65304C10.9006 7.6829 10.8351 7.74276 10.7982 7.81999C10.7639 7.89842 10.7614 7.98712 10.7912 8.06735C10.8211 8.14758 10.881 8.21307 10.9582 8.24999C11.2375 8.42524 11.5048 8.619 11.7582 8.82999C12.009 9.03782 12.2462 9.26162 12.4682 9.49999C12.5982 9.55999 12.7782 9.41999 12.2182 10.06Z" fill="#7A387B"/>
<path fill-rule="evenodd" clip-rule="evenodd" d="M13.8982 2.48001C14.1982 2.54001 14.6482 1.67001 14.6482 1.65001C14.6913 1.56989 14.7152 1.48091 14.7182 1.39001C14.7282 1.29694 14.7282 1.20307 14.7182 1.11001C14.6082 0.0100068 14.3182 0.110007 14.2182 0.0500068C14.1182 -0.00999315 13.8882 0.0500068 13.5782 0.960007C13.5381 1.0349 13.5111 1.11605 13.4982 1.20001C13.488 1.28637 13.488 1.37364 13.4982 1.46001C13.4982 1.46001 13.6082 2.43001 13.8982 2.48001Z" fill="#7A387B"/>
<path fill-rule="evenodd" clip-rule="evenodd" d="M18.3082 3.93002C18.4068 3.86788 18.4974 3.79401 18.5782 3.71002C18.6597 3.63058 18.7333 3.54352 18.7982 3.45002C19.5282 2.52002 19.4682 2.45002 19.3382 2.24002C19.2082 2.03002 18.9682 2.00002 18.0182 2.59002C17.9141 2.65765 17.814 2.7311 17.7182 2.81002C17.6329 2.89869 17.5528 2.99218 17.4782 3.09002C16.7982 4.09002 16.9982 4.27002 17.0782 4.35002C17.1582 4.43002 17.3082 4.61002 18.3082 3.93002Z" fill="#7A387B"/>
<path fill-rule="evenodd" clip-rule="evenodd" d="M18.5082 6.47C18.5682 6.85 19.9482 6.83 19.9782 6.83C20.1779 6.81184 20.3754 6.77501 20.5682 6.72C21.7682 6.42 21.8182 6.33 21.8182 6.1C21.8182 5.87 21.6282 5.61 20.4582 5.55C20.3186 5.53526 20.1778 5.53526 20.0382 5.55C19.9029 5.57046 19.7692 5.60053 19.6382 5.64C18.4282 6.12 18.4882 6.34 18.5082 6.47Z" fill="#7A387B"/>
<path d="M5.7182 18.29C5.67617 18.2913 5.63481 18.3008 5.59648 18.3181C5.55815 18.3354 5.5236 18.3601 5.49481 18.3907C5.46602 18.4214 5.44355 18.4574 5.42869 18.4967C5.41383 18.5361 5.40687 18.578 5.4082 18.62C5.4082 20.17 5.4082 20.29 5.8382 20.62C6.12908 20.8565 6.47171 21.021 6.8382 21.1C6.81483 21.614 6.94876 22.123 7.22213 22.5589C7.4955 22.9949 7.8953 23.3371 8.3682 23.54C8.79671 23.7411 9.25687 23.8663 9.7282 23.91C10.1906 23.9523 10.6568 23.9185 11.1082 23.81C11.671 23.7223 12.195 23.4692 12.6135 23.0827C13.032 22.6963 13.3261 22.1941 13.4582 21.64C13.4784 21.5909 13.4879 21.5381 13.4859 21.4851C13.4839 21.4321 13.4706 21.3802 13.4467 21.3328C13.4229 21.2854 13.3892 21.2437 13.3478 21.2105C13.3065 21.1772 13.2585 21.1533 13.2071 21.1403C13.1557 21.1272 13.102 21.1254 13.0499 21.1349C12.9977 21.1444 12.9481 21.165 12.9046 21.1953C12.8611 21.2257 12.8246 21.265 12.7976 21.3106C12.7706 21.3563 12.7538 21.4072 12.7482 21.46C12.5857 21.8159 12.3257 22.1185 11.9982 22.3326C11.6708 22.5468 11.2894 22.6637 10.8982 22.67C10.5659 22.7063 10.2305 22.7063 9.8982 22.67C9.55646 22.636 9.22043 22.5587 8.8982 22.44C8.6018 22.3624 8.32948 22.2119 8.10596 22.0024C7.88243 21.7928 7.71477 21.5308 7.6182 21.24L7.8982 21.3C8.94315 21.4925 10.0073 21.5596 11.0682 21.5C11.8 21.446 12.5188 21.2773 13.1982 21L14.0182 20.5C14.1176 20.4237 14.2082 20.3364 14.2882 20.24C14.3769 20.1401 14.4571 20.0331 14.5282 19.92C14.7259 19.6828 14.8341 19.3838 14.8341 19.075C14.8341 18.7662 14.7259 18.4672 14.5282 18.23C14.395 18.0847 14.2356 17.9659 14.0582 17.88C13.2948 17.6625 12.501 17.5713 11.7082 17.61L9.4082 17.8C8.5482 17.9 7.6882 18.06 6.8182 18.17L5.7182 18.29ZM6.3082 19.29L6.5282 18.87L9.5282 18.72H11.7882C12.3092 18.7024 12.8302 18.7529 13.3382 18.87C13.4496 18.8929 13.553 18.9446 13.6382 19.02C13.6118 19.098 13.5748 19.172 13.5282 19.24L13.3082 19.5L12.7582 19.83C12.0447 20.1496 11.2788 20.336 10.4982 20.38C9.65623 20.4515 8.80958 20.4482 7.9682 20.37C7.41526 20.3848 6.86778 20.2574 6.3782 20C6.2182 19.87 6.1782 19.65 6.3082 19.31V19.29Z" fill="#7A387B"/>
<path d="M14.2882 17.1C14.4682 16.1 14.3482 16.1 14.1782 16C14.0082 15.9 13.7782 16.09 13.1782 16.95C13.1588 16.9953 13.1353 17.0388 13.1082 17.08C13.1082 17.4 14.1082 17.73 14.2582 17.4L14.2882 17.1Z" fill="#998696"/>
<path d="M16.5282 6.45999C16.2849 5.70416 15.863 5.01812 15.2982 4.45999C14.7554 3.92372 14.1352 3.47202 13.4582 3.11999C12.3724 2.57032 11.1843 2.25185 9.96909 2.18472C8.7539 2.11759 7.53798 2.30326 6.3982 2.72999C5.22642 3.12447 4.15672 3.77394 3.26618 4.63163C2.37564 5.48932 1.68642 6.53386 1.2482 7.68999C0.89356 8.82971 0.89356 10.0503 1.2482 11.19C1.58525 12.2911 2.14329 13.3119 2.8882 14.19C3.3382 14.72 3.8882 15.19 4.3482 15.67C4.544 15.8659 4.72453 16.0765 4.8882 16.3C5.15515 16.6526 5.38001 17.0352 5.5582 17.44C5.5582 17.52 5.6182 17.61 5.6582 17.7C5.7382 18.06 6.3882 17.93 6.3982 17.65C6.4082 17.37 6.2882 17.32 6.2182 17.16C6.03435 16.7005 5.8031 16.2615 5.5282 15.85C5.36023 15.5802 5.17308 15.3229 4.9682 15.08C4.5382 14.57 4.0382 14.08 3.6282 13.57C3.01843 12.7773 2.57614 11.8689 2.3282 10.9C2.08754 9.97563 2.12934 9.00037 2.4482 8.09999C2.83 7.11744 3.42146 6.22996 4.18138 5.49941C4.94129 4.76885 5.85137 4.2128 6.8482 3.86999C7.83828 3.47793 8.89666 3.28748 9.96131 3.3098C11.026 3.33212 12.0754 3.56677 13.0482 3.99999C13.6581 4.29657 14.2236 4.67691 14.7282 5.12999C15.2157 5.55946 15.5959 6.09716 15.8382 6.69999C15.8701 6.79049 15.9359 6.86507 16.0217 6.90798C16.1075 6.95089 16.2067 6.95878 16.2982 6.92999C16.345 6.91542 16.3883 6.89145 16.4254 6.85956C16.4626 6.82767 16.4929 6.78853 16.5144 6.74454C16.536 6.70054 16.5483 6.65261 16.5507 6.60368C16.553 6.55476 16.5454 6.50586 16.5282 6.45999Z" fill="#998696"/>
</g>
<defs>
<clipPath id="clip0_3013_15584">
<rect width="24" height="24" fill="white" transform="translate(0.968201)"/>
</clipPath>
</defs>
</svg>
