<svg width="25" height="24" viewBox="0 0 25 24" fill="none" xmlns="http://www.w3.org/2000/svg">
<g clip-path="url(#clip0_3013_15516)">
<path fill-rule="evenodd" clip-rule="evenodd" d="M19.8482 12C19.8359 11.9246 19.7943 11.8571 19.7326 11.8121C19.6708 11.7672 19.5937 11.7484 19.5182 11.76C19.4431 11.7768 19.377 11.8209 19.3327 11.8837C19.2883 11.9465 19.2689 12.0236 19.2782 12.1C19.3897 13.34 19.4265 14.5856 19.3882 15.83V17.43V19.03C19.3882 20.13 19.2582 21.23 19.1382 22.33C18.763 22.4241 18.3823 22.4942 17.9982 22.54C17.1782 22.62 16.3382 22.62 15.5282 22.67C14.5282 22.73 13.5282 22.8 12.5982 22.83H11.3682L6.8682 22.7C6.91053 22.6726 6.94499 22.6347 6.9682 22.59C7.27847 21.9741 7.50064 21.3177 7.6282 20.64C7.80416 19.6492 7.90113 18.6461 7.9182 17.64C7.95555 16.107 7.85178 14.5739 7.6082 13.06C7.21307 10.9431 6.66496 8.8576 5.9682 6.81997C6.29967 6.77195 6.63349 6.74191 6.9682 6.72997H8.3782H9.8082L12.5982 6.38997C12.6363 6.39131 12.6743 6.38513 12.71 6.37177C12.7457 6.35842 12.7784 6.33816 12.8062 6.31216C12.8341 6.28615 12.8566 6.25491 12.8723 6.22022C12.8881 6.18553 12.8969 6.14806 12.8982 6.10997C12.901 6.07156 12.8957 6.03299 12.8829 5.99667C12.8701 5.96036 12.8499 5.92708 12.8236 5.89892C12.7973 5.87077 12.7655 5.84833 12.7302 5.83303C12.6948 5.81772 12.6567 5.80988 12.6182 5.80997L9.8182 5.62997H8.8182C8.5082 5.62997 8.1182 5.67997 7.8182 5.71997C7.10974 5.81371 6.41055 5.9676 5.7282 6.17997C5.6722 6.19779 5.62322 6.23277 5.5882 6.27997C5.55059 6.28908 5.51527 6.30588 5.48448 6.32931C5.45369 6.35275 5.42809 6.38231 5.4093 6.41614C5.3905 6.44997 5.37893 6.48732 5.3753 6.52585C5.37167 6.56437 5.37606 6.60323 5.3882 6.63997C5.8282 8.44997 6.1882 10.28 6.4882 12.12C6.6682 13.22 6.8182 14.31 6.9082 15.42C6.9882 16.15 7.0482 16.88 7.0582 17.62C7.10984 18.5803 7.08644 19.5433 6.9882 20.5C6.91805 21.0557 6.7769 21.6002 6.5682 22.12L5.9682 22.37C5.8578 22.4263 5.73996 22.4667 5.6182 22.49C5.42741 22.5318 5.22995 22.5329 5.03869 22.4933C4.84743 22.4536 4.66668 22.3741 4.5082 22.26C4.19035 22.0046 3.96257 21.6541 3.8582 21.26C3.72627 20.905 3.66798 20.5269 3.68689 20.1487C3.70581 19.7704 3.80152 19.4 3.9682 19.06C4.0982 19.12 4.2182 19.2 4.3482 19.25C4.45225 19.2804 4.55982 19.2973 4.6682 19.3C4.77769 19.3149 4.88871 19.3149 4.9982 19.3C5.25912 19.2298 5.51085 19.1291 5.7482 19C5.83572 18.9867 5.91439 18.9392 5.9669 18.868C6.01941 18.7967 6.04146 18.7075 6.0282 18.62C6.01494 18.5325 5.96745 18.4538 5.89619 18.4013C5.82493 18.3488 5.73572 18.3267 5.6482 18.34C5.4082 18.34 5.2182 18.23 4.9882 18.19C4.85036 18.1585 4.70957 18.1417 4.5682 18.14C2.4282 18.22 2.7082 20.99 2.7182 21.05C2.77461 21.4885 2.921 21.9107 3.1482 22.29C3.30598 22.5655 3.52076 22.8041 3.7782 22.99C4.03189 23.1654 4.32173 23.2817 4.62636 23.3301C4.93098 23.3786 5.24259 23.358 5.5382 23.27C6.9982 23.45 8.4482 23.71 9.9182 23.86C10.3682 23.91 10.8182 23.93 11.2682 23.95C11.8336 23.9957 12.4011 24.0124 12.9682 24C13.8282 23.94 14.6682 23.82 15.5182 23.71C16.3682 23.6 17.1782 23.54 17.9982 23.39C19.9982 23.04 19.8282 23.63 20.3282 19.19C20.3882 18.6433 20.4282 18.0933 20.4482 17.54V15.89C20.3628 14.5782 20.1621 13.2765 19.8482 12Z" fill="#7A387B"/>
<path fill-rule="evenodd" clip-rule="evenodd" d="M22.9682 7.99999L23.2182 6.32999V5.42999L23.0582 4.79999C22.978 4.56855 22.8463 4.35831 22.6731 4.1851C22.4999 4.0119 22.2896 3.88022 22.0582 3.79999C21.866 3.74683 21.6676 3.71992 21.4682 3.71999C21.5184 3.24841 21.5384 2.77411 21.5282 2.29999C21.4913 1.83065 21.3251 1.3807 21.0482 0.999986C20.7445 0.658462 20.3668 0.390832 19.944 0.217524C19.5211 0.0442151 19.0642 -0.0301904 18.6082 -1.35824e-05C18.1463 -0.00634465 17.6896 0.0973733 17.2757 0.302563C16.8618 0.507753 16.5028 0.808518 16.2282 1.17999C16.0588 1.48664 15.9662 1.82975 15.9582 2.17999C15.9571 2.71843 16.0175 3.25525 16.1382 3.77999H15.9282C15.8956 3.76996 15.8608 3.76996 15.8282 3.77999H15.6882C15.1745 4.27461 14.7929 4.89 14.5782 5.56999C14.3869 6.5785 14.2965 7.60356 14.3082 8.62999L14.3582 9.89999C14.3448 10.0597 14.3448 10.2203 14.3582 10.38C14.3827 10.4619 14.4198 10.5395 14.4682 10.61C14.5475 10.708 14.6509 10.7838 14.7682 10.83C14.911 10.8808 15.0583 10.9176 15.2082 10.94C15.4252 10.9875 15.6462 11.0143 15.8682 11.02H16.7682C17.9682 11 19.1082 11 20.2582 11C21.0282 11 21.8082 10.94 22.5882 10.88C22.6315 10.8787 22.6742 10.8689 22.7137 10.8511C22.7533 10.8333 22.7889 10.8079 22.8187 10.7763C22.8484 10.7447 22.8716 10.7076 22.8869 10.6671C22.9023 10.6265 22.9095 10.5833 22.9082 10.54C22.8967 10.4694 22.8655 10.4036 22.8182 10.35C22.7982 9.98359 22.7982 9.61638 22.8182 9.24999C22.8582 8.77999 22.9682 8.36999 22.9682 7.99999ZM16.7582 2.47999C16.778 2.19918 16.8749 1.92928 17.0382 1.69999C17.1784 1.54037 17.3575 1.41979 17.5582 1.34999C17.8989 1.20109 18.2664 1.12285 18.6382 1.11999C18.9324 1.07367 19.2331 1.09363 19.5186 1.17841C19.8041 1.26318 20.067 1.41063 20.2882 1.60999C20.4678 1.82928 20.5883 2.09092 20.6382 2.36999C20.6994 2.78708 20.7261 3.2085 20.7182 3.62999H20.4082L18.5182 3.53999C18.0482 3.53999 17.5782 3.53999 17.1082 3.61999L16.7582 3.66999C16.7328 3.27373 16.7328 2.87625 16.7582 2.47999ZM16.7582 9.96999H15.9282C15.7638 9.96046 15.6001 9.94042 15.4382 9.90999L15.3682 8.65999C15.267 7.69931 15.267 6.73066 15.3682 5.76999C15.4144 5.23176 15.6692 4.73293 16.0782 4.37999H16.4982H17.0882C17.5482 4.37999 17.9982 4.37999 18.4482 4.45999L20.2582 4.73999C20.7149 4.74493 21.1701 4.79179 21.6182 4.87999C21.6988 4.90274 21.7727 4.94463 21.8337 5.00208C21.8946 5.05954 21.9407 5.13086 21.9682 5.20999L22.0982 5.59999L22.1682 6.30999L22.0682 7.88999C22.0682 8.33999 22.0082 8.77999 22.0182 9.21999C22.0212 9.55443 22.0446 9.88838 22.0882 10.22L16.7582 9.96999Z" fill="#7A387B"/>
<path fill-rule="evenodd" clip-rule="evenodd" d="M19.3282 5.52C18.9792 5.39422 18.6086 5.33982 18.2382 5.36C17.9509 5.38616 17.6743 5.48174 17.4322 5.63852C17.19 5.7953 16.9896 6.00858 16.8482 6.26C16.7059 6.50064 16.6258 6.773 16.6153 7.05239C16.6049 7.33179 16.6643 7.60938 16.7882 7.86C16.9234 8.10725 17.1287 8.30903 17.3782 8.44C17.6884 8.60202 18.029 8.6974 18.3782 8.72C18.4158 8.72713 18.4544 8.72649 18.4917 8.71812C18.529 8.70976 18.5642 8.69384 18.5951 8.67136C18.626 8.64887 18.652 8.62029 18.6715 8.58738C18.6909 8.55447 18.7034 8.51793 18.7082 8.48C18.7197 8.40447 18.701 8.32744 18.6561 8.26565C18.6111 8.20386 18.5436 8.1623 18.4682 8.15C18.2553 8.09684 18.0526 8.009 17.8682 7.89C17.7298 7.80803 17.6239 7.6809 17.5682 7.53C17.5395 7.40587 17.5409 7.27669 17.5722 7.15319C17.6035 7.02969 17.6638 6.91546 17.7482 6.82C17.8096 6.72153 17.8931 6.63867 17.992 6.57794C18.0909 6.5172 18.2026 6.48026 18.3182 6.47C18.5477 6.45982 18.7773 6.48684 18.9982 6.55C19.1996 6.5859 19.3887 6.67187 19.5482 6.8C19.5973 6.87599 19.6234 6.96454 19.6234 7.055C19.6234 7.14547 19.5973 7.23401 19.5482 7.31C19.4746 7.56048 19.3059 7.77223 19.0782 7.9C18.9962 7.92941 18.9291 7.99008 18.8916 8.06877C18.8541 8.14746 18.8493 8.23777 18.8782 8.32C18.9097 8.40278 18.9723 8.46999 19.0526 8.50734C19.1329 8.5447 19.2246 8.54924 19.3082 8.52C19.5573 8.42128 19.7829 8.27151 19.9707 8.08034C20.1584 7.88917 20.304 7.66083 20.3982 7.41C20.4781 7.21103 20.5071 6.99528 20.4827 6.78227C20.4582 6.56926 20.3811 6.3657 20.2582 6.19C20.0178 5.88318 19.6953 5.65086 19.3282 5.52Z" fill="#7A387B"/>
<path fill-rule="evenodd" clip-rule="evenodd" d="M11.9682 14C12.0306 13.954 12.0727 13.8855 12.0858 13.8091C12.0988 13.7327 12.0818 13.6541 12.0382 13.59C11.994 13.5283 11.9273 13.4864 11.8525 13.4733C11.7777 13.4602 11.7008 13.477 11.6382 13.52L10.9682 14C10.7858 14.1026 10.6119 14.2197 10.4482 14.35C10.3437 14.4313 10.2435 14.5181 10.1482 14.61C10.0739 14.6826 10.0038 14.7594 9.9382 14.84C9.86675 14.946 9.83165 15.0723 9.8382 15.2C9.8729 15.5257 10.0302 15.826 10.2782 16.04C10.6781 16.3224 11.0994 16.5731 11.5382 16.79C11.568 16.8208 11.6038 16.8454 11.6433 16.8621C11.6828 16.8789 11.7253 16.8875 11.7682 16.8875C11.8111 16.8875 11.8536 16.8789 11.8931 16.8621C11.9326 16.8454 11.9684 16.8208 11.9982 16.79C12.0293 16.7593 12.0541 16.7227 12.071 16.6824C12.0878 16.642 12.0965 16.5987 12.0965 16.555C12.0965 16.5113 12.0878 16.468 12.071 16.4276C12.0541 16.3873 12.0293 16.3507 11.9982 16.32C11.8282 16.13 11.5382 15.88 11.2782 15.62C11.1921 15.5321 11.1119 15.4385 11.0382 15.34L11.5482 14.69L11.9682 14Z" fill="#998696"/>
<path fill-rule="evenodd" clip-rule="evenodd" d="M14.4982 13.29C14.2482 13.73 13.9682 14.12 13.7182 14.56C13.6163 14.7441 13.5261 14.9345 13.4482 15.13C13.3585 15.3236 13.285 15.5243 13.2282 15.73C13.0744 16.2152 12.9508 16.7095 12.8582 17.21C12.8443 17.2507 12.8387 17.2937 12.8417 17.3366C12.8448 17.3795 12.8565 17.4213 12.8761 17.4596C12.8957 17.4979 12.9228 17.5318 12.9558 17.5594C12.9888 17.5869 13.027 17.6075 13.0682 17.62C13.1504 17.6489 13.2407 17.6441 13.3194 17.6066C13.3981 17.5691 13.4588 17.502 13.4882 17.42C13.7082 16.97 13.9782 16.55 14.2082 16.1C14.3643 15.8009 14.5045 15.4939 14.6282 15.18C14.8048 14.6305 14.9418 14.0691 15.0382 13.5C15.0645 13.427 15.0615 13.3466 15.0298 13.2757C14.9981 13.2049 14.9402 13.149 14.8682 13.12C14.7966 13.094 14.7176 13.0973 14.6483 13.1291C14.5791 13.161 14.5252 13.2187 14.4982 13.29Z" fill="#998696"/>
<path fill-rule="evenodd" clip-rule="evenodd" d="M15.2082 16.22C15.137 16.2705 15.088 16.3464 15.0713 16.432C15.0545 16.5176 15.0713 16.6064 15.1182 16.68C15.1705 16.7519 15.2481 16.8011 15.3354 16.8179C15.4227 16.8346 15.5131 16.8175 15.5882 16.77C16.0082 16.54 16.4482 16.38 16.8782 16.16C17.0818 16.0612 17.2759 15.9441 17.4582 15.81C17.6799 15.6319 17.8752 15.4231 18.0382 15.19C18.0718 15.1144 18.0892 15.0327 18.0892 14.95C18.0892 14.8673 18.0718 14.7855 18.0382 14.71C17.9948 14.591 17.9226 14.4845 17.8282 14.4C17.6822 14.298 17.5284 14.2077 17.3682 14.13L16.1582 13.54C16.126 13.5185 16.0899 13.5037 16.0519 13.4964C16.0139 13.4891 15.9749 13.4895 15.937 13.4975C15.8992 13.5056 15.8633 13.5211 15.8316 13.5432C15.7998 13.5653 15.7728 13.5935 15.7522 13.6262C15.7315 13.6589 15.7175 13.6953 15.7112 13.7335C15.7048 13.7716 15.7061 13.8107 15.7151 13.8483C15.724 13.8859 15.7404 13.9214 15.7633 13.9526C15.7862 13.9838 15.815 14.0101 15.8482 14.03L16.7882 14.91H16.7182L15.2082 16.22Z" fill="#998696"/>
</g>
<defs>
<clipPath id="clip0_3013_15516">
<rect width="24" height="24" fill="white" transform="translate(0.968201)"/>
</clipPath>
</defs>
</svg>
