<svg width="25" height="24" viewBox="0 0 25 24" fill="none" xmlns="http://www.w3.org/2000/svg">
<g clip-path="url(#clip0_3013_15482)">
<path d="M15.2782 19.62C14.5653 20.0538 13.7254 20.2303 12.8982 20.12C12.5585 20.085 12.2233 20.0147 11.8982 19.91C11.5752 19.809 11.2661 19.6679 10.9782 19.49C10.6222 19.3008 10.3105 19.038 10.064 18.719C9.81741 18.4 9.64159 18.0322 9.5482 17.64C9.5482 17.35 9.4682 17.08 9.4682 16.78C9.51668 16.0219 9.48315 15.2609 9.3682 14.51C9.2843 14.0881 9.07521 13.7013 8.7682 13.4C8.62615 13.2768 8.4461 13.2062 8.2582 13.2C8.05316 13.2115 7.84926 13.2382 7.6482 13.28H5.7082H4.8882C4.7165 13.0018 4.56607 12.7109 4.4382 12.41C4.32519 12.1211 4.25121 11.8184 4.2182 11.51C4.18828 11.2743 4.18828 11.0357 4.2182 10.8C4.25216 10.5661 4.31601 10.3376 4.4082 10.12C4.62307 9.45559 5.07047 8.89102 5.6682 8.53C6.12072 8.30069 6.62089 8.1812 7.1282 8.1812C7.6355 8.1812 8.13567 8.30069 8.5882 8.53C9.0982 8.76 12.0382 10.32 10.0782 13.09C10.0292 13.1656 10.0122 13.2576 10.0309 13.3457C10.0497 13.4338 10.1027 13.5109 10.1782 13.56C10.5143 13.856 10.8132 14.1918 11.0682 14.56C11.3192 14.9248 11.5273 15.3174 11.6882 15.73C11.8464 16.1432 11.9735 16.5678 12.0682 17C12.1702 17.3638 12.3436 17.7038 12.5782 18C12.8022 18.264 13.0991 18.456 13.4318 18.552C13.7644 18.6481 14.1179 18.6439 14.4482 18.54C14.6009 18.5025 14.7512 18.4557 14.8982 18.4L15.2982 18.21C15.3442 18.189 15.3855 18.1591 15.42 18.1221C15.4544 18.0851 15.4812 18.0417 15.4988 17.9944C15.5165 17.947 15.5246 17.8966 15.5228 17.8461C15.521 17.7956 15.5092 17.746 15.4882 17.7C15.4672 17.654 15.4373 17.6127 15.4003 17.5782C15.3633 17.5438 15.3199 17.517 15.2725 17.4994C15.2252 17.4817 15.1748 17.4736 15.1243 17.4754C15.0738 17.4772 15.0242 17.489 14.9782 17.51L14.3282 17.64C14.1748 17.6672 14.0168 17.6496 13.8731 17.5893C13.7294 17.529 13.6062 17.4286 13.5182 17.3C13.3775 17.0345 13.2829 16.7471 13.2382 16.45C13.1467 16.0488 13.0091 15.6596 12.8282 15.29C12.5509 14.8284 12.2147 14.4049 11.8282 14.03C11.546 13.7749 11.2376 13.5503 10.9082 13.36C10.9082 13.36 10.9882 13.36 11.0182 13.29C12.6382 10.99 11.2282 8.55 9.1382 7.5C8.61383 7.21814 8.03783 7.04537 7.44491 6.99209C6.85198 6.93881 6.25441 7.00614 5.6882 7.19C5.13159 7.40403 4.63423 7.74806 4.23761 8.19339C3.84099 8.63871 3.55661 9.17243 3.4082 9.75C3.32677 10.0504 3.2798 10.359 3.2682 10.67C3.24629 10.9851 3.26987 11.3017 3.3382 11.61C3.42144 11.9852 3.55251 12.3482 3.7282 12.69C3.83975 12.8938 3.9633 13.0908 4.0982 13.28C3.76367 13.2886 3.42984 13.3153 3.0982 13.36C2.81124 13.393 2.52924 13.4602 2.2582 13.56C2.06479 13.6325 1.89521 13.7571 1.7682 13.92C1.58251 14.177 1.44371 14.4647 1.3582 14.77C1.22317 15.3414 1.13951 15.9237 1.1082 16.51C0.950228 17.9664 1.00074 19.4379 1.2582 20.88C1.43117 21.8677 1.81673 22.806 2.3882 23.63C2.4422 23.703 2.52246 23.7521 2.61202 23.7671C2.70158 23.782 2.79344 23.7615 2.8682 23.71C2.94051 23.6578 2.98941 23.5793 3.00438 23.4914C3.01934 23.4035 2.99917 23.3132 2.9482 23.24C2.48409 22.4803 2.19699 21.6258 2.1082 20.74C1.9538 19.3842 1.99759 18.0132 2.2382 16.67C2.2982 16.3 2.3682 15.79 2.4882 15.33C2.53617 15.1218 2.61719 14.9226 2.7282 14.74C2.6382 14.58 3.1282 14.66 3.2782 14.64C3.58638 14.5968 3.89702 14.5734 4.2082 14.57H5.7182C8.4382 14.47 8.1882 14.26 8.3182 15.01C8.39333 15.5904 8.4334 16.1748 8.4382 16.76C8.47748 17.7557 8.62161 18.7445 8.8682 19.71C9.09921 20.6665 9.40687 21.6029 9.7882 22.51C9.824 22.6055 9.89627 22.6828 9.9891 22.725C10.0819 22.7672 10.1877 22.7708 10.2832 22.735C10.3787 22.6992 10.456 22.6269 10.4982 22.5341C10.5404 22.4413 10.544 22.3355 10.5082 22.24C10.27 21.5388 10.073 20.8242 9.9182 20.1C10.0381 20.2366 10.1685 20.3637 10.3082 20.48C10.6808 20.7621 11.1007 20.9754 11.5482 21.11C11.9838 21.2518 12.4402 21.3194 12.8982 21.31C13.9696 21.3057 15.002 20.907 15.7982 20.19C15.8388 20.1596 15.8729 20.1213 15.8985 20.0775C15.9241 20.0336 15.9406 19.9851 15.9471 19.9348C15.9537 19.8844 15.95 19.8333 15.9365 19.7844C15.9229 19.7355 15.8997 19.6898 15.8682 19.65C15.8338 19.6057 15.7902 19.5694 15.7405 19.5435C15.6908 19.5176 15.6361 19.5027 15.5801 19.4998C15.5241 19.497 15.4681 19.5062 15.416 19.527C15.3639 19.5477 15.3169 19.5794 15.2782 19.62Z" fill="#7A387B"/>
<path d="M15.1582 4.28002C15.2411 4.21986 15.297 4.1295 15.3139 4.02846C15.3307 3.92742 15.3071 3.82381 15.2482 3.74002C15.1847 3.65847 15.0928 3.60389 14.9909 3.5872C14.8889 3.57051 14.7844 3.59295 14.6982 3.65002L12.1482 4.87002C11.7978 5.04783 11.4633 5.25526 11.1482 5.49002C11.0012 5.62067 10.9115 5.80382 10.8982 6.00002C10.8843 6.10242 10.8932 6.20664 10.9243 6.3052C10.9554 6.40375 11.008 6.49419 11.0782 6.57002C11.2082 6.72002 11.6082 7.05002 11.6382 7.08002L13.8782 8.92002C13.9419 8.98353 14.0282 9.01919 14.1182 9.01919C14.2082 9.01919 14.2945 8.98353 14.3582 8.92002C14.4217 8.85629 14.4574 8.76999 14.4574 8.68002C14.4574 8.59005 14.4217 8.50375 14.3582 8.44002L12.5282 6.15002L12.4282 6.09002L12.7982 5.93002L15.1582 4.28002Z" fill="#7A387B"/>
<path d="M18.0982 8.33001C18.0575 8.35889 18.0228 8.39551 17.9963 8.43778C17.9697 8.48005 17.9517 8.52714 17.9434 8.57636C17.935 8.62558 17.9364 8.67596 17.9476 8.72463C17.9587 8.7733 17.9793 8.8193 18.0082 8.86001C18.0699 8.94084 18.1601 8.99514 18.2604 9.01186C18.3607 9.02858 18.4636 9.00646 18.5482 8.95001L21.0982 7.73001C21.4506 7.55978 21.7856 7.35547 22.0982 7.12001C22.2369 6.99553 22.3257 6.82499 22.3482 6.64001C22.362 6.53914 22.353 6.43646 22.3219 6.33954C22.2907 6.24261 22.2382 6.15392 22.1682 6.08001C21.9916 5.89923 21.8047 5.72894 21.6082 5.57001L19.3682 3.72001C19.3374 3.68537 19.2999 3.6574 19.2579 3.63779C19.2159 3.61819 19.1704 3.60738 19.1241 3.60601C19.0778 3.60465 19.0316 3.61277 18.9886 3.62987C18.9455 3.64697 18.9064 3.67269 18.8736 3.70545C18.8409 3.73821 18.8152 3.77733 18.7981 3.82039C18.781 3.86345 18.7728 3.90956 18.7742 3.95587C18.7756 4.00218 18.7864 4.04773 18.806 4.08971C18.8256 4.1317 18.8536 4.16923 18.8882 4.20001L20.7182 6.45001L20.8182 6.52001C20.691 6.56394 20.5673 6.61743 20.4482 6.68001L18.0982 8.33001Z" fill="#7A387B"/>
<path d="M18.2582 2.36002C18.217 2.34234 18.1726 2.33326 18.1277 2.33331C18.0829 2.33337 18.0385 2.34257 17.9973 2.36035C17.9561 2.37813 17.919 2.40412 17.8882 2.43674C17.8574 2.46935 17.8336 2.50789 17.8182 2.55002C17.4382 3.20002 17.0582 3.83002 16.7382 4.55002C16.5982 4.84002 16.4882 5.14002 16.3782 5.44002C16.2682 5.74002 16.1782 6.04002 16.0982 6.35002C15.9082 7.08002 15.7782 7.80002 15.6382 8.54002C15.6229 8.58859 15.6175 8.63974 15.6224 8.69043C15.6273 8.74112 15.6423 8.79031 15.6665 8.83509C15.6908 8.87986 15.7238 8.91931 15.7636 8.95107C15.8034 8.98284 15.8492 9.00629 15.8982 9.02002C15.9963 9.04811 16.1015 9.03661 16.1913 8.988C16.281 8.9394 16.3481 8.85755 16.3782 8.76002C16.6582 8.08002 16.9682 7.42002 17.2482 6.76002C17.3682 6.47002 17.4882 6.18002 17.5982 5.89002C17.7098 5.59845 17.8066 5.3014 17.8882 5.00002C18.0982 4.29002 18.2482 3.58002 18.4482 2.87002C18.4747 2.82512 18.4909 2.77484 18.4956 2.72287C18.5002 2.67091 18.4931 2.61857 18.4749 2.56968C18.4567 2.52079 18.4278 2.47659 18.3903 2.44032C18.3528 2.40404 18.3077 2.37661 18.2582 2.36002Z" fill="#7A387B"/>
<path d="M24.8682 5.00001C24.2782 -0.379989 25.6782 1.35001 20.7082 0.640011C19.1377 0.409815 17.5549 0.272909 15.9682 0.230011C15.1682 0.230011 14.3782 0.230011 13.5882 0.300011C12.7982 0.370011 11.9682 0.470011 11.1982 0.590011C10.4282 0.710011 9.73818 0.760011 8.96818 0.880011C7.03818 1.21001 6.96818 0.560011 6.89818 3.00001C6.88318 3.21642 6.88318 3.4336 6.89818 3.65001C6.90801 3.84805 6.9314 4.04517 6.96818 4.24001C7.06818 4.74001 7.24818 5.24001 7.34818 5.69001C7.35178 5.73663 7.36495 5.782 7.38688 5.8233C7.4088 5.86459 7.43901 5.90093 7.47561 5.93002C7.51221 5.95911 7.55442 5.98034 7.5996 5.99239C7.64478 6.00443 7.69196 6.00703 7.73818 6.00001C7.78241 5.99875 7.82593 5.98861 7.86615 5.9702C7.90638 5.95179 7.94249 5.92547 7.97235 5.89282C8.0022 5.86017 8.02518 5.82185 8.03993 5.78013C8.05467 5.73842 8.06088 5.69417 8.05818 5.65001C8.16428 5.07571 8.22447 4.49387 8.23818 3.91001C8.23122 3.57408 8.19441 3.23943 8.12818 2.91001C8.07818 2.55001 7.96818 2.20001 7.96818 1.84001C8.35119 1.76491 8.73867 1.71481 9.12818 1.69001C9.86818 1.64001 10.6082 1.64001 11.3282 1.61001C12.0482 1.58001 12.8782 1.56001 13.6582 1.55001C14.4382 1.54001 15.2082 1.55001 15.9782 1.55001C17.5282 1.55001 19.0682 1.55001 20.6282 1.67001C21.4782 1.73001 22.3782 1.67001 23.2482 1.67001H23.3882C23.4482 2.14001 23.5182 2.61001 23.5482 3.09001C23.5782 3.57001 23.5482 4.09001 23.6082 4.65001C23.6682 5.21001 23.6582 5.65001 23.6882 6.21001C23.7982 7.81001 23.9182 9.40001 23.9582 10.95C23.9659 11.0168 23.9938 11.0796 24.0382 11.13C22.5846 11.3388 21.1126 11.3891 19.6482 11.28L17.8282 11.22H16.5982C15.4797 11.243 14.3639 11.3399 13.2582 11.51C13.2093 11.5061 13.1601 11.5128 13.114 11.5296C13.0679 11.5465 13.026 11.5732 12.9912 11.6078C12.9564 11.6424 12.9295 11.6841 12.9123 11.7301C12.8952 11.7761 12.8882 11.8253 12.8918 11.8742C12.8955 11.9232 12.9097 11.9707 12.9335 12.0137C12.9573 12.0566 12.9901 12.0939 13.0296 12.1229C13.0692 12.152 13.1146 12.1721 13.1627 12.182C13.2107 12.1918 13.2604 12.1912 13.3082 12.18C14.0582 12.18 14.7982 12.18 15.5282 12.3C15.4552 12.5562 15.3984 12.8167 15.3582 13.08C15.3433 13.263 15.3433 13.447 15.3582 13.63V14.18C15.3582 14.62 15.4682 15.03 15.5082 15.46C15.4998 15.5619 15.5318 15.6631 15.5973 15.7416C15.6627 15.8202 15.7564 15.8699 15.8582 15.88C15.9084 15.8855 15.9592 15.8807 16.0074 15.8659C16.0557 15.851 16.1004 15.8264 16.1388 15.7936C16.1772 15.7608 16.2085 15.7205 16.2308 15.6752C16.253 15.6299 16.2658 15.5805 16.2682 15.53C16.3882 15.09 16.4982 14.67 16.5782 14.22C16.5934 14.0337 16.5934 13.8464 16.5782 13.66C16.5981 13.4739 16.5981 13.2861 16.5782 13.1C16.5436 12.8571 16.4935 12.6166 16.4282 12.38L17.1982 12.45C18.0761 12.5249 18.9572 12.555 19.8382 12.54C21.3462 12.5254 22.8446 12.2964 24.2882 11.86C24.3377 11.8494 24.3846 11.829 24.4262 11.8C24.4677 11.771 24.503 11.7339 24.5301 11.6911C24.5571 11.6482 24.5753 11.6004 24.5835 11.5504C24.5918 11.5004 24.59 11.4493 24.5782 11.4C24.5782 11.34 24.5182 11.31 24.4882 11.27C24.5542 11.2459 24.6115 11.2025 24.6525 11.1455C24.6935 11.0884 24.7164 11.0203 24.7182 10.95C24.8282 9.78001 24.9582 8.57001 24.9782 7.35001C24.9934 6.56511 24.9566 5.78006 24.8682 5.00001Z" fill="#998696"/>
<path d="M23.5182 17.85C23.4473 17.508 23.2512 17.2048 22.9682 17C22.7397 16.8574 22.4774 16.778 22.2082 16.77C21.8031 16.7761 21.3988 16.8095 20.9982 16.87L17.4282 17.37C17.3838 17.3749 17.3408 17.3887 17.3019 17.4107C17.2629 17.4327 17.2289 17.4623 17.2018 17.4979C17.1746 17.5334 17.155 17.5741 17.1441 17.6174C17.1332 17.6608 17.1312 17.7059 17.1382 17.75C17.1431 17.7945 17.1569 17.8374 17.1789 17.8764C17.2009 17.9153 17.2305 17.9493 17.2661 17.9765C17.3016 18.0036 17.3423 18.0232 17.3856 18.0341C17.429 18.0451 17.4741 18.0471 17.5182 18.04L21.1382 18H21.8782C22.7482 18 22.2482 17.88 22.3482 19.29C22.4382 20.29 23.2282 20.29 21.4082 20.35L17.5682 20.64C17.4665 20.6452 17.3709 20.6899 17.3018 20.7647C17.2326 20.8394 17.1955 20.9382 17.1982 21.04C17.1995 21.0908 17.2109 21.1408 17.2318 21.1871C17.2528 21.2334 17.2828 21.275 17.3201 21.3095C17.3573 21.344 17.4012 21.3707 17.449 21.3879C17.4967 21.4052 17.5475 21.4127 17.5982 21.41L21.3882 21.47C21.8368 21.5203 22.2896 21.5203 22.7382 21.47C23.0337 21.4192 23.3081 21.2837 23.5282 21.08C23.6817 20.8755 23.7626 20.6257 23.7582 20.37C23.7397 19.9781 23.6997 19.5875 23.6382 19.2C23.6376 18.7474 23.5974 18.2957 23.5182 17.85Z" fill="#7A387B"/>
</g>
<defs>
<clipPath id="clip0_3013_15482">
<rect width="24" height="24" fill="white" transform="translate(0.968201)"/>
</clipPath>
</defs>
</svg>
