<svg width="25" height="24" viewBox="0 0 25 24" fill="none" xmlns="http://www.w3.org/2000/svg">
<g clip-path="url(#clip0_3013_15542)">
<path fill-rule="evenodd" clip-rule="evenodd" d="M24.5982 7.42001C24.4782 6.25001 24.5282 3.85001 23.6982 3.19001C21.7782 1.68001 17.5582 2.08001 14.8882 2.00001C11.4082 1.85001 7.70821 2.14001 4.26821 2.24001C4.18928 2.25369 4.11773 2.2948 4.06615 2.35609C4.01458 2.41738 3.9863 2.49491 3.9863 2.57501C3.9863 2.65511 4.01458 2.73263 4.06615 2.79392C4.11773 2.85521 4.18928 2.89632 4.26821 2.91001C7.73821 2.86001 11.3382 2.62001 14.8382 2.82001C17.3082 2.97001 21.4882 2.68001 23.0882 3.98001C23.4882 4.31001 23.4982 6.71001 23.5782 7.56001C23.9272 10.5485 23.954 13.5658 23.6582 16.56C23.6223 17.5738 23.4714 18.5803 23.2082 19.56C20.7882 20.96 3.52821 21.93 2.49821 20.11C2.10988 18.5957 1.89186 17.0427 1.84821 15.48C1.64734 12.861 1.70093 10.2287 2.00821 7.62001C2.08821 7.62001 9.61821 7.94001 14.5782 7.86001C16.9082 7.86001 19.2582 7.73001 21.3482 7.65001C21.4357 7.65001 21.5197 7.61524 21.5816 7.55335C21.6434 7.49146 21.6782 7.40753 21.6782 7.32001C21.6782 7.23248 21.6434 7.14855 21.5816 7.08666C21.5197 7.02477 21.4357 6.99001 21.3482 6.99001C19.2082 6.99001 11.2382 6.74001 9.76821 6.76001C1.76821 6.84001 2.03821 7.21 2.05821 6.95001C2.05821 6.43001 2.15821 5.95001 2.21821 5.38001C2.20794 4.72657 2.28188 4.07454 2.43821 3.44001C2.50584 3.37768 2.54594 3.29104 2.54969 3.19915C2.55344 3.10725 2.52053 3.01764 2.45821 2.95001C2.39588 2.88238 2.30924 2.84227 2.21735 2.83852C2.12546 2.83477 2.03584 2.86768 1.96821 2.93001C1.59821 3.35001 1.67821 4.71001 1.60821 5.19001C1.53821 5.67001 1.46821 6.26 1.41821 6.79001C1.01548 9.65124 0.891563 12.5448 1.04821 15.43C1.07739 17.1163 1.29882 18.7939 1.70821 20.43C3.16821 23.15 18.9682 21.9 22.6482 20.88C24.0982 20.48 24.3382 20.07 24.5182 18.93C25.0946 15.1169 25.1216 11.2408 24.5982 7.42001Z" fill="#7A387B"/>
<path fill-rule="evenodd" clip-rule="evenodd" d="M5.5082 5.25001C5.58802 5.08343 5.6107 4.89518 5.57274 4.7144C5.53478 4.53363 5.43829 4.37041 5.2982 4.25001C4.5382 3.84001 3.5882 4.64001 4.2982 5.35001C4.38246 5.42662 4.48159 5.48508 4.58941 5.52174C4.69723 5.5584 4.81145 5.57247 4.92495 5.56309C5.03844 5.55371 5.1488 5.52108 5.24914 5.46722C5.34948 5.41335 5.43766 5.33942 5.5082 5.25001Z" fill="#7A387B"/>
<path fill-rule="evenodd" clip-rule="evenodd" d="M8.13821 5.00001C8.22268 4.83523 8.24889 4.64671 8.21257 4.46514C8.17626 4.28357 8.07956 4.11963 7.93821 4.00001C7.16821 3.59001 6.22821 4.39001 6.93821 5.09001C7.02096 5.16695 7.11872 5.22595 7.22536 5.26332C7.33199 5.30069 7.4452 5.31562 7.55787 5.30716C7.67055 5.29871 7.78026 5.26707 7.88013 5.21421C7.97999 5.16136 8.06786 5.08843 8.13821 5.00001Z" fill="#7A387B"/>
<path fill-rule="evenodd" clip-rule="evenodd" d="M11.0182 5.00001C11.0998 4.83379 11.1234 4.64507 11.0853 4.46387C11.0473 4.28267 10.9497 4.11939 10.8082 4.00001C10.0482 3.59001 9.09821 4.39001 9.80821 5.09001C9.89112 5.1686 9.98954 5.22899 10.0972 5.26732C10.2048 5.30565 10.3192 5.32107 10.4331 5.3126C10.547 5.30412 10.6579 5.27194 10.7587 5.21811C10.8594 5.16428 10.9478 5.09 11.0182 5.00001Z" fill="#7A387B"/>
<path fill-rule="evenodd" clip-rule="evenodd" d="M8.96821 11.33C9.00195 11.3922 9.0566 11.4405 9.12249 11.4663C9.18839 11.4921 9.26128 11.4938 9.32829 11.4711C9.39531 11.4483 9.45213 11.4026 9.48871 11.342C9.52529 11.2815 9.53928 11.2099 9.52821 11.14C8.96821 9.24002 3.96821 11.55 4.96821 15.19C5.12695 15.8928 5.54685 16.5089 6.14286 16.9137C6.73887 17.3185 7.46644 17.4816 8.17821 17.37C8.67033 17.3554 9.14846 17.203 9.55821 16.93C9.73424 16.7864 9.89208 16.6219 10.0282 16.44C10.0585 16.3857 10.0737 16.3243 10.0723 16.2621C10.071 16.1999 10.0531 16.1393 10.0205 16.0863C9.98792 16.0333 9.94181 15.99 9.88692 15.9608C9.83203 15.9316 9.77034 15.9175 9.70821 15.92C9.37821 15.92 9.41821 16.34 8.70821 16.5C8.01626 16.6209 7.30403 16.482 6.70821 16.11C6.32707 15.735 6.06929 15.2527 5.96924 14.7274C5.86919 14.2022 5.93162 13.6589 6.14821 13.17C6.96821 11.42 8.77821 10.8 8.96821 11.33Z" fill="#998696"/>
<path fill-rule="evenodd" clip-rule="evenodd" d="M12.3682 16.52C12.3327 16.4944 12.2926 16.476 12.25 16.4659C12.2075 16.4558 12.1633 16.4542 12.1202 16.4612C12.077 16.4682 12.0356 16.4836 11.9984 16.5065C11.9612 16.5295 11.9288 16.5595 11.9032 16.595C11.8776 16.6305 11.8592 16.6706 11.8491 16.7132C11.839 16.7557 11.8374 16.7998 11.8444 16.843C11.8514 16.8862 11.8668 16.9276 11.8897 16.9648C11.9127 17.002 11.9427 17.0344 11.9782 17.06C13.0982 17.9 15.0982 16.59 14.8682 15.06C14.6382 13.53 12.3482 13.06 12.2682 12.42C12.1882 11.78 12.9482 11.19 13.5782 11.24C13.7382 11.24 14.1582 11.34 14.2382 11.48C14.282 11.5351 14.3437 11.5731 14.4127 11.5873C14.4816 11.6014 14.5534 11.5909 14.6153 11.5575C14.6773 11.5242 14.7256 11.4701 14.7517 11.4047C14.7778 11.3393 14.7801 11.2669 14.7582 11.2C14.633 11.0219 14.4725 10.8714 14.2867 10.7579C14.1009 10.6444 13.8938 10.5702 13.6782 10.54C13.3794 10.4676 13.0679 10.4651 12.768 10.5327C12.4681 10.6002 12.1878 10.736 11.9488 10.9295C11.7099 11.1229 11.5188 11.3689 11.3903 11.6482C11.2619 11.9275 11.1996 12.2327 11.2082 12.54C11.2782 14.1 13.6182 14.26 13.8782 15.3C14.0782 16 12.9682 16.9 12.3682 16.52Z" fill="#998696"/>
<path fill-rule="evenodd" clip-rule="evenodd" d="M18.0882 16.58C17.8448 16.7016 17.5728 16.7546 17.3016 16.7335C17.0303 16.7123 16.7699 16.6178 16.5482 16.46C16.5175 16.4289 16.4809 16.4041 16.4406 16.3873C16.4002 16.3704 16.3569 16.3617 16.3132 16.3617C16.2695 16.3617 16.2262 16.3704 16.1858 16.3873C16.1455 16.4041 16.1089 16.4289 16.0782 16.46C15.1682 17.25 19.6382 18.96 19.6582 15.21C19.6582 13.77 17.6082 13.37 17.0882 12.76C16.5682 12.15 18.0882 11.42 18.7782 11.67C18.8382 11.67 18.8982 11.67 18.8882 11.79C18.881 11.8288 18.8814 11.8685 18.8896 11.9071C18.8977 11.9457 18.9134 11.9822 18.9357 12.0147C18.958 12.0472 18.9864 12.075 19.0195 12.0965C19.0525 12.118 19.0895 12.1328 19.1282 12.14C19.5082 12.21 19.6882 11.55 19.1982 11.14C18.8255 10.9538 18.4116 10.8652 17.9953 10.8827C17.579 10.9002 17.174 11.0232 16.8182 11.24C16.6204 11.3265 16.4448 11.4566 16.3044 11.6206C16.1641 11.7846 16.0627 11.9782 16.0078 12.187C15.953 12.3958 15.9461 12.6143 15.9878 12.8261C16.0294 13.0379 16.1184 13.2375 16.2482 13.41C16.8382 14.2 18.5582 14.65 18.5982 15.22C18.6682 16 18.4582 16.39 18.0882 16.58Z" fill="#998696"/>
</g>
<defs>
<clipPath id="clip0_3013_15542">
<rect width="24" height="24" fill="white" transform="translate(0.968201)"/>
</clipPath>
</defs>
</svg>
