<svg width="25" height="24" viewBox="0 0 25 24" fill="none" xmlns="http://www.w3.org/2000/svg">
<g clip-path="url(#clip0_3013_15448)">
<path fill-rule="evenodd" clip-rule="evenodd" d="M3.4782 2.71C6.41947 2.9073 9.37157 2.87721 12.3082 2.62C12.3515 2.62801 12.396 2.62639 12.4386 2.61526C12.4812 2.60413 12.5208 2.58377 12.5546 2.55562C12.5885 2.52746 12.6157 2.49221 12.6344 2.45235C12.6531 2.4125 12.6627 2.36902 12.6627 2.325C12.6627 2.28099 12.6531 2.23751 12.6344 2.19766C12.6157 2.1578 12.5885 2.12255 12.5546 2.09439C12.5208 2.06624 12.4812 2.04588 12.4386 2.03475C12.396 2.02362 12.3515 2.022 12.3082 2.03C7.0882 1.49 8.5882 1.65 3.4382 2.03C3.34803 2.03531 3.26366 2.07622 3.20364 2.14373C3.14363 2.21124 3.1129 2.29983 3.1182 2.39C3.12351 2.48018 3.16442 2.56455 3.23193 2.62456C3.29944 2.68457 3.38803 2.71531 3.4782 2.71Z" fill="#7A387B"/>
<path fill-rule="evenodd" clip-rule="evenodd" d="M7.5782 9.35999C5.81841 9.07952 4.02213 9.12358 2.2782 9.48999C2.0682 7.30999 2.1182 7.63999 2.3682 2.91999C2.42788 2.86695 2.46404 2.79237 2.46872 2.71267C2.47341 2.63297 2.44625 2.55467 2.3932 2.49499C2.34016 2.43532 2.26558 2.39916 2.18588 2.39447C2.10618 2.38978 2.02788 2.41695 1.9682 2.46999C1.6482 2.72999 1.6882 3.46999 1.6182 3.74999C1.15706 5.73476 1.00194 7.77835 1.1582 9.80999C1.20468 10.5905 1.36991 11.3593 1.6482 12.09C2.2182 12.89 4.6482 12.87 5.6482 12.86C5.42162 13.1456 5.25812 13.4759 5.16849 13.8293C5.07886 14.1826 5.06513 14.5509 5.1282 14.91C4.76619 14.9504 4.41227 15.0448 4.0782 15.19C4.00927 15.2027 3.94697 15.2392 3.90214 15.2931C3.8573 15.347 3.83275 15.4149 3.83275 15.485C3.83275 15.5551 3.8573 15.623 3.90214 15.6769C3.94697 15.7308 4.00927 15.7672 4.0782 15.78C4.45113 15.9463 4.85488 16.0322 5.2632 16.0322C5.67152 16.0322 6.07527 15.9463 6.4482 15.78C6.53838 15.78 6.62486 15.7442 6.68862 15.6804C6.75238 15.6166 6.7882 15.5302 6.7882 15.44C6.7882 15.3498 6.75238 15.2633 6.68862 15.1996C6.62486 15.1358 6.53838 15.1 6.4482 15.1L5.9682 15C6.31375 14.3506 6.44336 13.608 6.3382 12.88C6.3382 12.88 6.2282 12.88 7.0782 12.83C7.16838 12.83 7.25486 12.7942 7.31862 12.7304C7.38238 12.6666 7.4182 12.5802 7.4182 12.49C7.4182 12.3998 7.38238 12.3133 7.31862 12.2496C7.25486 12.1858 7.16838 12.15 7.0782 12.15C5.62805 12.1485 4.18368 11.9672 2.7782 11.61C2.4782 11.5 2.5582 11.55 2.4882 11.18C2.4182 10.81 2.3882 10.57 2.3482 10.18C4.5282 10.44 4.4682 10.38 7.5982 10.04C7.64285 10.0387 7.68681 10.0286 7.72755 10.0103C7.7683 9.99198 7.80505 9.96584 7.83569 9.93334C7.86633 9.90084 7.89028 9.86262 7.90615 9.82087C7.92202 9.77911 7.92952 9.73464 7.9282 9.68999C7.92689 9.64534 7.9168 9.60139 7.8985 9.56064C7.8802 9.51989 7.85405 9.48315 7.82155 9.4525C7.78905 9.42186 7.75083 9.39792 7.70908 9.38205C7.66732 9.36617 7.62285 9.35868 7.5782 9.35999Z" fill="#7A387B"/>
<path fill-rule="evenodd" clip-rule="evenodd" d="M20.8382 10.25C19.8861 10.459 18.9129 10.5563 17.9382 10.54C17.1698 10.546 16.4027 10.4756 15.6482 10.33C15.2682 10.24 15.1082 10.26 15.1082 10.13C15.1082 10 14.7582 2.4 15.1982 1.19C15.4832 1.02792 15.8011 0.932209 16.1282 0.909998C16.1017 1.42505 16.2085 1.93823 16.4382 2.4C16.8493 2.85019 17.3969 3.15279 17.9968 3.2612C18.5967 3.36962 19.2156 3.27784 19.7582 3C20.2736 2.45773 20.5755 1.74739 20.6082 0.999998C20.7467 1.0251 20.8837 1.05849 21.0182 1.1C21.1003 1.11952 21.1868 1.10779 21.2608 1.06708C21.3348 1.02637 21.3909 0.959589 21.4184 0.879743C21.4458 0.799897 21.4426 0.712695 21.4093 0.635109C21.376 0.557522 21.315 0.495103 21.2382 0.459998C19.9082 0.0699977 14.9682 -0.490002 14.3882 0.769998C13.8582 1.87 13.7182 9.58 14.0782 10.61C14.5882 12.01 19.2482 11.74 20.7082 11.29C21.1017 11.2076 21.4548 10.9922 21.7082 10.68C22.0382 10.13 21.7082 2.4 21.7082 1.92C21.7082 1.84043 21.6766 1.76413 21.6203 1.70787C21.5641 1.6516 21.4878 1.62 21.4082 1.62C21.3286 1.62 21.2523 1.6516 21.1961 1.70787C21.1398 1.76413 21.1082 1.84043 21.1082 1.92C21.1082 4.9 20.9682 10.28 20.8382 10.25ZM19.9682 0.999998C19.8489 1.4571 19.6108 1.87453 19.2782 2.21C18.925 2.28005 18.5614 2.28005 18.2082 2.21C16.9682 2 17.0382 1.76 16.7982 0.999998V0.849998C17.8572 0.793685 18.9192 0.843938 19.9682 0.999998Z" fill="#7A387B"/>
<path fill-rule="evenodd" clip-rule="evenodd" d="M24.4982 19.2C23.6282 17.6 21.5782 17.44 19.9182 18.2C19.0182 11.07 15.6582 11.65 15.5382 14.83C15.4919 16.2823 15.5857 17.7357 15.8182 19.17C14.5282 18.37 12.5582 18.81 12.6382 20.43C12.6882 21.5 14.4782 23.64 16.3382 23.99C16.3726 24.0052 16.4098 24.0131 16.4474 24.0131C16.485 24.0131 16.5222 24.0052 16.5566 23.99C16.591 23.9748 16.6218 23.9526 16.6471 23.9247C16.6724 23.8969 16.6916 23.8641 16.7035 23.8284C16.7154 23.7928 16.7197 23.755 16.7162 23.7176C16.7126 23.6801 16.7013 23.6438 16.6829 23.611C16.6645 23.5782 16.6395 23.5496 16.6094 23.5271C16.5793 23.5045 16.5448 23.4885 16.5082 23.48C16.1682 23.3 13.6782 21.35 13.6382 20.38C13.6382 19.68 14.6382 19.66 15.2882 20.01C15.628 20.2474 15.9857 20.458 16.3582 20.64C16.4322 20.6621 16.5103 20.6664 16.5863 20.6525C16.6622 20.6386 16.7339 20.607 16.7953 20.5602C16.8567 20.5134 16.9062 20.4528 16.9397 20.3832C16.9732 20.3137 16.9898 20.2372 16.9882 20.16C16.9196 19.6087 16.8228 19.0613 16.6982 18.52C16.6082 17.73 16.1882 13.74 16.9582 13.6C17.2682 13.53 17.5182 13.88 17.6782 14.16C18.6182 15.84 18.6282 18.85 18.8582 19.4C18.8923 19.4883 18.9463 19.5676 19.0158 19.6319C19.0854 19.6961 19.1687 19.7436 19.2595 19.7706C19.3502 19.7977 19.446 19.8036 19.5394 19.7878C19.6327 19.7721 19.7213 19.7352 19.7982 19.68C20.2446 19.3373 20.7652 19.1044 21.3182 19C21.7958 18.9142 22.2881 19.0106 22.6982 19.27C23.6982 20.04 23.3882 21.43 23.1782 22.89C23.169 23.0739 23.2307 23.2543 23.3505 23.3942C23.4702 23.5341 23.6391 23.6227 23.8222 23.6419C24.0053 23.6611 24.1889 23.6094 24.3351 23.4975C24.4813 23.3855 24.579 23.2218 24.6082 23.04C24.8582 21.94 25.0582 20.2 24.4982 19.2Z" fill="#7A387B"/>
<path fill-rule="evenodd" clip-rule="evenodd" d="M13.3582 17.4C13.3582 16.89 12.6882 17.27 10.8682 17.01C10.7082 17.01 9.9882 16.85 9.9382 16.71C9.63052 14.449 9.59694 12.1591 9.8382 9.88998C9.8382 9.69998 10.0282 9.51998 9.9682 9.45998C10.5714 9.28471 11.1916 9.17409 11.8182 9.12998C11.7382 9.63998 11.7482 10.6 11.5182 12.13C11.4197 13.5969 11.4565 15.0698 11.6282 16.53C11.6282 16.92 12.2982 16.92 12.2982 16.53C12.3782 15.65 12.5182 14.78 12.5782 13.9C12.6501 12.2785 12.5999 10.6539 12.4282 9.03998H13.0982C13.1884 9.03998 13.2749 9.00416 13.3386 8.9404C13.4024 8.87664 13.4382 8.79016 13.4382 8.69998C13.4382 8.60981 13.4024 8.52333 13.3386 8.45957C13.2749 8.3958 13.1884 8.35998 13.0982 8.35998C11.8935 8.29975 10.6862 8.40064 9.5082 8.65998C8.2782 9.15998 8.3682 15.5 9.0882 17.08C9.5682 18.08 11.9182 17.8 13.0882 17.72C13.166 17.7124 13.2378 17.6746 13.2883 17.6149C13.3387 17.5551 13.3638 17.478 13.3582 17.4Z" fill="#998696"/>
<path fill-rule="evenodd" clip-rule="evenodd" d="M20.6982 12.56C20.4435 13.4827 20.4435 14.4572 20.6982 15.38C20.6982 15.4702 20.734 15.5566 20.7978 15.6204C20.8615 15.6842 20.948 15.72 21.0382 15.72C21.1284 15.72 21.2149 15.6842 21.2786 15.6204C21.3424 15.5566 21.3782 15.4702 21.3782 15.38C21.7682 13.73 21.7582 13.83 21.2682 12.47C21.2408 12.4108 21.1948 12.3622 21.1372 12.3315C21.0797 12.3007 21.0137 12.2896 20.9492 12.2998C20.8848 12.31 20.8254 12.3409 20.7801 12.3878C20.7348 12.4348 20.7061 12.4952 20.6982 12.56Z" fill="#998696"/>
</g>
<defs>
<clipPath id="clip0_3013_15448">
<rect width="24" height="24" fill="white" transform="translate(0.968201)"/>
</clipPath>
</defs>
</svg>
