<svg width="25" height="24" viewBox="0 0 25 24" fill="none" xmlns="http://www.w3.org/2000/svg">
<g clip-path="url(#clip0_3013_15375)">
<path d="M9.16821 4.94001C9.12045 4.74651 9.02008 4.57 8.87821 4.43001C8.61317 4.11118 8.30719 3.82874 7.96821 3.59001C8.13989 3.45041 8.2711 3.26742 8.34821 3.06001C8.43882 2.78905 8.45124 2.49804 8.38402 2.22035C8.31681 1.94267 8.1727 1.68954 7.96821 1.49001C7.78746 1.26925 7.5552 1.09632 7.29188 0.986456C7.02856 0.876595 6.74226 0.833171 6.45821 0.860011C6.04741 0.940256 5.68172 1.17184 5.43356 1.5089C5.18539 1.84595 5.07285 2.26391 5.11821 2.68001C5.15908 2.92026 5.25143 3.14883 5.38892 3.35004C5.52641 3.55126 5.7058 3.72035 5.91477 3.84574C6.12374 3.97112 6.35736 4.04983 6.59961 4.07645C6.84185 4.10308 7.08699 4.07701 7.31821 4.00001C7.56821 4.30001 8.13821 4.91001 8.21821 5.00001C8.48821 5.29001 9.36821 5.53001 9.16821 4.94001ZM7.55821 2.82001C7.52491 2.94187 7.45925 3.05244 7.36821 3.14001C7.26699 3.2735 7.12548 3.37085 6.96463 3.41766C6.80378 3.46447 6.63214 3.45825 6.4751 3.39992C6.31806 3.34159 6.18397 3.23425 6.09268 3.09379C6.00139 2.95333 5.95774 2.78721 5.96821 2.62001C5.97312 2.47247 6.02205 2.32977 6.1087 2.21026C6.19535 2.09074 6.31577 1.99988 6.45447 1.94934C6.59318 1.89881 6.74383 1.89091 6.88705 1.92667C7.03028 1.96243 7.15954 2.04021 7.25821 2.15001C7.36217 2.22594 7.44453 2.32769 7.49715 2.44519C7.54976 2.56269 7.57081 2.69189 7.55821 2.82001Z" fill="#998696"/>
<path d="M9.29821 17.77C9.08821 18.05 8.90821 18.35 8.71821 18.65C8.52821 18.95 8.33821 19.24 8.12821 19.53C7.82304 19.3636 7.47223 19.3005 7.12821 19.35C6.71712 19.4258 6.35013 19.6549 6.1014 19.9909C5.85267 20.3268 5.74073 20.7447 5.78821 21.16C6.02821 22.89 8.4582 22.87 8.9982 21.54C9.09477 21.2826 9.12065 21.004 9.07317 20.7332C9.02569 20.4624 8.90658 20.2092 8.72821 20C9.06844 19.7364 9.37715 19.4344 9.64821 19.1C9.87766 18.815 10.0818 18.5105 10.2582 18.19C10.4082 17.93 10.4382 17.85 10.5682 17.59C10.5557 17.5133 10.5254 17.4406 10.4799 17.3776C10.4343 17.3147 10.3747 17.2632 10.3058 17.2273C10.2369 17.1914 10.1606 17.172 10.0829 17.1708C10.0052 17.1695 9.92825 17.1864 9.85821 17.22C9.65699 17.3879 9.46971 17.5719 9.29821 17.77ZM8.29821 21.3C8.25472 21.4916 8.14141 21.6601 7.98039 21.7726C7.81938 21.8852 7.6222 21.9337 7.42735 21.9087C7.23249 21.8837 7.05393 21.787 6.92651 21.6375C6.7991 21.488 6.73196 21.2964 6.73821 21.1C6.75462 20.9656 6.80762 20.8382 6.89144 20.7318C6.97525 20.6254 7.08667 20.544 7.21354 20.4966C7.34041 20.4491 7.47787 20.4374 7.61094 20.4627C7.74402 20.488 7.86759 20.5493 7.96821 20.64C8.07106 20.7141 8.1522 20.8144 8.2032 20.9305C8.2542 21.0465 8.27319 21.1741 8.25821 21.3H8.29821Z" fill="#998696"/>
<path d="M18.6482 6.70002C18.6329 6.35549 18.555 6.01662 18.4182 5.70002C18.35 5.59147 18.2557 5.50168 18.1439 5.43881C18.0321 5.37595 17.9064 5.34199 17.7782 5.34002C17.2582 5.28002 17.2982 5.09002 16.6582 5.56002C16.4308 5.71158 16.2451 5.91791 16.1182 6.16002C15.9141 6.23903 15.6971 6.27971 15.4782 6.28002C15.3025 6.27875 15.1289 6.24131 14.9682 6.17002C14.6447 5.95265 14.3634 5.67817 14.1382 5.36002C13.9248 5.12535 13.6334 4.97611 13.3182 4.94002C13.1889 4.92928 13.0588 4.946 12.9365 4.98908C12.8141 5.03217 12.7023 5.10065 12.6082 5.19002C12.3882 5.38002 12.1882 5.81002 11.7282 6.09002C11.4788 6.23502 11.1966 6.31417 10.9082 6.32002C10.5682 6.33674 10.2283 6.28575 9.90822 6.17002C9.51435 5.77133 8.97864 5.54482 8.41822 5.54002C8.29754 5.53415 8.17827 5.56818 8.07886 5.63687C7.97945 5.70555 7.90543 5.80506 7.86822 5.92002C7.71244 6.26148 7.61444 6.62645 7.57822 7.00002C7.54819 7.50958 7.54819 8.02046 7.57822 8.53002C7.57822 8.94002 7.65822 10.53 7.81822 12.16C7.88497 12.9776 8.0086 13.7896 8.18822 14.59C8.49219 15.3013 8.99585 15.9092 9.63822 16.34C10.6023 16.8353 11.6058 17.25 12.6382 17.58C12.6743 17.5873 12.7115 17.5874 12.7477 17.5803C12.7838 17.5731 12.8182 17.559 12.8489 17.5385C12.8795 17.5181 12.9059 17.4918 12.9263 17.4612C12.9468 17.4305 12.9611 17.3962 12.9682 17.36C12.9754 17.3245 12.9754 17.2879 12.9682 17.2524C12.9609 17.2169 12.9466 17.1832 12.9261 17.1533C12.9056 17.1235 12.8793 17.0981 12.8487 17.0786C12.8181 17.0591 12.784 17.046 12.7482 17.04C11.1082 16.69 9.34822 15.68 8.87822 14.37C8.74468 13.6027 8.65785 12.8279 8.61822 12.05C8.51822 10.47 8.51822 8.86002 8.50822 8.46002C8.47831 7.99049 8.47831 7.51954 8.50822 7.05002C8.53024 6.85252 8.57383 6.65802 8.63822 6.47002C9.29742 6.93459 10.0657 7.22054 10.8682 7.30002C11.3435 7.32437 11.8166 7.22077 12.2382 7.00002C12.5757 6.78193 12.8706 6.50404 13.1082 6.18002C13.1082 6.18002 13.1782 6.06002 13.2182 6.02002C13.3542 6.11561 13.4726 6.23403 13.5682 6.37002C13.8106 6.67818 14.1134 6.93343 14.4582 7.12002C14.7683 7.27474 15.1118 7.35032 15.4582 7.34002C15.9261 7.33879 16.3864 7.222 16.7982 7.00002C17.053 6.86184 17.297 6.70473 17.5282 6.53002C17.6046 6.7758 17.6647 7.02634 17.7082 7.28002C17.7082 7.82002 17.7582 8.36002 17.7582 8.54002C17.7582 8.72002 17.7582 10.49 17.6182 12.15C17.5582 13.05 17.4882 13.93 17.3982 14.49C17.0386 15.2072 16.475 15.8022 15.7782 16.2C15.0587 16.649 14.256 16.9483 13.4182 17.08C13.3768 17.0836 13.3366 17.0957 13.3001 17.1156C13.2636 17.1355 13.2317 17.1628 13.2063 17.1957C13.1809 17.2286 13.1626 17.2664 13.1526 17.3067C13.1427 17.3471 13.1411 17.3891 13.1482 17.43C13.1531 17.4709 13.1662 17.5103 13.1865 17.5461C13.2068 17.5819 13.2341 17.6132 13.2666 17.6384C13.2992 17.6635 13.3365 17.6819 13.3762 17.6925C13.416 17.7031 13.4575 17.7056 13.4982 17.7C14.4021 17.4751 15.2852 17.174 16.1382 16.8C16.9877 16.3454 17.6836 15.6495 18.1382 14.8C18.1439 14.7703 18.1439 14.7398 18.1382 14.71C18.2482 14.14 18.3482 13.22 18.4382 12.26C18.5882 10.57 18.6882 8.78002 18.6982 8.60002C18.7082 8.42002 18.7082 7.39002 18.6482 6.70002Z" fill="#7A387B"/>
<path d="M19.2682 20.65C19.0873 20.4204 18.8512 20.2403 18.5819 20.1267C18.3126 20.013 18.0189 19.9694 17.7282 20H17.6282C17.4882 19.65 17.3682 19.3 17.2282 18.94C17.1685 18.7724 17.0984 18.6088 17.0182 18.45C16.9382 18.29 16.8582 18.13 16.7682 17.97C16.6575 17.784 16.5374 17.6037 16.4082 17.43C16.2382 17.1 15.6682 17.43 15.6682 17.72C15.7095 17.9502 15.7663 18.1774 15.8382 18.4C15.9012 18.5743 15.9747 18.7446 16.0582 18.91C16.1452 19.0789 16.242 19.2425 16.3482 19.4C16.5545 19.7123 16.7782 20.0128 17.0182 20.3C16.7895 20.467 16.6102 20.6927 16.4993 20.9532C16.3884 21.2137 16.35 21.4994 16.3882 21.78C16.5982 23.39 18.5082 23.29 19.2082 22.69C19.3769 22.5476 19.5075 22.3655 19.5882 22.16C19.6714 21.9023 19.6857 21.6273 19.6295 21.3623C19.5734 21.0974 19.4488 20.8518 19.2682 20.65ZM18.8282 22C18.7971 22.1257 18.7312 22.24 18.6382 22.33C18.5336 22.451 18.3944 22.5369 18.2393 22.5761C18.0842 22.6153 17.9209 22.6059 17.7714 22.5491C17.6218 22.4924 17.4934 22.391 17.4034 22.2588C17.3134 22.1266 17.2662 21.9699 17.2682 21.81C17.2701 21.6307 17.3388 21.4586 17.4608 21.3273C17.5829 21.196 17.7496 21.1149 17.9282 21.1C18.0433 21.0864 18.16 21.1011 18.268 21.143C18.3761 21.1848 18.4723 21.2524 18.5482 21.34C18.6477 21.4166 18.7258 21.5177 18.7748 21.6333C18.8239 21.7489 18.8423 21.8752 18.8282 22Z" fill="#998696"/>
<path d="M20.5282 2.00002C20.3415 1.77312 20.1009 1.59659 19.8284 1.48654C19.5559 1.3765 19.2602 1.33644 18.9682 1.37002C18.5545 1.44589 18.185 1.676 17.9344 2.01384C17.6838 2.35168 17.5708 2.77206 17.6182 3.19002C17.6586 3.44737 17.7541 3.69296 17.8982 3.91002C17.6676 4.04175 17.4529 4.19945 17.2582 4.38002C17.1573 4.46071 17.0811 4.56812 17.0382 4.69002C17.0382 4.86002 17.3682 5.14002 17.7582 4.87002C17.9382 4.70002 18.2682 4.52002 18.4182 4.35002C18.7463 4.4767 19.1007 4.52018 19.4496 4.47655C19.7986 4.43293 20.1314 4.30357 20.4182 4.10002C20.5809 3.95438 20.7076 3.77295 20.7882 3.57002C20.893 3.30965 20.9242 3.02546 20.8784 2.74855C20.8325 2.47164 20.7114 2.21268 20.5282 2.00002ZM20.0782 3.33002C20.0487 3.45117 19.9864 3.56187 19.8982 3.65002C19.7946 3.77494 19.6545 3.86442 19.4976 3.90599C19.3407 3.94755 19.1748 3.93913 19.0229 3.88189C18.871 3.82466 18.7407 3.72146 18.6503 3.58669C18.5598 3.45191 18.5136 3.29227 18.5182 3.13002C18.5225 2.94984 18.5934 2.77763 18.7171 2.64655C18.8408 2.51547 19.0086 2.43478 19.1882 2.42002C19.3032 2.40725 19.4196 2.42239 19.5276 2.46417C19.6355 2.50595 19.7318 2.57313 19.8082 2.66002C19.9075 2.73868 19.9846 2.84181 20.0319 2.95928C20.0792 3.07675 20.0952 3.20451 20.0782 3.33002Z" fill="#998696"/>
<path d="M23.6082 9.78002C23.3192 9.74713 23.0267 9.78761 22.7575 9.89773C22.4883 10.0078 22.2513 10.184 22.0682 10.41C21.9202 10.5866 21.8081 10.7904 21.7382 11.01C21.5582 11.01 21.2782 10.92 20.9282 10.87H20.4682C20.3217 10.8603 20.1747 10.8603 20.0282 10.87C19.6582 10.92 19.3082 11.03 19.0282 11.1C18.9877 11.0923 18.946 11.0935 18.906 11.1038C18.8661 11.114 18.8289 11.1329 18.7971 11.1592C18.7653 11.1855 18.7398 11.2185 18.7222 11.2558C18.7046 11.2931 18.6955 11.3338 18.6955 11.375C18.6955 11.4163 18.7046 11.457 18.7222 11.4943C18.7398 11.5316 18.7653 11.5646 18.7971 11.5908C18.8289 11.6171 18.8661 11.636 18.906 11.6463C18.946 11.6565 18.9877 11.6578 19.0282 11.65C19.3482 11.72 19.6882 11.83 20.0282 11.89C20.3239 11.9231 20.6225 11.9231 20.9182 11.89L21.6982 11.77C21.6982 11.84 21.6982 11.92 21.7482 12C21.8327 12.2034 21.9627 12.3847 22.1282 12.53C22.8382 13.13 24.7382 13.23 24.9582 11.62C25.0111 11.1989 24.9006 10.7735 24.6495 10.4312C24.3984 10.089 24.0258 9.85598 23.6082 9.78002ZM22.7082 12.06C22.6113 11.9731 22.5447 11.8575 22.5182 11.73C22.4988 11.6059 22.5138 11.4788 22.5613 11.3624C22.6089 11.2461 22.6874 11.145 22.7882 11.07C22.8641 10.9825 22.9603 10.9148 23.0684 10.873C23.1765 10.8311 23.2931 10.8164 23.4082 10.83C23.5878 10.8448 23.7556 10.9255 23.8793 11.0566C24.003 11.1876 24.0739 11.3598 24.0782 11.54C24.0802 11.6999 24.033 11.8566 23.943 11.9888C23.853 12.121 23.7246 12.2224 23.5751 12.2791C23.4255 12.3359 23.2622 12.3453 23.1071 12.3061C22.9521 12.2669 22.8128 12.181 22.7082 12.06Z" fill="#998696"/>
<path d="M7.35821 12.22C7.42363 12.2236 7.48811 12.2032 7.53962 12.1627C7.59114 12.1222 7.62618 12.0644 7.63821 12C7.63826 11.9275 7.61014 11.8577 7.55977 11.8055C7.5094 11.7533 7.44073 11.7226 7.36821 11.72C6.99821 11.65 6.60821 11.53 6.18821 11.47H5.67821H5.17821C4.77821 11.47 4.44821 11.56 4.23821 11.59C4.17378 11.326 4.05074 11.08 3.87821 10.87C3.69254 10.645 3.45327 10.4703 3.18242 10.362C2.91157 10.2537 2.61783 10.2152 2.32821 10.25C1.92675 10.325 1.56667 10.5444 1.31607 10.8669C1.06547 11.1894 0.941713 11.5925 0.968213 12C1.19821 13.62 3.08821 13.51 3.79821 12.92C3.96419 12.7712 4.09414 12.5865 4.17821 12.38C4.17821 12.38 4.17821 12.3 4.17821 12.25C4.48861 12.3194 4.80235 12.3728 5.11821 12.41C5.29139 12.4203 5.46503 12.4203 5.63821 12.41C5.80473 12.4199 5.97169 12.4199 6.13821 12.41C6.59821 12.39 6.96821 12.29 7.35821 12.22ZM3.42821 12.14C3.39491 12.2619 3.32926 12.3725 3.23821 12.46C3.13362 12.581 2.99435 12.6669 2.8393 12.7061C2.68424 12.7453 2.52088 12.7359 2.37136 12.6791C2.22183 12.6224 2.09337 12.521 2.00337 12.3888C1.91337 12.2566 1.86619 12.0999 1.86821 11.94C1.87312 11.7925 1.92205 11.6498 2.00871 11.5303C2.09536 11.4108 2.21578 11.3199 2.35448 11.2694C2.49318 11.2188 2.64383 11.2109 2.78706 11.2467C2.93028 11.2824 3.05954 11.3602 3.15821 11.47C3.25527 11.5505 3.33077 11.6539 3.3779 11.7709C3.42504 11.8879 3.44233 12.0147 3.42821 12.14Z" fill="#998696"/>
<path d="M13.2182 15.73C13.2824 15.7556 13.354 15.7556 13.4182 15.73C14.0977 15.5051 14.7192 15.1329 15.2382 14.64C15.6104 14.2864 15.877 13.8363 16.0082 13.34C16.0942 12.9738 16.161 12.6033 16.2082 12.23C16.2682 11.69 16.3082 11.14 16.3582 10.61C16.3991 10.3084 16.4192 10.0044 16.4182 9.70002C16.3981 9.45705 16.3337 9.21982 16.2282 9.00002C16.119 8.82056 15.9737 8.66571 15.8016 8.54522C15.6295 8.42474 15.4342 8.34125 15.2282 8.30002C14.5245 8.20895 13.812 8.20895 13.1082 8.30002C12.6482 8.30002 12.1682 8.30002 11.6982 8.36002C11.4782 8.36002 11.2582 8.36002 11.0482 8.45002C10.8391 8.48823 10.6346 8.54857 10.4382 8.63002C10.2528 8.7117 10.0911 8.83899 9.96822 9.00002C9.85158 9.1968 9.77352 9.41401 9.73822 9.64002C9.69818 10.0424 9.69818 10.4477 9.73822 10.85L9.83822 12C9.86464 12.4116 9.92823 12.8199 10.0282 13.22C10.1156 13.5093 10.2659 13.7756 10.4682 14C10.7456 14.2936 11.043 14.5676 11.3582 14.82C11.8232 15.1792 12.3073 15.513 12.8082 15.82C12.8382 15.8403 12.872 15.8544 12.9076 15.8614C12.9431 15.8683 12.9797 15.8681 13.0152 15.8606C13.0506 15.8532 13.0842 15.8386 13.114 15.8179C13.1437 15.7972 13.1689 15.7707 13.1882 15.74C13.1882 15.74 13.2082 15.75 13.2182 15.73ZM13.0182 15.33C12.5876 15.0229 12.1768 14.6889 11.7882 14.33C11.5099 14.0919 11.2554 13.8273 11.0282 13.54C10.9078 13.3808 10.8257 13.1961 10.7882 13C10.7346 12.6323 10.7045 12.2616 10.6982 11.89V10.79V10.04C10.7009 9.86534 10.7454 9.69386 10.8282 9.54002L11.2282 9.43002L11.7682 9.36002H13.1582C13.6918 9.28926 14.23 9.25917 14.7682 9.27002C15.0182 9.27002 15.2482 9.27002 15.3582 9.48002C15.4275 9.61252 15.462 9.76051 15.4582 9.91002V10.56C15.4582 11.1 15.4582 11.64 15.3882 12.18C15.3882 12.52 15.3282 12.87 15.2682 13.18C15.1513 13.6384 14.8922 14.0479 14.5282 14.35C14.1483 14.6901 13.7117 14.9608 13.2382 15.15C13.1898 15.1603 13.1446 15.182 13.1064 15.2133C13.0681 15.2446 13.0379 15.2846 13.0182 15.33Z" fill="#7A387B"/>
</g>
<defs>
<clipPath id="clip0_3013_15375">
<rect width="24" height="24" fill="white" transform="translate(0.968201)"/>
</clipPath>
</defs>
</svg>
