<svg width="25" height="24" viewBox="0 0 25 24" fill="none" xmlns="http://www.w3.org/2000/svg">
<g clip-path="url(#clip0_3013_15392)">
<path d="M14.3883 16.12C13.8589 16.2155 13.3852 16.5078 13.0625 16.9382C12.7397 17.3685 12.5917 17.905 12.6483 18.44C12.6653 18.6957 12.7361 18.9449 12.8561 19.1713C12.9761 19.3977 13.1425 19.5962 13.3445 19.7539C13.5466 19.9115 13.7796 20.0247 14.0284 20.0861C14.2772 20.1475 14.5361 20.1556 14.7883 20.11C14.8245 20.1059 14.8593 20.0939 14.8904 20.0749C14.9215 20.0559 14.9481 20.0303 14.9683 20C15.0009 20.0684 15.0583 20.1219 15.1288 20.1497C15.1993 20.1775 15.2777 20.1776 15.3483 20.15C15.7168 20.0345 16.0573 19.8439 16.3483 19.59C16.5616 19.4021 16.7263 19.1654 16.8283 18.9C16.9433 18.5588 16.964 18.1929 16.8883 17.8409C16.8126 17.4888 16.6433 17.1638 16.3983 16.9C16.1553 16.6121 15.844 16.3898 15.4928 16.2536C15.1416 16.1173 14.7618 16.0714 14.3883 16.12ZM16.0683 18.7C16.0095 18.901 15.8951 19.0813 15.7383 19.22C15.5585 19.3862 15.3523 19.5214 15.1283 19.62C15.0777 19.6378 15.0328 19.6689 14.9983 19.71C14.9742 19.6682 14.9391 19.6339 14.8967 19.611C14.8543 19.588 14.8064 19.5773 14.7583 19.58C14.5942 19.5926 14.4293 19.5707 14.2742 19.5158C14.1191 19.4609 13.9772 19.3741 13.8576 19.2611C13.738 19.1481 13.6434 19.0114 13.5798 18.8596C13.5162 18.7079 13.485 18.5445 13.4883 18.38C13.4836 18.0712 13.5934 17.7716 13.7965 17.5389C13.9996 17.3063 14.2816 17.157 14.5883 17.12C14.791 17.1005 14.9954 17.1294 15.1849 17.2041C15.3744 17.2788 15.5434 17.3974 15.6783 17.55C15.838 17.6909 15.9581 17.8713 16.0265 18.073C16.0949 18.2748 16.1093 18.4909 16.0683 18.7Z" fill="#998696"/>
<path d="M7.34826 18.62C6.81859 18.711 6.34362 19.0007 6.02026 19.43C5.69691 19.8593 5.54955 20.3958 5.60826 20.93C5.62509 21.1867 5.69615 21.4369 5.81675 21.6641C5.93735 21.8913 6.10475 22.0904 6.30791 22.2482C6.51107 22.406 6.74537 22.519 6.99537 22.5796C7.24537 22.6402 7.50538 22.6472 7.75826 22.6C7.79631 22.606 7.83526 22.6028 7.87181 22.5906C7.90836 22.5785 7.94144 22.5577 7.96826 22.53C8.00094 22.5984 8.05829 22.6518 8.12878 22.6797C8.19927 22.7075 8.27769 22.7076 8.34826 22.68C8.71399 22.5582 9.05331 22.3682 9.34826 22.12C9.55751 21.9285 9.72148 21.6928 9.82826 21.43C9.94197 21.0879 9.9611 20.7215 9.88365 20.3694C9.8062 20.0173 9.63503 19.6928 9.38826 19.43C9.14823 19.129 8.83374 18.8959 8.47593 18.7538C8.11811 18.6118 7.72939 18.5656 7.34826 18.62ZM9.02826 21.19C8.97009 21.3965 8.85172 21.581 8.68826 21.72C8.50593 21.8829 8.30034 22.0177 8.07826 22.12L7.96826 22.2C7.94108 22.1589 7.90385 22.1253 7.86011 22.1026C7.81637 22.0798 7.76754 22.0686 7.71826 22.07C7.55501 22.0811 7.39122 22.0582 7.23731 22.0026C7.08341 21.947 6.94274 21.8601 6.82425 21.7472C6.70575 21.6344 6.61203 21.4981 6.54902 21.3471C6.48602 21.1961 6.45511 21.0336 6.45826 20.87C6.45593 20.6159 6.53175 20.3671 6.67544 20.1575C6.81914 19.9479 7.02377 19.7875 7.26165 19.698C7.49952 19.6085 7.75914 19.5943 8.00537 19.6573C8.25159 19.7202 8.47252 19.8573 8.63826 20.05C8.798 20.1888 8.91821 20.3673 8.98671 20.5675C9.0552 20.7677 9.06953 20.9825 9.02826 21.19Z" fill="#998696"/>
<path d="M24.1683 17.88C23.6318 17.257 22.8838 16.8545 22.0683 16.75C22.1983 15.43 22.2983 14.1 22.3083 12.75V10.05C22.3083 8.80999 22.1883 7.57999 22.1783 6.34999C22.2182 6.32468 22.2505 6.28896 22.2716 6.24667C22.2928 6.20438 22.302 6.15713 22.2983 6.10999C22.2941 6.06098 22.2772 6.01392 22.2491 5.97354C22.221 5.93317 22.1828 5.9009 22.1383 5.87999C21.9983 5.60999 20.2283 6.09999 20.1383 4.16999C20.1173 3.71649 20.2684 3.27181 20.5614 2.92503C20.8544 2.57825 21.2676 2.35499 21.7183 2.29999C22.0253 2.27158 22.3346 2.32079 22.6177 2.4431C22.9007 2.56542 23.1485 2.75691 23.3383 2.99999C23.569 3.20925 23.7405 3.47571 23.8353 3.77245C23.9301 4.06919 23.9449 4.38569 23.8783 4.68999C23.784 4.98132 23.6109 5.24089 23.3783 5.43999C23.1195 5.66369 22.8299 5.84893 22.5183 5.98999C22.4809 6.00204 22.4465 6.02182 22.4173 6.04803C22.388 6.07424 22.3647 6.1063 22.3486 6.14213C22.3326 6.17796 22.3243 6.21677 22.3242 6.25602C22.3242 6.29528 22.3323 6.33411 22.3483 6.36999C22.3616 6.40772 22.3824 6.4424 22.4094 6.47197C22.4364 6.50154 22.469 6.52542 22.5053 6.5422C22.5417 6.55897 22.581 6.5683 22.621 6.56964C22.661 6.57098 22.7009 6.5643 22.7383 6.54999C23.1936 6.36954 23.6109 6.10492 23.9683 5.76999C24.2344 5.52765 24.4399 5.22623 24.5683 4.88999C24.7106 4.45054 24.7318 3.98086 24.6297 3.53036C24.5277 3.07986 24.3061 2.6652 23.9883 2.32999C23.6889 1.9696 23.3046 1.68945 22.8698 1.51486C22.4351 1.34026 21.9637 1.27673 21.4983 1.32999C20.8267 1.44547 20.2236 1.81062 19.81 2.35219C19.3964 2.89376 19.2029 3.5717 19.2683 4.24999C19.3028 4.6439 19.4295 5.02415 19.6383 5.35999C18.9483 5.80999 18.2583 6.26999 17.5783 6.76999L16.7383 7.43999C16.4683 7.67999 16.1983 7.91999 15.9483 8.16999C15.4583 8.65999 15.0183 9.16999 14.5883 9.68999C14.2672 9.39701 13.8862 9.1773 13.4718 9.04607C13.0574 8.91484 12.6195 8.87524 12.1883 8.92999C11.5506 9.06046 10.9659 9.37715 10.5083 9.83999C9.99826 9.29999 9.56826 8.77999 9.13826 8.29999C8.70826 7.81999 8.40826 7.46999 7.96826 7.06999C7.4085 6.54469 6.81741 6.05379 6.19826 5.59999C6.3925 5.39445 6.54529 5.15338 6.64826 4.88999C6.79185 4.45141 6.81469 3.98226 6.71439 3.53181C6.6141 3.08136 6.39436 2.66622 6.07826 2.32999C5.77681 1.96949 5.39062 1.68941 4.9543 1.51489C4.51798 1.34036 4.04517 1.27683 3.57826 1.32999C2.90667 1.44547 2.30359 1.81062 1.88999 2.35219C1.4764 2.89376 1.28288 3.5717 1.34826 4.24999C1.36747 4.57855 1.45577 4.89936 1.6074 5.19147C1.75903 5.48358 1.97058 5.74041 2.22822 5.94521C2.48586 6.15 2.7838 6.29814 3.10259 6.37995C3.42138 6.46176 3.75384 6.47541 4.07826 6.41999C4.14631 6.41245 4.20895 6.37933 4.25351 6.32735C4.29807 6.27537 4.32121 6.2084 4.31826 6.13999C4.31702 6.10495 4.3087 6.07052 4.2938 6.03877C4.27891 6.00703 4.25774 5.97862 4.23159 5.95527C4.20543 5.93191 4.17482 5.91409 4.14159 5.90287C4.10837 5.89165 4.07322 5.88727 4.03826 5.88999C3.80357 5.91078 3.56712 5.88256 3.34392 5.80712C3.12071 5.73168 2.91563 5.61066 2.74168 5.45176C2.56772 5.29285 2.4287 5.09951 2.33343 4.88403C2.23816 4.66854 2.18873 4.4356 2.18826 4.19999C2.16985 3.74553 2.32322 3.3008 2.61785 2.9543C2.91247 2.60779 3.32675 2.3849 3.77826 2.32999C4.08102 2.30071 4.38633 2.34653 4.66715 2.46339C4.94798 2.58026 5.19566 2.76456 5.38826 2.99999C5.62364 3.20025 5.80144 3.45959 5.90338 3.75134C6.00532 4.04309 6.02771 4.35672 5.96826 4.65999C5.83567 4.96684 5.64242 5.24373 5.40012 5.474C5.15781 5.70428 4.87146 5.88319 4.55826 5.99999C4.52178 6.01329 4.48835 6.03378 4.45994 6.06023C4.43153 6.08669 4.40872 6.11859 4.39287 6.15403C4.37701 6.18947 4.36843 6.22773 4.36764 6.26654C4.36685 6.30536 4.37386 6.34394 4.38826 6.37999C4.40163 6.41772 4.42241 6.4524 4.44938 6.48197C4.47636 6.51154 4.50898 6.53542 4.54532 6.5522C4.58166 6.56897 4.621 6.5783 4.661 6.57964C4.70101 6.58098 4.74088 6.5743 4.77826 6.55999C5.11576 6.41726 5.43206 6.22884 5.71826 5.99999C6.22826 6.54999 6.65826 7.06999 7.09826 7.54999C7.53826 8.02999 7.85826 8.37999 8.26826 8.76999C8.85627 9.34254 9.47733 9.88013 10.1283 10.38C9.80579 10.922 9.66233 11.5518 9.71826 12.18C9.71268 12.2632 9.71268 12.3468 9.71826 12.43C9.38826 12.43 8.96826 12.5 8.51826 12.58C8.29826 12.58 8.07826 12.66 7.85826 12.72L7.21826 12.92C6.89826 13.04 6.60826 13.17 6.36826 13.28C6.30394 12.6995 6.05911 12.1539 5.66826 11.72C5.36953 11.3589 4.98523 11.0782 4.55033 10.9036C4.11544 10.7289 3.64377 10.6658 3.17826 10.72C2.50846 10.84 1.90868 11.2085 1.49891 11.7518C1.08915 12.295 0.899624 12.973 0.968259 13.65C0.988999 13.978 1.0783 14.298 1.23041 14.5893C1.38251 14.8806 1.59403 15.1368 1.8513 15.3413C2.10857 15.5458 2.40588 15.6941 2.72402 15.7765C3.04215 15.859 3.37405 15.8738 3.69826 15.82C3.73546 15.8201 3.77229 15.8125 3.80642 15.7977C3.84055 15.7829 3.87126 15.7612 3.89661 15.734C3.92196 15.7067 3.94141 15.6746 3.95374 15.6395C3.96607 15.6044 3.97101 15.5671 3.96826 15.53C3.96072 15.4619 3.9276 15.3993 3.87562 15.3547C3.82363 15.3102 3.75666 15.287 3.68826 15.29C3.45257 15.3092 3.21544 15.2797 2.99169 15.2032C2.76793 15.1267 2.56236 15.0048 2.38781 14.8453C2.21326 14.6858 2.07348 14.492 1.9772 14.276C1.88093 14.06 1.83022 13.8265 1.82826 13.59C1.81242 13.1372 1.96695 12.695 2.26133 12.3506C2.55571 12.0062 2.96854 11.7848 3.41826 11.73C3.71751 11.6977 4.02014 11.7381 4.30044 11.8478C4.58073 11.9574 4.83041 12.1332 5.02826 12.36C5.25987 12.5686 5.43191 12.835 5.52679 13.132C5.62166 13.4289 5.63598 13.7457 5.56826 14.05C5.47419 14.3443 5.30126 14.6071 5.06826 14.81C4.81186 15.0342 4.5216 15.2165 4.20826 15.35C4.17055 15.3632 4.13598 15.384 4.1067 15.4112C4.07741 15.4383 4.05406 15.4713 4.0381 15.5079C4.02214 15.5445 4.01392 15.584 4.01394 15.6239C4.01397 15.6639 4.02225 15.7034 4.03826 15.74C4.06931 15.8127 4.12699 15.8709 4.19949 15.9025C4.272 15.9341 4.35383 15.9368 4.42826 15.91C4.89508 15.7469 5.32623 15.4957 5.69826 15.17C5.95908 14.9252 6.16083 14.6243 6.28826 14.29C6.28826 14.2 6.33826 14.12 6.35826 14.04C6.82551 13.9941 7.28965 13.9206 7.74826 13.82C8.08694 13.7428 8.42084 13.646 8.74826 13.53C9.21826 13.38 9.63826 13.21 9.95826 13.1C10.1842 13.6306 10.5826 14.0693 11.0889 14.3452C11.5953 14.6211 12.18 14.7179 12.7483 14.62C12.7874 14.6276 12.8277 14.6265 12.8663 14.6167C12.9049 14.6069 12.9409 14.5887 12.9716 14.5634C13.0024 14.5381 13.0272 14.5062 13.0442 14.4702C13.0612 14.4342 13.07 14.3948 13.07 14.355C13.07 14.3152 13.0612 14.2758 13.0442 14.2398C13.0272 14.2037 13.0024 14.1719 12.9716 14.1466C12.9409 14.1213 12.9049 14.103 12.8663 14.0933C12.8277 14.0835 12.7874 14.0824 12.7483 14.09C12.4766 14.1119 12.2034 14.078 11.9454 13.9905C11.6873 13.9029 11.4498 13.7636 11.2476 13.581C11.0453 13.3984 10.8825 13.1764 10.7691 12.9286C10.6557 12.6808 10.5942 12.4124 10.5883 12.14C10.5636 11.6095 10.739 11.089 11.0798 10.6816C11.4205 10.2742 11.9017 10.0096 12.4283 9.93999C12.7805 9.90287 13.1364 9.95172 13.4656 10.0823C13.7948 10.213 14.0873 10.4215 14.3183 10.69C14.5892 10.9386 14.7886 11.2552 14.8959 11.6068C15.0031 11.9585 15.0143 12.3325 14.9283 12.69C14.8209 13.0315 14.6158 13.3339 14.3383 13.56C14.0461 13.8267 13.707 14.0369 13.3383 14.18C13.3014 14.1942 13.2679 14.2157 13.2397 14.2433C13.2115 14.2709 13.1892 14.304 13.1742 14.3405C13.1593 14.377 13.1519 14.4162 13.1526 14.4557C13.1533 14.4951 13.162 14.534 13.1783 14.57C13.1903 14.6074 13.2101 14.6418 13.2363 14.671C13.2625 14.7002 13.2946 14.7236 13.3304 14.7396C13.3662 14.7557 13.405 14.764 13.4443 14.764C13.4835 14.7641 13.5224 14.7559 13.5583 14.74C14.0802 14.5488 14.5593 14.2565 14.9683 13.88C15.2679 13.6046 15.4976 13.2618 15.6383 12.88C15.789 12.4084 15.8139 11.9056 15.7104 11.4215C15.6069 10.9374 15.3786 10.4887 15.0483 10.12C15.5583 9.69999 16.0483 9.29999 16.6183 8.87999L17.4183 8.19999L18.2083 7.49999C18.8183 6.93999 19.4183 6.36999 20.0283 5.82999C20.4439 6.21771 20.9899 6.43539 21.5583 6.43999C21.4183 7.80999 21.3083 9.16999 21.2883 10.54V13.24C21.2883 14.42 21.3683 15.59 21.3683 16.77C20.6262 16.8999 19.9602 17.3043 19.5026 17.9027C19.0449 18.5011 18.8292 19.2498 18.8983 20C18.9197 20.3695 19.0189 20.7304 19.1893 21.059C19.3598 21.3875 19.5977 21.6764 19.8875 21.9067C20.1772 22.137 20.5124 22.3036 20.8709 22.3955C21.2295 22.4874 21.6034 22.5025 21.9683 22.44C22.0363 22.4324 22.099 22.3993 22.1435 22.3473C22.1881 22.2954 22.2112 22.2284 22.2083 22.16C22.207 22.1249 22.1987 22.0905 22.1838 22.0588C22.1689 22.027 22.1477 21.9986 22.1216 21.9753C22.0954 21.9519 22.0648 21.9341 22.0316 21.9229C21.9984 21.9117 21.9632 21.9073 21.9283 21.91C21.6583 21.9346 21.3862 21.9041 21.1284 21.8203C20.8706 21.7365 20.6325 21.6012 20.4286 21.4226C20.2247 21.2439 20.0593 21.0257 19.9423 20.7812C19.8254 20.5366 19.7593 20.2708 19.7483 20C19.7239 19.4679 19.9007 18.9462 20.2435 18.5386C20.5863 18.1309 21.0699 17.8673 21.5983 17.8C21.9488 17.7645 22.3028 17.8142 22.6301 17.9448C22.9574 18.0753 23.2484 18.283 23.4783 18.55C23.7492 18.7986 23.9486 19.1152 24.0559 19.4668C24.1631 19.8185 24.1743 20.1925 24.0883 20.55C23.9755 20.8863 23.7753 21.1866 23.5083 21.42C23.2129 21.6824 22.8746 21.8921 22.5083 22.04C22.4337 22.0692 22.3733 22.1261 22.3398 22.1988C22.3062 22.2715 22.3021 22.3543 22.3283 22.43C22.3426 22.4668 22.3641 22.5005 22.3915 22.529C22.4189 22.5575 22.4517 22.5803 22.4879 22.5961C22.5242 22.6119 22.5632 22.6204 22.6027 22.621C22.6422 22.6217 22.6815 22.6146 22.7183 22.6C23.2448 22.4217 23.7284 22.1356 24.1383 21.76C24.441 21.4873 24.6712 21.1437 24.8083 20.76C24.9756 20.2674 25.0044 19.7382 24.8916 19.2304C24.7787 18.7225 24.5285 18.2554 24.1683 17.88Z" fill="#7A387B"/>
<path d="M12.9683 5.81C13.0307 5.79799 13.0892 5.77048 13.1383 5.73C13.169 5.80009 13.2262 5.85518 13.2974 5.88327C13.3685 5.91137 13.4479 5.9102 13.5183 5.88C13.8864 5.76376 14.2268 5.57315 14.5183 5.32C14.7216 5.12959 14.876 4.89288 14.9683 4.63C15.0833 4.2888 15.104 3.92288 15.0283 3.57087C14.9526 3.21885 14.7833 2.89379 14.5383 2.63C14.2967 2.34256 13.9874 2.11982 13.6382 1.98189C13.2891 1.84396 12.911 1.7952 12.5383 1.84C12.0101 1.93075 11.5352 2.21637 11.2074 2.6404C10.8797 3.06443 10.723 3.596 10.7683 4.13C10.7843 4.39211 10.8565 4.6477 10.98 4.87942C11.1036 5.11114 11.2755 5.31356 11.4842 5.47293C11.6929 5.6323 11.9335 5.74489 12.1895 5.80305C12.4456 5.86121 12.7112 5.86358 12.9683 5.81ZM12.7683 2.81C12.9696 2.78884 13.1732 2.81692 13.3613 2.89182C13.5494 2.96673 13.7165 3.08621 13.8483 3.24C14.0105 3.37902 14.1324 3.55916 14.201 3.76151C14.2696 3.96387 14.2825 4.18096 14.2383 4.39C14.1795 4.59099 14.0651 4.77127 13.9083 4.91C13.7259 5.07291 13.5203 5.20773 13.2983 5.31C13.2533 5.3283 13.2125 5.35552 13.1783 5.39C13.1513 5.34926 13.1139 5.31659 13.0698 5.29546C13.0258 5.27432 12.9769 5.26553 12.9283 5.27C12.7649 5.27955 12.6013 5.25558 12.4475 5.19956C12.2937 5.14355 12.1531 5.05667 12.0341 4.94427C11.9152 4.83188 11.8205 4.69634 11.7558 4.54599C11.6912 4.39564 11.658 4.23366 11.6583 4.07C11.6548 3.76892 11.7601 3.47669 11.9548 3.24704C12.1496 3.01739 12.4207 2.86575 12.7183 2.82L12.7683 2.81Z" fill="#998696"/>
</g>
<defs>
<clipPath id="clip0_3013_15392">
<rect width="24" height="24" fill="white" transform="translate(0.968262)"/>
</clipPath>
</defs>
</svg>
