<svg width="25" height="24" viewBox="0 0 25 24" fill="none" xmlns="http://www.w3.org/2000/svg">
<g clip-path="url(#clip0_3013_15411)">
<path d="M5.9682 2.35C5.82174 2.2855 5.66194 2.2571 5.50222 2.26718C5.34251 2.27726 5.18754 2.32553 5.05035 2.40792C4.91316 2.49032 4.79774 2.60443 4.7138 2.74068C4.62987 2.87694 4.57985 3.03134 4.56797 3.19094C4.55608 3.35053 4.58267 3.51064 4.64551 3.65782C4.70834 3.805 4.80558 3.93496 4.92905 4.03676C5.05253 4.13857 5.19863 4.20925 5.3551 4.24288C5.51156 4.2765 5.6738 4.27208 5.8282 4.23C6.8882 4.32 7.3882 2.48 5.9682 2.35Z" fill="#7A387B"/>
<path d="M9.1582 2.28C9.01159 2.21888 8.85254 2.19356 8.6942 2.20615C8.53586 2.21873 8.3828 2.26885 8.24768 2.35235C8.11257 2.43585 7.99929 2.55034 7.91722 2.68634C7.83516 2.82233 7.78667 2.97592 7.77577 3.13438C7.76487 3.29284 7.79187 3.45162 7.85454 3.59757C7.91722 3.74352 8.01375 3.87245 8.13616 3.97366C8.25857 4.07488 8.40333 4.14548 8.55846 4.17963C8.71358 4.21377 8.87461 4.21047 9.0282 4.17C10.1282 4.26 10.6282 2.41 9.1582 2.28Z" fill="#7A387B"/>
<path d="M12.4982 2.16001C12.3515 2.08514 12.1885 2.04768 12.0238 2.05095C11.8592 2.05422 11.6978 2.09812 11.5542 2.17875C11.4106 2.25938 11.2891 2.37424 11.2005 2.51313C11.112 2.65202 11.0591 2.81064 11.0466 2.97488C11.0341 3.13913 11.0624 3.30392 11.1289 3.45461C11.1954 3.6053 11.2981 3.73722 11.4279 3.83865C11.5577 3.94009 11.7105 4.00789 11.8728 4.03604C12.0351 4.06419 12.2018 4.05181 12.3582 4.00001C13.4782 4.13001 13.9682 2.28001 12.4982 2.16001Z" fill="#7A387B"/>
<path d="M23.4682 5.17C23.454 3.9892 23.3403 2.81169 23.1282 1.65C23.074 1.25579 22.9033 0.886724 22.6382 0.590005C22.2333 0.333019 21.7674 0.188087 21.2882 0.170005C19.7901 0.01637 18.2836 -0.0404147 16.7782 4.96116e-06C12.3382 0.060005 6.4382 0.500005 3.8282 0.830005C3.75752 0.840105 3.69202 0.872855 3.64154 0.923341C3.59105 0.973827 3.5583 1.03933 3.5482 1.11001C3.53911 1.04619 3.50828 0.987455 3.46091 0.943731C3.41355 0.900007 3.35254 0.873966 3.2882 0.870005C3.25141 0.867283 3.21445 0.871857 3.17943 0.883466C3.14441 0.895074 3.11204 0.913488 3.08416 0.937649C3.05628 0.961809 3.03345 0.991241 3.01698 1.02425C3.00052 1.05726 2.99073 1.0932 2.9882 1.13001C2.8882 2.07 2.7282 3.95 2.6282 6.06C2.6282 6.74 2.6282 7.46 2.5682 8.16C2.5082 8.86 2.5682 9.59 2.5682 10.27C2.5682 12.98 2.7082 15.19 2.7082 15.19C2.7082 15.2749 2.74191 15.3563 2.80193 15.4163C2.86194 15.4763 2.94333 15.51 3.0282 15.51C3.11307 15.51 3.19446 15.4763 3.25447 15.4163C3.31449 15.3563 3.3482 15.2749 3.3482 15.19C3.3482 15.19 3.4782 12.98 3.5782 10.28C3.5782 9.59 3.6382 8.88 3.6382 8.17C3.6382 7.46 3.5382 2.10001 3.5482 1.23001C3.57057 1.30111 3.61635 1.36254 3.67809 1.4043C3.73982 1.44607 3.81388 1.4657 3.8882 1.46001C6.1482 1.25001 10.8882 1.07 14.9382 1.05C16.8893 0.998211 18.8418 1.04494 20.7882 1.19001C21.1907 1.1804 21.5913 1.2483 21.9682 1.39C21.9682 1.39 21.9682 1.47 22.0282 1.54C22.1212 1.82736 22.1915 2.1216 22.2382 2.42001C22.3682 3.18001 22.6782 7.35 22.6982 8.07C22.794 10.444 22.7472 12.8216 22.5582 15.19C22.5495 15.264 22.5695 15.3384 22.6142 15.398C22.6589 15.4576 22.7248 15.4977 22.7982 15.51C22.835 15.5156 22.8726 15.5139 22.9087 15.5048C22.9449 15.4958 22.9788 15.4796 23.0086 15.4572C23.0384 15.4349 23.0635 15.4068 23.0823 15.3747C23.1011 15.3425 23.1133 15.3069 23.1182 15.27C23.4939 11.9173 23.6109 8.54066 23.4682 5.17Z" fill="#7A387B"/>
<path d="M15.9082 5.15C14.3682 5.15 12.9082 5.08 11.4082 5.1C9.3382 5.1 7.7082 5.18 4.8082 5.35C4.3782 5.54 4.3782 5.74 4.8082 5.94C7.3482 5.94 8.8082 6.11 10.6382 6.15H15.1382C17.0482 6.15 19.1382 6.07 21.6882 5.96C21.7715 5.95325 21.8496 5.91692 21.9085 5.85758C21.9673 5.79823 22.003 5.71979 22.009 5.63644C22.0151 5.55308 21.9911 5.47032 21.9414 5.40311C21.8917 5.3359 21.8197 5.28868 21.7382 5.27C19.4882 5.26 17.6182 5.19 15.9082 5.15Z" fill="#998696"/>
<path d="M7.9682 19.54C7.3682 19.54 6.6182 19.47 5.9682 19.54C5.6276 19.5561 5.29096 19.62 4.9682 19.73C4.88304 19.7592 4.81062 19.817 4.76323 19.8936C4.71584 19.9702 4.6964 20.0607 4.7082 20.15C4.71495 20.2201 4.73966 20.2873 4.77995 20.3452C4.82024 20.403 4.87474 20.4494 4.9382 20.48C4.9382 20.48 5.1982 20.48 5.2682 20.55L5.8582 20.83C5.92652 20.8633 5.98688 20.9109 6.03519 20.9695C6.0835 21.0282 6.11863 21.0966 6.1382 21.17C6.1566 21.3378 6.11785 21.5069 6.0282 21.65C5.89261 21.9171 5.69452 22.1475 5.45077 22.3216C5.20702 22.4957 4.92483 22.6084 4.6282 22.65C4.33172 22.6966 4.02857 22.6758 3.74121 22.5892C3.45385 22.5027 3.18965 22.3526 2.9682 22.15C2.72476 21.9534 2.53613 21.6973 2.42052 21.4066C2.30491 21.1158 2.26623 20.8001 2.3082 20.49C2.40306 19.796 2.69453 19.1437 3.1482 18.61C4.1482 17.42 5.6482 16.61 6.8882 17.15C6.9237 17.1698 6.96309 17.1817 7.00363 17.1847C7.04417 17.1878 7.08488 17.1819 7.12295 17.1677C7.16101 17.1534 7.19551 17.131 7.22405 17.102C7.25259 17.0731 7.27448 17.0383 7.2882 17C7.30696 16.9676 7.31876 16.9315 7.32284 16.8943C7.32693 16.857 7.3232 16.8193 7.31192 16.7836C7.30063 16.7478 7.28202 16.7148 7.25728 16.6867C7.23253 16.6585 7.2022 16.6358 7.1682 16.62C5.7182 15.83 3.7482 16.62 2.4882 18C1.86806 18.6459 1.45085 19.4595 1.2882 20.34C1.21651 20.8228 1.27092 21.316 1.44614 21.7716C1.62137 22.2271 1.91145 22.6297 2.2882 22.94C2.63286 23.2485 3.04416 23.473 3.48999 23.5962C3.93581 23.7194 4.40408 23.7378 4.8582 23.65C5.31912 23.5715 5.75328 23.3795 6.12161 23.0915C6.48993 22.8035 6.78085 22.4284 6.9682 22C7.13204 21.6576 7.17437 21.2697 7.0882 20.9C7.00389 20.6229 6.8363 20.3785 6.6082 20.2H8.0782C8.16572 20.1854 8.24386 20.1367 8.29544 20.0645C8.34701 19.9923 8.36779 19.9025 8.3532 19.815C8.33861 19.7275 8.28986 19.6493 8.21765 19.5978C8.14545 19.5462 8.05572 19.5254 7.9682 19.54Z" fill="#7A387B"/>
<path d="M11.2082 16C10.8869 15.9148 10.5475 15.9263 10.2327 16.0331C9.91788 16.1398 9.64152 16.337 9.4382 16.6C9.35694 16.712 9.30534 16.8427 9.2882 16.98C9.26311 17.2461 9.26311 17.5139 9.2882 17.78V20V23.05C9.3007 23.1164 9.33603 23.1764 9.38807 23.2196C9.44011 23.2628 9.50559 23.2864 9.5732 23.2864C9.64081 23.2864 9.7063 23.2628 9.75834 23.2196C9.81038 23.1764 9.8457 23.1164 9.8582 23.05L10.0682 20.05L10.2982 17.24C10.5282 16.99 10.9182 17.07 11.2982 17.18C11.7373 17.3142 12.1269 17.5751 12.4182 17.93C12.6933 18.3653 12.8483 18.8656 12.8676 19.3802C12.8869 19.8948 12.7698 20.4053 12.5282 20.86C12.3048 21.3587 11.9794 21.8049 11.5729 22.1701C11.1664 22.5352 10.6879 22.8111 10.1682 22.98C10.0847 22.9999 10.0124 23.0522 9.96743 23.1253C9.92242 23.1984 9.90831 23.2865 9.9282 23.37C9.94809 23.4535 10.0004 23.5258 10.0735 23.5708C10.1466 23.6158 10.2347 23.6299 10.3182 23.61C10.9554 23.4512 11.5519 23.1599 12.0688 22.7549C12.5857 22.35 13.0115 21.8406 13.3182 21.26C13.6674 20.6676 13.8515 19.9926 13.8515 19.305C13.8515 18.6174 13.6674 17.9423 13.3182 17.35C12.8123 16.6479 12.0577 16.1651 11.2082 16Z" fill="#7A387B"/>
<path d="M16.8182 16.09C16.3221 16.0555 15.8244 16.1271 15.3582 16.3C15.0677 16.4091 14.8286 16.6232 14.6882 16.9C14.5942 17.1034 14.5496 17.3261 14.5582 17.55C14.5582 17.92 14.6282 18.35 14.6182 18.61L14.5682 20.69L14.4882 23.69C14.4854 23.7271 14.4904 23.7644 14.5027 23.7995C14.515 23.8346 14.5345 23.8668 14.5598 23.894C14.5852 23.9212 14.6159 23.9429 14.65 23.9577C14.6842 23.9725 14.721 23.9801 14.7582 23.98C14.7963 23.9813 14.8343 23.9752 14.87 23.9618C14.9057 23.9485 14.9384 23.9282 14.9662 23.9022C14.9941 23.8762 15.0166 23.8449 15.0323 23.8103C15.0481 23.7756 15.0569 23.7381 15.0582 23.7L15.3882 20.7V20.63C15.553 20.6672 15.72 20.6939 15.8882 20.71C16.2065 20.7427 16.5281 20.719 16.8382 20.64C17.0878 20.5762 17.3319 20.4926 17.5682 20.39C17.8131 20.2819 18.0474 20.1514 18.2682 20C18.6793 19.7515 18.9836 19.3593 19.1222 18.8993C19.2607 18.4393 19.2237 17.9443 19.0182 17.51C18.8133 17.0972 18.5007 16.7474 18.1135 16.4975C17.7263 16.2475 17.2788 16.1068 16.8182 16.09ZM17.8182 19.34C17.6508 19.475 17.4698 19.5923 17.2782 19.69C17.0844 19.8002 16.8801 19.8907 16.6682 19.96C16.4452 20.0301 16.2117 20.0606 15.9782 20.05C15.8072 20.0455 15.6368 20.0288 15.4682 20L15.6082 18.67V17.73C15.5842 17.6112 15.5842 17.4888 15.6082 17.37C15.6682 17.26 15.8282 17.25 15.9782 17.22C16.2271 17.1874 16.4793 17.1874 16.7282 17.22C17.0028 17.2208 17.2721 17.2956 17.5079 17.4363C17.7436 17.5771 17.9372 17.7787 18.0682 18.02C18.1928 18.2376 18.2311 18.494 18.1755 18.7385C18.1199 18.983 17.9746 19.1977 17.7682 19.34H17.8182Z" fill="#7A387B"/>
<path d="M24.5582 17.49C24.3502 17.1147 24.0501 16.7985 23.6863 16.5711C23.3224 16.3437 22.9067 16.2125 22.4782 16.19C22.0591 16.1173 21.6283 16.1536 21.2272 16.2955C20.8262 16.4373 20.4684 16.6799 20.1882 17C20.049 17.2258 19.973 17.4848 19.9682 17.75C19.9682 18.19 20.0382 18.75 20.0382 18.98C20.0382 20.03 19.9782 21.07 19.9782 22.12V23.49C19.9833 23.5652 20.0175 23.6354 20.0735 23.6858C20.1295 23.7362 20.2029 23.7628 20.2782 23.76C20.3159 23.7588 20.3529 23.7499 20.3871 23.734C20.4212 23.7181 20.4518 23.6955 20.477 23.6675C20.5023 23.6395 20.5216 23.6066 20.5338 23.571C20.546 23.5353 20.5509 23.4976 20.5482 23.46C20.5482 23.03 20.5482 22.58 20.5982 22.14C20.6482 21.7 20.6882 21.19 20.7382 20.72C20.9282 20.92 21.2082 21.17 21.2582 21.22C21.5077 21.468 21.7447 21.7283 21.9682 22C22.3082 22.41 22.6382 22.83 22.9682 23.26C23.0245 23.3186 23.1005 23.3544 23.1815 23.3605C23.2626 23.3666 23.343 23.3426 23.4074 23.293C23.4718 23.2434 23.5157 23.1719 23.5306 23.092C23.5455 23.0121 23.5304 22.9295 23.4882 22.86C23.1582 22.42 22.8582 21.97 22.4882 21.54C22.1182 21.11 22.0282 20.95 21.7782 20.67L21.6982 20.55L22.2282 20.48C22.9646 20.2569 23.6232 19.8306 24.1282 19.25C24.3595 19.0277 24.5228 18.7442 24.599 18.4325C24.6751 18.1208 24.661 17.7939 24.5582 17.49ZM23.2282 18.81C22.9034 19.1588 22.4983 19.4231 22.0482 19.58L21.0482 19.8L20.9082 19.85C20.9082 19.56 20.9682 19.29 20.9882 19.01C21.0082 18.73 20.9882 18.36 20.9882 18.01C20.9791 17.8859 21.0033 17.7617 21.0582 17.65C21.2367 17.4811 21.4548 17.3596 21.6923 17.2968C21.9299 17.2339 22.1795 17.2315 22.4182 17.29C22.6577 17.2908 22.8934 17.3505 23.1044 17.4638C23.3154 17.5772 23.4953 17.7407 23.6282 17.94C23.7082 18.23 23.4882 18.54 23.2282 18.81Z" fill="#7A387B"/>
</g>
<defs>
<clipPath id="clip0_3013_15411">
<rect width="24" height="24" fill="white" transform="translate(0.968201)"/>
</clipPath>
</defs>
</svg>
