<svg width="25" height="24" viewBox="0 0 25 24" fill="none" xmlns="http://www.w3.org/2000/svg">
<g clip-path="url(#clip0_3013_15398)">
<path fill-rule="evenodd" clip-rule="evenodd" d="M10.1482 21.63C9.93221 21.4837 9.73709 21.3088 9.5682 21.11L9.3882 21L10.2282 20.1L10.9882 19.26C11.0238 19.2377 11.0545 19.2084 11.0785 19.1739C11.1024 19.1394 11.1191 19.1004 11.1275 19.0593C11.1359 19.0181 11.1359 18.9757 11.1274 18.9346C11.119 18.8934 11.1022 18.8545 11.0782 18.82C11.055 18.7841 11.0248 18.7531 10.9894 18.7291C10.954 18.705 10.9142 18.6883 10.8722 18.6799C10.8303 18.6715 10.787 18.6716 10.7451 18.6802C10.7032 18.6888 10.6635 18.7058 10.6282 18.73L9.5782 19.42C9.3482 19.59 8.9282 19.79 8.5782 20.03C8.39463 20.1752 8.24168 20.3553 8.1282 20.56C8.07772 20.6645 8.05151 20.779 8.05151 20.895C8.05151 21.011 8.07772 21.1255 8.1282 21.23C8.28007 21.5293 8.48702 21.7973 8.7382 22.02C8.95106 22.1841 9.17871 22.328 9.4182 22.45C9.9082 22.68 10.4182 22.83 10.9182 23.06C11.002 23.1078 11.1012 23.121 11.1946 23.0967C11.2881 23.0724 11.3683 23.0126 11.4182 22.93C11.4447 22.8892 11.4623 22.8434 11.4701 22.7954C11.4779 22.7474 11.4756 22.6984 11.4634 22.6513C11.4511 22.6043 11.4292 22.5603 11.3991 22.5222C11.3689 22.4841 11.3312 22.4527 11.2882 22.43C10.9682 22.11 10.5282 21.89 10.1482 21.63Z" fill="#7A387B"/>
<path fill-rule="evenodd" clip-rule="evenodd" d="M14.1182 17.4C14.0385 17.3736 13.9518 17.3785 13.8756 17.4138C13.7994 17.4491 13.7396 17.5121 13.7082 17.59C13.3782 18.23 13.0082 18.83 12.7082 19.48C12.5738 19.7536 12.4536 20.034 12.3482 20.32C12.2482 20.61 12.1482 20.9 12.0682 21.19C11.8682 21.89 11.7282 22.59 11.5882 23.3C11.5743 23.3453 11.5695 23.3929 11.5741 23.44C11.5787 23.4872 11.5925 23.533 11.6148 23.5748C11.6371 23.6166 11.6674 23.6536 11.704 23.6837C11.7407 23.7137 11.7828 23.7363 11.8282 23.75C11.921 23.7783 12.0213 23.769 12.1073 23.7241C12.1934 23.6792 12.2583 23.6023 12.2882 23.51C12.5682 22.84 12.8982 22.21 13.1882 21.51C13.3782 21.06 13.5582 20.62 13.7082 20.16C13.9682 19.38 14.1182 18.58 14.3082 17.79C14.3313 17.713 14.3246 17.6301 14.2894 17.5579C14.2542 17.4856 14.1931 17.4292 14.1182 17.4Z" fill="#7A387B"/>
<path fill-rule="evenodd" clip-rule="evenodd" d="M17.0682 19.54C16.7466 19.342 16.4126 19.165 16.0682 19.01C15.7444 18.8568 15.4102 18.7264 15.0682 18.62C15.0296 18.6016 14.9876 18.5912 14.9449 18.5894C14.9022 18.5875 14.8595 18.5943 14.8194 18.6092C14.7793 18.6241 14.7426 18.6469 14.7115 18.6762C14.6804 18.7056 14.6555 18.7408 14.6382 18.78C14.62 18.8179 14.6098 18.8591 14.608 18.9011C14.6063 18.9431 14.6131 18.985 14.6281 19.0243C14.643 19.0636 14.6658 19.0994 14.6951 19.1296C14.7243 19.1598 14.7594 19.1838 14.7982 19.2C15.0743 19.3753 15.3382 19.5691 15.5882 19.78C15.8389 19.9844 16.076 20.2049 16.2982 20.44L16.4182 20.5C16.3053 20.6798 16.1782 20.8503 16.0382 21.01L15.5482 21.57L14.6882 22.44C14.6062 22.4932 14.5486 22.5767 14.528 22.6723C14.5074 22.7679 14.5254 22.8677 14.5782 22.95C14.6346 23.0283 14.7187 23.0822 14.8134 23.1008C14.9081 23.1194 15.0064 23.1012 15.0882 23.05L16.2082 22.31L16.8682 21.81C17.0849 21.6087 17.2824 21.3878 17.4582 21.15C17.6042 20.9386 17.6969 20.695 17.7282 20.44C17.7436 20.3468 17.7371 20.2514 17.7094 20.1612C17.6816 20.0709 17.6333 19.9884 17.5682 19.92C17.4144 19.7772 17.247 19.6499 17.0682 19.54Z" fill="#7A387B"/>
<path fill-rule="evenodd" clip-rule="evenodd" d="M15.1582 8.44C15.1729 8.34515 15.1653 8.24819 15.1362 8.15675C15.107 8.06531 15.057 7.98189 14.9901 7.91306C14.9232 7.84423 14.8413 7.79187 14.7507 7.7601C14.6601 7.72834 14.5634 7.71803 14.4682 7.73C14.3033 7.7501 14.1515 7.82985 14.0414 7.9542C13.9313 8.07855 13.8705 8.2389 13.8705 8.405C13.8705 8.57109 13.9313 8.73144 14.0414 8.85579C14.1515 8.98014 14.3033 9.05989 14.4682 9.08C14.5573 9.09194 14.648 9.08403 14.7337 9.05683C14.8195 9.02962 14.8981 8.9838 14.9641 8.92264C15.03 8.86148 15.0816 8.78649 15.1152 8.70305C15.1487 8.61961 15.1634 8.52978 15.1582 8.44Z" fill="#7A387B"/>
<path fill-rule="evenodd" clip-rule="evenodd" d="M11.5082 8.54C11.5229 8.44515 11.5153 8.34819 11.4862 8.25675C11.457 8.16531 11.407 8.08189 11.3401 8.01307C11.2732 7.94424 11.1913 7.89188 11.1007 7.86011C11.0101 7.82834 10.9134 7.81804 10.8182 7.83C10.6533 7.85011 10.5015 7.92986 10.3914 8.05421C10.2813 8.17856 10.2205 8.33891 10.2205 8.505C10.2205 8.6711 10.2813 8.83144 10.3914 8.9558C10.5015 9.08015 10.6533 9.1599 10.8182 9.18C10.9067 9.18849 10.996 9.17815 11.0802 9.14967C11.1644 9.1212 11.2416 9.07522 11.3068 9.01478C11.3719 8.95433 11.4236 8.88078 11.4583 8.79895C11.493 8.71712 11.51 8.62887 11.5082 8.54Z" fill="#7A387B"/>
<path fill-rule="evenodd" clip-rule="evenodd" d="M11.5282 11.74C11.7426 11.8655 11.9812 11.9439 12.2282 11.97C12.4659 11.9982 12.7068 11.9812 12.9382 11.92C13.4642 11.7881 13.9296 11.4813 14.2582 11.05C14.3266 10.9807 14.365 10.8873 14.365 10.79C14.365 10.6926 14.3266 10.5992 14.2582 10.53C14.1889 10.4616 14.0955 10.4232 13.9982 10.4232C13.9009 10.4232 13.8075 10.4616 13.7382 10.53C13.5377 10.6556 13.3137 10.739 13.0798 10.7751C12.846 10.8113 12.6073 10.7993 12.3782 10.74C12.2532 10.7263 12.1295 10.7029 12.0082 10.67C11.6847 10.6117 11.3953 10.4331 11.1982 10.17C11.1631 10.091 11.0984 10.0289 11.018 9.99708C10.9375 9.96529 10.8479 9.96633 10.7682 9.99998C10.7285 10.0152 10.6924 10.0384 10.6621 10.0682C10.6318 10.098 10.6079 10.1337 10.592 10.1731C10.576 10.2124 10.5684 10.2547 10.5694 10.2972C10.5705 10.3396 10.5803 10.3814 10.5982 10.42C10.6474 10.6946 10.7562 10.955 10.9169 11.1831C11.0775 11.4111 11.2862 11.6012 11.5282 11.74Z" fill="#7A387B"/>
<path fill-rule="evenodd" clip-rule="evenodd" d="M5.6482 18.63C5.58805 19.0238 5.55796 19.4216 5.5582 19.82C5.53834 20.2164 5.53834 20.6136 5.5582 21.01C5.64268 21.9331 5.81002 22.8468 6.0582 23.74C6.06663 23.7867 6.08419 23.8312 6.10989 23.8711C6.13558 23.9109 6.1689 23.9453 6.20793 23.9723C6.24696 23.9992 6.29092 24.0182 6.33731 24.0281C6.38369 24.038 6.43157 24.0386 6.4782 24.03C6.5255 24.0229 6.57083 24.0061 6.6114 23.9808C6.65198 23.9555 6.68693 23.9221 6.71411 23.8827C6.74128 23.8434 6.7601 23.7989 6.76941 23.752C6.77871 23.7051 6.7783 23.6567 6.7682 23.61C6.7682 23.11 6.6982 22.61 6.6882 22.1C6.6782 21.59 6.6882 21.1 6.6882 20.6V19.1V17.32C6.6882 16.54 5.8482 17.25 5.6882 17.82C5.7282 18.15 5.6982 18.3 5.6482 18.63Z" fill="#998696"/>
<path fill-rule="evenodd" clip-rule="evenodd" d="M16.1082 14.46C16.019 14.4217 15.9185 14.4191 15.8274 14.4525C15.7363 14.486 15.6614 14.5531 15.6182 14.64C15.3811 15.0058 15.059 15.3087 14.6793 15.5229C14.2997 15.7371 13.8739 15.8562 13.4382 15.87C12.9247 15.9327 12.4038 15.8884 11.9082 15.74C11.5848 15.6551 11.282 15.5054 11.0182 15.3C10.8321 15.144 10.6819 14.9496 10.5782 14.73C10.5782 14.64 10.4382 14.56 10.1682 14.73C10.1682 14.73 9.8282 15.09 9.8782 15.22C9.96398 15.5189 10.1142 15.7953 10.3182 16.03C10.7217 16.5033 11.2528 16.8504 11.8482 17.03C12.4217 17.1883 13.024 17.2122 13.6082 17.1C14.2 17.0049 14.7577 16.7602 15.2284 16.3892C15.6992 16.0182 16.0674 15.5331 16.2982 14.98C16.3248 14.9343 16.341 14.8833 16.3456 14.8307C16.3503 14.7781 16.3433 14.7251 16.3252 14.6754C16.307 14.6258 16.2782 14.5808 16.2407 14.5435C16.2032 14.5063 16.158 14.4778 16.1082 14.46Z" fill="#998696"/>
<path fill-rule="evenodd" clip-rule="evenodd" d="M19.0682 18.74C19.0682 19.34 19.2082 19.94 19.2882 20.54C19.4182 21.43 19.5782 22.31 19.6882 23.22C19.6882 23.3155 19.7261 23.4071 19.7936 23.4746C19.8612 23.5421 19.9527 23.58 20.0482 23.58C20.1437 23.58 20.2352 23.5421 20.3028 23.4746C20.3703 23.4071 20.4082 23.3155 20.4082 23.22C20.4082 22.31 20.4882 21.42 20.4082 20.52C20.4082 20.13 20.4082 19.75 20.3182 19.37C20.2827 18.9865 20.2225 18.6058 20.1382 18.23C20.0958 17.9803 20.0391 17.7332 19.9682 17.49C19.8682 17.09 19.1082 16.37 18.9082 16.9C18.9682 17.69 18.9682 17.94 19.0682 18.74Z" fill="#998696"/>
<path fill-rule="evenodd" clip-rule="evenodd" d="M24.1582 21.7C24.0045 21.0766 23.797 20.4676 23.5382 19.88C23.0932 18.9134 22.5288 18.0063 21.8582 17.18C21.177 16.3576 20.394 15.6251 19.5282 15C18.3478 14.1642 17.0001 13.5945 15.5782 13.33C15.9219 13.0387 16.2246 12.7023 16.4782 12.33C17.2547 11.143 17.6522 9.74803 17.6182 8.32999C17.6182 8.23186 17.5792 8.13775 17.5098 8.06836C17.4404 7.99897 17.3463 7.95999 17.2482 7.95999C17.1501 7.95999 17.056 7.99897 16.9866 8.06836C16.9172 8.13775 16.8782 8.23186 16.8782 8.32999C16.8251 9.3706 16.5122 10.3813 15.9682 11.27C15.5126 12.0997 14.7525 12.72 13.8482 13C13.0574 13.2062 12.222 13.1608 11.4582 12.87C10.9344 12.6911 10.4468 12.4202 10.0182 12.07C9.47144 11.6139 9.04442 11.0311 8.77427 10.3723C8.50413 9.71348 8.39906 8.99865 8.4682 8.28999C8.47527 8.24848 8.47381 8.20596 8.46391 8.16503C8.454 8.12411 8.43587 8.08563 8.4106 8.05194C8.38534 8.01825 8.35347 7.99007 8.31696 7.9691C8.28044 7.94813 8.24003 7.93482 8.1982 7.92999C8.11209 7.91857 8.02495 7.94156 7.95568 7.99398C7.88641 8.0464 7.84061 8.12401 7.8282 8.20999C7.66046 9.05065 7.70523 9.91989 7.95843 10.7389C8.21164 11.5579 8.66527 12.3007 9.2782 12.9C9.48837 13.0998 9.71594 13.2806 9.9582 13.44C8.6867 13.7303 7.48198 14.2597 6.4082 15C5.54357 15.6189 4.76069 16.3446 4.0782 17.16C3.40763 17.9863 2.84324 18.8934 2.3982 19.86C2.13938 20.4476 1.93193 21.0566 1.7782 21.68C1.60911 22.312 1.5416 22.9668 1.5782 23.62C1.56905 23.6676 1.57084 23.7166 1.58342 23.7635C1.59601 23.8103 1.61906 23.8536 1.65084 23.8902C1.68262 23.9268 1.7223 23.9557 1.76688 23.9747C1.81147 23.9937 1.85979 24.0024 1.9082 24C1.95023 23.9987 1.99159 23.9891 2.02992 23.9718C2.06825 23.9546 2.1028 23.9299 2.13159 23.8992C2.16038 23.8686 2.18285 23.8326 2.19771 23.7932C2.21257 23.7539 2.21953 23.712 2.2182 23.67C2.23943 23.092 2.35426 22.5212 2.5582 21.98C2.75615 21.4254 3.00382 20.8899 3.2982 20.38C3.7702 19.5553 4.33013 18.7841 4.9682 18.08C5.2582 17.73 6.3982 16.74 6.9182 16.21C7.29032 15.8905 7.681 15.5933 8.0882 15.32C9.09804 14.8239 10.1444 14.406 11.2182 14.07C12.1823 14.4164 13.2295 14.4583 14.2182 14.19C14.3182 14.19 14.4082 14.07 14.5082 14.03C14.9915 14.1177 15.469 14.2346 15.9382 14.38C16.6385 14.6118 17.3096 14.9239 17.9382 15.31C19.0697 16.087 20.0892 17.0157 20.9682 18.07C21.5771 18.7761 22.1257 19.5321 22.6082 20.33C22.9026 20.8399 23.1503 21.3754 23.3482 21.93C23.5521 22.4712 23.667 23.042 23.6882 23.62C23.6869 23.662 23.6938 23.7039 23.7087 23.7432C23.7236 23.7826 23.746 23.8186 23.7748 23.8492C23.8036 23.8799 23.8381 23.9046 23.8765 23.9218C23.9148 23.9391 23.9562 23.9487 23.9982 23.95C24.0402 23.9513 24.0821 23.9444 24.1214 23.9295C24.1608 23.9146 24.1968 23.8922 24.2274 23.8634C24.2581 23.8346 24.2828 23.8 24.3001 23.7617C24.3173 23.7234 24.3269 23.682 24.3282 23.64C24.3746 22.9884 24.3172 22.3336 24.1582 21.7Z" fill="#7A387B"/>
<path fill-rule="evenodd" clip-rule="evenodd" d="M5.6682 8.18999C6.16824 8.03342 6.67982 7.91639 7.1982 7.83999C7.9882 7.70999 8.7982 7.63999 9.5882 7.55999C10.5882 7.43999 11.4682 7.37999 12.3882 7.31999C13.3082 7.25999 14.2582 7.19999 15.1882 7.20999C16.4542 7.21838 17.7178 7.322 18.9682 7.51999C19.0603 7.53273 19.1537 7.51036 19.2301 7.45732C19.3064 7.40429 19.3599 7.32447 19.3801 7.23375C19.4003 7.14302 19.3855 7.04804 19.3389 6.96767C19.2922 6.8873 19.217 6.82744 19.1282 6.79999C18.9082 6.73999 18.6982 6.71999 18.4782 6.66999C18.5714 6.34484 18.6185 6.00823 18.6182 5.66999C18.5749 5.08462 18.4469 4.50862 18.2382 3.95999C18.0706 3.52647 17.8595 3.11102 17.6082 2.71999C17.3468 2.32383 17.0303 1.96692 16.6682 1.65999C16.0418 1.13951 15.2773 0.812858 14.4682 0.719992C14.1411 0.401311 13.7386 0.170791 13.2982 0.0499917C12.5484 -0.10962 11.7679 -0.0399328 11.0582 0.249992C10.6912 0.392065 10.3525 0.598652 10.0582 0.859992C10.0026 0.925812 9.95243 0.996043 9.9082 1.06999C9.11558 1.34061 8.39904 1.79659 7.8182 2.39999C7.52494 2.701 7.2697 3.03684 7.0582 3.39999C6.84118 3.77481 6.66995 4.17434 6.5482 4.58999C6.34356 5.4412 6.34356 6.32879 6.5482 7.17999C6.18459 7.28226 5.82731 7.4058 5.4782 7.54999C5.43215 7.56197 5.38924 7.58375 5.3524 7.61386C5.31557 7.64397 5.28568 7.68169 5.26478 7.72443C5.24388 7.76717 5.23248 7.81393 5.23134 7.86149C5.23021 7.90905 5.23937 7.9563 5.2582 7.99999C5.27153 8.04018 5.29294 8.07721 5.32113 8.1088C5.34932 8.1404 5.38368 8.16588 5.4221 8.18368C5.46051 8.20148 5.50217 8.21123 5.5445 8.21231C5.58682 8.2134 5.62892 8.2058 5.6682 8.18999ZM16.2282 2.93999C16.58 3.38759 16.8849 3.87012 17.1382 4.37999C17.3386 4.73248 17.5028 5.10438 17.6282 5.48999C17.7185 5.81523 17.7423 6.15534 17.6982 6.48999C16.732 6.28878 15.753 6.15512 14.7682 6.08999C14.8582 5.76999 14.9682 5.43999 15.0282 5.08999C15.1299 4.60043 15.21 4.10661 15.2682 3.60999C15.3033 3.1974 15.3033 2.78258 15.2682 2.36999C15.2431 2.16457 15.1927 1.96304 15.1182 1.76999C15.2382 1.84999 15.3582 1.92999 15.4682 2.01999C15.7495 2.30244 16.0039 2.61043 16.2282 2.93999ZM11.5182 1.38999C11.9776 1.20383 12.4804 1.15182 12.9682 1.23999C13.197 1.28304 13.413 1.37739 13.6001 1.51596C13.7871 1.65452 13.9404 1.83369 14.0482 2.03999C14.1598 2.25452 14.2278 2.48904 14.2482 2.72999C14.2732 3.02279 14.2732 3.31719 14.2482 3.60999C14.2482 4.12999 14.1982 4.60999 14.1482 5.02999C14.0978 5.36715 14.0277 5.70106 13.9382 6.02999C13.2154 5.99014 12.491 5.99014 11.7682 6.02999C11.3982 6.02999 11.0182 6.13999 10.6482 6.19999C10.5582 5.81999 10.4782 5.44999 10.4282 5.07999C10.3812 4.59815 10.3612 4.11407 10.3682 3.62999C10.345 3.29706 10.345 2.96292 10.3682 2.62999C10.3959 2.44849 10.4533 2.2728 10.5382 2.10999C10.6196 1.95485 10.7403 1.82382 10.8882 1.72999C11.0832 1.5909 11.2949 1.47668 11.5182 1.38999ZM8.1282 4.04999C8.29432 3.73331 8.48843 3.43211 8.7082 3.14999C8.89352 2.90475 9.10107 2.67712 9.3282 2.46999C9.32335 2.87184 9.35346 3.27336 9.4182 3.66999C9.4831 4.2119 9.57994 4.7495 9.7082 5.27999C9.79635 5.64522 9.90316 6.00569 10.0282 6.35999L9.4282 6.44999C8.6882 6.62999 7.9682 6.78999 7.2382 6.99999C7.26253 6.31319 7.40811 5.6361 7.6682 4.99999C7.80565 4.67588 7.95917 4.35882 8.1282 4.04999Z" fill="#998696"/>
</g>
<defs>
<clipPath id="clip0_3013_15398">
<rect width="24" height="24" fill="white" transform="translate(0.968201)"/>
</clipPath>
</defs>
</svg>
