<svg width="25" height="24" viewBox="0 0 25 24" fill="none" xmlns="http://www.w3.org/2000/svg">
<g clip-path="url(#clip0_3013_15340)">
<path fill-rule="evenodd" clip-rule="evenodd" d="M24.9682 11C24.9682 9.18001 25.0482 3.23001 24.8082 2.18001C24.6282 1.38001 23.8582 1.84001 24.1282 2.27001C24.2231 3.09307 24.2598 3.92178 24.2382 4.75001C24.2382 6.02001 24.1082 15.27 24.0482 16.26C24.0483 16.8512 23.9538 17.4387 23.7682 18C23.6482 17.92 23.1882 18.11 22.7082 18.14C20.1182 18.28 3.8282 18.51 2.8682 18.19L2.3382 18C1.7382 17 2.5582 4.28001 2.7382 3.16001C2.8182 2.71001 3.0082 2.59001 3.7382 2.33001C4.13828 2.20169 4.55042 2.11457 4.9682 2.07001C11.9682 1.72001 17.7882 1.26001 21.9682 1.78001C22.3315 1.79202 22.6901 1.86644 23.0282 2.00001C23.0571 2.02693 23.091 2.0479 23.128 2.06171C23.165 2.07553 23.2043 2.08192 23.2438 2.08053C23.2833 2.07914 23.3221 2.06998 23.358 2.05359C23.3939 2.03721 23.4263 2.0139 23.4532 1.98501C23.4801 1.95612 23.5011 1.92221 23.5149 1.88521C23.5287 1.84822 23.5351 1.80887 23.5337 1.7694C23.5323 1.72994 23.5232 1.69113 23.5068 1.65521C23.4904 1.61928 23.4671 1.58693 23.4382 1.56001C23.1037 1.35793 22.7275 1.23481 22.3382 1.20001C18.3382 0.520009 13.8382 0.900009 4.8482 1.10001C3.7742 1.15357 2.75387 1.58579 1.9682 2.32001C1.74159 2.81836 1.6354 3.36303 1.6582 3.91001C1.3382 7.36001 0.748201 15 1.0582 17.57C1.2282 18.93 1.6082 19 2.4982 19.3C3.6382 19.68 23.6982 19.47 24.3382 18.81C25.1682 18 24.9682 14 24.9682 11Z" fill="#7A387B"/>
<path fill-rule="evenodd" clip-rule="evenodd" d="M8.1182 20.72C7.88523 20.7697 7.67321 20.8899 7.51096 21.0644C7.34871 21.2388 7.24409 21.4589 7.21132 21.6949C7.17855 21.9308 7.21921 22.1711 7.32779 22.3832C7.43637 22.5952 7.6076 22.7687 7.8182 22.88C7.98738 23.0317 8.19616 23.1323 8.42026 23.17C8.64435 23.2077 8.87455 23.181 9.08407 23.093C9.29358 23.005 9.47381 22.8593 9.60377 22.6729C9.73373 22.4865 9.8081 22.267 9.8182 22.04C9.9682 20.9 8.7882 20.62 8.1182 20.72Z" fill="#998696"/>
<path fill-rule="evenodd" clip-rule="evenodd" d="M16.9682 20.73C16.7464 20.776 16.5442 20.8893 16.3892 21.0545C16.2343 21.2197 16.1341 21.4288 16.1023 21.653C16.0706 21.8773 16.1089 22.1059 16.212 22.3076C16.315 22.5093 16.4779 22.6743 16.6782 22.78C16.8388 22.9273 17.0382 23.0255 17.2528 23.063C17.4675 23.1005 17.6883 23.0757 17.8893 22.9915C18.0903 22.9073 18.2629 22.7673 18.3868 22.588C18.5107 22.4088 18.5806 22.1978 18.5882 21.98C18.6982 20.89 17.6282 20.63 16.9682 20.73Z" fill="#998696"/>
<path fill-rule="evenodd" clip-rule="evenodd" d="M11.9682 21.24C11.8697 21.3688 11.8017 21.5183 11.7695 21.6771C11.7372 21.836 11.7414 22.0001 11.7819 22.1571C11.8223 22.3141 11.8979 22.4599 12.003 22.5834C12.108 22.7069 12.2397 22.8049 12.3882 22.87C13.6882 23.44 14.7582 21.97 14.1482 21.23C14.0052 21.0862 13.835 20.9722 13.6475 20.8947C13.46 20.8172 13.259 20.7778 13.0561 20.7787C12.8532 20.7796 12.6526 20.8209 12.4658 20.9001C12.2791 20.9793 12.1099 21.0948 11.9682 21.24Z" fill="#998696"/>
<path fill-rule="evenodd" clip-rule="evenodd" d="M8.2282 7.11002C8.7882 6.65002 8.4082 6.42002 8.0282 6.48002C7.8482 6.43002 7.0282 7.18002 6.6982 7.48002C5.9282 8.14002 4.3382 9.48002 4.3882 10.48C4.4382 11.48 6.3882 12.58 7.7382 13.48C7.82174 13.5463 7.9282 13.5767 8.03416 13.5645C8.14012 13.5523 8.2369 13.4986 8.3032 13.415C8.36951 13.3315 8.39991 13.225 8.38772 13.1191C8.37553 13.0131 8.32174 12.9163 8.2382 12.85C7.43531 12.1517 6.67714 11.4036 5.9682 10.61C5.5182 10.08 5.6482 10.82 7.4082 8.12002C7.4382 8.06002 8.1882 7.17002 8.2282 7.11002Z" fill="#998696"/>
<path fill-rule="evenodd" clip-rule="evenodd" d="M17.3882 13.35C17.4205 13.3927 17.4611 13.4285 17.5075 13.4552C17.5539 13.482 17.6052 13.4991 17.6584 13.5056C17.7115 13.5121 17.7655 13.5079 17.817 13.4932C17.8685 13.4785 17.9165 13.4536 17.9582 13.42C20.2982 11.85 22.2982 11.04 20.7282 9.1C20.4282 8.74 17.9682 6.39 17.6682 6.48C16.5982 6.3 17.6182 7.28 18.3082 8.12C20.0682 10.82 20.1882 10.12 19.7482 10.61C18.4682 12.14 16.9682 12.8 17.3882 13.35Z" fill="#998696"/>
</g>
<defs>
<clipPath id="clip0_3013_15340">
<rect width="24" height="24" fill="white" transform="translate(0.968201)"/>
</clipPath>
</defs>
</svg>
