<svg width="25" height="24" viewBox="0 0 25 24" fill="none" xmlns="http://www.w3.org/2000/svg">
<g clip-path="url(#clip0_3013_15324)">
<path fill-rule="evenodd" clip-rule="evenodd" d="M22.7783 17.21C22.8523 17.1699 22.9094 17.1044 22.9391 17.0256C22.9688 16.9468 22.9691 16.86 22.9399 16.781C22.9108 16.702 22.8541 16.6362 22.7803 16.5956C22.7065 16.555 22.6206 16.5423 22.5383 16.56C22.1783 16.69 5.62826 16.56 4.35826 16.3C4.06716 13.9117 3.95351 11.5051 4.01826 9.09998C4.01826 8.47998 4.14826 7.72998 4.14826 7.72998C5.24398 7.46504 6.37661 7.38727 7.49826 7.49998C24.7483 8.00998 22.4983 7.59998 22.6783 7.61998C22.9908 8.55068 23.1987 9.51327 23.2983 10.49C24.0883 16.12 23.4083 15.08 23.5883 15.49C23.6027 15.5281 23.6245 15.563 23.6524 15.5926C23.6803 15.6223 23.7138 15.6462 23.751 15.6629C23.7881 15.6796 23.8282 15.6888 23.8689 15.69C23.9096 15.6913 23.9502 15.6844 23.9883 15.67C24.2483 15.57 24.2683 15.21 24.2883 14.91C24.3683 13.47 23.9983 8.57998 23.4483 7.27998C23.1283 6.50998 22.5583 6.76998 21.0683 6.70998C16.6483 6.49998 7.71826 6.19998 5.06826 6.31998C3.76826 6.31998 3.06826 6.48998 2.87826 7.83998C2.71661 10.7215 2.83718 13.6119 3.23826 16.47C3.25637 16.6218 3.30905 16.7675 3.39227 16.8958C3.47548 17.024 3.587 17.1315 3.71826 17.21C4.34803 17.3519 4.99289 17.4157 5.63826 17.4C6.25826 17.47 22.1483 17.45 22.7783 17.21Z" fill="#7A387B"/>
<path fill-rule="evenodd" clip-rule="evenodd" d="M16.4183 4.77998C15.7712 3.97516 15.0441 3.23805 14.2483 2.57998C12.7083 1.45998 12.0783 2.83998 10.7183 4.65998C10.6564 4.72657 10.622 4.8141 10.622 4.90498C10.622 4.99587 10.6564 5.08339 10.7183 5.14998C11.1683 5.54998 11.7183 4.40998 13.0083 3.46998C13.4083 3.17998 12.8283 3.24998 15.0083 4.46998C15.2383 4.61998 17.0383 6.05998 16.4183 4.77998Z" fill="#998696"/>
<path fill-rule="evenodd" clip-rule="evenodd" d="M15.6383 19.89C15.9169 19.6066 16.1774 19.306 16.4183 18.99C17.0383 17.71 15.2383 19.15 15.0883 19.26C12.8583 20.52 13.4383 20.59 13.0883 20.26C11.7083 19.26 11.2683 18.17 10.7983 18.58C10.7357 18.6482 10.701 18.7374 10.701 18.83C10.701 18.9225 10.7357 19.0117 10.7983 19.08C12.7783 21.87 12.9683 22.65 15.6383 19.89Z" fill="#998696"/>
<path fill-rule="evenodd" clip-rule="evenodd" d="M2.34826 3.82999C2.34826 3.26999 2.24826 2.20999 2.75826 1.82999C3.56826 1.29999 5.56826 1.42999 6.63826 1.33999C10.0983 1.04999 19.2583 1.09999 19.5383 1.11999C24.8283 1.47999 22.6483 2.93999 23.2883 3.38999C23.3199 3.41448 23.3562 3.43217 23.395 3.44195C23.4337 3.45173 23.4741 3.45338 23.5136 3.44681C23.553 3.44024 23.5907 3.42558 23.6242 3.40375C23.6577 3.38193 23.6863 3.35341 23.7083 3.31999C23.8416 3.09048 23.8944 2.82296 23.8583 2.55999C23.9683 -1.09673e-05 17.7583 0.119989 15.1683 -1.10827e-05C12.2861 -0.101126 9.40041 0.0259366 6.53826 0.379989C5.35826 0.539989 3.30826 0.469989 2.29826 1.20999C1.47826 1.80999 1.64826 2.86999 1.64826 3.80999C1.64695 3.85595 1.6547 3.90172 1.67108 3.94469C1.68746 3.98766 1.71213 4.02698 1.74371 4.06041C1.80747 4.12792 1.89544 4.16734 1.98826 4.16999C2.08109 4.17264 2.17117 4.13831 2.23868 4.07455C2.30619 4.01079 2.34561 3.92281 2.34826 3.82999Z" fill="#998696"/>
<path fill-rule="evenodd" clip-rule="evenodd" d="M15.3183 24C17.9383 23.9 24.1583 24.07 24.0183 21.42C24.0544 21.157 24.0016 20.8895 23.8683 20.66C23.8469 20.6219 23.8177 20.5889 23.7827 20.5629C23.7476 20.5369 23.7075 20.5186 23.6649 20.5092C23.6223 20.4998 23.5782 20.4994 23.5354 20.5083C23.4927 20.5171 23.4523 20.5348 23.4169 20.5603C23.3815 20.5858 23.3519 20.6185 23.3299 20.6562C23.308 20.6939 23.2943 20.7359 23.2897 20.7793C23.2852 20.8227 23.2898 20.8665 23.3033 20.908C23.3168 20.9495 23.339 20.9876 23.3683 21.02C23.3683 21.56 23.4883 22.02 22.3683 22.44C20.5783 23.1 16.8583 22.86 15.2783 22.84C12.9083 22.84 9.08826 22.84 6.76826 22.64C5.69826 22.55 3.68826 22.64 2.88826 22.15C2.08826 21.66 2.88826 19.84 2.11826 19.85C2.0723 19.8513 2.02703 19.8616 1.98506 19.8804C1.94309 19.8992 1.90524 19.9261 1.87366 19.9595C1.84209 19.993 1.81741 20.0323 1.80104 20.0753C1.78467 20.1182 1.77693 20.164 1.77826 20.21C1.77826 21.83 1.54826 22.87 3.77826 23.32C4.77826 23.53 5.92826 23.54 6.69826 23.64C9.55744 23.9892 12.4399 24.1096 15.3183 24Z" fill="#998696"/>
</g>
<defs>
<clipPath id="clip0_3013_15324">
<rect width="24" height="24" fill="white" transform="translate(0.968262)"/>
</clipPath>
</defs>
</svg>
