<svg width="25" height="24" viewBox="0 0 25 24" fill="none" xmlns="http://www.w3.org/2000/svg">
<g clip-path="url(#clip0_3013_15331)">
<path fill-rule="evenodd" clip-rule="evenodd" d="M18.4682 8.00001C18.6082 7.78001 18.7482 7.57001 18.8982 7.37001C19.0482 7.17001 19.2082 6.97001 19.3682 6.78001L19.9682 6.00001C20.5482 5.29001 20.3782 5.31001 20.5982 5.81001C20.8182 6.31001 20.9982 6.66001 21.2282 7.08001C21.3714 7.37127 21.5352 7.65197 21.7182 7.92001C21.7388 7.95585 21.7664 7.98721 21.7994 8.01222C21.8323 8.03723 21.8699 8.05539 21.91 8.06564C21.9501 8.07589 21.9918 8.07802 22.0327 8.0719C22.0736 8.06578 22.1129 8.05154 22.1482 8.03001C22.1849 8.01022 22.2172 7.98324 22.2432 7.95068C22.2692 7.91813 22.2884 7.88066 22.2996 7.84052C22.3108 7.80038 22.3138 7.75839 22.3084 7.71707C22.303 7.67574 22.2893 7.63593 22.2682 7.60001C22.149 7.34094 22.0487 7.07358 21.9682 6.80001C21.8082 6.35001 21.6782 5.90001 21.5582 5.47001C21.4937 5.23834 21.3734 5.02602 21.2078 4.85167C21.0421 4.67732 20.8363 4.54627 20.6082 4.47001C20.4194 4.44765 20.2281 4.47458 20.0528 4.54819C19.8776 4.6218 19.7244 4.73957 19.6082 4.89001L19.1982 5.44001L18.6982 6.29001L17.9682 7.71001C17.9297 7.77632 17.9192 7.85518 17.9389 7.92926C17.9586 8.00333 18.0069 8.06655 18.0732 8.10501C18.1395 8.14347 18.2184 8.15401 18.2924 8.13432C18.3665 8.11463 18.4297 8.06632 18.4682 8.00001Z" fill="#7A387B"/>
<path fill-rule="evenodd" clip-rule="evenodd" d="M21.0682 18.42L21.5682 17.57L22.2782 16.1C22.2953 16.068 22.3058 16.0328 22.309 15.9967C22.3122 15.9605 22.3081 15.924 22.2969 15.8895C22.2857 15.8549 22.2676 15.823 22.2438 15.7956C22.22 15.7682 22.1909 15.7459 22.1582 15.73C22.1254 15.7127 22.0895 15.7021 22.0526 15.6987C22.0157 15.6954 21.9785 15.6994 21.9431 15.7106C21.9078 15.7218 21.875 15.7398 21.8467 15.7638C21.8184 15.7877 21.7951 15.817 21.7782 15.85C21.6482 16.07 21.5082 16.28 21.3582 16.49C21.2082 16.7 21.0482 16.88 20.8882 17.07L20.2482 17.8C19.6682 18.5 19.8382 18.48 19.6082 17.98C19.3782 17.48 19.2182 17.14 18.9882 16.71C18.8428 16.42 18.6791 16.1394 18.4982 15.87C18.4776 15.8342 18.45 15.8028 18.417 15.7778C18.3841 15.7528 18.3465 15.7346 18.3064 15.7244C18.2663 15.7141 18.2246 15.712 18.1837 15.7181C18.1428 15.7242 18.1035 15.7385 18.0682 15.76C18.0315 15.7798 17.9992 15.8068 17.9732 15.8393C17.9472 15.8719 17.928 15.9094 17.9168 15.9495C17.9056 15.9896 17.9026 16.0316 17.908 16.073C17.9134 16.1143 17.9271 16.1541 17.9482 16.19C18.0837 16.4571 18.1974 16.7346 18.2882 17.02C18.4482 17.46 18.5682 17.91 18.6982 18.34C18.7587 18.5793 18.8769 18.8002 19.0425 18.9833C19.2081 19.1663 19.4161 19.306 19.6482 19.39C19.8378 19.4103 20.0294 19.3813 20.2045 19.306C20.3797 19.2307 20.5325 19.1115 20.6482 18.96L21.0682 18.42Z" fill="#7A387B"/>
<path fill-rule="evenodd" clip-rule="evenodd" d="M23.8782 2.47C23.6583 2.18648 23.3823 1.95135 23.0674 1.77929C22.7525 1.60723 22.4056 1.50194 22.0482 1.47C21.1364 1.43027 20.223 1.47043 19.3182 1.59C16.5182 1.7 13.7482 1.17 10.9682 1H8.8082C7.7049 1.01805 6.60334 1.09483 5.5082 1.23C4.70736 1.31712 3.93565 1.58005 3.2482 2C2.23761 2.87382 1.60942 4.10866 1.4982 5.44C0.968201 8.3 1.4382 12.1 1.3682 13.78C1.1223 15.6369 0.98872 17.507 0.968201 19.38C0.91263 20.2966 1.20553 21.2003 1.7882 21.91C2.3493 22.3429 3.01536 22.619 3.7182 22.71C4.66938 22.8402 5.62816 22.907 6.5882 22.91C7.7882 22.99 8.9982 23 10.1882 22.99C12.9782 22.99 15.7582 22.78 18.5482 22.8C18.5853 22.8028 18.6226 22.7978 18.6577 22.7855C18.6928 22.7732 18.725 22.7537 18.7522 22.7284C18.7794 22.703 18.8011 22.6723 18.8159 22.6382C18.8307 22.604 18.8383 22.5672 18.8382 22.53C18.8357 22.4565 18.8054 22.3868 18.7534 22.3348C18.7014 22.2828 18.6317 22.2525 18.5582 22.25C15.7682 22.18 12.9782 22.32 10.1882 22.31C9.0082 22.31 7.8282 22.31 6.6382 22.17C5.70775 22.1424 4.77961 22.0623 3.8582 21.93C3.30831 21.8497 2.78832 21.6293 2.3482 21.29C1.94026 20.7267 1.75828 20.0309 1.8382 19.34C1.88595 17.4953 2.04625 15.6552 2.3182 13.83C2.3982 12.18 2.0082 8.43 2.5082 5.63C2.5839 4.57207 3.0637 3.5838 3.8482 2.87C4.40897 2.55629 5.02867 2.36221 5.6682 2.3C6.72378 2.17272 7.78515 2.09929 8.8482 2.08C11.6382 1.95 14.4182 2.46 17.2182 2.57H19.3682C20.229 2.44506 21.0986 2.39154 21.9682 2.41C22.4232 2.44623 22.8462 2.65778 23.1482 3C23.7303 3.7591 24.056 4.68364 24.0782 5.64C24.06 7.17629 23.9128 8.70834 23.6382 10.22C23.5482 11.02 23.5082 11.82 23.4782 12.62C23.3982 14.47 23.4782 16.32 23.3582 18.17V20.17C23.359 20.5637 23.2736 20.9528 23.1082 21.31C22.9199 21.5571 22.651 21.7304 22.3482 21.8C21.8012 21.952 21.2427 22.0591 20.6782 22.12C20.6375 22.1259 20.5983 22.1398 20.563 22.1608C20.5276 22.1819 20.4968 22.2097 20.4722 22.2426C20.4476 22.2756 20.4297 22.3131 20.4196 22.3529C20.4095 22.3928 20.4073 22.4343 20.4132 22.475C20.4191 22.5157 20.433 22.5549 20.454 22.5902C20.4751 22.6256 20.5029 22.6564 20.5358 22.681C20.5688 22.7056 20.6063 22.7235 20.6461 22.7336C20.686 22.7437 20.7275 22.7459 20.7682 22.74C21.4779 22.6855 22.1772 22.5375 22.8482 22.3C23.1977 22.1765 23.4965 21.941 23.6982 21.63C23.8477 21.3016 23.939 20.9497 23.9682 20.59C24.0682 19.81 23.9682 18.89 24.0382 18.25C24.1482 16.4 24.1482 14.55 24.2382 12.7C24.2382 11.92 24.3382 11.14 24.4382 10.36C24.7435 8.80042 24.9208 7.21848 24.9682 5.63C24.9524 4.48716 24.5703 3.37954 23.8782 2.47Z" fill="#7A387B"/>
<path fill-rule="evenodd" clip-rule="evenodd" d="M16.6882 14.53C16.6882 13.21 16.7982 11.88 16.8282 10.53C16.8582 9.18 16.8282 7.88 16.9082 6.53C16.9082 5.39 17.0082 4.26 17.1182 3.14C17.1267 3.06719 17.1064 2.99395 17.0615 2.93598C17.0166 2.87802 16.9508 2.83997 16.8782 2.83C16.8419 2.82438 16.8049 2.82621 16.7694 2.83538C16.7339 2.84455 16.7006 2.86086 16.6716 2.88332C16.6426 2.90578 16.6184 2.93391 16.6007 2.96601C16.5829 2.99811 16.5718 3.03349 16.5682 3.07C16.2549 4.94333 16.0315 6.84 15.8982 8.76C15.8382 9.52 15.7882 10.28 15.7582 11.04C15.7582 12.19 15.6982 13.33 15.6682 14.46C15.6682 16.09 15.5182 17.8 15.4982 19.46C15.4982 20.2 15.4982 20.93 15.5782 21.64C15.5795 21.6816 15.5891 21.7225 15.6065 21.7603C15.6239 21.7981 15.6487 21.832 15.6795 21.86C15.7103 21.888 15.7464 21.9095 15.7857 21.9233C15.825 21.937 15.8667 21.9427 15.9082 21.94C15.9504 21.939 15.9918 21.9291 16.0299 21.9109C16.068 21.8928 16.1018 21.8668 16.1291 21.8348C16.1565 21.8027 16.1768 21.7652 16.1887 21.7247C16.2006 21.6843 16.2038 21.6418 16.1982 21.6V19.49C16.3482 17.86 16.5982 16.16 16.6882 14.53Z" fill="#7A387B"/>
<path fill-rule="evenodd" clip-rule="evenodd" d="M14.4382 10C14.4766 9.41064 14.4766 8.81939 14.4382 8.23002C14.4795 7.30871 14.3714 6.3868 14.1182 5.50002C14.0008 5.19359 13.7897 4.932 13.515 4.75247C13.2403 4.57293 12.916 4.48459 12.5882 4.50002H11.6382L10.3582 4.60002C9.3582 4.70002 8.2482 4.90002 7.1882 4.99002C6.74674 5.04017 6.30238 5.06022 5.8582 5.05002C5.7644 5.06012 5.67831 5.10665 5.61846 5.17959C5.55862 5.25253 5.5298 5.34604 5.5382 5.44002C5.52615 5.53493 5.55034 5.63091 5.60596 5.70876C5.66157 5.78662 5.74451 5.84063 5.8382 5.86002H7.2282C8.2882 5.86002 9.3482 5.68002 10.4082 5.63002H11.6582H12.5582C12.9482 5.63002 13.1682 5.78002 13.2782 6.03002C13.4266 6.75002 13.4671 7.4881 13.3982 8.22002V9.36001C13.4088 9.51316 13.4088 9.66686 13.3982 9.82001C13.3982 9.87002 13.3382 9.94002 13.3982 9.97002C13.2693 10.0394 13.1245 10.0738 12.9782 10.07C12.6055 10.0996 12.2309 10.0996 11.8582 10.07C10.6482 10.07 9.4482 10.3 8.2582 10.37C7.7659 10.415 7.27051 10.415 6.7782 10.37C6.36835 10.3574 5.96026 10.3106 5.5582 10.23C5.33963 10.2302 5.12899 10.1481 4.9682 10C4.75181 9.49984 4.67575 8.95016 4.7482 8.41002C4.7482 7.28002 5.0082 6.02002 5.0582 5.47002C5.07719 5.38664 5.06407 5.29916 5.02144 5.22503C4.97881 5.15089 4.90982 5.09555 4.8282 5.07002C4.6782 5.07002 4.5382 5.17002 4.5082 5.37002C4.28857 6.53003 4.13831 7.70211 4.0582 8.88002C4.00348 9.47838 4.11418 10.0803 4.3782 10.62C4.55545 10.8804 4.80605 11.0823 5.0982 11.2C5.5996 11.3743 6.11991 11.4884 6.6482 11.54C7.17393 11.6243 7.70578 11.6645 8.2382 11.66C9.4282 11.66 10.6182 11.45 11.8182 11.49C12.297 11.5373 12.7794 11.5373 13.2582 11.49C13.5584 11.4382 13.8366 11.2991 14.0582 11.09C14.2979 10.7765 14.431 10.3946 14.4382 10Z" fill="#998696"/>
<path fill-rule="evenodd" clip-rule="evenodd" d="M13.5282 14.58C13.537 14.5399 13.5377 14.4985 13.5304 14.4581C13.5231 14.4178 13.5078 14.3793 13.4855 14.3449C13.4632 14.3104 13.4342 14.2808 13.4004 14.2577C13.3665 14.2345 13.3284 14.2183 13.2882 14.21C13.0759 14.149 12.8583 14.1088 12.6382 14.09C12.1582 14.03 11.6382 14.03 11.2182 13.98C10.7982 13.93 10.1582 13.87 9.6282 13.86C9.09863 13.83 8.56778 13.83 8.0382 13.86C6.98084 13.9559 5.93157 14.1263 4.8982 14.37C4.85684 14.3746 4.81678 14.3873 4.78032 14.4074C4.74386 14.4274 4.71172 14.4545 4.68572 14.487C4.65971 14.5195 4.64037 14.5568 4.62879 14.5968C4.6172 14.6368 4.61361 14.6786 4.6182 14.72C4.6228 14.7614 4.6355 14.8014 4.65557 14.8379C4.67565 14.8743 4.70271 14.9065 4.73521 14.9325C4.76771 14.9585 4.80502 14.9778 4.84499 14.9894C4.88497 15.001 4.92684 15.0046 4.9682 15H6.2082H8.6882H9.9182H11.1682C11.5882 15 12.1082 14.92 12.5882 14.92C12.7746 14.9048 12.9618 14.9048 13.1482 14.92C13.197 14.9317 13.2478 14.9314 13.2964 14.9191C13.345 14.9069 13.39 14.883 13.4273 14.8496C13.4647 14.8162 13.4934 14.7742 13.511 14.7272C13.5285 14.6803 13.5344 14.6297 13.5282 14.58Z" fill="#7A387B"/>
<path fill-rule="evenodd" clip-rule="evenodd" d="M7.7382 18.69L8.8082 18.62C9.5082 18.62 10.2082 18.52 10.9282 18.53C11.2882 18.53 11.6982 18.48 12.0882 18.53C12.2332 18.5263 12.3779 18.5432 12.5182 18.58C12.5957 18.5937 12.6755 18.5784 12.7424 18.537C12.8093 18.4955 12.8586 18.4309 12.8809 18.3554C12.9031 18.28 12.8968 18.1989 12.8631 18.1278C12.8294 18.0567 12.7707 18.0005 12.6982 17.97C12.5226 17.91 12.3418 17.8665 12.1582 17.84C11.7682 17.78 11.3482 17.77 10.9882 17.73C10.4612 17.654 9.93038 17.6073 9.3982 17.59C8.86336 17.5795 8.32849 17.6096 7.7982 17.68C6.74701 17.8447 5.71046 18.0921 4.6982 18.42C4.62755 18.441 4.56708 18.4872 4.52835 18.5499C4.48962 18.6126 4.47533 18.6874 4.4882 18.76C4.50708 18.8299 4.55141 18.8901 4.61247 18.929C4.67353 18.9679 4.74691 18.9825 4.8182 18.97C5.4482 18.88 6.0582 18.82 6.6682 18.78C7.0282 18.71 7.3782 18.71 7.7382 18.69Z" fill="#7A387B"/>
</g>
<defs>
<clipPath id="clip0_3013_15331">
<rect width="24" height="24" fill="white" transform="translate(0.968201)"/>
</clipPath>
</defs>
</svg>
