<svg width="25" height="24" viewBox="0 0 25 24" fill="none" xmlns="http://www.w3.org/2000/svg">
<g clip-path="url(#clip0_3013_15317)">
<path fill-rule="evenodd" clip-rule="evenodd" d="M5.23819 11.8C5.19544 11.3438 4.9973 10.916 4.67693 10.5884C4.35655 10.2607 3.93337 10.053 3.47819 10C2.90355 9.95383 2.33252 10.1251 1.87819 10.48C1.44348 10.8251 1.13999 11.3085 1.01819 11.85C0.418191 14.69 4.77819 14.74 5.20819 12.54C5.23167 12.2941 5.24168 12.047 5.23819 11.8ZM1.96819 12.11C2.07147 11.8648 2.22871 11.6461 2.42819 11.47C2.56068 11.3432 2.71779 11.2449 2.88981 11.1813C3.06182 11.1176 3.24506 11.09 3.42819 11.1C3.56325 11.1074 3.6954 11.1422 3.81665 11.2021C3.93789 11.2621 4.04571 11.346 4.13359 11.4489C4.22146 11.5517 4.28756 11.6713 4.32788 11.8004C4.36821 11.9295 4.38192 12.0654 4.36819 12.2C4.43819 14.22 1.35819 13.78 1.96819 12.11Z" fill="#998696"/>
<path fill-rule="evenodd" clip-rule="evenodd" d="M17.9682 11.91C17.9909 10.826 17.5935 9.77514 16.8591 8.97742C16.1248 8.17969 15.1104 7.69688 14.0282 7.62999C12.7978 7.53452 11.5721 7.86654 10.5582 8.56999C9.54484 9.26797 8.80592 10.2968 8.46818 11.48C8.46818 11.62 8.39818 11.75 8.36818 11.89C8.31508 12.1295 8.29157 12.3747 8.29818 12.62C8.29818 14.42 9.43818 16.1 12.3782 16.35C12.4531 16.356 12.5276 16.3337 12.5869 16.2874C12.6462 16.2411 12.6859 16.1742 12.6982 16.1C12.7016 16.0241 12.677 15.9495 12.6291 15.8905C12.5812 15.8315 12.5132 15.7922 12.4382 15.78H12.2882L14.7182 13.71L17.0382 11.77C17.0485 11.9131 17.0485 12.0568 17.0382 12.2C17.0721 12.6442 17.0163 13.0907 16.8741 13.5128C16.7319 13.935 16.5062 14.3242 16.2104 14.6574C15.9146 14.9905 15.5548 15.2606 15.1524 15.4518C14.75 15.6429 14.3133 15.7512 13.8682 15.77C13.8261 15.7713 13.7848 15.7808 13.7465 15.7981C13.7081 15.8154 13.6736 15.8401 13.6448 15.8707C13.616 15.9014 13.5935 15.9374 13.5787 15.9768C13.5638 16.0161 13.5568 16.058 13.5582 16.1C13.5595 16.142 13.569 16.1834 13.5863 16.2217C13.6036 16.26 13.6283 16.2946 13.6589 16.3234C13.6896 16.3522 13.7256 16.3746 13.7649 16.3895C13.8043 16.4044 13.8461 16.4113 13.8882 16.41C14.9007 16.4127 15.8765 16.0313 16.6188 15.3427C17.3612 14.6542 17.8148 13.7098 17.8882 12.7C17.9464 12.4408 17.9733 12.1756 17.9682 11.91ZM9.36818 11.75C9.70015 10.817 10.3287 10.0184 11.1577 9.47662C11.9867 8.93481 12.9704 8.67958 13.9582 8.74999C14.2152 8.76161 14.4701 8.80186 14.7182 8.86999C14.0476 9.22098 13.4086 9.62916 12.8082 10.09C12.4546 10.3595 12.1204 10.6536 11.8082 10.97C11.483 11.2858 11.1759 11.6197 10.8882 11.97C10.3582 12.59 9.88818 13.26 9.42818 13.97C9.12493 13.2649 9.10346 12.4704 9.36818 11.75ZM14.9182 12.17C14.5982 12.38 14.3082 12.62 14.0082 12.85C13.7082 13.08 13.4282 13.38 13.1682 13.66C12.5982 14.28 12.1082 14.95 11.5582 15.59C10.8638 15.4086 10.2422 15.0175 9.77818 14.47C10.5182 13.69 11.2882 12.95 12.0582 12.2C12.6382 11.64 13.1782 11.07 13.7782 10.55C14.3294 10.0641 14.9105 9.61317 15.5182 9.19999C16.1756 9.61431 16.6592 10.2544 16.8782 11C16.2182 11.36 15.5482 11.74 14.9682 12.17H14.9182Z" fill="#7A387B"/>
<path fill-rule="evenodd" clip-rule="evenodd" d="M7.78821 11.82L7.23821 11.75C7.04834 11.7401 6.85808 11.7401 6.66821 11.75C6.48167 11.74 6.29474 11.74 6.10821 11.75H5.68821C5.41821 11.97 5.20821 12.56 5.68821 12.68C5.80275 12.7129 5.91981 12.7363 6.03821 12.75C6.23667 12.7817 6.43723 12.7984 6.63821 12.8H7.22821C7.41312 12.7915 7.59705 12.768 7.77821 12.73C8.05821 12.59 8.03821 11.92 7.78821 11.82Z" fill="#998696"/>
<path fill-rule="evenodd" clip-rule="evenodd" d="M19.7282 11.77H19.2282C18.9812 11.7545 18.7341 11.7991 18.5082 11.9C18.2182 12.07 18.3582 12.63 18.5082 12.74C18.7339 12.8412 18.9819 12.8825 19.2282 12.86C19.4047 12.8703 19.5817 12.8703 19.7582 12.86C19.9079 12.8475 20.0556 12.8173 20.1982 12.77C20.6082 12.61 20.4382 11.94 20.1982 11.87L19.7282 11.77Z" fill="#998696"/>
<path fill-rule="evenodd" clip-rule="evenodd" d="M23.1882 9.99998C22.6424 9.95213 22.0973 10.0998 21.6504 10.4167C21.2034 10.7336 20.8837 11.1991 20.7482 11.73C20.7482 11.73 20.7482 11.8 20.7482 11.83C20.7103 12.0718 20.7103 12.3181 20.7482 12.56C21.0382 14.1 24.8382 14.76 24.9882 12.08C25.0086 11.8248 24.9781 11.5681 24.8983 11.3249C24.8186 11.0816 24.6913 10.8566 24.5237 10.6631C24.3562 10.4695 24.1519 10.3112 23.9226 10.1973C23.6933 10.0835 23.4436 10.0164 23.1882 9.99998ZM21.6482 12C21.7456 11.7683 21.9005 11.5652 22.0982 11.41C22.3779 11.1777 22.7351 11.0598 23.0982 11.08C23.3529 11.0953 23.5921 11.2074 23.7668 11.3933C23.9416 11.5792 24.0386 11.8248 24.0382 12.08C24.1382 14 21.0682 13.53 21.6482 12Z" fill="#998696"/>
</g>
<defs>
<clipPath id="clip0_3013_15317">
<rect width="24" height="24" fill="white" transform="translate(0.968201)"/>
</clipPath>
</defs>
</svg>
