<svg width="25" height="24" viewBox="0 0 25 24" fill="none" xmlns="http://www.w3.org/2000/svg">
<g clip-path="url(#clip0_3013_15304)">
<path fill-rule="evenodd" clip-rule="evenodd" d="M3.2882 0.420001C3.19935 0.457131 3.12889 0.528035 3.09232 0.617115C3.05575 0.706195 3.05607 0.806153 3.0932 0.895001C3.13033 0.983848 3.20123 1.05431 3.29031 1.09088C3.37939 1.12745 3.47935 1.12713 3.5682 1.09C5.8682 0.190001 6.9682 2.69 5.9082 4.43C5.1982 5.61 2.9082 5.5 2.2282 4.66C1.96485 4.27248 1.80938 3.82186 1.77775 3.35439C1.74612 2.88693 1.83946 2.41947 2.0482 2C2.07321 1.96092 2.08942 1.91687 2.09572 1.8709C2.10201 1.82493 2.09823 1.77814 2.08464 1.73378C2.07105 1.68941 2.04797 1.64854 2.01701 1.61398C1.98605 1.57942 1.94795 1.55201 1.90534 1.53364C1.86273 1.51527 1.81664 1.50639 1.77025 1.50762C1.72387 1.50884 1.67831 1.52013 1.63672 1.54071C1.59514 1.56129 1.55853 1.59067 1.52943 1.62681C1.50033 1.66295 1.47944 1.70498 1.4682 1.75C-0.8018 6.47 5.3682 7.87 6.9682 5.06C8.2982 2.71 6.6582 -1.06 3.2882 0.420001Z" fill="#7A387B"/>
<path fill-rule="evenodd" clip-rule="evenodd" d="M10.5082 11C9.60821 11.52 9.36821 13.38 10.3682 13.94C10.6769 14.1012 11.02 14.1854 11.3682 14.1854C11.7165 14.1854 12.0595 14.1012 12.3682 13.94C14.2082 12.88 12.3582 9.87999 10.5082 11Z" fill="#998696"/>
<path fill-rule="evenodd" clip-rule="evenodd" d="M10.3382 17.86C9.43819 18.38 9.18819 20.24 10.1882 20.79C10.4961 20.9537 10.8395 21.0393 11.1882 21.0393C11.5369 21.0393 11.8803 20.9537 12.1882 20.79C14.0282 19.77 12.1782 16.79 10.3382 17.86Z" fill="#998696"/>
<path fill-rule="evenodd" clip-rule="evenodd" d="M23.1182 1.4C18.9544 1.10257 14.773 1.15609 10.6182 1.56C10.4482 1.56 9.53819 1.64 9.41819 1.68C9.35699 1.69884 9.30259 1.73507 9.26162 1.78428C9.22065 1.8335 9.19489 1.89357 9.18747 1.95717C9.18004 2.02077 9.19129 2.08516 9.21983 2.14248C9.24837 2.19981 9.29297 2.24759 9.34819 2.28C9.46819 2.34 9.28819 2.28 10.6482 2.28C14.8025 2.51668 18.9677 2.48661 23.1182 2.19C23.9682 2.19 25.1882 2.19 24.9282 1.78C25.1782 1.4 24.1582 1.45 23.1182 1.4Z" fill="#7A387B"/>
<path fill-rule="evenodd" clip-rule="evenodd" d="M12.6382 6C14.9783 6.1029 17.3229 5.97562 19.6382 5.62C19.7246 5.60564 19.8032 5.56108 19.8598 5.49424C19.9165 5.4274 19.9476 5.34262 19.9476 5.255C19.9476 5.16738 19.9165 5.0826 19.8598 5.01576C19.8032 4.94892 19.7246 4.90435 19.6382 4.89C18.2782 4.89 16.6382 4.81 15.1282 4.81C13.0482 4.81 11.6582 4.98 10.6282 5.04C10.0182 5.04 9.53819 5.04 9.47819 5.11C9.41819 5.18 9.07819 5.62 9.60819 5.73C9.79819 5.73 11.5082 5.89 12.6382 6Z" fill="#7A387B"/>
<path fill-rule="evenodd" clip-rule="evenodd" d="M24.0382 11.92C22.2582 11.92 20.6482 11.74 18.5982 11.85C17.6582 11.9 16.8382 12.01 16.2682 12.05C15.9338 12.0543 15.5999 12.0776 15.2682 12.12C15.1959 12.1464 15.1355 12.1979 15.0981 12.2652C15.0607 12.3325 15.0488 12.411 15.0646 12.4863C15.0804 12.5617 15.1228 12.6288 15.1841 12.6754C15.2454 12.722 15.3214 12.7449 15.3982 12.74C15.5582 12.74 17.8982 13.03 18.9882 13.06C20.6995 13.0541 22.4078 12.9171 24.0982 12.65C24.1849 12.6302 24.2617 12.5797 24.3142 12.5079C24.3668 12.4361 24.3917 12.3477 24.3844 12.259C24.3772 12.1703 24.3381 12.0872 24.2745 12.0249C24.2109 11.9627 24.127 11.9254 24.0382 11.92Z" fill="#998696"/>
<path fill-rule="evenodd" clip-rule="evenodd" d="M24.1082 19.36C22.3582 19.36 20.6682 19.17 18.6682 19.28C17.7282 19.34 16.9082 19.44 16.3382 19.48C15.7682 19.52 15.3382 19.53 15.3382 19.55C15.3382 19.57 14.9382 20.06 15.4682 20.17C15.6482 20.17 18.0082 20.47 19.0582 20.49C20.7691 20.4834 22.4771 20.3497 24.1682 20.09C24.255 20.0702 24.3317 20.0197 24.3842 19.9479C24.4368 19.8761 24.4618 19.7877 24.4545 19.699C24.4472 19.6103 24.4081 19.5272 24.3446 19.4649C24.281 19.4027 24.197 19.3654 24.1082 19.36Z" fill="#998696"/>
<path fill-rule="evenodd" clip-rule="evenodd" d="M6.3082 11.64C6.40459 11.6374 6.49615 11.5973 6.56339 11.5282C6.63063 11.4591 6.66824 11.3664 6.6682 11.27C6.8582 10.54 6.9282 8.71001 6.3182 8.67001C6.27355 8.66868 6.22907 8.67616 6.18731 8.69203C6.14554 8.70789 6.10732 8.73183 6.07481 8.76248C6.04231 8.79313 6.01616 8.82988 5.99787 8.87064C5.97958 8.91139 5.9695 8.95536 5.9682 9.00001C5.4782 10.17 5.7982 11.64 6.3082 11.64Z" fill="#7A387B"/>
<path fill-rule="evenodd" clip-rule="evenodd" d="M6.3082 15.77C6.40459 15.7674 6.49615 15.7273 6.56339 15.6582C6.63063 15.589 6.66824 15.4964 6.6682 15.4C6.8582 14.67 6.9282 12.84 6.3182 12.8C6.23284 12.7969 6.14945 12.826 6.0846 12.8816C6.01975 12.9372 5.97819 13.0152 5.9682 13.1C5.4782 14.31 5.7982 15.77 6.3082 15.77Z" fill="#7A387B"/>
<path fill-rule="evenodd" clip-rule="evenodd" d="M6.3082 20.06C6.40459 20.0574 6.49615 20.0173 6.56339 19.9482C6.63063 19.8791 6.66824 19.7864 6.6682 19.69C6.8582 18.96 6.9282 17.13 6.3182 17.09C6.23225 17.0845 6.14753 17.1127 6.08214 17.1688C6.01674 17.2248 5.97585 17.3042 5.9682 17.39C5.4782 18.59 5.7982 20.06 6.3082 20.06Z" fill="#7A387B"/>
<path fill-rule="evenodd" clip-rule="evenodd" d="M6.5482 21.48C6.54157 21.3951 6.5015 21.3164 6.4368 21.261C6.3721 21.2057 6.28807 21.1784 6.2032 21.185C6.11833 21.1916 6.03957 21.2317 5.98425 21.2964C5.92893 21.3611 5.90157 21.4451 5.9082 21.53C5.72817 21.8305 5.62812 22.1721 5.61762 22.5222C5.60712 22.8723 5.6865 23.2193 5.8482 23.53C5.8394 23.583 5.84224 23.6373 5.85653 23.689C5.87082 23.7408 5.89622 23.7889 5.93095 23.8299C5.96569 23.8708 6.00893 23.9038 6.05767 23.9263C6.10641 23.9489 6.15948 23.9606 6.2132 23.9606C6.26692 23.9606 6.31999 23.9489 6.36874 23.9263C6.41748 23.9038 6.46072 23.8708 6.49545 23.8299C6.53019 23.7889 6.55558 23.7408 6.56987 23.689C6.58416 23.6373 6.587 23.583 6.5782 23.53C6.8182 22.65 7.0682 22.6 6.5482 21.48Z" fill="#7A387B"/>
</g>
<defs>
<clipPath id="clip0_3013_15304">
<rect width="24" height="24" fill="white" transform="translate(0.968201)"/>
</clipPath>
</defs>
</svg>
