<svg width="25" height="24" viewBox="0 0 25 24" fill="none" xmlns="http://www.w3.org/2000/svg">
<g clip-path="url(#clip0_3013_15284)">
<path fill-rule="evenodd" clip-rule="evenodd" d="M24.5982 7.50998C24.4682 6.33998 24.5282 3.99998 23.6882 3.35998C21.7682 1.86998 17.5582 2.26998 14.8782 2.15998C11.3782 1.99998 7.7282 2.29998 4.2682 2.39998C4.18927 2.41367 4.11772 2.45478 4.06614 2.51607C4.01457 2.57736 3.98629 2.65488 3.98629 2.73498C3.98629 2.81508 4.01457 2.89261 4.06614 2.9539C4.11772 3.01519 4.18927 3.0563 4.2682 3.06998C7.7282 2.99998 11.3382 2.78998 14.8382 2.99998C17.3082 3.13998 21.5082 2.86998 23.0882 4.12998C23.4882 4.44998 23.4982 6.80998 23.5782 7.61998C23.9147 10.5356 23.9416 13.4787 23.6582 16.4C23.6153 17.377 23.4644 18.3462 23.2082 19.29C20.8282 20.62 3.5582 21.65 2.5082 19.83C2.12951 18.3514 1.91488 16.8356 1.8682 15.31C1.66857 12.7512 1.71881 10.179 2.0182 7.62998C2.0982 7.62998 9.3182 7.95998 14.5882 7.85998C16.9182 7.85998 19.2582 7.69998 21.3482 7.65998C21.4384 7.65998 21.5249 7.62416 21.5886 7.5604C21.6524 7.49664 21.6882 7.41016 21.6882 7.31998C21.6882 7.22981 21.6524 7.14333 21.5886 7.07957C21.5249 7.01581 21.4384 6.97998 21.3482 6.97998C13.4682 6.81998 8.5982 6.54998 2.0582 6.99998C2.0582 6.44998 2.1582 5.93998 2.2282 5.38998C2.22035 4.75375 2.29088 4.11898 2.4382 3.49998C2.48153 3.44221 2.50256 3.37075 2.49744 3.29872C2.49232 3.22669 2.46139 3.15892 2.41033 3.10785C2.35926 3.05679 2.2915 3.02586 2.21946 3.02074C2.14743 3.01562 2.07597 3.03666 2.0182 3.07998C1.5982 3.51998 1.6782 4.85998 1.6082 5.32998C1.5382 5.79998 1.4682 6.37998 1.4082 6.89998C1.01234 9.70147 0.891766 12.535 1.0482 15.36C1.07197 17.0177 1.29695 18.6665 1.7182 20.27C3.1782 22.94 18.9582 21.71 22.6382 20.71C24.0882 20.32 24.3282 19.92 24.5182 18.79C25.0945 15.054 25.1214 11.2538 24.5982 7.50998Z" fill="#7A387B"/>
<path fill-rule="evenodd" clip-rule="evenodd" d="M5.50819 5.38998C5.59339 5.22454 5.61901 5.03481 5.58077 4.85269C5.54253 4.67058 5.44274 4.50718 5.29819 4.38998C4.53819 3.98998 3.59819 4.76998 4.29819 5.46998C4.38182 5.5464 4.48004 5.60511 4.58694 5.64259C4.69384 5.68007 4.80722 5.69554 4.92026 5.68806C5.03329 5.68059 5.14365 5.65033 5.24469 5.5991C5.34572 5.54788 5.43536 5.47675 5.50819 5.38998Z" fill="#7A387B"/>
<path fill-rule="evenodd" clip-rule="evenodd" d="M8.13819 5.10997C8.22641 4.94605 8.25469 4.7565 8.21819 4.57397C8.18168 4.39144 8.08267 4.22735 7.93819 4.10997C7.16819 3.69997 6.22819 4.48997 6.93819 5.17997C7.02097 5.25541 7.118 5.31354 7.22357 5.35093C7.32914 5.38833 7.44113 5.40423 7.55294 5.39771C7.66475 5.39119 7.77412 5.36237 7.87463 5.31296C7.97514 5.26354 8.06475 5.19453 8.13819 5.10997Z" fill="#7A387B"/>
<path fill-rule="evenodd" clip-rule="evenodd" d="M11.0182 5.10997C11.1053 4.94496 11.132 4.75469 11.0937 4.57208C11.0553 4.38946 10.9543 4.226 10.8082 4.10997C10.0382 3.69997 9.0982 4.48997 9.8082 5.17997C9.89118 5.25698 9.98887 5.31642 10.0954 5.35472C10.2019 5.39303 10.3151 5.4094 10.4281 5.40286C10.5411 5.39632 10.6517 5.36701 10.7531 5.31668C10.8545 5.26634 10.9447 5.19604 11.0182 5.10997Z" fill="#7A387B"/>
<path fill-rule="evenodd" clip-rule="evenodd" d="M4.4382 18C4.79766 18.0644 5.16737 18.0407 5.51569 17.931C5.864 17.8213 6.18054 17.6288 6.4382 17.37C7.0582 16.55 6.7882 14.91 4.7982 14.96C4.42977 14.9749 4.07871 15.1206 3.80808 15.3711C3.53744 15.6215 3.36496 15.9603 3.3216 16.3264C3.27823 16.6926 3.36683 17.0623 3.57148 17.369C3.77614 17.6757 4.08344 17.8994 4.4382 18ZM5.8882 16.64C5.75425 16.7797 5.58494 16.8804 5.39827 16.9315C5.21161 16.9825 5.01459 16.982 4.8282 16.93C4.4582 16.8 4.3282 16.21 4.4982 16.05C5.1282 15.41 6.2682 15.78 5.8882 16.64Z" fill="#998696"/>
<path fill-rule="evenodd" clip-rule="evenodd" d="M10.9682 11.62C11.0352 11.6518 11.1117 11.6577 11.1828 11.6364C11.254 11.6151 11.3147 11.5682 11.3532 11.5048C11.3918 11.4414 11.4054 11.3659 11.3916 11.293C11.3777 11.22 11.3373 11.1548 11.2782 11.11C9.78819 10.11 7.27819 12.83 7.97819 15.03C8.72819 17.41 11.3282 17.5 11.9782 16.13C12.1882 15.69 12.1582 15.06 11.6782 15.13C11.5897 15.1299 11.5047 15.1644 11.4412 15.226C11.3778 15.2876 11.3408 15.3716 11.3382 15.46C11.3382 15.9 11.2682 16.15 10.6582 16.17C9.88819 16.17 9.33819 15.57 9.08819 14.74C8.64819 13.41 9.96819 11.12 10.9682 11.62Z" fill="#998696"/>
<path fill-rule="evenodd" clip-rule="evenodd" d="M12.9682 12.1C12.0882 14.21 12.2382 16.9 14.5282 16.97C14.8616 17.0034 15.1965 16.9226 15.478 16.741C15.7596 16.5593 15.9712 16.2875 16.0782 15.97C16.3482 15.26 16.9182 11.49 14.8482 11.04C14.4595 10.9571 14.0539 11.0191 13.7076 11.2143C13.3614 11.4095 13.0984 11.7245 12.9682 12.1ZM15.3282 15.29C15.2282 15.67 15.0382 15.95 14.5782 15.91C13.2682 15.82 13.4982 13.58 13.8882 12.44C13.9266 12.2556 14.0313 12.0917 14.1824 11.9793C14.3335 11.8669 14.5206 11.8138 14.7082 11.83C15.8182 12 15.4882 14.43 15.2782 15.29H15.3282Z" fill="#998696"/>
<path fill-rule="evenodd" clip-rule="evenodd" d="M17.9682 13.09C18.2482 13.47 18.5582 13.9 18.7482 14.09C18.8403 14.2123 18.9657 14.3055 19.1092 14.3587C19.2528 14.4119 19.4086 14.4227 19.5582 14.39C20.2682 14.11 20.3282 12.86 20.6182 12.2C20.9259 13.3937 21.1003 14.6178 21.1382 15.85C21.1382 16.14 21.1382 16.59 21.5682 16.43C21.9082 16.43 21.8482 16.11 21.8382 15.81C21.7682 12.08 21.8982 11.4 20.8982 11.04C20.5882 10.92 20.1682 11.04 19.8482 11.58C19.6556 12.0622 19.4953 12.5566 19.3682 13.06C19.0082 12.63 18.5082 11.97 18.2282 11.71C17.7382 11.23 17.2282 11.41 17.1582 11.83C16.7782 13.52 17.4482 15.59 17.5282 16.49C17.5202 16.5333 17.5218 16.5778 17.5329 16.6204C17.5441 16.663 17.5644 16.7026 17.5926 16.7364C17.6207 16.7703 17.656 16.7975 17.6959 16.8162C17.7357 16.8348 17.7792 16.8445 17.8232 16.8445C17.8672 16.8445 17.9107 16.8348 17.9505 16.8162C17.9904 16.7975 18.0257 16.7703 18.0538 16.7364C18.082 16.7026 18.1023 16.663 18.1135 16.6204C18.1246 16.5778 18.1262 16.5333 18.1182 16.49C17.9674 15.3633 17.9172 14.2255 17.9682 13.09Z" fill="#998696"/>
</g>
<defs>
<clipPath id="clip0_3013_15284">
<rect width="24" height="24" fill="white" transform="translate(0.968201)"/>
</clipPath>
</defs>
</svg>
