<svg width="25" height="24" viewBox="0 0 25 24" fill="none" xmlns="http://www.w3.org/2000/svg">
<g clip-path="url(#clip0_3013_15227)">
<path fill-rule="evenodd" clip-rule="evenodd" d="M21.6282 12.46C21.3582 12.6215 21.1096 12.8164 20.8882 13.04C20.8245 13.0878 20.7825 13.1588 20.7712 13.2376C20.76 13.3164 20.7805 13.3964 20.8282 13.46C21.0682 13.78 21.3382 13.4 21.8282 13.21C22.7082 12.86 23.9382 14 23.9282 14.53C23.9451 15.0973 23.7488 15.6503 23.3782 16.08C23.4582 16.08 21.3182 14.4 20.7382 13.85C20.6745 13.7865 20.5882 13.7509 20.4982 13.7509C20.4082 13.7509 20.3219 13.7865 20.2582 13.85C19.8382 14.27 20.5982 14.55 22.7682 16.64C22.4082 17.17 21.8582 17.64 18.7682 20.89C18.5593 20.4297 18.2606 20.0158 17.8897 19.6724C17.5188 19.3289 17.0832 19.063 16.6082 18.89C18.4482 16.6 19.7882 15.16 19.8882 15.01C19.9263 14.9553 19.9451 14.8895 19.9417 14.8229C19.9382 14.7564 19.9127 14.6929 19.8691 14.6424C19.8256 14.592 19.7664 14.5575 19.7011 14.5444C19.6357 14.5312 19.5679 14.5403 19.5082 14.57C19.4182 14.57 19.3882 14.67 18.9582 15.12C16.4282 17.73 14.8282 19.37 14.7682 19.86C14.5182 22.04 14.3682 23.1 14.6782 23.43C15.2882 24.09 17.7482 23.34 18.2682 23.02C20.5325 20.7695 22.6407 18.3673 24.5782 15.83C26.0382 13.47 23.2482 11.6 21.6282 12.46ZM17.6282 22.03C16.9938 22.3114 16.3187 22.4903 15.6282 22.56C15.5536 21.5871 15.6691 20.6089 15.9682 19.68C16.3082 19.22 15.9182 19.52 17.4582 20.81C17.7282 21.04 17.9882 21.24 18.2182 21.46C17.8682 21.78 17.6582 22 17.6182 22L17.6282 22.03Z" fill="#7A387B"/>
<path fill-rule="evenodd" clip-rule="evenodd" d="M12.4382 20.73C9.1082 20.73 4.8682 20.54 2.9582 20.31C2.7082 20.31 2.4682 20.17 2.3282 20.14C1.8582 17.94 2.1882 1.35 2.0282 1.19C1.97097 1.13729 1.896 1.10803 1.8182 1.10803C1.74039 1.10803 1.66543 1.13729 1.6082 1.19C1.2282 1.56 0.508199 18.5 1.3782 20.78C1.42648 20.8902 1.5009 20.9869 1.59499 21.0618C1.68908 21.1367 1.80002 21.1876 1.9182 21.21C3.3982 21.61 10.9182 21.46 12.4382 21.42C12.5196 21.4061 12.5935 21.3638 12.6468 21.3007C12.7 21.2375 12.7292 21.1576 12.7292 21.075C12.7292 20.9924 12.7 20.9124 12.6468 20.8493C12.5935 20.7862 12.5196 20.7439 12.4382 20.73Z" fill="#7A387B"/>
<path fill-rule="evenodd" clip-rule="evenodd" d="M3.1082 1.25001C4.1982 1.40001 10.7082 1.42001 13.5182 1.46001C13.2982 2.46001 12.8582 4.84001 13.5182 5.62001C13.8982 6.08001 16.8482 6.33001 17.4382 6.28001C17.5284 6.28001 17.6149 6.24419 17.6786 6.18042C17.7424 6.11666 17.7782 6.03018 17.7782 5.94001C17.7782 5.84983 17.7424 5.76335 17.6786 5.69959C17.6149 5.63583 17.5284 5.60001 17.4382 5.60001C13.8282 5.35001 14.3682 4.80001 14.3182 4.23001C14.2283 3.31294 14.1982 2.39099 14.2282 1.47001C14.7082 1.47001 14.1482 1.11001 17.9682 4.56001C17.9682 5.79001 18.0482 8.90001 17.9682 10.47C17.8682 13.77 17.6282 14.11 18.0882 14.14C18.1271 14.1441 18.1664 14.1403 18.2038 14.1289C18.2412 14.1174 18.2759 14.0985 18.3058 14.0733C18.3357 14.048 18.3602 14.017 18.3778 13.9821C18.3954 13.9472 18.4057 13.909 18.4082 13.87C18.5282 12.67 19.1682 7.02001 18.9182 5.23001C18.6982 3.68001 19.6282 4.85001 15.1982 0.530008C14.9682 0.270008 14.3382 0.330008 13.6382 0.340008C10.9682 0.380008 4.2882 0.670008 3.1882 0.580008C3.14141 0.568405 3.09269 0.566885 3.04527 0.575548C2.99784 0.584211 2.95281 0.602859 2.91314 0.630254C2.87348 0.65765 2.84009 0.693167 2.8152 0.73445C2.79031 0.775732 2.77448 0.821836 2.76876 0.869702C2.76305 0.917569 2.76758 0.966103 2.78205 1.01209C2.79652 1.05807 2.82061 1.10045 2.85271 1.13641C2.88481 1.17238 2.92419 1.20111 2.96823 1.22069C3.01228 1.24027 3.05999 1.25027 3.1082 1.25001Z" fill="#7A387B"/>
<path fill-rule="evenodd" clip-rule="evenodd" d="M4.8882 7.36C5.9122 6.87 7.07246 6.74304 8.1782 7C8.25114 7.03448 8.33478 7.03857 8.41073 7.01138C8.48668 6.98419 8.54872 6.92794 8.5832 6.855C8.61768 6.78207 8.62177 6.69842 8.59458 6.62247C8.56739 6.54652 8.51114 6.48448 8.4382 6.45C7.16339 6.00015 5.77301 6.00015 4.4982 6.45C4.11332 6.66476 3.81507 7.00665 3.65453 7.41712C3.49399 7.82759 3.48115 8.28111 3.6182 8.7C3.9482 9.4 4.5382 9.47 5.2282 9.6C6.17229 9.74986 7.13411 9.74986 8.0782 9.6C8.64055 9.58468 9.19031 9.43006 9.6782 9.15C10.7582 8.38 9.8682 6.91 8.8482 6.91C8.75803 6.91 8.67155 6.94582 8.60778 7.00959C8.54402 7.07335 8.5082 7.15983 8.5082 7.25C8.5082 7.34018 8.54402 7.42666 8.60778 7.49042C8.67155 7.55418 8.75803 7.59 8.8482 7.59C9.1982 7.59 9.5882 8.2 9.2182 8.42C7.97935 8.66782 6.70647 8.6949 5.4582 8.5C4.7782 8.37 4.4582 8.42 4.6882 7.8C4.7382 7.61 4.7782 7.42 4.8882 7.36Z" fill="#998696"/>
<path fill-rule="evenodd" clip-rule="evenodd" d="M4.0182 15.41C5.3782 16.41 8.2282 16.05 9.5982 15.3C9.87587 15.1276 10.0803 14.859 10.1725 14.5454C10.2648 14.2318 10.2383 13.8953 10.0982 13.6C9.91556 13.346 9.69655 13.1203 9.4482 12.93C9.1082 12.63 8.6482 13.13 8.9782 13.43L9.4382 13.97C9.46335 14.0732 9.45568 14.1816 9.41624 14.2802C9.3768 14.3788 9.30757 14.4626 9.2182 14.52C7.8982 15.1 4.2182 15.09 4.5482 14.03C4.58336 13.9052 4.64422 13.7891 4.72689 13.6893C4.80955 13.5894 4.91218 13.5079 5.0282 13.45C5.92396 13.0888 6.88242 12.9086 7.8482 12.92C7.91986 12.9344 7.99429 12.9229 8.05834 12.8877C8.12239 12.8525 8.17195 12.7958 8.19826 12.7277C8.22458 12.6595 8.22596 12.5842 8.20216 12.5151C8.17836 12.446 8.13092 12.3875 8.0682 12.35C7.2782 12.03 5.4582 12.42 4.7482 12.55C4.44873 12.615 4.17327 12.7621 3.9527 12.9748C3.73212 13.1875 3.57514 13.4575 3.49935 13.7544C3.42357 14.0513 3.43196 14.3635 3.5236 14.6559C3.61524 14.9483 3.78651 15.2094 4.0182 15.41Z" fill="#998696"/>
<path fill-rule="evenodd" clip-rule="evenodd" d="M16.4282 11.92C16.5184 11.92 16.6049 11.8842 16.6686 11.8204C16.7324 11.7567 16.7682 11.6702 16.7682 11.58C16.7682 11.4898 16.7324 11.4033 16.6686 11.3396C16.6049 11.2758 16.5184 11.24 16.4282 11.24C13.3082 10.54 14.3182 12.24 14.0382 9.95C13.9882 9.55 14.0382 8.76 13.5282 8.36C12.7743 7.93802 11.891 7.8098 11.0482 8C10.9686 8.00928 10.896 8.04979 10.8463 8.11262C10.7966 8.17544 10.7739 8.25544 10.7832 8.335C10.7925 8.41457 10.833 8.48718 10.8958 8.53688C10.9586 8.58658 11.0386 8.60928 11.1182 8.6C11.7625 8.51622 12.416 8.65752 12.9682 9C13.0782 9.11 12.9682 9.78 12.9682 10C12.9982 10.9543 12.9681 11.9095 12.8782 12.86C12.9035 13.363 12.9035 13.867 12.8782 14.37C12.7982 14.31 11.0482 14.51 11.0282 14.95C11.0313 15.0363 11.0637 15.119 11.12 15.1844C11.1764 15.2499 11.2533 15.2941 11.3382 15.31C11.9025 15.3826 12.4739 15.3826 13.0382 15.31C14.0382 15.07 13.8482 13.85 13.9782 13.05C14.0382 12.72 14.0682 12.39 14.0982 12.05C14.8711 12.2333 15.6805 12.1881 16.4282 11.92Z" fill="#998696"/>
</g>
<defs>
<clipPath id="clip0_3013_15227">
<rect width="24" height="24" fill="white" transform="translate(0.968201)"/>
</clipPath>
</defs>
</svg>
