<svg width="25" height="24" viewBox="0 0 25 24" fill="none" xmlns="http://www.w3.org/2000/svg">
<g clip-path="url(#clip0_3013_15275)">
<path fill-rule="evenodd" clip-rule="evenodd" d="M8.0682 2.62998C8.04334 2.17275 8.06008 1.71419 8.1182 1.25998C8.16391 1.19981 8.18607 1.12502 8.18052 1.04966C8.17496 0.974295 8.14207 0.903559 8.08803 0.850743C8.03398 0.797928 7.96251 0.766671 7.88704 0.762848C7.81157 0.759026 7.7373 0.7829 7.6782 0.829984C7.3482 1.12998 7.3482 2.15998 7.2682 2.51998C6.55513 5.61223 6.51761 8.82192 7.1582 11.93C7.16881 12.0202 7.2148 12.1024 7.28607 12.1587C7.35733 12.2149 7.44803 12.2406 7.5382 12.23C7.62837 12.2194 7.71064 12.1734 7.7669 12.1021C7.82316 12.0309 7.84881 11.9402 7.8382 11.85C7.72695 8.77484 7.80376 5.69576 8.0682 2.62998Z" fill="#7A387B"/>
<path fill-rule="evenodd" clip-rule="evenodd" d="M22.1082 3.66999C17.6832 3.37306 13.2432 3.37306 8.81821 3.66999C8.43821 3.66999 8.26821 4.26999 8.98821 4.40999C10.4282 4.40999 11.9882 4.61999 14.9882 4.62999C17.9882 4.63999 20.0982 4.44999 22.1682 4.38999C22.2637 4.38204 22.3521 4.33648 22.414 4.26334C22.4759 4.1902 22.5062 4.09547 22.4982 3.99999C22.4903 3.90452 22.4447 3.81611 22.3716 3.75422C22.2984 3.69234 22.2037 3.66204 22.1082 3.66999Z" fill="#998696"/>
<path fill-rule="evenodd" clip-rule="evenodd" d="M24.7282 4.13999C24.6282 3.20999 24.7282 1.45999 23.9882 0.909995C22.4782 -0.250005 19.4182 0.0899945 17.3182 -5.45476e-06C14.6782 -0.0700055 11.9682 0.169995 9.40821 0.269995C9.31803 0.269995 9.23155 0.305816 9.16779 0.369578C9.10403 0.433341 9.06821 0.519821 9.06821 0.609995C9.06821 0.700168 9.10403 0.786648 9.16779 0.850411C9.23155 0.914173 9.31803 0.949995 9.40821 0.949995C11.9982 0.949995 14.6282 0.789994 17.2482 0.949995C19.1482 1.06999 22.1682 0.949995 23.2482 1.78999C23.4982 1.98999 23.7882 7.58999 23.7982 8.14999C23.8063 9.72756 23.6826 11.303 23.4282 12.86C22.2182 13.57 17.2682 13.98 15.8182 14.07C15.7468 14.083 15.6822 14.1206 15.6357 14.1764C15.5891 14.2321 15.5637 14.3024 15.5637 14.375C15.5637 14.4476 15.5891 14.5179 15.6357 14.5736C15.6822 14.6294 15.7468 14.667 15.8182 14.68C17.6782 14.68 21.9482 14.42 23.5582 13.83C24.0982 13.63 24.3282 13.39 24.4882 12.54C24.9985 9.76888 25.0795 6.93573 24.7282 4.13999Z" fill="#7A387B"/>
<path fill-rule="evenodd" clip-rule="evenodd" d="M10.3382 2.58C10.407 2.45602 10.4297 2.31167 10.4023 2.17255C10.3748 2.03342 10.299 1.90852 10.1882 1.82C9.6182 1.52 8.9182 2.1 9.4182 2.62C9.47908 2.68188 9.55228 2.73028 9.63305 2.76208C9.71382 2.79388 9.80037 2.80836 9.8871 2.80459C9.97382 2.80082 10.0588 2.77888 10.1365 2.74019C10.2142 2.7015 10.2829 2.64693 10.3382 2.58Z" fill="#7A387B"/>
<path fill-rule="evenodd" clip-rule="evenodd" d="M12.2982 2.37999C12.366 2.25491 12.3871 2.10982 12.3578 1.97061C12.3285 1.83141 12.2506 1.70714 12.1382 1.61999C11.5682 1.31999 10.8682 1.89999 11.3782 2.40999C11.4384 2.47247 11.511 2.52161 11.5914 2.55425C11.6718 2.58689 11.7582 2.60229 11.8449 2.59946C11.9316 2.59664 12.0167 2.57564 12.0948 2.53784C12.1729 2.50003 12.2422 2.44626 12.2982 2.37999Z" fill="#7A387B"/>
<path fill-rule="evenodd" clip-rule="evenodd" d="M14.4282 2.37999C14.4991 2.25653 14.523 2.1116 14.4954 1.97193C14.4678 1.83225 14.3907 1.70726 14.2782 1.61999C13.7082 1.31999 13.0082 1.89999 13.5182 2.40999C13.5775 2.47223 13.6493 2.52124 13.7289 2.55379C13.8085 2.58634 13.894 2.6017 13.9799 2.59886C14.0659 2.59603 14.1502 2.57507 14.2275 2.53735C14.3047 2.49963 14.3731 2.446 14.4282 2.37999Z" fill="#7A387B"/>
<path fill-rule="evenodd" clip-rule="evenodd" d="M19.7282 17.75C19.776 17.4275 19.7364 17.0981 19.6134 16.7962C19.4904 16.4943 19.2886 16.231 19.029 16.0338C18.7695 15.8365 18.4617 15.7127 18.1379 15.6751C17.814 15.6374 17.4861 15.6875 17.1882 15.82C16.2919 16.2485 15.4844 16.8422 14.8082 17.57C14.3882 17.91 12.9682 19 12.9682 19C12.1903 18.9935 11.4216 18.8302 10.7082 18.52C10.7082 18.43 10.7682 18.34 10.8782 18.19C12.0582 16.56 13.5782 15.98 12.5082 14.33C12.3376 14.0971 12.0981 13.9235 11.8237 13.8338C11.5492 13.7441 11.2535 13.7428 10.9782 13.83C9.21821 14.16 7.50821 15.91 5.84821 16.55C5.77821 16.55 5.69821 16.55 5.67821 16.6C5.39821 14.72 3.67821 15.21 2.94821 15.2C2.21821 15.19 0.768206 15.09 1.03821 15.75C1.06911 15.8226 1.12737 15.8801 1.20037 15.91C1.27336 15.94 1.35522 15.94 1.42821 15.91C1.91317 15.8587 2.40331 15.8891 2.87821 16C4.95821 16.23 4.70821 15.06 4.57821 22.26C4.57821 22.93 4.57821 23.11 3.46821 23.2C2.83016 23.24 2.18966 23.2098 1.55821 23.11C1.51421 23.1015 1.46897 23.1017 1.42506 23.1106C1.38115 23.1196 1.33943 23.1371 1.30229 23.1622C1.26514 23.1872 1.2333 23.2194 1.20858 23.2568C1.18386 23.2941 1.16674 23.336 1.15821 23.38C1.14967 23.424 1.14988 23.4692 1.15883 23.5132C1.16778 23.5571 1.18529 23.5988 1.21036 23.6359C1.23543 23.6731 1.26758 23.7049 1.30495 23.7296C1.34233 23.7544 1.38421 23.7715 1.42821 23.78C2.10822 23.928 2.80228 24.0018 3.49821 24C4.49821 24 5.12821 23.85 5.49821 23L7.73821 22.51C11.2782 23.42 16.1282 23.61 19.2382 21.63C20.4182 20.87 21.7382 19.91 21.0882 18.63C20.9666 18.3707 20.7746 18.1508 20.5342 17.9953C20.2938 17.8397 20.0145 17.7547 19.7282 17.75ZM15.3882 18.4C16.3882 17.78 17.6282 16.47 18.3882 16.77C18.6005 16.8413 18.7781 16.99 18.8857 17.1865C18.9932 17.383 19.0226 17.6128 18.9682 17.83C17.1182 18.23 16.2382 18.62 14.5782 18.83C14.8582 18.69 15.1682 18.53 15.3882 18.4ZM18.5782 20.73C14.5782 23.48 7.80821 21.79 7.57821 21.83C5.37821 22.37 5.57821 22.39 5.57821 22.3C5.86821 19.59 5.57821 17.3 5.67821 17.3C6.74372 16.9258 7.75306 16.4077 8.67821 15.76C9.26821 15.37 11.2982 14.21 11.6782 14.82C12.3082 15.82 11.1682 16.07 9.99821 17.58C9.3982 18.36 9.53821 18.89 9.89821 19.26C10.4316 19.6344 11.0441 19.8808 11.6882 19.98C13.9682 20.55 17.8982 19.25 18.5682 19.11C19.2382 18.97 19.6882 18.66 19.9782 19.21C20.2682 19.76 19.0182 20.43 18.5782 20.73Z" fill="#7A387B"/>
</g>
<defs>
<clipPath id="clip0_3013_15275">
<rect width="24" height="24" fill="white" transform="translate(0.968201)"/>
</clipPath>
</defs>
</svg>
