<svg width="25" height="24" viewBox="0 0 25 24" fill="none" xmlns="http://www.w3.org/2000/svg">
<g clip-path="url(#clip0_3013_15243)">
<path fill-rule="evenodd" clip-rule="evenodd" d="M15.5682 17.92C16.3082 17.86 17.0482 17.76 17.7782 17.71C18.5082 17.66 19.2082 17.53 19.9282 17.52C20.3942 17.5061 20.8602 17.543 21.3182 17.63C21.3635 17.6436 21.4111 17.6478 21.4581 17.6425C21.5051 17.6372 21.5505 17.6224 21.5916 17.5991C21.6328 17.5757 21.6687 17.5442 21.6974 17.5066C21.726 17.4689 21.7467 17.4259 21.7582 17.38C21.7831 17.2872 21.7709 17.1884 21.7243 17.1044C21.6776 17.0204 21.6001 16.9579 21.5082 16.93C21.0068 16.7744 20.4908 16.6705 19.9682 16.62C19.2133 16.5572 18.4556 16.5338 17.6982 16.55C16.8285 16.5756 15.9607 16.6457 15.0982 16.76C14.8682 16.76 14.6282 16.86 14.3982 16.9C14.4982 16.69 14.5982 16.47 14.7082 16.26C15.0482 15.65 15.4082 15.05 15.7782 14.45L17.8682 11.38C17.8682 11.38 17.9882 11.05 18.0982 10.84C18.2185 10.9288 18.3233 11.0369 18.4082 11.16C18.6205 11.4438 18.8143 11.7411 18.9882 12.05C19.5882 13 20.1882 14 20.7182 15C21.0886 15.6475 21.4224 16.3152 21.7182 17C21.7527 17.0902 21.8216 17.163 21.9097 17.2023C21.9978 17.2417 22.098 17.2445 22.1882 17.21C22.2784 17.1755 22.3512 17.1066 22.3905 17.0185C22.4299 16.9303 22.4327 16.8302 22.3982 16.74C22.0982 15.84 21.7182 14.93 21.3182 14.04C20.9182 13.15 20.4582 12.28 20.0182 11.44C19.7447 10.9086 19.3905 10.4228 18.9682 10C18.6968 9.74055 18.3428 9.58479 17.9682 9.56C17.8581 9.55606 17.7485 9.57746 17.648 9.62253C17.5474 9.66761 17.4585 9.73517 17.3882 9.82C17.1855 10.0959 16.9985 10.383 16.8282 10.68C16.4782 11.21 16.1282 11.74 15.8282 12.29C15.5282 12.84 15.2282 13.41 14.9682 14C14.7082 14.59 14.4582 15.07 14.2182 15.61C13.9782 16.15 13.8082 16.61 13.6282 17.08C13.2182 17.17 13.2182 17.17 12.8182 17.28C12.4182 17.39 12.4582 17.76 12.6982 17.99C12.9075 18.0979 13.1467 18.1331 13.3782 18.09C14.0882 18 14.8382 18 15.5682 17.92Z" fill="#998696"/>
<path fill-rule="evenodd" clip-rule="evenodd" d="M24.5682 15C24.5682 13.83 24.5182 12.67 24.4782 11.5C24.4082 9.76999 24.3082 8.03 24.2482 6.3C24.2482 5.5 24.2482 4.54 24.1482 3.64C24.081 2.98335 23.8729 2.34892 23.5382 1.78C23.4109 1.59482 23.2481 1.43672 23.0593 1.31485C22.8705 1.19299 22.6594 1.10976 22.4382 1.07C21.6912 0.986931 20.9386 0.96686 20.1882 1.01C18.6682 0.999996 15.1282 0.899996 13.6182 0.919996C12.4382 0.919996 12.6182 1.69 13.7382 1.71C15.2182 1.71 18.6282 1.87 20.1182 2C20.5782 2 21.3182 2 21.9482 2.06C22.0783 2.05911 22.2069 2.0874 22.3245 2.14278C22.4422 2.19816 22.546 2.27922 22.6282 2.38C22.8703 2.81991 23.0104 3.30862 23.0382 3.81C23.0828 4.66274 23.0828 5.51725 23.0382 6.37L23.3382 15.05C23.3382 16.42 23.4482 17.63 23.4682 18.9V20.52V21.58C21.1082 21.47 19.0582 21.37 16.9282 21.37C15.4782 21.37 14.6882 21.37 13.0382 21.5C12.4882 21.61 12.4282 22.3 13.0382 22.25C14.6882 22.16 15.4882 22.18 16.9382 22.25C19.2182 22.31 21.3882 22.5 23.9382 22.69C24.0881 22.6457 24.2201 22.5551 24.3153 22.4311C24.4105 22.3072 24.464 22.1562 24.4682 22C24.4682 21.6 24.5582 20.61 24.5582 20.57C24.6182 19.78 24.6282 19.05 24.6282 18.33C24.6282 17.26 24.5682 16.21 24.5682 15Z" fill="#7A387B"/>
<path fill-rule="evenodd" clip-rule="evenodd" d="M12.2182 20.48C12.2182 19.79 12.0682 16.14 12.0082 15.54C12.4219 15.4354 12.7947 15.209 13.0782 14.89C13.2292 14.6848 13.3504 14.4592 13.4382 14.22C13.542 13.8952 13.6091 13.5598 13.6382 13.22C13.6382 12.9 13.6882 12.58 13.6882 12.22C13.6831 11.8853 13.6564 11.5513 13.6082 11.22C13.5655 10.5212 13.4275 9.83148 13.1982 9.17C12.1982 6.83 11.8182 8.41 12.1482 5.53C12.1782 5.12055 12.1782 4.70945 12.1482 4.3C12.1482 3.89 12.1482 3.48 12.0882 3.08C12.0282 2.68 11.8282 0.609997 11.7982 0.349997C11.7838 0.263561 11.7393 0.185024 11.6724 0.128369C11.6056 0.0717143 11.5208 0.0406189 11.4332 0.0406189C11.3456 0.0406189 11.2608 0.0717143 11.194 0.128369C11.1271 0.185024 11.0826 0.263561 11.0682 0.349997C11.0682 0.619997 10.9582 2.69 10.9482 3.2C10.9382 3.71 10.9682 4 10.9682 4.44V5.66C11.0182 6.33 11.0782 6.99 11.1382 7.66L11.0182 7.73C10.6186 8.05468 10.3116 8.47892 10.1282 8.96C9.91399 9.46824 9.76935 10.0031 9.6982 10.55C9.61062 11.3368 9.5772 12.1286 9.5982 12.92C9.59714 13.3089 9.6306 13.6971 9.6982 14.08C9.76213 14.3935 9.89163 14.69 10.0782 14.95C10.2156 15.1309 10.3885 15.2818 10.5862 15.3935C10.7839 15.5053 11.0024 15.5756 11.2282 15.6C11.1682 16.34 11.0782 17.13 11.0282 17.97V19.29C11.0282 19.73 11.0282 20.17 11.0782 20.61C11.1458 21.6459 11.2693 22.6774 11.4482 23.7C11.4631 23.7955 11.5137 23.8817 11.5899 23.9411C11.666 24.0006 11.762 24.0288 11.8582 24.02C11.9056 24.015 11.9515 24.0007 11.9933 23.9778C12.0351 23.955 12.072 23.9241 12.1018 23.8869C12.1315 23.8496 12.1536 23.8069 12.1667 23.7611C12.1799 23.7153 12.1838 23.6673 12.1782 23.62C12.1382 23.18 12.2082 20.85 12.2182 20.48ZM11.5582 14.43C11.4648 14.4356 11.3715 14.4184 11.2862 14.3801C11.2009 14.3418 11.1261 14.2835 11.0682 14.21C10.987 14.0812 10.9294 13.939 10.8982 13.79C10.8271 13.4783 10.7902 13.1597 10.7882 12.84C10.7059 12.1063 10.6692 11.3682 10.6782 10.63C10.7124 10.1558 10.81 9.68832 10.9682 9.24C11.3282 8.24 12.1782 8.63 12.4782 9.57C12.6359 10.1773 12.7132 10.8026 12.7082 11.43C12.7233 11.7131 12.7233 11.9969 12.7082 12.28C12.6897 12.5549 12.6563 12.8287 12.6082 13.1C12.5738 13.3036 12.5236 13.5042 12.4582 13.7C12.4104 13.8561 12.3284 13.9995 12.2182 14.12C12.1359 14.2149 12.0347 14.2914 11.921 14.3448C11.8073 14.3982 11.6837 14.4272 11.5582 14.43Z" fill="#7A387B"/>
<path fill-rule="evenodd" clip-rule="evenodd" d="M21.1082 6.00001C21.0746 6.03345 21.048 6.07319 21.0298 6.11695C21.0117 6.16071 21.0023 6.20763 21.0023 6.25501C21.0023 6.30239 21.0117 6.3493 21.0298 6.39306C21.048 6.43682 21.0746 6.47656 21.1082 6.51001C21.194 6.61124 21.2571 6.72964 21.2933 6.85728C21.3295 6.98491 21.338 7.11882 21.3182 7.25001C21.3082 7.35528 21.2706 7.45604 21.2091 7.54209C21.1477 7.62814 21.0645 7.69642 20.9682 7.74001C20.6914 7.84739 20.39 7.8751 20.0982 7.82001C19.774 7.78301 19.459 7.68818 19.1682 7.54001C18.8582 7.41001 18.8782 7.10001 19.0082 6.85001C19.0907 6.65247 19.2295 6.4836 19.4073 6.36445C19.5852 6.2453 19.7941 6.18115 20.0082 6.18001C20.0853 6.20659 20.1696 6.20277 20.2439 6.16932C20.3182 6.13587 20.377 6.07531 20.4082 6.00001C20.4186 5.95994 20.4209 5.91819 20.4149 5.87722C20.4089 5.83625 20.3948 5.79689 20.3734 5.76147C20.3519 5.72606 20.3236 5.69529 20.2901 5.67099C20.2566 5.64669 20.2185 5.62936 20.1782 5.62001C19.7376 5.53118 19.2798 5.59339 18.8789 5.79658C18.4779 5.99978 18.1571 6.33213 17.9682 6.74001C17.8825 6.90646 17.8308 7.08831 17.8162 7.27495C17.8015 7.46159 17.8241 7.64929 17.8828 7.82708C17.9414 8.00488 18.0349 8.16921 18.1577 8.3105C18.2806 8.45179 18.4303 8.5672 18.5982 8.65001C19.0287 8.87839 19.5021 9.01462 19.9882 9.05001C20.5114 9.09508 21.0356 8.97626 21.4882 8.71001C21.7208 8.56069 21.9099 8.3526 22.0364 8.10677C22.1628 7.86094 22.2221 7.58609 22.2082 7.31001C22.2049 7.06337 22.1497 6.82019 22.0464 6.59624C21.943 6.37228 21.7937 6.17255 21.6082 6.01001C21.5763 5.97609 21.5379 5.94888 21.4953 5.92997C21.4528 5.91107 21.4069 5.90086 21.3603 5.89993C21.3137 5.89899 21.2675 5.90737 21.2242 5.92455C21.1809 5.94174 21.1414 5.96739 21.1082 6.00001Z" fill="#998696"/>
<path fill-rule="evenodd" clip-rule="evenodd" d="M7.7582 4.73999C7.60374 4.75013 7.45009 4.77018 7.2982 4.79999C5.8682 5.09999 5.9682 5.27999 5.9682 5.42999C5.9682 5.57999 5.9682 5.82999 7.4182 5.95999C7.57785 5.97496 7.73855 5.97496 7.8982 5.95999C8.05608 5.94574 8.21301 5.92237 8.3682 5.88999C9.6482 5.59999 9.8082 5.45999 9.7682 5.17999C9.7282 4.89999 9.5782 4.80999 8.2682 4.73999H7.7582Z" fill="#998696"/>
<path fill-rule="evenodd" clip-rule="evenodd" d="M9.4182 8C9.41052 7.9036 9.3654 7.81404 9.29251 7.7505C9.21962 7.68695 9.12474 7.65447 9.0282 7.66H7.1882C6.93037 7.66799 6.67324 7.69136 6.4182 7.73C6.15928 7.75872 5.9022 7.80212 5.6482 7.86C5.0582 8 4.4982 8.19 3.9082 8.33C3.82499 8.34005 3.74904 8.38234 3.69669 8.44779C3.64433 8.51324 3.61974 8.59661 3.6282 8.68C3.62656 8.72419 3.6344 8.76823 3.65119 8.80914C3.66797 8.85006 3.69332 8.88691 3.72552 8.91722C3.75773 8.94753 3.79605 8.9706 3.8379 8.98487C3.87976 8.99915 3.92419 9.00431 3.9682 9C4.66748 9.04497 5.36892 9.04497 6.0682 9C6.47839 8.96186 6.88584 8.8984 7.2882 8.81C7.8882 8.69 8.4682 8.52 9.0782 8.4C9.12685 8.39622 9.17426 8.38285 9.21772 8.36067C9.26118 8.33848 9.29983 8.30792 9.33143 8.27074C9.36303 8.23357 9.38696 8.1905 9.40186 8.14404C9.41675 8.09757 9.4223 8.04862 9.4182 8Z" fill="#998696"/>
<path fill-rule="evenodd" clip-rule="evenodd" d="M5.8882 13.37C6.02781 13.3847 6.16859 13.3847 6.3082 13.37C6.45403 13.3591 6.59822 13.3323 6.7382 13.29C7.9582 12.97 8.0382 12.83 8.0182 12.57C7.9982 12.31 7.8382 12.21 6.6182 12.15H6.1982C6.05934 12.1578 5.9218 12.1813 5.7882 12.22C4.4682 12.54 4.5282 12.73 4.5382 12.87C4.5482 13.01 4.3982 13.25 5.8882 13.37Z" fill="#998696"/>
<path fill-rule="evenodd" clip-rule="evenodd" d="M3.0982 15.08C3.09818 15.1216 3.10652 15.1627 3.12272 15.201C3.13892 15.2393 3.16265 15.2739 3.1925 15.3028C3.22236 15.3317 3.25772 15.3544 3.2965 15.3693C3.33527 15.3843 3.37666 15.3913 3.4182 15.39C4.0482 15.47 4.6482 15.57 5.2682 15.61H6.0482C6.31578 15.6049 6.58286 15.5849 6.8482 15.55C7.4582 15.48 8.0582 15.37 8.6682 15.28C8.7159 15.2801 8.7631 15.2704 8.80693 15.2516C8.85075 15.2328 8.89026 15.2052 8.92304 15.1705C8.95581 15.1359 8.98116 15.0949 8.99753 15.0501C9.01389 15.0053 9.02093 14.9576 9.0182 14.91C9.01691 14.8627 9.00631 14.8162 8.98701 14.773C8.96771 14.7298 8.94009 14.6908 8.90573 14.6583C8.87137 14.6258 8.83094 14.6004 8.78675 14.5835C8.74256 14.5667 8.69548 14.5587 8.6482 14.56C8.0282 14.51 7.4182 14.43 6.8082 14.4H6.0182C5.75841 14.3851 5.49799 14.3851 5.2382 14.4C4.6182 14.47 4.0282 14.61 3.4082 14.71C3.36299 14.7124 3.31875 14.7241 3.27825 14.7443C3.23774 14.7645 3.20184 14.7929 3.17276 14.8276C3.14368 14.8623 3.12206 14.9026 3.10923 14.946C3.0964 14.9895 3.09265 15.0351 3.0982 15.08Z" fill="#998696"/>
<path fill-rule="evenodd" clip-rule="evenodd" d="M8.4182 17.4C8.235 17.39 8.0514 17.39 7.8682 17.4C7.67852 17.3844 7.48788 17.3844 7.2982 17.4C5.5082 17.71 5.7282 18.06 5.7282 18.09C5.7282 18.12 5.7282 18.42 7.3382 18.57C7.51789 18.5849 7.69851 18.5849 7.8782 18.57C8.05472 18.5803 8.23168 18.5803 8.4082 18.57C9.8382 18.42 10.0382 18.4 10.0482 18.07C10.0582 17.74 9.8782 17.59 8.4182 17.4Z" fill="#998696"/>
<path fill-rule="evenodd" clip-rule="evenodd" d="M9.0782 21.94C7.87466 21.8949 6.66957 21.915 5.4682 22C4.98251 22.0082 4.4971 21.9713 4.0182 21.89C2.3182 21.61 2.4182 21.59 2.4882 19.75L2.5482 14.59V10.05C2.5482 8.51 2.6282 7.05 2.7382 5.51C2.75092 4.75814 2.82787 4.00875 2.9682 3.27C3.0298 2.86356 3.22718 2.48995 3.5282 2.21C3.62972 2.1422 3.74662 2.10094 3.8682 2.09C4.15801 2.07497 4.44839 2.07497 4.7382 2.09C5.48189 2.06596 6.22634 2.08265 6.9682 2.14C7.45208 2.18637 7.93073 2.27674 8.3982 2.41C8.4402 2.42861 8.48572 2.43797 8.53166 2.43742C8.5776 2.43688 8.62288 2.42645 8.66443 2.40684C8.70598 2.38724 8.74281 2.35891 8.77244 2.3238C8.80207 2.28869 8.82379 2.24761 8.83612 2.20335C8.84845 2.1591 8.85111 2.1127 8.84392 2.06733C8.83672 2.02195 8.81984 1.97866 8.79442 1.94039C8.769 1.90212 8.73564 1.86978 8.69661 1.84555C8.65757 1.82132 8.61378 1.80579 8.5682 1.8C8.07179 1.62819 7.55913 1.50756 7.0382 1.44C6.27537 1.34123 5.50736 1.2878 4.7382 1.28C4.35881 1.24944 3.97759 1.24944 3.5982 1.28C3.38393 1.31242 3.17924 1.39089 2.9982 1.51C2.52158 1.8881 2.18107 2.41114 2.0282 3C1.84626 3.78539 1.73251 4.58503 1.6882 5.39C1.5182 6.92 1.4082 8.45 1.3482 10C1.2882 11.55 1.3482 13.06 1.3482 14.61L1.4182 19.74C1.38523 20.2528 1.38523 20.7672 1.4182 21.28C1.43021 21.513 1.51405 21.7366 1.6582 21.92C1.90815 22.1817 2.21658 22.3805 2.5582 22.5C3.00061 22.6422 3.45626 22.7394 3.9182 22.79C4.45227 22.8547 4.9908 22.8748 5.5282 22.85C6.67019 22.7198 7.81881 22.6563 8.9682 22.66C9.01629 22.6655 9.06501 22.6613 9.11143 22.6475C9.15785 22.6338 9.20102 22.6108 9.23836 22.58C9.2757 22.5492 9.30645 22.5112 9.32876 22.4683C9.35107 22.4253 9.36448 22.3783 9.3682 22.33C9.37978 22.2401 9.35602 22.1492 9.30193 22.0765C9.24784 22.0037 9.16763 21.9548 9.0782 21.94Z" fill="#7A387B"/>
</g>
<defs>
<clipPath id="clip0_3013_15243">
<rect width="24" height="24" fill="white" transform="translate(0.968201)"/>
</clipPath>
</defs>
</svg>
